<?xml version="1.0" encoding="UTF-8" standalone="no"?><svg xmlns="http://www.w3.org/2000/svg" xmlns:xlink="http://www.w3.org/1999/xlink" contentScriptType="application/ecmascript" contentStyleType="text/css" height="881px" preserveAspectRatio="none" style="width:2100px;height:881px;" version="1.1" viewBox="0 0 2100 881" width="2100px" zoomAndPan="magnify">
    <defs>
        <filter height="300%" id="f1u5g91eprvztw" width="300%" x="-1" y="-1">
            <feGaussianBlur result="blurOut" stdDeviation="2.0" />
            <feColorMatrix in="blurOut" result="blurOut2" type="matrix" values="0 0 0 0 0 0 0 0 0 0 0 0 0 0 0 0 0 0 .4 0" />
            <feOffset dx="4.0" dy="4.0" in="blurOut2" result="blurOut3" />
            <feBlend in="SourceGraphic" in2="blurOut3" mode="normal" />
        </filter>
    </defs>
    <g>
        <!--class Platform-->
        <rect fill="#FEFECE" filter="url(#f1u5g91eprvztw)" height="53.8359" id="Platform" style="stroke: #A80036; stroke-width: 1.5;" width="112" x="6" y="411.981" />
        <ellipse cx="36.3" cy="427.981" fill="#ADD1B2" rx="11" ry="11" style="stroke: #A80036; stroke-width: 1.0;" />
        <path d="M39.0656,423.856 Q39.2219,423.6373 39.4094,423.5279 Q39.5969,423.4185 39.8156,423.4185 Q40.1906,423.4185 40.425,423.6763 Q40.6594,423.9341 40.6594,424.5435 L40.6594,425.9966 Q40.6594,426.606 40.425,426.8716 Q40.1906,427.1373 39.8156,427.1373 Q39.4719,427.1373 39.2688,426.9341 Q39.0656,426.7466 38.9563,426.231 Q38.9094,425.8716 38.7219,425.6841 Q38.3938,425.3091 37.7844,425.0904 Q37.175,424.8716 36.55,424.8716 Q35.7844,424.8716 35.1516,425.1998 Q34.5188,425.5279 34.0266,426.2779 Q33.5344,427.0279 33.5344,428.0591 L33.5344,429.1529 Q33.5344,430.3873 34.425,431.2076 Q35.3156,432.0279 36.9094,432.0279 Q37.8469,432.0279 38.5031,431.7779 Q38.8938,431.6216 39.3156,431.1841 Q39.5813,430.9185 39.7297,430.8404 Q39.8781,430.7623 40.0813,430.7623 Q40.4094,430.7623 40.6672,431.0201 Q40.925,431.2779 40.925,431.6216 Q40.925,431.9654 40.5813,432.3716 Q40.0813,432.9498 39.2844,433.2779 Q38.2063,433.731 36.9094,433.731 Q35.3938,433.731 34.1906,433.106 Q33.2063,432.606 32.5188,431.5357 Q31.8313,430.4654 31.8313,429.1841 L31.8313,428.0279 Q31.8313,426.6998 32.4484,425.5513 Q33.0656,424.4029 34.1594,423.7857 Q35.2531,423.1685 36.4875,423.1685 Q37.2219,423.1685 37.8703,423.3326 Q38.5188,423.4966 39.0656,423.856 Z " /><text fill="#000000" font-family="sans-serif" font-size="12" lengthAdjust="spacingAndGlyphs" textLength="46" x="53.7" y="432.8912">Platform</text>
        <line style="stroke: #A80036; stroke-width: 1.5;" x1="7" x2="117" y1="443.981" y2="443.981" />
        <rect fill="none" height="6" style="stroke: #C82930; stroke-width: 1.0;" width="6" x="14" y="453.399" /><text fill="#000000" font-family="sans-serif" font-size="11" lengthAdjust="spacingAndGlyphs" textLength="86" x="26" y="459.3999">String designation</text>
        <!--class Administrator-->
        <rect fill="#FEFECE" filter="url(#f1u5g91eprvztw)" height="40" id="Administrator" style="stroke: #A80036; stroke-width: 1.5;" width="105" x="275" y="345.981" />
        <ellipse cx="290" cy="361.981" fill="#ADD1B2" rx="11" ry="11" style="stroke: #A80036; stroke-width: 1.0;" />
        <path d="M292.7656,357.856 Q292.9219,357.6373 293.1094,357.5279 Q293.2969,357.4185 293.5156,357.4185 Q293.8906,357.4185 294.125,357.6763 Q294.3594,357.9341 294.3594,358.5435 L294.3594,359.9966 Q294.3594,360.606 294.125,360.8716 Q293.8906,361.1373 293.5156,361.1373 Q293.1719,361.1373 292.9688,360.9341 Q292.7656,360.7466 292.6563,360.231 Q292.6094,359.8716 292.4219,359.6841 Q292.0938,359.3091 291.4844,359.0904 Q290.875,358.8716 290.25,358.8716 Q289.4844,358.8716 288.8516,359.1998 Q288.2188,359.5279 287.7266,360.2779 Q287.2344,361.0279 287.2344,362.0591 L287.2344,363.1529 Q287.2344,364.3873 288.125,365.2076 Q289.0156,366.0279 290.6094,366.0279 Q291.5469,366.0279 292.2031,365.7779 Q292.5938,365.6216 293.0156,365.1841 Q293.2813,364.9185 293.4297,364.8404 Q293.5781,364.7623 293.7813,364.7623 Q294.1094,364.7623 294.3672,365.0201 Q294.625,365.2779 294.625,365.6216 Q294.625,365.9654 294.2813,366.3716 Q293.7813,366.9498 292.9844,367.2779 Q291.9063,367.731 290.6094,367.731 Q289.0938,367.731 287.8906,367.106 Q286.9063,366.606 286.2188,365.5357 Q285.5313,364.4654 285.5313,363.1841 L285.5313,362.0279 Q285.5313,360.6998 286.1484,359.5513 Q286.7656,358.4029 287.8594,357.7857 Q288.9531,357.1685 290.1875,357.1685 Q290.9219,357.1685 291.5703,357.3326 Q292.2188,357.4966 292.7656,357.856 Z " /><text fill="#000000" font-family="sans-serif" font-size="12" lengthAdjust="spacingAndGlyphs" textLength="73" x="304" y="366.8912">Administrator</text>
        <line style="stroke: #A80036; stroke-width: 1.5;" x1="276" x2="379" y1="377.981" y2="377.981" />
        <!--class Organization-->
        <rect fill="#FEFECE" filter="url(#f1u5g91eprvztw)" height="53.8359" id="Organization" style="stroke: #A80036; stroke-width: 1.5;" width="112" x="679" y="379.981" />
        <ellipse cx="698.95" cy="395.981" fill="#ADD1B2" rx="11" ry="11" style="stroke: #A80036; stroke-width: 1.0;" />
        <path d="M701.7156,391.856 Q701.8719,391.6373 702.0594,391.5279 Q702.2469,391.4185 702.4656,391.4185 Q702.8406,391.4185 703.075,391.6763 Q703.3094,391.9341 703.3094,392.5435 L703.3094,393.9966 Q703.3094,394.606 703.075,394.8716 Q702.8406,395.1373 702.4656,395.1373 Q702.1219,395.1373 701.9188,394.9341 Q701.7156,394.7466 701.6063,394.231 Q701.5594,393.8716 701.3719,393.6841 Q701.0438,393.3091 700.4344,393.0904 Q699.825,392.8716 699.2,392.8716 Q698.4344,392.8716 697.8016,393.1998 Q697.1688,393.5279 696.6766,394.2779 Q696.1844,395.0279 696.1844,396.0591 L696.1844,397.1529 Q696.1844,398.3873 697.075,399.2076 Q697.9656,400.0279 699.5594,400.0279 Q700.4969,400.0279 701.1531,399.7779 Q701.5438,399.6216 701.9656,399.1841 Q702.2313,398.9185 702.3797,398.8404 Q702.5281,398.7623 702.7313,398.7623 Q703.0594,398.7623 703.3172,399.0201 Q703.575,399.2779 703.575,399.6216 Q703.575,399.9654 703.2313,400.3716 Q702.7313,400.9498 701.9344,401.2779 Q700.8563,401.731 699.5594,401.731 Q698.0438,401.731 696.8406,401.106 Q695.8563,400.606 695.1688,399.5357 Q694.4813,398.4654 694.4813,397.1841 L694.4813,396.0279 Q694.4813,394.6998 695.0984,393.5513 Q695.7156,392.4029 696.8094,391.7857 Q697.9031,391.1685 699.1375,391.1685 Q699.8719,391.1685 700.5203,391.3326 Q701.1688,391.4966 701.7156,391.856 Z " /><text fill="#000000" font-family="sans-serif" font-size="12" lengthAdjust="spacingAndGlyphs" textLength="69" x="714.05" y="400.8912">Organization</text>
        <line style="stroke: #A80036; stroke-width: 1.5;" x1="680" x2="790" y1="411.981" y2="411.981" />
        <rect fill="none" height="6" style="stroke: #C82930; stroke-width: 1.0;" width="6" x="687" y="421.399" /><text fill="#000000" font-family="sans-serif" font-size="11" lengthAdjust="spacingAndGlyphs" textLength="86" x="699" y="427.3999">String designation</text>
        <!--class User-->
        <rect fill="#FEFECE" filter="url(#f1u5g91eprvztw)" height="81.5078" id="User" style="stroke: #A80036; stroke-width: 1.5;" width="107" x="1232" y="148.981" />
        <ellipse cx="1268.6" cy="164.981" fill="#ADD1B2" rx="11" ry="11" style="stroke: #A80036; stroke-width: 1.0;" />
        <path d="M1271.3656,160.856 Q1271.5219,160.6373 1271.7094,160.5279 Q1271.8969,160.4185 1272.1156,160.4185 Q1272.4906,160.4185 1272.725,160.6763 Q1272.9594,160.9341 1272.9594,161.5435 L1272.9594,162.9966 Q1272.9594,163.606 1272.725,163.8716 Q1272.4906,164.1373 1272.1156,164.1373 Q1271.7719,164.1373 1271.5688,163.9341 Q1271.3656,163.7466 1271.2563,163.231 Q1271.2094,162.8716 1271.0219,162.6841 Q1270.6938,162.3091 1270.0844,162.0904 Q1269.475,161.8716 1268.85,161.8716 Q1268.0844,161.8716 1267.4516,162.1998 Q1266.8188,162.5279 1266.3266,163.2779 Q1265.8344,164.0279 1265.8344,165.0591 L1265.8344,166.1529 Q1265.8344,167.3873 1266.725,168.2076 Q1267.6156,169.0279 1269.2094,169.0279 Q1270.1469,169.0279 1270.8031,168.7779 Q1271.1938,168.6216 1271.6156,168.1841 Q1271.8813,167.9185 1272.0297,167.8404 Q1272.1781,167.7623 1272.3813,167.7623 Q1272.7094,167.7623 1272.9672,168.0201 Q1273.225,168.2779 1273.225,168.6216 Q1273.225,168.9654 1272.8813,169.3716 Q1272.3813,169.9498 1271.5844,170.2779 Q1270.5063,170.731 1269.2094,170.731 Q1267.6938,170.731 1266.4906,170.106 Q1265.5063,169.606 1264.8188,168.5357 Q1264.1313,167.4654 1264.1313,166.1841 L1264.1313,165.0279 Q1264.1313,163.6998 1264.7484,162.5513 Q1265.3656,161.4029 1266.4594,160.7857 Q1267.5531,160.1685 1268.7875,160.1685 Q1269.5219,160.1685 1270.1703,160.3326 Q1270.8188,160.4966 1271.3656,160.856 Z " /><text fill="#000000" font-family="sans-serif" font-size="12" lengthAdjust="spacingAndGlyphs" textLength="27" x="1287.4" y="169.8912">User</text>
        <line style="stroke: #A80036; stroke-width: 1.5;" x1="1233" x2="1338" y1="180.981" y2="180.981" />
        <rect fill="none" height="6" style="stroke: #C82930; stroke-width: 1.0;" width="6" x="1240" y="190.399" /><text fill="#000000" font-family="sans-serif" font-size="11" lengthAdjust="spacingAndGlyphs" textLength="57" x="1252" y="196.3999">String name</text>
        <rect fill="none" height="6" style="stroke: #C82930; stroke-width: 1.0;" width="6" x="1240" y="204.2349" /><text fill="#000000" font-family="sans-serif" font-size="11" lengthAdjust="spacingAndGlyphs" textLength="55" x="1252" y="210.2359">String email</text>
        <rect fill="none" height="6" style="stroke: #C82930; stroke-width: 1.0;" width="6" x="1240" y="218.0708" /><text fill="#000000" font-family="sans-serif" font-size="11" lengthAdjust="spacingAndGlyphs" textLength="81" x="1252" y="224.0718">String password</text>
        <!--class Collaborator-->
        <rect fill="#FEFECE" filter="url(#f1u5g91eprvztw)" height="67.6719" id="Collaborator" style="stroke: #A80036; stroke-width: 1.5;" width="100" x="997" y="434.981" />
        <ellipse cx="1012" cy="450.981" fill="#ADD1B2" rx="11" ry="11" style="stroke: #A80036; stroke-width: 1.0;" />
        <path d="M1014.7656,446.856 Q1014.9219,446.6373 1015.1094,446.5279 Q1015.2969,446.4185 1015.5156,446.4185 Q1015.8906,446.4185 1016.125,446.6763 Q1016.3594,446.9341 1016.3594,447.5435 L1016.3594,448.9966 Q1016.3594,449.606 1016.125,449.8716 Q1015.8906,450.1373 1015.5156,450.1373 Q1015.1719,450.1373 1014.9688,449.9341 Q1014.7656,449.7466 1014.6563,449.231 Q1014.6094,448.8716 1014.4219,448.6841 Q1014.0938,448.3091 1013.4844,448.0904 Q1012.875,447.8716 1012.25,447.8716 Q1011.4844,447.8716 1010.8516,448.1998 Q1010.2188,448.5279 1009.7266,449.2779 Q1009.2344,450.0279 1009.2344,451.0591 L1009.2344,452.1529 Q1009.2344,453.3873 1010.125,454.2076 Q1011.0156,455.0279 1012.6094,455.0279 Q1013.5469,455.0279 1014.2031,454.7779 Q1014.5938,454.6216 1015.0156,454.1841 Q1015.2813,453.9185 1015.4297,453.8404 Q1015.5781,453.7623 1015.7813,453.7623 Q1016.1094,453.7623 1016.3672,454.0201 Q1016.625,454.2779 1016.625,454.6216 Q1016.625,454.9654 1016.2813,455.3716 Q1015.7813,455.9498 1014.9844,456.2779 Q1013.9063,456.731 1012.6094,456.731 Q1011.0938,456.731 1009.8906,456.106 Q1008.9063,455.606 1008.2188,454.5357 Q1007.5313,453.4654 1007.5313,452.1841 L1007.5313,451.0279 Q1007.5313,449.6998 1008.1484,448.5513 Q1008.7656,447.4029 1009.8594,446.7857 Q1010.9531,446.1685 1012.1875,446.1685 Q1012.9219,446.1685 1013.5703,446.3326 Q1014.2188,446.4966 1014.7656,446.856 Z " /><text fill="#000000" font-family="sans-serif" font-size="12" lengthAdjust="spacingAndGlyphs" textLength="68" x="1026" y="455.8912">Collaborator</text>
        <line style="stroke: #A80036; stroke-width: 1.5;" x1="998" x2="1096" y1="466.981" y2="466.981" />
        <rect fill="none" height="6" style="stroke: #C82930; stroke-width: 1.0;" width="6" x="1005" y="476.399" /><text fill="#000000" font-family="sans-serif" font-size="11" lengthAdjust="spacingAndGlyphs" textLength="57" x="1017" y="482.3999">String name</text>
        <rect fill="none" height="6" style="stroke: #C82930; stroke-width: 1.0;" width="6" x="1005" y="490.2349" /><text fill="#000000" font-family="sans-serif" font-size="11" lengthAdjust="spacingAndGlyphs" textLength="55" x="1017" y="496.2359">String email</text>
        <!--class Manager-->
        <rect fill="#FEFECE" filter="url(#f1u5g91eprvztw)" height="67.6719" id="Manager" style="stroke: #A80036; stroke-width: 1.5;" width="83" x="1005.5" y="242.981" />
        <ellipse cx="1021.85" cy="258.981" fill="#ADD1B2" rx="11" ry="11" style="stroke: #A80036; stroke-width: 1.0;" />
        <path d="M1024.6156,254.856 Q1024.7719,254.6373 1024.9594,254.5279 Q1025.1469,254.4185 1025.3656,254.4185 Q1025.7406,254.4185 1025.975,254.6763 Q1026.2094,254.9341 1026.2094,255.5435 L1026.2094,256.9966 Q1026.2094,257.606 1025.975,257.8716 Q1025.7406,258.1373 1025.3656,258.1373 Q1025.0219,258.1373 1024.8188,257.9341 Q1024.6156,257.7466 1024.5063,257.231 Q1024.4594,256.8716 1024.2719,256.6841 Q1023.9438,256.3091 1023.3344,256.0904 Q1022.725,255.8716 1022.1,255.8716 Q1021.3344,255.8716 1020.7016,256.1998 Q1020.0688,256.5279 1019.5766,257.2779 Q1019.0844,258.0279 1019.0844,259.0591 L1019.0844,260.1529 Q1019.0844,261.3873 1019.975,262.2076 Q1020.8656,263.0279 1022.4594,263.0279 Q1023.3969,263.0279 1024.0531,262.7779 Q1024.4438,262.6216 1024.8656,262.1841 Q1025.1313,261.9185 1025.2797,261.8404 Q1025.4281,261.7623 1025.6313,261.7623 Q1025.9594,261.7623 1026.2172,262.0201 Q1026.475,262.2779 1026.475,262.6216 Q1026.475,262.9654 1026.1313,263.3716 Q1025.6313,263.9498 1024.8344,264.2779 Q1023.7563,264.731 1022.4594,264.731 Q1020.9438,264.731 1019.7406,264.106 Q1018.7563,263.606 1018.0688,262.5357 Q1017.3813,261.4654 1017.3813,260.1841 L1017.3813,259.0279 Q1017.3813,257.6998 1017.9984,256.5513 Q1018.6156,255.4029 1019.7094,254.7857 Q1020.8031,254.1685 1022.0375,254.1685 Q1022.7719,254.1685 1023.4203,254.3326 Q1024.0688,254.4966 1024.6156,254.856 Z " /><text fill="#000000" font-family="sans-serif" font-size="12" lengthAdjust="spacingAndGlyphs" textLength="48" x="1036.15" y="263.8912">Manager</text>
        <line style="stroke: #A80036; stroke-width: 1.5;" x1="1006.5" x2="1087.5" y1="274.981" y2="274.981" />
        <rect fill="none" height="6" style="stroke: #C82930; stroke-width: 1.0;" width="6" x="1013.5" y="284.399" /><text fill="#000000" font-family="sans-serif" font-size="11" lengthAdjust="spacingAndGlyphs" textLength="57" x="1025.5" y="290.3999">String name</text>
        <rect fill="none" height="6" style="stroke: #C82930; stroke-width: 1.0;" width="6" x="1013.5" y="298.2349" /><text fill="#000000" font-family="sans-serif" font-size="11" lengthAdjust="spacingAndGlyphs" textLength="55" x="1025.5" y="304.2359">String email</text>
        <!--class Freelancer-->
        <rect fill="#FEFECE" filter="url(#f1u5g91eprvztw)" height="123.0156" id="Freelancer" style="stroke: #A80036; stroke-width: 1.5;" width="142" x="1476" y="621.481" />
        <ellipse cx="1513.95" cy="637.481" fill="#ADD1B2" rx="11" ry="11" style="stroke: #A80036; stroke-width: 1.0;" />
        <path d="M1516.7156,633.356 Q1516.8719,633.1373 1517.0594,633.0279 Q1517.2469,632.9185 1517.4656,632.9185 Q1517.8406,632.9185 1518.075,633.1763 Q1518.3094,633.4341 1518.3094,634.0435 L1518.3094,635.4966 Q1518.3094,636.106 1518.075,636.3716 Q1517.8406,636.6373 1517.4656,636.6373 Q1517.1219,636.6373 1516.9188,636.4341 Q1516.7156,636.2466 1516.6063,635.731 Q1516.5594,635.3716 1516.3719,635.1841 Q1516.0438,634.8091 1515.4344,634.5904 Q1514.825,634.3716 1514.2,634.3716 Q1513.4344,634.3716 1512.8016,634.6998 Q1512.1688,635.0279 1511.6766,635.7779 Q1511.1844,636.5279 1511.1844,637.5591 L1511.1844,638.6529 Q1511.1844,639.8873 1512.075,640.7076 Q1512.9656,641.5279 1514.5594,641.5279 Q1515.4969,641.5279 1516.1531,641.2779 Q1516.5438,641.1216 1516.9656,640.6841 Q1517.2313,640.4185 1517.3797,640.3404 Q1517.5281,640.2623 1517.7313,640.2623 Q1518.0594,640.2623 1518.3172,640.5201 Q1518.575,640.7779 1518.575,641.1216 Q1518.575,641.4654 1518.2313,641.8716 Q1517.7313,642.4498 1516.9344,642.7779 Q1515.8563,643.231 1514.5594,643.231 Q1513.0438,643.231 1511.8406,642.606 Q1510.8563,642.106 1510.1688,641.0357 Q1509.4813,639.9654 1509.4813,638.6841 L1509.4813,637.5279 Q1509.4813,636.1998 1510.0984,635.0513 Q1510.7156,633.9029 1511.8094,633.2857 Q1512.9031,632.6685 1514.1375,632.6685 Q1514.8719,632.6685 1515.5203,632.8326 Q1516.1688,632.9966 1516.7156,633.356 Z " /><text fill="#000000" font-family="sans-serif" font-size="12" lengthAdjust="spacingAndGlyphs" textLength="59" x="1533.05" y="642.3912">Freelancer</text>
        <line style="stroke: #A80036; stroke-width: 1.5;" x1="1477" x2="1617" y1="653.481" y2="653.481" />
        <rect fill="none" height="6" style="stroke: #C82930; stroke-width: 1.0;" width="6" x="1484" y="662.899" /><text fill="#000000" font-family="sans-serif" font-size="11" lengthAdjust="spacingAndGlyphs" textLength="39" x="1496" y="668.8999">String id</text>
        <rect fill="none" height="6" style="stroke: #C82930; stroke-width: 1.0;" width="6" x="1484" y="676.7349" /><text fill="#000000" font-family="sans-serif" font-size="11" lengthAdjust="spacingAndGlyphs" textLength="57" x="1496" y="682.7359">String name</text>
        <rect fill="none" height="6" style="stroke: #C82930; stroke-width: 1.0;" width="6" x="1484" y="690.5708" /><text fill="#000000" font-family="sans-serif" font-size="11" lengthAdjust="spacingAndGlyphs" textLength="55" x="1496" y="696.5718">String email</text>
        <rect fill="none" height="6" style="stroke: #C82930; stroke-width: 1.0;" width="6" x="1484" y="704.4068" /><text fill="#000000" font-family="sans-serif" font-size="11" lengthAdjust="spacingAndGlyphs" textLength="50" x="1496" y="710.4078">double NIF</text>
        <rect fill="none" height="6" style="stroke: #C82930; stroke-width: 1.0;" width="6" x="1484" y="718.2427" /><text fill="#000000" font-family="sans-serif" font-size="11" lengthAdjust="spacingAndGlyphs" textLength="55" x="1496" y="724.2437">String IBAN</text>
        <rect fill="none" height="6" style="stroke: #C82930; stroke-width: 1.0;" width="6" x="1484" y="732.0787" /><text fill="#000000" font-family="sans-serif" font-size="11" lengthAdjust="spacingAndGlyphs" textLength="116" x="1496" y="738.0796">double OverallPayments</text>
        <!--class LevelOfExpertise-->
        <rect fill="#FEFECE" filter="url(#f1u5g91eprvztw)" height="67.6719" id="LevelOfExpertise" style="stroke: #A80036; stroke-width: 1.5;" width="124" x="1725.5" y="742.981" />
        <ellipse cx="1740.5" cy="758.981" fill="#EB937F" rx="11" ry="11" style="stroke: #A80036; stroke-width: 1.0;" />
        <path d="M1739.3594,759.7779 L1739.3594,762.2779 L1743.6875,762.2779 L1743.6875,761.356 Q1743.6875,760.7466 1743.9297,760.481 Q1744.1719,760.2154 1744.5469,760.2154 Q1744.9219,760.2154 1745.1563,760.481 Q1745.3906,760.7466 1745.3906,761.356 L1745.3906,763.981 L1737.3906,763.981 Q1736.7656,763.981 1736.5078,763.7466 Q1736.25,763.5123 1736.25,763.1216 Q1736.25,762.7466 1736.5156,762.5123 Q1736.7813,762.2779 1737.3906,762.2779 L1737.6563,762.2779 L1737.6563,755.6216 L1737.3906,755.6216 Q1736.7656,755.6216 1736.5078,755.3873 Q1736.25,755.1529 1736.25,754.7623 Q1736.25,754.3873 1736.5078,754.1529 Q1736.7656,753.9185 1737.3906,753.9185 L1745.0156,753.9185 L1745.0156,756.5123 Q1745.0156,757.1216 1744.7891,757.3794 Q1744.5625,757.6373 1744.1719,757.6373 Q1743.7969,757.6373 1743.5625,757.3794 Q1743.3281,757.1216 1743.3281,756.5123 L1743.3281,755.6216 L1739.3594,755.6216 L1739.3594,758.0748 L1740.8438,758.0748 Q1740.8438,757.4185 1740.9688,757.231 Q1741.2344,756.8248 1741.7031,756.8248 Q1742.0781,756.8248 1742.3125,757.0826 Q1742.5469,757.3404 1742.5469,757.9498 L1742.5469,759.9185 Q1742.5469,760.4654 1742.4219,760.6529 Q1742.1563,761.0435 1741.7031,761.0435 Q1741.2344,761.0435 1740.9688,760.6373 Q1740.8438,760.4498 1740.8438,759.7779 L1739.3594,759.7779 Z " /><text fill="#000000" font-family="sans-serif" font-size="12" lengthAdjust="spacingAndGlyphs" textLength="92" x="1754.5" y="763.8912">LevelOfExpertise</text>
        <line style="stroke: #A80036; stroke-width: 1.5;" x1="1726.5" x2="1848.5" y1="774.981" y2="774.981" />
        <rect fill="none" height="6" style="stroke: #C82930; stroke-width: 1.0;" width="6" x="1733.5" y="784.399" /><text fill="#000000" font-family="sans-serif" font-size="11" lengthAdjust="spacingAndGlyphs" textLength="36" x="1745.5" y="790.3999">JUNIOR</text>
        <rect fill="none" height="6" style="stroke: #C82930; stroke-width: 1.0;" width="6" x="1733.5" y="798.2349" /><text fill="#000000" font-family="sans-serif" font-size="11" lengthAdjust="spacingAndGlyphs" textLength="37" x="1745.5" y="804.2359">SENIOR</text>
        <!--class Location-->
        <rect fill="#FEFECE" filter="url(#f1u5g91eprvztw)" height="67.6719" id="Location" style="stroke: #A80036; stroke-width: 1.5;" width="97" x="1739" y="639.981" />
        <ellipse cx="1762.1" cy="655.981" fill="#ADD1B2" rx="11" ry="11" style="stroke: #A80036; stroke-width: 1.0;" />
        <path d="M1764.8656,651.856 Q1765.0219,651.6373 1765.2094,651.5279 Q1765.3969,651.4185 1765.6156,651.4185 Q1765.9906,651.4185 1766.225,651.6763 Q1766.4594,651.9341 1766.4594,652.5435 L1766.4594,653.9966 Q1766.4594,654.606 1766.225,654.8716 Q1765.9906,655.1373 1765.6156,655.1373 Q1765.2719,655.1373 1765.0688,654.9341 Q1764.8656,654.7466 1764.7563,654.231 Q1764.7094,653.8716 1764.5219,653.6841 Q1764.1938,653.3091 1763.5844,653.0904 Q1762.975,652.8716 1762.35,652.8716 Q1761.5844,652.8716 1760.9516,653.1998 Q1760.3188,653.5279 1759.8266,654.2779 Q1759.3344,655.0279 1759.3344,656.0591 L1759.3344,657.1529 Q1759.3344,658.3873 1760.225,659.2076 Q1761.1156,660.0279 1762.7094,660.0279 Q1763.6469,660.0279 1764.3031,659.7779 Q1764.6938,659.6216 1765.1156,659.1841 Q1765.3813,658.9185 1765.5297,658.8404 Q1765.6781,658.7623 1765.8813,658.7623 Q1766.2094,658.7623 1766.4672,659.0201 Q1766.725,659.2779 1766.725,659.6216 Q1766.725,659.9654 1766.3813,660.3716 Q1765.8813,660.9498 1765.0844,661.2779 Q1764.0063,661.731 1762.7094,661.731 Q1761.1938,661.731 1759.9906,661.106 Q1759.0063,660.606 1758.3188,659.5357 Q1757.6313,658.4654 1757.6313,657.1841 L1757.6313,656.0279 Q1757.6313,654.6998 1758.2484,653.5513 Q1758.8656,652.4029 1759.9594,651.7857 Q1761.0531,651.1685 1762.2875,651.1685 Q1763.0219,651.1685 1763.6703,651.3326 Q1764.3188,651.4966 1764.8656,651.856 Z " /><text fill="#000000" font-family="sans-serif" font-size="12" lengthAdjust="spacingAndGlyphs" textLength="47" x="1777.9" y="660.8912">Location</text>
        <line style="stroke: #A80036; stroke-width: 1.5;" x1="1740" x2="1835" y1="671.981" y2="671.981" />
        <rect fill="none" height="6" style="stroke: #C82930; stroke-width: 1.0;" width="6" x="1747" y="681.399" /><text fill="#000000" font-family="sans-serif" font-size="11" lengthAdjust="spacingAndGlyphs" textLength="71" x="1759" y="687.3999">String address</text>
        <rect fill="none" height="6" style="stroke: #C82930; stroke-width: 1.0;" width="6" x="1747" y="695.2349" /><text fill="#000000" font-family="sans-serif" font-size="11" lengthAdjust="spacingAndGlyphs" textLength="68" x="1759" y="701.2359">String country</text>
        <!--class PaymentTransaction-->
        <rect fill="#FEFECE" filter="url(#f1u5g91eprvztw)" height="53.8359" id="PaymentTransaction" style="stroke: #A80036; stroke-width: 1.5;" width="145" x="1213" y="620.981" />
        <ellipse cx="1228" cy="636.981" fill="#ADD1B2" rx="11" ry="11" style="stroke: #A80036; stroke-width: 1.0;" />
        <path d="M1230.7656,632.856 Q1230.9219,632.6373 1231.1094,632.5279 Q1231.2969,632.4185 1231.5156,632.4185 Q1231.8906,632.4185 1232.125,632.6763 Q1232.3594,632.9341 1232.3594,633.5435 L1232.3594,634.9966 Q1232.3594,635.606 1232.125,635.8716 Q1231.8906,636.1373 1231.5156,636.1373 Q1231.1719,636.1373 1230.9688,635.9341 Q1230.7656,635.7466 1230.6563,635.231 Q1230.6094,634.8716 1230.4219,634.6841 Q1230.0938,634.3091 1229.4844,634.0904 Q1228.875,633.8716 1228.25,633.8716 Q1227.4844,633.8716 1226.8516,634.1998 Q1226.2188,634.5279 1225.7266,635.2779 Q1225.2344,636.0279 1225.2344,637.0591 L1225.2344,638.1529 Q1225.2344,639.3873 1226.125,640.2076 Q1227.0156,641.0279 1228.6094,641.0279 Q1229.5469,641.0279 1230.2031,640.7779 Q1230.5938,640.6216 1231.0156,640.1841 Q1231.2813,639.9185 1231.4297,639.8404 Q1231.5781,639.7623 1231.7813,639.7623 Q1232.1094,639.7623 1232.3672,640.0201 Q1232.625,640.2779 1232.625,640.6216 Q1232.625,640.9654 1232.2813,641.3716 Q1231.7813,641.9498 1230.9844,642.2779 Q1229.9063,642.731 1228.6094,642.731 Q1227.0938,642.731 1225.8906,642.106 Q1224.9063,641.606 1224.2188,640.5357 Q1223.5313,639.4654 1223.5313,638.1841 L1223.5313,637.0279 Q1223.5313,635.6998 1224.1484,634.5513 Q1224.7656,633.4029 1225.8594,632.7857 Q1226.9531,632.1685 1228.1875,632.1685 Q1228.9219,632.1685 1229.5703,632.3326 Q1230.2188,632.4966 1230.7656,632.856 Z " /><text fill="#000000" font-family="sans-serif" font-size="12" lengthAdjust="spacingAndGlyphs" textLength="113" x="1242" y="641.8912">PaymentTransaction</text>
        <line style="stroke: #A80036; stroke-width: 1.5;" x1="1214" x2="1357" y1="652.981" y2="652.981" />
        <rect fill="none" height="6" style="stroke: #C82930; stroke-width: 1.0;" width="6" x="1221" y="662.399" /><text fill="#000000" font-family="sans-serif" font-size="11" lengthAdjust="spacingAndGlyphs" textLength="39" x="1233" y="668.3999">String id</text>
        <!--class Task-->
        <rect fill="#FEFECE" filter="url(#f1u5g91eprvztw)" height="109.1797" id="Task" style="stroke: #A80036; stroke-width: 1.5;" width="133" x="1721" y="425.481" />
        <ellipse cx="1769.75" cy="441.481" fill="#ADD1B2" rx="11" ry="11" style="stroke: #A80036; stroke-width: 1.0;" />
        <path d="M1772.5156,437.356 Q1772.6719,437.1373 1772.8594,437.0279 Q1773.0469,436.9185 1773.2656,436.9185 Q1773.6406,436.9185 1773.875,437.1763 Q1774.1094,437.4341 1774.1094,438.0435 L1774.1094,439.4966 Q1774.1094,440.106 1773.875,440.3716 Q1773.6406,440.6373 1773.2656,440.6373 Q1772.9219,440.6373 1772.7188,440.4341 Q1772.5156,440.2466 1772.4063,439.731 Q1772.3594,439.3716 1772.1719,439.1841 Q1771.8438,438.8091 1771.2344,438.5904 Q1770.625,438.3716 1770,438.3716 Q1769.2344,438.3716 1768.6016,438.6998 Q1767.9688,439.0279 1767.4766,439.7779 Q1766.9844,440.5279 1766.9844,441.5591 L1766.9844,442.6529 Q1766.9844,443.8873 1767.875,444.7076 Q1768.7656,445.5279 1770.3594,445.5279 Q1771.2969,445.5279 1771.9531,445.2779 Q1772.3438,445.1216 1772.7656,444.6841 Q1773.0313,444.4185 1773.1797,444.3404 Q1773.3281,444.2623 1773.5313,444.2623 Q1773.8594,444.2623 1774.1172,444.5201 Q1774.375,444.7779 1774.375,445.1216 Q1774.375,445.4654 1774.0313,445.8716 Q1773.5313,446.4498 1772.7344,446.7779 Q1771.6563,447.231 1770.3594,447.231 Q1768.8438,447.231 1767.6406,446.606 Q1766.6563,446.106 1765.9688,445.0357 Q1765.2813,443.9654 1765.2813,442.6841 L1765.2813,441.5279 Q1765.2813,440.1998 1765.8984,439.0513 Q1766.5156,437.9029 1767.6094,437.2857 Q1768.7031,436.6685 1769.9375,436.6685 Q1770.6719,436.6685 1771.3203,436.8326 Q1771.9688,436.9966 1772.5156,437.356 Z " /><text fill="#000000" font-family="sans-serif" font-size="12" lengthAdjust="spacingAndGlyphs" textLength="27" x="1790.25" y="446.3912">Task</text>
        <line style="stroke: #A80036; stroke-width: 1.5;" x1="1722" x2="1853" y1="457.481" y2="457.481" />
        <rect fill="none" height="6" style="stroke: #C82930; stroke-width: 1.0;" width="6" x="1729" y="466.899" /><text fill="#000000" font-family="sans-serif" font-size="11" lengthAdjust="spacingAndGlyphs" textLength="39" x="1741" y="472.8999">String id</text>
        <rect fill="none" height="6" style="stroke: #C82930; stroke-width: 1.0;" width="6" x="1729" y="480.7349" /><text fill="#000000" font-family="sans-serif" font-size="11" lengthAdjust="spacingAndGlyphs" textLength="107" x="1741" y="486.7359">String briefDescription</text>
        <rect fill="none" height="6" style="stroke: #C82930; stroke-width: 1.0;" width="6" x="1729" y="494.5708" /><text fill="#000000" font-family="sans-serif" font-size="11" lengthAdjust="spacingAndGlyphs" textLength="95" x="1741" y="500.5718">Double timeDuration</text>
        <rect fill="none" height="6" style="stroke: #C82930; stroke-width: 1.0;" width="6" x="1729" y="508.4068" /><text fill="#000000" font-family="sans-serif" font-size="11" lengthAdjust="spacingAndGlyphs" textLength="96" x="1741" y="514.4078">Double costPerHour</text>
        <rect fill="none" height="6" style="stroke: #C82930; stroke-width: 1.0;" width="6" x="1729" y="522.2427" /><text fill="#000000" font-family="sans-serif" font-size="11" lengthAdjust="spacingAndGlyphs" textLength="74" x="1741" y="528.2437">String category</text>
        <!--class TaskExecution-->
        <rect fill="#FEFECE" filter="url(#f1u5g91eprvztw)" height="81.5078" id="TaskExecution" style="stroke: #A80036; stroke-width: 1.5;" width="139" x="1950" y="329.981" />
        <ellipse cx="1977.15" cy="345.981" fill="#ADD1B2" rx="11" ry="11" style="stroke: #A80036; stroke-width: 1.0;" />
        <path d="M1979.9156,341.856 Q1980.0719,341.6373 1980.2594,341.5279 Q1980.4469,341.4185 1980.6656,341.4185 Q1981.0406,341.4185 1981.275,341.6763 Q1981.5094,341.9341 1981.5094,342.5435 L1981.5094,343.9966 Q1981.5094,344.606 1981.275,344.8716 Q1981.0406,345.1373 1980.6656,345.1373 Q1980.3219,345.1373 1980.1188,344.9341 Q1979.9156,344.7466 1979.8063,344.231 Q1979.7594,343.8716 1979.5719,343.6841 Q1979.2438,343.3091 1978.6344,343.0904 Q1978.025,342.8716 1977.4,342.8716 Q1976.6344,342.8716 1976.0016,343.1998 Q1975.3688,343.5279 1974.8766,344.2779 Q1974.3844,345.0279 1974.3844,346.0591 L1974.3844,347.1529 Q1974.3844,348.3873 1975.275,349.2076 Q1976.1656,350.0279 1977.7594,350.0279 Q1978.6969,350.0279 1979.3531,349.7779 Q1979.7438,349.6216 1980.1656,349.1841 Q1980.4313,348.9185 1980.5797,348.8404 Q1980.7281,348.7623 1980.9313,348.7623 Q1981.2594,348.7623 1981.5172,349.0201 Q1981.775,349.2779 1981.775,349.6216 Q1981.775,349.9654 1981.4313,350.3716 Q1980.9313,350.9498 1980.1344,351.2779 Q1979.0563,351.731 1977.7594,351.731 Q1976.2438,351.731 1975.0406,351.106 Q1974.0563,350.606 1973.3688,349.5357 Q1972.6813,348.4654 1972.6813,347.1841 L1972.6813,346.0279 Q1972.6813,344.6998 1973.2984,343.5513 Q1973.9156,342.4029 1975.0094,341.7857 Q1976.1031,341.1685 1977.3375,341.1685 Q1978.0719,341.1685 1978.7203,341.3326 Q1979.3688,341.4966 1979.9156,341.856 Z " /><text fill="#000000" font-family="sans-serif" font-size="12" lengthAdjust="spacingAndGlyphs" textLength="80" x="1993.85" y="350.8912">TaskExecution</text>
        <line style="stroke: #A80036; stroke-width: 1.5;" x1="1951" x2="2088" y1="361.981" y2="361.981" />
        <rect fill="none" height="6" style="stroke: #C82930; stroke-width: 1.0;" width="6" x="1958" y="371.399" /><text fill="#000000" font-family="sans-serif" font-size="11" lengthAdjust="spacingAndGlyphs" textLength="65" x="1970" y="377.3999">Date deadline</text>
        <rect fill="none" height="6" style="stroke: #C82930; stroke-width: 1.0;" width="6" x="1958" y="385.2349" /><text fill="#000000" font-family="sans-serif" font-size="11" lengthAdjust="spacingAndGlyphs" textLength="62" x="1970" y="391.2359">Double delay</text>
        <rect fill="none" height="6" style="stroke: #C82930; stroke-width: 1.0;" width="6" x="1958" y="399.0708" /><text fill="#000000" font-family="sans-serif" font-size="11" lengthAdjust="spacingAndGlyphs" textLength="113" x="1970" y="405.0718">String descQualityWork</text>
        <!--class ExternalEmailSenderAlgorithm-->
        <rect fill="#FEFECE" filter="url(#f1u5g91eprvztw)" height="40" id="ExternalEmailSenderAlgorithm" style="stroke: #A80036; stroke-width: 1.5;" width="200" x="429.5" y="806.9813" />
        <ellipse cx="444.5" cy="822.9813" fill="#ADD1B2" rx="11" ry="11" style="stroke: #A80036; stroke-width: 1.0;" />
        <path d="M447.2656,818.8563 Q447.4219,818.6376 447.6094,818.5282 Q447.7969,818.4188 448.0156,818.4188 Q448.3906,818.4188 448.625,818.6766 Q448.8594,818.9344 448.8594,819.5438 L448.8594,820.9969 Q448.8594,821.6063 448.625,821.8719 Q448.3906,822.1376 448.0156,822.1376 Q447.6719,822.1376 447.4688,821.9344 Q447.2656,821.7469 447.1563,821.2313 Q447.1094,820.8719 446.9219,820.6844 Q446.5938,820.3094 445.9844,820.0907 Q445.375,819.8719 444.75,819.8719 Q443.9844,819.8719 443.3516,820.2001 Q442.7188,820.5282 442.2266,821.2782 Q441.7344,822.0282 441.7344,823.0594 L441.7344,824.1532 Q441.7344,825.3876 442.625,826.2079 Q443.5156,827.0282 445.1094,827.0282 Q446.0469,827.0282 446.7031,826.7782 Q447.0938,826.6219 447.5156,826.1844 Q447.7813,825.9188 447.9297,825.8407 Q448.0781,825.7626 448.2813,825.7626 Q448.6094,825.7626 448.8672,826.0204 Q449.125,826.2782 449.125,826.6219 Q449.125,826.9657 448.7813,827.3719 Q448.2813,827.9501 447.4844,828.2782 Q446.4063,828.7313 445.1094,828.7313 Q443.5938,828.7313 442.3906,828.1063 Q441.4063,827.6063 440.7188,826.536 Q440.0313,825.4657 440.0313,824.1844 L440.0313,823.0282 Q440.0313,821.7001 440.6484,820.5516 Q441.2656,819.4032 442.3594,818.786 Q443.4531,818.1688 444.6875,818.1688 Q445.4219,818.1688 446.0703,818.3329 Q446.7188,818.4969 447.2656,818.8563 Z " /><text fill="#000000" font-family="sans-serif" font-size="12" lengthAdjust="spacingAndGlyphs" textLength="168" x="458.5" y="827.8915">ExternalEmailSenderAlgorithm</text>
        <line style="stroke: #A80036; stroke-width: 1.5;" x1="430.5" x2="628.5" y1="838.9813" y2="838.9813" />
        <!--class ExternalPasswordGeneratorAlgorithm-->
        <rect fill="#FEFECE" filter="url(#f1u5g91eprvztw)" height="40" id="ExternalPasswordGeneratorAlgorithm" style="stroke: #A80036; stroke-width: 1.5;" width="239" x="410" y="27.981" />
        <ellipse cx="425" cy="43.981" fill="#ADD1B2" rx="11" ry="11" style="stroke: #A80036; stroke-width: 1.0;" />
        <path d="M427.7656,39.856 Q427.9219,39.6372 428.1094,39.5279 Q428.2969,39.4185 428.5156,39.4185 Q428.8906,39.4185 429.125,39.6763 Q429.3594,39.9341 429.3594,40.5435 L429.3594,41.9966 Q429.3594,42.606 429.125,42.8716 Q428.8906,43.1372 428.5156,43.1372 Q428.1719,43.1372 427.9688,42.9341 Q427.7656,42.7466 427.6563,42.231 Q427.6094,41.8716 427.4219,41.6841 Q427.0938,41.3091 426.4844,41.0904 Q425.875,40.8716 425.25,40.8716 Q424.4844,40.8716 423.8516,41.1997 Q423.2188,41.5279 422.7266,42.2779 Q422.2344,43.0279 422.2344,44.0591 L422.2344,45.1529 Q422.2344,46.3872 423.125,47.2076 Q424.0156,48.0279 425.6094,48.0279 Q426.5469,48.0279 427.2031,47.7779 Q427.5938,47.6216 428.0156,47.1841 Q428.2813,46.9185 428.4297,46.8404 Q428.5781,46.7622 428.7813,46.7622 Q429.1094,46.7622 429.3672,47.0201 Q429.625,47.2779 429.625,47.6216 Q429.625,47.9654 429.2813,48.3716 Q428.7813,48.9497 427.9844,49.2779 Q426.9063,49.731 425.6094,49.731 Q424.0938,49.731 422.8906,49.106 Q421.9063,48.606 421.2188,47.5357 Q420.5313,46.4654 420.5313,45.1841 L420.5313,44.0279 Q420.5313,42.6997 421.1484,41.5513 Q421.7656,40.4029 422.8594,39.7857 Q423.9531,39.1685 425.1875,39.1685 Q425.9219,39.1685 426.5703,39.3326 Q427.2188,39.4966 427.7656,39.856 Z " /><text fill="#000000" font-family="sans-serif" font-size="12" lengthAdjust="spacingAndGlyphs" textLength="207" x="439" y="48.8912">ExternalPasswordGeneratorAlgorithm</text>
        <line style="stroke: #A80036; stroke-width: 1.5;" x1="411" x2="648" y1="59.981" y2="59.981" />
        <!--class Conversion-->
        <rect fill="#FEFECE" filter="url(#f1u5g91eprvztw)" height="40" id="Conversion" style="stroke: #A80036; stroke-width: 1.5;" width="95" x="846.5" y="631.981" />
        <ellipse cx="861.5" cy="647.981" fill="#ADD1B2" rx="11" ry="11" style="stroke: #A80036; stroke-width: 1.0;" />
        <path d="M864.2656,643.856 Q864.4219,643.6373 864.6094,643.5279 Q864.7969,643.4185 865.0156,643.4185 Q865.3906,643.4185 865.625,643.6763 Q865.8594,643.9341 865.8594,644.5435 L865.8594,645.9966 Q865.8594,646.606 865.625,646.8716 Q865.3906,647.1373 865.0156,647.1373 Q864.6719,647.1373 864.4688,646.9341 Q864.2656,646.7466 864.1563,646.231 Q864.1094,645.8716 863.9219,645.6841 Q863.5938,645.3091 862.9844,645.0904 Q862.375,644.8716 861.75,644.8716 Q860.9844,644.8716 860.3516,645.1998 Q859.7188,645.5279 859.2266,646.2779 Q858.7344,647.0279 858.7344,648.0591 L858.7344,649.1529 Q858.7344,650.3873 859.625,651.2076 Q860.5156,652.0279 862.1094,652.0279 Q863.0469,652.0279 863.7031,651.7779 Q864.0938,651.6216 864.5156,651.1841 Q864.7813,650.9185 864.9297,650.8404 Q865.0781,650.7623 865.2813,650.7623 Q865.6094,650.7623 865.8672,651.0201 Q866.125,651.2779 866.125,651.6216 Q866.125,651.9654 865.7813,652.3716 Q865.2813,652.9498 864.4844,653.2779 Q863.4063,653.731 862.1094,653.731 Q860.5938,653.731 859.3906,653.106 Q858.4063,652.606 857.7188,651.5357 Q857.0313,650.4654 857.0313,649.1841 L857.0313,648.0279 Q857.0313,646.6998 857.6484,645.5513 Q858.2656,644.4029 859.3594,643.7857 Q860.4531,643.1685 861.6875,643.1685 Q862.4219,643.1685 863.0703,643.3326 Q863.7188,643.4966 864.2656,643.856 Z " /><text fill="#000000" font-family="sans-serif" font-size="12" lengthAdjust="spacingAndGlyphs" textLength="63" x="875.5" y="652.8912">Conversion</text>
        <line style="stroke: #A80036; stroke-width: 1.5;" x1="847.5" x2="940.5" y1="663.981" y2="663.981" />
        <!--link Platform to Organization-->
        <path d="M118.196,436.349 C244.377,430.331 552.738,415.626 678.863,409.611 " fill="none" id="Platform-Organization" style="stroke: #A80036; stroke-width: 1.0;" /><text fill="#000000" font-family="sans-serif" font-size="13" lengthAdjust="spacingAndGlyphs" textLength="82" x="280" y="420.4761">has registered</text>
        <polygon fill="#000000" points="365,413.6568,371,416.6568,365,419.6568,365,413.6568" style="stroke: #000000; stroke-width: 1.0;" /><text fill="#000000" font-family="sans-serif" font-size="13" lengthAdjust="spacingAndGlyphs" textLength="7" x="125.8446" y="450.5649">1</text><text fill="#000000" font-family="sans-serif" font-size="13" lengthAdjust="spacingAndGlyphs" textLength="5" x="665.9837" y="424.5692">*</text>
        <!--link Platform to Freelancer-->
        <path d="M70.9087,466.009 C95.1782,542.668 176.213,755.981 326.5,755.981 C326.5,755.981 326.5,755.981 1286.5,755.981 C1352.49,755.981 1424.51,733.836 1475.9,713.94 " fill="none" id="Platform-Freelancer" style="stroke: #A80036; stroke-width: 1.0;" /><text fill="#000000" font-family="sans-serif" font-size="13" lengthAdjust="spacingAndGlyphs" textLength="82" x="846.5" y="752.4761">has registered</text>
        <polygon fill="#000000" points="931.5,745.6568,937.5,748.6568,931.5,751.6568,931.5,745.6568" style="stroke: #000000; stroke-width: 1.0;" /><text fill="#000000" font-family="sans-serif" font-size="13" lengthAdjust="spacingAndGlyphs" textLength="7" x="73.6231" y="487.2229">1</text><text fill="#000000" font-family="sans-serif" font-size="13" lengthAdjust="spacingAndGlyphs" textLength="5" x="1462.85" y="731.7146">*</text>
        <!--link Platform to User-->
        <path d="M70.7414,411.974 C94.6838,334.826 175.191,118.981 326.5,118.981 C326.5,118.981 326.5,118.981 1048,118.981 C1113.38,118.981 1184.79,144.177 1231.84,164.549 " fill="none" id="Platform-User" style="stroke: #A80036; stroke-width: 1.0;" /><text fill="#000000" font-family="sans-serif" font-size="13" lengthAdjust="spacingAndGlyphs" textLength="82" x="687.5" y="115.4761">has registered</text>
        <polygon fill="#000000" points="772.5,108.6568,778.5,111.6568,772.5,114.6568,772.5,108.6568" style="stroke: #000000; stroke-width: 1.0;" /><text fill="#000000" font-family="sans-serif" font-size="13" lengthAdjust="spacingAndGlyphs" textLength="7" x="73.7252" y="400.999">1</text><text fill="#000000" font-family="sans-serif" font-size="13" lengthAdjust="spacingAndGlyphs" textLength="5" x="1218.9425" y="175.6521">*</text>
        <!--link Platform to Administrator-->
        <path d="M118.232,421.742 C128.124,418.753 138.352,415.726 148,412.981 C190.536,400.881 239.083,388.169 274.799,379.02 " fill="none" id="Platform-Administrator" style="stroke: #A80036; stroke-width: 1.0;" /><text fill="#000000" font-family="sans-serif" font-size="13" lengthAdjust="spacingAndGlyphs" textLength="82" x="149" y="382.4761">has registered</text>
        <polygon fill="#000000" points="234,375.6568,240,378.6568,234,381.6568,234,375.6568" style="stroke: #000000; stroke-width: 1.0;" /><text fill="#000000" font-family="sans-serif" font-size="13" lengthAdjust="spacingAndGlyphs" textLength="7" x="125.8852" y="434.0864">1</text><text fill="#000000" font-family="sans-serif" font-size="13" lengthAdjust="spacingAndGlyphs" textLength="5" x="262.0364" y="395.4984">*</text>
        <!--link Platform to ExternalEmailSenderAlgorithm-->
        <path d="M65.311,466.059 C72.4167,542.334 96.641,756.264 148,799.9813 C229.444,869.3068 359.561,861.9086 444.526,847 " fill="none" id="Platform-ExternalEmailSenderAlgorithm" style="stroke: #A80036; stroke-width: 1.0;" /><text fill="#000000" font-family="sans-serif" font-size="13" lengthAdjust="spacingAndGlyphs" textLength="48" x="166" y="796.4764">resort to</text>
        <polygon fill="#000000" points="185.5,805.3329,188.5,811.3329,191.5,805.3329,185.5,805.3329" style="stroke: #000000; stroke-width: 1.0;" /><text fill="#000000" font-family="sans-serif" font-size="13" lengthAdjust="spacingAndGlyphs" textLength="7" x="58.2697" y="487.2838">1</text><text fill="#000000" font-family="sans-serif" font-size="13" lengthAdjust="spacingAndGlyphs" textLength="7" x="414.8545" y="867.72">1</text>
        <!--link Platform to ExternalPasswordGeneratorAlgorithm-->
        <path d="M65.7315,411.811 C73.7487,337.856 99.7406,135.635 148,92.981 C218.277,30.868 326.568,23.525 409.679,29.462 " fill="none" id="Platform-ExternalPasswordGeneratorAlgorithm" style="stroke: #A80036; stroke-width: 1.0;" />
        <polygon fill="#000000" points="185.5,34.981,188.5,28.981,191.5,34.981,185.5,34.981" style="stroke: #000000; stroke-width: 1.0;" /><text fill="#000000" font-family="sans-serif" font-size="13" lengthAdjust="spacingAndGlyphs" textLength="48" x="166" y="51.4761">resort to</text><text fill="#000000" font-family="sans-serif" font-size="13" lengthAdjust="spacingAndGlyphs" textLength="7" x="58.785" y="401.2327">1</text><text fill="#000000" font-family="sans-serif" font-size="13" lengthAdjust="spacingAndGlyphs" textLength="7" x="395.1641" y="42.3268">1</text>
        <!--link Platform to Conversion-->
        <path d="M118.101,453.122 C271.798,492.564 703.307,603.301 846.306,639.999 " fill="none" id="Platform-Conversion" style="stroke: #A80036; stroke-width: 1.0;" /><text fill="#000000" font-family="sans-serif" font-size="13" lengthAdjust="spacingAndGlyphs" textLength="48" x="297" y="491.4761">resort to</text>
        <polygon fill="#000000" points="348,484.6568,354,487.6568,348,490.6568,348,484.6568" style="stroke: #000000; stroke-width: 1.0;" /><text fill="#000000" font-family="sans-serif" font-size="13" lengthAdjust="spacingAndGlyphs" textLength="7" x="126.1099" y="469.627">1</text><text fill="#000000" font-family="sans-serif" font-size="13" lengthAdjust="spacingAndGlyphs" textLength="7" x="831.4669" y="652.9113">1</text>
        <!--link Conversion to PaymentTransaction-->
        <path d="M941.596,651.503 C1008.84,650.812 1133.66,649.53 1212.73,648.718 " fill="none" id="Conversion-PaymentTransaction" style="stroke: #A80036; stroke-width: 1.0;" /><text fill="#000000" font-family="sans-serif" font-size="13" lengthAdjust="spacingAndGlyphs" textLength="48" x="1016.5" y="646.4761">converts</text>
        <polygon fill="#000000" points="1067.5,639.6568,1073.5,642.6568,1067.5,645.6568,1067.5,639.6568" style="stroke: #000000; stroke-width: 1.0;" /><text fill="#000000" font-family="sans-serif" font-size="13" lengthAdjust="spacingAndGlyphs" textLength="7" x="949.4201" y="666.1768">1</text><text fill="#000000" font-family="sans-serif" font-size="13" lengthAdjust="spacingAndGlyphs" textLength="5" x="1199.9678" y="663.1407">*</text>
        <!--link Administrator to User-->
        <path d="M380.23,353.608 C492.154,327.177 765.397,264.486 997,225.981 C1078.63,212.411 1174.06,201.416 1231.85,195.29 " fill="none" id="Administrator-User" style="stroke: #A80036; stroke-width: 1.0;" /><text fill="#000000" font-family="sans-serif" font-size="13" lengthAdjust="spacingAndGlyphs" textLength="36" x="869.5" y="227.4761">act as</text>
        <polygon fill="#000000" points="908.5,220.6568,914.5,223.6568,908.5,226.6568,908.5,220.6568" style="stroke: #000000; stroke-width: 1.0;" /><text fill="#000000" font-family="sans-serif" font-size="13" lengthAdjust="spacingAndGlyphs" textLength="22" x="387.9971" y="366.5916">0..1</text><text fill="#000000" font-family="sans-serif" font-size="13" lengthAdjust="spacingAndGlyphs" textLength="7" x="1217.1705" y="210.6302">1</text>
        <!--link Administrator to Organization-->
        <path d="M380.269,371.216 C457.026,378.977 600.387,393.472 678.978,401.418 " fill="none" id="Administrator-Organization" style="stroke: #A80036; stroke-width: 1.0;" /><text fill="#000000" font-family="sans-serif" font-size="13" lengthAdjust="spacingAndGlyphs" textLength="50" x="498" y="370.4761">registers</text>
        <polygon fill="#000000" points="551,363.6568,557,366.6568,551,369.6568,551,363.6568" style="stroke: #000000; stroke-width: 1.0;" /><text fill="#000000" font-family="sans-serif" font-size="13" lengthAdjust="spacingAndGlyphs" textLength="7" x="387.8301" y="386.5132">1</text><text fill="#000000" font-family="sans-serif" font-size="13" lengthAdjust="spacingAndGlyphs" textLength="5" x="666.1141" y="397.1252">*</text>
        <!--link Organization to Collaborator-->
        <path d="M791.065,417.994 C849.437,429.669 940.775,447.936 996.811,459.144 " fill="none" id="Organization-Collaborator" style="stroke: #A80036; stroke-width: 1.0;" /><text fill="#000000" font-family="sans-serif" font-size="13" lengthAdjust="spacingAndGlyphs" textLength="21" x="877" y="421.4761">has</text>
        <polygon fill="#000000" points="901,414.6568,907,417.6568,901,420.6568,901,414.6568" style="stroke: #000000; stroke-width: 1.0;" /><text fill="#000000" font-family="sans-serif" font-size="13" lengthAdjust="spacingAndGlyphs" textLength="7" x="799.069" y="434.0786">1</text><text fill="#000000" font-family="sans-serif" font-size="13" lengthAdjust="spacingAndGlyphs" textLength="7" x="981.9254" y="472.4192">1</text>
        <!--link Organization to Manager-->
        <path d="M763.382,379.776 C779.092,365.516 799.853,348.811 821,337.981 C881.159,307.172 958.578,290.6 1005.138,282.802 " fill="none" id="Organization-Manager" style="stroke: #A80036; stroke-width: 1.0;" /><text fill="#000000" font-family="sans-serif" font-size="13" lengthAdjust="spacingAndGlyphs" textLength="21" x="877" y="286.4761">has</text>
        <polygon fill="#000000" points="901,279.6568,907,282.6568,901,285.6568,901,279.6568" style="stroke: #000000; stroke-width: 1.0;" /><text fill="#000000" font-family="sans-serif" font-size="13" lengthAdjust="spacingAndGlyphs" textLength="7" x="762.136" y="369.1896">1</text><text fill="#000000" font-family="sans-serif" font-size="13" lengthAdjust="spacingAndGlyphs" textLength="7" x="990.6249" y="298.6425">1</text>
        <!--link Organization to Task-->
        <path d="M791.272,401.021 C801.16,400.171 811.376,399.433 821,398.981 C885.817,395.938 902.154,396.611 967,398.981 C1289.42,410.767 1373.52,394.493 1691,451.981 C1700.78,453.752 1710.98,456.139 1720.92,458.777 " fill="none" id="Organization-Task" style="stroke: #A80036; stroke-width: 1.0;" /><text fill="#000000" font-family="sans-serif" font-size="13" lengthAdjust="spacingAndGlyphs" textLength="21" x="1268.5" y="400.4761">has</text>
        <polygon fill="#000000" points="1292.5,393.6568,1298.5,396.6568,1292.5,399.6568,1292.5,393.6568" style="stroke: #000000; stroke-width: 1.0;" /><text fill="#000000" font-family="sans-serif" font-size="13" lengthAdjust="spacingAndGlyphs" textLength="7" x="798.9303" y="414.8105">1</text><text fill="#000000" font-family="sans-serif" font-size="13" lengthAdjust="spacingAndGlyphs" textLength="5" x="1707.9326" y="470.7553">*</text>
        <!--link Organization to PaymentTransaction-->
        <path d="M777.368,434.103 C791.058,442.719 806.502,452.06 821,459.981 C953.071,532.137 985.863,552.738 1127,604.981 C1154.51,615.165 1185.52,624.143 1212.71,631.225 " fill="none" id="Organization-PaymentTransaction" style="stroke: #A80036; stroke-width: 1.0;" /><text fill="#000000" font-family="sans-serif" font-size="13" lengthAdjust="spacingAndGlyphs" textLength="21" x="1030" y="549.4761">has</text>
        <polygon fill="#000000" points="1054,542.6568,1060,545.6568,1054,548.6568,1054,542.6568" style="stroke: #000000; stroke-width: 1.0;" /><text fill="#000000" font-family="sans-serif" font-size="13" lengthAdjust="spacingAndGlyphs" textLength="7" x="778.8704" y="455.3375">1</text><text fill="#000000" font-family="sans-serif" font-size="13" lengthAdjust="spacingAndGlyphs" textLength="5" x="1199.9457" y="643.8437">*</text>
        <!--link ExternalEmailSenderAlgorithm to Freelancer-->
        <path d="M629.739,826.9813 C702.591,826.9813 803.948,826.9813 893,826.9813 C893,826.9813 893,826.9813 1286.5,826.9813 C1360.16,826.9813 1382.36,819.0694 1446,781.9813 C1463.1,772.0174 1479.39,758.448 1493.67,744.551 " fill="none" id="ExternalEmailSenderAlgorithm-Freelancer" style="stroke: #A80036; stroke-width: 1.0;" /><text fill="#000000" font-family="sans-serif" font-size="13" lengthAdjust="spacingAndGlyphs" textLength="85" x="998" y="823.4764">sends email to</text>
        <polygon fill="#000000" points="1086,816.6571,1092,819.6571,1086,822.6571,1086,816.6571" style="stroke: #000000; stroke-width: 1.0;" /><text fill="#000000" font-family="sans-serif" font-size="13" lengthAdjust="spacingAndGlyphs" textLength="7" x="637.3573" y="841.0768">1</text><text fill="#000000" font-family="sans-serif" font-size="13" lengthAdjust="spacingAndGlyphs" textLength="5" x="1482.2147" y="766.1096">*</text>
        <!--link ExternalPasswordGeneratorAlgorithm to User-->
        <path d="M649.054,32.771 C784.373,20.581 1009.4,16.33 1183,92.981 C1210.65,105.189 1235.33,128.329 1253.42,148.946 " fill="none" id="ExternalPasswordGeneratorAlgorithm-User" style="stroke: #A80036; stroke-width: 1.0;" /><text fill="#000000" font-family="sans-serif" font-size="13" lengthAdjust="spacingAndGlyphs" textLength="131" x="822" y="22.4761">generates password to</text>
        <polygon fill="#000000" points="956,15.6568,962,18.6568,956,21.6568,956,15.6568" style="stroke: #000000; stroke-width: 1.0;" /><text fill="#000000" font-family="sans-serif" font-size="13" lengthAdjust="spacingAndGlyphs" textLength="7" x="656.9371" y="45.8155">1</text><text fill="#000000" font-family="sans-serif" font-size="13" lengthAdjust="spacingAndGlyphs" textLength="5" x="1242.4766" y="138.0857">*</text>
        <!--link Task to TaskExecution-->
        <path d="M1854.1,448.892 C1883.98,434.734 1919.34,417.974 1949.6,403.632 " fill="none" id="Task-TaskExecution" style="stroke: #A80036; stroke-width: 1.0;" /><text fill="#000000" font-family="sans-serif" font-size="13" lengthAdjust="spacingAndGlyphs" textLength="21" x="1885" y="414.4761">has</text>
        <polygon fill="#000000" points="1909,407.6568,1915,410.6568,1909,413.6568,1909,407.6568" style="stroke: #000000; stroke-width: 1.0;" /><text fill="#000000" font-family="sans-serif" font-size="13" lengthAdjust="spacingAndGlyphs" textLength="7" x="1862.2053" y="459.7274">1</text><text fill="#000000" font-family="sans-serif" font-size="13" lengthAdjust="spacingAndGlyphs" textLength="22" x="1919.8892" y="421.0419">0..1</text>
        <!--link Collaborator to User-->
        <path d="M1072.01,434.552 C1087.23,413.227 1107.63,385.514 1127,361.981 C1165.08,315.716 1211.77,265.457 1244.39,231.286 " fill="none" id="Collaborator-User" style="stroke: #A80036; stroke-width: 1.0;" />
        <polygon fill="#000000" points="1144,290.981,1147,284.981,1150,290.981,1144,290.981" style="stroke: #000000; stroke-width: 1.0;" /><text fill="#000000" font-family="sans-serif" font-size="13" lengthAdjust="spacingAndGlyphs" textLength="36" x="1130.5" y="307.4761">act as</text><text fill="#000000" font-family="sans-serif" font-size="13" lengthAdjust="spacingAndGlyphs" textLength="22" x="1052.6807" y="424.0239">0..1</text><text fill="#000000" font-family="sans-serif" font-size="13" lengthAdjust="spacingAndGlyphs" textLength="7" x="1230.8379" y="252.0848">1</text>
        <!--link Collaborator to Freelancer-->
        <path d="M1097.13,492.464 C1106.98,497.039 1117.29,501.731 1127,505.981 C1267.26,567.358 1305.78,574.51 1446,635.981 C1455.66,640.218 1465.79,644.803 1475.73,649.392 " fill="none" id="Collaborator-Freelancer" style="stroke: #A80036; stroke-width: 1.0;" /><text fill="#000000" font-family="sans-serif" font-size="13" lengthAdjust="spacingAndGlyphs" textLength="50" x="1254" y="538.4761">registers</text>
        <polygon fill="#000000" points="1307,531.6568,1313,534.6568,1307,537.6568,1307,531.6568" style="stroke: #000000; stroke-width: 1.0;" /><text fill="#000000" font-family="sans-serif" font-size="13" lengthAdjust="spacingAndGlyphs" textLength="7" x="1105.0069" y="510.6331">1</text><text fill="#000000" font-family="sans-serif" font-size="13" lengthAdjust="spacingAndGlyphs" textLength="5" x="1463.1225" y="660.2656">*</text>
        <!--link Collaborator to PaymentTransaction-->
        <path d="M1068.45,503.391 C1082.72,525.186 1103.4,552.779 1127,571.981 C1152.43,592.677 1184.44,609.437 1212.94,621.899 " fill="none" id="Collaborator-PaymentTransaction" style="stroke: #A80036; stroke-width: 1.0;" /><text fill="#000000" font-family="sans-serif" font-size="13" lengthAdjust="spacingAndGlyphs" textLength="28" x="1134.5" y="568.4761">does</text>
        <polygon fill="#000000" points="1165.5,561.6568,1171.5,564.6568,1165.5,567.6568,1165.5,561.6568" style="stroke: #000000; stroke-width: 1.0;" /><text fill="#000000" font-family="sans-serif" font-size="13" lengthAdjust="spacingAndGlyphs" textLength="7" x="1064.5352" y="524.2337">1</text><text fill="#000000" font-family="sans-serif" font-size="13" lengthAdjust="spacingAndGlyphs" textLength="5" x="1200.1994" y="615.906">*</text>
        <!--link Collaborator to Task-->
        <path d="M1097.03,469.712 C1225.97,471.632 1574.66,476.826 1720.73,479.002 " fill="none" id="Collaborator-Task" style="stroke: #A80036; stroke-width: 1.0;" /><text fill="#000000" font-family="sans-serif" font-size="13" lengthAdjust="spacingAndGlyphs" textLength="43" x="1389" y="470.4761">creates</text>
        <polygon fill="#000000" points="1435,463.6568,1441,466.6568,1435,469.6568,1435,463.6568" style="stroke: #000000; stroke-width: 1.0;" /><text fill="#000000" font-family="sans-serif" font-size="13" lengthAdjust="spacingAndGlyphs" textLength="7" x="1104.8922" y="484.5394">1</text><text fill="#000000" font-family="sans-serif" font-size="13" lengthAdjust="spacingAndGlyphs" textLength="5" x="1708.1536" y="493.2744">*</text>
        <!--link Collaborator to TaskExecution-->
        <path d="M1090.06,434.727 C1101.42,427.222 1114.15,420.25 1127,415.981 C1279.22,365.423 1768.16,367.205 1949.75,369.739 " fill="none" id="Collaborator-TaskExecution" style="stroke: #A80036; stroke-width: 1.0;" /><text fill="#000000" font-family="sans-serif" font-size="13" lengthAdjust="spacingAndGlyphs" textLength="43" x="1519" y="366.4761">creates</text>
        <polygon fill="#000000" points="1565,359.6568,1571,362.6568,1565,365.6568,1565,359.6568" style="stroke: #000000; stroke-width: 1.0;" /><text fill="#000000" font-family="sans-serif" font-size="13" lengthAdjust="spacingAndGlyphs" textLength="7" x="1090.6011" y="424.2322">1</text><text fill="#000000" font-family="sans-serif" font-size="13" lengthAdjust="spacingAndGlyphs" textLength="5" x="1936.8477" y="384.0194">*</text>
        <!--link Manager to User-->
        <path d="M1088.53,265.236 C1115.53,257.127 1151.68,245.725 1183,233.981 C1199.1,227.947 1216.34,220.754 1231.97,213.95 " fill="none" id="Manager-User" style="stroke: #A80036; stroke-width: 1.0;" /><text fill="#000000" font-family="sans-serif" font-size="13" lengthAdjust="spacingAndGlyphs" textLength="36" x="1130.5" y="230.4761">act as</text>
        <polygon fill="#000000" points="1169.5,223.6568,1175.5,226.6568,1169.5,229.6568,1169.5,223.6568" style="stroke: #000000; stroke-width: 1.0;" /><text fill="#000000" font-family="sans-serif" font-size="13" lengthAdjust="spacingAndGlyphs" textLength="22" x="1096.5737" y="278.2097">0..1</text><text fill="#000000" font-family="sans-serif" font-size="13" lengthAdjust="spacingAndGlyphs" textLength="7" x="1216.9502" y="232.0001">1</text>
        <!--link Manager to PaymentTransaction-->
        <path d="M1064.65,311.007 C1102.41,387.878 1192.84,570.145 1213,593.981 C1221.34,603.84 1231.78,612.983 1242.1,620.837 " fill="none" id="Manager-PaymentTransaction" style="stroke: #A80036; stroke-width: 1.0;" /><text fill="#000000" font-family="sans-serif" font-size="13" lengthAdjust="spacingAndGlyphs" textLength="41" x="1128" y="438.4761">defines</text>
        <polygon fill="#000000" points="1144,447.3326,1147,453.3326,1150,447.3326,1144,447.3326" style="stroke: #000000; stroke-width: 1.0;" /><text fill="#000000" font-family="sans-serif" font-size="13" lengthAdjust="spacingAndGlyphs" textLength="7" x="1060.1705" y="332.0485">1</text><text fill="#000000" font-family="sans-serif" font-size="13" lengthAdjust="spacingAndGlyphs" textLength="5" x="1226.4856" y="610.2647">*</text>
        <!--link PaymentTransaction to Freelancer-->
        <path d="M1358.1,657.638 C1394.85,662.595 1439.46,668.611 1475.98,673.538 " fill="none" id="PaymentTransaction-Freelancer" style="stroke: #A80036; stroke-width: 1.0;" /><text fill="#000000" font-family="sans-serif" font-size="13" lengthAdjust="spacingAndGlyphs" textLength="11" x="1405" y="658.4761">to</text>
        <polygon fill="#000000" points="1419,651.6568,1425,654.6568,1419,657.6568,1419,651.6568" style="stroke: #000000; stroke-width: 1.0;" /><text fill="#000000" font-family="sans-serif" font-size="13" lengthAdjust="spacingAndGlyphs" textLength="5" x="1365.8447" y="672.9806">*</text><text fill="#000000" font-family="sans-serif" font-size="13" lengthAdjust="spacingAndGlyphs" textLength="7" x="1460.8294" y="686.8937">1</text>
        <!--link PaymentTransaction to Task-->
        <path d="M1358.14,623.911 C1455.21,591.294 1627.15,533.522 1720.97,502 " fill="none" id="PaymentTransaction-Task" style="stroke: #A80036; stroke-width: 1.0;" /><text fill="#000000" font-family="sans-serif" font-size="13" lengthAdjust="spacingAndGlyphs" textLength="43" x="1519" y="535.4761">referent</text>
        <polygon fill="#000000" points="1565,528.6568,1571,531.6568,1565,534.6568,1565,528.6568" style="stroke: #000000; stroke-width: 1.0;" /><text fill="#000000" font-family="sans-serif" font-size="13" lengthAdjust="spacingAndGlyphs" textLength="7" x="1365.9919" y="635.7755">1</text><text fill="#000000" font-family="sans-serif" font-size="13" lengthAdjust="spacingAndGlyphs" textLength="7" x="1705.8728" y="518.976">1</text>
        <!--link Freelancer to LevelOfExpertise-->
        <path d="M1618.27,710.676 C1652.21,724.052 1692.55,739.954 1725.23,752.831 " fill="none" id="Freelancer-LevelOfExpertise" style="stroke: #A80036; stroke-width: 1.0;" /><text fill="#000000" font-family="sans-serif" font-size="13" lengthAdjust="spacingAndGlyphs" textLength="21" x="1652.5" y="720.4761">has</text>
        <polygon fill="#000000" points="1676.5,713.6568,1682.5,716.6568,1676.5,719.6568,1676.5,713.6568" style="stroke: #000000; stroke-width: 1.0;" /><text fill="#000000" font-family="sans-serif" font-size="13" lengthAdjust="spacingAndGlyphs" textLength="7" x="1625.9807" y="727.8695">1</text><text fill="#000000" font-family="sans-serif" font-size="13" lengthAdjust="spacingAndGlyphs" textLength="7" x="1710.6253" y="764.4981">1</text>
        <!--link Freelancer to Location-->
        <path d="M1618.27,680.33 C1657.15,678.862 1704.45,677.078 1738.98,675.775 " fill="none" id="Freelancer-Location" style="stroke: #A80036; stroke-width: 1.0;" /><text fill="#000000" font-family="sans-serif" font-size="13" lengthAdjust="spacingAndGlyphs" textLength="21" x="1652.5" y="673.4761">has</text>
        <polygon fill="#000000" points="1676.5,666.6568,1682.5,669.6568,1676.5,672.6568,1676.5,666.6568" style="stroke: #000000; stroke-width: 1.0;" /><text fill="#000000" font-family="sans-serif" font-size="13" lengthAdjust="spacingAndGlyphs" textLength="7" x="1625.9807" y="694.3941">1</text><text fill="#000000" font-family="sans-serif" font-size="13" lengthAdjust="spacingAndGlyphs" textLength="7" x="1724.0144" y="690.8219">1</text>
        <!--link Freelancer to Task-->
        <path d="M1618.06,646.058 C1642.35,631.694 1668.98,614.087 1691,594.981 C1711.39,577.292 1730.97,554.996 1747.04,534.755 " fill="none" id="Freelancer-Task" style="stroke: #A80036; stroke-width: 1.0;" /><text fill="#000000" font-family="sans-serif" font-size="13" lengthAdjust="spacingAndGlyphs" textLength="28" x="1649" y="591.4761">does</text>
        <polygon fill="#000000" points="1680,584.6568,1686,587.6568,1680,590.6568,1680,584.6568" style="stroke: #000000; stroke-width: 1.0;" /><text fill="#000000" font-family="sans-serif" font-size="13" lengthAdjust="spacingAndGlyphs" textLength="7" x="1626.215" y="656.408">1</text><text fill="#000000" font-family="sans-serif" font-size="13" lengthAdjust="spacingAndGlyphs" textLength="5" x="1736.5358" y="556.304">*</text>
        <!--
@startuml

hide methods
left to right direction

class Platform {
  -String designation
}

class Administrator {

}

class Organization {
  -String designation
}

class User {
  -String name
  -String email
  -String password
}

class Collaborator {
  -String name
  -String email
}

class Manager {
  -String name
  -String email
}

class Freelancer {
  -String id
  -String name
  -String email
  -double NIF
  -String IBAN
  -double OverallPayments
}

enum LevelOfExpertise {
   -JUNIOR
   -SENIOR
}

class Location {
  -String address
  -String country
}

class PaymentTransaction {
  -String id
}

class Task {
  -String id
  -String briefDescription
  -Double timeDuration
  -Double costPerHour
  -String category
}

class TaskExecution{
  -Date deadline
  -Double delay
  -String descQualityWork
}

class ExternalEmailSenderAlgorithm {
}

class ExternalPasswordGeneratorAlgorithm {
}

class Conversion {

}

Platform "1" - - "*" Organization : has registered >
Platform "1" - - "*" Freelancer : has registered >
Platform "1" - - "*" User : has registered >
Platform "1" - - "*" Administrator : has registered >
Platform "1" - - "1" ExternalEmailSenderAlgorithm : resort to >
Platform "1" - - "1" ExternalPasswordGeneratorAlgorithm : resort to >
Platform "1" - - "1" Conversion : resort to >

Conversion "1" - - "*" PaymentTransaction : converts >

Administrator "0..1" - - "1" User : act as >
Administrator "1" - - "*" Organization : registers >

Organization "1" - - "1" Collaborator: has >
Organization "1" - - "1" Manager: has >
Organization "1" - - "*" Task : has >
Organization "1" - - "*" PaymentTransaction : has >

ExternalEmailSenderAlgorithm "1" - - "*" Freelancer : sends email to >

ExternalPasswordGeneratorAlgorithm "1" - - "*" User : generates password to >

Task "1" - - "0..1" TaskExecution : has >

Collaborator "0..1" - - "1" User : act as >
Collaborator "1" - - "*" Freelancer : registers >
Collaborator "1" - - "*" PaymentTransaction : does >
Collaborator "1" - - "*" Task : creates >
Collaborator "1" - - "*" TaskExecution : creates >

Manager "0..1" - - "1" User : act as >
Manager "1" - - "*" PaymentTransaction : defines >

PaymentTransaction "*" - - "1" Freelancer : to >
PaymentTransaction "1" - - "1" Task : referent >

Freelancer "1" - - "1" LevelOfExpertise : has >
Freelancer "1" - - "1" Location : has >
Freelancer "1" - - "*" Task : does >
@enduml

PlantUML version 1.2018.14(Fri Dec 21 16:33:16 GMT 2018)
(GPL source distribution)
Java Runtime: Java(TM) SE Runtime Environment
JVM: Java HotSpot(TM) Client VM
Java Version: 1.8.0_221-b11
Operating System: Windows 10
OS Version: 10.0
Default Encoding: Cp1252
Language: pt
Country: PT
-->
    </g>
</svg>