<?xml version="1.0" encoding="UTF-8" standalone="no"?><svg xmlns="http://www.w3.org/2000/svg" xmlns:xlink="http://www.w3.org/1999/xlink" contentScriptType="application/ecmascript" contentStyleType="text/css" height="1809px" preserveAspectRatio="none" style="width:686px;height:1809px;" version="1.1" viewBox="0 0 686 1809" width="686px" zoomAndPan="magnify"><defs><filter height="300%" id="f10l1j2ufz0elq" width="300%" x="-1" y="-1"><feGaussianBlur result="blurOut" stdDeviation="2.0"/><feColorMatrix in="blurOut" result="blurOut2" type="matrix" values="0 0 0 0 0 0 0 0 0 0 0 0 0 0 0 0 0 0 .4 0"/><feOffset dx="4.0" dy="4.0" in="blurOut2" result="blurOut3"/><feBlend in="SourceGraphic" in2="blurOut3" mode="normal"/></filter></defs><g><!--class TimerTask--><rect fill="#FEFECE" filter="url(#f10l1j2ufz0elq)" height="75.6719" id="TimerTask" style="stroke: #A80036; stroke-width: 1.5;" width="107" x="325" y="8"/><ellipse cx="347.2" cy="24" fill="#A9DCDF" rx="11" ry="11" style="stroke: #A80036; stroke-width: 1.0;"/><path d="M349.3875,25.7656 L345.2469,25.7656 L344.825,26.7969 L345.2469,26.7969 Q345.8563,26.7969 346.1219,27.0313 Q346.3875,27.2656 346.3875,27.6563 Q346.3875,28.0313 346.1219,28.2656 Q345.8563,28.5 345.2469,28.5 L342.95,28.5 Q342.3406,28.5 342.0828,28.2656 Q341.825,28.0313 341.825,27.6406 Q341.825,27.2656 342.0984,27.0234 Q342.3719,26.7813 342.9969,26.7969 L345.6688,20.1406 L344.5594,20.1406 Q343.95,20.1406 343.6844,19.9063 Q343.4188,19.6719 343.4188,19.2813 Q343.4188,18.9063 343.6844,18.6719 Q343.95,18.4375 344.5594,18.4375 L348.2313,18.4375 L351.6219,26.7969 Q352.2156,26.7969 352.4031,26.9375 Q352.7938,27.2031 352.7938,27.6563 Q352.7938,28.0313 352.5359,28.2656 Q352.2781,28.5 351.6688,28.5 L349.3719,28.5 Q348.7625,28.5 348.4969,28.2656 Q348.2313,28.0313 348.2313,27.6406 Q348.2313,27.2656 348.4969,27.0313 Q348.7625,26.7969 349.3719,26.7969 L349.7938,26.7969 L349.3875,25.7656 Z M348.6688,24.0625 L347.3094,20.6875 L345.9344,24.0625 L348.6688,24.0625 Z "/><text fill="#000000" font-family="sans-serif" font-size="12" font-style="italic" lengthAdjust="spacingAndGlyphs" textLength="59" x="362.8" y="28.9102">TimerTask</text><line style="stroke: #A80036; stroke-width: 1.5;" x1="326" x2="431" y1="40" y2="40"/><line style="stroke: #A80036; stroke-width: 1.5;" x1="326" x2="431" y1="48" y2="48"/><ellipse cx="336" cy="60.418" fill="#84BE84" rx="3" ry="3" style="stroke: #038048; stroke-width: 1.0;"/><text fill="#000000" font-family="sans-serif" font-size="11" lengthAdjust="spacingAndGlyphs" textLength="24" x="345" y="63.4189">run()</text><ellipse cx="336" cy="74.2539" fill="#84BE84" rx="3" ry="3" style="stroke: #038048; stroke-width: 1.0;"/><text fill="#000000" font-family="sans-serif" font-size="11" lengthAdjust="spacingAndGlyphs" textLength="81" x="345" y="77.2549">schedule(task,d)</text><!--class SendEmailAutomaticallyTask--><rect fill="#FEFECE" filter="url(#f10l1j2ufz0elq)" height="103.3438" id="SendEmailAutomaticallyTask" style="stroke: #A80036; stroke-width: 1.5;" width="213" x="272" y="145"/><ellipse cx="296.45" cy="161" fill="#ADD1B2" rx="11" ry="11" style="stroke: #A80036; stroke-width: 1.0;"/><path d="M299.2156,156.875 Q299.3719,156.6563 299.5594,156.5469 Q299.7469,156.4375 299.9656,156.4375 Q300.3406,156.4375 300.575,156.6953 Q300.8094,156.9531 300.8094,157.5625 L300.8094,159.0156 Q300.8094,159.625 300.575,159.8906 Q300.3406,160.1563 299.9656,160.1563 Q299.6219,160.1563 299.4188,159.9531 Q299.2156,159.7656 299.1063,159.25 Q299.0594,158.8906 298.8719,158.7031 Q298.5438,158.3281 297.9344,158.1094 Q297.325,157.8906 296.7,157.8906 Q295.9344,157.8906 295.3016,158.2188 Q294.6688,158.5469 294.1766,159.2969 Q293.6844,160.0469 293.6844,161.0781 L293.6844,162.1719 Q293.6844,163.4063 294.575,164.2266 Q295.4656,165.0469 297.0594,165.0469 Q297.9969,165.0469 298.6531,164.7969 Q299.0438,164.6406 299.4656,164.2031 Q299.7313,163.9375 299.8797,163.8594 Q300.0281,163.7813 300.2313,163.7813 Q300.5594,163.7813 300.8172,164.0391 Q301.075,164.2969 301.075,164.6406 Q301.075,164.9844 300.7313,165.3906 Q300.2313,165.9688 299.4344,166.2969 Q298.3563,166.75 297.0594,166.75 Q295.5438,166.75 294.3406,166.125 Q293.3563,165.625 292.6688,164.5547 Q291.9813,163.4844 291.9813,162.2031 L291.9813,161.0469 Q291.9813,159.7188 292.5984,158.5703 Q293.2156,157.4219 294.3094,156.8047 Q295.4031,156.1875 296.6375,156.1875 Q297.3719,156.1875 298.0203,156.3516 Q298.6688,156.5156 299.2156,156.875 Z "/><text fill="#000000" font-family="sans-serif" font-size="12" lengthAdjust="spacingAndGlyphs" textLength="160" x="312.55" y="165.9102">SendEmailAutomaticallyTask</text><line style="stroke: #A80036; stroke-width: 1.5;" x1="273" x2="484" y1="177" y2="177"/><line style="stroke: #A80036; stroke-width: 1.5;" x1="273" x2="484" y1="185" y2="185"/><ellipse cx="283" cy="197.418" fill="#84BE84" rx="3" ry="3" style="stroke: #038048; stroke-width: 1.0;"/><text fill="#000000" font-family="sans-serif" font-size="11" lengthAdjust="spacingAndGlyphs" textLength="24" x="292" y="200.4189">run()</text><ellipse cx="283" cy="211.2539" fill="#84BE84" rx="3" ry="3" style="stroke: #038048; stroke-width: 1.0;"/><text fill="#000000" font-family="sans-serif" font-size="11" lengthAdjust="spacingAndGlyphs" textLength="148" x="292" y="214.2549">getFreelancerToSendEmailTo()</text><ellipse cx="283" cy="225.0898" fill="#84BE84" rx="3" ry="3" style="stroke: #038048; stroke-width: 1.0;"/><text fill="#000000" font-family="sans-serif" font-size="11" lengthAdjust="spacingAndGlyphs" textLength="62" x="292" y="228.0908">reschedule()</text><ellipse cx="283" cy="238.9258" fill="#84BE84" rx="3" ry="3" style="stroke: #038048; stroke-width: 1.0;"/><text fill="#000000" font-family="sans-serif" font-size="11" lengthAdjust="spacingAndGlyphs" textLength="187" x="292" y="241.9268">SendEmailAutomaticallyTask(timer, cal)</text><!--class Platform--><rect fill="#FEFECE" filter="url(#f10l1j2ufz0elq)" height="117.1797" id="Platform" style="stroke: #A80036; stroke-width: 1.5;" width="192" x="282.5" y="309"/><ellipse cx="351.25" cy="325" fill="#ADD1B2" rx="11" ry="11" style="stroke: #A80036; stroke-width: 1.0;"/><path d="M354.0156,320.875 Q354.1719,320.6563 354.3594,320.5469 Q354.5469,320.4375 354.7656,320.4375 Q355.1406,320.4375 355.375,320.6953 Q355.6094,320.9531 355.6094,321.5625 L355.6094,323.0156 Q355.6094,323.625 355.375,323.8906 Q355.1406,324.1563 354.7656,324.1563 Q354.4219,324.1563 354.2188,323.9531 Q354.0156,323.7656 353.9063,323.25 Q353.8594,322.8906 353.6719,322.7031 Q353.3438,322.3281 352.7344,322.1094 Q352.125,321.8906 351.5,321.8906 Q350.7344,321.8906 350.1016,322.2188 Q349.4688,322.5469 348.9766,323.2969 Q348.4844,324.0469 348.4844,325.0781 L348.4844,326.1719 Q348.4844,327.4063 349.375,328.2266 Q350.2656,329.0469 351.8594,329.0469 Q352.7969,329.0469 353.4531,328.7969 Q353.8438,328.6406 354.2656,328.2031 Q354.5313,327.9375 354.6797,327.8594 Q354.8281,327.7813 355.0313,327.7813 Q355.3594,327.7813 355.6172,328.0391 Q355.875,328.2969 355.875,328.6406 Q355.875,328.9844 355.5313,329.3906 Q355.0313,329.9688 354.2344,330.2969 Q353.1563,330.75 351.8594,330.75 Q350.3438,330.75 349.1406,330.125 Q348.1563,329.625 347.4688,328.5547 Q346.7813,327.4844 346.7813,326.2031 L346.7813,325.0469 Q346.7813,323.7188 347.3984,322.5703 Q348.0156,321.4219 349.1094,320.8047 Q350.2031,320.1875 351.4375,320.1875 Q352.1719,320.1875 352.8203,320.3516 Q353.4688,320.5156 354.0156,320.875 Z "/><text fill="#000000" font-family="sans-serif" font-size="12" lengthAdjust="spacingAndGlyphs" textLength="46" x="371.75" y="329.9102">Platform</text><line style="stroke: #A80036; stroke-width: 1.5;" x1="283.5" x2="473.5" y1="341" y2="341"/><rect fill="none" height="6" style="stroke: #C82930; stroke-width: 1.0;" width="6" x="290.5" y="350.418"/><text fill="#000000" font-family="sans-serif" font-size="11" lengthAdjust="spacingAndGlyphs" textLength="86" x="302.5" y="356.4189">String designation</text><line style="stroke: #A80036; stroke-width: 1.5;" x1="283.5" x2="473.5" y1="362.8359" y2="362.8359"/><ellipse cx="293.5" cy="375.2539" fill="#84BE84" rx="3" ry="3" style="stroke: #038048; stroke-width: 1.0;"/><text fill="#000000" font-family="sans-serif" font-size="11" lengthAdjust="spacingAndGlyphs" textLength="78" x="302.5" y="378.2549">scheduleTimer()</text><ellipse cx="293.5" cy="389.0898" fill="#84BE84" rx="3" ry="3" style="stroke: #038048; stroke-width: 1.0;"/><text fill="#000000" font-family="sans-serif" font-size="11" lengthAdjust="spacingAndGlyphs" textLength="130" x="302.5" y="392.0908">getOrganizationsRegister()</text><ellipse cx="293.5" cy="402.9258" fill="#84BE84" rx="3" ry="3" style="stroke: #038048; stroke-width: 1.0;"/><text fill="#000000" font-family="sans-serif" font-size="11" lengthAdjust="spacingAndGlyphs" textLength="121" x="302.5" y="405.9268">getFreelancersRegister()</text><ellipse cx="293.5" cy="416.7617" fill="#84BE84" rx="3" ry="3" style="stroke: #038048; stroke-width: 1.0;"/><text fill="#000000" font-family="sans-serif" font-size="11" lengthAdjust="spacingAndGlyphs" textLength="166" x="302.5" y="419.7627">getExternalEmailSenderAlgorithm()</text><!--class Organization--><rect fill="#FEFECE" filter="url(#f10l1j2ufz0elq)" height="75.6719" id="Organization" style="stroke: #A80036; stroke-width: 1.5;" width="164" x="134.5" y="729"/><ellipse cx="177.85" cy="745" fill="#ADD1B2" rx="11" ry="11" style="stroke: #A80036; stroke-width: 1.0;"/><path d="M180.6156,740.875 Q180.7719,740.6563 180.9594,740.5469 Q181.1469,740.4375 181.3656,740.4375 Q181.7406,740.4375 181.975,740.6953 Q182.2094,740.9531 182.2094,741.5625 L182.2094,743.0156 Q182.2094,743.625 181.975,743.8906 Q181.7406,744.1563 181.3656,744.1563 Q181.0219,744.1563 180.8188,743.9531 Q180.6156,743.7656 180.5063,743.25 Q180.4594,742.8906 180.2719,742.7031 Q179.9438,742.3281 179.3344,742.1094 Q178.725,741.8906 178.1,741.8906 Q177.3344,741.8906 176.7016,742.2188 Q176.0688,742.5469 175.5766,743.2969 Q175.0844,744.0469 175.0844,745.0781 L175.0844,746.1719 Q175.0844,747.4063 175.975,748.2266 Q176.8656,749.0469 178.4594,749.0469 Q179.3969,749.0469 180.0531,748.7969 Q180.4438,748.6406 180.8656,748.2031 Q181.1313,747.9375 181.2797,747.8594 Q181.4281,747.7813 181.6313,747.7813 Q181.9594,747.7813 182.2172,748.0391 Q182.475,748.2969 182.475,748.6406 Q182.475,748.9844 182.1313,749.3906 Q181.6313,749.9688 180.8344,750.2969 Q179.7563,750.75 178.4594,750.75 Q176.9438,750.75 175.7406,750.125 Q174.7563,749.625 174.0688,748.5547 Q173.3813,747.4844 173.3813,746.2031 L173.3813,745.0469 Q173.3813,743.7188 173.9984,742.5703 Q174.6156,741.4219 175.7094,740.8047 Q176.8031,740.1875 178.0375,740.1875 Q178.7719,740.1875 179.4203,740.3516 Q180.0688,740.5156 180.6156,740.875 Z "/><text fill="#000000" font-family="sans-serif" font-size="12" lengthAdjust="spacingAndGlyphs" textLength="69" x="198.15" y="749.9102">Organization</text><line style="stroke: #A80036; stroke-width: 1.5;" x1="135.5" x2="297.5" y1="761" y2="761"/><rect fill="none" height="6" style="stroke: #C82930; stroke-width: 1.0;" width="6" x="142.5" y="770.418"/><text fill="#000000" font-family="sans-serif" font-size="11" lengthAdjust="spacingAndGlyphs" textLength="86" x="154.5" y="776.4189">String designation</text><line style="stroke: #A80036; stroke-width: 1.5;" x1="135.5" x2="297.5" y1="782.8359" y2="782.8359"/><ellipse cx="145.5" cy="795.2539" fill="#84BE84" rx="3" ry="3" style="stroke: #038048; stroke-width: 1.0;"/><text fill="#000000" font-family="sans-serif" font-size="11" lengthAdjust="spacingAndGlyphs" textLength="138" x="154.5" y="798.2549">getPaymentTransactionList()</text><!--class OrganizationsRegister--><rect fill="#FEFECE" filter="url(#f10l1j2ufz0elq)" height="103.3438" id="OrganizationsRegister" style="stroke: #A80036; stroke-width: 1.5;" width="211" x="114" y="504"/><ellipse cx="154.2" cy="520" fill="#ADD1B2" rx="11" ry="11" style="stroke: #A80036; stroke-width: 1.0;"/><path d="M156.9656,515.875 Q157.1219,515.6563 157.3094,515.5469 Q157.4969,515.4375 157.7156,515.4375 Q158.0906,515.4375 158.325,515.6953 Q158.5594,515.9531 158.5594,516.5625 L158.5594,518.0156 Q158.5594,518.625 158.325,518.8906 Q158.0906,519.1563 157.7156,519.1563 Q157.3719,519.1563 157.1688,518.9531 Q156.9656,518.7656 156.8563,518.25 Q156.8094,517.8906 156.6219,517.7031 Q156.2938,517.3281 155.6844,517.1094 Q155.075,516.8906 154.45,516.8906 Q153.6844,516.8906 153.0516,517.2188 Q152.4188,517.5469 151.9266,518.2969 Q151.4344,519.0469 151.4344,520.0781 L151.4344,521.1719 Q151.4344,522.4063 152.325,523.2266 Q153.2156,524.0469 154.8094,524.0469 Q155.7469,524.0469 156.4031,523.7969 Q156.7938,523.6406 157.2156,523.2031 Q157.4813,522.9375 157.6297,522.8594 Q157.7781,522.7813 157.9813,522.7813 Q158.3094,522.7813 158.5672,523.0391 Q158.825,523.2969 158.825,523.6406 Q158.825,523.9844 158.4813,524.3906 Q157.9813,524.9688 157.1844,525.2969 Q156.1063,525.75 154.8094,525.75 Q153.2938,525.75 152.0906,525.125 Q151.1063,524.625 150.4188,523.5547 Q149.7313,522.4844 149.7313,521.2031 L149.7313,520.0469 Q149.7313,518.7188 150.3484,517.5703 Q150.9656,516.4219 152.0594,515.8047 Q153.1531,515.1875 154.3875,515.1875 Q155.1219,515.1875 155.7703,515.3516 Q156.4188,515.5156 156.9656,515.875 Z "/><text fill="#000000" font-family="sans-serif" font-size="12" lengthAdjust="spacingAndGlyphs" textLength="123" x="173.8" y="524.9102">OrganizationsRegister</text><line style="stroke: #A80036; stroke-width: 1.5;" x1="115" x2="324" y1="536" y2="536"/><line style="stroke: #A80036; stroke-width: 1.5;" x1="115" x2="324" y1="544" y2="544"/><ellipse cx="125" cy="556.418" fill="#84BE84" rx="3" ry="3" style="stroke: #038048; stroke-width: 1.0;"/><text fill="#000000" font-family="sans-serif" font-size="11" lengthAdjust="spacingAndGlyphs" textLength="107" x="134" y="559.4189">getOrganizationsList()</text><ellipse cx="125" cy="570.2539" fill="#84BE84" rx="3" ry="3" style="stroke: #038048; stroke-width: 1.0;"/><text fill="#000000" font-family="sans-serif" font-size="11" lengthAdjust="spacingAndGlyphs" textLength="185" x="134" y="573.2549">calculateOverallPercentageOfDelays()</text><ellipse cx="125" cy="584.0898" fill="#84BE84" rx="3" ry="3" style="stroke: #038048; stroke-width: 1.0;"/><text fill="#000000" font-family="sans-serif" font-size="11" lengthAdjust="spacingAndGlyphs" textLength="57" x="134" y="587.0908">getMean(id)</text><ellipse cx="125" cy="597.9258" fill="#84BE84" rx="3" ry="3" style="stroke: #038048; stroke-width: 1.0;"/><text fill="#000000" font-family="sans-serif" font-size="11" lengthAdjust="spacingAndGlyphs" textLength="86" x="134" y="600.9268">getPercentage(id)</text><!--class PaymentTransaction--><rect fill="#FEFECE" filter="url(#f10l1j2ufz0elq)" height="89.5078" id="PaymentTransaction" style="stroke: #A80036; stroke-width: 1.5;" width="145" x="144" y="1067"/><ellipse cx="159" cy="1083" fill="#ADD1B2" rx="11" ry="11" style="stroke: #A80036; stroke-width: 1.0;"/><path d="M161.7656,1078.875 Q161.9219,1078.6563 162.1094,1078.5469 Q162.2969,1078.4375 162.5156,1078.4375 Q162.8906,1078.4375 163.125,1078.6953 Q163.3594,1078.9531 163.3594,1079.5625 L163.3594,1081.0156 Q163.3594,1081.625 163.125,1081.8906 Q162.8906,1082.1563 162.5156,1082.1563 Q162.1719,1082.1563 161.9688,1081.9531 Q161.7656,1081.7656 161.6563,1081.25 Q161.6094,1080.8906 161.4219,1080.7031 Q161.0938,1080.3281 160.4844,1080.1094 Q159.875,1079.8906 159.25,1079.8906 Q158.4844,1079.8906 157.8516,1080.2188 Q157.2188,1080.5469 156.7266,1081.2969 Q156.2344,1082.0469 156.2344,1083.0781 L156.2344,1084.1719 Q156.2344,1085.4063 157.125,1086.2266 Q158.0156,1087.0469 159.6094,1087.0469 Q160.5469,1087.0469 161.2031,1086.7969 Q161.5938,1086.6406 162.0156,1086.2031 Q162.2813,1085.9375 162.4297,1085.8594 Q162.5781,1085.7813 162.7813,1085.7813 Q163.1094,1085.7813 163.3672,1086.0391 Q163.625,1086.2969 163.625,1086.6406 Q163.625,1086.9844 163.2813,1087.3906 Q162.7813,1087.9688 161.9844,1088.2969 Q160.9063,1088.75 159.6094,1088.75 Q158.0938,1088.75 156.8906,1088.125 Q155.9063,1087.625 155.2188,1086.5547 Q154.5313,1085.4844 154.5313,1084.2031 L154.5313,1083.0469 Q154.5313,1081.7188 155.1484,1080.5703 Q155.7656,1079.4219 156.8594,1078.8047 Q157.9531,1078.1875 159.1875,1078.1875 Q159.9219,1078.1875 160.5703,1078.3516 Q161.2188,1078.5156 161.7656,1078.875 Z "/><text fill="#000000" font-family="sans-serif" font-size="12" lengthAdjust="spacingAndGlyphs" textLength="113" x="173" y="1087.9102">PaymentTransaction</text><line style="stroke: #A80036; stroke-width: 1.5;" x1="145" x2="288" y1="1099" y2="1099"/><rect fill="none" height="6" style="stroke: #C82930; stroke-width: 1.0;" width="6" x="152" y="1108.418"/><text fill="#000000" font-family="sans-serif" font-size="11" lengthAdjust="spacingAndGlyphs" textLength="39" x="164" y="1114.4189">String id</text><line style="stroke: #A80036; stroke-width: 1.5;" x1="145" x2="288" y1="1120.8359" y2="1120.8359"/><ellipse cx="155" cy="1133.2539" fill="#84BE84" rx="3" ry="3" style="stroke: #038048; stroke-width: 1.0;"/><text fill="#000000" font-family="sans-serif" font-size="11" lengthAdjust="spacingAndGlyphs" textLength="75" x="164" y="1136.2549">getFreelancer()</text><ellipse cx="155" cy="1147.0898" fill="#84BE84" rx="3" ry="3" style="stroke: #038048; stroke-width: 1.0;"/><text fill="#000000" font-family="sans-serif" font-size="11" lengthAdjust="spacingAndGlyphs" textLength="46" x="164" y="1150.0908">getTask()</text><!--class Date--><rect fill="#FEFECE" filter="url(#f10l1j2ufz0elq)" height="61.8359" id="Date" style="stroke: #A80036; stroke-width: 1.5;" width="73" x="6" y="524.5"/><ellipse cx="27.75" cy="540.5" fill="#ADD1B2" rx="11" ry="11" style="stroke: #A80036; stroke-width: 1.0;"/><path d="M30.5156,536.375 Q30.6719,536.1563 30.8594,536.0469 Q31.0469,535.9375 31.2656,535.9375 Q31.6406,535.9375 31.875,536.1953 Q32.1094,536.4531 32.1094,537.0625 L32.1094,538.5156 Q32.1094,539.125 31.875,539.3906 Q31.6406,539.6563 31.2656,539.6563 Q30.9219,539.6563 30.7188,539.4531 Q30.5156,539.2656 30.4063,538.75 Q30.3594,538.3906 30.1719,538.2031 Q29.8438,537.8281 29.2344,537.6094 Q28.625,537.3906 28,537.3906 Q27.2344,537.3906 26.6016,537.7188 Q25.9688,538.0469 25.4766,538.7969 Q24.9844,539.5469 24.9844,540.5781 L24.9844,541.6719 Q24.9844,542.9063 25.875,543.7266 Q26.7656,544.5469 28.3594,544.5469 Q29.2969,544.5469 29.9531,544.2969 Q30.3438,544.1406 30.7656,543.7031 Q31.0313,543.4375 31.1797,543.3594 Q31.3281,543.2813 31.5313,543.2813 Q31.8594,543.2813 32.1172,543.5391 Q32.375,543.7969 32.375,544.1406 Q32.375,544.4844 32.0313,544.8906 Q31.5313,545.4688 30.7344,545.7969 Q29.6563,546.25 28.3594,546.25 Q26.8438,546.25 25.6406,545.625 Q24.6563,545.125 23.9688,544.0547 Q23.2813,542.9844 23.2813,541.7031 L23.2813,540.5469 Q23.2813,539.2188 23.8984,538.0703 Q24.5156,536.9219 25.6094,536.3047 Q26.7031,535.6875 27.9375,535.6875 Q28.6719,535.6875 29.3203,535.8516 Q29.9688,536.0156 30.5156,536.375 Z "/><text fill="#000000" font-family="sans-serif" font-size="12" lengthAdjust="spacingAndGlyphs" textLength="26" x="43.25" y="545.4102">Date</text><line style="stroke: #A80036; stroke-width: 1.5;" x1="7" x2="78" y1="556.5" y2="556.5"/><line style="stroke: #A80036; stroke-width: 1.5;" x1="7" x2="78" y1="564.5" y2="564.5"/><ellipse cx="17" cy="576.918" fill="#84BE84" rx="3" ry="3" style="stroke: #038048; stroke-width: 1.0;"/><text fill="#000000" font-family="sans-serif" font-size="11" lengthAdjust="spacingAndGlyphs" textLength="47" x="26" y="579.9189">getYear()</text><!--class Calendar--><rect fill="#FEFECE" filter="url(#f10l1j2ufz0elq)" height="103.3438" id="Calendar" style="stroke: #A80036; stroke-width: 1.5;" width="124" x="551.5" y="504"/><ellipse cx="584.95" cy="520" fill="#ADD1B2" rx="11" ry="11" style="stroke: #A80036; stroke-width: 1.0;"/><path d="M587.7156,515.875 Q587.8719,515.6563 588.0594,515.5469 Q588.2469,515.4375 588.4656,515.4375 Q588.8406,515.4375 589.075,515.6953 Q589.3094,515.9531 589.3094,516.5625 L589.3094,518.0156 Q589.3094,518.625 589.075,518.8906 Q588.8406,519.1563 588.4656,519.1563 Q588.1219,519.1563 587.9188,518.9531 Q587.7156,518.7656 587.6063,518.25 Q587.5594,517.8906 587.3719,517.7031 Q587.0438,517.3281 586.4344,517.1094 Q585.825,516.8906 585.2,516.8906 Q584.4344,516.8906 583.8016,517.2188 Q583.1688,517.5469 582.6766,518.2969 Q582.1844,519.0469 582.1844,520.0781 L582.1844,521.1719 Q582.1844,522.4063 583.075,523.2266 Q583.9656,524.0469 585.5594,524.0469 Q586.4969,524.0469 587.1531,523.7969 Q587.5438,523.6406 587.9656,523.2031 Q588.2313,522.9375 588.3797,522.8594 Q588.5281,522.7813 588.7313,522.7813 Q589.0594,522.7813 589.3172,523.0391 Q589.575,523.2969 589.575,523.6406 Q589.575,523.9844 589.2313,524.3906 Q588.7313,524.9688 587.9344,525.2969 Q586.8563,525.75 585.5594,525.75 Q584.0438,525.75 582.8406,525.125 Q581.8563,524.625 581.1688,523.5547 Q580.4813,522.4844 580.4813,521.2031 L580.4813,520.0469 Q580.4813,518.7188 581.0984,517.5703 Q581.7156,516.4219 582.8094,515.8047 Q583.9031,515.1875 585.1375,515.1875 Q585.8719,515.1875 586.5203,515.3516 Q587.1688,515.5156 587.7156,515.875 Z "/><text fill="#000000" font-family="sans-serif" font-size="12" lengthAdjust="spacingAndGlyphs" textLength="51" x="603.05" y="524.9102">Calendar</text><line style="stroke: #A80036; stroke-width: 1.5;" x1="552.5" x2="674.5" y1="536" y2="536"/><line style="stroke: #A80036; stroke-width: 1.5;" x1="552.5" x2="674.5" y1="544" y2="544"/><ellipse cx="562.5" cy="556.418" fill="#84BE84" rx="3" ry="3" style="stroke: #038048; stroke-width: 1.0;"/><text fill="#000000" font-family="sans-serif" font-size="11" lengthAdjust="spacingAndGlyphs" textLength="98" x="571.5" y="559.4189">get(Calendar.YEAR)</text><ellipse cx="562.5" cy="570.2539" fill="#84BE84" rx="3" ry="3" style="stroke: #038048; stroke-width: 1.0;"/><text fill="#000000" font-family="sans-serif" font-size="11" lengthAdjust="spacingAndGlyphs" textLength="64" x="571.5" y="573.2549">getInstance()</text><ellipse cx="562.5" cy="584.0898" fill="#84BE84" rx="3" ry="3" style="stroke: #038048; stroke-width: 1.0;"/><text fill="#000000" font-family="sans-serif" font-size="11" lengthAdjust="spacingAndGlyphs" textLength="45" x="571.5" y="587.0908">getTime()</text><ellipse cx="562.5" cy="597.9258" fill="#84BE84" rx="3" ry="3" style="stroke: #038048; stroke-width: 1.0;"/><text fill="#000000" font-family="sans-serif" font-size="11" lengthAdjust="spacingAndGlyphs" textLength="66" x="571.5" y="600.9268">setTime(date)</text><!--class PaymentTransactionList--><rect fill="#FEFECE" filter="url(#f10l1j2ufz0elq)" height="61.8359" id="PaymentTransactionList" style="stroke: #A80036; stroke-width: 1.5;" width="165" x="134" y="927"/><ellipse cx="149" cy="943" fill="#ADD1B2" rx="11" ry="11" style="stroke: #A80036; stroke-width: 1.0;"/><path d="M151.7656,938.875 Q151.9219,938.6563 152.1094,938.5469 Q152.2969,938.4375 152.5156,938.4375 Q152.8906,938.4375 153.125,938.6953 Q153.3594,938.9531 153.3594,939.5625 L153.3594,941.0156 Q153.3594,941.625 153.125,941.8906 Q152.8906,942.1563 152.5156,942.1563 Q152.1719,942.1563 151.9688,941.9531 Q151.7656,941.7656 151.6563,941.25 Q151.6094,940.8906 151.4219,940.7031 Q151.0938,940.3281 150.4844,940.1094 Q149.875,939.8906 149.25,939.8906 Q148.4844,939.8906 147.8516,940.2188 Q147.2188,940.5469 146.7266,941.2969 Q146.2344,942.0469 146.2344,943.0781 L146.2344,944.1719 Q146.2344,945.4063 147.125,946.2266 Q148.0156,947.0469 149.6094,947.0469 Q150.5469,947.0469 151.2031,946.7969 Q151.5938,946.6406 152.0156,946.2031 Q152.2813,945.9375 152.4297,945.8594 Q152.5781,945.7813 152.7813,945.7813 Q153.1094,945.7813 153.3672,946.0391 Q153.625,946.2969 153.625,946.6406 Q153.625,946.9844 153.2813,947.3906 Q152.7813,947.9688 151.9844,948.2969 Q150.9063,948.75 149.6094,948.75 Q148.0938,948.75 146.8906,948.125 Q145.9063,947.625 145.2188,946.5547 Q144.5313,945.4844 144.5313,944.2031 L144.5313,943.0469 Q144.5313,941.7188 145.1484,940.5703 Q145.7656,939.4219 146.8594,938.8047 Q147.9531,938.1875 149.1875,938.1875 Q149.9219,938.1875 150.5703,938.3516 Q151.2188,938.5156 151.7656,938.875 Z "/><text fill="#000000" font-family="sans-serif" font-size="12" lengthAdjust="spacingAndGlyphs" textLength="133" x="163" y="947.9102">PaymentTransactionList</text><line style="stroke: #A80036; stroke-width: 1.5;" x1="135" x2="298" y1="959" y2="959"/><line style="stroke: #A80036; stroke-width: 1.5;" x1="135" x2="298" y1="967" y2="967"/><ellipse cx="145" cy="979.418" fill="#84BE84" rx="3" ry="3" style="stroke: #038048; stroke-width: 1.0;"/><text fill="#000000" font-family="sans-serif" font-size="11" lengthAdjust="spacingAndGlyphs" textLength="127" x="154" y="982.4189">getPaymentTransactions()</text><!--class Task--><rect fill="#FEFECE" filter="url(#f10l1j2ufz0elq)" height="131.0156" id="Task" style="stroke: #A80036; stroke-width: 1.5;" width="133" x="202" y="1472"/><ellipse cx="250.75" cy="1488" fill="#ADD1B2" rx="11" ry="11" style="stroke: #A80036; stroke-width: 1.0;"/><path d="M253.5156,1483.875 Q253.6719,1483.6563 253.8594,1483.5469 Q254.0469,1483.4375 254.2656,1483.4375 Q254.6406,1483.4375 254.875,1483.6953 Q255.1094,1483.9531 255.1094,1484.5625 L255.1094,1486.0156 Q255.1094,1486.625 254.875,1486.8906 Q254.6406,1487.1563 254.2656,1487.1563 Q253.9219,1487.1563 253.7188,1486.9531 Q253.5156,1486.7656 253.4063,1486.25 Q253.3594,1485.8906 253.1719,1485.7031 Q252.8438,1485.3281 252.2344,1485.1094 Q251.625,1484.8906 251,1484.8906 Q250.2344,1484.8906 249.6016,1485.2188 Q248.9688,1485.5469 248.4766,1486.2969 Q247.9844,1487.0469 247.9844,1488.0781 L247.9844,1489.1719 Q247.9844,1490.4063 248.875,1491.2266 Q249.7656,1492.0469 251.3594,1492.0469 Q252.2969,1492.0469 252.9531,1491.7969 Q253.3438,1491.6406 253.7656,1491.2031 Q254.0313,1490.9375 254.1797,1490.8594 Q254.3281,1490.7813 254.5313,1490.7813 Q254.8594,1490.7813 255.1172,1491.0391 Q255.375,1491.2969 255.375,1491.6406 Q255.375,1491.9844 255.0313,1492.3906 Q254.5313,1492.9688 253.7344,1493.2969 Q252.6563,1493.75 251.3594,1493.75 Q249.8438,1493.75 248.6406,1493.125 Q247.6563,1492.625 246.9688,1491.5547 Q246.2813,1490.4844 246.2813,1489.2031 L246.2813,1488.0469 Q246.2813,1486.7188 246.8984,1485.5703 Q247.5156,1484.4219 248.6094,1483.8047 Q249.7031,1483.1875 250.9375,1483.1875 Q251.6719,1483.1875 252.3203,1483.3516 Q252.9688,1483.5156 253.5156,1483.875 Z "/><text fill="#000000" font-family="sans-serif" font-size="12" lengthAdjust="spacingAndGlyphs" textLength="27" x="271.25" y="1492.9102">Task</text><line style="stroke: #A80036; stroke-width: 1.5;" x1="203" x2="334" y1="1504" y2="1504"/><rect fill="none" height="6" style="stroke: #C82930; stroke-width: 1.0;" width="6" x="210" y="1513.418"/><text fill="#000000" font-family="sans-serif" font-size="11" lengthAdjust="spacingAndGlyphs" textLength="39" x="222" y="1519.4189">String id</text><rect fill="none" height="6" style="stroke: #C82930; stroke-width: 1.0;" width="6" x="210" y="1527.2539"/><text fill="#000000" font-family="sans-serif" font-size="11" lengthAdjust="spacingAndGlyphs" textLength="107" x="222" y="1533.2549">String briefDescription</text><rect fill="none" height="6" style="stroke: #C82930; stroke-width: 1.0;" width="6" x="210" y="1541.0898"/><text fill="#000000" font-family="sans-serif" font-size="11" lengthAdjust="spacingAndGlyphs" textLength="95" x="222" y="1547.0908">Double timeDuration</text><rect fill="none" height="6" style="stroke: #C82930; stroke-width: 1.0;" width="6" x="210" y="1554.9258"/><text fill="#000000" font-family="sans-serif" font-size="11" lengthAdjust="spacingAndGlyphs" textLength="96" x="222" y="1560.9268">Double costPerHour</text><rect fill="none" height="6" style="stroke: #C82930; stroke-width: 1.0;" width="6" x="210" y="1568.7617"/><text fill="#000000" font-family="sans-serif" font-size="11" lengthAdjust="spacingAndGlyphs" textLength="74" x="222" y="1574.7627">String category</text><line style="stroke: #A80036; stroke-width: 1.5;" x1="203" x2="334" y1="1581.1797" y2="1581.1797"/><ellipse cx="213" cy="1593.5977" fill="#84BE84" rx="3" ry="3" style="stroke: #038048; stroke-width: 1.0;"/><text fill="#000000" font-family="sans-serif" font-size="11" lengthAdjust="spacingAndGlyphs" textLength="93" x="222" y="1596.5986">getTaskExecution()</text><!--class TaskExecution--><rect fill="#FEFECE" filter="url(#f10l1j2ufz0elq)" height="117.1797" id="TaskExecution" style="stroke: #A80036; stroke-width: 1.5;" width="139" x="199" y="1681"/><ellipse cx="226.15" cy="1697" fill="#ADD1B2" rx="11" ry="11" style="stroke: #A80036; stroke-width: 1.0;"/><path d="M228.9156,1692.875 Q229.0719,1692.6563 229.2594,1692.5469 Q229.4469,1692.4375 229.6656,1692.4375 Q230.0406,1692.4375 230.275,1692.6953 Q230.5094,1692.9531 230.5094,1693.5625 L230.5094,1695.0156 Q230.5094,1695.625 230.275,1695.8906 Q230.0406,1696.1563 229.6656,1696.1563 Q229.3219,1696.1563 229.1188,1695.9531 Q228.9156,1695.7656 228.8063,1695.25 Q228.7594,1694.8906 228.5719,1694.7031 Q228.2438,1694.3281 227.6344,1694.1094 Q227.025,1693.8906 226.4,1693.8906 Q225.6344,1693.8906 225.0016,1694.2188 Q224.3688,1694.5469 223.8766,1695.2969 Q223.3844,1696.0469 223.3844,1697.0781 L223.3844,1698.1719 Q223.3844,1699.4063 224.275,1700.2266 Q225.1656,1701.0469 226.7594,1701.0469 Q227.6969,1701.0469 228.3531,1700.7969 Q228.7438,1700.6406 229.1656,1700.2031 Q229.4313,1699.9375 229.5797,1699.8594 Q229.7281,1699.7813 229.9313,1699.7813 Q230.2594,1699.7813 230.5172,1700.0391 Q230.775,1700.2969 230.775,1700.6406 Q230.775,1700.9844 230.4313,1701.3906 Q229.9313,1701.9688 229.1344,1702.2969 Q228.0563,1702.75 226.7594,1702.75 Q225.2438,1702.75 224.0406,1702.125 Q223.0563,1701.625 222.3688,1700.5547 Q221.6813,1699.4844 221.6813,1698.2031 L221.6813,1697.0469 Q221.6813,1695.7188 222.2984,1694.5703 Q222.9156,1693.4219 224.0094,1692.8047 Q225.1031,1692.1875 226.3375,1692.1875 Q227.0719,1692.1875 227.7203,1692.3516 Q228.3688,1692.5156 228.9156,1692.875 Z "/><text fill="#000000" font-family="sans-serif" font-size="12" lengthAdjust="spacingAndGlyphs" textLength="80" x="242.85" y="1701.9102">TaskExecution</text><line style="stroke: #A80036; stroke-width: 1.5;" x1="200" x2="337" y1="1713" y2="1713"/><rect fill="none" height="6" style="stroke: #C82930; stroke-width: 1.0;" width="6" x="207" y="1722.418"/><text fill="#000000" font-family="sans-serif" font-size="11" lengthAdjust="spacingAndGlyphs" textLength="65" x="219" y="1728.4189">Date deadline</text><rect fill="none" height="6" style="stroke: #C82930; stroke-width: 1.0;" width="6" x="207" y="1736.2539"/><text fill="#000000" font-family="sans-serif" font-size="11" lengthAdjust="spacingAndGlyphs" textLength="62" x="219" y="1742.2549">Double delay</text><rect fill="none" height="6" style="stroke: #C82930; stroke-width: 1.0;" width="6" x="207" y="1750.0898"/><text fill="#000000" font-family="sans-serif" font-size="11" lengthAdjust="spacingAndGlyphs" textLength="113" x="219" y="1756.0908">String descQualityWork</text><line style="stroke: #A80036; stroke-width: 1.5;" x1="200" x2="337" y1="1762.5078" y2="1762.5078"/><ellipse cx="210" cy="1774.9258" fill="#84BE84" rx="3" ry="3" style="stroke: #038048; stroke-width: 1.0;"/><text fill="#000000" font-family="sans-serif" font-size="11" lengthAdjust="spacingAndGlyphs" textLength="50" x="219" y="1777.9268">getDelay()</text><ellipse cx="210" cy="1788.7617" fill="#84BE84" rx="3" ry="3" style="stroke: #038048; stroke-width: 1.0;"/><text fill="#000000" font-family="sans-serif" font-size="11" lengthAdjust="spacingAndGlyphs" textLength="45" x="219" y="1791.7627">getDate()</text><!--class FreelancerRegister--><rect fill="#FEFECE" filter="url(#f10l1j2ufz0elq)" height="61.8359" id="FreelancerRegister" style="stroke: #A80036; stroke-width: 1.5;" width="138" x="305.5" y="637"/><ellipse cx="320.5" cy="653" fill="#ADD1B2" rx="11" ry="11" style="stroke: #A80036; stroke-width: 1.0;"/><path d="M323.2656,648.875 Q323.4219,648.6563 323.6094,648.5469 Q323.7969,648.4375 324.0156,648.4375 Q324.3906,648.4375 324.625,648.6953 Q324.8594,648.9531 324.8594,649.5625 L324.8594,651.0156 Q324.8594,651.625 324.625,651.8906 Q324.3906,652.1563 324.0156,652.1563 Q323.6719,652.1563 323.4688,651.9531 Q323.2656,651.7656 323.1563,651.25 Q323.1094,650.8906 322.9219,650.7031 Q322.5938,650.3281 321.9844,650.1094 Q321.375,649.8906 320.75,649.8906 Q319.9844,649.8906 319.3516,650.2188 Q318.7188,650.5469 318.2266,651.2969 Q317.7344,652.0469 317.7344,653.0781 L317.7344,654.1719 Q317.7344,655.4063 318.625,656.2266 Q319.5156,657.0469 321.1094,657.0469 Q322.0469,657.0469 322.7031,656.7969 Q323.0938,656.6406 323.5156,656.2031 Q323.7813,655.9375 323.9297,655.8594 Q324.0781,655.7813 324.2813,655.7813 Q324.6094,655.7813 324.8672,656.0391 Q325.125,656.2969 325.125,656.6406 Q325.125,656.9844 324.7813,657.3906 Q324.2813,657.9688 323.4844,658.2969 Q322.4063,658.75 321.1094,658.75 Q319.5938,658.75 318.3906,658.125 Q317.4063,657.625 316.7188,656.5547 Q316.0313,655.4844 316.0313,654.2031 L316.0313,653.0469 Q316.0313,651.7188 316.6484,650.5703 Q317.2656,649.4219 318.3594,648.8047 Q319.4531,648.1875 320.6875,648.1875 Q321.4219,648.1875 322.0703,648.3516 Q322.7188,648.5156 323.2656,648.875 Z "/><text fill="#000000" font-family="sans-serif" font-size="12" lengthAdjust="spacingAndGlyphs" textLength="106" x="334.5" y="657.9102">FreelancerRegister</text><line style="stroke: #A80036; stroke-width: 1.5;" x1="306.5" x2="442.5" y1="669" y2="669"/><line style="stroke: #A80036; stroke-width: 1.5;" x1="306.5" x2="442.5" y1="677" y2="677"/><ellipse cx="316.5" cy="689.418" fill="#84BE84" rx="3" ry="3" style="stroke: #038048; stroke-width: 1.0;"/><text fill="#000000" font-family="sans-serif" font-size="11" lengthAdjust="spacingAndGlyphs" textLength="81" x="325.5" y="692.4189">getFreelancers()</text><!--class ExternalEmailSenderAlgorithm--><rect fill="#FEFECE" filter="url(#f10l1j2ufz0elq)" height="61.8359" id="ExternalEmailSenderAlgorithm" style="stroke: #A80036; stroke-width: 1.5;" width="266" x="394.5" y="835"/><ellipse cx="438.3" cy="851" fill="#B4A7E5" rx="11" ry="11" style="stroke: #A80036; stroke-width: 1.0;"/><path d="M439.2531,847.6406 L439.2531,854.2969 L440.9719,854.2969 Q441.5813,854.2969 441.8469,854.5313 Q442.1125,854.7656 442.1125,855.1563 Q442.1125,855.5313 441.8469,855.7656 Q441.5813,856 440.9719,856 L435.8313,856 Q435.2219,856 434.9563,855.7656 Q434.6906,855.5313 434.6906,855.1406 Q434.6906,854.7656 434.9563,854.5313 Q435.2219,854.2969 435.8313,854.2969 L437.55,854.2969 L437.55,847.6406 L435.8313,847.6406 Q435.2219,847.6406 434.9563,847.4063 Q434.6906,847.1719 434.6906,846.7813 Q434.6906,846.4063 434.9563,846.1719 Q435.2219,845.9375 435.8313,845.9375 L440.9719,845.9375 Q441.5813,845.9375 441.8469,846.1719 Q442.1125,846.4063 442.1125,846.7813 Q442.1125,847.1719 441.8469,847.4063 Q441.5813,847.6406 440.9719,847.6406 L439.2531,847.6406 Z "/><text fill="#000000" font-family="sans-serif" font-size="12" font-style="italic" lengthAdjust="spacingAndGlyphs" textLength="170" x="458.7" y="855.9102">ExternalEmailSenderAlgorithm</text><line style="stroke: #A80036; stroke-width: 1.5;" x1="395.5" x2="659.5" y1="867" y2="867"/><line style="stroke: #A80036; stroke-width: 1.5;" x1="395.5" x2="659.5" y1="875" y2="875"/><ellipse cx="405.5" cy="887.418" fill="#84BE84" rx="3" ry="3" style="stroke: #038048; stroke-width: 1.0;"/><text fill="#000000" font-family="sans-serif" font-size="11" lengthAdjust="spacingAndGlyphs" textLength="240" x="414.5" y="890.4189">sendEmail( EmailSender, email, Subject, Message)</text><!--class Freelancer--><rect fill="#FEFECE" filter="url(#f10l1j2ufz0elq)" height="158.6875" id="Freelancer" style="stroke: #A80036; stroke-width: 1.5;" width="142" x="304.5" y="1235"/><ellipse cx="342.45" cy="1251" fill="#ADD1B2" rx="11" ry="11" style="stroke: #A80036; stroke-width: 1.0;"/><path d="M345.2156,1246.875 Q345.3719,1246.6563 345.5594,1246.5469 Q345.7469,1246.4375 345.9656,1246.4375 Q346.3406,1246.4375 346.575,1246.6953 Q346.8094,1246.9531 346.8094,1247.5625 L346.8094,1249.0156 Q346.8094,1249.625 346.575,1249.8906 Q346.3406,1250.1563 345.9656,1250.1563 Q345.6219,1250.1563 345.4188,1249.9531 Q345.2156,1249.7656 345.1063,1249.25 Q345.0594,1248.8906 344.8719,1248.7031 Q344.5438,1248.3281 343.9344,1248.1094 Q343.325,1247.8906 342.7,1247.8906 Q341.9344,1247.8906 341.3016,1248.2188 Q340.6688,1248.5469 340.1766,1249.2969 Q339.6844,1250.0469 339.6844,1251.0781 L339.6844,1252.1719 Q339.6844,1253.4063 340.575,1254.2266 Q341.4656,1255.0469 343.0594,1255.0469 Q343.9969,1255.0469 344.6531,1254.7969 Q345.0438,1254.6406 345.4656,1254.2031 Q345.7313,1253.9375 345.8797,1253.8594 Q346.0281,1253.7813 346.2313,1253.7813 Q346.5594,1253.7813 346.8172,1254.0391 Q347.075,1254.2969 347.075,1254.6406 Q347.075,1254.9844 346.7313,1255.3906 Q346.2313,1255.9688 345.4344,1256.2969 Q344.3563,1256.75 343.0594,1256.75 Q341.5438,1256.75 340.3406,1256.125 Q339.3563,1255.625 338.6688,1254.5547 Q337.9813,1253.4844 337.9813,1252.2031 L337.9813,1251.0469 Q337.9813,1249.7188 338.5984,1248.5703 Q339.2156,1247.4219 340.3094,1246.8047 Q341.4031,1246.1875 342.6375,1246.1875 Q343.3719,1246.1875 344.0203,1246.3516 Q344.6688,1246.5156 345.2156,1246.875 Z "/><text fill="#000000" font-family="sans-serif" font-size="12" lengthAdjust="spacingAndGlyphs" textLength="59" x="361.55" y="1255.9102">Freelancer</text><line style="stroke: #A80036; stroke-width: 1.5;" x1="305.5" x2="445.5" y1="1267" y2="1267"/><rect fill="none" height="6" style="stroke: #C82930; stroke-width: 1.0;" width="6" x="312.5" y="1276.418"/><text fill="#000000" font-family="sans-serif" font-size="11" lengthAdjust="spacingAndGlyphs" textLength="39" x="324.5" y="1282.4189">String id</text><rect fill="none" height="6" style="stroke: #C82930; stroke-width: 1.0;" width="6" x="312.5" y="1290.2539"/><text fill="#000000" font-family="sans-serif" font-size="11" lengthAdjust="spacingAndGlyphs" textLength="57" x="324.5" y="1296.2549">String name</text><rect fill="none" height="6" style="stroke: #C82930; stroke-width: 1.0;" width="6" x="312.5" y="1304.0898"/><text fill="#000000" font-family="sans-serif" font-size="11" lengthAdjust="spacingAndGlyphs" textLength="55" x="324.5" y="1310.0908">String email</text><rect fill="none" height="6" style="stroke: #C82930; stroke-width: 1.0;" width="6" x="312.5" y="1317.9258"/><text fill="#000000" font-family="sans-serif" font-size="11" lengthAdjust="spacingAndGlyphs" textLength="51" x="324.5" y="1323.9268">Integer NIF</text><rect fill="none" height="6" style="stroke: #C82930; stroke-width: 1.0;" width="6" x="312.5" y="1331.7617"/><text fill="#000000" font-family="sans-serif" font-size="11" lengthAdjust="spacingAndGlyphs" textLength="55" x="324.5" y="1337.7627">String IBAN</text><rect fill="none" height="6" style="stroke: #C82930; stroke-width: 1.0;" width="6" x="312.5" y="1345.5977"/><text fill="#000000" font-family="sans-serif" font-size="11" lengthAdjust="spacingAndGlyphs" textLength="116" x="324.5" y="1351.5986">double OverallPayments</text><line style="stroke: #A80036; stroke-width: 1.5;" x1="305.5" x2="445.5" y1="1358.0156" y2="1358.0156"/><ellipse cx="315.5" cy="1370.4336" fill="#84BE84" rx="3" ry="3" style="stroke: #038048; stroke-width: 1.0;"/><text fill="#000000" font-family="sans-serif" font-size="11" lengthAdjust="spacingAndGlyphs" textLength="47" x="324.5" y="1373.4346">getEmail()</text><ellipse cx="315.5" cy="1384.2695" fill="#84BE84" rx="3" ry="3" style="stroke: #038048; stroke-width: 1.0;"/><text fill="#000000" font-family="sans-serif" font-size="11" lengthAdjust="spacingAndGlyphs" textLength="31" x="324.5" y="1387.2705">getId()</text><!--link TimerTask to SendEmailAutomaticallyTask--><path d="M378.5,104.23 C378.5,117.63 378.5,131.81 378.5,144.89 " fill="none" id="TimerTask-SendEmailAutomaticallyTask" style="stroke: #A80036; stroke-width: 1.0;"/><polygon fill="none" points="371.5,104.09,378.5,84.09,385.5,104.09,371.5,104.09" style="stroke: #A80036; stroke-width: 1.0;"/><!--link SendEmailAutomaticallyTask to Platform--><path d="M378.5,248.21 C378.5,265.62 378.5,285.34 378.5,303.61 " fill="none" id="SendEmailAutomaticallyTask-Platform" style="stroke: #A80036; stroke-width: 1.0; stroke-dasharray: 7.0,7.0;"/><polygon fill="#A80036" points="378.5,308.72,382.5,299.72,378.5,303.72,374.5,299.72,378.5,308.72" style="stroke: #A80036; stroke-width: 1.0;"/><!--link SendEmailAutomaticallyTask to Date--><path d="M325.334,248.18 C305.93,267.02 283.977,288.75 264.5,309 C193.604,382.73 113.972,472.61 72.0266,520.55 " fill="none" id="SendEmailAutomaticallyTask-Date" style="stroke: #A80036; stroke-width: 1.0; stroke-dasharray: 7.0,7.0;"/><polygon fill="#A80036" points="68.5794,524.49,77.5204,520.3599,71.8757,520.7305,71.5052,515.0858,68.5794,524.49" style="stroke: #A80036; stroke-width: 1.0;"/><!--link SendEmailAutomaticallyTask to Calendar--><path d="M436.981,248.05 C455.802,266.09 475.823,287.35 491.5,309 C535.032,369.13 570.805,447.12 592.115,498.88 " fill="none" id="SendEmailAutomaticallyTask-Calendar" style="stroke: #A80036; stroke-width: 1.0; stroke-dasharray: 7.0,7.0;"/><polygon fill="#A80036" points="594.132,503.81,594.4136,493.9652,592.2328,499.1847,587.0132,497.0039,594.132,503.81" style="stroke: #A80036; stroke-width: 1.0;"/><!--link Platform to Date--><path d="M282.18,406.11 C225.763,430.21 154.445,464.36 96.5,504 C89.17,509.01 81.8578,515.01 75.0891,521.08 " fill="none" id="Platform-Date" style="stroke: #A80036; stroke-width: 1.0; stroke-dasharray: 7.0,7.0;"/><polygon fill="#A80036" points="71.388,524.46,80.7288,521.3377,75.0776,521.0856,75.3298,515.4343,71.388,524.46" style="stroke: #A80036; stroke-width: 1.0;"/><!--link Platform to Calendar--><path d="M454.161,426.09 C467.004,436 480.169,446.25 492.5,456 C510.576,470.29 530,485.96 547.879,500.51 " fill="none" id="Platform-Calendar" style="stroke: #A80036; stroke-width: 1.0; stroke-dasharray: 7.0,7.0;"/><polygon fill="#A80036" points="551.908,503.79,547.4631,495.0012,548.0338,500.6292,542.4058,501.1999,551.908,503.79" style="stroke: #A80036; stroke-width: 1.0;"/><!--link Platform to ExternalEmailSenderAlgorithm--><path d="M398.735,426.26 C402.077,436.16 405.445,446.35 408.5,456 C452.055,593.52 498.328,758.94 517.887,829.892 " fill="none" id="Platform-ExternalEmailSenderAlgorithm" style="stroke: #A80036; stroke-width: 1.0;"/><polygon fill="#A80036" points="519.249,834.835,520.7163,825.0961,517.9217,830.0144,513.0034,827.2198,519.249,834.835" style="stroke: #A80036; stroke-width: 1.0;"/><text fill="#000000" font-family="sans-serif" font-size="13" lengthAdjust="spacingAndGlyphs" textLength="48" x="454.5" y="560.9951">resort to</text><text fill="#000000" font-family="sans-serif" font-size="13" lengthAdjust="spacingAndGlyphs" textLength="7" x="393.67" y="447.4842">1</text><text fill="#000000" font-family="sans-serif" font-size="13" lengthAdjust="spacingAndGlyphs" textLength="7" x="509.8254" y="824.3055">1</text><!--link Platform to OrganizationsRegister--><path d="M329.28,426.08 C309.192,449.58 286.071,476.62 266.244,499.82 " fill="none" id="Platform-OrganizationsRegister" style="stroke: #A80036; stroke-width: 1.0;"/><polygon fill="#A80036" points="262.837,503.8,271.7219,499.5506,266.0827,499.9967,265.6366,494.3574,262.837,503.8" style="stroke: #A80036; stroke-width: 1.0;"/><text fill="#000000" font-family="sans-serif" font-size="13" lengthAdjust="spacingAndGlyphs" textLength="21" x="300.5" y="470.4951">has</text><text fill="#000000" font-family="sans-serif" font-size="13" lengthAdjust="spacingAndGlyphs" textLength="7" x="315.8547" y="447.7">1</text><text fill="#000000" font-family="sans-serif" font-size="13" lengthAdjust="spacingAndGlyphs" textLength="7" x="261.1901" y="493.2735">1</text><!--link OrganizationsRegister to Organization--><path d="M207.822,607.38 C206.023,617.16 204.449,627.36 203.5,637 C200.801,664.42 200.864,671.57 203.5,699 C204.279,707.11 205.577,715.69 207.059,723.91 " fill="none" id="OrganizationsRegister-Organization" style="stroke: #A80036; stroke-width: 1.0;"/><polygon fill="#A80036" points="208.003,728.97,210.2898,719.3903,207.0887,724.0543,202.4247,720.8532,208.003,728.97" style="stroke: #A80036; stroke-width: 1.0;"/><text fill="#000000" font-family="sans-serif" font-size="13" lengthAdjust="spacingAndGlyphs" textLength="82" x="204.5" y="673.4951">has registered</text><text fill="#000000" font-family="sans-serif" font-size="13" lengthAdjust="spacingAndGlyphs" textLength="7" x="198.7825" y="628.922">1</text><text fill="#000000" font-family="sans-serif" font-size="13" lengthAdjust="spacingAndGlyphs" textLength="5" x="200.9754" y="718.041">*</text><!--link Platform to FreelancerRegister--><path d="M377.729,426.05 C376.912,486.98 375.65,581.2 374.971,631.88 " fill="none" id="Platform-FreelancerRegister" style="stroke: #A80036; stroke-width: 1.0;"/><polygon fill="#A80036" points="374.903,636.94,379.0312,627.9981,374.9744,631.9405,371.032,627.8838,374.903,636.94" style="stroke: #A80036; stroke-width: 1.0;"/><text fill="#000000" font-family="sans-serif" font-size="13" lengthAdjust="spacingAndGlyphs" textLength="21" x="378.5" y="470.4951">has</text><text fill="#000000" font-family="sans-serif" font-size="13" lengthAdjust="spacingAndGlyphs" textLength="7" x="370.2085" y="447.6664">1</text><text fill="#000000" font-family="sans-serif" font-size="13" lengthAdjust="spacingAndGlyphs" textLength="7" x="367.2255" y="625.9471">1</text><!--link Organization to PaymentTransactionList--><path d="M216.5,805.34 C216.5,839.141 216.5,888.568 216.5,921.716 " fill="none" id="Organization-PaymentTransactionList" style="stroke: #A80036; stroke-width: 1.0;"/><polygon fill="#A80036" points="216.5,926.891,220.5,917.891,216.5,921.891,212.5,917.891,216.5,926.891" style="stroke: #A80036; stroke-width: 1.0;"/><text fill="#000000" font-family="sans-serif" font-size="13" lengthAdjust="spacingAndGlyphs" textLength="21" x="217.5" y="871.4951">has</text><text fill="#000000" font-family="sans-serif" font-size="13" lengthAdjust="spacingAndGlyphs" textLength="7" x="208.9422" y="826.2747">1</text><text fill="#000000" font-family="sans-serif" font-size="13" lengthAdjust="spacingAndGlyphs" textLength="7" x="208.7781" y="916.3731">1</text><!--link Freelancer to Task--><path d="M337.475,1394.039 C325.93,1417.883 313.334,1443.899 302.102,1467.097 " fill="none" id="Freelancer-Task" style="stroke: #A80036; stroke-width: 1.0;"/><polygon fill="#A80036" points="299.875,1471.698,307.397,1465.3404,302.0537,1467.1977,300.1965,1461.8544,299.875,1471.698" style="stroke: #A80036; stroke-width: 1.0;"/><text fill="#000000" font-family="sans-serif" font-size="13" lengthAdjust="spacingAndGlyphs" textLength="28" x="323.5" y="1438.4951">does</text><text fill="#000000" font-family="sans-serif" font-size="13" lengthAdjust="spacingAndGlyphs" textLength="7" x="326.9064" y="1415.0855">1</text><text fill="#000000" font-family="sans-serif" font-size="13" lengthAdjust="spacingAndGlyphs" textLength="5" x="298.0332" y="1461.1394">*</text><!--link PaymentTransaction to Freelancer--><path d="M251.393,1157.001 C268.574,1178.666 289.865,1205.513 309.933,1230.819 " fill="none" id="PaymentTransaction-Freelancer" style="stroke: #A80036; stroke-width: 1.0;"/><polygon fill="#A80036" points="313.142,1234.866,310.6828,1225.3291,310.0348,1230.9487,304.4151,1230.3007,313.142,1234.866" style="stroke: #A80036; stroke-width: 1.0;"/><text fill="#000000" font-family="sans-serif" font-size="13" lengthAdjust="spacingAndGlyphs" textLength="54" x="287.5" y="1201.4951">related to</text><text fill="#000000" font-family="sans-serif" font-size="13" lengthAdjust="spacingAndGlyphs" textLength="7" x="248.8076" y="1178.0087">1</text><text fill="#000000" font-family="sans-serif" font-size="13" lengthAdjust="spacingAndGlyphs" textLength="7" x="299.8649" y="1224.0401">1</text><!--link PaymentTransaction to Task--><path d="M215.838,1157.098 C215.658,1212.681 217.514,1310.996 230.5,1394 C234.269,1418.089 240.492,1443.974 246.821,1466.986 " fill="none" id="PaymentTransaction-Task" style="stroke: #A80036; stroke-width: 1.0;"/><polygon fill="#A80036" points="248.173,1471.851,249.6174,1462.1086,246.8343,1467.0335,241.9094,1464.2505,248.173,1471.851" style="stroke: #A80036; stroke-width: 1.0;"/><text fill="#000000" font-family="sans-serif" font-size="13" lengthAdjust="spacingAndGlyphs" textLength="54" x="231.5" y="1319.9951">related to</text><text fill="#000000" font-family="sans-serif" font-size="13" lengthAdjust="spacingAndGlyphs" textLength="7" x="208.2527" y="1178.1193">1</text><text fill="#000000" font-family="sans-serif" font-size="13" lengthAdjust="spacingAndGlyphs" textLength="7" x="238.5669" y="1461.3091">1</text><!--link FreelancerRegister to Freelancer--><path d="M373.751,699.22 C372.862,737.71 371.5,806.295 371.5,865 C371.5,865 371.5,865 371.5,1113 C371.5,1151.327 372.24,1193.768 373.083,1229.697 " fill="none" id="FreelancerRegister-Freelancer" style="stroke: #A80036; stroke-width: 1.0;"/><polygon fill="#A80036" points="373.208,1234.949,376.9934,1225.8567,373.0894,1229.9504,368.9957,1226.0464,373.208,1234.949" style="stroke: #A80036; stroke-width: 1.0;"/><text fill="#000000" font-family="sans-serif" font-size="13" lengthAdjust="spacingAndGlyphs" textLength="21" x="372.5" y="963.4951">has</text><text fill="#000000" font-family="sans-serif" font-size="13" lengthAdjust="spacingAndGlyphs" textLength="7" x="365.941" y="720.2406">1</text><text fill="#000000" font-family="sans-serif" font-size="13" lengthAdjust="spacingAndGlyphs" textLength="5" x="367.7513" y="1224.1311">*</text><!--link PaymentTransactionList to PaymentTransaction--><path d="M216.5,989.03 C216.5,1009.789 216.5,1037.877 216.5,1061.866 " fill="none" id="PaymentTransactionList-PaymentTransaction" style="stroke: #A80036; stroke-width: 1.0;"/><polygon fill="#A80036" points="216.5,1066.919,220.5,1057.919,216.5,1061.919,212.5,1057.919,216.5,1066.919" style="stroke: #A80036; stroke-width: 1.0;"/><text fill="#000000" font-family="sans-serif" font-size="13" lengthAdjust="spacingAndGlyphs" textLength="21" x="217.5" y="1033.4951">has</text><text fill="#000000" font-family="sans-serif" font-size="13" lengthAdjust="spacingAndGlyphs" textLength="7" x="208.8109" y="1010.2599">1</text><text fill="#000000" font-family="sans-serif" font-size="13" lengthAdjust="spacingAndGlyphs" textLength="5" x="211.1016" y="1056.0216">*</text><!--link ExternalEmailSenderAlgorithm to Freelancer--><path d="M517.172,897.339 C494.217,964.77 438.282,1129.077 403.961,1229.895 " fill="none" id="ExternalEmailSenderAlgorithm-Freelancer" style="stroke: #A80036; stroke-width: 1.0;"/><polygon fill="#A80036" points="402.343,1234.647,409.0303,1227.4165,403.9545,1229.9138,401.4572,1224.8381,402.343,1234.647" style="stroke: #A80036; stroke-width: 1.0;"/><text fill="#000000" font-family="sans-serif" font-size="13" lengthAdjust="spacingAndGlyphs" textLength="70" x="475.5" y="1033.4951">sends email</text><text fill="#000000" font-family="sans-serif" font-size="13" lengthAdjust="spacingAndGlyphs" textLength="7" x="507.536" y="918.3823">1</text><text fill="#000000" font-family="sans-serif" font-size="13" lengthAdjust="spacingAndGlyphs" textLength="5" x="399.5871" y="1224.0738">*</text><!--link Task to TaskExecution--><path d="M268.5,1603.158 C268.5,1626.394 268.5,1652.553 268.5,1675.634 " fill="none" id="Task-TaskExecution" style="stroke: #A80036; stroke-width: 1.0;"/><polygon fill="#A80036" points="268.5,1680.816,272.5,1671.816,268.5,1675.816,264.5,1671.816,268.5,1680.816" style="stroke: #A80036; stroke-width: 1.0;"/><text fill="#000000" font-family="sans-serif" font-size="13" lengthAdjust="spacingAndGlyphs" textLength="21" x="269.5" y="1647.4951">has</text><text fill="#000000" font-family="sans-serif" font-size="13" lengthAdjust="spacingAndGlyphs" textLength="7" x="261.1172" y="1624.7278">1</text><text fill="#000000" font-family="sans-serif" font-size="13" lengthAdjust="spacingAndGlyphs" textLength="22" x="245.1594" y="1670.1945">0..1</text><!--
@startuml

abstract class TimerTask {
  +run()
  +schedule(task,d)
}

class SendEmailAutomaticallyTask {
  +run()
  +getFreelancerToSendEmailTo()
  +reschedule()
  +SendEmailAutomaticallyTask(timer, cal)
}

class Platform {
  -String designation

  +scheduleTimer()
  +getOrganizationsRegister()
  +getFreelancersRegister()
  +getExternalEmailSenderAlgorithm()
}

class Organization {
  -String designation

  +getPaymentTransactionList()
}

class OrganizationsRegister{
  +getOrganizationsList()
  +calculateOverallPercentageOfDelays()
  +getMean(id)
  +getPercentage(id)
}


class PaymentTransaction {
  -String id

  +getFreelancer()
  +getTask()
}

class Date{
  +getYear()
}

class Calendar{
  +get(Calendar.YEAR)
  +getInstance()
  +getTime()
  +setTime(date)
}

class PaymentTransactionList{
  +getPaymentTransactions()
}


class Task {
  -String id
  -String briefDescription
  -Double timeDuration
  -Double costPerHour
  -String category

  +getTaskExecution()
}

class TaskExecution {
  -Date deadline
  -Double delay
  -String descQualityWork

  +getDelay()
  +getDate()
}


class FreelancerRegister {
  +getFreelancers()
}

interface ExternalEmailSenderAlgorithm {
  +sendEmail( EmailSender, email, Subject, Message)
}


class Freelancer {
    -String id
    -String name
    -String email
    -Integer NIF
    -String IBAN
    -double OverallPayments

    +getEmail()
    +getId()
}



TimerTask <|- - SendEmailAutomaticallyTask

SendEmailAutomaticallyTask ..> Platform
SendEmailAutomaticallyTask ..> Date
SendEmailAutomaticallyTask ..> Calendar
Platform ..> Date
Platform ..> Calendar

Platform "1" - -> "1" ExternalEmailSenderAlgorithm: resort to
Platform "1" - -> "1" OrganizationsRegister: has
OrganizationsRegister "1" - -> "*" Organization: has registered
Platform "1" - -> "1" FreelancerRegister : has


Organization "1" - -> "1" PaymentTransactionList: has

Freelancer "1" - -> "*" Task: does
PaymentTransaction "1" - -> "1" Freelancer: related to
PaymentTransaction "1" - -> "1" Task: related to

FreelancerRegister "1" - -> "*" Freelancer: has
PaymentTransactionList "1" - -> "*" PaymentTransaction: has

ExternalEmailSenderAlgorithm "1" - -> "*" Freelancer: sends email

Task "1" - -> "0..1" TaskExecution : has
@enduml

PlantUML version 1.2018.14(Fri Dec 21 16:33:16 GMT 2018)
(GPL source distribution)
Java Runtime: Java(TM) SE Runtime Environment
JVM: Java HotSpot(TM) 64-Bit Server VM
Java Version: 1.8.0_221-b11
Operating System: Windows 10
OS Version: 10.0
Default Encoding: Cp1252
Language: pt
Country: PT
--></g></svg>