<?xml version="1.0" encoding="UTF-8" standalone="no"?><svg xmlns="http://www.w3.org/2000/svg" xmlns:xlink="http://www.w3.org/1999/xlink" contentScriptType="application/ecmascript" contentStyleType="text/css" height="283px" preserveAspectRatio="none" style="width:1512px;height:283px;" version="1.1" viewBox="0 0 1512 283" width="1512px" zoomAndPan="magnify"><defs><filter height="300%" id="f1o2obpwmaow7l" width="300%" x="-1" y="-1"><feGaussianBlur result="blurOut" stdDeviation="2.0"/><feColorMatrix in="blurOut" result="blurOut2" type="matrix" values="0 0 0 0 0 0 0 0 0 0 0 0 0 0 0 0 0 0 .4 0"/><feOffset dx="4.0" dy="4.0" in="blurOut2" result="blurOut3"/><feBlend in="SourceGraphic" in2="blurOut3" mode="normal"/></filter></defs><g><!--class Platform--><rect fill="#FEFECE" filter="url(#f1o2obpwmaow7l)" height="53.8359" id="Platform" style="stroke: #A80036; stroke-width: 1.5;" width="112" x="6" y="150.5"/><ellipse cx="36.3" cy="166.5" fill="#ADD1B2" rx="11" ry="11" style="stroke: #A80036; stroke-width: 1.0;"/><path d="M39.0656,162.375 Q39.2219,162.1563 39.4094,162.0469 Q39.5969,161.9375 39.8156,161.9375 Q40.1906,161.9375 40.425,162.1953 Q40.6594,162.4531 40.6594,163.0625 L40.6594,164.5156 Q40.6594,165.125 40.425,165.3906 Q40.1906,165.6563 39.8156,165.6563 Q39.4719,165.6563 39.2688,165.4531 Q39.0656,165.2656 38.9563,164.75 Q38.9094,164.3906 38.7219,164.2031 Q38.3938,163.8281 37.7844,163.6094 Q37.175,163.3906 36.55,163.3906 Q35.7844,163.3906 35.1516,163.7188 Q34.5188,164.0469 34.0266,164.7969 Q33.5344,165.5469 33.5344,166.5781 L33.5344,167.6719 Q33.5344,168.9063 34.425,169.7266 Q35.3156,170.5469 36.9094,170.5469 Q37.8469,170.5469 38.5031,170.2969 Q38.8938,170.1406 39.3156,169.7031 Q39.5813,169.4375 39.7297,169.3594 Q39.8781,169.2813 40.0813,169.2813 Q40.4094,169.2813 40.6672,169.5391 Q40.925,169.7969 40.925,170.1406 Q40.925,170.4844 40.5813,170.8906 Q40.0813,171.4688 39.2844,171.7969 Q38.2063,172.25 36.9094,172.25 Q35.3938,172.25 34.1906,171.625 Q33.2063,171.125 32.5188,170.0547 Q31.8313,168.9844 31.8313,167.7031 L31.8313,166.5469 Q31.8313,165.2188 32.4484,164.0703 Q33.0656,162.9219 34.1594,162.3047 Q35.2531,161.6875 36.4875,161.6875 Q37.2219,161.6875 37.8703,161.8516 Q38.5188,162.0156 39.0656,162.375 Z "/><text fill="#000000" font-family="sans-serif" font-size="12" lengthAdjust="spacingAndGlyphs" textLength="46" x="53.7" y="171.4102">Platform</text><line style="stroke: #A80036; stroke-width: 1.5;" x1="7" x2="117" y1="182.5" y2="182.5"/><rect fill="none" height="6" style="stroke: #C82930; stroke-width: 1.0;" width="6" x="14" y="191.918"/><text fill="#000000" font-family="sans-serif" font-size="11" lengthAdjust="spacingAndGlyphs" textLength="86" x="26" y="197.9189">String designation</text><!--class Freelancer--><rect fill="#FEFECE" filter="url(#f1o2obpwmaow7l)" height="123.0156" id="Freelancer" style="stroke: #A80036; stroke-width: 1.5;" width="142" x="888" y="149"/><ellipse cx="925.95" cy="165" fill="#ADD1B2" rx="11" ry="11" style="stroke: #A80036; stroke-width: 1.0;"/><path d="M928.7156,160.875 Q928.8719,160.6563 929.0594,160.5469 Q929.2469,160.4375 929.4656,160.4375 Q929.8406,160.4375 930.075,160.6953 Q930.3094,160.9531 930.3094,161.5625 L930.3094,163.0156 Q930.3094,163.625 930.075,163.8906 Q929.8406,164.1563 929.4656,164.1563 Q929.1219,164.1563 928.9188,163.9531 Q928.7156,163.7656 928.6063,163.25 Q928.5594,162.8906 928.3719,162.7031 Q928.0438,162.3281 927.4344,162.1094 Q926.825,161.8906 926.2,161.8906 Q925.4344,161.8906 924.8016,162.2188 Q924.1688,162.5469 923.6766,163.2969 Q923.1844,164.0469 923.1844,165.0781 L923.1844,166.1719 Q923.1844,167.4063 924.075,168.2266 Q924.9656,169.0469 926.5594,169.0469 Q927.4969,169.0469 928.1531,168.7969 Q928.5438,168.6406 928.9656,168.2031 Q929.2313,167.9375 929.3797,167.8594 Q929.5281,167.7813 929.7313,167.7813 Q930.0594,167.7813 930.3172,168.0391 Q930.575,168.2969 930.575,168.6406 Q930.575,168.9844 930.2313,169.3906 Q929.7313,169.9688 928.9344,170.2969 Q927.8563,170.75 926.5594,170.75 Q925.0438,170.75 923.8406,170.125 Q922.8563,169.625 922.1688,168.5547 Q921.4813,167.4844 921.4813,166.2031 L921.4813,165.0469 Q921.4813,163.7188 922.0984,162.5703 Q922.7156,161.4219 923.8094,160.8047 Q924.9031,160.1875 926.1375,160.1875 Q926.8719,160.1875 927.5203,160.3516 Q928.1688,160.5156 928.7156,160.875 Z "/><text fill="#000000" font-family="sans-serif" font-size="12" lengthAdjust="spacingAndGlyphs" textLength="59" x="945.05" y="169.9102">Freelancer</text><line style="stroke: #A80036; stroke-width: 1.5;" x1="889" x2="1029" y1="181" y2="181"/><rect fill="none" height="6" style="stroke: #C82930; stroke-width: 1.0;" width="6" x="896" y="190.418"/><text fill="#000000" font-family="sans-serif" font-size="11" lengthAdjust="spacingAndGlyphs" textLength="39" x="908" y="196.4189">String id</text><rect fill="none" height="6" style="stroke: #C82930; stroke-width: 1.0;" width="6" x="896" y="204.2539"/><text fill="#000000" font-family="sans-serif" font-size="11" lengthAdjust="spacingAndGlyphs" textLength="57" x="908" y="210.2549">String name</text><rect fill="none" height="6" style="stroke: #C82930; stroke-width: 1.0;" width="6" x="896" y="218.0898"/><text fill="#000000" font-family="sans-serif" font-size="11" lengthAdjust="spacingAndGlyphs" textLength="55" x="908" y="224.0908">String email</text><rect fill="none" height="6" style="stroke: #C82930; stroke-width: 1.0;" width="6" x="896" y="231.9258"/><text fill="#000000" font-family="sans-serif" font-size="11" lengthAdjust="spacingAndGlyphs" textLength="51" x="908" y="237.9268">Integer NIF</text><rect fill="none" height="6" style="stroke: #C82930; stroke-width: 1.0;" width="6" x="896" y="245.7617"/><text fill="#000000" font-family="sans-serif" font-size="11" lengthAdjust="spacingAndGlyphs" textLength="55" x="908" y="251.7627">String IBAN</text><rect fill="none" height="6" style="stroke: #C82930; stroke-width: 1.0;" width="6" x="896" y="259.5977"/><text fill="#000000" font-family="sans-serif" font-size="11" lengthAdjust="spacingAndGlyphs" textLength="116" x="908" y="265.5986">double OverallPayments</text><!--class Organization--><rect fill="#FEFECE" filter="url(#f1o2obpwmaow7l)" height="53.8359" id="Organization" style="stroke: #A80036; stroke-width: 1.5;" width="112" x="275" y="65.5"/><ellipse cx="294.95" cy="81.5" fill="#ADD1B2" rx="11" ry="11" style="stroke: #A80036; stroke-width: 1.0;"/><path d="M297.7156,77.375 Q297.8719,77.1563 298.0594,77.0469 Q298.2469,76.9375 298.4656,76.9375 Q298.8406,76.9375 299.075,77.1953 Q299.3094,77.4531 299.3094,78.0625 L299.3094,79.5156 Q299.3094,80.125 299.075,80.3906 Q298.8406,80.6563 298.4656,80.6563 Q298.1219,80.6563 297.9188,80.4531 Q297.7156,80.2656 297.6063,79.75 Q297.5594,79.3906 297.3719,79.2031 Q297.0438,78.8281 296.4344,78.6094 Q295.825,78.3906 295.2,78.3906 Q294.4344,78.3906 293.8016,78.7188 Q293.1688,79.0469 292.6766,79.7969 Q292.1844,80.5469 292.1844,81.5781 L292.1844,82.6719 Q292.1844,83.9063 293.075,84.7266 Q293.9656,85.5469 295.5594,85.5469 Q296.4969,85.5469 297.1531,85.2969 Q297.5438,85.1406 297.9656,84.7031 Q298.2313,84.4375 298.3797,84.3594 Q298.5281,84.2813 298.7313,84.2813 Q299.0594,84.2813 299.3172,84.5391 Q299.575,84.7969 299.575,85.1406 Q299.575,85.4844 299.2313,85.8906 Q298.7313,86.4688 297.9344,86.7969 Q296.8563,87.25 295.5594,87.25 Q294.0438,87.25 292.8406,86.625 Q291.8563,86.125 291.1688,85.0547 Q290.4813,83.9844 290.4813,82.7031 L290.4813,81.5469 Q290.4813,80.2188 291.0984,79.0703 Q291.7156,77.9219 292.8094,77.3047 Q293.9031,76.6875 295.1375,76.6875 Q295.8719,76.6875 296.5203,76.8516 Q297.1688,77.0156 297.7156,77.375 Z "/><text fill="#000000" font-family="sans-serif" font-size="12" lengthAdjust="spacingAndGlyphs" textLength="69" x="310.05" y="86.4102">Organization</text><line style="stroke: #A80036; stroke-width: 1.5;" x1="276" x2="386" y1="97.5" y2="97.5"/><rect fill="none" height="6" style="stroke: #C82930; stroke-width: 1.0;" width="6" x="283" y="106.918"/><text fill="#000000" font-family="sans-serif" font-size="11" lengthAdjust="spacingAndGlyphs" textLength="86" x="295" y="112.9189">String designation</text><!--class ExternalEmailSenderAlgorithm--><rect fill="#FEFECE" filter="url(#f1o2obpwmaow7l)" height="40" id="ExternalEmailSenderAlgorithm" style="stroke: #A80036; stroke-width: 1.5;" width="200" x="417" y="228.5"/><ellipse cx="432" cy="244.5" fill="#ADD1B2" rx="11" ry="11" style="stroke: #A80036; stroke-width: 1.0;"/><path d="M434.7656,240.375 Q434.9219,240.1563 435.1094,240.0469 Q435.2969,239.9375 435.5156,239.9375 Q435.8906,239.9375 436.125,240.1953 Q436.3594,240.4531 436.3594,241.0625 L436.3594,242.5156 Q436.3594,243.125 436.125,243.3906 Q435.8906,243.6563 435.5156,243.6563 Q435.1719,243.6563 434.9688,243.4531 Q434.7656,243.2656 434.6563,242.75 Q434.6094,242.3906 434.4219,242.2031 Q434.0938,241.8281 433.4844,241.6094 Q432.875,241.3906 432.25,241.3906 Q431.4844,241.3906 430.8516,241.7188 Q430.2188,242.0469 429.7266,242.7969 Q429.2344,243.5469 429.2344,244.5781 L429.2344,245.6719 Q429.2344,246.9063 430.125,247.7266 Q431.0156,248.5469 432.6094,248.5469 Q433.5469,248.5469 434.2031,248.2969 Q434.5938,248.1406 435.0156,247.7031 Q435.2813,247.4375 435.4297,247.3594 Q435.5781,247.2813 435.7813,247.2813 Q436.1094,247.2813 436.3672,247.5391 Q436.625,247.7969 436.625,248.1406 Q436.625,248.4844 436.2813,248.8906 Q435.7813,249.4688 434.9844,249.7969 Q433.9063,250.25 432.6094,250.25 Q431.0938,250.25 429.8906,249.625 Q428.9063,249.125 428.2188,248.0547 Q427.5313,246.9844 427.5313,245.7031 L427.5313,244.5469 Q427.5313,243.2188 428.1484,242.0703 Q428.7656,240.9219 429.8594,240.3047 Q430.9531,239.6875 432.1875,239.6875 Q432.9219,239.6875 433.5703,239.8516 Q434.2188,240.0156 434.7656,240.375 Z "/><text fill="#000000" font-family="sans-serif" font-size="12" lengthAdjust="spacingAndGlyphs" textLength="168" x="446" y="249.4102">ExternalEmailSenderAlgorithm</text><line style="stroke: #A80036; stroke-width: 1.5;" x1="418" x2="616" y1="260.5" y2="260.5"/><!--class Task--><rect fill="#FEFECE" filter="url(#f1o2obpwmaow7l)" height="109.1797" id="Task" style="stroke: #A80036; stroke-width: 1.5;" width="133" x="1133" y="24"/><ellipse cx="1181.75" cy="40" fill="#ADD1B2" rx="11" ry="11" style="stroke: #A80036; stroke-width: 1.0;"/><path d="M1184.5156,35.875 Q1184.6719,35.6563 1184.8594,35.5469 Q1185.0469,35.4375 1185.2656,35.4375 Q1185.6406,35.4375 1185.875,35.6953 Q1186.1094,35.9531 1186.1094,36.5625 L1186.1094,38.0156 Q1186.1094,38.625 1185.875,38.8906 Q1185.6406,39.1563 1185.2656,39.1563 Q1184.9219,39.1563 1184.7188,38.9531 Q1184.5156,38.7656 1184.4063,38.25 Q1184.3594,37.8906 1184.1719,37.7031 Q1183.8438,37.3281 1183.2344,37.1094 Q1182.625,36.8906 1182,36.8906 Q1181.2344,36.8906 1180.6016,37.2188 Q1179.9688,37.5469 1179.4766,38.2969 Q1178.9844,39.0469 1178.9844,40.0781 L1178.9844,41.1719 Q1178.9844,42.4063 1179.875,43.2266 Q1180.7656,44.0469 1182.3594,44.0469 Q1183.2969,44.0469 1183.9531,43.7969 Q1184.3438,43.6406 1184.7656,43.2031 Q1185.0313,42.9375 1185.1797,42.8594 Q1185.3281,42.7813 1185.5313,42.7813 Q1185.8594,42.7813 1186.1172,43.0391 Q1186.375,43.2969 1186.375,43.6406 Q1186.375,43.9844 1186.0313,44.3906 Q1185.5313,44.9688 1184.7344,45.2969 Q1183.6563,45.75 1182.3594,45.75 Q1180.8438,45.75 1179.6406,45.125 Q1178.6563,44.625 1177.9688,43.5547 Q1177.2813,42.4844 1177.2813,41.2031 L1177.2813,40.0469 Q1177.2813,38.7188 1177.8984,37.5703 Q1178.5156,36.4219 1179.6094,35.8047 Q1180.7031,35.1875 1181.9375,35.1875 Q1182.6719,35.1875 1183.3203,35.3516 Q1183.9688,35.5156 1184.5156,35.875 Z "/><text fill="#000000" font-family="sans-serif" font-size="12" lengthAdjust="spacingAndGlyphs" textLength="27" x="1202.25" y="44.9102">Task</text><line style="stroke: #A80036; stroke-width: 1.5;" x1="1134" x2="1265" y1="56" y2="56"/><rect fill="none" height="6" style="stroke: #C82930; stroke-width: 1.0;" width="6" x="1141" y="65.418"/><text fill="#000000" font-family="sans-serif" font-size="11" lengthAdjust="spacingAndGlyphs" textLength="39" x="1153" y="71.4189">String id</text><rect fill="none" height="6" style="stroke: #C82930; stroke-width: 1.0;" width="6" x="1141" y="79.2539"/><text fill="#000000" font-family="sans-serif" font-size="11" lengthAdjust="spacingAndGlyphs" textLength="107" x="1153" y="85.2549">String briefDescription</text><rect fill="none" height="6" style="stroke: #C82930; stroke-width: 1.0;" width="6" x="1141" y="93.0898"/><text fill="#000000" font-family="sans-serif" font-size="11" lengthAdjust="spacingAndGlyphs" textLength="95" x="1153" y="99.0908">Double timeDuration</text><rect fill="none" height="6" style="stroke: #C82930; stroke-width: 1.0;" width="6" x="1141" y="106.9258"/><text fill="#000000" font-family="sans-serif" font-size="11" lengthAdjust="spacingAndGlyphs" textLength="96" x="1153" y="112.9268">Double costPerHour</text><rect fill="none" height="6" style="stroke: #C82930; stroke-width: 1.0;" width="6" x="1141" y="120.7617"/><text fill="#000000" font-family="sans-serif" font-size="11" lengthAdjust="spacingAndGlyphs" textLength="74" x="1153" y="126.7627">String category</text><!--class PaymentTransaction--><rect fill="#FEFECE" filter="url(#f1o2obpwmaow7l)" height="53.8359" id="PaymentTransaction" style="stroke: #A80036; stroke-width: 1.5;" width="145" x="647" y="65.5"/><ellipse cx="662" cy="81.5" fill="#ADD1B2" rx="11" ry="11" style="stroke: #A80036; stroke-width: 1.0;"/><path d="M664.7656,77.375 Q664.9219,77.1563 665.1094,77.0469 Q665.2969,76.9375 665.5156,76.9375 Q665.8906,76.9375 666.125,77.1953 Q666.3594,77.4531 666.3594,78.0625 L666.3594,79.5156 Q666.3594,80.125 666.125,80.3906 Q665.8906,80.6563 665.5156,80.6563 Q665.1719,80.6563 664.9688,80.4531 Q664.7656,80.2656 664.6563,79.75 Q664.6094,79.3906 664.4219,79.2031 Q664.0938,78.8281 663.4844,78.6094 Q662.875,78.3906 662.25,78.3906 Q661.4844,78.3906 660.8516,78.7188 Q660.2188,79.0469 659.7266,79.7969 Q659.2344,80.5469 659.2344,81.5781 L659.2344,82.6719 Q659.2344,83.9063 660.125,84.7266 Q661.0156,85.5469 662.6094,85.5469 Q663.5469,85.5469 664.2031,85.2969 Q664.5938,85.1406 665.0156,84.7031 Q665.2813,84.4375 665.4297,84.3594 Q665.5781,84.2813 665.7813,84.2813 Q666.1094,84.2813 666.3672,84.5391 Q666.625,84.7969 666.625,85.1406 Q666.625,85.4844 666.2813,85.8906 Q665.7813,86.4688 664.9844,86.7969 Q663.9063,87.25 662.6094,87.25 Q661.0938,87.25 659.8906,86.625 Q658.9063,86.125 658.2188,85.0547 Q657.5313,83.9844 657.5313,82.7031 L657.5313,81.5469 Q657.5313,80.2188 658.1484,79.0703 Q658.7656,77.9219 659.8594,77.3047 Q660.9531,76.6875 662.1875,76.6875 Q662.9219,76.6875 663.5703,76.8516 Q664.2188,77.0156 664.7656,77.375 Z "/><text fill="#000000" font-family="sans-serif" font-size="12" lengthAdjust="spacingAndGlyphs" textLength="113" x="676" y="86.4102">PaymentTransaction</text><line style="stroke: #A80036; stroke-width: 1.5;" x1="648" x2="791" y1="97.5" y2="97.5"/><rect fill="none" height="6" style="stroke: #C82930; stroke-width: 1.0;" width="6" x="655" y="106.918"/><text fill="#000000" font-family="sans-serif" font-size="11" lengthAdjust="spacingAndGlyphs" textLength="39" x="667" y="112.9189">String id</text><!--class TaskExecution--><rect fill="#FEFECE" filter="url(#f1o2obpwmaow7l)" height="81.5078" id="TaskExecution" style="stroke: #A80036; stroke-width: 1.5;" width="139" x="1362" y="37.5"/><ellipse cx="1389.15" cy="53.5" fill="#ADD1B2" rx="11" ry="11" style="stroke: #A80036; stroke-width: 1.0;"/><path d="M1391.9156,49.375 Q1392.0719,49.1563 1392.2594,49.0469 Q1392.4469,48.9375 1392.6656,48.9375 Q1393.0406,48.9375 1393.275,49.1953 Q1393.5094,49.4531 1393.5094,50.0625 L1393.5094,51.5156 Q1393.5094,52.125 1393.275,52.3906 Q1393.0406,52.6563 1392.6656,52.6563 Q1392.3219,52.6563 1392.1188,52.4531 Q1391.9156,52.2656 1391.8063,51.75 Q1391.7594,51.3906 1391.5719,51.2031 Q1391.2438,50.8281 1390.6344,50.6094 Q1390.025,50.3906 1389.4,50.3906 Q1388.6344,50.3906 1388.0016,50.7188 Q1387.3688,51.0469 1386.8766,51.7969 Q1386.3844,52.5469 1386.3844,53.5781 L1386.3844,54.6719 Q1386.3844,55.9063 1387.275,56.7266 Q1388.1656,57.5469 1389.7594,57.5469 Q1390.6969,57.5469 1391.3531,57.2969 Q1391.7438,57.1406 1392.1656,56.7031 Q1392.4313,56.4375 1392.5797,56.3594 Q1392.7281,56.2813 1392.9313,56.2813 Q1393.2594,56.2813 1393.5172,56.5391 Q1393.775,56.7969 1393.775,57.1406 Q1393.775,57.4844 1393.4313,57.8906 Q1392.9313,58.4688 1392.1344,58.7969 Q1391.0563,59.25 1389.7594,59.25 Q1388.2438,59.25 1387.0406,58.625 Q1386.0563,58.125 1385.3688,57.0547 Q1384.6813,55.9844 1384.6813,54.7031 L1384.6813,53.5469 Q1384.6813,52.2188 1385.2984,51.0703 Q1385.9156,49.9219 1387.0094,49.3047 Q1388.1031,48.6875 1389.3375,48.6875 Q1390.0719,48.6875 1390.7203,48.8516 Q1391.3688,49.0156 1391.9156,49.375 Z "/><text fill="#000000" font-family="sans-serif" font-size="12" lengthAdjust="spacingAndGlyphs" textLength="80" x="1405.85" y="58.4102">TaskExecution</text><line style="stroke: #A80036; stroke-width: 1.5;" x1="1363" x2="1500" y1="69.5" y2="69.5"/><rect fill="none" height="6" style="stroke: #C82930; stroke-width: 1.0;" width="6" x="1370" y="78.918"/><text fill="#000000" font-family="sans-serif" font-size="11" lengthAdjust="spacingAndGlyphs" textLength="65" x="1382" y="84.9189">Date deadline</text><rect fill="none" height="6" style="stroke: #C82930; stroke-width: 1.0;" width="6" x="1370" y="92.7539"/><text fill="#000000" font-family="sans-serif" font-size="11" lengthAdjust="spacingAndGlyphs" textLength="62" x="1382" y="98.7549">Double delay</text><rect fill="none" height="6" style="stroke: #C82930; stroke-width: 1.0;" width="6" x="1370" y="106.5898"/><text fill="#000000" font-family="sans-serif" font-size="11" lengthAdjust="spacingAndGlyphs" textLength="113" x="1382" y="112.5908">String descQualityWork</text><!--link Platform to Organization--><path d="M118.323,159.888 C164.146,145.3 228.944,124.671 274.748,110.089 " fill="none" id="Platform-Organization" style="stroke: #A80036; stroke-width: 1.0;"/><text fill="#000000" font-family="sans-serif" font-size="13" lengthAdjust="spacingAndGlyphs" textLength="82" x="149" y="115.9951">has registered</text><polygon fill="#000000" points="234,109.1758,240,112.1758,234,115.1758,234,109.1758" style="stroke: #000000; stroke-width: 1.0;"/><text fill="#000000" font-family="sans-serif" font-size="13" lengthAdjust="spacingAndGlyphs" textLength="7" x="125.9878" y="172.1846">1</text><text fill="#000000" font-family="sans-serif" font-size="13" lengthAdjust="spacingAndGlyphs" textLength="5" x="261.8532" y="127.0573">*</text><!--link Platform to Freelancer--><path d="M118.013,177.4732 C247.283,177.7486 580.436,180.4257 858,199.5 C867.671,200.1646 877.848,201.058 887.859,202.0498 " fill="none" id="Platform-Freelancer" style="stroke: #A80036; stroke-width: 1.0;"/><text fill="#000000" font-family="sans-serif" font-size="13" lengthAdjust="spacingAndGlyphs" textLength="82" x="469.5" y="176.9951">has registered</text><polygon fill="#000000" points="554.5,170.1758,560.5,173.1758,554.5,176.1758,554.5,170.1758" style="stroke: #000000; stroke-width: 1.0;"/><text fill="#000000" font-family="sans-serif" font-size="13" lengthAdjust="spacingAndGlyphs" textLength="7" x="126.0101" y="192.0744">1</text><text fill="#000000" font-family="sans-serif" font-size="13" lengthAdjust="spacingAndGlyphs" textLength="5" x="874.8045" y="197.764">*</text><!--link Platform to ExternalEmailSenderAlgorithm--><path d="M107.033,204.5681 C119.815,211.2269 134.088,217.568 148,221.5 C236.616,246.546 341.745,251.9775 416.902,251.9253 " fill="none" id="Platform-ExternalEmailSenderAlgorithm" style="stroke: #A80036; stroke-width: 1.0;"/><text fill="#000000" font-family="sans-serif" font-size="13" lengthAdjust="spacingAndGlyphs" textLength="48" x="166" y="217.9951">resort to</text><polygon fill="#000000" points="217,211.1758,223,214.1758,217,217.1758,217,211.1758" style="stroke: #000000; stroke-width: 1.0;"/><text fill="#000000" font-family="sans-serif" font-size="13" lengthAdjust="spacingAndGlyphs" textLength="7" x="109.1186" y="225.7908">1</text><text fill="#000000" font-family="sans-serif" font-size="13" lengthAdjust="spacingAndGlyphs" textLength="7" x="401.9703" y="266.3086">1</text><!--link Organization to Task--><path d="M387.351,73.704 C397.138,70.918 407.301,68.362 417,66.5 C716.462,9.021 800.686,15.66 1103,55.5 C1112.72,56.781 1122.89,58.647 1132.82,60.771 " fill="none" id="Organization-Task" style="stroke: #A80036; stroke-width: 1.0;"/><text fill="#000000" font-family="sans-serif" font-size="13" lengthAdjust="spacingAndGlyphs" textLength="21" x="823" y="22.9951">has</text><polygon fill="#000000" points="847,16.1758,853,19.1758,847,22.1758,847,16.1758" style="stroke: #000000; stroke-width: 1.0;"/><text fill="#000000" font-family="sans-serif" font-size="13" lengthAdjust="spacingAndGlyphs" textLength="7" x="395.0194" y="85.8489">1</text><text fill="#000000" font-family="sans-serif" font-size="13" lengthAdjust="spacingAndGlyphs" textLength="5" x="1119.8211" y="73.1511">*</text><!--link Organization to PaymentTransaction--><path d="M387.376,92.5 C455.631,92.5 571.767,92.5 646.782,92.5 " fill="none" id="Organization-PaymentTransaction" style="stroke: #A80036; stroke-width: 1.0;"/><text fill="#000000" font-family="sans-serif" font-size="13" lengthAdjust="spacingAndGlyphs" textLength="21" x="500" y="88.9951">has</text><polygon fill="#000000" points="524,82.1758,530,85.1758,524,88.1758,524,82.1758" style="stroke: #000000; stroke-width: 1.0;"/><text fill="#000000" font-family="sans-serif" font-size="13" lengthAdjust="spacingAndGlyphs" textLength="7" x="395.0476" y="107.0531">1</text><text fill="#000000" font-family="sans-serif" font-size="13" lengthAdjust="spacingAndGlyphs" textLength="5" x="634.0251" y="106.8467">*</text><!--link ExternalEmailSenderAlgorithm to Freelancer--><path d="M617.019,239.9484 C699.38,232.8354 814.572,222.887 887.729,216.5689 " fill="none" id="ExternalEmailSenderAlgorithm-Freelancer" style="stroke: #A80036; stroke-width: 1.0;"/><text fill="#000000" font-family="sans-serif" font-size="13" lengthAdjust="spacingAndGlyphs" textLength="85" x="670.5" y="220.9951">sends email to</text><polygon fill="#000000" points="758.5,214.1758,764.5,217.1758,758.5,220.1758,758.5,214.1758" style="stroke: #000000; stroke-width: 1.0;"/><text fill="#000000" font-family="sans-serif" font-size="13" lengthAdjust="spacingAndGlyphs" textLength="7" x="624.9447" y="253.4147">1</text><text fill="#000000" font-family="sans-serif" font-size="13" lengthAdjust="spacingAndGlyphs" textLength="5" x="875.1214" y="231.5322">*</text><!--link Task to TaskExecution--><path d="M1266.1,78.5 C1295.98,78.5 1331.34,78.5 1361.6,78.5 " fill="none" id="Task-TaskExecution" style="stroke: #A80036; stroke-width: 1.0;"/><text fill="#000000" font-family="sans-serif" font-size="13" lengthAdjust="spacingAndGlyphs" textLength="21" x="1297" y="74.9951">has</text><polygon fill="#000000" points="1321,68.1758,1327,71.1758,1321,74.1758,1321,68.1758" style="stroke: #000000; stroke-width: 1.0;"/><text fill="#000000" font-family="sans-serif" font-size="13" lengthAdjust="spacingAndGlyphs" textLength="7" x="1274.2053" y="92.9301">1</text><text fill="#000000" font-family="sans-serif" font-size="13" lengthAdjust="spacingAndGlyphs" textLength="22" x="1331.8892" y="92.7978">0..1</text><!--link Freelancer to Task--><path d="M1030.27,171.61 C1062.7,153.662 1100.97,132.478 1132.82,114.853 " fill="none" id="Freelancer-Task" style="stroke: #A80036; stroke-width: 1.0;"/><text fill="#000000" font-family="sans-serif" font-size="13" lengthAdjust="spacingAndGlyphs" textLength="28" x="1061" y="128.9951">does</text><polygon fill="#000000" points="1092,122.1758,1098,125.1758,1092,128.1758,1092,122.1758" style="stroke: #000000; stroke-width: 1.0;"/><text fill="#000000" font-family="sans-serif" font-size="13" lengthAdjust="spacingAndGlyphs" textLength="7" x="1037.9807" y="181.9369">1</text><text fill="#000000" font-family="sans-serif" font-size="13" lengthAdjust="spacingAndGlyphs" textLength="5" x="1119.8211" y="133.4864">*</text><!--link PaymentTransaction to Freelancer--><path d="M777.898,119.548 C802.632,131.333 831.828,145.418 858,158.5 C867.714,163.356 877.917,168.55 887.939,173.7078 " fill="none" id="PaymentTransaction-Freelancer" style="stroke: #A80036; stroke-width: 1.0;"/><text fill="#000000" font-family="sans-serif" font-size="13" lengthAdjust="spacingAndGlyphs" textLength="11" x="828" y="137.9951">to</text><polygon fill="#000000" points="842,131.1758,848,134.1758,842,137.1758,842,131.1758" style="stroke: #000000; stroke-width: 1.0;"/><text fill="#000000" font-family="sans-serif" font-size="13" lengthAdjust="spacingAndGlyphs" textLength="5" x="785.1257" y="140.7663">*</text><text fill="#000000" font-family="sans-serif" font-size="13" lengthAdjust="spacingAndGlyphs" textLength="7" x="872.7839" y="166.3224">1</text><!--link PaymentTransaction to Task--><path d="M792.061,90.404 C884.388,87.7 1043.71,83.034 1132.99,80.419 " fill="none" id="PaymentTransaction-Task" style="stroke: #A80036; stroke-width: 1.0;"/><text fill="#000000" font-family="sans-serif" font-size="13" lengthAdjust="spacingAndGlyphs" textLength="43" x="931" y="79.9951">referent</text><polygon fill="#000000" points="977,73.1758,983,76.1758,977,79.1758,977,73.1758" style="stroke: #000000; stroke-width: 1.0;"/><text fill="#000000" font-family="sans-serif" font-size="13" lengthAdjust="spacingAndGlyphs" textLength="7" x="799.9048" y="104.5346">1</text><text fill="#000000" font-family="sans-serif" font-size="13" lengthAdjust="spacingAndGlyphs" textLength="7" x="1117.8951" y="95.0709">1</text><!--
@startuml

hide methods
left to right direction

class Platform {
  -String designation
}

class Freelancer {
  -String id
  -String name
  -String email
  -Integer NIF
  -String IBAN
  -double OverallPayments
}

class Organization {
  -String designation
}

class ExternalEmailSenderAlgorithm {

}

class Task {
  -String id
  -String briefDescription
  -Double timeDuration
  -Double costPerHour
  -String category
}

class PaymentTransaction {
  -String id
}

class TaskExecution{
  -Date deadline
  -Double delay
  -String descQualityWork
}

Platform "1" - - "*" Organization : has registered >
Platform "1" - - "*" Freelancer : has registered >
Platform "1" - - "1" ExternalEmailSenderAlgorithm : resort to >

Organization "1" - - "*" Task : has >
Organization "1" - - "*" PaymentTransaction : has >

ExternalEmailSenderAlgorithm "1" - - "*" Freelancer : sends email to >

Task"1" - - "0..1" TaskExecution : has >

Freelancer "1" - - "*" Task : does >

PaymentTransaction "*" - - "1" Freelancer : to >
PaymentTransaction "1" - - "1" Task : referent >

@enduml

PlantUML version 1.2018.14(Fri Dec 21 16:33:16 GMT 2018)
(GPL source distribution)
Java Runtime: Java(TM) SE Runtime Environment
JVM: Java HotSpot(TM) 64-Bit Server VM
Java Version: 1.8.0_221-b11
Operating System: Windows 10
OS Version: 10.0
Default Encoding: Cp1252
Language: pt
Country: PT
--></g></svg>