<?xml version="1.0" encoding="UTF-8" standalone="no"?><svg xmlns="http://www.w3.org/2000/svg" xmlns:xlink="http://www.w3.org/1999/xlink" contentScriptType="application/ecmascript" contentStyleType="text/css" height="942px" preserveAspectRatio="none" style="width:817px;height:942px;" version="1.1" viewBox="0 0 817 942" width="817px" zoomAndPan="magnify"><defs><filter height="300%" id="f5sisib7ng4zi" width="300%" x="-1" y="-1"><feGaussianBlur result="blurOut" stdDeviation="2.0"/><feColorMatrix in="blurOut" result="blurOut2" type="matrix" values="0 0 0 0 0 0 0 0 0 0 0 0 0 0 0 0 0 0 .4 0"/><feOffset dx="4.0" dy="4.0" in="blurOut2" result="blurOut3"/><feBlend in="SourceGraphic" in2="blurOut3" mode="normal"/></filter></defs><g><!--class SetPaymentDayUI--><rect fill="#FEFECE" filter="url(#f5sisib7ng4zi)" height="48" id="SetPaymentDayUI" style="stroke: #A80036; stroke-width: 1.5;" width="131" x="512.5" y="8"/><ellipse cx="527.5" cy="24" fill="#ADD1B2" rx="11" ry="11" style="stroke: #A80036; stroke-width: 1.0;"/><path d="M530.2656,19.875 Q530.4219,19.6563 530.6094,19.5469 Q530.7969,19.4375 531.0156,19.4375 Q531.3906,19.4375 531.625,19.6953 Q531.8594,19.9531 531.8594,20.5625 L531.8594,22.0156 Q531.8594,22.625 531.625,22.8906 Q531.3906,23.1563 531.0156,23.1563 Q530.6719,23.1563 530.4688,22.9531 Q530.2656,22.7656 530.1563,22.25 Q530.1094,21.8906 529.9219,21.7031 Q529.5938,21.3281 528.9844,21.1094 Q528.375,20.8906 527.75,20.8906 Q526.9844,20.8906 526.3516,21.2188 Q525.7188,21.5469 525.2266,22.2969 Q524.7344,23.0469 524.7344,24.0781 L524.7344,25.1719 Q524.7344,26.4063 525.625,27.2266 Q526.5156,28.0469 528.1094,28.0469 Q529.0469,28.0469 529.7031,27.7969 Q530.0938,27.6406 530.5156,27.2031 Q530.7813,26.9375 530.9297,26.8594 Q531.0781,26.7813 531.2813,26.7813 Q531.6094,26.7813 531.8672,27.0391 Q532.125,27.2969 532.125,27.6406 Q532.125,27.9844 531.7813,28.3906 Q531.2813,28.9688 530.4844,29.2969 Q529.4063,29.75 528.1094,29.75 Q526.5938,29.75 525.3906,29.125 Q524.4063,28.625 523.7188,27.5547 Q523.0313,26.4844 523.0313,25.2031 L523.0313,24.0469 Q523.0313,22.7188 523.6484,21.5703 Q524.2656,20.4219 525.3594,19.8047 Q526.4531,19.1875 527.6875,19.1875 Q528.4219,19.1875 529.0703,19.3516 Q529.7188,19.5156 530.2656,19.875 Z "/><text fill="#000000" font-family="sans-serif" font-size="12" lengthAdjust="spacingAndGlyphs" textLength="99" x="541.5" y="28.9102">SetPaymentDayUI</text><line style="stroke: #A80036; stroke-width: 1.5;" x1="513.5" x2="642.5" y1="40" y2="40"/><line style="stroke: #A80036; stroke-width: 1.5;" x1="513.5" x2="642.5" y1="48" y2="48"/><!--class SetPaymentDayController--><rect fill="#FEFECE" filter="url(#f5sisib7ng4zi)" height="61.8359" id="SetPaymentDayController" style="stroke: #A80036; stroke-width: 1.5;" width="173" x="491.5" y="117"/><ellipse cx="506.5" cy="133" fill="#ADD1B2" rx="11" ry="11" style="stroke: #A80036; stroke-width: 1.0;"/><path d="M509.2656,128.875 Q509.4219,128.6563 509.6094,128.5469 Q509.7969,128.4375 510.0156,128.4375 Q510.3906,128.4375 510.625,128.6953 Q510.8594,128.9531 510.8594,129.5625 L510.8594,131.0156 Q510.8594,131.625 510.625,131.8906 Q510.3906,132.1563 510.0156,132.1563 Q509.6719,132.1563 509.4688,131.9531 Q509.2656,131.7656 509.1563,131.25 Q509.1094,130.8906 508.9219,130.7031 Q508.5938,130.3281 507.9844,130.1094 Q507.375,129.8906 506.75,129.8906 Q505.9844,129.8906 505.3516,130.2188 Q504.7188,130.5469 504.2266,131.2969 Q503.7344,132.0469 503.7344,133.0781 L503.7344,134.1719 Q503.7344,135.4063 504.625,136.2266 Q505.5156,137.0469 507.1094,137.0469 Q508.0469,137.0469 508.7031,136.7969 Q509.0938,136.6406 509.5156,136.2031 Q509.7813,135.9375 509.9297,135.8594 Q510.0781,135.7813 510.2813,135.7813 Q510.6094,135.7813 510.8672,136.0391 Q511.125,136.2969 511.125,136.6406 Q511.125,136.9844 510.7813,137.3906 Q510.2813,137.9688 509.4844,138.2969 Q508.4063,138.75 507.1094,138.75 Q505.5938,138.75 504.3906,138.125 Q503.4063,137.625 502.7188,136.5547 Q502.0313,135.4844 502.0313,134.2031 L502.0313,133.0469 Q502.0313,131.7188 502.6484,130.5703 Q503.2656,129.4219 504.3594,128.8047 Q505.4531,128.1875 506.6875,128.1875 Q507.4219,128.1875 508.0703,128.3516 Q508.7188,128.5156 509.2656,128.875 Z "/><text fill="#000000" font-family="sans-serif" font-size="12" lengthAdjust="spacingAndGlyphs" textLength="141" x="520.5" y="137.9102">SetPaymentDayController</text><line style="stroke: #A80036; stroke-width: 1.5;" x1="492.5" x2="663.5" y1="149" y2="149"/><line style="stroke: #A80036; stroke-width: 1.5;" x1="492.5" x2="663.5" y1="157" y2="157"/><ellipse cx="502.5" cy="169.418" fill="#84BE84" rx="3" ry="3" style="stroke: #038048; stroke-width: 1.0;"/><text fill="#000000" font-family="sans-serif" font-size="11" lengthAdjust="spacingAndGlyphs" textLength="91" x="511.5" y="172.4189">setData(day, hour)</text><!--class AplicacaoPOT--><rect fill="#FEFECE" filter="url(#f5sisib7ng4zi)" height="75.6719" id="AplicacaoPOT" style="stroke: #A80036; stroke-width: 1.5;" width="124" x="6" y="240"/><ellipse cx="27.75" cy="256" fill="#ADD1B2" rx="11" ry="11" style="stroke: #A80036; stroke-width: 1.0;"/><path d="M30.5156,251.875 Q30.6719,251.6563 30.8594,251.5469 Q31.0469,251.4375 31.2656,251.4375 Q31.6406,251.4375 31.875,251.6953 Q32.1094,251.9531 32.1094,252.5625 L32.1094,254.0156 Q32.1094,254.625 31.875,254.8906 Q31.6406,255.1563 31.2656,255.1563 Q30.9219,255.1563 30.7188,254.9531 Q30.5156,254.7656 30.4063,254.25 Q30.3594,253.8906 30.1719,253.7031 Q29.8438,253.3281 29.2344,253.1094 Q28.625,252.8906 28,252.8906 Q27.2344,252.8906 26.6016,253.2188 Q25.9688,253.5469 25.4766,254.2969 Q24.9844,255.0469 24.9844,256.0781 L24.9844,257.1719 Q24.9844,258.4063 25.875,259.2266 Q26.7656,260.0469 28.3594,260.0469 Q29.2969,260.0469 29.9531,259.7969 Q30.3438,259.6406 30.7656,259.2031 Q31.0313,258.9375 31.1797,258.8594 Q31.3281,258.7813 31.5313,258.7813 Q31.8594,258.7813 32.1172,259.0391 Q32.375,259.2969 32.375,259.6406 Q32.375,259.9844 32.0313,260.3906 Q31.5313,260.9688 30.7344,261.2969 Q29.6563,261.75 28.3594,261.75 Q26.8438,261.75 25.6406,261.125 Q24.6563,260.625 23.9688,259.5547 Q23.2813,258.4844 23.2813,257.2031 L23.2813,256.0469 Q23.2813,254.7188 23.8984,253.5703 Q24.5156,252.4219 25.6094,251.8047 Q26.7031,251.1875 27.9375,251.1875 Q28.6719,251.1875 29.3203,251.3516 Q29.9688,251.5156 30.5156,251.875 Z "/><text fill="#000000" font-family="sans-serif" font-size="12" lengthAdjust="spacingAndGlyphs" textLength="77" x="43.25" y="260.9102">AplicacaoPOT</text><line style="stroke: #A80036; stroke-width: 1.5;" x1="7" x2="129" y1="272" y2="272"/><line style="stroke: #A80036; stroke-width: 1.5;" x1="7" x2="129" y1="280" y2="280"/><ellipse cx="17" cy="292.418" fill="#84BE84" rx="3" ry="3" style="stroke: #038048; stroke-width: 1.0;"/><text fill="#000000" font-family="sans-serif" font-size="11" lengthAdjust="spacingAndGlyphs" textLength="93" x="26" y="295.4189">static getInstance()</text><ellipse cx="17" cy="306.2539" fill="#84BE84" rx="3" ry="3" style="stroke: #038048; stroke-width: 1.0;"/><text fill="#000000" font-family="sans-serif" font-size="11" lengthAdjust="spacingAndGlyphs" textLength="98" x="26" y="309.2549">getCurrentSession()</text><!--class UserSession--><rect fill="#FEFECE" filter="url(#f5sisib7ng4zi)" height="61.8359" id="UserSession" style="stroke: #A80036; stroke-width: 1.5;" width="105" x="165.5" y="247"/><ellipse cx="180.5" cy="263" fill="#ADD1B2" rx="11" ry="11" style="stroke: #A80036; stroke-width: 1.0;"/><path d="M183.2656,258.875 Q183.4219,258.6563 183.6094,258.5469 Q183.7969,258.4375 184.0156,258.4375 Q184.3906,258.4375 184.625,258.6953 Q184.8594,258.9531 184.8594,259.5625 L184.8594,261.0156 Q184.8594,261.625 184.625,261.8906 Q184.3906,262.1563 184.0156,262.1563 Q183.6719,262.1563 183.4688,261.9531 Q183.2656,261.7656 183.1563,261.25 Q183.1094,260.8906 182.9219,260.7031 Q182.5938,260.3281 181.9844,260.1094 Q181.375,259.8906 180.75,259.8906 Q179.9844,259.8906 179.3516,260.2188 Q178.7188,260.5469 178.2266,261.2969 Q177.7344,262.0469 177.7344,263.0781 L177.7344,264.1719 Q177.7344,265.4063 178.625,266.2266 Q179.5156,267.0469 181.1094,267.0469 Q182.0469,267.0469 182.7031,266.7969 Q183.0938,266.6406 183.5156,266.2031 Q183.7813,265.9375 183.9297,265.8594 Q184.0781,265.7813 184.2813,265.7813 Q184.6094,265.7813 184.8672,266.0391 Q185.125,266.2969 185.125,266.6406 Q185.125,266.9844 184.7813,267.3906 Q184.2813,267.9688 183.4844,268.2969 Q182.4063,268.75 181.1094,268.75 Q179.5938,268.75 178.3906,268.125 Q177.4063,267.625 176.7188,266.5547 Q176.0313,265.4844 176.0313,264.2031 L176.0313,263.0469 Q176.0313,261.7188 176.6484,260.5703 Q177.2656,259.4219 178.3594,258.8047 Q179.4531,258.1875 180.6875,258.1875 Q181.4219,258.1875 182.0703,258.3516 Q182.7188,258.5156 183.2656,258.875 Z "/><text fill="#000000" font-family="sans-serif" font-size="12" lengthAdjust="spacingAndGlyphs" textLength="73" x="194.5" y="267.9102">UserSession</text><line style="stroke: #A80036; stroke-width: 1.5;" x1="166.5" x2="269.5" y1="279" y2="279"/><line style="stroke: #A80036; stroke-width: 1.5;" x1="166.5" x2="269.5" y1="287" y2="287"/><ellipse cx="176.5" cy="299.418" fill="#84BE84" rx="3" ry="3" style="stroke: #038048; stroke-width: 1.0;"/><text fill="#000000" font-family="sans-serif" font-size="11" lengthAdjust="spacingAndGlyphs" textLength="70" x="185.5" y="302.4189">getUserEmail()</text><!--class Platform--><rect fill="#FEFECE" filter="url(#f5sisib7ng4zi)" height="75.6719" id="Platform" style="stroke: #A80036; stroke-width: 1.5;" width="266" x="306" y="240"/><ellipse cx="411.75" cy="256" fill="#ADD1B2" rx="11" ry="11" style="stroke: #A80036; stroke-width: 1.0;"/><path d="M414.5156,251.875 Q414.6719,251.6563 414.8594,251.5469 Q415.0469,251.4375 415.2656,251.4375 Q415.6406,251.4375 415.875,251.6953 Q416.1094,251.9531 416.1094,252.5625 L416.1094,254.0156 Q416.1094,254.625 415.875,254.8906 Q415.6406,255.1563 415.2656,255.1563 Q414.9219,255.1563 414.7188,254.9531 Q414.5156,254.7656 414.4063,254.25 Q414.3594,253.8906 414.1719,253.7031 Q413.8438,253.3281 413.2344,253.1094 Q412.625,252.8906 412,252.8906 Q411.2344,252.8906 410.6016,253.2188 Q409.9688,253.5469 409.4766,254.2969 Q408.9844,255.0469 408.9844,256.0781 L408.9844,257.1719 Q408.9844,258.4063 409.875,259.2266 Q410.7656,260.0469 412.3594,260.0469 Q413.2969,260.0469 413.9531,259.7969 Q414.3438,259.6406 414.7656,259.2031 Q415.0313,258.9375 415.1797,258.8594 Q415.3281,258.7813 415.5313,258.7813 Q415.8594,258.7813 416.1172,259.0391 Q416.375,259.2969 416.375,259.6406 Q416.375,259.9844 416.0313,260.3906 Q415.5313,260.9688 414.7344,261.2969 Q413.6563,261.75 412.3594,261.75 Q410.8438,261.75 409.6406,261.125 Q408.6563,260.625 407.9688,259.5547 Q407.2813,258.4844 407.2813,257.2031 L407.2813,256.0469 Q407.2813,254.7188 407.8984,253.5703 Q408.5156,252.4219 409.6094,251.8047 Q410.7031,251.1875 411.9375,251.1875 Q412.6719,251.1875 413.3203,251.3516 Q413.9688,251.5156 414.5156,251.875 Z "/><text fill="#000000" font-family="sans-serif" font-size="12" lengthAdjust="spacingAndGlyphs" textLength="46" x="432.25" y="260.9102">Platform</text><line style="stroke: #A80036; stroke-width: 1.5;" x1="307" x2="571" y1="272" y2="272"/><rect fill="none" height="6" style="stroke: #C82930; stroke-width: 1.0;" width="6" x="314" y="281.418"/><text fill="#000000" font-family="sans-serif" font-size="11" lengthAdjust="spacingAndGlyphs" textLength="86" x="326" y="287.4189">String designation</text><line style="stroke: #A80036; stroke-width: 1.5;" x1="307" x2="571" y1="293.8359" y2="293.8359"/><ellipse cx="317" cy="306.2539" fill="#84BE84" rx="3" ry="3" style="stroke: #038048; stroke-width: 1.0;"/><text fill="#000000" font-family="sans-serif" font-size="11" lengthAdjust="spacingAndGlyphs" textLength="240" x="326" y="309.2549">RegisterOrganizations getRegisterOrganizations()</text><!--class OrganizationsRegister--><rect fill="#FEFECE" filter="url(#f5sisib7ng4zi)" height="61.8359" id="OrganizationsRegister" style="stroke: #A80036; stroke-width: 1.5;" width="194" x="449" y="394"/><ellipse cx="481.55" cy="410" fill="#ADD1B2" rx="11" ry="11" style="stroke: #A80036; stroke-width: 1.0;"/><path d="M484.3156,405.875 Q484.4719,405.6563 484.6594,405.5469 Q484.8469,405.4375 485.0656,405.4375 Q485.4406,405.4375 485.675,405.6953 Q485.9094,405.9531 485.9094,406.5625 L485.9094,408.0156 Q485.9094,408.625 485.675,408.8906 Q485.4406,409.1563 485.0656,409.1563 Q484.7219,409.1563 484.5188,408.9531 Q484.3156,408.7656 484.2063,408.25 Q484.1594,407.8906 483.9719,407.7031 Q483.6438,407.3281 483.0344,407.1094 Q482.425,406.8906 481.8,406.8906 Q481.0344,406.8906 480.4016,407.2188 Q479.7688,407.5469 479.2766,408.2969 Q478.7844,409.0469 478.7844,410.0781 L478.7844,411.1719 Q478.7844,412.4063 479.675,413.2266 Q480.5656,414.0469 482.1594,414.0469 Q483.0969,414.0469 483.7531,413.7969 Q484.1438,413.6406 484.5656,413.2031 Q484.8313,412.9375 484.9797,412.8594 Q485.1281,412.7813 485.3313,412.7813 Q485.6594,412.7813 485.9172,413.0391 Q486.175,413.2969 486.175,413.6406 Q486.175,413.9844 485.8313,414.3906 Q485.3313,414.9688 484.5344,415.2969 Q483.4563,415.75 482.1594,415.75 Q480.6438,415.75 479.4406,415.125 Q478.4563,414.625 477.7688,413.5547 Q477.0813,412.4844 477.0813,411.2031 L477.0813,410.0469 Q477.0813,408.7188 477.6984,407.5703 Q478.3156,406.4219 479.4094,405.8047 Q480.5031,405.1875 481.7375,405.1875 Q482.4719,405.1875 483.1203,405.3516 Q483.7688,405.5156 484.3156,405.875 Z "/><text fill="#000000" font-family="sans-serif" font-size="12" lengthAdjust="spacingAndGlyphs" textLength="123" x="499.45" y="414.9102">OrganizationsRegister</text><line style="stroke: #A80036; stroke-width: 1.5;" x1="450" x2="642" y1="426" y2="426"/><line style="stroke: #A80036; stroke-width: 1.5;" x1="450" x2="642" y1="434" y2="434"/><ellipse cx="460" cy="446.418" fill="#84BE84" rx="3" ry="3" style="stroke: #038048; stroke-width: 1.0;"/><text fill="#000000" font-family="sans-serif" font-size="11" lengthAdjust="spacingAndGlyphs" textLength="168" x="469" y="449.4189">getOrganizationByUserEmail(email)</text><!--class Organization--><rect fill="#FEFECE" filter="url(#f5sisib7ng4zi)" height="89.5078" id="Organization" style="stroke: #A80036; stroke-width: 1.5;" width="181" x="532.5" y="534"/><ellipse cx="584.25" cy="550" fill="#ADD1B2" rx="11" ry="11" style="stroke: #A80036; stroke-width: 1.0;"/><path d="M587.0156,545.875 Q587.1719,545.6563 587.3594,545.5469 Q587.5469,545.4375 587.7656,545.4375 Q588.1406,545.4375 588.375,545.6953 Q588.6094,545.9531 588.6094,546.5625 L588.6094,548.0156 Q588.6094,548.625 588.375,548.8906 Q588.1406,549.1563 587.7656,549.1563 Q587.4219,549.1563 587.2188,548.9531 Q587.0156,548.7656 586.9063,548.25 Q586.8594,547.8906 586.6719,547.7031 Q586.3438,547.3281 585.7344,547.1094 Q585.125,546.8906 584.5,546.8906 Q583.7344,546.8906 583.1016,547.2188 Q582.4688,547.5469 581.9766,548.2969 Q581.4844,549.0469 581.4844,550.0781 L581.4844,551.1719 Q581.4844,552.4063 582.375,553.2266 Q583.2656,554.0469 584.8594,554.0469 Q585.7969,554.0469 586.4531,553.7969 Q586.8438,553.6406 587.2656,553.2031 Q587.5313,552.9375 587.6797,552.8594 Q587.8281,552.7813 588.0313,552.7813 Q588.3594,552.7813 588.6172,553.0391 Q588.875,553.2969 588.875,553.6406 Q588.875,553.9844 588.5313,554.3906 Q588.0313,554.9688 587.2344,555.2969 Q586.1563,555.75 584.8594,555.75 Q583.3438,555.75 582.1406,555.125 Q581.1563,554.625 580.4688,553.5547 Q579.7813,552.4844 579.7813,551.2031 L579.7813,550.0469 Q579.7813,548.7188 580.3984,547.5703 Q581.0156,546.4219 582.1094,545.8047 Q583.2031,545.1875 584.4375,545.1875 Q585.1719,545.1875 585.8203,545.3516 Q586.4688,545.5156 587.0156,545.875 Z "/><text fill="#000000" font-family="sans-serif" font-size="12" lengthAdjust="spacingAndGlyphs" textLength="69" x="604.75" y="554.9102">Organization</text><line style="stroke: #A80036; stroke-width: 1.5;" x1="533.5" x2="712.5" y1="566" y2="566"/><rect fill="none" height="6" style="stroke: #C82930; stroke-width: 1.0;" width="6" x="540.5" y="575.418"/><text fill="#000000" font-family="sans-serif" font-size="11" lengthAdjust="spacingAndGlyphs" textLength="86" x="552.5" y="581.4189">String designation</text><line style="stroke: #A80036; stroke-width: 1.5;" x1="533.5" x2="712.5" y1="587.8359" y2="587.8359"/><ellipse cx="543.5" cy="600.2539" fill="#84BE84" rx="3" ry="3" style="stroke: #038048; stroke-width: 1.0;"/><text fill="#000000" font-family="sans-serif" font-size="11" lengthAdjust="spacingAndGlyphs" textLength="155" x="552.5" y="603.2549">setPaymentSchedule(day, hour)</text><ellipse cx="543.5" cy="614.0898" fill="#84BE84" rx="3" ry="3" style="stroke: #038048; stroke-width: 1.0;"/><text fill="#000000" font-family="sans-serif" font-size="11" lengthAdjust="spacingAndGlyphs" textLength="58" x="552.5" y="617.0908">getInterval()</text><!--class Manager--><rect fill="#FEFECE" filter="url(#f5sisib7ng4zi)" height="75.6719" id="Manager" style="stroke: #A80036; stroke-width: 1.5;" width="83" x="723.5" y="702"/><ellipse cx="739.85" cy="718" fill="#ADD1B2" rx="11" ry="11" style="stroke: #A80036; stroke-width: 1.0;"/><path d="M742.6156,713.875 Q742.7719,713.6563 742.9594,713.5469 Q743.1469,713.4375 743.3656,713.4375 Q743.7406,713.4375 743.975,713.6953 Q744.2094,713.9531 744.2094,714.5625 L744.2094,716.0156 Q744.2094,716.625 743.975,716.8906 Q743.7406,717.1563 743.3656,717.1563 Q743.0219,717.1563 742.8188,716.9531 Q742.6156,716.7656 742.5063,716.25 Q742.4594,715.8906 742.2719,715.7031 Q741.9438,715.3281 741.3344,715.1094 Q740.725,714.8906 740.1,714.8906 Q739.3344,714.8906 738.7016,715.2188 Q738.0688,715.5469 737.5766,716.2969 Q737.0844,717.0469 737.0844,718.0781 L737.0844,719.1719 Q737.0844,720.4063 737.975,721.2266 Q738.8656,722.0469 740.4594,722.0469 Q741.3969,722.0469 742.0531,721.7969 Q742.4438,721.6406 742.8656,721.2031 Q743.1313,720.9375 743.2797,720.8594 Q743.4281,720.7813 743.6313,720.7813 Q743.9594,720.7813 744.2172,721.0391 Q744.475,721.2969 744.475,721.6406 Q744.475,721.9844 744.1313,722.3906 Q743.6313,722.9688 742.8344,723.2969 Q741.7563,723.75 740.4594,723.75 Q738.9438,723.75 737.7406,723.125 Q736.7563,722.625 736.0688,721.5547 Q735.3813,720.4844 735.3813,719.2031 L735.3813,718.0469 Q735.3813,716.7188 735.9984,715.5703 Q736.6156,714.4219 737.7094,713.8047 Q738.8031,713.1875 740.0375,713.1875 Q740.7719,713.1875 741.4203,713.3516 Q742.0688,713.5156 742.6156,713.875 Z "/><text fill="#000000" font-family="sans-serif" font-size="12" lengthAdjust="spacingAndGlyphs" textLength="48" x="754.15" y="722.9102">Manager</text><line style="stroke: #A80036; stroke-width: 1.5;" x1="724.5" x2="805.5" y1="734" y2="734"/><rect fill="none" height="6" style="stroke: #C82930; stroke-width: 1.0;" width="6" x="731.5" y="743.418"/><text fill="#000000" font-family="sans-serif" font-size="11" lengthAdjust="spacingAndGlyphs" textLength="57" x="743.5" y="749.4189">String name</text><rect fill="none" height="6" style="stroke: #C82930; stroke-width: 1.0;" width="6" x="731.5" y="757.2539"/><text fill="#000000" font-family="sans-serif" font-size="11" lengthAdjust="spacingAndGlyphs" textLength="55" x="743.5" y="763.2549">String email</text><line style="stroke: #A80036; stroke-width: 1.5;" x1="724.5" x2="805.5" y1="769.6719" y2="769.6719"/><!--class MakeAutomaticPaymentTask--><rect fill="#FEFECE" filter="url(#f5sisib7ng4zi)" height="61.8359" id="MakeAutomaticPaymentTask" style="stroke: #A80036; stroke-width: 1.5;" width="190" x="365" y="709"/><ellipse cx="380" cy="725" fill="#ADD1B2" rx="11" ry="11" style="stroke: #A80036; stroke-width: 1.0;"/><path d="M382.7656,720.875 Q382.9219,720.6563 383.1094,720.5469 Q383.2969,720.4375 383.5156,720.4375 Q383.8906,720.4375 384.125,720.6953 Q384.3594,720.9531 384.3594,721.5625 L384.3594,723.0156 Q384.3594,723.625 384.125,723.8906 Q383.8906,724.1563 383.5156,724.1563 Q383.1719,724.1563 382.9688,723.9531 Q382.7656,723.7656 382.6563,723.25 Q382.6094,722.8906 382.4219,722.7031 Q382.0938,722.3281 381.4844,722.1094 Q380.875,721.8906 380.25,721.8906 Q379.4844,721.8906 378.8516,722.2188 Q378.2188,722.5469 377.7266,723.2969 Q377.2344,724.0469 377.2344,725.0781 L377.2344,726.1719 Q377.2344,727.4063 378.125,728.2266 Q379.0156,729.0469 380.6094,729.0469 Q381.5469,729.0469 382.2031,728.7969 Q382.5938,728.6406 383.0156,728.2031 Q383.2813,727.9375 383.4297,727.8594 Q383.5781,727.7813 383.7813,727.7813 Q384.1094,727.7813 384.3672,728.0391 Q384.625,728.2969 384.625,728.6406 Q384.625,728.9844 384.2813,729.3906 Q383.7813,729.9688 382.9844,730.2969 Q381.9063,730.75 380.6094,730.75 Q379.0938,730.75 377.8906,730.125 Q376.9063,729.625 376.2188,728.5547 Q375.5313,727.4844 375.5313,726.2031 L375.5313,725.0469 Q375.5313,723.7188 376.1484,722.5703 Q376.7656,721.4219 377.8594,720.8047 Q378.9531,720.1875 380.1875,720.1875 Q380.9219,720.1875 381.5703,720.3516 Q382.2188,720.5156 382.7656,720.875 Z "/><text fill="#000000" font-family="sans-serif" font-size="12" lengthAdjust="spacingAndGlyphs" textLength="158" x="394" y="729.9102">MakeAutomaticPaymentTask</text><line style="stroke: #A80036; stroke-width: 1.5;" x1="366" x2="554" y1="741" y2="741"/><line style="stroke: #A80036; stroke-width: 1.5;" x1="366" x2="554" y1="749" y2="749"/><ellipse cx="376" cy="761.418" fill="#84BE84" rx="3" ry="3" style="stroke: #038048; stroke-width: 1.0;"/><text fill="#000000" font-family="sans-serif" font-size="11" lengthAdjust="spacingAndGlyphs" textLength="39" x="385" y="764.4189">create()</text><!--class Timer--><rect fill="#FEFECE" filter="url(#f5sisib7ng4zi)" height="75.6719" id="Timer" style="stroke: #A80036; stroke-width: 1.5;" width="181" x="471.5" y="856"/><ellipse cx="541.75" cy="872" fill="#A9DCDF" rx="11" ry="11" style="stroke: #A80036; stroke-width: 1.0;"/><path d="M543.9375,873.7656 L539.7969,873.7656 L539.375,874.7969 L539.7969,874.7969 Q540.4063,874.7969 540.6719,875.0313 Q540.9375,875.2656 540.9375,875.6563 Q540.9375,876.0313 540.6719,876.2656 Q540.4063,876.5 539.7969,876.5 L537.5,876.5 Q536.8906,876.5 536.6328,876.2656 Q536.375,876.0313 536.375,875.6406 Q536.375,875.2656 536.6484,875.0234 Q536.9219,874.7813 537.5469,874.7969 L540.2188,868.1406 L539.1094,868.1406 Q538.5,868.1406 538.2344,867.9063 Q537.9688,867.6719 537.9688,867.2813 Q537.9688,866.9063 538.2344,866.6719 Q538.5,866.4375 539.1094,866.4375 L542.7813,866.4375 L546.1719,874.7969 Q546.7656,874.7969 546.9531,874.9375 Q547.3438,875.2031 547.3438,875.6563 Q547.3438,876.0313 547.0859,876.2656 Q546.8281,876.5 546.2188,876.5 L543.9219,876.5 Q543.3125,876.5 543.0469,876.2656 Q542.7813,876.0313 542.7813,875.6406 Q542.7813,875.2656 543.0469,875.0313 Q543.3125,874.7969 543.9219,874.7969 L544.3438,874.7969 L543.9375,873.7656 Z M543.2188,872.0625 L541.8594,868.6875 L540.4844,872.0625 L543.2188,872.0625 Z "/><text fill="#000000" font-family="sans-serif" font-size="12" font-style="italic" lengthAdjust="spacingAndGlyphs" textLength="32" x="562.25" y="876.9102">Timer</text><line style="stroke: #A80036; stroke-width: 1.5;" x1="472.5" x2="651.5" y1="888" y2="888"/><line style="stroke: #A80036; stroke-width: 1.5;" x1="472.5" x2="651.5" y1="896" y2="896"/><ellipse cx="482.5" cy="908.418" fill="#84BE84" rx="3" ry="3" style="stroke: #038048; stroke-width: 1.0;"/><text fill="#000000" font-family="sans-serif" font-size="11" lengthAdjust="spacingAndGlyphs" textLength="39" x="491.5" y="911.4189">create()</text><ellipse cx="482.5" cy="922.2539" fill="#84BE84" rx="3" ry="3" style="stroke: #038048; stroke-width: 1.0;"/><text fill="#000000" font-family="sans-serif" font-size="11" lengthAdjust="spacingAndGlyphs" textLength="155" x="491.5" y="925.2549">setPaymentSchedule(day, hour)</text><!--link SetPaymentDayUI to SetPaymentDayController--><path d="M578,56.07 C578,72.007 578,93.51 578,111.604 " fill="none" id="SetPaymentDayUI-SetPaymentDayController" style="stroke: #A80036; stroke-width: 1.0; stroke-dasharray: 7.0,7.0;"/><polygon fill="#A80036" points="578,116.609,582,107.609,578,111.609,574,107.609,578,116.609" style="stroke: #A80036; stroke-width: 1.0;"/><!--link SetPaymentDayController to Platform--><path d="M545.411,179.01 C526.828,196.123 503.285,217.802 483.071,236.417 " fill="none" id="SetPaymentDayController-Platform" style="stroke: #A80036; stroke-width: 1.0; stroke-dasharray: 7.0,7.0;"/><polygon fill="#A80036" points="479.337,239.855,488.6667,236.6995,483.0146,236.4675,483.2466,230.8154,479.337,239.855" style="stroke: #A80036; stroke-width: 1.0;"/><!--link SetPaymentDayController to OrganizationsRegister--><path d="M584.547,179.149 C590.806,212.813 598.056,268.773 589,316 C584.124,341.429 573.335,368.495 563.785,389.171 " fill="none" id="SetPaymentDayController-OrganizationsRegister" style="stroke: #A80036; stroke-width: 1.0; stroke-dasharray: 7.0,7.0;"/><polygon fill="#A80036" points="561.643,393.749,569.0798,387.292,563.7617,389.2201,561.8336,383.902,561.643,393.749" style="stroke: #A80036; stroke-width: 1.0;"/><!--link SetPaymentDayController to Organization--><path d="M599.774,179.069 C605.712,188.323 611.688,198.775 616,209 C664.87,324.899 664.512,360.577 674,486 C674.603,493.977 676.377,496.361 674,504 C671.301,512.673 667.191,521.229 662.453,529.272 " fill="none" id="SetPaymentDayController-Organization" style="stroke: #A80036; stroke-width: 1.0; stroke-dasharray: 7.0,7.0;"/><polygon fill="#A80036" points="659.761,533.685,667.8631,528.0853,662.3651,529.4167,661.0338,523.9187,659.761,533.685" style="stroke: #A80036; stroke-width: 1.0;"/><!--link SetPaymentDayController to AplicacaoPOT--><path d="M491.235,161.482 C403.297,175.492 264.039,201.433 148,240 C143.734,241.418 139.394,242.997 135.053,244.683 " fill="none" id="SetPaymentDayController-AplicacaoPOT" style="stroke: #A80036; stroke-width: 1.0; stroke-dasharray: 7.0,7.0;"/><polygon fill="#A80036" points="130.345,246.551,140.1858,246.949,134.9924,244.7066,137.2348,239.5132,130.345,246.551" style="stroke: #A80036; stroke-width: 1.0;"/><!--link SetPaymentDayController to UserSession--><path d="M491.199,171.759 C432.797,188.154 354.599,212.222 288,240 C283.807,241.749 279.531,243.662 275.262,245.67 " fill="none" id="SetPaymentDayController-UserSession" style="stroke: #A80036; stroke-width: 1.0; stroke-dasharray: 7.0,7.0;"/><polygon fill="#A80036" points="270.637,247.881,280.4821,247.6099,275.1484,245.7253,277.033,240.3916,270.637,247.881" style="stroke: #A80036; stroke-width: 1.0;"/><!--link SetPaymentDayController to Manager--><path d="M664.756,171.899 C714.441,190.83 767,223.5 767,277 C767,277 767,277 767,580 C767,619.569 766.373,664.672 765.821,696.709 " fill="none" id="SetPaymentDayController-Manager" style="stroke: #A80036; stroke-width: 1.0; stroke-dasharray: 7.0,7.0;"/><polygon fill="#A80036" points="765.733,701.735,769.8918,692.8073,765.8216,696.7358,761.893,692.6656,765.733,701.735" style="stroke: #A80036; stroke-width: 1.0;"/><!--link Platform to OrganizationsRegister--><path d="M466.555,316.341 C483.227,338.934 504.334,367.536 520.601,389.58 " fill="none" id="Platform-OrganizationsRegister" style="stroke: #A80036; stroke-width: 1.0;"/><polygon fill="#A80036" points="523.579,393.617,521.4553,383.9998,520.6109,389.5933,515.0174,388.7489,523.579,393.617" style="stroke: #A80036; stroke-width: 1.0;"/><text fill="#000000" font-family="sans-serif" font-size="13" lengthAdjust="spacingAndGlyphs" textLength="21" x="500" y="360.4951">has</text><text fill="#000000" font-family="sans-serif" font-size="13" lengthAdjust="spacingAndGlyphs" textLength="7" x="463.3888" y="337.2759">1</text><text fill="#000000" font-family="sans-serif" font-size="13" lengthAdjust="spacingAndGlyphs" textLength="7" x="511.2328" y="383.0425">1</text><!--link OrganizationsRegister to Organization--><path d="M561.213,456.03 C571.773,476.876 586.077,505.112 598.262,529.167 " fill="none" id="OrganizationsRegister-Organization" style="stroke: #A80036; stroke-width: 1.0;"/><polygon fill="#A80036" points="600.669,533.919,600.1715,524.0827,598.4101,529.4584,593.0345,527.697,600.669,533.919" style="stroke: #A80036; stroke-width: 1.0;"/><text fill="#000000" font-family="sans-serif" font-size="13" lengthAdjust="spacingAndGlyphs" textLength="82" x="586" y="500.4951">has registered</text><text fill="#000000" font-family="sans-serif" font-size="13" lengthAdjust="spacingAndGlyphs" textLength="7" x="556.519" y="477.2599">1</text><text fill="#000000" font-family="sans-serif" font-size="13" lengthAdjust="spacingAndGlyphs" textLength="5" x="591.7116" y="523.0216">*</text><!--link Organization to Manager--><path d="M662.555,624.29 C683.19,647.396 708.266,675.474 728.444,698.068 " fill="none" id="Organization-Manager" style="stroke: #A80036; stroke-width: 1.0;"/><polygon fill="#A80036" points="731.895,701.932,728.8851,692.5543,728.5651,698.2021,722.9173,697.8821,731.895,701.932" style="stroke: #A80036; stroke-width: 1.0;"/><text fill="#000000" font-family="sans-serif" font-size="13" lengthAdjust="spacingAndGlyphs" textLength="21" x="704" y="668.4951">has</text><text fill="#000000" font-family="sans-serif" font-size="13" lengthAdjust="spacingAndGlyphs" textLength="7" x="660.3999" y="645.0027">1</text><text fill="#000000" font-family="sans-serif" font-size="13" lengthAdjust="spacingAndGlyphs" textLength="7" x="718.3747" y="691.2818">1</text><!--link Organization to MakeAutomaticPaymentTask--><path d="M577.595,624.29 C549.995,651.214 515.473,684.888 490.99,708.77 " fill="none" id="Organization-MakeAutomaticPaymentTask" style="stroke: #A80036; stroke-width: 1.0;"/><polygon fill="#000000" points="555,661.6758,549,664.6758,555,667.6758,555,661.6758" style="stroke: #000000; stroke-width: 1.0;"/><text fill="#000000" font-family="sans-serif" font-size="13" lengthAdjust="spacingAndGlyphs" textLength="21" x="561" y="668.4951">has</text><text fill="#000000" font-family="sans-serif" font-size="13" lengthAdjust="spacingAndGlyphs" textLength="7" x="564.0234" y="645.0027">1</text><text fill="#000000" font-family="sans-serif" font-size="13" lengthAdjust="spacingAndGlyphs" textLength="7" x="489.6598" y="698.2271">1</text><!--link MakeAutomaticPaymentTask to Timer--><path d="M480.152,771.03 C496.466,795.342 519.527,829.707 537.014,855.7665 " fill="none" id="MakeAutomaticPaymentTask-Timer" style="stroke: #A80036; stroke-width: 1.0;"/><text fill="#000000" font-family="sans-serif" font-size="13" lengthAdjust="spacingAndGlyphs" textLength="48" x="516" y="822.4951">resort to</text><polygon fill="#000000" points="535.5,831.3516,538.5,837.3516,541.5,831.3516,535.5,831.3516" style="stroke: #000000; stroke-width: 1.0;"/><text fill="#000000" font-family="sans-serif" font-size="13" lengthAdjust="spacingAndGlyphs" textLength="7" x="476.4304" y="792.2599">1</text><text fill="#000000" font-family="sans-serif" font-size="13" lengthAdjust="spacingAndGlyphs" textLength="5" x="527.1181" y="845.0868">*</text><!--link Timer to Organization--><path d="M576.762,855.8357 C580.175,846.2302 583.526,835.8251 586,826 C602.922,758.785 613.168,679.164 618.459,629.108 " fill="none" id="Timer-Organization" style="stroke: #A80036; stroke-width: 1.0; stroke-dasharray: 7.0,7.0;"/><polygon fill="#A80036" points="618.986,624.057,614.0717,632.5922,618.466,629.0299,622.0283,633.4242,618.986,624.057" style="stroke: #A80036; stroke-width: 1.0;"/><polygon fill="#000000" points="630,742,633,736,636,742,630,742" style="stroke: #000000; stroke-width: 1.0;"/><text fill="#000000" font-family="sans-serif" font-size="13" lengthAdjust="spacingAndGlyphs" textLength="47" x="611" y="758.4951">prompts</text><text fill="#000000" font-family="sans-serif" font-size="13" lengthAdjust="spacingAndGlyphs" textLength="5" x="573.9462" y="845.1683">*</text><text fill="#000000" font-family="sans-serif" font-size="13" lengthAdjust="spacingAndGlyphs" textLength="7" x="610.9293" y="645.0726">1</text><!--
@startuml

class SetPaymentDayUI {

}

class SetPaymentDayController {
  +setData(day, hour)
}

class AplicacaoPOT {
  +static getInstance()
  +getCurrentSession()
}

class UserSession {
  +getUserEmail()
}

class Platform {
  -String designation
  +RegisterOrganizations getRegisterOrganizations()
}

class OrganizationsRegister {
  +getOrganizationByUserEmail(email)
}

class Organization {
  -String designation
  +setPaymentSchedule(day, hour)
  +getInterval()
}

class Manager {
  -String name
  -String email
}

class MakeAutomaticPaymentTask {
  +create()
}

abstract Timer {
  +create()
  +setPaymentSchedule(day, hour)
}


SetPaymentDayUI ..> SetPaymentDayController
SetPaymentDayController ..> Platform
SetPaymentDayController ..> OrganizationsRegister
SetPaymentDayController ..> Organization
SetPaymentDayController ..> AplicacaoPOT
SetPaymentDayController ..> UserSession
SetPaymentDayController ..> Manager

Platform "1" - -> "1" OrganizationsRegister : has

OrganizationsRegister "1" - -> "*" Organization : has registered

Organization "1" - -> "1" Manager : has
Organization "1" - - "1" MakeAutomaticPaymentTask: has >

MakeAutomaticPaymentTask "1" - - "*" Timer: resort to >

Timer "*" ..> "1" Organization :  prompts >

@enduml

PlantUML version 1.2018.14(Fri Dec 21 16:33:16 GMT 2018)
(GPL source distribution)
Java Runtime: Java(TM) SE Runtime Environment
JVM: Java HotSpot(TM) 64-Bit Server VM
Java Version: 1.8.0_251-b08
Operating System: Windows 10
OS Version: 10.0
Default Encoding: Cp1252
Language: pt
Country: PT
--></g></svg>