<?xml version="1.0" encoding="UTF-8" standalone="no"?><svg xmlns="http://www.w3.org/2000/svg" xmlns:xlink="http://www.w3.org/1999/xlink" contentScriptType="application/ecmascript" contentStyleType="text/css" height="144px" preserveAspectRatio="none" style="width:856px;height:144px;" version="1.1" viewBox="0 0 856 144" width="856px" zoomAndPan="magnify"><defs><filter height="300%" id="f1dkn4l66eoyh5" width="300%" x="-1" y="-1"><feGaussianBlur result="blurOut" stdDeviation="2.0"/><feColorMatrix in="blurOut" result="blurOut2" type="matrix" values="0 0 0 0 0 0 0 0 0 0 0 0 0 0 0 0 0 0 .4 0"/><feOffset dx="4.0" dy="4.0" in="blurOut2" result="blurOut3"/><feBlend in="SourceGraphic" in2="blurOut3" mode="normal"/></filter></defs><g><!--class Platform--><rect fill="#FEFECE" filter="url(#f1dkn4l66eoyh5)" height="53.8359" id="Platform" style="stroke: #A80036; stroke-width: 1.5;" width="112" x="6" y="68"/><ellipse cx="36.3" cy="84" fill="#ADD1B2" rx="11" ry="11" style="stroke: #A80036; stroke-width: 1.0;"/><path d="M39.0656,79.875 Q39.2219,79.6563 39.4094,79.5469 Q39.5969,79.4375 39.8156,79.4375 Q40.1906,79.4375 40.425,79.6953 Q40.6594,79.9531 40.6594,80.5625 L40.6594,82.0156 Q40.6594,82.625 40.425,82.8906 Q40.1906,83.1563 39.8156,83.1563 Q39.4719,83.1563 39.2688,82.9531 Q39.0656,82.7656 38.9563,82.25 Q38.9094,81.8906 38.7219,81.7031 Q38.3938,81.3281 37.7844,81.1094 Q37.175,80.8906 36.55,80.8906 Q35.7844,80.8906 35.1516,81.2188 Q34.5188,81.5469 34.0266,82.2969 Q33.5344,83.0469 33.5344,84.0781 L33.5344,85.1719 Q33.5344,86.4063 34.425,87.2266 Q35.3156,88.0469 36.9094,88.0469 Q37.8469,88.0469 38.5031,87.7969 Q38.8938,87.6406 39.3156,87.2031 Q39.5813,86.9375 39.7297,86.8594 Q39.8781,86.7813 40.0813,86.7813 Q40.4094,86.7813 40.6672,87.0391 Q40.925,87.2969 40.925,87.6406 Q40.925,87.9844 40.5813,88.3906 Q40.0813,88.9688 39.2844,89.2969 Q38.2063,89.75 36.9094,89.75 Q35.3938,89.75 34.1906,89.125 Q33.2063,88.625 32.5188,87.5547 Q31.8313,86.4844 31.8313,85.2031 L31.8313,84.0469 Q31.8313,82.7188 32.4484,81.5703 Q33.0656,80.4219 34.1594,79.8047 Q35.2531,79.1875 36.4875,79.1875 Q37.2219,79.1875 37.8703,79.3516 Q38.5188,79.5156 39.0656,79.875 Z "/><text fill="#000000" font-family="sans-serif" font-size="12" lengthAdjust="spacingAndGlyphs" textLength="46" x="53.7" y="88.9102">Platform</text><line style="stroke: #A80036; stroke-width: 1.5;" x1="7" x2="117" y1="100" y2="100"/><rect fill="none" height="6" style="stroke: #C82930; stroke-width: 1.0;" width="6" x="14" y="109.418"/><text fill="#000000" font-family="sans-serif" font-size="11" lengthAdjust="spacingAndGlyphs" textLength="86" x="26" y="115.4189">String designation</text><!--class Organization--><rect fill="#FEFECE" filter="url(#f1dkn4l66eoyh5)" height="53.8359" id="Organization" style="stroke: #A80036; stroke-width: 1.5;" width="112" x="275" y="19"/><ellipse cx="294.95" cy="35" fill="#ADD1B2" rx="11" ry="11" style="stroke: #A80036; stroke-width: 1.0;"/><path d="M297.7156,30.875 Q297.8719,30.6563 298.0594,30.5469 Q298.2469,30.4375 298.4656,30.4375 Q298.8406,30.4375 299.075,30.6953 Q299.3094,30.9531 299.3094,31.5625 L299.3094,33.0156 Q299.3094,33.625 299.075,33.8906 Q298.8406,34.1563 298.4656,34.1563 Q298.1219,34.1563 297.9188,33.9531 Q297.7156,33.7656 297.6063,33.25 Q297.5594,32.8906 297.3719,32.7031 Q297.0438,32.3281 296.4344,32.1094 Q295.825,31.8906 295.2,31.8906 Q294.4344,31.8906 293.8016,32.2188 Q293.1688,32.5469 292.6766,33.2969 Q292.1844,34.0469 292.1844,35.0781 L292.1844,36.1719 Q292.1844,37.4063 293.075,38.2266 Q293.9656,39.0469 295.5594,39.0469 Q296.4969,39.0469 297.1531,38.7969 Q297.5438,38.6406 297.9656,38.2031 Q298.2313,37.9375 298.3797,37.8594 Q298.5281,37.7813 298.7313,37.7813 Q299.0594,37.7813 299.3172,38.0391 Q299.575,38.2969 299.575,38.6406 Q299.575,38.9844 299.2313,39.3906 Q298.7313,39.9688 297.9344,40.2969 Q296.8563,40.75 295.5594,40.75 Q294.0438,40.75 292.8406,40.125 Q291.8563,39.625 291.1688,38.5547 Q290.4813,37.4844 290.4813,36.2031 L290.4813,35.0469 Q290.4813,33.7188 291.0984,32.5703 Q291.7156,31.4219 292.8094,30.8047 Q293.9031,30.1875 295.1375,30.1875 Q295.8719,30.1875 296.5203,30.3516 Q297.1688,30.5156 297.7156,30.875 Z "/><text fill="#000000" font-family="sans-serif" font-size="12" lengthAdjust="spacingAndGlyphs" textLength="69" x="310.05" y="39.9102">Organization</text><line style="stroke: #A80036; stroke-width: 1.5;" x1="276" x2="386" y1="51" y2="51"/><rect fill="none" height="6" style="stroke: #C82930; stroke-width: 1.0;" width="6" x="283" y="60.418"/><text fill="#000000" font-family="sans-serif" font-size="11" lengthAdjust="spacingAndGlyphs" textLength="86" x="295" y="66.4189">String designation</text><!--class Manager--><rect fill="#FEFECE" filter="url(#f1dkn4l66eoyh5)" height="67.6719" id="Manager" style="stroke: #A80036; stroke-width: 1.5;" width="83" x="544" y="8"/><ellipse cx="560.35" cy="24" fill="#ADD1B2" rx="11" ry="11" style="stroke: #A80036; stroke-width: 1.0;"/><path d="M563.1156,19.875 Q563.2719,19.6563 563.4594,19.5469 Q563.6469,19.4375 563.8656,19.4375 Q564.2406,19.4375 564.475,19.6953 Q564.7094,19.9531 564.7094,20.5625 L564.7094,22.0156 Q564.7094,22.625 564.475,22.8906 Q564.2406,23.1563 563.8656,23.1563 Q563.5219,23.1563 563.3188,22.9531 Q563.1156,22.7656 563.0063,22.25 Q562.9594,21.8906 562.7719,21.7031 Q562.4438,21.3281 561.8344,21.1094 Q561.225,20.8906 560.6,20.8906 Q559.8344,20.8906 559.2016,21.2188 Q558.5688,21.5469 558.0766,22.2969 Q557.5844,23.0469 557.5844,24.0781 L557.5844,25.1719 Q557.5844,26.4063 558.475,27.2266 Q559.3656,28.0469 560.9594,28.0469 Q561.8969,28.0469 562.5531,27.7969 Q562.9438,27.6406 563.3656,27.2031 Q563.6313,26.9375 563.7797,26.8594 Q563.9281,26.7813 564.1313,26.7813 Q564.4594,26.7813 564.7172,27.0391 Q564.975,27.2969 564.975,27.6406 Q564.975,27.9844 564.6313,28.3906 Q564.1313,28.9688 563.3344,29.2969 Q562.2563,29.75 560.9594,29.75 Q559.4438,29.75 558.2406,29.125 Q557.2563,28.625 556.5688,27.5547 Q555.8813,26.4844 555.8813,25.2031 L555.8813,24.0469 Q555.8813,22.7188 556.4984,21.5703 Q557.1156,20.4219 558.2094,19.8047 Q559.3031,19.1875 560.5375,19.1875 Q561.2719,19.1875 561.9203,19.3516 Q562.5688,19.5156 563.1156,19.875 Z "/><text fill="#000000" font-family="sans-serif" font-size="12" lengthAdjust="spacingAndGlyphs" textLength="48" x="574.65" y="28.9102">Manager</text><line style="stroke: #A80036; stroke-width: 1.5;" x1="545" x2="626" y1="40" y2="40"/><rect fill="none" height="6" style="stroke: #C82930; stroke-width: 1.0;" width="6" x="552" y="49.418"/><text fill="#000000" font-family="sans-serif" font-size="11" lengthAdjust="spacingAndGlyphs" textLength="57" x="564" y="55.4189">String name</text><rect fill="none" height="6" style="stroke: #C82930; stroke-width: 1.0;" width="6" x="552" y="63.2539"/><text fill="#000000" font-family="sans-serif" font-size="11" lengthAdjust="spacingAndGlyphs" textLength="55" x="564" y="69.2549">String email</text><!--class User--><rect fill="#FEFECE" filter="url(#f1dkn4l66eoyh5)" height="81.5078" id="User" style="stroke: #A80036; stroke-width: 1.5;" width="107" x="738" y="52"/><ellipse cx="774.6" cy="68" fill="#ADD1B2" rx="11" ry="11" style="stroke: #A80036; stroke-width: 1.0;"/><path d="M777.3656,63.875 Q777.5219,63.6563 777.7094,63.5469 Q777.8969,63.4375 778.1156,63.4375 Q778.4906,63.4375 778.725,63.6953 Q778.9594,63.9531 778.9594,64.5625 L778.9594,66.0156 Q778.9594,66.625 778.725,66.8906 Q778.4906,67.1563 778.1156,67.1563 Q777.7719,67.1563 777.5688,66.9531 Q777.3656,66.7656 777.2563,66.25 Q777.2094,65.8906 777.0219,65.7031 Q776.6938,65.3281 776.0844,65.1094 Q775.475,64.8906 774.85,64.8906 Q774.0844,64.8906 773.4516,65.2188 Q772.8188,65.5469 772.3266,66.2969 Q771.8344,67.0469 771.8344,68.0781 L771.8344,69.1719 Q771.8344,70.4063 772.725,71.2266 Q773.6156,72.0469 775.2094,72.0469 Q776.1469,72.0469 776.8031,71.7969 Q777.1938,71.6406 777.6156,71.2031 Q777.8813,70.9375 778.0297,70.8594 Q778.1781,70.7813 778.3813,70.7813 Q778.7094,70.7813 778.9672,71.0391 Q779.225,71.2969 779.225,71.6406 Q779.225,71.9844 778.8813,72.3906 Q778.3813,72.9688 777.5844,73.2969 Q776.5063,73.75 775.2094,73.75 Q773.6938,73.75 772.4906,73.125 Q771.5063,72.625 770.8188,71.5547 Q770.1313,70.4844 770.1313,69.2031 L770.1313,68.0469 Q770.1313,66.7188 770.7484,65.5703 Q771.3656,64.4219 772.4594,63.8047 Q773.5531,63.1875 774.7875,63.1875 Q775.5219,63.1875 776.1703,63.3516 Q776.8188,63.5156 777.3656,63.875 Z "/><text fill="#000000" font-family="sans-serif" font-size="12" lengthAdjust="spacingAndGlyphs" textLength="27" x="793.4" y="72.9102">User</text><line style="stroke: #A80036; stroke-width: 1.5;" x1="739" x2="844" y1="84" y2="84"/><rect fill="none" height="6" style="stroke: #C82930; stroke-width: 1.0;" width="6" x="746" y="93.418"/><text fill="#000000" font-family="sans-serif" font-size="11" lengthAdjust="spacingAndGlyphs" textLength="57" x="758" y="99.4189">String name</text><rect fill="none" height="6" style="stroke: #C82930; stroke-width: 1.0;" width="6" x="746" y="107.2539"/><text fill="#000000" font-family="sans-serif" font-size="11" lengthAdjust="spacingAndGlyphs" textLength="55" x="758" y="113.2549">String email</text><rect fill="none" height="6" style="stroke: #C82930; stroke-width: 1.0;" width="6" x="746" y="121.0898"/><text fill="#000000" font-family="sans-serif" font-size="11" lengthAdjust="spacingAndGlyphs" textLength="81" x="758" y="127.0908">String password</text><!--link Platform to Organization--><path d="M118.323,84.8472 C164.146,76.4376 228.944,64.5458 274.748,56.1398 " fill="none" id="Platform-Organization" style="stroke: #A80036; stroke-width: 1.0;"/><text fill="#000000" font-family="sans-serif" font-size="13" lengthAdjust="spacingAndGlyphs" textLength="82" x="149" y="58.4951">has registered</text><polygon fill="#000000" points="234,51.6758,240,54.6758,234,57.6758,234,51.6758" style="stroke: #000000; stroke-width: 1.0;"/><text fill="#000000" font-family="sans-serif" font-size="13" lengthAdjust="spacingAndGlyphs" textLength="7" x="125.9878" y="98.0995">1</text><text fill="#000000" font-family="sans-serif" font-size="13" lengthAdjust="spacingAndGlyphs" textLength="5" x="261.8532" y="72.1071">*</text><!--link Platform to User--><path d="M118.278,94.848 C254.395,94.4738 604.361,93.5117 737.768,93.145 " fill="none" id="Platform-User" style="stroke: #A80036; stroke-width: 1.0;"/><text fill="#000000" font-family="sans-serif" font-size="13" lengthAdjust="spacingAndGlyphs" textLength="82" x="418" y="90.4951">has registered</text><polygon fill="#000000" points="503,83.6758,509,86.6758,503,89.6758,503,83.6758" style="stroke: #000000; stroke-width: 1.0;"/><text fill="#000000" font-family="sans-serif" font-size="13" lengthAdjust="spacingAndGlyphs" textLength="7" x="125.9371" y="109.3817">1</text><text fill="#000000" font-family="sans-serif" font-size="13" lengthAdjust="spacingAndGlyphs" textLength="5" x="724.8604" y="107.8448">*</text><!--link Organization to Manager--><path d="M387.1,45.1271 C434.26,44.38 501.087,43.3214 543.611,42.6477 " fill="none" id="Organization-Manager" style="stroke: #A80036; stroke-width: 1.0;"/><text fill="#000000" font-family="sans-serif" font-size="13" lengthAdjust="spacingAndGlyphs" textLength="21" x="448.5" y="40.4951">has</text><polygon fill="#000000" points="472.5,33.6758,478.5,36.6758,472.5,39.6758,472.5,33.6758" style="stroke: #000000; stroke-width: 1.0;"/><text fill="#000000" font-family="sans-serif" font-size="13" lengthAdjust="spacingAndGlyphs" textLength="7" x="395.1088" y="59.6146">1</text><text fill="#000000" font-family="sans-serif" font-size="13" lengthAdjust="spacingAndGlyphs" textLength="7" x="529.0934" y="57.6314">1</text><!--link Manager to User--><path d="M627.292,52.198 C659.035,60.1338 703.328,71.207 737.763,79.8157 " fill="none" id="Manager-User" style="stroke: #A80036; stroke-width: 1.0;"/><text fill="#000000" font-family="sans-serif" font-size="13" lengthAdjust="spacingAndGlyphs" textLength="36" x="658" y="56.4951">act as</text><polygon fill="#000000" points="697,49.6758,703,52.6758,697,55.6758,697,49.6758" style="stroke: #000000; stroke-width: 1.0;"/><text fill="#000000" font-family="sans-serif" font-size="13" lengthAdjust="spacingAndGlyphs" textLength="22" x="635.0458" y="68.4159">0..1</text><text fill="#000000" font-family="sans-serif" font-size="13" lengthAdjust="spacingAndGlyphs" textLength="7" x="723.0718" y="74.5209">1</text><!--
@startuml

hide methods
left to right direction

class Platform {
  -String designation
}

class Organization {
  -String designation
}

class Manager {
  -String name
  -String email
}

class User {
  -String name
  -String email
  -String password
}

Platform "1" - - "*" Organization : has registered >
Platform "1" - - "*" User : has registered >

Organization "1" - - "1" Manager: has >

Manager "0..1" - - "1" User : act as >
@enduml

PlantUML version 1.2018.14(Fri Dec 21 16:33:16 GMT 2018)
(GPL source distribution)
Java Runtime: Java(TM) SE Runtime Environment
JVM: Java HotSpot(TM) 64-Bit Server VM
Java Version: 1.8.0_251-b08
Operating System: Windows 10
OS Version: 10.0
Default Encoding: Cp1252
Language: pt
Country: PT
--></g></svg>