<?xml version="1.0" encoding="UTF-8" standalone="no"?><svg xmlns="http://www.w3.org/2000/svg" xmlns:xlink="http://www.w3.org/1999/xlink" contentScriptType="application/ecmascript" contentStyleType="text/css" height="623px" preserveAspectRatio="none" style="width:1751px;height:623px;" version="1.1" viewBox="0 0 1751 623" width="1751px" zoomAndPan="magnify"><defs><filter height="300%" id="f6z6xhpfedohl" width="300%" x="-1" y="-1"><feGaussianBlur result="blurOut" stdDeviation="2.0"/><feColorMatrix in="blurOut" result="blurOut2" type="matrix" values="0 0 0 0 0 0 0 0 0 0 0 0 0 0 0 0 0 0 .4 0"/><feOffset dx="4.0" dy="4.0" in="blurOut2" result="blurOut3"/><feBlend in="SourceGraphic" in2="blurOut3" mode="normal"/></filter></defs><g><!--MD5=[99b8db98afdc2c8404e39242ef4c1e65]
class Platform--><rect fill="#FEFECE" filter="url(#f6z6xhpfedohl)" height="53.8359" id="Platform" style="stroke: #A80036; stroke-width: 1.5;" width="112" x="6" y="378"/><ellipse cx="36.3" cy="394" fill="#ADD1B2" rx="11" ry="11" style="stroke: #A80036; stroke-width: 1.0;"/><path d="M38.3,390.5 Q38.5031,390 38.7375,389.75 Q38.9719,389.5 39.2375,389.5 Q39.7063,389.5 40.0031,389.7813 Q40.3,390.0625 40.3,390.7188 L40.3,392.2813 Q40.3,392.9375 40.0188,393.2188 Q39.7375,393.5 39.3,393.5 Q38.9094,393.5 38.6594,393.3281 Q38.4094,393.1563 38.3,392.7031 Q38.2531,392.3906 38.0813,392.2188 Q37.7688,391.8906 37.2063,391.7031 Q36.6438,391.5 36.0813,391.5 Q35.3781,391.5 34.7844,391.7813 Q34.2063,392.0625 33.7531,392.6875 Q33.3,393.3125 33.3,394.1719 L33.3,395.0938 Q33.3,396.125 34.1438,396.8125 Q34.9875,397.5 36.4875,397.5 Q37.3781,397.5 38.0031,397.2969 Q38.3625,397.1875 38.7688,396.8281 Q39.0344,396.625 39.175,396.5625 Q39.3156,396.5 39.4875,396.5 Q39.8156,396.5 40.05,396.7656 Q40.3,397.0156 40.3,397.375 Q40.3,397.7188 39.9563,398.125 Q39.4563,398.7188 38.6594,399.0469 Q37.6125,399.5 36.3313,399.5 Q34.8313,399.5 33.6281,398.9063 Q32.6594,398.4375 31.9719,397.4219 Q31.3,396.4063 31.3,395.2031 L31.3,394.1094 Q31.3,392.8594 31.8938,391.7656 Q32.5031,390.6719 33.55,390.0938 Q34.6125,389.5 35.8,389.5 Q36.5188,389.5 37.1438,389.75 Q37.7688,390 38.3,390.5 Z "/><text fill="#000000" font-family="sans-serif" font-size="12" lengthAdjust="spacingAndGlyphs" textLength="46" x="53.7" y="398.9102">Platform</text><line style="stroke: #A80036; stroke-width: 1.5;" x1="7" x2="117" y1="410" y2="410"/><rect fill="none" height="6" style="stroke: #C82930; stroke-width: 1.0;" width="6" x="14" y="418"/><text fill="#000000" font-family="sans-serif" font-size="11" lengthAdjust="spacingAndGlyphs" textLength="86" x="26" y="425.4189">String designation</text><!--MD5=[86c7c362de55a38b660185a1328fe18d]
class Organization--><rect fill="#FEFECE" filter="url(#f6z6xhpfedohl)" height="53.8359" id="Organization" style="stroke: #A80036; stroke-width: 1.5;" width="112" x="275" y="239"/><ellipse cx="294.95" cy="255" fill="#ADD1B2" rx="11" ry="11" style="stroke: #A80036; stroke-width: 1.0;"/><path d="M296.95,251.5 Q297.1531,251 297.3875,250.75 Q297.6219,250.5 297.8875,250.5 Q298.3563,250.5 298.6531,250.7813 Q298.95,251.0625 298.95,251.7188 L298.95,253.2813 Q298.95,253.9375 298.6688,254.2188 Q298.3875,254.5 297.95,254.5 Q297.5594,254.5 297.3094,254.3281 Q297.0594,254.1563 296.95,253.7031 Q296.9031,253.3906 296.7313,253.2188 Q296.4188,252.8906 295.8563,252.7031 Q295.2938,252.5 294.7313,252.5 Q294.0281,252.5 293.4344,252.7813 Q292.8563,253.0625 292.4031,253.6875 Q291.95,254.3125 291.95,255.1719 L291.95,256.0938 Q291.95,257.125 292.7938,257.8125 Q293.6375,258.5 295.1375,258.5 Q296.0281,258.5 296.6531,258.2969 Q297.0125,258.1875 297.4188,257.8281 Q297.6844,257.625 297.825,257.5625 Q297.9656,257.5 298.1375,257.5 Q298.4656,257.5 298.7,257.7656 Q298.95,258.0156 298.95,258.375 Q298.95,258.7188 298.6063,259.125 Q298.1063,259.7188 297.3094,260.0469 Q296.2625,260.5 294.9813,260.5 Q293.4813,260.5 292.2781,259.9063 Q291.3094,259.4375 290.6219,258.4219 Q289.95,257.4063 289.95,256.2031 L289.95,255.1094 Q289.95,253.8594 290.5438,252.7656 Q291.1531,251.6719 292.2,251.0938 Q293.2625,250.5 294.45,250.5 Q295.1688,250.5 295.7938,250.75 Q296.4188,251 296.95,251.5 Z "/><text fill="#000000" font-family="sans-serif" font-size="12" lengthAdjust="spacingAndGlyphs" textLength="69" x="310.05" y="259.9102">Organization</text><line style="stroke: #A80036; stroke-width: 1.5;" x1="276" x2="386" y1="271" y2="271"/><rect fill="none" height="6" style="stroke: #C82930; stroke-width: 1.0;" width="6" x="283" y="279"/><text fill="#000000" font-family="sans-serif" font-size="11" lengthAdjust="spacingAndGlyphs" textLength="86" x="295" y="286.4189">String designation</text><!--MD5=[3fd616f346a44cd59a91eb10b19e157c]
class User--><rect fill="#FEFECE" filter="url(#f6z6xhpfedohl)" height="81.5078" id="User" style="stroke: #A80036; stroke-width: 1.5;" width="107" x="923" y="8"/><ellipse cx="959.6" cy="24" fill="#ADD1B2" rx="11" ry="11" style="stroke: #A80036; stroke-width: 1.0;"/><path d="M961.6,20.5 Q961.8031,20 962.0375,19.75 Q962.2719,19.5 962.5375,19.5 Q963.0063,19.5 963.3031,19.7813 Q963.6,20.0625 963.6,20.7188 L963.6,22.2813 Q963.6,22.9375 963.3188,23.2188 Q963.0375,23.5 962.6,23.5 Q962.2094,23.5 961.9594,23.3281 Q961.7094,23.1563 961.6,22.7031 Q961.5531,22.3906 961.3813,22.2188 Q961.0688,21.8906 960.5063,21.7031 Q959.9438,21.5 959.3813,21.5 Q958.6781,21.5 958.0844,21.7813 Q957.5063,22.0625 957.0531,22.6875 Q956.6,23.3125 956.6,24.1719 L956.6,25.0938 Q956.6,26.125 957.4438,26.8125 Q958.2875,27.5 959.7875,27.5 Q960.6781,27.5 961.3031,27.2969 Q961.6625,27.1875 962.0688,26.8281 Q962.3344,26.625 962.475,26.5625 Q962.6156,26.5 962.7875,26.5 Q963.1156,26.5 963.35,26.7656 Q963.6,27.0156 963.6,27.375 Q963.6,27.7188 963.2563,28.125 Q962.7563,28.7188 961.9594,29.0469 Q960.9125,29.5 959.6313,29.5 Q958.1313,29.5 956.9281,28.9063 Q955.9594,28.4375 955.2719,27.4219 Q954.6,26.4063 954.6,25.2031 L954.6,24.1094 Q954.6,22.8594 955.1938,21.7656 Q955.8031,20.6719 956.85,20.0938 Q957.9125,19.5 959.1,19.5 Q959.8188,19.5 960.4438,19.75 Q961.0688,20 961.6,20.5 Z "/><text fill="#000000" font-family="sans-serif" font-size="12" lengthAdjust="spacingAndGlyphs" textLength="27" x="978.4" y="28.9102">User</text><line style="stroke: #A80036; stroke-width: 1.5;" x1="924" x2="1029" y1="40" y2="40"/><rect fill="none" height="6" style="stroke: #C82930; stroke-width: 1.0;" width="6" x="931" y="48"/><text fill="#000000" font-family="sans-serif" font-size="11" lengthAdjust="spacingAndGlyphs" textLength="57" x="943" y="55.4189">String name</text><rect fill="none" height="6" style="stroke: #C82930; stroke-width: 1.0;" width="6" x="931" y="61.8359"/><text fill="#000000" font-family="sans-serif" font-size="11" lengthAdjust="spacingAndGlyphs" textLength="55" x="943" y="69.2549">String email</text><rect fill="none" height="6" style="stroke: #C82930; stroke-width: 1.0;" width="6" x="931" y="75.6719"/><text fill="#000000" font-family="sans-serif" font-size="11" lengthAdjust="spacingAndGlyphs" textLength="81" x="943" y="83.0908">String password</text><!--MD5=[b24ed8d4ae84bae9290d9aab401637c7]
class Manager--><rect fill="#FEFECE" filter="url(#f6z6xhpfedohl)" height="67.6719" id="Manager" style="stroke: #A80036; stroke-width: 1.5;" width="83" x="654" y="196"/><ellipse cx="670.35" cy="212" fill="#ADD1B2" rx="11" ry="11" style="stroke: #A80036; stroke-width: 1.0;"/><path d="M672.35,208.5 Q672.5531,208 672.7875,207.75 Q673.0219,207.5 673.2875,207.5 Q673.7563,207.5 674.0531,207.7813 Q674.35,208.0625 674.35,208.7188 L674.35,210.2813 Q674.35,210.9375 674.0688,211.2188 Q673.7875,211.5 673.35,211.5 Q672.9594,211.5 672.7094,211.3281 Q672.4594,211.1563 672.35,210.7031 Q672.3031,210.3906 672.1313,210.2188 Q671.8188,209.8906 671.2563,209.7031 Q670.6938,209.5 670.1313,209.5 Q669.4281,209.5 668.8344,209.7813 Q668.2563,210.0625 667.8031,210.6875 Q667.35,211.3125 667.35,212.1719 L667.35,213.0938 Q667.35,214.125 668.1938,214.8125 Q669.0375,215.5 670.5375,215.5 Q671.4281,215.5 672.0531,215.2969 Q672.4125,215.1875 672.8188,214.8281 Q673.0844,214.625 673.225,214.5625 Q673.3656,214.5 673.5375,214.5 Q673.8656,214.5 674.1,214.7656 Q674.35,215.0156 674.35,215.375 Q674.35,215.7188 674.0063,216.125 Q673.5063,216.7188 672.7094,217.0469 Q671.6625,217.5 670.3813,217.5 Q668.8813,217.5 667.6781,216.9063 Q666.7094,216.4375 666.0219,215.4219 Q665.35,214.4063 665.35,213.2031 L665.35,212.1094 Q665.35,210.8594 665.9438,209.7656 Q666.5531,208.6719 667.6,208.0938 Q668.6625,207.5 669.85,207.5 Q670.5688,207.5 671.1938,207.75 Q671.8188,208 672.35,208.5 Z "/><text fill="#000000" font-family="sans-serif" font-size="12" lengthAdjust="spacingAndGlyphs" textLength="48" x="684.65" y="216.9102">Manager</text><line style="stroke: #A80036; stroke-width: 1.5;" x1="655" x2="736" y1="228" y2="228"/><rect fill="none" height="6" style="stroke: #C82930; stroke-width: 1.0;" width="6" x="662" y="236"/><text fill="#000000" font-family="sans-serif" font-size="11" lengthAdjust="spacingAndGlyphs" textLength="57" x="674" y="243.4189">String name</text><rect fill="none" height="6" style="stroke: #C82930; stroke-width: 1.0;" width="6" x="662" y="249.8359"/><text fill="#000000" font-family="sans-serif" font-size="11" lengthAdjust="spacingAndGlyphs" textLength="55" x="674" y="257.2549">String email</text><!--MD5=[1f687b5315377fe49fca59b457947463]
class Freelancer--><rect fill="#FEFECE" filter="url(#f6z6xhpfedohl)" height="123.0156" id="Freelancer" style="stroke: #A80036; stroke-width: 1.5;" width="134" x="1135" y="423.5"/><ellipse cx="1169.35" cy="439.5" fill="#ADD1B2" rx="11" ry="11" style="stroke: #A80036; stroke-width: 1.0;"/><path d="M1171.35,436 Q1171.5531,435.5 1171.7875,435.25 Q1172.0219,435 1172.2875,435 Q1172.7563,435 1173.0531,435.2813 Q1173.35,435.5625 1173.35,436.2188 L1173.35,437.7813 Q1173.35,438.4375 1173.0688,438.7188 Q1172.7875,439 1172.35,439 Q1171.9594,439 1171.7094,438.8281 Q1171.4594,438.6563 1171.35,438.2031 Q1171.3031,437.8906 1171.1313,437.7188 Q1170.8188,437.3906 1170.2563,437.2031 Q1169.6938,437 1169.1313,437 Q1168.4281,437 1167.8344,437.2813 Q1167.2563,437.5625 1166.8031,438.1875 Q1166.35,438.8125 1166.35,439.6719 L1166.35,440.5938 Q1166.35,441.625 1167.1938,442.3125 Q1168.0375,443 1169.5375,443 Q1170.4281,443 1171.0531,442.7969 Q1171.4125,442.6875 1171.8188,442.3281 Q1172.0844,442.125 1172.225,442.0625 Q1172.3656,442 1172.5375,442 Q1172.8656,442 1173.1,442.2656 Q1173.35,442.5156 1173.35,442.875 Q1173.35,443.2188 1173.0063,443.625 Q1172.5063,444.2188 1171.7094,444.5469 Q1170.6625,445 1169.3813,445 Q1167.8813,445 1166.6781,444.4063 Q1165.7094,443.9375 1165.0219,442.9219 Q1164.35,441.9063 1164.35,440.7031 L1164.35,439.6094 Q1164.35,438.3594 1164.9438,437.2656 Q1165.5531,436.1719 1166.6,435.5938 Q1167.6625,435 1168.85,435 Q1169.5688,435 1170.1938,435.25 Q1170.8188,435.5 1171.35,436 Z "/><text fill="#000000" font-family="sans-serif" font-size="12" lengthAdjust="spacingAndGlyphs" textLength="59" x="1187.65" y="444.4102">Freelancer</text><line style="stroke: #A80036; stroke-width: 1.5;" x1="1136" x2="1268" y1="455.5" y2="455.5"/><rect fill="none" height="6" style="stroke: #C82930; stroke-width: 1.0;" width="6" x="1143" y="463.5"/><text fill="#000000" font-family="sans-serif" font-size="11" lengthAdjust="spacingAndGlyphs" textLength="39" x="1155" y="470.9189">String id</text><rect fill="none" height="6" style="stroke: #C82930; stroke-width: 1.0;" width="6" x="1143" y="477.3359"/><text fill="#000000" font-family="sans-serif" font-size="11" lengthAdjust="spacingAndGlyphs" textLength="57" x="1155" y="484.7549">String name</text><rect fill="none" height="6" style="stroke: #C82930; stroke-width: 1.0;" width="6" x="1143" y="491.1719"/><text fill="#000000" font-family="sans-serif" font-size="11" lengthAdjust="spacingAndGlyphs" textLength="55" x="1155" y="498.5908">String email</text><rect fill="none" height="6" style="stroke: #C82930; stroke-width: 1.0;" width="6" x="1143" y="505.0078"/><text fill="#000000" font-family="sans-serif" font-size="11" lengthAdjust="spacingAndGlyphs" textLength="51" x="1155" y="512.4268">Integer NIF</text><rect fill="none" height="6" style="stroke: #C82930; stroke-width: 1.0;" width="6" x="1143" y="518.8438"/><text fill="#000000" font-family="sans-serif" font-size="11" lengthAdjust="spacingAndGlyphs" textLength="55" x="1155" y="526.2627">String IBAN</text><rect fill="none" height="6" style="stroke: #C82930; stroke-width: 1.0;" width="6" x="1143" y="532.6797"/><text fill="#000000" font-family="sans-serif" font-size="11" lengthAdjust="spacingAndGlyphs" textLength="108" x="1155" y="540.0986">double overallPayment</text><!--MD5=[5b387e0e958626cd8cbfab96fbdae709]
class LevelOfExpertise--><rect fill="#FEFECE" filter="url(#f6z6xhpfedohl)" height="67.6719" id="LevelOfExpertise" style="stroke: #A80036; stroke-width: 1.5;" width="124" x="1376.5" y="442"/><ellipse cx="1391.5" cy="458" fill="#EB937F" rx="11" ry="11" style="stroke: #A80036; stroke-width: 1.0;"/><path d="M1390,459 L1390,461 L1394,461 L1394,460 L1394,459.5156 L1394.625,459 L1395,459 L1395.375,459 L1396,459.5156 L1396,460 L1396,463 L1388,463 L1387.5156,463 L1387,462.375 L1387,462 L1387,461.625 L1387.5156,461 L1388,461 L1388,461 L1388,455 L1388,455 L1387.5156,455 L1387,454.375 L1387,454 L1387,453.625 L1387.5156,453 L1388,453 L1396,453 L1396,456 L1396,456.4844 L1395.375,457 L1395,457 L1394.625,457 L1394,456.4844 L1394,456 L1394,455 L1390,455 L1390,457 L1391,457 L1391,456.5156 L1391,456.5156 L1391.625,456 L1392,456 L1392.375,456 L1393,456.5156 L1393,457 L1393,459 L1393,459.4844 L1392.375,460 L1392.375,460 L1392,460 L1391.625,460 L1391,459.4844 L1391,459.4844 L1391,459 L1390,459 Z "/><text fill="#000000" font-family="sans-serif" font-size="12" lengthAdjust="spacingAndGlyphs" textLength="92" x="1405.5" y="462.9102">LevelOfExpertise</text><line style="stroke: #A80036; stroke-width: 1.5;" x1="1377.5" x2="1499.5" y1="474" y2="474"/><rect fill="none" height="6" style="stroke: #C82930; stroke-width: 1.0;" width="6" x="1384.5" y="482"/><text fill="#000000" font-family="sans-serif" font-size="11" lengthAdjust="spacingAndGlyphs" textLength="36" x="1396.5" y="489.4189">JUNIOR</text><rect fill="none" height="6" style="stroke: #C82930; stroke-width: 1.0;" width="6" x="1384.5" y="495.8359"/><text fill="#000000" font-family="sans-serif" font-size="11" lengthAdjust="spacingAndGlyphs" textLength="37" x="1396.5" y="503.2549">SENIOR</text><!--MD5=[4f1f3706c1a355a8488e154afcaed5df]
class Location--><rect fill="#FEFECE" filter="url(#f6z6xhpfedohl)" height="67.6719" id="Location" style="stroke: #A80036; stroke-width: 1.5;" width="97" x="1390" y="545"/><ellipse cx="1413.1" cy="561" fill="#ADD1B2" rx="11" ry="11" style="stroke: #A80036; stroke-width: 1.0;"/><path d="M1415.1,557.5 Q1415.3031,557 1415.5375,556.75 Q1415.7719,556.5 1416.0375,556.5 Q1416.5063,556.5 1416.8031,556.7813 Q1417.1,557.0625 1417.1,557.7188 L1417.1,559.2813 Q1417.1,559.9375 1416.8188,560.2188 Q1416.5375,560.5 1416.1,560.5 Q1415.7094,560.5 1415.4594,560.3281 Q1415.2094,560.1563 1415.1,559.7031 Q1415.0531,559.3906 1414.8813,559.2188 Q1414.5688,558.8906 1414.0063,558.7031 Q1413.4438,558.5 1412.8813,558.5 Q1412.1781,558.5 1411.5844,558.7813 Q1411.0063,559.0625 1410.5531,559.6875 Q1410.1,560.3125 1410.1,561.1719 L1410.1,562.0938 Q1410.1,563.125 1410.9438,563.8125 Q1411.7875,564.5 1413.2875,564.5 Q1414.1781,564.5 1414.8031,564.2969 Q1415.1625,564.1875 1415.5688,563.8281 Q1415.8344,563.625 1415.975,563.5625 Q1416.1156,563.5 1416.2875,563.5 Q1416.6156,563.5 1416.85,563.7656 Q1417.1,564.0156 1417.1,564.375 Q1417.1,564.7188 1416.7563,565.125 Q1416.2563,565.7188 1415.4594,566.0469 Q1414.4125,566.5 1413.1313,566.5 Q1411.6313,566.5 1410.4281,565.9063 Q1409.4594,565.4375 1408.7719,564.4219 Q1408.1,563.4063 1408.1,562.2031 L1408.1,561.1094 Q1408.1,559.8594 1408.6938,558.7656 Q1409.3031,557.6719 1410.35,557.0938 Q1411.4125,556.5 1412.6,556.5 Q1413.3188,556.5 1413.9438,556.75 Q1414.5688,557 1415.1,557.5 Z "/><text fill="#000000" font-family="sans-serif" font-size="12" lengthAdjust="spacingAndGlyphs" textLength="47" x="1428.9" y="565.9102">Location</text><line style="stroke: #A80036; stroke-width: 1.5;" x1="1391" x2="1486" y1="577" y2="577"/><rect fill="none" height="6" style="stroke: #C82930; stroke-width: 1.0;" width="6" x="1398" y="585"/><text fill="#000000" font-family="sans-serif" font-size="11" lengthAdjust="spacingAndGlyphs" textLength="71" x="1410" y="592.4189">String address</text><rect fill="none" height="6" style="stroke: #C82930; stroke-width: 1.0;" width="6" x="1398" y="598.8359"/><text fill="#000000" font-family="sans-serif" font-size="11" lengthAdjust="spacingAndGlyphs" textLength="68" x="1410" y="606.2549">String country</text><!--MD5=[b645a18afb25b7e5623af7186d8eb36f]
class PaymentTransaction--><rect fill="#FEFECE" filter="url(#f6z6xhpfedohl)" height="53.8359" id="PaymentTransaction" style="stroke: #A80036; stroke-width: 1.5;" width="145" x="904" y="309"/><ellipse cx="919" cy="325" fill="#ADD1B2" rx="11" ry="11" style="stroke: #A80036; stroke-width: 1.0;"/><path d="M921,321.5 Q921.2031,321 921.4375,320.75 Q921.6719,320.5 921.9375,320.5 Q922.4063,320.5 922.7031,320.7813 Q923,321.0625 923,321.7188 L923,323.2813 Q923,323.9375 922.7188,324.2188 Q922.4375,324.5 922,324.5 Q921.6094,324.5 921.3594,324.3281 Q921.1094,324.1563 921,323.7031 Q920.9531,323.3906 920.7813,323.2188 Q920.4688,322.8906 919.9063,322.7031 Q919.3438,322.5 918.7813,322.5 Q918.0781,322.5 917.4844,322.7813 Q916.9063,323.0625 916.4531,323.6875 Q916,324.3125 916,325.1719 L916,326.0938 Q916,327.125 916.8438,327.8125 Q917.6875,328.5 919.1875,328.5 Q920.0781,328.5 920.7031,328.2969 Q921.0625,328.1875 921.4688,327.8281 Q921.7344,327.625 921.875,327.5625 Q922.0156,327.5 922.1875,327.5 Q922.5156,327.5 922.75,327.7656 Q923,328.0156 923,328.375 Q923,328.7188 922.6563,329.125 Q922.1563,329.7188 921.3594,330.0469 Q920.3125,330.5 919.0313,330.5 Q917.5313,330.5 916.3281,329.9063 Q915.3594,329.4375 914.6719,328.4219 Q914,327.4063 914,326.2031 L914,325.1094 Q914,323.8594 914.5938,322.7656 Q915.2031,321.6719 916.25,321.0938 Q917.3125,320.5 918.5,320.5 Q919.2188,320.5 919.8438,320.75 Q920.4688,321 921,321.5 Z "/><text fill="#000000" font-family="sans-serif" font-size="12" lengthAdjust="spacingAndGlyphs" textLength="113" x="933" y="329.9102">PaymentTransaction</text><line style="stroke: #A80036; stroke-width: 1.5;" x1="905" x2="1048" y1="341" y2="341"/><rect fill="none" height="6" style="stroke: #C82930; stroke-width: 1.0;" width="6" x="912" y="349"/><text fill="#000000" font-family="sans-serif" font-size="11" lengthAdjust="spacingAndGlyphs" textLength="39" x="924" y="356.4189">String id</text><!--MD5=[b34797a66dc35cbf1d65f7e3ca75530e]
class Task--><rect fill="#FEFECE" filter="url(#f6z6xhpfedohl)" height="109.1797" id="Task" style="stroke: #A80036; stroke-width: 1.5;" width="133" x="1372" y="281.5"/><ellipse cx="1420.75" cy="297.5" fill="#ADD1B2" rx="11" ry="11" style="stroke: #A80036; stroke-width: 1.0;"/><path d="M1422.75,294 Q1422.9531,293.5 1423.1875,293.25 Q1423.4219,293 1423.6875,293 Q1424.1563,293 1424.4531,293.2813 Q1424.75,293.5625 1424.75,294.2188 L1424.75,295.7813 Q1424.75,296.4375 1424.4688,296.7188 Q1424.1875,297 1423.75,297 Q1423.3594,297 1423.1094,296.8281 Q1422.8594,296.6563 1422.75,296.2031 Q1422.7031,295.8906 1422.5313,295.7188 Q1422.2188,295.3906 1421.6563,295.2031 Q1421.0938,295 1420.5313,295 Q1419.8281,295 1419.2344,295.2813 Q1418.6563,295.5625 1418.2031,296.1875 Q1417.75,296.8125 1417.75,297.6719 L1417.75,298.5938 Q1417.75,299.625 1418.5938,300.3125 Q1419.4375,301 1420.9375,301 Q1421.8281,301 1422.4531,300.7969 Q1422.8125,300.6875 1423.2188,300.3281 Q1423.4844,300.125 1423.625,300.0625 Q1423.7656,300 1423.9375,300 Q1424.2656,300 1424.5,300.2656 Q1424.75,300.5156 1424.75,300.875 Q1424.75,301.2188 1424.4063,301.625 Q1423.9063,302.2188 1423.1094,302.5469 Q1422.0625,303 1420.7813,303 Q1419.2813,303 1418.0781,302.4063 Q1417.1094,301.9375 1416.4219,300.9219 Q1415.75,299.9063 1415.75,298.7031 L1415.75,297.6094 Q1415.75,296.3594 1416.3438,295.2656 Q1416.9531,294.1719 1418,293.5938 Q1419.0625,293 1420.25,293 Q1420.9688,293 1421.5938,293.25 Q1422.2188,293.5 1422.75,294 Z "/><text fill="#000000" font-family="sans-serif" font-size="12" lengthAdjust="spacingAndGlyphs" textLength="27" x="1441.25" y="302.4102">Task</text><line style="stroke: #A80036; stroke-width: 1.5;" x1="1373" x2="1504" y1="313.5" y2="313.5"/><rect fill="none" height="6" style="stroke: #C82930; stroke-width: 1.0;" width="6" x="1380" y="321.5"/><text fill="#000000" font-family="sans-serif" font-size="11" lengthAdjust="spacingAndGlyphs" textLength="39" x="1392" y="328.9189">String id</text><rect fill="none" height="6" style="stroke: #C82930; stroke-width: 1.0;" width="6" x="1380" y="335.3359"/><text fill="#000000" font-family="sans-serif" font-size="11" lengthAdjust="spacingAndGlyphs" textLength="107" x="1392" y="342.7549">String briefDescription</text><rect fill="none" height="6" style="stroke: #C82930; stroke-width: 1.0;" width="6" x="1380" y="349.1719"/><text fill="#000000" font-family="sans-serif" font-size="11" lengthAdjust="spacingAndGlyphs" textLength="95" x="1392" y="356.5908">Double timeDuration</text><rect fill="none" height="6" style="stroke: #C82930; stroke-width: 1.0;" width="6" x="1380" y="363.0078"/><text fill="#000000" font-family="sans-serif" font-size="11" lengthAdjust="spacingAndGlyphs" textLength="96" x="1392" y="370.4268">Double costPerHour</text><rect fill="none" height="6" style="stroke: #C82930; stroke-width: 1.0;" width="6" x="1380" y="376.8438"/><text fill="#000000" font-family="sans-serif" font-size="11" lengthAdjust="spacingAndGlyphs" textLength="74" x="1392" y="384.2627">String category</text><!--MD5=[5ce80547de3caced9d0089e35ded5090]
class TaskExecution--><rect fill="#FEFECE" filter="url(#f6z6xhpfedohl)" height="81.5078" id="TaskExecution" style="stroke: #A80036; stroke-width: 1.5;" width="139" x="1601" y="295"/><ellipse cx="1628.15" cy="311" fill="#ADD1B2" rx="11" ry="11" style="stroke: #A80036; stroke-width: 1.0;"/><path d="M1630.15,307.5 Q1630.3531,307 1630.5875,306.75 Q1630.8219,306.5 1631.0875,306.5 Q1631.5563,306.5 1631.8531,306.7813 Q1632.15,307.0625 1632.15,307.7188 L1632.15,309.2813 Q1632.15,309.9375 1631.8688,310.2188 Q1631.5875,310.5 1631.15,310.5 Q1630.7594,310.5 1630.5094,310.3281 Q1630.2594,310.1563 1630.15,309.7031 Q1630.1031,309.3906 1629.9313,309.2188 Q1629.6188,308.8906 1629.0563,308.7031 Q1628.4938,308.5 1627.9313,308.5 Q1627.2281,308.5 1626.6344,308.7813 Q1626.0563,309.0625 1625.6031,309.6875 Q1625.15,310.3125 1625.15,311.1719 L1625.15,312.0938 Q1625.15,313.125 1625.9938,313.8125 Q1626.8375,314.5 1628.3375,314.5 Q1629.2281,314.5 1629.8531,314.2969 Q1630.2125,314.1875 1630.6188,313.8281 Q1630.8844,313.625 1631.025,313.5625 Q1631.1656,313.5 1631.3375,313.5 Q1631.6656,313.5 1631.9,313.7656 Q1632.15,314.0156 1632.15,314.375 Q1632.15,314.7188 1631.8063,315.125 Q1631.3063,315.7188 1630.5094,316.0469 Q1629.4625,316.5 1628.1813,316.5 Q1626.6813,316.5 1625.4781,315.9063 Q1624.5094,315.4375 1623.8219,314.4219 Q1623.15,313.4063 1623.15,312.2031 L1623.15,311.1094 Q1623.15,309.8594 1623.7438,308.7656 Q1624.3531,307.6719 1625.4,307.0938 Q1626.4625,306.5 1627.65,306.5 Q1628.3688,306.5 1628.9938,306.75 Q1629.6188,307 1630.15,307.5 Z "/><text fill="#000000" font-family="sans-serif" font-size="12" lengthAdjust="spacingAndGlyphs" textLength="80" x="1644.85" y="315.9102">TaskExecution</text><line style="stroke: #A80036; stroke-width: 1.5;" x1="1602" x2="1739" y1="327" y2="327"/><rect fill="none" height="6" style="stroke: #C82930; stroke-width: 1.0;" width="6" x="1609" y="335"/><text fill="#000000" font-family="sans-serif" font-size="11" lengthAdjust="spacingAndGlyphs" textLength="65" x="1621" y="342.4189">Date deadline</text><rect fill="none" height="6" style="stroke: #C82930; stroke-width: 1.0;" width="6" x="1609" y="348.8359"/><text fill="#000000" font-family="sans-serif" font-size="11" lengthAdjust="spacingAndGlyphs" textLength="62" x="1621" y="356.2549">Double delay</text><rect fill="none" height="6" style="stroke: #C82930; stroke-width: 1.0;" width="6" x="1609" y="362.6719"/><text fill="#000000" font-family="sans-serif" font-size="11" lengthAdjust="spacingAndGlyphs" textLength="113" x="1621" y="370.0908">String descQualityWork</text><!--MD5=[98e336d316534932ff774639813936bd]
class ExternalEmailSenderAlgorithm--><rect fill="#FEFECE" filter="url(#f6z6xhpfedohl)" height="40" id="ExternalEmailSenderAlgorithm" style="stroke: #A80036; stroke-width: 1.5;" width="200" x="417" y="557"/><ellipse cx="432" cy="573" fill="#ADD1B2" rx="11" ry="11" style="stroke: #A80036; stroke-width: 1.0;"/><path d="M434,569.5 Q434.2031,569 434.4375,568.75 Q434.6719,568.5 434.9375,568.5 Q435.4063,568.5 435.7031,568.7813 Q436,569.0625 436,569.7188 L436,571.2813 Q436,571.9375 435.7188,572.2188 Q435.4375,572.5 435,572.5 Q434.6094,572.5 434.3594,572.3281 Q434.1094,572.1563 434,571.7031 Q433.9531,571.3906 433.7813,571.2188 Q433.4688,570.8906 432.9063,570.7031 Q432.3438,570.5 431.7813,570.5 Q431.0781,570.5 430.4844,570.7813 Q429.9063,571.0625 429.4531,571.6875 Q429,572.3125 429,573.1719 L429,574.0938 Q429,575.125 429.8438,575.8125 Q430.6875,576.5 432.1875,576.5 Q433.0781,576.5 433.7031,576.2969 Q434.0625,576.1875 434.4688,575.8281 Q434.7344,575.625 434.875,575.5625 Q435.0156,575.5 435.1875,575.5 Q435.5156,575.5 435.75,575.7656 Q436,576.0156 436,576.375 Q436,576.7188 435.6563,577.125 Q435.1563,577.7188 434.3594,578.0469 Q433.3125,578.5 432.0313,578.5 Q430.5313,578.5 429.3281,577.9063 Q428.3594,577.4375 427.6719,576.4219 Q427,575.4063 427,574.2031 L427,573.1094 Q427,571.8594 427.5938,570.7656 Q428.2031,569.6719 429.25,569.0938 Q430.3125,568.5 431.5,568.5 Q432.2188,568.5 432.8438,568.75 Q433.4688,569 434,569.5 Z "/><text fill="#000000" font-family="sans-serif" font-size="12" lengthAdjust="spacingAndGlyphs" textLength="168" x="446" y="577.9102">ExternalEmailSenderAlgorithm</text><line style="stroke: #A80036; stroke-width: 1.5;" x1="418" x2="616" y1="589" y2="589"/><!--MD5=[e9ad88b19601dba32dc00d874c66b01d]
class Conversion--><rect fill="#FEFECE" filter="url(#f6z6xhpfedohl)" height="40" id="Conversion" style="stroke: #A80036; stroke-width: 1.5;" width="95" x="469.5" y="385"/><ellipse cx="484.5" cy="401" fill="#ADD1B2" rx="11" ry="11" style="stroke: #A80036; stroke-width: 1.0;"/><path d="M486.5,397.5 Q486.7031,397 486.9375,396.75 Q487.1719,396.5 487.4375,396.5 Q487.9063,396.5 488.2031,396.7813 Q488.5,397.0625 488.5,397.7188 L488.5,399.2813 Q488.5,399.9375 488.2188,400.2188 Q487.9375,400.5 487.5,400.5 Q487.1094,400.5 486.8594,400.3281 Q486.6094,400.1563 486.5,399.7031 Q486.4531,399.3906 486.2813,399.2188 Q485.9688,398.8906 485.4063,398.7031 Q484.8438,398.5 484.2813,398.5 Q483.5781,398.5 482.9844,398.7813 Q482.4063,399.0625 481.9531,399.6875 Q481.5,400.3125 481.5,401.1719 L481.5,402.0938 Q481.5,403.125 482.3438,403.8125 Q483.1875,404.5 484.6875,404.5 Q485.5781,404.5 486.2031,404.2969 Q486.5625,404.1875 486.9688,403.8281 Q487.2344,403.625 487.375,403.5625 Q487.5156,403.5 487.6875,403.5 Q488.0156,403.5 488.25,403.7656 Q488.5,404.0156 488.5,404.375 Q488.5,404.7188 488.1563,405.125 Q487.6563,405.7188 486.8594,406.0469 Q485.8125,406.5 484.5313,406.5 Q483.0313,406.5 481.8281,405.9063 Q480.8594,405.4375 480.1719,404.4219 Q479.5,403.4063 479.5,402.2031 L479.5,401.1094 Q479.5,399.8594 480.0938,398.7656 Q480.7031,397.6719 481.75,397.0938 Q482.8125,396.5 484,396.5 Q484.7188,396.5 485.3438,396.75 Q485.9688,397 486.5,397.5 Z "/><text fill="#000000" font-family="sans-serif" font-size="12" lengthAdjust="spacingAndGlyphs" textLength="63" x="498.5" y="405.9102">Conversion</text><line style="stroke: #A80036; stroke-width: 1.5;" x1="470.5" x2="563.5" y1="417" y2="417"/><!--MD5=[7640e466c042ba2d6f9c19c816f7f0fc]
link Platform to Organization--><path d="M115.114,377.869 C162.16,353.377 231.012,317.533 278.017,293.062 " fill="none" id="Platform-Organization" style="stroke: #A80036; stroke-width: 1.0;"/><text fill="#000000" font-family="sans-serif" font-size="13" lengthAdjust="spacingAndGlyphs" textLength="82" x="149" y="306.4951">has registered</text><polygon fill="#000000" points="234,299.6758,240,302.6758,234,305.6758,234,299.6758" style="stroke: #000000; stroke-width: 1.0;"/><text fill="#000000" font-family="sans-serif" font-size="13" lengthAdjust="spacingAndGlyphs" textLength="7" x="119.5872" y="367.2997">1</text><text fill="#000000" font-family="sans-serif" font-size="13" lengthAdjust="spacingAndGlyphs" textLength="5" x="262.0938" y="313.5107">*</text><!--MD5=[22697d4d863c2e08ab1d60ca0d61f844]
link Platform to Freelancer--><path d="M113.065,432.121 C165.545,457.977 251.177,493 330,493 C330,493 330,493 977.5,493 C1030.3,493 1090.08,490.742 1134.52,488.625 " fill="none" id="Platform-Freelancer" style="stroke: #A80036; stroke-width: 1.0;"/><text fill="#000000" font-family="sans-serif" font-size="13" lengthAdjust="spacingAndGlyphs" textLength="82" x="648" y="489.4951">has registered</text><polygon fill="#000000" points="733,482.6758,739,485.6758,733,488.6758,733,482.6758" style="stroke: #000000; stroke-width: 1.0;"/><text fill="#000000" font-family="sans-serif" font-size="13" lengthAdjust="spacingAndGlyphs" textLength="7" x="116.4698" y="453.3552">1</text><text fill="#000000" font-family="sans-serif" font-size="13" lengthAdjust="spacingAndGlyphs" textLength="5" x="1121.8659" y="503.41">*</text><!--MD5=[0cdafcc0dad84b6396b2a91da681dfee]
link Platform to User--><path d="M77.8697,377.626 C93.0476,351.418 118.515,311.856 148,284 C250.29,187.361 284.258,163.713 417,117 C594.829,54.421 821.962,47.55 922.985,47.958 " fill="none" id="Platform-User" style="stroke: #A80036; stroke-width: 1.0;"/><text fill="#000000" font-family="sans-serif" font-size="13" lengthAdjust="spacingAndGlyphs" textLength="82" x="469.5" y="66.4951">has registered</text><polygon fill="#000000" points="554.5,59.6758,560.5,62.6758,554.5,65.6758,554.5,59.6758" style="stroke: #000000; stroke-width: 1.0;"/><text fill="#000000" font-family="sans-serif" font-size="13" lengthAdjust="spacingAndGlyphs" textLength="7" x="73.7302" y="367.0005">1</text><text fill="#000000" font-family="sans-serif" font-size="13" lengthAdjust="spacingAndGlyphs" textLength="5" x="910.1079" y="62.4909">*</text><!--MD5=[e8391763d8345b15a30376637f91ba95]
link Platform to ExternalEmailSenderAlgorithm--><path d="M72.3088,432.26 C84.4667,463.31 108.929,512.858 148,537 C228.502,586.7428 338.148,592.4959 416.777,588.4073 " fill="none" id="Platform-ExternalEmailSenderAlgorithm" style="stroke: #A80036; stroke-width: 1.0;"/><text fill="#000000" font-family="sans-serif" font-size="13" lengthAdjust="spacingAndGlyphs" textLength="48" x="166" y="533.4951">resort to</text><polygon fill="#000000" points="217,526.6758,223,529.6758,217,532.6758,217,526.6758" style="stroke: #000000; stroke-width: 1.0;"/><text fill="#000000" font-family="sans-serif" font-size="13" lengthAdjust="spacingAndGlyphs" textLength="7" x="66.7982" y="453.5246">1</text><text fill="#000000" font-family="sans-serif" font-size="13" lengthAdjust="spacingAndGlyphs" textLength="7" x="402.1598" y="603.3405">1</text><!--MD5=[c88335321001c16c742799d2de947695]
link Platform to Conversion--><path d="M118.094,405 C208.166,405 385.331,405 469.49,405 " fill="none" id="Platform-Conversion" style="stroke: #A80036; stroke-width: 1.0;"/><text fill="#000000" font-family="sans-serif" font-size="13" lengthAdjust="spacingAndGlyphs" textLength="48" x="166" y="401.4951">resort to</text><polygon fill="#000000" points="217,394.6758,223,397.6758,217,400.6758,217,394.6758" style="stroke: #000000; stroke-width: 1.0;"/><text fill="#000000" font-family="sans-serif" font-size="13" lengthAdjust="spacingAndGlyphs" textLength="7" x="126.1019" y="419.6048">1</text><text fill="#000000" font-family="sans-serif" font-size="13" lengthAdjust="spacingAndGlyphs" textLength="7" x="454.3603" y="419.7981">1</text><!--MD5=[51dfccc525b4545b77fff16b28546bb3]
link Conversion to PaymentTransaction--><path d="M564.858,400.239 C610.642,395.39 682.26,387.28 744,378 C797.824,369.91 858.336,358.863 903.992,350.129 " fill="none" id="Conversion-PaymentTransaction" style="stroke: #A80036; stroke-width: 1.0;"/><text fill="#000000" font-family="sans-serif" font-size="13" lengthAdjust="spacingAndGlyphs" textLength="48" x="665" y="374.4951">converts</text><polygon fill="#000000" points="716,367.6758,722,370.6758,716,373.6758,716,367.6758" style="stroke: #000000; stroke-width: 1.0;"/><text fill="#000000" font-family="sans-serif" font-size="13" lengthAdjust="spacingAndGlyphs" textLength="7" x="572.4012" y="414.2357">1</text><text fill="#000000" font-family="sans-serif" font-size="13" lengthAdjust="spacingAndGlyphs" textLength="5" x="890.788" y="366.0727">*</text><!--MD5=[bc039f41cf0b27fadee5cae63fc6e1fe]
link Organization to Manager--><path d="M387.056,260.532 C460.438,253.245 588.608,240.516 653.847,234.037 " fill="none" id="Organization-Manager" style="stroke: #A80036; stroke-width: 1.0;"/><text fill="#000000" font-family="sans-serif" font-size="13" lengthAdjust="spacingAndGlyphs" textLength="21" x="500" y="233.4951">has</text><polygon fill="#000000" points="524,226.6758,530,229.6758,524,232.6758,524,226.6758" style="stroke: #000000; stroke-width: 1.0;"/><text fill="#000000" font-family="sans-serif" font-size="13" lengthAdjust="spacingAndGlyphs" textLength="7" x="395.0588" y="256.252">1</text><text fill="#000000" font-family="sans-serif" font-size="13" lengthAdjust="spacingAndGlyphs" textLength="7" x="639.0863" y="249.6594">1</text><!--MD5=[4078351e3988aa35b1504a42837f2ab1]
link Organization to Task--><path d="M368.145,238.798 C382.71,228.877 400.054,218.311 417,211 C533.594,160.697 567.518,143 694.5,143 C694.5,143 694.5,143 1203,143 C1290.66,143 1363.36,224.396 1403.56,281.468 " fill="none" id="Organization-Task" style="stroke: #A80036; stroke-width: 1.0;"/><text fill="#000000" font-family="sans-serif" font-size="13" lengthAdjust="spacingAndGlyphs" textLength="21" x="959.5" y="139.4951">has</text><polygon fill="#000000" points="983.5,132.6758,989.5,135.6758,983.5,138.6758,983.5,132.6758" style="stroke: #000000; stroke-width: 1.0;"/><text fill="#000000" font-family="sans-serif" font-size="13" lengthAdjust="spacingAndGlyphs" textLength="7" x="368.9254" y="228.2123">1</text><text fill="#000000" font-family="sans-serif" font-size="13" lengthAdjust="spacingAndGlyphs" textLength="5" x="1393.529" y="270.5719">*</text><!--MD5=[da2d560b3f89d8c66478284968d27dfa]
link Organization to PaymentTransaction--><path d="M387.143,271.998 C503.576,284.664 774.412,314.126 903.968,328.219 " fill="none" id="Organization-PaymentTransaction" style="stroke: #A80036; stroke-width: 1.0;"/><text fill="#000000" font-family="sans-serif" font-size="13" lengthAdjust="spacingAndGlyphs" textLength="21" x="678.5" y="297.4951">has</text><polygon fill="#000000" points="702.5,290.6758,708.5,293.6758,702.5,296.6758,702.5,290.6758" style="stroke: #000000; stroke-width: 1.0;"/><text fill="#000000" font-family="sans-serif" font-size="13" lengthAdjust="spacingAndGlyphs" textLength="7" x="395.1575" y="287.4087">1</text><text fill="#000000" font-family="sans-serif" font-size="13" lengthAdjust="spacingAndGlyphs" textLength="5" x="891.2303" y="341.7633">*</text><!--MD5=[0d4a0fea61df6fa9a9c8429d3e91093f]
link ExternalEmailSenderAlgorithm to Freelancer--><path d="M617.04,574.4997 C734.67,569.8629 936.209,556.6448 1105,519 C1114.84,516.8062 1125.05,513.9037 1134.99,510.717 " fill="none" id="ExternalEmailSenderAlgorithm-Freelancer" style="stroke: #A80036; stroke-width: 1.0;"/><text fill="#000000" font-family="sans-serif" font-size="13" lengthAdjust="spacingAndGlyphs" textLength="85" x="775" y="551.4951">sends email to</text><polygon fill="#000000" points="863,544.6758,869,547.6758,863,550.6758,863,544.6758" style="stroke: #000000; stroke-width: 1.0;"/><text fill="#000000" font-family="sans-serif" font-size="13" lengthAdjust="spacingAndGlyphs" textLength="7" x="624.9673" y="588.4293">1</text><text fill="#000000" font-family="sans-serif" font-size="13" lengthAdjust="spacingAndGlyphs" textLength="5" x="1121.9529" y="528.1301">*</text><!--MD5=[6eb6e197a729f6ec2412743e0bdbca1d]
link Manager to User--><path d="M737.069,203.681 C786.187,171.816 869.019,118.079 922.972,83.077 " fill="none" id="Manager-User" style="stroke: #A80036; stroke-width: 1.0;"/><text fill="#000000" font-family="sans-serif" font-size="13" lengthAdjust="spacingAndGlyphs" textLength="36" x="799.5" y="114.4951">act as</text><polygon fill="#000000" points="838.5,107.6758,844.5,110.6758,838.5,113.6758,838.5,107.6758" style="stroke: #000000; stroke-width: 1.0;"/><text fill="#000000" font-family="sans-serif" font-size="13" lengthAdjust="spacingAndGlyphs" textLength="22" x="745.1186" y="214.4231">0..1</text><text fill="#000000" font-family="sans-serif" font-size="13" lengthAdjust="spacingAndGlyphs" textLength="7" x="907.9524" y="102.5485">1</text><!--MD5=[07c33ebd6bf1a7067fcb1cdb0e1b530a]
link Manager to PaymentTransaction--><path d="M737.29,243.704 C773.432,256.029 827.524,274.926 874,293 C886.753,297.959 900.3,303.503 913.202,308.917 " fill="none" id="Manager-PaymentTransaction" style="stroke: #A80036; stroke-width: 1.0;"/><text fill="#000000" font-family="sans-serif" font-size="13" lengthAdjust="spacingAndGlyphs" textLength="41" x="797" y="253.4951">defines</text><polygon fill="#000000" points="841,246.6758,847,249.6758,841,252.6758,841,246.6758" style="stroke: #000000; stroke-width: 1.0;"/><text fill="#000000" font-family="sans-serif" font-size="13" lengthAdjust="spacingAndGlyphs" textLength="7" x="745.0742" y="260.9879">1</text><text fill="#000000" font-family="sans-serif" font-size="13" lengthAdjust="spacingAndGlyphs" textLength="5" x="892.9862" y="298.3588">*</text><!--MD5=[f6802b286771c18a16ea4be983074371]
link PaymentTransaction to Freelancer--><path d="M1018.23,363.156 C1050.72,384.812 1096.87,415.582 1134.67,440.781 " fill="none" id="PaymentTransaction-Freelancer" style="stroke: #A80036; stroke-width: 1.0;"/><text fill="#000000" font-family="sans-serif" font-size="13" lengthAdjust="spacingAndGlyphs" textLength="11" x="1080" y="402.4951">to</text><polygon fill="#000000" points="1094,395.6758,1100,398.6758,1094,401.6758,1094,395.6758" style="stroke: #000000; stroke-width: 1.0;"/><text fill="#000000" font-family="sans-serif" font-size="13" lengthAdjust="spacingAndGlyphs" textLength="5" x="1021.8116" y="384.3979">*</text><text fill="#000000" font-family="sans-serif" font-size="13" lengthAdjust="spacingAndGlyphs" textLength="7" x="1119.923" y="450.333">1</text><!--MD5=[271ce7fefd7250ebaca83b70495774bd]
link PaymentTransaction to Task--><path d="M1049.12,336 C1137.38,336 1286.12,336 1371.64,336 " fill="none" id="PaymentTransaction-Task" style="stroke: #A80036; stroke-width: 1.0;"/><text fill="#000000" font-family="sans-serif" font-size="13" lengthAdjust="spacingAndGlyphs" textLength="43" x="1174" y="332.4951">referent</text><polygon fill="#000000" points="1220,325.6758,1226,328.6758,1220,331.6758,1220,325.6758" style="stroke: #000000; stroke-width: 1.0;"/><text fill="#000000" font-family="sans-serif" font-size="13" lengthAdjust="spacingAndGlyphs" textLength="7" x="1056.9699" y="350.3467">1</text><text fill="#000000" font-family="sans-serif" font-size="13" lengthAdjust="spacingAndGlyphs" textLength="7" x="1356.9444" y="350.3795">1</text><!--MD5=[bdc7b78a1b1f03a53fec8289ba75cac4]
link Task to TaskExecution--><path d="M1505.1,336 C1534.98,336 1570.34,336 1600.6,336 " fill="none" id="Task-TaskExecution" style="stroke: #A80036; stroke-width: 1.0;"/><text fill="#000000" font-family="sans-serif" font-size="13" lengthAdjust="spacingAndGlyphs" textLength="21" x="1536" y="332.4951">has</text><polygon fill="#000000" points="1560,325.6758,1566,328.6758,1560,331.6758,1560,325.6758" style="stroke: #000000; stroke-width: 1.0;"/><text fill="#000000" font-family="sans-serif" font-size="13" lengthAdjust="spacingAndGlyphs" textLength="7" x="1513.2053" y="350.4301">1</text><text fill="#000000" font-family="sans-serif" font-size="13" lengthAdjust="spacingAndGlyphs" textLength="7" x="1586.0306" y="350.3636">1</text><!--MD5=[0a2fb51dd6b1312a84d9b20e1a79eef4]
link Freelancer to LevelOfExpertise--><path d="M1269.26,482.457 C1302.85,481.168 1343.37,479.613 1376.23,478.352 " fill="none" id="Freelancer-LevelOfExpertise" style="stroke: #A80036; stroke-width: 1.0;"/><text fill="#000000" font-family="sans-serif" font-size="13" lengthAdjust="spacingAndGlyphs" textLength="21" x="1303.5" y="475.4951">has</text><polygon fill="#000000" points="1327.5,468.6758,1333.5,471.6758,1327.5,474.6758,1327.5,468.6758" style="stroke: #000000; stroke-width: 1.0;"/><text fill="#000000" font-family="sans-serif" font-size="13" lengthAdjust="spacingAndGlyphs" textLength="7" x="1276.9994" y="496.5673">1</text><text fill="#000000" font-family="sans-serif" font-size="13" lengthAdjust="spacingAndGlyphs" textLength="7" x="1361.6253" y="493.0834">1</text><!--MD5=[d518bf3df24868864c9f0c94c8246211]
link Freelancer to Location--><path d="M1269.26,511.56 C1307.59,526.924 1354.94,545.9076 1389.64,559.8154 " fill="none" id="Freelancer-Location" style="stroke: #A80036; stroke-width: 1.0;"/><text fill="#000000" font-family="sans-serif" font-size="13" lengthAdjust="spacingAndGlyphs" textLength="21" x="1303.5" y="519.4951">has</text><polygon fill="#000000" points="1327.5,512.6758,1333.5,515.6758,1327.5,518.6758,1327.5,512.6758" style="stroke: #000000; stroke-width: 1.0;"/><text fill="#000000" font-family="sans-serif" font-size="13" lengthAdjust="spacingAndGlyphs" textLength="7" x="1276.9994" y="528.8535">1</text><text fill="#000000" font-family="sans-serif" font-size="13" lengthAdjust="spacingAndGlyphs" textLength="7" x="1374.9496" y="571.7177">1</text><!--MD5=[b4b6c1ff9c803d8207b36238c02005ea]
link Freelancer to Task--><path d="M1269.26,442.9 C1301.36,422.505 1339.79,398.086 1371.81,377.738 " fill="none" id="Freelancer-Task" style="stroke: #A80036; stroke-width: 1.0;"/><text fill="#000000" font-family="sans-serif" font-size="13" lengthAdjust="spacingAndGlyphs" textLength="28" x="1300" y="393.4951">does</text><polygon fill="#000000" points="1331,386.6758,1337,389.6758,1331,392.6758,1331,386.6758" style="stroke: #000000; stroke-width: 1.0;"/><text fill="#000000" font-family="sans-serif" font-size="13" lengthAdjust="spacingAndGlyphs" textLength="7" x="1276.9994" y="452.6838">1</text><text fill="#000000" font-family="sans-serif" font-size="13" lengthAdjust="spacingAndGlyphs" textLength="5" x="1358.8099" y="396.994">*</text><!--MD5=[cd2a0510dde4499dc4111a7c40f1e8c1]
@startuml

hide methods
left to right direction

class Platform {
  -String designation
}

class Organization {
  -String designation
}

class User {
  -String name
  -String email
  -String password
}


class Manager {
  -String name
  -String email
}

class Freelancer {
    -String id
    -String name
    -String email
    -Integer NIF
    -String IBAN
    -double overallPayment
}

enum LevelOfExpertise {
   -JUNIOR
   -SENIOR
}

class Location {
  -String address
  -String country
}

class PaymentTransaction {
  -String id
}

class Task {
  -String id
  -String briefDescription
  -Double timeDuration
  -Double costPerHour
  -String category
}

class TaskExecution{
  -Date deadline
  -Double delay
  -String descQualityWork
}

class ExternalEmailSenderAlgorithm {
}

class Conversion {

}


Platform "1" - - "*" Organization : has registered >
Platform "1" - - "*" Freelancer : has registered >
Platform "1" - - "*" User : has registered >
Platform "1" - - "1" ExternalEmailSenderAlgorithm : resort to >
Platform "1" - - "1" Conversion : resort to >

Conversion "1" - - "*" PaymentTransaction : converts >

Organization "1" - - "1" Manager: has >
Organization "1" - - "*" Task : has >
Organization "1" - - "*" PaymentTransaction : has >

ExternalEmailSenderAlgorithm "1" - - "*" Freelancer : sends email to >

Manager "0..1" - - "1" User : act as >
Manager "1" - - "*" PaymentTransaction : defines >

PaymentTransaction "*" - - "1" Freelancer : to >
PaymentTransaction "1" - - "1" Task : referent >

Task"1" - - "1" TaskExecution : has >

Freelancer "1" - - "1" LevelOfExpertise : has >
Freelancer "1" - - "1" Location : has >
Freelancer "1" - - "*" Task : does > 
@enduml

PlantUML version 1.2020.07(Sun Apr 19 12:42:40 BST 2020)
(GPL source distribution)
Java Runtime: OpenJDK Runtime Environment
JVM: OpenJDK 64-Bit Server VM
Java Version: 11.0.6+8-b520.43
Operating System: Windows 10
Default Encoding: Cp1252
Language: en
Country: US
--></g></svg>