<?xml version="1.0" encoding="UTF-8" standalone="no"?><svg xmlns="http://www.w3.org/2000/svg" xmlns:xlink="http://www.w3.org/1999/xlink" contentScriptType="application/ecmascript" contentStyleType="text/css" height="1108px" preserveAspectRatio="none" style="width:579px;height:1108px;" version="1.1" viewBox="0 0 579 1108" width="579px" zoomAndPan="magnify">
    <defs>
        <filter height="300%" id="f1ctx2urxl9hc9" width="300%" x="-1" y="-1">
            <feGaussianBlur result="blurOut" stdDeviation="2.0" />
            <feColorMatrix in="blurOut" result="blurOut2" type="matrix" values="0 0 0 0 0 0 0 0 0 0 0 0 0 0 0 0 0 0 .4 0" />
            <feOffset dx="4.0" dy="4.0" in="blurOut2" result="blurOut3" />
            <feBlend in="SourceGraphic" in2="blurOut3" mode="normal" />
        </filter>
    </defs>
    <g>
        <!--class RegisterFreelancerUI-->
        <rect fill="#FEFECE" filter="url(#f1ctx2urxl9hc9)" height="48" id="RegisterFreelancerUI" style="stroke: #A80036; stroke-width: 1.5;" width="150" x="225.5" y="8" />
        <ellipse cx="240.5" cy="24" fill="#ADD1B2" rx="11" ry="11" style="stroke: #A80036; stroke-width: 1.0;" />
        <path d="M243.2656,19.875 Q243.4219,19.6563 243.6094,19.5469 Q243.7969,19.4375 244.0156,19.4375 Q244.3906,19.4375 244.625,19.6953 Q244.8594,19.9531 244.8594,20.5625 L244.8594,22.0156 Q244.8594,22.625 244.625,22.8906 Q244.3906,23.1563 244.0156,23.1563 Q243.6719,23.1563 243.4688,22.9531 Q243.2656,22.7656 243.1563,22.25 Q243.1094,21.8906 242.9219,21.7031 Q242.5938,21.3281 241.9844,21.1094 Q241.375,20.8906 240.75,20.8906 Q239.9844,20.8906 239.3516,21.2188 Q238.7188,21.5469 238.2266,22.2969 Q237.7344,23.0469 237.7344,24.0781 L237.7344,25.1719 Q237.7344,26.4063 238.625,27.2266 Q239.5156,28.0469 241.1094,28.0469 Q242.0469,28.0469 242.7031,27.7969 Q243.0938,27.6406 243.5156,27.2031 Q243.7813,26.9375 243.9297,26.8594 Q244.0781,26.7813 244.2813,26.7813 Q244.6094,26.7813 244.8672,27.0391 Q245.125,27.2969 245.125,27.6406 Q245.125,27.9844 244.7813,28.3906 Q244.2813,28.9688 243.4844,29.2969 Q242.4063,29.75 241.1094,29.75 Q239.5938,29.75 238.3906,29.125 Q237.4063,28.625 236.7188,27.5547 Q236.0313,26.4844 236.0313,25.2031 L236.0313,24.0469 Q236.0313,22.7188 236.6484,21.5703 Q237.2656,20.4219 238.3594,19.8047 Q239.4531,19.1875 240.6875,19.1875 Q241.4219,19.1875 242.0703,19.3516 Q242.7188,19.5156 243.2656,19.875 Z " /><text fill="#000000" font-family="sans-serif" font-size="12" lengthAdjust="spacingAndGlyphs" textLength="118" x="254.5" y="28.9102">RegisterFreelancerUI</text>
        <line style="stroke: #A80036; stroke-width: 1.5;" x1="226.5" x2="374.5" y1="40" y2="40" />
        <line style="stroke: #A80036; stroke-width: 1.5;" x1="226.5" x2="374.5" y1="48" y2="48" />
        <!--class RegisterFreelancerController-->
        <rect fill="#FEFECE" filter="url(#f1ctx2urxl9hc9)" height="89.5078" id="RegisterFreelancerController" style="stroke: #A80036; stroke-width: 1.5;" width="354" x="123.5" y="117" />
        <ellipse cx="216.25" cy="133" fill="#ADD1B2" rx="11" ry="11" style="stroke: #A80036; stroke-width: 1.0;" />
        <path d="M219.0156,128.875 Q219.1719,128.6563 219.3594,128.5469 Q219.5469,128.4375 219.7656,128.4375 Q220.1406,128.4375 220.375,128.6953 Q220.6094,128.9531 220.6094,129.5625 L220.6094,131.0156 Q220.6094,131.625 220.375,131.8906 Q220.1406,132.1563 219.7656,132.1563 Q219.4219,132.1563 219.2188,131.9531 Q219.0156,131.7656 218.9063,131.25 Q218.8594,130.8906 218.6719,130.7031 Q218.3438,130.3281 217.7344,130.1094 Q217.125,129.8906 216.5,129.8906 Q215.7344,129.8906 215.1016,130.2188 Q214.4688,130.5469 213.9766,131.2969 Q213.4844,132.0469 213.4844,133.0781 L213.4844,134.1719 Q213.4844,135.4063 214.375,136.2266 Q215.2656,137.0469 216.8594,137.0469 Q217.7969,137.0469 218.4531,136.7969 Q218.8438,136.6406 219.2656,136.2031 Q219.5313,135.9375 219.6797,135.8594 Q219.8281,135.7813 220.0313,135.7813 Q220.3594,135.7813 220.6172,136.0391 Q220.875,136.2969 220.875,136.6406 Q220.875,136.9844 220.5313,137.3906 Q220.0313,137.9688 219.2344,138.2969 Q218.1563,138.75 216.8594,138.75 Q215.3438,138.75 214.1406,138.125 Q213.1563,137.625 212.4688,136.5547 Q211.7813,135.4844 211.7813,134.2031 L211.7813,133.0469 Q211.7813,131.7188 212.3984,130.5703 Q213.0156,129.4219 214.1094,128.8047 Q215.2031,128.1875 216.4375,128.1875 Q217.1719,128.1875 217.8203,128.3516 Q218.4688,128.5156 219.0156,128.875 Z " /><text fill="#000000" font-family="sans-serif" font-size="12" lengthAdjust="spacingAndGlyphs" textLength="160" x="236.75" y="137.9102">RegisterFreelancerController</text>
        <line style="stroke: #A80036; stroke-width: 1.5;" x1="124.5" x2="476.5" y1="149" y2="149" />
        <line style="stroke: #A80036; stroke-width: 1.5;" x1="124.5" x2="476.5" y1="157" y2="157" />
        <ellipse cx="134.5" cy="169.418" fill="#84BE84" rx="3" ry="3" style="stroke: #038048; stroke-width: 1.0;" /><text fill="#000000" font-family="sans-serif" font-size="11" lengthAdjust="spacingAndGlyphs" textLength="112" x="143.5" y="172.4189">getLevelsOfExpertise()</text>
        <ellipse cx="134.5" cy="183.2539" fill="#84BE84" rx="3" ry="3" style="stroke: #038048; stroke-width: 1.0;" /><text fill="#000000" font-family="sans-serif" font-size="11" lengthAdjust="spacingAndGlyphs" textLength="328" x="143.5" y="186.2549">newFreelancer(id, name, email, NIF, IBAN, address, country, levelId)</text>
        <ellipse cx="134.5" cy="197.0898" fill="#84BE84" rx="3" ry="3" style="stroke: #038048; stroke-width: 1.0;" /><text fill="#000000" font-family="sans-serif" font-size="11" lengthAdjust="spacingAndGlyphs" textLength="97" x="143.5" y="200.0908">registerFreelancer()</text>
        <!--class Platform-->
        <rect fill="#FEFECE" filter="url(#f1ctx2urxl9hc9)" height="75.6719" id="Platform" style="stroke: #A80036; stroke-width: 1.5;" width="242" x="49.5" y="268" />
        <ellipse cx="143.25" cy="284" fill="#ADD1B2" rx="11" ry="11" style="stroke: #A80036; stroke-width: 1.0;" />
        <path d="M146.0156,279.875 Q146.1719,279.6563 146.3594,279.5469 Q146.5469,279.4375 146.7656,279.4375 Q147.1406,279.4375 147.375,279.6953 Q147.6094,279.9531 147.6094,280.5625 L147.6094,282.0156 Q147.6094,282.625 147.375,282.8906 Q147.1406,283.1563 146.7656,283.1563 Q146.4219,283.1563 146.2188,282.9531 Q146.0156,282.7656 145.9063,282.25 Q145.8594,281.8906 145.6719,281.7031 Q145.3438,281.3281 144.7344,281.1094 Q144.125,280.8906 143.5,280.8906 Q142.7344,280.8906 142.1016,281.2188 Q141.4688,281.5469 140.9766,282.2969 Q140.4844,283.0469 140.4844,284.0781 L140.4844,285.1719 Q140.4844,286.4063 141.375,287.2266 Q142.2656,288.0469 143.8594,288.0469 Q144.7969,288.0469 145.4531,287.7969 Q145.8438,287.6406 146.2656,287.2031 Q146.5313,286.9375 146.6797,286.8594 Q146.8281,286.7813 147.0313,286.7813 Q147.3594,286.7813 147.6172,287.0391 Q147.875,287.2969 147.875,287.6406 Q147.875,287.9844 147.5313,288.3906 Q147.0313,288.9688 146.2344,289.2969 Q145.1563,289.75 143.8594,289.75 Q142.3438,289.75 141.1406,289.125 Q140.1563,288.625 139.4688,287.5547 Q138.7813,286.4844 138.7813,285.2031 L138.7813,284.0469 Q138.7813,282.7188 139.3984,281.5703 Q140.0156,280.4219 141.1094,279.8047 Q142.2031,279.1875 143.4375,279.1875 Q144.1719,279.1875 144.8203,279.3516 Q145.4688,279.5156 146.0156,279.875 Z " /><text fill="#000000" font-family="sans-serif" font-size="12" lengthAdjust="spacingAndGlyphs" textLength="46" x="163.75" y="288.9102">Platform</text>
        <line style="stroke: #A80036; stroke-width: 1.5;" x1="50.5" x2="290.5" y1="300" y2="300" />
        <rect fill="none" height="6" style="stroke: #C82930; stroke-width: 1.0;" width="6" x="57.5" y="309.418" /><text fill="#000000" font-family="sans-serif" font-size="11" lengthAdjust="spacingAndGlyphs" textLength="86" x="69.5" y="315.4189">String designation</text>
        <line style="stroke: #A80036; stroke-width: 1.5;" x1="50.5" x2="290.5" y1="321.8359" y2="321.8359" />
        <ellipse cx="60.5" cy="334.2539" fill="#84BE84" rx="3" ry="3" style="stroke: #038048; stroke-width: 1.0;" /><text fill="#000000" font-family="sans-serif" font-size="11" lengthAdjust="spacingAndGlyphs" textLength="216" x="69.5" y="337.2549">RegisterFreelancer getFreelancersRegister()</text>
        <!--class FreelancersRegister-->
        <rect fill="#FEFECE" filter="url(#f1ctx2urxl9hc9)" height="103.3438" id="FreelancersRegister" style="stroke: #A80036; stroke-width: 1.5;" width="340" x="228.5" y="422" />
        <ellipse cx="337.75" cy="438" fill="#ADD1B2" rx="11" ry="11" style="stroke: #A80036; stroke-width: 1.0;" />
        <path d="M340.5156,433.875 Q340.6719,433.6563 340.8594,433.5469 Q341.0469,433.4375 341.2656,433.4375 Q341.6406,433.4375 341.875,433.6953 Q342.1094,433.9531 342.1094,434.5625 L342.1094,436.0156 Q342.1094,436.625 341.875,436.8906 Q341.6406,437.1563 341.2656,437.1563 Q340.9219,437.1563 340.7188,436.9531 Q340.5156,436.7656 340.4063,436.25 Q340.3594,435.8906 340.1719,435.7031 Q339.8438,435.3281 339.2344,435.1094 Q338.625,434.8906 338,434.8906 Q337.2344,434.8906 336.6016,435.2188 Q335.9688,435.5469 335.4766,436.2969 Q334.9844,437.0469 334.9844,438.0781 L334.9844,439.1719 Q334.9844,440.4063 335.875,441.2266 Q336.7656,442.0469 338.3594,442.0469 Q339.2969,442.0469 339.9531,441.7969 Q340.3438,441.6406 340.7656,441.2031 Q341.0313,440.9375 341.1797,440.8594 Q341.3281,440.7813 341.5313,440.7813 Q341.8594,440.7813 342.1172,441.0391 Q342.375,441.2969 342.375,441.6406 Q342.375,441.9844 342.0313,442.3906 Q341.5313,442.9688 340.7344,443.2969 Q339.6563,443.75 338.3594,443.75 Q336.8438,443.75 335.6406,443.125 Q334.6563,442.625 333.9688,441.5547 Q333.2813,440.4844 333.2813,439.2031 L333.2813,438.0469 Q333.2813,436.7188 333.8984,435.5703 Q334.5156,434.4219 335.6094,433.8047 Q336.7031,433.1875 337.9375,433.1875 Q338.6719,433.1875 339.3203,433.3516 Q339.9688,433.5156 340.5156,433.875 Z " /><text fill="#000000" font-family="sans-serif" font-size="12" lengthAdjust="spacingAndGlyphs" textLength="113" x="358.25" y="442.9102">FreelancersRegister</text>
        <line style="stroke: #A80036; stroke-width: 1.5;" x1="229.5" x2="567.5" y1="454" y2="454" />
        <line style="stroke: #A80036; stroke-width: 1.5;" x1="229.5" x2="567.5" y1="462" y2="462" />
        <ellipse cx="239.5" cy="474.418" fill="#84BE84" rx="3" ry="3" style="stroke: #038048; stroke-width: 1.0;" /><text fill="#000000" font-family="sans-serif" font-size="11" lengthAdjust="spacingAndGlyphs" textLength="314" x="248.5" y="477.4189">Freelancer newFreelancer(id, name, email, NIF, IBAN, level, local)</text>
        <ellipse cx="239.5" cy="488.2539" fill="#84BE84" rx="3" ry="3" style="stroke: #038048; stroke-width: 1.0;" /><text fill="#000000" font-family="sans-serif" font-size="11" lengthAdjust="spacingAndGlyphs" textLength="117" x="248.5" y="491.2549">validateFreelancer(free)</text>
        <ellipse cx="239.5" cy="502.0898" fill="#84BE84" rx="3" ry="3" style="stroke: #038048; stroke-width: 1.0;" /><text fill="#000000" font-family="sans-serif" font-size="11" lengthAdjust="spacingAndGlyphs" textLength="117" x="248.5" y="505.0908">registerFreelancer(free)</text>
        <ellipse cx="239.5" cy="515.9258" fill="#84BE84" rx="3" ry="3" style="stroke: #038048; stroke-width: 1.0;" /><text fill="#000000" font-family="sans-serif" font-size="11" lengthAdjust="spacingAndGlyphs" textLength="98" x="248.5" y="518.9268">addFreelancer(free)</text>
        <!--class Organization-->
        <rect fill="#FEFECE" filter="url(#f1ctx2urxl9hc9)" height="61.8359" id="Organization" style="stroke: #A80036; stroke-width: 1.5;" width="112" x="81.5" y="442.5" />
        <ellipse cx="101.45" cy="458.5" fill="#ADD1B2" rx="11" ry="11" style="stroke: #A80036; stroke-width: 1.0;" />
        <path d="M104.2156,454.375 Q104.3719,454.1563 104.5594,454.0469 Q104.7469,453.9375 104.9656,453.9375 Q105.3406,453.9375 105.575,454.1953 Q105.8094,454.4531 105.8094,455.0625 L105.8094,456.5156 Q105.8094,457.125 105.575,457.3906 Q105.3406,457.6563 104.9656,457.6563 Q104.6219,457.6563 104.4188,457.4531 Q104.2156,457.2656 104.1063,456.75 Q104.0594,456.3906 103.8719,456.2031 Q103.5438,455.8281 102.9344,455.6094 Q102.325,455.3906 101.7,455.3906 Q100.9344,455.3906 100.3016,455.7188 Q99.6688,456.0469 99.1766,456.7969 Q98.6844,457.5469 98.6844,458.5781 L98.6844,459.6719 Q98.6844,460.9063 99.575,461.7266 Q100.4656,462.5469 102.0594,462.5469 Q102.9969,462.5469 103.6531,462.2969 Q104.0438,462.1406 104.4656,461.7031 Q104.7313,461.4375 104.8797,461.3594 Q105.0281,461.2813 105.2313,461.2813 Q105.5594,461.2813 105.8172,461.5391 Q106.075,461.7969 106.075,462.1406 Q106.075,462.4844 105.7313,462.8906 Q105.2313,463.4688 104.4344,463.7969 Q103.3563,464.25 102.0594,464.25 Q100.5438,464.25 99.3406,463.625 Q98.3563,463.125 97.6688,462.0547 Q96.9813,460.9844 96.9813,459.7031 L96.9813,458.5469 Q96.9813,457.2188 97.5984,456.0703 Q98.2156,454.9219 99.3094,454.3047 Q100.4031,453.6875 101.6375,453.6875 Q102.3719,453.6875 103.0203,453.8516 Q103.6688,454.0156 104.2156,454.375 Z " /><text fill="#000000" font-family="sans-serif" font-size="12" lengthAdjust="spacingAndGlyphs" textLength="69" x="116.55" y="463.4102">Organization</text>
        <line style="stroke: #A80036; stroke-width: 1.5;" x1="82.5" x2="192.5" y1="474.5" y2="474.5" />
        <rect fill="none" height="6" style="stroke: #C82930; stroke-width: 1.0;" width="6" x="89.5" y="483.918" /><text fill="#000000" font-family="sans-serif" font-size="11" lengthAdjust="spacingAndGlyphs" textLength="86" x="101.5" y="489.9189">String designation</text>
        <line style="stroke: #A80036; stroke-width: 1.5;" x1="82.5" x2="192.5" y1="496.3359" y2="496.3359" />
        <!--class Collaborator-->
        <rect fill="#FEFECE" filter="url(#f1ctx2urxl9hc9)" height="75.6719" id="Collaborator" style="stroke: #A80036; stroke-width: 1.5;" width="100" x="115.5" y="603" />
        <ellipse cx="130.5" cy="619" fill="#ADD1B2" rx="11" ry="11" style="stroke: #A80036; stroke-width: 1.0;" />
        <path d="M133.2656,614.875 Q133.4219,614.6563 133.6094,614.5469 Q133.7969,614.4375 134.0156,614.4375 Q134.3906,614.4375 134.625,614.6953 Q134.8594,614.9531 134.8594,615.5625 L134.8594,617.0156 Q134.8594,617.625 134.625,617.8906 Q134.3906,618.1563 134.0156,618.1563 Q133.6719,618.1563 133.4688,617.9531 Q133.2656,617.7656 133.1563,617.25 Q133.1094,616.8906 132.9219,616.7031 Q132.5938,616.3281 131.9844,616.1094 Q131.375,615.8906 130.75,615.8906 Q129.9844,615.8906 129.3516,616.2188 Q128.7188,616.5469 128.2266,617.2969 Q127.7344,618.0469 127.7344,619.0781 L127.7344,620.1719 Q127.7344,621.4063 128.625,622.2266 Q129.5156,623.0469 131.1094,623.0469 Q132.0469,623.0469 132.7031,622.7969 Q133.0938,622.6406 133.5156,622.2031 Q133.7813,621.9375 133.9297,621.8594 Q134.0781,621.7813 134.2813,621.7813 Q134.6094,621.7813 134.8672,622.0391 Q135.125,622.2969 135.125,622.6406 Q135.125,622.9844 134.7813,623.3906 Q134.2813,623.9688 133.4844,624.2969 Q132.4063,624.75 131.1094,624.75 Q129.5938,624.75 128.3906,624.125 Q127.4063,623.625 126.7188,622.5547 Q126.0313,621.4844 126.0313,620.2031 L126.0313,619.0469 Q126.0313,617.7188 126.6484,616.5703 Q127.2656,615.4219 128.3594,614.8047 Q129.4531,614.1875 130.6875,614.1875 Q131.4219,614.1875 132.0703,614.3516 Q132.7188,614.5156 133.2656,614.875 Z " /><text fill="#000000" font-family="sans-serif" font-size="12" lengthAdjust="spacingAndGlyphs" textLength="68" x="144.5" y="623.9102">Collaborator</text>
        <line style="stroke: #A80036; stroke-width: 1.5;" x1="116.5" x2="214.5" y1="635" y2="635" />
        <rect fill="none" height="6" style="stroke: #C82930; stroke-width: 1.0;" width="6" x="123.5" y="644.418" /><text fill="#000000" font-family="sans-serif" font-size="11" lengthAdjust="spacingAndGlyphs" textLength="57" x="135.5" y="650.4189">String name</text>
        <rect fill="none" height="6" style="stroke: #C82930; stroke-width: 1.0;" width="6" x="123.5" y="658.2539" /><text fill="#000000" font-family="sans-serif" font-size="11" lengthAdjust="spacingAndGlyphs" textLength="55" x="135.5" y="664.2549">String email</text>
        <line style="stroke: #A80036; stroke-width: 1.5;" x1="116.5" x2="214.5" y1="670.6719" y2="670.6719" />
        <!--class User-->
        <rect fill="#FEFECE" filter="url(#f1ctx2urxl9hc9)" height="89.5078" id="User" style="stroke: #A80036; stroke-width: 1.5;" width="107" x="6" y="791.5" />
        <ellipse cx="42.6" cy="807.5" fill="#ADD1B2" rx="11" ry="11" style="stroke: #A80036; stroke-width: 1.0;" />
        <path d="M45.3656,803.375 Q45.5219,803.1563 45.7094,803.0469 Q45.8969,802.9375 46.1156,802.9375 Q46.4906,802.9375 46.725,803.1953 Q46.9594,803.4531 46.9594,804.0625 L46.9594,805.5156 Q46.9594,806.125 46.725,806.3906 Q46.4906,806.6563 46.1156,806.6563 Q45.7719,806.6563 45.5688,806.4531 Q45.3656,806.2656 45.2563,805.75 Q45.2094,805.3906 45.0219,805.2031 Q44.6938,804.8281 44.0844,804.6094 Q43.475,804.3906 42.85,804.3906 Q42.0844,804.3906 41.4516,804.7188 Q40.8188,805.0469 40.3266,805.7969 Q39.8344,806.5469 39.8344,807.5781 L39.8344,808.6719 Q39.8344,809.9063 40.725,810.7266 Q41.6156,811.5469 43.2094,811.5469 Q44.1469,811.5469 44.8031,811.2969 Q45.1938,811.1406 45.6156,810.7031 Q45.8813,810.4375 46.0297,810.3594 Q46.1781,810.2813 46.3813,810.2813 Q46.7094,810.2813 46.9672,810.5391 Q47.225,810.7969 47.225,811.1406 Q47.225,811.4844 46.8813,811.8906 Q46.3813,812.4688 45.5844,812.7969 Q44.5063,813.25 43.2094,813.25 Q41.6938,813.25 40.4906,812.625 Q39.5063,812.125 38.8188,811.0547 Q38.1313,809.9844 38.1313,808.7031 L38.1313,807.5469 Q38.1313,806.2188 38.7484,805.0703 Q39.3656,803.9219 40.4594,803.3047 Q41.5531,802.6875 42.7875,802.6875 Q43.5219,802.6875 44.1703,802.8516 Q44.8188,803.0156 45.3656,803.375 Z " /><text fill="#000000" font-family="sans-serif" font-size="12" lengthAdjust="spacingAndGlyphs" textLength="27" x="61.4" y="812.4102">User</text>
        <line style="stroke: #A80036; stroke-width: 1.5;" x1="7" x2="112" y1="823.5" y2="823.5" />
        <rect fill="none" height="6" style="stroke: #C82930; stroke-width: 1.0;" width="6" x="14" y="832.918" /><text fill="#000000" font-family="sans-serif" font-size="11" lengthAdjust="spacingAndGlyphs" textLength="57" x="26" y="838.9189">String name</text>
        <rect fill="none" height="6" style="stroke: #C82930; stroke-width: 1.0;" width="6" x="14" y="846.7539" /><text fill="#000000" font-family="sans-serif" font-size="11" lengthAdjust="spacingAndGlyphs" textLength="55" x="26" y="852.7549">String email</text>
        <rect fill="none" height="6" style="stroke: #C82930; stroke-width: 1.0;" width="6" x="14" y="860.5898" /><text fill="#000000" font-family="sans-serif" font-size="11" lengthAdjust="spacingAndGlyphs" textLength="81" x="26" y="866.5908">String password</text>
        <line style="stroke: #A80036; stroke-width: 1.5;" x1="7" x2="112" y1="873.0078" y2="873.0078" />
        <!--class Freelancer-->
        <rect fill="#FEFECE" filter="url(#f1ctx2urxl9hc9)" height="158.6875" id="Freelancer" style="stroke: #A80036; stroke-width: 1.5;" width="263" x="163" y="757" />
        <ellipse cx="260.75" cy="773" fill="#ADD1B2" rx="11" ry="11" style="stroke: #A80036; stroke-width: 1.0;" />
        <path d="M263.5156,768.875 Q263.6719,768.6563 263.8594,768.5469 Q264.0469,768.4375 264.2656,768.4375 Q264.6406,768.4375 264.875,768.6953 Q265.1094,768.9531 265.1094,769.5625 L265.1094,771.0156 Q265.1094,771.625 264.875,771.8906 Q264.6406,772.1563 264.2656,772.1563 Q263.9219,772.1563 263.7188,771.9531 Q263.5156,771.7656 263.4063,771.25 Q263.3594,770.8906 263.1719,770.7031 Q262.8438,770.3281 262.2344,770.1094 Q261.625,769.8906 261,769.8906 Q260.2344,769.8906 259.6016,770.2188 Q258.9688,770.5469 258.4766,771.2969 Q257.9844,772.0469 257.9844,773.0781 L257.9844,774.1719 Q257.9844,775.4063 258.875,776.2266 Q259.7656,777.0469 261.3594,777.0469 Q262.2969,777.0469 262.9531,776.7969 Q263.3438,776.6406 263.7656,776.2031 Q264.0313,775.9375 264.1797,775.8594 Q264.3281,775.7813 264.5313,775.7813 Q264.8594,775.7813 265.1172,776.0391 Q265.375,776.2969 265.375,776.6406 Q265.375,776.9844 265.0313,777.3906 Q264.5313,777.9688 263.7344,778.2969 Q262.6563,778.75 261.3594,778.75 Q259.8438,778.75 258.6406,778.125 Q257.6563,777.625 256.9688,776.5547 Q256.2813,775.4844 256.2813,774.2031 L256.2813,773.0469 Q256.2813,771.7188 256.8984,770.5703 Q257.5156,769.4219 258.6094,768.8047 Q259.7031,768.1875 260.9375,768.1875 Q261.6719,768.1875 262.3203,768.3516 Q262.9688,768.5156 263.5156,768.875 Z " /><text fill="#000000" font-family="sans-serif" font-size="12" lengthAdjust="spacingAndGlyphs" textLength="59" x="281.25" y="777.9102">Freelancer</text>
        <line style="stroke: #A80036; stroke-width: 1.5;" x1="164" x2="425" y1="789" y2="789" />
        <rect fill="none" height="6" style="stroke: #C82930; stroke-width: 1.0;" width="6" x="171" y="798.418" /><text fill="#000000" font-family="sans-serif" font-size="11" lengthAdjust="spacingAndGlyphs" textLength="39" x="183" y="804.4189">String id</text>
        <rect fill="none" height="6" style="stroke: #C82930; stroke-width: 1.0;" width="6" x="171" y="812.2539" /><text fill="#000000" font-family="sans-serif" font-size="11" lengthAdjust="spacingAndGlyphs" textLength="57" x="183" y="818.2549">String name</text>
        <rect fill="none" height="6" style="stroke: #C82930; stroke-width: 1.0;" width="6" x="171" y="826.0898" /><text fill="#000000" font-family="sans-serif" font-size="11" lengthAdjust="spacingAndGlyphs" textLength="55" x="183" y="832.0908">String email</text>
        <rect fill="none" height="6" style="stroke: #C82930; stroke-width: 1.0;" width="6" x="171" y="839.9258" /><text fill="#000000" font-family="sans-serif" font-size="11" lengthAdjust="spacingAndGlyphs" textLength="50" x="183" y="845.9268">double NIF</text>
        <rect fill="none" height="6" style="stroke: #C82930; stroke-width: 1.0;" width="6" x="171" y="853.7617" /><text fill="#000000" font-family="sans-serif" font-size="11" lengthAdjust="spacingAndGlyphs" textLength="55" x="183" y="859.7627">String IBAN</text>
        <rect fill="none" height="6" style="stroke: #C82930; stroke-width: 1.0;" width="6" x="171" y="867.5977" /><text fill="#000000" font-family="sans-serif" font-size="11" lengthAdjust="spacingAndGlyphs" textLength="116" x="183" y="873.5986">double OverallPayments</text>
        <line style="stroke: #A80036; stroke-width: 1.5;" x1="164" x2="425" y1="880.0156" y2="880.0156" />
        <ellipse cx="174" cy="892.4336" fill="#84BE84" rx="3" ry="3" style="stroke: #038048; stroke-width: 1.0;" /><text fill="#000000" font-family="sans-serif" font-size="11" lengthAdjust="spacingAndGlyphs" textLength="195" x="183" y="895.4346">Location newLocation(address,country)</text>
        <ellipse cx="174" cy="906.2695" fill="#84BE84" rx="3" ry="3" style="stroke: #038048; stroke-width: 1.0;" /><text fill="#000000" font-family="sans-serif" font-size="11" lengthAdjust="spacingAndGlyphs" textLength="237" x="183" y="909.2705">Freelancer(id, name, email, NIF, IBAN, level, local)</text>
        <!--class LevelOfExpertise-->
        <rect fill="#FEFECE" filter="url(#f1ctx2urxl9hc9)" height="103.3438" id="LevelOfExpertise" style="stroke: #A80036; stroke-width: 1.5;" width="124" x="145.5" y="994" />
        <ellipse cx="160.5" cy="1010" fill="#EB937F" rx="11" ry="11" style="stroke: #A80036; stroke-width: 1.0;" />
        <path d="M159.3594,1010.7969 L159.3594,1013.2969 L163.6875,1013.2969 L163.6875,1012.375 Q163.6875,1011.7656 163.9297,1011.5 Q164.1719,1011.2344 164.5469,1011.2344 Q164.9219,1011.2344 165.1563,1011.5 Q165.3906,1011.7656 165.3906,1012.375 L165.3906,1015 L157.3906,1015 Q156.7656,1015 156.5078,1014.7656 Q156.25,1014.5313 156.25,1014.1406 Q156.25,1013.7656 156.5156,1013.5313 Q156.7813,1013.2969 157.3906,1013.2969 L157.6563,1013.2969 L157.6563,1006.6406 L157.3906,1006.6406 Q156.7656,1006.6406 156.5078,1006.4063 Q156.25,1006.1719 156.25,1005.7813 Q156.25,1005.4063 156.5078,1005.1719 Q156.7656,1004.9375 157.3906,1004.9375 L165.0156,1004.9375 L165.0156,1007.5313 Q165.0156,1008.1406 164.7891,1008.3984 Q164.5625,1008.6563 164.1719,1008.6563 Q163.7969,1008.6563 163.5625,1008.3984 Q163.3281,1008.1406 163.3281,1007.5313 L163.3281,1006.6406 L159.3594,1006.6406 L159.3594,1009.0938 L160.8438,1009.0938 Q160.8438,1008.4375 160.9688,1008.25 Q161.2344,1007.8438 161.7031,1007.8438 Q162.0781,1007.8438 162.3125,1008.1016 Q162.5469,1008.3594 162.5469,1008.9688 L162.5469,1010.9375 Q162.5469,1011.4844 162.4219,1011.6719 Q162.1563,1012.0625 161.7031,1012.0625 Q161.2344,1012.0625 160.9688,1011.6563 Q160.8438,1011.4688 160.8438,1010.7969 L159.3594,1010.7969 Z " /><text fill="#000000" font-family="sans-serif" font-size="12" lengthAdjust="spacingAndGlyphs" textLength="92" x="174.5" y="1014.9102">LevelOfExpertise</text>
        <line style="stroke: #A80036; stroke-width: 1.5;" x1="146.5" x2="268.5" y1="1026" y2="1026" />
        <rect fill="none" height="6" style="stroke: #C82930; stroke-width: 1.0;" width="6" x="153.5" y="1035.418" /><text fill="#000000" font-family="sans-serif" font-size="11" lengthAdjust="spacingAndGlyphs" textLength="36" x="165.5" y="1041.4189">JUNIOR</text>
        <rect fill="none" height="6" style="stroke: #C82930; stroke-width: 1.0;" width="6" x="153.5" y="1049.2539" /><text fill="#000000" font-family="sans-serif" font-size="11" lengthAdjust="spacingAndGlyphs" textLength="37" x="165.5" y="1055.2549">SENIOR</text>
        <line style="stroke: #A80036; stroke-width: 1.5;" x1="146.5" x2="268.5" y1="1061.6719" y2="1061.6719" />
        <ellipse cx="156.5" cy="1074.0898" fill="#84BE84" rx="3" ry="3" style="stroke: #038048; stroke-width: 1.0;" /><text fill="#000000" font-family="sans-serif" font-size="11" lengthAdjust="spacingAndGlyphs" textLength="40" x="165.5" y="1077.0908">values()</text>
        <ellipse cx="156.5" cy="1087.9258" fill="#84BE84" rx="3" ry="3" style="stroke: #038048; stroke-width: 1.0;" /><text fill="#000000" font-family="sans-serif" font-size="11" lengthAdjust="spacingAndGlyphs" textLength="70" x="165.5" y="1090.9268">getLevelById()</text>
        <!--class Location-->
        <rect fill="#FEFECE" filter="url(#f1ctx2urxl9hc9)" height="89.5078" id="Location" style="stroke: #A80036; stroke-width: 1.5;" width="155" x="305" y="1000.5" />
        <ellipse cx="354.75" cy="1016.5" fill="#ADD1B2" rx="11" ry="11" style="stroke: #A80036; stroke-width: 1.0;" />
        <path d="M357.5156,1012.375 Q357.6719,1012.1563 357.8594,1012.0469 Q358.0469,1011.9375 358.2656,1011.9375 Q358.6406,1011.9375 358.875,1012.1953 Q359.1094,1012.4531 359.1094,1013.0625 L359.1094,1014.5156 Q359.1094,1015.125 358.875,1015.3906 Q358.6406,1015.6563 358.2656,1015.6563 Q357.9219,1015.6563 357.7188,1015.4531 Q357.5156,1015.2656 357.4063,1014.75 Q357.3594,1014.3906 357.1719,1014.2031 Q356.8438,1013.8281 356.2344,1013.6094 Q355.625,1013.3906 355,1013.3906 Q354.2344,1013.3906 353.6016,1013.7188 Q352.9688,1014.0469 352.4766,1014.7969 Q351.9844,1015.5469 351.9844,1016.5781 L351.9844,1017.6719 Q351.9844,1018.9063 352.875,1019.7266 Q353.7656,1020.5469 355.3594,1020.5469 Q356.2969,1020.5469 356.9531,1020.2969 Q357.3438,1020.1406 357.7656,1019.7031 Q358.0313,1019.4375 358.1797,1019.3594 Q358.3281,1019.2813 358.5313,1019.2813 Q358.8594,1019.2813 359.1172,1019.5391 Q359.375,1019.7969 359.375,1020.1406 Q359.375,1020.4844 359.0313,1020.8906 Q358.5313,1021.4688 357.7344,1021.7969 Q356.6563,1022.25 355.3594,1022.25 Q353.8438,1022.25 352.6406,1021.625 Q351.6563,1021.125 350.9688,1020.0547 Q350.2813,1018.9844 350.2813,1017.7031 L350.2813,1016.5469 Q350.2813,1015.2188 350.8984,1014.0703 Q351.5156,1012.9219 352.6094,1012.3047 Q353.7031,1011.6875 354.9375,1011.6875 Q355.6719,1011.6875 356.3203,1011.8516 Q356.9688,1012.0156 357.5156,1012.375 Z " /><text fill="#000000" font-family="sans-serif" font-size="12" lengthAdjust="spacingAndGlyphs" textLength="47" x="375.25" y="1021.4102">Location</text>
        <line style="stroke: #A80036; stroke-width: 1.5;" x1="306" x2="459" y1="1032.5" y2="1032.5" />
        <rect fill="none" height="6" style="stroke: #C82930; stroke-width: 1.0;" width="6" x="313" y="1041.918" /><text fill="#000000" font-family="sans-serif" font-size="11" lengthAdjust="spacingAndGlyphs" textLength="71" x="325" y="1047.9189">String address</text>
        <rect fill="none" height="6" style="stroke: #C82930; stroke-width: 1.0;" width="6" x="313" y="1055.7539" /><text fill="#000000" font-family="sans-serif" font-size="11" lengthAdjust="spacingAndGlyphs" textLength="68" x="325" y="1061.7549">String country</text>
        <line style="stroke: #A80036; stroke-width: 1.5;" x1="306" x2="459" y1="1068.1719" y2="1068.1719" />
        <ellipse cx="316" cy="1080.5898" fill="#84BE84" rx="3" ry="3" style="stroke: #038048; stroke-width: 1.0;" /><text fill="#000000" font-family="sans-serif" font-size="11" lengthAdjust="spacingAndGlyphs" textLength="129" x="325" y="1083.5908">Location(address,country)</text>
        <!--link RegisterFreelancerUI to RegisterFreelancerController-->
        <path d="M300.5,56.18 C300.5,71.59 300.5,92.42 300.5,111.447 " fill="none" id="RegisterFreelancerUI-RegisterFreelancerController" style="stroke: #A80036; stroke-width: 1.0; stroke-dasharray: 7.0,7.0;" />
        <polygon fill="#A80036" points="300.5,116.761,304.5,107.761,300.5,111.761,296.5,107.761,300.5,116.761" style="stroke: #A80036; stroke-width: 1.0;" />
        <!--link RegisterFreelancerController to Platform-->
        <path d="M260.08,207.151 C243.588,225.166 224.62,245.884 208.397,263.605 " fill="none" id="RegisterFreelancerController-Platform" style="stroke: #A80036; stroke-width: 1.0; stroke-dasharray: 7.0,7.0;" />
        <polygon fill="#A80036" points="204.765,267.572,213.792,263.6332,208.1406,263.8835,207.8904,258.2322,204.765,267.572" style="stroke: #A80036; stroke-width: 1.0;" />
        <!--link RegisterFreelancerController to FreelancersRegister-->
        <path d="M314.437,207.015 C331.913,262.206 361.884,356.859 380.918,416.972 " fill="none" id="RegisterFreelancerController-FreelancersRegister" style="stroke: #A80036; stroke-width: 1.0; stroke-dasharray: 7.0,7.0;" />
        <polygon fill="#A80036" points="382.496,421.958,383.5934,412.1705,380.9871,417.1911,375.9664,414.5848,382.496,421.958" style="stroke: #A80036; stroke-width: 1.0;" />
        <!--link Platform to Organization-->
        <path d="M163.094,344.141 C157.531,372.044 149.961,410.007 144.498,437.402 " fill="none" id="Platform-Organization" style="stroke: #A80036; stroke-width: 1.0;" />
        <polygon fill="#A80036" points="143.504,442.389,149.1882,434.346,144.4827,437.4857,141.343,432.7802,143.504,442.389" style="stroke: #A80036; stroke-width: 1.0;" /><text fill="#000000" font-family="sans-serif" font-size="13" lengthAdjust="spacingAndGlyphs" textLength="82" x="158.5" y="388.4951">has registered</text>
        <polygon fill="#000000" points="195,397.3516,198,403.3516,201,397.3516,195,397.3516" style="stroke: #000000; stroke-width: 1.0;" /><text fill="#000000" font-family="sans-serif" font-size="13" lengthAdjust="spacingAndGlyphs" textLength="7" x="154.3559" y="365.044">1</text><text fill="#000000" font-family="sans-serif" font-size="13" lengthAdjust="spacingAndGlyphs" textLength="5" x="139.2267" y="431.8706">*</text>
        <!--link Platform to User-->
        <path d="M124.572,344.031 C102.3769,364.57 77.5607,391.997 63.5,422 C7.0084,542.541 30.2554,705.404 47.3654,786.036 " fill="none" id="Platform-User" style="stroke: #A80036; stroke-width: 1.0;" />
        <polygon fill="#A80036" points="48.4826,791.227,50.5006,781.5871,47.4312,786.3388,42.6794,783.2694,48.4826,791.227" style="stroke: #A80036; stroke-width: 1.0;" /><text fill="#000000" font-family="sans-serif" font-size="13" lengthAdjust="spacingAndGlyphs" textLength="82" x="31.5" y="569.4951">has registered</text>
        <polygon fill="#000000" points="68,578.3516,71,584.3516,74,578.3516,68,578.3516" style="stroke: #000000; stroke-width: 1.0;" /><text fill="#000000" font-family="sans-serif" font-size="13" lengthAdjust="spacingAndGlyphs" textLength="7" x="109.3855" y="365.2063">1</text><text fill="#000000" font-family="sans-serif" font-size="13" lengthAdjust="spacingAndGlyphs" textLength="5" x="41.4127" y="780.6293">*</text>
        <!--link Platform to FreelancersRegister-->
        <path d="M221.668,344.141 C252.073,366.212 291.151,394.578 324.835,419.028 " fill="none" id="Platform-FreelancersRegister" style="stroke: #A80036; stroke-width: 1.0;" />
        <polygon fill="#A80036" points="328.915,421.99,323.9819,413.4657,324.8688,419.0525,319.282,419.9395,328.915,421.99" style="stroke: #A80036; stroke-width: 1.0;" /><text fill="#000000" font-family="sans-serif" font-size="13" lengthAdjust="spacingAndGlyphs" textLength="7" x="222.2651" y="365.044">1</text><text fill="#000000" font-family="sans-serif" font-size="13" lengthAdjust="spacingAndGlyphs" textLength="7" x="311.6374" y="411.1171">1</text>
        <!--link FreelancersRegister to Freelancer-->
        <path d="M383.93,525.076 C367.006,583.82 338.83,681.624 318.625,751.759 " fill="none" id="FreelancersRegister-Freelancer" style="stroke: #A80036; stroke-width: 1.0;" />
        <polygon fill="#A80036" points="317.184,756.76,323.5195,749.2193,318.5684,751.9555,315.8322,747.0044,317.184,756.76" style="stroke: #A80036; stroke-width: 1.0;" /><text fill="#000000" font-family="sans-serif" font-size="13" lengthAdjust="spacingAndGlyphs" textLength="82" x="361.5" y="646.4951">has registered</text>
        <polygon fill="#000000" points="398,655.3516,401,661.3516,404,655.3516,398,655.3516" style="stroke: #000000; stroke-width: 1.0;" /><text fill="#000000" font-family="sans-serif" font-size="13" lengthAdjust="spacingAndGlyphs" textLength="7" x="374.3889" y="546.9495">1</text><text fill="#000000" font-family="sans-serif" font-size="13" lengthAdjust="spacingAndGlyphs" textLength="5" x="314.0447" y="746.1972">*</text>
        <!--link Organization to Collaborator-->
        <path d="M142.636,504.855 C147.053,530.967 153.471,568.902 158.384,597.938 " fill="none" id="Organization-Collaborator" style="stroke: #A80036; stroke-width: 1.0;" />
        <polygon fill="#A80036" points="159.221,602.884,161.6632,593.3427,158.3867,597.9541,153.7754,594.6776,159.221,602.884" style="stroke: #A80036; stroke-width: 1.0;" /><text fill="#000000" font-family="sans-serif" font-size="13" lengthAdjust="spacingAndGlyphs" textLength="21" x="155.5" y="569.4951">has</text>
        <polygon fill="#000000" points="161.5,578.3516,164.5,584.3516,167.5,578.3516,161.5,578.3516" style="stroke: #000000; stroke-width: 1.0;" /><text fill="#000000" font-family="sans-serif" font-size="13" lengthAdjust="spacingAndGlyphs" textLength="7" x="135.9479" y="525.9013">1</text><text fill="#000000" font-family="sans-serif" font-size="13" lengthAdjust="spacingAndGlyphs" textLength="20" x="136.3213" y="592.2252">1..*</text>
        <!--link Collaborator to User-->
        <path d="M137.03,679.068 C130.258,688.587 123.317,698.975 117.5,709 C103.1197,733.782 89.6157,762.751 79.2623,786.71 " fill="none" id="Collaborator-User" style="stroke: #A80036; stroke-width: 1.0;" />
        <polygon fill="#A80036" points="77.2343,791.432,84.461,784.7406,79.2072,786.8377,77.1101,781.5839,77.2343,791.432" style="stroke: #A80036; stroke-width: 1.0;" /><text fill="#000000" font-family="sans-serif" font-size="13" lengthAdjust="spacingAndGlyphs" textLength="36" x="118.5" y="723.4951">act as</text>
        <polygon fill="#000000" points="132,732.3516,135,738.3516,138,732.3516,132,732.3516" style="stroke: #000000; stroke-width: 1.0;" /><text fill="#000000" font-family="sans-serif" font-size="13" lengthAdjust="spacingAndGlyphs" textLength="22" x="108.4928" y="700.2494">0..1</text><text fill="#000000" font-family="sans-serif" font-size="13" lengthAdjust="spacingAndGlyphs" textLength="7" x="72.5029" y="780.5366">1</text>
        <!--link Collaborator to Freelancer-->
        <path d="M188.581,679.019 C198.034,694.001 209.164,711.408 219.5,727 C225.045,735.365 230.89,744.046 236.769,752.69 " fill="none" id="Collaborator-Freelancer" style="stroke: #A80036; stroke-width: 1.0;" />
        <polygon fill="#A80036" points="239.657,756.928,237.8937,747.2383,236.8411,752.7963,231.2831,751.7437,239.657,756.928" style="stroke: #A80036; stroke-width: 1.0;" /><text fill="#000000" font-family="sans-serif" font-size="13" lengthAdjust="spacingAndGlyphs" textLength="50" x="220.5" y="723.4951">registers</text>
        <polygon fill="#000000" points="241,732.3516,244,738.3516,247,732.3516,241,732.3516" style="stroke: #000000; stroke-width: 1.0;" /><text fill="#000000" font-family="sans-serif" font-size="13" lengthAdjust="spacingAndGlyphs" textLength="7" x="184.8241" y="700.1923">1</text><text fill="#000000" font-family="sans-serif" font-size="13" lengthAdjust="spacingAndGlyphs" textLength="5" x="229.1915" y="746.1081">*</text>
        <!--link Freelancer to LevelOfExpertise-->
        <path d="M261.485,916.053 C251.253,940.398 240.198,966.702 230.773,989.127 " fill="none" id="Freelancer-LevelOfExpertise" style="stroke: #A80036; stroke-width: 1.0;" />
        <polygon fill="#A80036" points="228.787,993.852,235.9612,987.1043,230.724,989.2424,228.5859,984.0052,228.787,993.852" style="stroke: #A80036; stroke-width: 1.0;" /><text fill="#000000" font-family="sans-serif" font-size="13" lengthAdjust="spacingAndGlyphs" textLength="21" x="249.5" y="960.4951">has</text>
        <polygon fill="#000000" points="255.5,969.3516,258.5,975.3516,261.5,969.3516,255.5,969.3516" style="stroke: #000000; stroke-width: 1.0;" /><text fill="#000000" font-family="sans-serif" font-size="13" lengthAdjust="spacingAndGlyphs" textLength="7" x="251.347" y="937.1007">1</text><text fill="#000000" font-family="sans-serif" font-size="13" lengthAdjust="spacingAndGlyphs" textLength="7" x="224.2883" y="982.9597">1</text>
        <!--link Freelancer to Location-->
        <path d="M327.895,916.053 C339.29,942.859 351.695,972.039 361.798,995.803 " fill="none" id="Freelancer-Location" style="stroke: #A80036; stroke-width: 1.0;" />
        <polygon fill="#A80036" points="363.787,1000.4809,363.9479,990.6334,361.8312,995.8793,356.5853,993.7626,363.787,1000.4809" style="stroke: #A80036; stroke-width: 1.0;" /><text fill="#000000" font-family="sans-serif" font-size="13" lengthAdjust="spacingAndGlyphs" textLength="21" x="347.5" y="960.4951">has</text>
        <polygon fill="#000000" points="353.5,969.3516,356.5,975.3516,359.5,969.3516,353.5,969.3516" style="stroke: #000000; stroke-width: 1.0;" /><text fill="#000000" font-family="sans-serif" font-size="13" lengthAdjust="spacingAndGlyphs" textLength="7" x="323.4641" y="937.1007">1</text><text fill="#000000" font-family="sans-serif" font-size="13" lengthAdjust="spacingAndGlyphs" textLength="7" x="353.2468" y="989.5935">1</text>
        <!--
@startuml

class RegisterFreelancerUI {

}

class RegisterFreelancerController {
  +getLevelsOfExpertise()
  +newFreelancer(id, name, email, NIF, IBAN, address, country, levelId)
  +registerFreelancer()
}

class Platform {
  -String designation
  +RegisterFreelancer getFreelancersRegister()
}

class FreelancersRegister {
  +Freelancer newFreelancer(id, name, email, NIF, IBAN, level, local)
  +validateFreelancer(free)
  +registerFreelancer(free)
  +addFreelancer(free)
}

class Organization {
  -String designation
}

class Collaborator {
  -String name
  -String email
}

class User {
  -String name
  -String email
  -String password
}

class Freelancer {
  -String id
  -String name
  -String email
  -double NIF
  -String IBAN
  -double OverallPayments
  +Location newLocation(address,country)
  +Freelancer(id, name, email, NIF, IBAN, level, local)
}

enum LevelOfExpertise {
   -JUNIOR
   -SENIOR
   +values()
   +getLevelById()
}

class Location {
  -String address
  -String country
  +Location(address,country)
}

RegisterFreelancerUI ..> RegisterFreelancerController
RegisterFreelancerController ..> Platform
RegisterFreelancerController ..> FreelancersRegister

Platform "1" - -> "*" Organization : has registered >
Platform "1" - -> "*" User : has registered >
Platform "1" - -> "1" FreelancersRegister

FreelancersRegister "1" - -> "*" Freelancer : has registered >

Organization "1" - -> "1..*" Collaborator: has >

Collaborator "0..1" - -> "1" User : act as >
Collaborator "1" - -> "*" Freelancer : registers >

Freelancer "1" - -> "1" LevelOfExpertise : has >
Freelancer "1" - -> "1" Location : has >
@enduml

PlantUML version 1.2018.14(Fri Dec 21 16:33:16 GMT 2018)
(GPL source distribution)
Java Runtime: Java(TM) SE Runtime Environment
JVM: Java HotSpot(TM) Client VM
Java Version: 1.8.0_221-b11
Operating System: Windows 10
OS Version: 10.0
Default Encoding: Cp1252
Language: pt
Country: PT
-->
    </g>
</svg>