<?xml version="1.0" encoding="UTF-8" standalone="no"?><svg xmlns="http://www.w3.org/2000/svg" xmlns:xlink="http://www.w3.org/1999/xlink" contentScriptType="application/ecmascript" contentStyleType="text/css" height="967px" preserveAspectRatio="none" style="width:1004px;height:967px;" version="1.1" viewBox="0 0 1004 967" width="1004px" zoomAndPan="magnify">
    <defs>
        <filter height="300%" id="fd5hc67n2d6g7" width="300%" x="-1" y="-1">
            <feGaussianBlur result="blurOut" stdDeviation="2.0" />
            <feColorMatrix in="blurOut" result="blurOut2" type="matrix" values="0 0 0 0 0 0 0 0 0 0 0 0 0 0 0 0 0 0 .4 0" />
            <feOffset dx="4.0" dy="4.0" in="blurOut2" result="blurOut3" />
            <feBlend in="SourceGraphic" in2="blurOut3" mode="normal" />
        </filter>
    </defs>
    <g>
        <!--class Manager-->
        <rect fill="#FEFECE" filter="url(#fd5hc67n2d6g7)" height="117.1797" id="Manager" style="stroke: #A80036; stroke-width: 1.5;" width="137" x="280.57" y="839" />
        <ellipse cx="321.22" cy="855" fill="#ADD1B2" rx="11" ry="11" style="stroke: #A80036; stroke-width: 1.0;" />
        <path d="M323.9856,850.875 Q324.1419,850.6563 324.3294,850.5469 Q324.5169,850.4375 324.7356,850.4375 Q325.1106,850.4375 325.345,850.6953 Q325.5794,850.9531 325.5794,851.5625 L325.5794,853.0156 Q325.5794,853.625 325.345,853.8906 Q325.1106,854.1563 324.7356,854.1563 Q324.3919,854.1563 324.1887,853.9531 Q323.9856,853.7656 323.8762,853.25 Q323.8294,852.8906 323.6419,852.7031 Q323.3137,852.3281 322.7044,852.1094 Q322.095,851.8906 321.47,851.8906 Q320.7044,851.8906 320.0716,852.2188 Q319.4387,852.5469 318.9466,853.2969 Q318.4544,854.0469 318.4544,855.0781 L318.4544,856.1719 Q318.4544,857.4063 319.345,858.2266 Q320.2356,859.0469 321.8294,859.0469 Q322.7669,859.0469 323.4231,858.7969 Q323.8137,858.6406 324.2356,858.2031 Q324.5012,857.9375 324.6497,857.8594 Q324.7981,857.7813 325.0012,857.7813 Q325.3294,857.7813 325.5872,858.0391 Q325.845,858.2969 325.845,858.6406 Q325.845,858.9844 325.5012,859.3906 Q325.0012,859.9688 324.2044,860.2969 Q323.1262,860.75 321.8294,860.75 Q320.3137,860.75 319.1106,860.125 Q318.1262,859.625 317.4387,858.5547 Q316.7512,857.4844 316.7512,856.2031 L316.7512,855.0469 Q316.7512,853.7188 317.3684,852.5703 Q317.9856,851.4219 319.0794,850.8047 Q320.1731,850.1875 321.4075,850.1875 Q322.1419,850.1875 322.7903,850.3516 Q323.4387,850.5156 323.9856,850.875 Z " /><text fill="#000000" font-family="sans-serif" font-size="12" lengthAdjust="spacingAndGlyphs" textLength="48" x="340.92" y="859.9102">Manager</text>
        <line style="stroke: #A80036; stroke-width: 1.5;" x1="281.57" x2="416.57" y1="871" y2="871" /><text fill="#000000" font-family="sans-serif" font-size="11" lengthAdjust="spacingAndGlyphs" textLength="61" x="286.57" y="886.4189">-String name</text><text fill="#000000" font-family="sans-serif" font-size="11" lengthAdjust="spacingAndGlyphs" textLength="59" x="286.57" y="900.2549">-String email</text>
        <line style="stroke: #A80036; stroke-width: 1.5;" x1="281.57" x2="416.57" y1="906.6719" y2="906.6719" /><text fill="#000000" font-family="sans-serif" font-size="11" lengthAdjust="spacingAndGlyphs" textLength="125" x="286.57" y="922.0908">+Manager(nameM,emailM)</text><text fill="#000000" font-family="sans-serif" font-size="11" lengthAdjust="spacingAndGlyphs" textLength="87" x="286.57" y="935.9268">+String getName()</text><text fill="#000000" font-family="sans-serif" font-size="11" lengthAdjust="spacingAndGlyphs" textLength="84" x="286.57" y="949.7627">+String getEmail()</text>
        <!--class Collaborator-->
        <rect fill="#FEFECE" filter="url(#fd5hc67n2d6g7)" height="117.1797" id="Collaborator" style="stroke: #A80036; stroke-width: 1.5;" width="151" x="810.57" y="839" />
        <ellipse cx="848.52" cy="855" fill="#ADD1B2" rx="11" ry="11" style="stroke: #A80036; stroke-width: 1.0;" />
        <path d="M851.2856,850.875 Q851.4419,850.6563 851.6294,850.5469 Q851.8169,850.4375 852.0356,850.4375 Q852.4106,850.4375 852.645,850.6953 Q852.8794,850.9531 852.8794,851.5625 L852.8794,853.0156 Q852.8794,853.625 852.645,853.8906 Q852.4106,854.1563 852.0356,854.1563 Q851.6919,854.1563 851.4888,853.9531 Q851.2856,853.7656 851.1763,853.25 Q851.1294,852.8906 850.9419,852.7031 Q850.6138,852.3281 850.0044,852.1094 Q849.395,851.8906 848.77,851.8906 Q848.0044,851.8906 847.3716,852.2188 Q846.7388,852.5469 846.2466,853.2969 Q845.7544,854.0469 845.7544,855.0781 L845.7544,856.1719 Q845.7544,857.4063 846.645,858.2266 Q847.5356,859.0469 849.1294,859.0469 Q850.0669,859.0469 850.7231,858.7969 Q851.1138,858.6406 851.5356,858.2031 Q851.8013,857.9375 851.9497,857.8594 Q852.0981,857.7813 852.3013,857.7813 Q852.6294,857.7813 852.8872,858.0391 Q853.145,858.2969 853.145,858.6406 Q853.145,858.9844 852.8013,859.3906 Q852.3013,859.9688 851.5044,860.2969 Q850.4263,860.75 849.1294,860.75 Q847.6138,860.75 846.4106,860.125 Q845.4263,859.625 844.7388,858.5547 Q844.0513,857.4844 844.0513,856.2031 L844.0513,855.0469 Q844.0513,853.7188 844.6684,852.5703 Q845.2856,851.4219 846.3794,850.8047 Q847.4731,850.1875 848.7075,850.1875 Q849.4419,850.1875 850.0903,850.3516 Q850.7388,850.5156 851.2856,850.875 Z " /><text fill="#000000" font-family="sans-serif" font-size="12" lengthAdjust="spacingAndGlyphs" textLength="68" x="867.62" y="859.9102">Collaborator</text>
        <line style="stroke: #A80036; stroke-width: 1.5;" x1="811.57" x2="960.57" y1="871" y2="871" /><text fill="#000000" font-family="sans-serif" font-size="11" lengthAdjust="spacingAndGlyphs" textLength="61" x="816.57" y="886.4189">-String name</text><text fill="#000000" font-family="sans-serif" font-size="11" lengthAdjust="spacingAndGlyphs" textLength="59" x="816.57" y="900.2549">-String email</text>
        <line style="stroke: #A80036; stroke-width: 1.5;" x1="811.57" x2="960.57" y1="906.6719" y2="906.6719" /><text fill="#000000" font-family="sans-serif" font-size="11" lengthAdjust="spacingAndGlyphs" textLength="139" x="816.57" y="922.0908">+Collaborator(nameC,emailC)</text><text fill="#000000" font-family="sans-serif" font-size="11" lengthAdjust="spacingAndGlyphs" textLength="87" x="816.57" y="935.9268">+String getName()</text><text fill="#000000" font-family="sans-serif" font-size="11" lengthAdjust="spacingAndGlyphs" textLength="84" x="816.57" y="949.7627">+String getEmail()</text>
        <!--class Organization-->
        <rect fill="#FEFECE" filter="url(#fd5hc67n2d6g7)" height="103.3438" id="Organization" style="stroke: #A80036; stroke-width: 1.5;" width="284" x="655.07" y="658" />
        <ellipse cx="758.32" cy="674" fill="#ADD1B2" rx="11" ry="11" style="stroke: #A80036; stroke-width: 1.0;" />
        <path d="M761.0856,669.875 Q761.2419,669.6563 761.4294,669.5469 Q761.6169,669.4375 761.8356,669.4375 Q762.2106,669.4375 762.445,669.6953 Q762.6794,669.9531 762.6794,670.5625 L762.6794,672.0156 Q762.6794,672.625 762.445,672.8906 Q762.2106,673.1563 761.8356,673.1563 Q761.4919,673.1563 761.2888,672.9531 Q761.0856,672.7656 760.9763,672.25 Q760.9294,671.8906 760.7419,671.7031 Q760.4138,671.3281 759.8044,671.1094 Q759.195,670.8906 758.57,670.8906 Q757.8044,670.8906 757.1716,671.2188 Q756.5388,671.5469 756.0466,672.2969 Q755.5544,673.0469 755.5544,674.0781 L755.5544,675.1719 Q755.5544,676.4063 756.445,677.2266 Q757.3356,678.0469 758.9294,678.0469 Q759.8669,678.0469 760.5231,677.7969 Q760.9138,677.6406 761.3356,677.2031 Q761.6013,676.9375 761.7497,676.8594 Q761.8981,676.7813 762.1013,676.7813 Q762.4294,676.7813 762.6872,677.0391 Q762.945,677.2969 762.945,677.6406 Q762.945,677.9844 762.6013,678.3906 Q762.1013,678.9688 761.3044,679.2969 Q760.2263,679.75 758.9294,679.75 Q757.4138,679.75 756.2106,679.125 Q755.2263,678.625 754.5388,677.5547 Q753.8513,676.4844 753.8513,675.2031 L753.8513,674.0469 Q753.8513,672.7188 754.4684,671.5703 Q755.0856,670.4219 756.1794,669.8047 Q757.2731,669.1875 758.5075,669.1875 Q759.2419,669.1875 759.8903,669.3516 Q760.5388,669.5156 761.0856,669.875 Z " /><text fill="#000000" font-family="sans-serif" font-size="12" lengthAdjust="spacingAndGlyphs" textLength="69" x="778.82" y="678.9102">Organization</text>
        <line style="stroke: #A80036; stroke-width: 1.5;" x1="656.07" x2="938.07" y1="690" y2="690" /><text fill="#000000" font-family="sans-serif" font-size="11" lengthAdjust="spacingAndGlyphs" textLength="90" x="661.07" y="705.4189">-String designation</text>
        <line style="stroke: #A80036; stroke-width: 1.5;" x1="656.07" x2="938.07" y1="711.8359" y2="711.8359" /><text fill="#000000" font-family="sans-serif" font-size="11" lengthAdjust="spacingAndGlyphs" textLength="272" x="661.07" y="727.2549">+Organization(designation,nomeM,emailM,nomeC,emailC)</text><text fill="#000000" font-family="sans-serif" font-size="11" lengthAdjust="spacingAndGlyphs" textLength="192" x="661.07" y="741.0908">+Manager newManager(nomeM,emailM)</text><text fill="#000000" font-family="sans-serif" font-size="11" lengthAdjust="spacingAndGlyphs" textLength="222" x="661.07" y="754.9268">+Collaborator newCollaborator(nameC,emailC)</text>
        <!--class Platform-->
        <rect fill="#FEFECE" filter="url(#fd5hc67n2d6g7)" height="103.3438" id="Platform" style="stroke: #A80036; stroke-width: 1.5;" width="410" x="367.07" y="254" />
        <ellipse cx="544.82" cy="270" fill="#ADD1B2" rx="11" ry="11" style="stroke: #A80036; stroke-width: 1.0;" />
        <path d="M547.5856,265.875 Q547.7419,265.6563 547.9294,265.5469 Q548.1169,265.4375 548.3356,265.4375 Q548.7106,265.4375 548.945,265.6953 Q549.1794,265.9531 549.1794,266.5625 L549.1794,268.0156 Q549.1794,268.625 548.945,268.8906 Q548.7106,269.1563 548.3356,269.1563 Q547.9919,269.1563 547.7887,268.9531 Q547.5856,268.7656 547.4762,268.25 Q547.4294,267.8906 547.2419,267.7031 Q546.9137,267.3281 546.3044,267.1094 Q545.695,266.8906 545.07,266.8906 Q544.3044,266.8906 543.6716,267.2188 Q543.0387,267.5469 542.5466,268.2969 Q542.0544,269.0469 542.0544,270.0781 L542.0544,271.1719 Q542.0544,272.4063 542.945,273.2266 Q543.8356,274.0469 545.4294,274.0469 Q546.3669,274.0469 547.0231,273.7969 Q547.4137,273.6406 547.8356,273.2031 Q548.1012,272.9375 548.2497,272.8594 Q548.3981,272.7813 548.6012,272.7813 Q548.9294,272.7813 549.1872,273.0391 Q549.445,273.2969 549.445,273.6406 Q549.445,273.9844 549.1012,274.3906 Q548.6012,274.9688 547.8044,275.2969 Q546.7262,275.75 545.4294,275.75 Q543.9137,275.75 542.7106,275.125 Q541.7262,274.625 541.0387,273.5547 Q540.3512,272.4844 540.3512,271.2031 L540.3512,270.0469 Q540.3512,268.7188 540.9684,267.5703 Q541.5856,266.4219 542.6794,265.8047 Q543.7731,265.1875 545.0075,265.1875 Q545.7419,265.1875 546.3903,265.3516 Q547.0387,265.5156 547.5856,265.875 Z " /><text fill="#000000" font-family="sans-serif" font-size="12" lengthAdjust="spacingAndGlyphs" textLength="46" x="565.32" y="274.9102">Platform</text>
        <line style="stroke: #A80036; stroke-width: 1.5;" x1="368.07" x2="776.07" y1="286" y2="286" /><text fill="#000000" font-family="sans-serif" font-size="11" lengthAdjust="spacingAndGlyphs" textLength="91" x="373.07" y="301.4189">-String designacao</text>
        <line style="stroke: #A80036; stroke-width: 1.5;" x1="368.07" x2="776.07" y1="307.8359" y2="307.8359" /><text fill="#000000" font-family="sans-serif" font-size="11" lengthAdjust="spacingAndGlyphs" textLength="246" x="373.07" y="323.2549">+OrganizationsRegister getOrganizationsRegister()</text><text fill="#000000" font-family="sans-serif" font-size="11" lengthAdjust="spacingAndGlyphs" textLength="398" x="373.07" y="337.0908">+ExternalPasswordGeneratorAlgorithm getExternalPasswordGeneratorAlgorithm()</text><text fill="#000000" font-family="sans-serif" font-size="11" lengthAdjust="spacingAndGlyphs" textLength="232" x="373.07" y="350.9268">+FacadeAuthorization getFacadeAuthorization()</text>
        <!--class OrganizationsRegister-->
        <rect fill="#FEFECE" filter="url(#fd5hc67n2d6g7)" height="144.8516" id="OrganizationsRegister" style="stroke: #A80036; stroke-width: 1.5;" width="420" x="362.07" y="435" />
        <ellipse cx="506.32" cy="451" fill="#ADD1B2" rx="11" ry="11" style="stroke: #A80036; stroke-width: 1.0;" />
        <path d="M509.0856,446.875 Q509.2419,446.6563 509.4294,446.5469 Q509.6169,446.4375 509.8356,446.4375 Q510.2106,446.4375 510.445,446.6953 Q510.6794,446.9531 510.6794,447.5625 L510.6794,449.0156 Q510.6794,449.625 510.445,449.8906 Q510.2106,450.1563 509.8356,450.1563 Q509.4919,450.1563 509.2888,449.9531 Q509.0856,449.7656 508.9763,449.25 Q508.9294,448.8906 508.7419,448.7031 Q508.4138,448.3281 507.8044,448.1094 Q507.195,447.8906 506.57,447.8906 Q505.8044,447.8906 505.1716,448.2188 Q504.5388,448.5469 504.0466,449.2969 Q503.5544,450.0469 503.5544,451.0781 L503.5544,452.1719 Q503.5544,453.4063 504.445,454.2266 Q505.3356,455.0469 506.9294,455.0469 Q507.8669,455.0469 508.5231,454.7969 Q508.9138,454.6406 509.3356,454.2031 Q509.6013,453.9375 509.7497,453.8594 Q509.8981,453.7813 510.1013,453.7813 Q510.4294,453.7813 510.6872,454.0391 Q510.945,454.2969 510.945,454.6406 Q510.945,454.9844 510.6013,455.3906 Q510.1013,455.9688 509.3044,456.2969 Q508.2263,456.75 506.9294,456.75 Q505.4138,456.75 504.2106,456.125 Q503.2263,455.625 502.5388,454.5547 Q501.8513,453.4844 501.8513,452.2031 L501.8513,451.0469 Q501.8513,449.7188 502.4684,448.5703 Q503.0856,447.4219 504.1794,446.8047 Q505.2731,446.1875 506.5075,446.1875 Q507.2419,446.1875 507.8903,446.3516 Q508.5388,446.5156 509.0856,446.875 Z " /><text fill="#000000" font-family="sans-serif" font-size="12" lengthAdjust="spacingAndGlyphs" textLength="123" x="526.82" y="455.9102">OrganizationsRegister</text>
        <line style="stroke: #A80036; stroke-width: 1.5;" x1="363.07" x2="781.07" y1="467" y2="467" />
        <line style="stroke: #A80036; stroke-width: 1.5;" x1="363.07" x2="781.07" y1="475" y2="475" /><text fill="#000000" font-family="sans-serif" font-size="11" lengthAdjust="spacingAndGlyphs" textLength="358" x="368.07" y="490.4189">+Organization newOrganization(designation,nomeM,emailM,nomeC,emailC)</text><text fill="#000000" font-family="sans-serif" font-size="11" lengthAdjust="spacingAndGlyphs" textLength="192" x="368.07" y="504.2549">+validateOrganization(Organization org)</text><text fill="#000000" font-family="sans-serif" font-size="11" lengthAdjust="spacingAndGlyphs" textLength="192" x="368.07" y="518.0908">+registerOrganization(Organization org)</text><text fill="#000000" font-family="sans-serif" font-size="11" lengthAdjust="spacingAndGlyphs" textLength="171" x="368.07" y="531.9268">-addOrganization(Organization org)</text><text fill="#000000" font-family="sans-serif" font-size="11" lengthAdjust="spacingAndGlyphs" textLength="193" x="368.07" y="545.7627">-registerManagerAsUser(Manager man)</text><text fill="#000000" font-family="sans-serif" font-size="11" lengthAdjust="spacingAndGlyphs" textLength="233" x="368.07" y="559.5986">-registerCollaboratorAsUser(Collaborator collab)</text><text fill="#000000" font-family="sans-serif" font-size="11" lengthAdjust="spacingAndGlyphs" textLength="408" x="368.07" y="573.4346">-sendEmail(String EmailSender, String EmailReceiver, String Subject, String message)</text>
        <!--class FacadeAuthorization-->
        <rect fill="#FEFECE" filter="url(#fd5hc67n2d6g7)" height="75.6719" id="FacadeAuthorization" style="stroke: #A80036; stroke-width: 1.5;" width="257" x="43.5696" y="671.5" />
        <ellipse cx="112.3196" cy="687.5" fill="#ADD1B2" rx="11" ry="11" style="stroke: #A80036; stroke-width: 1.0;" />
        <path d="M115.0852,683.375 Q115.2415,683.1563 115.429,683.0469 Q115.6165,682.9375 115.8352,682.9375 Q116.2102,682.9375 116.4446,683.1953 Q116.679,683.4531 116.679,684.0625 L116.679,685.5156 Q116.679,686.125 116.4446,686.3906 Q116.2102,686.6563 115.8352,686.6563 Q115.4915,686.6563 115.2884,686.4531 Q115.0852,686.2656 114.9759,685.75 Q114.929,685.3906 114.7415,685.2031 Q114.4134,684.8281 113.804,684.6094 Q113.1946,684.3906 112.5696,684.3906 Q111.804,684.3906 111.1712,684.7188 Q110.5384,685.0469 110.0462,685.7969 Q109.554,686.5469 109.554,687.5781 L109.554,688.6719 Q109.554,689.9063 110.4446,690.7266 Q111.3352,691.5469 112.929,691.5469 Q113.8665,691.5469 114.5227,691.2969 Q114.9134,691.1406 115.3352,690.7031 Q115.6009,690.4375 115.7493,690.3594 Q115.8977,690.2813 116.1009,690.2813 Q116.429,690.2813 116.6868,690.5391 Q116.9446,690.7969 116.9446,691.1406 Q116.9446,691.4844 116.6009,691.8906 Q116.1009,692.4688 115.304,692.7969 Q114.2259,693.25 112.929,693.25 Q111.4134,693.25 110.2102,692.625 Q109.2259,692.125 108.5384,691.0547 Q107.8509,689.9844 107.8509,688.7031 L107.8509,687.5469 Q107.8509,686.2188 108.468,685.0703 Q109.0852,683.9219 110.179,683.3047 Q111.2727,682.6875 112.5071,682.6875 Q113.2415,682.6875 113.8899,682.8516 Q114.5384,683.0156 115.0852,683.375 Z " /><text fill="#000000" font-family="sans-serif" font-size="12" lengthAdjust="spacingAndGlyphs" textLength="111" x="132.8196" y="692.4102">FacadeAuthorization</text>
        <line style="stroke: #A80036; stroke-width: 1.5;" x1="44.5696" x2="299.5696" y1="703.5" y2="703.5" />
        <line style="stroke: #A80036; stroke-width: 1.5;" x1="44.5696" x2="299.5696" y1="711.5" y2="711.5" /><text fill="#000000" font-family="sans-serif" font-size="11" lengthAdjust="spacingAndGlyphs" textLength="245" x="49.5696" y="726.9189">+registersUserWithRole(nameM,emailM,pwd,papel)</text><text fill="#000000" font-family="sans-serif" font-size="11" lengthAdjust="spacingAndGlyphs" textLength="243" x="49.5696" y="740.7549">+registersUserWithRole(nameC,emailC,pwd,papel)</text>
        <!--class ExternalPasswordGeneratorAlgorithm-->
        <rect fill="#FEFECE" filter="url(#fd5hc67n2d6g7)" height="83.8594" id="ExternalPasswordGeneratorAlgorithm" style="stroke: #A80036; stroke-width: 1.5;" width="284" x="336.07" y="667.5" />
        <ellipse cx="371.77" cy="687.5938" fill="#B4A7E5" rx="11" ry="11" style="stroke: #A80036; stroke-width: 1.0;" />
        <path d="M372.7231,684.2344 L372.7231,690.8906 L374.4419,690.8906 Q375.0513,690.8906 375.3169,691.125 Q375.5825,691.3594 375.5825,691.75 Q375.5825,692.125 375.3169,692.3594 Q375.0513,692.5938 374.4419,692.5938 L369.3013,692.5938 Q368.6919,692.5938 368.4263,692.3594 Q368.1606,692.125 368.1606,691.7344 Q368.1606,691.3594 368.4263,691.125 Q368.6919,690.8906 369.3013,690.8906 L371.02,690.8906 L371.02,684.2344 L369.3013,684.2344 Q368.6919,684.2344 368.4263,684 Q368.1606,683.7656 368.1606,683.375 Q368.1606,683 368.4263,682.7656 Q368.6919,682.5313 369.3013,682.5313 L374.4419,682.5313 Q375.0513,682.5313 375.3169,682.7656 Q375.5825,683 375.5825,683.375 Q375.5825,683.7656 375.3169,684 Q375.0513,684.2344 374.4419,684.2344 L372.7231,684.2344 Z " /><text fill="#000000" font-family="sans-serif" font-size="12" font-style="italic" lengthAdjust="spacingAndGlyphs" textLength="61" x="462.87" y="684.957">«interface»</text><text fill="#000000" font-family="sans-serif" font-size="12" font-style="italic" lengthAdjust="spacingAndGlyphs" textLength="206" x="390.37" y="700.0508">ExternalPasswordGeneratorAlgorithm</text>
        <line style="stroke: #A80036; stroke-width: 1.5;" x1="337.07" x2="619.07" y1="707.6875" y2="707.6875" />
        <line style="stroke: #A80036; stroke-width: 1.5;" x1="337.07" x2="619.07" y1="715.6875" y2="715.6875" /><text fill="#000000" font-family="sans-serif" font-size="11" lengthAdjust="spacingAndGlyphs" textLength="272" x="342.07" y="731.1064">+String genaratePassword(String nomeM, String emailM)</text><text fill="#000000" font-family="sans-serif" font-size="11" lengthAdjust="spacingAndGlyphs" textLength="270" x="342.07" y="744.9424">+String genaratePassword(String nomeC, String emailC)</text>
        <!--class RegisterOrganizationController-->
        <rect fill="#FEFECE" filter="url(#fd5hc67n2d6g7)" height="75.6719" id="RegisterOrganizationController" style="stroke: #A80036; stroke-width: 1.5;" width="306" x="677.07" y="117" />
        <ellipse cx="740.82" cy="133" fill="#ADD1B2" rx="11" ry="11" style="stroke: #A80036; stroke-width: 1.0;" />
        <path d="M743.5856,128.875 Q743.7419,128.6563 743.9294,128.5469 Q744.1169,128.4375 744.3356,128.4375 Q744.7106,128.4375 744.945,128.6953 Q745.1794,128.9531 745.1794,129.5625 L745.1794,131.0156 Q745.1794,131.625 744.945,131.8906 Q744.7106,132.1563 744.3356,132.1563 Q743.9919,132.1563 743.7888,131.9531 Q743.5856,131.7656 743.4763,131.25 Q743.4294,130.8906 743.2419,130.7031 Q742.9138,130.3281 742.3044,130.1094 Q741.695,129.8906 741.07,129.8906 Q740.3044,129.8906 739.6716,130.2188 Q739.0388,130.5469 738.5466,131.2969 Q738.0544,132.0469 738.0544,133.0781 L738.0544,134.1719 Q738.0544,135.4063 738.945,136.2266 Q739.8356,137.0469 741.4294,137.0469 Q742.3669,137.0469 743.0231,136.7969 Q743.4138,136.6406 743.8356,136.2031 Q744.1013,135.9375 744.2497,135.8594 Q744.3981,135.7813 744.6013,135.7813 Q744.9294,135.7813 745.1872,136.0391 Q745.445,136.2969 745.445,136.6406 Q745.445,136.9844 745.1013,137.3906 Q744.6013,137.9688 743.8044,138.2969 Q742.7263,138.75 741.4294,138.75 Q739.9138,138.75 738.7106,138.125 Q737.7263,137.625 737.0388,136.5547 Q736.3513,135.4844 736.3513,134.2031 L736.3513,133.0469 Q736.3513,131.7188 736.9684,130.5703 Q737.5856,129.4219 738.6794,128.8047 Q739.7731,128.1875 741.0075,128.1875 Q741.7419,128.1875 742.3903,128.3516 Q743.0388,128.5156 743.5856,128.875 Z " /><text fill="#000000" font-family="sans-serif" font-size="12" lengthAdjust="spacingAndGlyphs" textLength="170" x="761.32" y="137.9102">RegisterOrganizationController</text>
        <line style="stroke: #A80036; stroke-width: 1.5;" x1="678.07" x2="982.07" y1="149" y2="149" />
        <line style="stroke: #A80036; stroke-width: 1.5;" x1="678.07" x2="982.07" y1="157" y2="157" /><text fill="#000000" font-family="sans-serif" font-size="11" lengthAdjust="spacingAndGlyphs" textLength="294" x="683.07" y="172.4189">+newOrganization(designation,nomeM,emailM,nomeC,emailC)</text><text fill="#000000" font-family="sans-serif" font-size="11" lengthAdjust="spacingAndGlyphs" textLength="112" x="683.07" y="186.2549">+registerOrganization()</text>
        <!--class RegisterOrganizationUI-->
        <rect fill="#FEFECE" filter="url(#fd5hc67n2d6g7)" height="48" id="RegisterOrganizationUI" style="stroke: #A80036; stroke-width: 1.5;" width="160" x="750.07" y="8" />
        <ellipse cx="765.07" cy="24" fill="#ADD1B2" rx="11" ry="11" style="stroke: #A80036; stroke-width: 1.0;" />
        <path d="M767.8356,19.875 Q767.9919,19.6563 768.1794,19.5469 Q768.3669,19.4375 768.5856,19.4375 Q768.9606,19.4375 769.195,19.6953 Q769.4294,19.9531 769.4294,20.5625 L769.4294,22.0156 Q769.4294,22.625 769.195,22.8906 Q768.9606,23.1563 768.5856,23.1563 Q768.2419,23.1563 768.0388,22.9531 Q767.8356,22.7656 767.7263,22.25 Q767.6794,21.8906 767.4919,21.7031 Q767.1638,21.3281 766.5544,21.1094 Q765.945,20.8906 765.32,20.8906 Q764.5544,20.8906 763.9216,21.2188 Q763.2888,21.5469 762.7966,22.2969 Q762.3044,23.0469 762.3044,24.0781 L762.3044,25.1719 Q762.3044,26.4063 763.195,27.2266 Q764.0856,28.0469 765.6794,28.0469 Q766.6169,28.0469 767.2731,27.7969 Q767.6638,27.6406 768.0856,27.2031 Q768.3513,26.9375 768.4997,26.8594 Q768.6481,26.7813 768.8513,26.7813 Q769.1794,26.7813 769.4372,27.0391 Q769.695,27.2969 769.695,27.6406 Q769.695,27.9844 769.3513,28.3906 Q768.8513,28.9688 768.0544,29.2969 Q766.9763,29.75 765.6794,29.75 Q764.1638,29.75 762.9606,29.125 Q761.9763,28.625 761.2888,27.5547 Q760.6013,26.4844 760.6013,25.2031 L760.6013,24.0469 Q760.6013,22.7188 761.2184,21.5703 Q761.8356,20.4219 762.9294,19.8047 Q764.0231,19.1875 765.2575,19.1875 Q765.9919,19.1875 766.6403,19.3516 Q767.2888,19.5156 767.8356,19.875 Z " /><text fill="#000000" font-family="sans-serif" font-size="12" lengthAdjust="spacingAndGlyphs" textLength="128" x="779.07" y="28.9102">RegisterOrganizationUI</text>
        <line style="stroke: #A80036; stroke-width: 1.5;" x1="751.07" x2="909.07" y1="40" y2="40" />
        <line style="stroke: #A80036; stroke-width: 1.5;" x1="751.07" x2="909.07" y1="48" y2="48" />
        <!--link RegisterOrganizationUI to RegisterOrganizationController-->
        <path d="M830.07,56.044 C830.07,71.713 830.07,92.908 830.07,111.575 " fill="none" id="RegisterOrganizationUI-RegisterOrganizationController" style="stroke: #A80036; stroke-width: 1.0; stroke-dasharray: 7.0,7.0;" />
        <polygon fill="#A80036" points="830.07,116.767,834.07,107.767,830.07,111.767,826.07,107.767,830.07,116.767" style="stroke: #A80036; stroke-width: 1.0;" />
        <!--link RegisterOrganizationController to Platform-->
        <path d="M765.631,193.09 C735.063,210.684 697.979,232.029 664.483,251.309 " fill="none" id="RegisterOrganizationController-Platform" style="stroke: #A80036; stroke-width: 1.0; stroke-dasharray: 7.0,7.0;" />
        <polygon fill="#A80036" points="659.993,253.893,669.7885,252.8695,664.3263,251.3985,665.7973,245.9362,659.993,253.893" style="stroke: #A80036; stroke-width: 1.0;" />
        <!--link RegisterOrganizationController to OrganizationsRegister-->
        <path d="M831.762,193.237 C831.933,236.135 826.593,307.106 794.07,357 C775.024,386.218 748.062,411.154 719.464,431.808 " fill="none" id="RegisterOrganizationController-OrganizationsRegister" style="stroke: #A80036; stroke-width: 1.0; stroke-dasharray: 7.0,7.0;" />
        <polygon fill="#A80036" points="715.234,434.824,724.8843,432.8561,719.3052,431.9213,720.24,426.3422,715.234,434.824" style="stroke: #A80036; stroke-width: 1.0;" />
        <!--link RegisterOrganizationController to Organization-->
        <path d="M851.422,193.131 C855.171,202.891 857.711,213.604 857.07,224 C847.441,380.09 820.523,562.864 806.241,652.772 " fill="none" id="RegisterOrganizationController-Organization" style="stroke: #A80036; stroke-width: 1.0; stroke-dasharray: 7.0,7.0;" />
        <polygon fill="#A80036" points="805.444,657.771,810.8088,649.5115,806.2298,652.8331,802.9082,648.2542,805.444,657.771" style="stroke: #A80036; stroke-width: 1.0;" />
        <!--link Platform to OrganizationsRegister-->
        <path d="M572.07,357.227 C572.07,380.72 572.07,409.049 572.07,434.687 " fill="none" id="Platform-OrganizationsRegister" style="stroke: #A80036; stroke-width: 1.0;" /><text fill="#000000" font-family="sans-serif" font-size="13" lengthAdjust="spacingAndGlyphs" textLength="21" x="573.07" y="401.4951">has</text><text fill="#000000" font-family="sans-serif" font-size="13" lengthAdjust="spacingAndGlyphs" textLength="7" x="564.5997" y="378.7485">1</text><text fill="#000000" font-family="sans-serif" font-size="13" lengthAdjust="spacingAndGlyphs" textLength="7" x="564.7255" y="424.2517">1</text>
        <!--link OrganizationsRegister to Organization-->
        <path d="M652.664,580.14 C680.187,604.604 710.487,631.537 736.194,654.388 " fill="none" id="OrganizationsRegister-Organization" style="stroke: #A80036; stroke-width: 1.0;" />
        <polygon fill="#A80036" points="739.953,657.73,735.8831,648.7614,736.2157,654.4084,730.5686,654.741,739.953,657.73" style="stroke: #A80036; stroke-width: 1.0;" /><text fill="#000000" font-family="sans-serif" font-size="13" lengthAdjust="spacingAndGlyphs" textLength="82" x="706.07" y="624.4951">has registered</text><text fill="#000000" font-family="sans-serif" font-size="13" lengthAdjust="spacingAndGlyphs" textLength="7" x="653.012" y="601.3449">1</text><text fill="#000000" font-family="sans-serif" font-size="13" lengthAdjust="spacingAndGlyphs" textLength="5" x="726.942" y="647.194">*</text>
        <!--link OrganizationsRegister to Manager-->
        <path d="M361.961,539.278 C226.329,563.934 67.6894,603.452 26.0696,658 C-1.6989,694.394 0.7227,722.88 26.0696,761 C81.3386,844.121 198.527,876.3566 275.506,888.7882 " fill="none" id="OrganizationsRegister-Manager" style="stroke: #A80036; stroke-width: 1.0; stroke-dasharray: 7.0,7.0;" />
        <polygon fill="#A80036" points="280.518,889.5788,272.2522,884.2238,275.5792,888.7988,271.0042,892.1258,280.518,889.5788" style="stroke: #A80036; stroke-width: 1.0;" />
        <!--link OrganizationsRegister to Collaborator-->
        <path d="M782.087,541.924 C848.935,563.573 915.89,599.24 956.07,658 C992.495,711.27 962.477,783.691 931.212,834.71 " fill="none" id="OrganizationsRegister-Collaborator" style="stroke: #A80036; stroke-width: 1.0; stroke-dasharray: 7.0,7.0;" />
        <polygon fill="#A80036" points="928.574,838.961,936.7176,833.4218,931.2099,834.7122,929.9195,829.2045,928.574,838.961" style="stroke: #A80036; stroke-width: 1.0;" />
        <!--link OrganizationsRegister to FacadeAuthorization-->
        <path d="M428.79,580.14 C368.84,610.115 301.478,643.796 250.803,669.134 " fill="none" id="OrganizationsRegister-FacadeAuthorization" style="stroke: #A80036; stroke-width: 1.0; stroke-dasharray: 7.0,7.0;" />
        <polygon fill="#A80036" points="246.26,671.405,256.0988,670.959,250.7324,669.1695,252.522,663.8032,246.26,671.405" style="stroke: #A80036; stroke-width: 1.0;" />
        <!--link OrganizationsRegister to ExternalPasswordGeneratorAlgorithm-->
        <path d="M538.399,580.14 C525.509,607.566 511.16,638.094 499.691,662.496 " fill="none" id="OrganizationsRegister-ExternalPasswordGeneratorAlgorithm" style="stroke: #A80036; stroke-width: 1.0; stroke-dasharray: 7.0,7.0;" />
        <polygon fill="#A80036" points="497.437,667.292,504.8854,660.8483,499.5639,662.7669,497.6453,657.4453,497.437,667.292" style="stroke: #A80036; stroke-width: 1.0;" />
        <!--link Organization to Manager-->
        <path d="M675.243,761.08 C594.4,794.644 490.958,837.591 422.484,866.0201 " fill="none" id="Organization-Manager" style="stroke: #A80036; stroke-width: 1.0;" />
        <polygon fill="#A80036" points="417.615,868.0416,427.4608,868.285,422.2329,866.1245,424.3934,860.8965,417.615,868.0416" style="stroke: #A80036; stroke-width: 1.0;" /><text fill="#000000" font-family="sans-serif" font-size="13" lengthAdjust="spacingAndGlyphs" textLength="21" x="601.07" y="805.4951">has</text><text fill="#000000" font-family="sans-serif" font-size="13" lengthAdjust="spacingAndGlyphs" textLength="7" x="650.6189" y="782.9541">1</text><text fill="#000000" font-family="sans-serif" font-size="13" lengthAdjust="spacingAndGlyphs" textLength="22" x="425.8181" y="861.6831">0..1</text>
        <!--link Organization to Collaborator-->
        <path d="M821.389,761.325 C832.149,783.812 844.906,810.473 856.235,834.149 " fill="none" id="Organization-Collaborator" style="stroke: #A80036; stroke-width: 1.0;" />
        <polygon fill="#A80036" points="858.481,838.843,858.2036,828.9981,856.3224,834.333,850.9875,832.4518,858.481,838.843" style="stroke: #A80036; stroke-width: 1.0;" /><text fill="#000000" font-family="sans-serif" font-size="13" lengthAdjust="spacingAndGlyphs" textLength="21" x="843.07" y="805.4951">has</text><text fill="#000000" font-family="sans-serif" font-size="13" lengthAdjust="spacingAndGlyphs" textLength="7" x="817.1866" y="782.8596">1</text><text fill="#000000" font-family="sans-serif" font-size="13" lengthAdjust="spacingAndGlyphs" textLength="22" x="831.778" y="828.2248">0..1</text>
        <!--
@startuml
skinparam classAttributeIconSize 0

class Manager {
  -String name
  -String email
  +Manager(nameM,emailM)
  +String getName()
  +String getEmail()
}

class Collaborator {
  -String name
  -String email
  +Collaborator(nameC,emailC)
  +String getName()
  +String getEmail()
}

class Organization {
  -String designation
  +Organization(designation,nomeM,emailM,nomeC,emailC)
  +Manager newManager(nomeM,emailM)
  +Collaborator newCollaborator(nameC,emailC)
}

class Platform {
  -String designacao
  +OrganizationsRegister getOrganizationsRegister()
  +ExternalPasswordGeneratorAlgorithm getExternalPasswordGeneratorAlgorithm()
  +FacadeAuthorization getFacadeAuthorization()
}

class OrganizationsRegister {
  +Organization newOrganization(designation,nomeM,emailM,nomeC,emailC)
  +validateOrganization(Organization org)
  +registerOrganization(Organization org)
  -addOrganization(Organization org)
  -registerManagerAsUser(Manager man)
  -registerCollaboratorAsUser(Collaborator collab)
  -sendEmail(String EmailSender, String EmailReceiver, String Subject, String message)
}

class FacadeAuthorization {
   +registersUserWithRole(nameM,emailM,pwd,papel)
   +registersUserWithRole(nameC,emailC,pwd,papel)
}

interface ExternalPasswordGeneratorAlgorithm <<interface>>{
   +String genaratePassword(String nomeM, String emailM)
   +String genaratePassword(String nomeC, String emailC)
}

class RegisterOrganizationController {
    +newOrganization(designation,nomeM,emailM,nomeC,emailC)
    +registerOrganization()
}

class RegisterOrganizationUI {
}

RegisterOrganizationUI ..> RegisterOrganizationController
RegisterOrganizationController ..> Platform
RegisterOrganizationController ..> OrganizationsRegister
RegisterOrganizationController ..> Organization

Platform "1" - - "1" OrganizationsRegister : has

OrganizationsRegister "1" - -> "*" Organization : has registered
OrganizationsRegister ..> Manager
OrganizationsRegister ..> Collaborator
OrganizationsRegister ..> FacadeAuthorization
OrganizationsRegister ..> ExternalPasswordGeneratorAlgorithm

Organization "1" - -> "0..1" Manager : has
Organization "1" - -> "0..1" Collaborator: has

@enduml

PlantUML version 1.2018.14(Fri Dec 21 16:33:16 GMT 2018)
(GPL source distribution)
Java Runtime: Java(TM) SE Runtime Environment
JVM: Java HotSpot(TM) Client VM
Java Version: 1.8.0_221-b11
Operating System: Windows 10
OS Version: 10.0
Default Encoding: Cp1252
Language: pt
Country: PT
-->
    </g>
</svg>