<?xml version="1.0" encoding="UTF-8" standalone="no"?><svg xmlns="http://www.w3.org/2000/svg" xmlns:xlink="http://www.w3.org/1999/xlink" contentScriptType="application/ecmascript" contentStyleType="text/css" height="848px" preserveAspectRatio="none" style="width:1380px;height:848px;" version="1.1" viewBox="0 0 1380 848" width="1380px" zoomAndPan="magnify"><defs><filter height="300%" id="f9kbx9eg6uf89" width="300%" x="-1" y="-1"><feGaussianBlur result="blurOut" stdDeviation="2.0"/><feColorMatrix in="blurOut" result="blurOut2" type="matrix" values="0 0 0 0 0 0 0 0 0 0 0 0 0 0 0 0 0 0 .4 0"/><feOffset dx="4.0" dy="4.0" in="blurOut2" result="blurOut3"/><feBlend in="SourceGraphic" in2="blurOut3" mode="normal"/></filter></defs><g><rect fill="#FFFFFF" filter="url(#f9kbx9eg6uf89)" height="717.2734" style="stroke: #A80036; stroke-width: 1.0;" width="10" x="223" y="71.9609"/><rect fill="#FFFFFF" filter="url(#f9kbx9eg6uf89)" height="30" style="stroke: #A80036; stroke-width: 1.0;" width="10" x="499" y="232.3672"/><rect fill="#FFFFFF" filter="url(#f9kbx9eg6uf89)" height="30" style="stroke: #A80036; stroke-width: 1.0;" width="10" x="739.5" y="318.0703"/><rect fill="#FFFFFF" filter="url(#f9kbx9eg6uf89)" height="30" style="stroke: #A80036; stroke-width: 1.0;" width="10" x="988" y="378.4219"/><rect fill="#FFFFFF" filter="url(#f9kbx9eg6uf89)" height="30" style="stroke: #A80036; stroke-width: 1.0;" width="10" x="988" y="584.8281"/><rect fill="#FFFFFF" filter="url(#f9kbx9eg6uf89)" height="30" style="stroke: #A80036; stroke-width: 1.0;" width="10" x="1168.5" y="438.7734"/><rect fill="#FFFFFF" filter="url(#f9kbx9eg6uf89)" height="30" style="stroke: #A80036; stroke-width: 1.0;" width="10" x="1296" y="499.125"/><rect fill="#FFFFFF" filter="url(#f9kbx9eg6uf89)" height="439.1641" style="stroke: #000000; stroke-width: 2.0;" width="1222.5" x="146.5" y="277.3672"/><rect fill="#FFFFFF" filter="url(#f9kbx9eg6uf89)" height="165.4063" style="stroke: #000000; stroke-width: 2.0;" width="957.5" x="156.5" y="544.125"/><line style="stroke: #A80036; stroke-width: 1.0; stroke-dasharray: 5.0,5.0;" x1="227.5" x2="227.5" y1="39.6094" y2="807.2344"/><line style="stroke: #A80036; stroke-width: 1.0; stroke-dasharray: 5.0,5.0;" x1="504" x2="504" y1="39.6094" y2="807.2344"/><line style="stroke: #A80036; stroke-width: 1.0; stroke-dasharray: 5.0,5.0;" x1="744" x2="744" y1="39.6094" y2="807.2344"/><line style="stroke: #A80036; stroke-width: 1.0; stroke-dasharray: 5.0,5.0;" x1="993" x2="993" y1="39.6094" y2="807.2344"/><line style="stroke: #A80036; stroke-width: 1.0; stroke-dasharray: 5.0,5.0;" x1="1173" x2="1173" y1="39.6094" y2="807.2344"/><line style="stroke: #A80036; stroke-width: 1.0; stroke-dasharray: 5.0,5.0;" x1="1301" x2="1301" y1="39.6094" y2="807.2344"/><rect fill="#FEFECE" filter="url(#f9kbx9eg6uf89)" height="31.6094" style="stroke: #A80036; stroke-width: 1.5;" width="119" x="166.5" y="3"/><text fill="#000000" font-family="sans-serif" font-size="14" lengthAdjust="spacingAndGlyphs" textLength="105" x="173.5" y="24.5332">org:Organization</text><rect fill="#FEFECE" filter="url(#f9kbx9eg6uf89)" height="31.6094" style="stroke: #A80036; stroke-width: 1.5;" width="119" x="166.5" y="806.2344"/><text fill="#000000" font-family="sans-serif" font-size="14" lengthAdjust="spacingAndGlyphs" textLength="105" x="173.5" y="827.7676">org:Organization</text><rect fill="#FEFECE" filter="url(#f9kbx9eg6uf89)" height="31.6094" style="stroke: #A80036; stroke-width: 1.5;" width="202" x="401" y="3"/><text fill="#000000" font-family="sans-serif" font-size="14" lengthAdjust="spacingAndGlyphs" textLength="188" x="408" y="24.5332">trans:PaymentTransactionList</text><rect fill="#FEFECE" filter="url(#f9kbx9eg6uf89)" height="31.6094" style="stroke: #A80036; stroke-width: 1.5;" width="202" x="401" y="806.2344"/><text fill="#000000" font-family="sans-serif" font-size="14" lengthAdjust="spacingAndGlyphs" textLength="188" x="408" y="827.7676">trans:PaymentTransactionList</text><rect fill="#FEFECE" filter="url(#f9kbx9eg6uf89)" height="31.6094" style="stroke: #A80036; stroke-width: 1.5;" width="251" x="617" y="3"/><text fill="#000000" font-family="sans-serif" font-size="14" lengthAdjust="spacingAndGlyphs" textLength="237" x="624" y="24.5332">m_ListPay:List&lt;PaymentTransaction&gt;</text><rect fill="#FEFECE" filter="url(#f9kbx9eg6uf89)" height="31.6094" style="stroke: #A80036; stroke-width: 1.5;" width="251" x="617" y="806.2344"/><text fill="#000000" font-family="sans-serif" font-size="14" lengthAdjust="spacingAndGlyphs" textLength="237" x="624" y="827.7676">m_ListPay:List&lt;PaymentTransaction&gt;</text><rect fill="#FEFECE" filter="url(#f9kbx9eg6uf89)" height="31.6094" style="stroke: #A80036; stroke-width: 1.5;" width="218" x="882" y="3"/><text fill="#000000" font-family="sans-serif" font-size="14" lengthAdjust="spacingAndGlyphs" textLength="204" x="889" y="24.5332">transaction:PaymentTransaction</text><rect fill="#FEFECE" filter="url(#f9kbx9eg6uf89)" height="31.6094" style="stroke: #A80036; stroke-width: 1.5;" width="218" x="882" y="806.2344"/><text fill="#000000" font-family="sans-serif" font-size="14" lengthAdjust="spacingAndGlyphs" textLength="204" x="889" y="827.7676">transaction:PaymentTransaction</text><rect fill="#FEFECE" filter="url(#f9kbx9eg6uf89)" height="31.6094" style="stroke: #A80036; stroke-width: 1.5;" width="115" x="1114" y="3"/><text fill="#000000" font-family="sans-serif" font-size="14" lengthAdjust="spacingAndGlyphs" textLength="101" x="1121" y="24.5332">freel:Freelancer</text><rect fill="#FEFECE" filter="url(#f9kbx9eg6uf89)" height="31.6094" style="stroke: #A80036; stroke-width: 1.5;" width="115" x="1114" y="806.2344"/><text fill="#000000" font-family="sans-serif" font-size="14" lengthAdjust="spacingAndGlyphs" textLength="101" x="1121" y="827.7676">freel:Freelancer</text><rect fill="#FEFECE" filter="url(#f9kbx9eg6uf89)" height="31.6094" style="stroke: #A80036; stroke-width: 1.5;" width="112" x="1243" y="3"/><text fill="#000000" font-family="sans-serif" font-size="14" lengthAdjust="spacingAndGlyphs" textLength="98" x="1250" y="24.5332">free:Freelancer</text><rect fill="#FEFECE" filter="url(#f9kbx9eg6uf89)" height="31.6094" style="stroke: #A80036; stroke-width: 1.5;" width="112" x="1243" y="806.2344"/><text fill="#000000" font-family="sans-serif" font-size="14" lengthAdjust="spacingAndGlyphs" textLength="98" x="1250" y="827.7676">free:Freelancer</text><rect fill="#FFFFFF" filter="url(#f9kbx9eg6uf89)" height="717.2734" style="stroke: #A80036; stroke-width: 1.0;" width="10" x="223" y="71.9609"/><rect fill="#FFFFFF" filter="url(#f9kbx9eg6uf89)" height="30" style="stroke: #A80036; stroke-width: 1.0;" width="10" x="499" y="232.3672"/><rect fill="#FFFFFF" filter="url(#f9kbx9eg6uf89)" height="30" style="stroke: #A80036; stroke-width: 1.0;" width="10" x="739.5" y="318.0703"/><rect fill="#FFFFFF" filter="url(#f9kbx9eg6uf89)" height="30" style="stroke: #A80036; stroke-width: 1.0;" width="10" x="988" y="378.4219"/><rect fill="#FFFFFF" filter="url(#f9kbx9eg6uf89)" height="30" style="stroke: #A80036; stroke-width: 1.0;" width="10" x="988" y="584.8281"/><rect fill="#FFFFFF" filter="url(#f9kbx9eg6uf89)" height="30" style="stroke: #A80036; stroke-width: 1.0;" width="10" x="1168.5" y="438.7734"/><rect fill="#FFFFFF" filter="url(#f9kbx9eg6uf89)" height="30" style="stroke: #A80036; stroke-width: 1.0;" width="10" x="1296" y="499.125"/><ellipse cx="10.5" cy="71.2109" fill="none" rx="4" ry="4" style="stroke: #A80036; stroke-width: 1.5;"/><polygon fill="#A80036" points="211,67.9609,221,71.9609,211,75.9609,215,71.9609" style="stroke: #A80036; stroke-width: 1.0;"/><line style="stroke: #A80036; stroke-width: 1.0;" x1="15" x2="217" y1="71.9609" y2="71.9609"/><text fill="#000000" font-family="sans-serif" font-size="13" font-weight="bold" lengthAdjust="spacingAndGlyphs" textLength="7" x="18" y="67.1045">1</text><text fill="#000000" font-family="sans-serif" font-size="13" lengthAdjust="spacingAndGlyphs" textLength="182" x="29" y="67.1045">calculateDeviationP(free, mean)</text><line style="stroke: #A80036; stroke-width: 1.0;" x1="233" x2="275" y1="102.3125" y2="102.3125"/><line style="stroke: #A80036; stroke-width: 1.0;" x1="275" x2="275" y1="102.3125" y2="115.3125"/><line style="stroke: #A80036; stroke-width: 1.0;" x1="234" x2="275" y1="115.3125" y2="115.3125"/><polygon fill="#A80036" points="244,111.3125,234,115.3125,244,119.3125,240,115.3125" style="stroke: #A80036; stroke-width: 1.0;"/><text fill="#000000" font-family="sans-serif" font-size="13" font-weight="bold" lengthAdjust="spacingAndGlyphs" textLength="7" x="240" y="97.4561">2</text><text fill="#000000" font-family="sans-serif" font-size="13" lengthAdjust="spacingAndGlyphs" textLength="73" x="251" y="97.4561">deviation = 0</text><line style="stroke: #A80036; stroke-width: 1.0;" x1="233" x2="275" y1="145.6641" y2="145.6641"/><line style="stroke: #A80036; stroke-width: 1.0;" x1="275" x2="275" y1="145.6641" y2="158.6641"/><line style="stroke: #A80036; stroke-width: 1.0;" x1="234" x2="275" y1="158.6641" y2="158.6641"/><polygon fill="#A80036" points="244,154.6641,234,158.6641,244,162.6641,240,158.6641" style="stroke: #A80036; stroke-width: 1.0;"/><text fill="#000000" font-family="sans-serif" font-size="13" font-weight="bold" lengthAdjust="spacingAndGlyphs" textLength="7" x="240" y="140.8076">3</text><text fill="#000000" font-family="sans-serif" font-size="13" lengthAdjust="spacingAndGlyphs" textLength="66" x="251" y="140.8076">counter = 0</text><line style="stroke: #A80036; stroke-width: 1.0;" x1="233" x2="275" y1="189.0156" y2="189.0156"/><line style="stroke: #A80036; stroke-width: 1.0;" x1="275" x2="275" y1="189.0156" y2="202.0156"/><line style="stroke: #A80036; stroke-width: 1.0;" x1="234" x2="275" y1="202.0156" y2="202.0156"/><polygon fill="#A80036" points="244,198.0156,234,202.0156,244,206.0156,240,202.0156" style="stroke: #A80036; stroke-width: 1.0;"/><text fill="#000000" font-family="sans-serif" font-size="13" font-weight="bold" lengthAdjust="spacingAndGlyphs" textLength="7" x="240" y="184.1592">4</text><text fill="#000000" font-family="sans-serif" font-size="13" lengthAdjust="spacingAndGlyphs" textLength="211" x="251" y="184.1592">trans = getPaymentTransactionList()</text><polygon fill="#A80036" points="487,228.3672,497,232.3672,487,236.3672,491,232.3672" style="stroke: #A80036; stroke-width: 1.0;"/><line style="stroke: #A80036; stroke-width: 1.0;" x1="233" x2="493" y1="232.3672" y2="232.3672"/><text fill="#000000" font-family="sans-serif" font-size="13" font-weight="bold" lengthAdjust="spacingAndGlyphs" textLength="7" x="240" y="227.5107">5</text><text fill="#000000" font-family="sans-serif" font-size="13" lengthAdjust="spacingAndGlyphs" textLength="230" x="251" y="227.5107">m_ListPay = getPaymentTransactions()</text><path d="M146.5,277.3672 L219.5,277.3672 L219.5,285.3672 L209.5,295.3672 L146.5,295.3672 L146.5,277.3672 " fill="#EEEEEE" style="stroke: #000000; stroke-width: 1.0;"/><rect fill="none" height="439.1641" style="stroke: #000000; stroke-width: 2.0;" width="1222.5" x="146.5" y="277.3672"/><text fill="#000000" font-family="sans-serif" font-size="13" font-weight="bold" lengthAdjust="spacingAndGlyphs" textLength="28" x="161.5" y="291.8623">loop</text><a target="_top" xlink:actuate="onRequest" xlink:href="" xlink:show="new" xlink:title="" xlink:type="simple"><text fill="#0000FF" font-family="sans-serif" font-size="11" font-weight="bold" lengthAdjust="spacingAndGlyphs" text-decoration="underline" textLength="115" x="234.5" y="290.7861">For each Transaction</text><line style="stroke: #0000FF; stroke-width: 1.0;" x1="234.5" x2="349.5" y1="292.7861" y2="292.7861"/></a><polygon fill="#A80036" points="727.5,314.0703,737.5,318.0703,727.5,322.0703,731.5,318.0703" style="stroke: #A80036; stroke-width: 1.0;"/><line style="stroke: #A80036; stroke-width: 1.0;" x1="233" x2="733.5" y1="318.0703" y2="318.0703"/><text fill="#000000" font-family="sans-serif" font-size="13" font-weight="bold" lengthAdjust="spacingAndGlyphs" textLength="7" x="240" y="313.2139">6</text><text fill="#000000" font-family="sans-serif" font-size="13" lengthAdjust="spacingAndGlyphs" textLength="109" x="251" y="313.2139">transaction = get(i)</text><polygon fill="#A80036" points="976,374.4219,986,378.4219,976,382.4219,980,378.4219" style="stroke: #A80036; stroke-width: 1.0;"/><line style="stroke: #A80036; stroke-width: 1.0;" x1="233" x2="982" y1="378.4219" y2="378.4219"/><text fill="#000000" font-family="sans-serif" font-size="13" font-weight="bold" lengthAdjust="spacingAndGlyphs" textLength="7" x="240" y="373.5654">7</text><text fill="#000000" font-family="sans-serif" font-size="13" lengthAdjust="spacingAndGlyphs" textLength="127" x="251" y="373.5654">freel = getFreelancer()</text><polygon fill="#A80036" points="1156.5,434.7734,1166.5,438.7734,1156.5,442.7734,1160.5,438.7734" style="stroke: #A80036; stroke-width: 1.0;"/><line style="stroke: #A80036; stroke-width: 1.0;" x1="233" x2="1162.5" y1="438.7734" y2="438.7734"/><text fill="#000000" font-family="sans-serif" font-size="13" font-weight="bold" lengthAdjust="spacingAndGlyphs" textLength="7" x="240" y="433.917">8</text><text fill="#000000" font-family="sans-serif" font-size="13" lengthAdjust="spacingAndGlyphs" textLength="91" x="251" y="433.917">idFreel = getId()</text><polygon fill="#A80036" points="1284,495.125,1294,499.125,1284,503.125,1288,499.125" style="stroke: #A80036; stroke-width: 1.0;"/><line style="stroke: #A80036; stroke-width: 1.0;" x1="233" x2="1290" y1="499.125" y2="499.125"/><text fill="#000000" font-family="sans-serif" font-size="13" font-weight="bold" lengthAdjust="spacingAndGlyphs" textLength="7" x="240" y="494.2686">9</text><text fill="#000000" font-family="sans-serif" font-size="13" lengthAdjust="spacingAndGlyphs" textLength="88" x="251" y="494.2686">idFree = getId()</text><path d="M156.5,544.125 L221.5,544.125 L221.5,552.125 L211.5,562.125 L156.5,562.125 L156.5,544.125 " fill="#EEEEEE" style="stroke: #000000; stroke-width: 1.0;"/><rect fill="none" height="165.4063" style="stroke: #000000; stroke-width: 2.0;" width="957.5" x="156.5" y="544.125"/><text fill="#000000" font-family="sans-serif" font-size="13" font-weight="bold" lengthAdjust="spacingAndGlyphs" textLength="20" x="171.5" y="558.6201">opt</text><a target="_top" xlink:actuate="onRequest" xlink:href="" xlink:show="new" xlink:title="" xlink:type="simple"><text fill="#0000FF" font-family="sans-serif" font-size="11" font-weight="bold" lengthAdjust="spacingAndGlyphs" text-decoration="underline" textLength="121" x="236.5" y="557.5439">idFree.equals(idFreel)</text><line style="stroke: #0000FF; stroke-width: 1.0;" x1="236.5" x2="357.5" y1="559.5439" y2="559.5439"/></a><polygon fill="#A80036" points="976,580.8281,986,584.8281,976,588.8281,980,584.8281" style="stroke: #A80036; stroke-width: 1.0;"/><line style="stroke: #A80036; stroke-width: 1.0;" x1="233" x2="982" y1="584.8281" y2="584.8281"/><text fill="#000000" font-family="sans-serif" font-size="13" font-weight="bold" lengthAdjust="spacingAndGlyphs" textLength="14" x="240" y="579.9717">10</text><text fill="#000000" font-family="sans-serif" font-size="13" lengthAdjust="spacingAndGlyphs" textLength="104" x="258" y="579.9717">value = getValue()</text><line style="stroke: #A80036; stroke-width: 1.0;" x1="233" x2="275" y1="645.1797" y2="645.1797"/><line style="stroke: #A80036; stroke-width: 1.0;" x1="275" x2="275" y1="645.1797" y2="658.1797"/><line style="stroke: #A80036; stroke-width: 1.0;" x1="234" x2="275" y1="658.1797" y2="658.1797"/><polygon fill="#A80036" points="244,654.1797,234,658.1797,244,662.1797,240,658.1797" style="stroke: #A80036; stroke-width: 1.0;"/><text fill="#000000" font-family="sans-serif" font-size="13" font-weight="bold" lengthAdjust="spacingAndGlyphs" textLength="14" x="240" y="640.3232">11</text><text fill="#000000" font-family="sans-serif" font-size="13" lengthAdjust="spacingAndGlyphs" textLength="217" x="258" y="640.3232">deviation = (value-mean)^2 + deviation</text><line style="stroke: #A80036; stroke-width: 1.0;" x1="233" x2="275" y1="688.5313" y2="688.5313"/><line style="stroke: #A80036; stroke-width: 1.0;" x1="275" x2="275" y1="688.5313" y2="701.5313"/><line style="stroke: #A80036; stroke-width: 1.0;" x1="234" x2="275" y1="701.5313" y2="701.5313"/><polygon fill="#A80036" points="244,697.5313,234,701.5313,244,705.5313,240,701.5313" style="stroke: #A80036; stroke-width: 1.0;"/><text fill="#000000" font-family="sans-serif" font-size="13" font-weight="bold" lengthAdjust="spacingAndGlyphs" textLength="14" x="240" y="683.6748">12</text><text fill="#000000" font-family="sans-serif" font-size="13" lengthAdjust="spacingAndGlyphs" textLength="59" x="258" y="683.6748">counter++</text><line style="stroke: #A80036; stroke-width: 1.0;" x1="233" x2="275" y1="745.8828" y2="745.8828"/><line style="stroke: #A80036; stroke-width: 1.0;" x1="275" x2="275" y1="745.8828" y2="758.8828"/><line style="stroke: #A80036; stroke-width: 1.0;" x1="234" x2="275" y1="758.8828" y2="758.8828"/><polygon fill="#A80036" points="244,754.8828,234,758.8828,244,762.8828,240,758.8828" style="stroke: #A80036; stroke-width: 1.0;"/><text fill="#000000" font-family="sans-serif" font-size="13" font-weight="bold" lengthAdjust="spacingAndGlyphs" textLength="14" x="240" y="741.0264">13</text><text fill="#000000" font-family="sans-serif" font-size="13" lengthAdjust="spacingAndGlyphs" textLength="234" x="258" y="741.0264">deviation = Math.sqrt(deviation / counter)</text><polygon fill="#A80036" points="14,785.2344,4,789.2344,14,793.2344,10,789.2344" style="stroke: #A80036; stroke-width: 1.0;"/><line style="stroke: #A80036; stroke-width: 1.0; stroke-dasharray: 2.0,2.0;" x1="8" x2="227" y1="789.2344" y2="789.2344"/><text fill="#000000" font-family="sans-serif" font-size="13" font-weight="bold" lengthAdjust="spacingAndGlyphs" textLength="14" x="20" y="784.3779">14</text><text fill="#000000" font-family="sans-serif" font-size="13" lengthAdjust="spacingAndGlyphs" textLength="50" x="38" y="784.3779">deviation</text><!--
@startuml
autonumber

participant "org:Organization" as OR
participant "trans:PaymentTransactionList" as TLIST
participant "m_ListPay:List<PaymentTransaction>" as LIST
participant "transaction:PaymentTransaction" as TRA
participant "freel:Freelancer" as FREEL
participant "free:Freelancer" as FREE


[o-> OR: calculateDeviationP(free, mean)
activate OR

OR -> OR : deviation = 0
OR -> OR : counter = 0
OR -> OR : trans = getPaymentTransactionList()
OR -> TLIST : m_ListPay = getPaymentTransactions()
activate TLIST
deactivate TLIST

loop [ For each Transaction ]

OR -> LIST : transaction = get(i)
activate  LIST
deactivate LIST

OR -> TRA : freel = getFreelancer()
activate  TRA
deactivate TRA

OR -> FREEL : idFreel = getId()
activate  FREEL
deactivate FREEL

OR -> FREE : idFree = getId()
activate  FREE
deactivate FREE

opt [ idFree.equals(idFreel) ]

OR -> TRA : value = getValue()
activate  TRA
deactivate TRA

OR -> OR : deviation = (value-mean)^2 + deviation
OR -> OR : counter++

end
end loop

OR -> OR : deviation = Math.sqrt(deviation / counter)


<- - OR : deviation
deactivate OR

@enduml

PlantUML version 1.2018.14(Fri Dec 21 16:33:16 GMT 2018)
(GPL source distribution)
Java Runtime: Java(TM) SE Runtime Environment
JVM: Java HotSpot(TM) 64-Bit Server VM
Java Version: 1.8.0_221-b11
Operating System: Windows 10
OS Version: 10.0
Default Encoding: Cp1252
Language: pt
Country: PT
--></g></svg>