<?xml version="1.0" encoding="UTF-8" standalone="no"?><svg xmlns="http://www.w3.org/2000/svg" xmlns:xlink="http://www.w3.org/1999/xlink" contentScriptType="application/ecmascript" contentStyleType="text/css" height="848px" preserveAspectRatio="none" style="width:1314px;height:848px;" version="1.1" viewBox="0 0 1314 848" width="1314px" zoomAndPan="magnify"><defs><filter height="300%" id="fwpvfohj984u4" width="300%" x="-1" y="-1"><feGaussianBlur result="blurOut" stdDeviation="2.0"/><feColorMatrix in="blurOut" result="blurOut2" type="matrix" values="0 0 0 0 0 0 0 0 0 0 0 0 0 0 0 0 0 0 .4 0"/><feOffset dx="4.0" dy="4.0" in="blurOut2" result="blurOut3"/><feBlend in="SourceGraphic" in2="blurOut3" mode="normal"/></filter></defs><g><rect fill="#FFFFFF" filter="url(#fwpvfohj984u4)" height="717.2734" style="stroke: #A80036; stroke-width: 1.0;" width="10" x="163" y="71.9609"/><rect fill="#FFFFFF" filter="url(#fwpvfohj984u4)" height="30" style="stroke: #A80036; stroke-width: 1.0;" width="10" x="433" y="232.3672"/><rect fill="#FFFFFF" filter="url(#fwpvfohj984u4)" height="30" style="stroke: #A80036; stroke-width: 1.0;" width="10" x="673.5" y="318.0703"/><rect fill="#FFFFFF" filter="url(#fwpvfohj984u4)" height="30" style="stroke: #A80036; stroke-width: 1.0;" width="10" x="922" y="378.4219"/><rect fill="#FFFFFF" filter="url(#fwpvfohj984u4)" height="30" style="stroke: #A80036; stroke-width: 1.0;" width="10" x="922" y="584.8281"/><rect fill="#FFFFFF" filter="url(#fwpvfohj984u4)" height="30" style="stroke: #A80036; stroke-width: 1.0;" width="10" x="1102.5" y="438.7734"/><rect fill="#FFFFFF" filter="url(#fwpvfohj984u4)" height="30" style="stroke: #A80036; stroke-width: 1.0;" width="10" x="1230" y="499.125"/><rect fill="#FFFFFF" filter="url(#fwpvfohj984u4)" height="439.1641" style="stroke: #000000; stroke-width: 2.0;" width="1216.5" x="86.5" y="277.3672"/><rect fill="#FFFFFF" filter="url(#fwpvfohj984u4)" height="165.4063" style="stroke: #000000; stroke-width: 2.0;" width="951.5" x="96.5" y="544.125"/><line style="stroke: #A80036; stroke-width: 1.0; stroke-dasharray: 5.0,5.0;" x1="167.5" x2="167.5" y1="39.6094" y2="807.2344"/><line style="stroke: #A80036; stroke-width: 1.0; stroke-dasharray: 5.0,5.0;" x1="438" x2="438" y1="39.6094" y2="807.2344"/><line style="stroke: #A80036; stroke-width: 1.0; stroke-dasharray: 5.0,5.0;" x1="678" x2="678" y1="39.6094" y2="807.2344"/><line style="stroke: #A80036; stroke-width: 1.0; stroke-dasharray: 5.0,5.0;" x1="927" x2="927" y1="39.6094" y2="807.2344"/><line style="stroke: #A80036; stroke-width: 1.0; stroke-dasharray: 5.0,5.0;" x1="1107" x2="1107" y1="39.6094" y2="807.2344"/><line style="stroke: #A80036; stroke-width: 1.0; stroke-dasharray: 5.0,5.0;" x1="1235" x2="1235" y1="39.6094" y2="807.2344"/><rect fill="#FEFECE" filter="url(#fwpvfohj984u4)" height="31.6094" style="stroke: #A80036; stroke-width: 1.5;" width="119" x="106.5" y="3"/><text fill="#000000" font-family="sans-serif" font-size="14" lengthAdjust="spacingAndGlyphs" textLength="105" x="113.5" y="24.5332">org:Organization</text><rect fill="#FEFECE" filter="url(#fwpvfohj984u4)" height="31.6094" style="stroke: #A80036; stroke-width: 1.5;" width="119" x="106.5" y="806.2344"/><text fill="#000000" font-family="sans-serif" font-size="14" lengthAdjust="spacingAndGlyphs" textLength="105" x="113.5" y="827.7676">org:Organization</text><rect fill="#FEFECE" filter="url(#fwpvfohj984u4)" height="31.6094" style="stroke: #A80036; stroke-width: 1.5;" width="202" x="335" y="3"/><text fill="#000000" font-family="sans-serif" font-size="14" lengthAdjust="spacingAndGlyphs" textLength="188" x="342" y="24.5332">trans:PaymentTransactionList</text><rect fill="#FEFECE" filter="url(#fwpvfohj984u4)" height="31.6094" style="stroke: #A80036; stroke-width: 1.5;" width="202" x="335" y="806.2344"/><text fill="#000000" font-family="sans-serif" font-size="14" lengthAdjust="spacingAndGlyphs" textLength="188" x="342" y="827.7676">trans:PaymentTransactionList</text><rect fill="#FEFECE" filter="url(#fwpvfohj984u4)" height="31.6094" style="stroke: #A80036; stroke-width: 1.5;" width="251" x="551" y="3"/><text fill="#000000" font-family="sans-serif" font-size="14" lengthAdjust="spacingAndGlyphs" textLength="237" x="558" y="24.5332">m_ListPay:List&lt;PaymentTransaction&gt;</text><rect fill="#FEFECE" filter="url(#fwpvfohj984u4)" height="31.6094" style="stroke: #A80036; stroke-width: 1.5;" width="251" x="551" y="806.2344"/><text fill="#000000" font-family="sans-serif" font-size="14" lengthAdjust="spacingAndGlyphs" textLength="237" x="558" y="827.7676">m_ListPay:List&lt;PaymentTransaction&gt;</text><rect fill="#FEFECE" filter="url(#fwpvfohj984u4)" height="31.6094" style="stroke: #A80036; stroke-width: 1.5;" width="218" x="816" y="3"/><text fill="#000000" font-family="sans-serif" font-size="14" lengthAdjust="spacingAndGlyphs" textLength="204" x="823" y="24.5332">transaction:PaymentTransaction</text><rect fill="#FEFECE" filter="url(#fwpvfohj984u4)" height="31.6094" style="stroke: #A80036; stroke-width: 1.5;" width="218" x="816" y="806.2344"/><text fill="#000000" font-family="sans-serif" font-size="14" lengthAdjust="spacingAndGlyphs" textLength="204" x="823" y="827.7676">transaction:PaymentTransaction</text><rect fill="#FEFECE" filter="url(#fwpvfohj984u4)" height="31.6094" style="stroke: #A80036; stroke-width: 1.5;" width="115" x="1048" y="3"/><text fill="#000000" font-family="sans-serif" font-size="14" lengthAdjust="spacingAndGlyphs" textLength="101" x="1055" y="24.5332">freel:Freelancer</text><rect fill="#FEFECE" filter="url(#fwpvfohj984u4)" height="31.6094" style="stroke: #A80036; stroke-width: 1.5;" width="115" x="1048" y="806.2344"/><text fill="#000000" font-family="sans-serif" font-size="14" lengthAdjust="spacingAndGlyphs" textLength="101" x="1055" y="827.7676">freel:Freelancer</text><rect fill="#FEFECE" filter="url(#fwpvfohj984u4)" height="31.6094" style="stroke: #A80036; stroke-width: 1.5;" width="112" x="1177" y="3"/><text fill="#000000" font-family="sans-serif" font-size="14" lengthAdjust="spacingAndGlyphs" textLength="98" x="1184" y="24.5332">free:Freelancer</text><rect fill="#FEFECE" filter="url(#fwpvfohj984u4)" height="31.6094" style="stroke: #A80036; stroke-width: 1.5;" width="112" x="1177" y="806.2344"/><text fill="#000000" font-family="sans-serif" font-size="14" lengthAdjust="spacingAndGlyphs" textLength="98" x="1184" y="827.7676">free:Freelancer</text><rect fill="#FFFFFF" filter="url(#fwpvfohj984u4)" height="717.2734" style="stroke: #A80036; stroke-width: 1.0;" width="10" x="163" y="71.9609"/><rect fill="#FFFFFF" filter="url(#fwpvfohj984u4)" height="30" style="stroke: #A80036; stroke-width: 1.0;" width="10" x="433" y="232.3672"/><rect fill="#FFFFFF" filter="url(#fwpvfohj984u4)" height="30" style="stroke: #A80036; stroke-width: 1.0;" width="10" x="673.5" y="318.0703"/><rect fill="#FFFFFF" filter="url(#fwpvfohj984u4)" height="30" style="stroke: #A80036; stroke-width: 1.0;" width="10" x="922" y="378.4219"/><rect fill="#FFFFFF" filter="url(#fwpvfohj984u4)" height="30" style="stroke: #A80036; stroke-width: 1.0;" width="10" x="922" y="584.8281"/><rect fill="#FFFFFF" filter="url(#fwpvfohj984u4)" height="30" style="stroke: #A80036; stroke-width: 1.0;" width="10" x="1102.5" y="438.7734"/><rect fill="#FFFFFF" filter="url(#fwpvfohj984u4)" height="30" style="stroke: #A80036; stroke-width: 1.0;" width="10" x="1230" y="499.125"/><ellipse cx="10.5" cy="71.2109" fill="none" rx="4" ry="4" style="stroke: #A80036; stroke-width: 1.5;"/><polygon fill="#A80036" points="151,67.9609,161,71.9609,151,75.9609,155,71.9609" style="stroke: #A80036; stroke-width: 1.0;"/><line style="stroke: #A80036; stroke-width: 1.0;" x1="15" x2="157" y1="71.9609" y2="71.9609"/><text fill="#000000" font-family="sans-serif" font-size="13" font-weight="bold" lengthAdjust="spacingAndGlyphs" textLength="7" x="18" y="67.1045">1</text><text fill="#000000" font-family="sans-serif" font-size="13" lengthAdjust="spacingAndGlyphs" textLength="122" x="29" y="67.1045">calculateMeanP(free)</text><line style="stroke: #A80036; stroke-width: 1.0;" x1="173" x2="215" y1="102.3125" y2="102.3125"/><line style="stroke: #A80036; stroke-width: 1.0;" x1="215" x2="215" y1="102.3125" y2="115.3125"/><line style="stroke: #A80036; stroke-width: 1.0;" x1="174" x2="215" y1="115.3125" y2="115.3125"/><polygon fill="#A80036" points="184,111.3125,174,115.3125,184,119.3125,180,115.3125" style="stroke: #A80036; stroke-width: 1.0;"/><text fill="#000000" font-family="sans-serif" font-size="13" font-weight="bold" lengthAdjust="spacingAndGlyphs" textLength="7" x="180" y="97.4561">2</text><text fill="#000000" font-family="sans-serif" font-size="13" lengthAdjust="spacingAndGlyphs" textLength="100" x="191" y="97.4561">paymentSum = 0</text><line style="stroke: #A80036; stroke-width: 1.0;" x1="173" x2="215" y1="145.6641" y2="145.6641"/><line style="stroke: #A80036; stroke-width: 1.0;" x1="215" x2="215" y1="145.6641" y2="158.6641"/><line style="stroke: #A80036; stroke-width: 1.0;" x1="174" x2="215" y1="158.6641" y2="158.6641"/><polygon fill="#A80036" points="184,154.6641,174,158.6641,184,162.6641,180,158.6641" style="stroke: #A80036; stroke-width: 1.0;"/><text fill="#000000" font-family="sans-serif" font-size="13" font-weight="bold" lengthAdjust="spacingAndGlyphs" textLength="7" x="180" y="140.8076">3</text><text fill="#000000" font-family="sans-serif" font-size="13" lengthAdjust="spacingAndGlyphs" textLength="48" x="191" y="140.8076">cont = 0</text><line style="stroke: #A80036; stroke-width: 1.0;" x1="173" x2="215" y1="189.0156" y2="189.0156"/><line style="stroke: #A80036; stroke-width: 1.0;" x1="215" x2="215" y1="189.0156" y2="202.0156"/><line style="stroke: #A80036; stroke-width: 1.0;" x1="174" x2="215" y1="202.0156" y2="202.0156"/><polygon fill="#A80036" points="184,198.0156,174,202.0156,184,206.0156,180,202.0156" style="stroke: #A80036; stroke-width: 1.0;"/><text fill="#000000" font-family="sans-serif" font-size="13" font-weight="bold" lengthAdjust="spacingAndGlyphs" textLength="7" x="180" y="184.1592">4</text><text fill="#000000" font-family="sans-serif" font-size="13" lengthAdjust="spacingAndGlyphs" textLength="211" x="191" y="184.1592">trans = getPaymentTransactionList()</text><polygon fill="#A80036" points="421,228.3672,431,232.3672,421,236.3672,425,232.3672" style="stroke: #A80036; stroke-width: 1.0;"/><line style="stroke: #A80036; stroke-width: 1.0;" x1="173" x2="427" y1="232.3672" y2="232.3672"/><text fill="#000000" font-family="sans-serif" font-size="13" font-weight="bold" lengthAdjust="spacingAndGlyphs" textLength="7" x="180" y="227.5107">5</text><text fill="#000000" font-family="sans-serif" font-size="13" lengthAdjust="spacingAndGlyphs" textLength="230" x="191" y="227.5107">m_ListPay = getPaymentTransactions()</text><path d="M86.5,277.3672 L159.5,277.3672 L159.5,285.3672 L149.5,295.3672 L86.5,295.3672 L86.5,277.3672 " fill="#EEEEEE" style="stroke: #000000; stroke-width: 1.0;"/><rect fill="none" height="439.1641" style="stroke: #000000; stroke-width: 2.0;" width="1216.5" x="86.5" y="277.3672"/><text fill="#000000" font-family="sans-serif" font-size="13" font-weight="bold" lengthAdjust="spacingAndGlyphs" textLength="28" x="101.5" y="291.8623">loop</text><a target="_top" xlink:actuate="onRequest" xlink:href="" xlink:show="new" xlink:title="" xlink:type="simple"><text fill="#0000FF" font-family="sans-serif" font-size="11" font-weight="bold" lengthAdjust="spacingAndGlyphs" text-decoration="underline" textLength="115" x="174.5" y="290.7861">For each Transaction</text><line style="stroke: #0000FF; stroke-width: 1.0;" x1="174.5" x2="289.5" y1="292.7861" y2="292.7861"/></a><polygon fill="#A80036" points="661.5,314.0703,671.5,318.0703,661.5,322.0703,665.5,318.0703" style="stroke: #A80036; stroke-width: 1.0;"/><line style="stroke: #A80036; stroke-width: 1.0;" x1="173" x2="667.5" y1="318.0703" y2="318.0703"/><text fill="#000000" font-family="sans-serif" font-size="13" font-weight="bold" lengthAdjust="spacingAndGlyphs" textLength="7" x="180" y="313.2139">6</text><text fill="#000000" font-family="sans-serif" font-size="13" lengthAdjust="spacingAndGlyphs" textLength="109" x="191" y="313.2139">transaction = get(i)</text><polygon fill="#A80036" points="910,374.4219,920,378.4219,910,382.4219,914,378.4219" style="stroke: #A80036; stroke-width: 1.0;"/><line style="stroke: #A80036; stroke-width: 1.0;" x1="173" x2="916" y1="378.4219" y2="378.4219"/><text fill="#000000" font-family="sans-serif" font-size="13" font-weight="bold" lengthAdjust="spacingAndGlyphs" textLength="7" x="180" y="373.5654">7</text><text fill="#000000" font-family="sans-serif" font-size="13" lengthAdjust="spacingAndGlyphs" textLength="127" x="191" y="373.5654">freel = getFreelancer()</text><polygon fill="#A80036" points="1090.5,434.7734,1100.5,438.7734,1090.5,442.7734,1094.5,438.7734" style="stroke: #A80036; stroke-width: 1.0;"/><line style="stroke: #A80036; stroke-width: 1.0;" x1="173" x2="1096.5" y1="438.7734" y2="438.7734"/><text fill="#000000" font-family="sans-serif" font-size="13" font-weight="bold" lengthAdjust="spacingAndGlyphs" textLength="7" x="180" y="433.917">8</text><text fill="#000000" font-family="sans-serif" font-size="13" lengthAdjust="spacingAndGlyphs" textLength="91" x="191" y="433.917">idFreel = getId()</text><polygon fill="#A80036" points="1218,495.125,1228,499.125,1218,503.125,1222,499.125" style="stroke: #A80036; stroke-width: 1.0;"/><line style="stroke: #A80036; stroke-width: 1.0;" x1="173" x2="1224" y1="499.125" y2="499.125"/><text fill="#000000" font-family="sans-serif" font-size="13" font-weight="bold" lengthAdjust="spacingAndGlyphs" textLength="7" x="180" y="494.2686">9</text><text fill="#000000" font-family="sans-serif" font-size="13" lengthAdjust="spacingAndGlyphs" textLength="88" x="191" y="494.2686">idFree = getId()</text><path d="M96.5,544.125 L161.5,544.125 L161.5,552.125 L151.5,562.125 L96.5,562.125 L96.5,544.125 " fill="#EEEEEE" style="stroke: #000000; stroke-width: 1.0;"/><rect fill="none" height="165.4063" style="stroke: #000000; stroke-width: 2.0;" width="951.5" x="96.5" y="544.125"/><text fill="#000000" font-family="sans-serif" font-size="13" font-weight="bold" lengthAdjust="spacingAndGlyphs" textLength="20" x="111.5" y="558.6201">opt</text><a target="_top" xlink:actuate="onRequest" xlink:href="" xlink:show="new" xlink:title="" xlink:type="simple"><text fill="#0000FF" font-family="sans-serif" font-size="11" font-weight="bold" lengthAdjust="spacingAndGlyphs" text-decoration="underline" textLength="121" x="176.5" y="557.5439">idFree.equals(idFreel)</text><line style="stroke: #0000FF; stroke-width: 1.0;" x1="176.5" x2="297.5" y1="559.5439" y2="559.5439"/></a><polygon fill="#A80036" points="910,580.8281,920,584.8281,910,588.8281,914,584.8281" style="stroke: #A80036; stroke-width: 1.0;"/><line style="stroke: #A80036; stroke-width: 1.0;" x1="173" x2="916" y1="584.8281" y2="584.8281"/><text fill="#000000" font-family="sans-serif" font-size="13" font-weight="bold" lengthAdjust="spacingAndGlyphs" textLength="14" x="180" y="579.9717">10</text><text fill="#000000" font-family="sans-serif" font-size="13" lengthAdjust="spacingAndGlyphs" textLength="104" x="198" y="579.9717">value = getValue()</text><line style="stroke: #A80036; stroke-width: 1.0;" x1="173" x2="215" y1="645.1797" y2="645.1797"/><line style="stroke: #A80036; stroke-width: 1.0;" x1="215" x2="215" y1="645.1797" y2="658.1797"/><line style="stroke: #A80036; stroke-width: 1.0;" x1="174" x2="215" y1="658.1797" y2="658.1797"/><polygon fill="#A80036" points="184,654.1797,174,658.1797,184,662.1797,180,658.1797" style="stroke: #A80036; stroke-width: 1.0;"/><text fill="#000000" font-family="sans-serif" font-size="13" font-weight="bold" lengthAdjust="spacingAndGlyphs" textLength="14" x="180" y="640.3232">11</text><text fill="#000000" font-family="sans-serif" font-size="13" lengthAdjust="spacingAndGlyphs" textLength="215" x="198" y="640.3232">paymentSum = paymentSum + value</text><line style="stroke: #A80036; stroke-width: 1.0;" x1="173" x2="215" y1="688.5313" y2="688.5313"/><line style="stroke: #A80036; stroke-width: 1.0;" x1="215" x2="215" y1="688.5313" y2="701.5313"/><line style="stroke: #A80036; stroke-width: 1.0;" x1="174" x2="215" y1="701.5313" y2="701.5313"/><polygon fill="#A80036" points="184,697.5313,174,701.5313,184,705.5313,180,701.5313" style="stroke: #A80036; stroke-width: 1.0;"/><text fill="#000000" font-family="sans-serif" font-size="13" font-weight="bold" lengthAdjust="spacingAndGlyphs" textLength="14" x="180" y="683.6748">12</text><text fill="#000000" font-family="sans-serif" font-size="13" lengthAdjust="spacingAndGlyphs" textLength="41" x="198" y="683.6748">sum++</text><line style="stroke: #A80036; stroke-width: 1.0;" x1="173" x2="215" y1="745.8828" y2="745.8828"/><line style="stroke: #A80036; stroke-width: 1.0;" x1="215" x2="215" y1="745.8828" y2="758.8828"/><line style="stroke: #A80036; stroke-width: 1.0;" x1="174" x2="215" y1="758.8828" y2="758.8828"/><polygon fill="#A80036" points="184,754.8828,174,758.8828,184,762.8828,180,758.8828" style="stroke: #A80036; stroke-width: 1.0;"/><text fill="#000000" font-family="sans-serif" font-size="13" font-weight="bold" lengthAdjust="spacingAndGlyphs" textLength="14" x="180" y="741.0264">13</text><text fill="#000000" font-family="sans-serif" font-size="13" lengthAdjust="spacingAndGlyphs" textLength="162" x="198" y="741.0264">mean = paymentSum / cont</text><polygon fill="#A80036" points="14,785.2344,4,789.2344,14,793.2344,10,789.2344" style="stroke: #A80036; stroke-width: 1.0;"/><line style="stroke: #A80036; stroke-width: 1.0; stroke-dasharray: 2.0,2.0;" x1="8" x2="167" y1="789.2344" y2="789.2344"/><text fill="#000000" font-family="sans-serif" font-size="13" font-weight="bold" lengthAdjust="spacingAndGlyphs" textLength="14" x="20" y="784.3779">14</text><text fill="#000000" font-family="sans-serif" font-size="13" lengthAdjust="spacingAndGlyphs" textLength="32" x="38" y="784.3779">mean</text><!--
@startuml
autonumber

participant "org:Organization" as OR
participant "trans:PaymentTransactionList" as TLIST
participant "m_ListPay:List<PaymentTransaction>" as LIST
participant "transaction:PaymentTransaction" as TRA
participant "freel:Freelancer" as FREEL
participant "free:Freelancer" as FREE


[o-> OR: calculateMeanP(free)
activate OR

OR -> OR : paymentSum = 0
OR -> OR : cont = 0
OR -> OR : trans = getPaymentTransactionList()
OR -> TLIST : m_ListPay = getPaymentTransactions()
activate TLIST
deactivate TLIST

loop [ For each Transaction ]

OR -> LIST : transaction = get(i)
activate  LIST
deactivate LIST

OR -> TRA : freel = getFreelancer()
activate  TRA
deactivate TRA


OR -> FREEL : idFreel = getId()
activate  FREEL
deactivate FREEL

OR -> FREE : idFree = getId()
activate  FREE
deactivate FREE

opt [ idFree.equals(idFreel) ]

OR -> TRA : value = getValue()
activate  TRA
deactivate TRA

OR -> OR : paymentSum = paymentSum + value
OR -> OR : sum++

end
end loop

OR -> OR : mean = paymentSum / cont


<- - OR : mean
deactivate OR

@enduml

PlantUML version 1.2018.14(Fri Dec 21 16:33:16 GMT 2018)
(GPL source distribution)
Java Runtime: Java(TM) SE Runtime Environment
JVM: Java HotSpot(TM) 64-Bit Server VM
Java Version: 1.8.0_221-b11
Operating System: Windows 10
OS Version: 10.0
Default Encoding: Cp1252
Language: pt
Country: PT
--></g></svg>