<?xml version="1.0" encoding="UTF-8" standalone="no"?><svg xmlns="http://www.w3.org/2000/svg" xmlns:xlink="http://www.w3.org/1999/xlink" contentScriptType="application/ecmascript" contentStyleType="text/css" height="508px" preserveAspectRatio="none" style="width:1189px;height:508px;" version="1.1" viewBox="0 0 1189 508" width="1189px" zoomAndPan="magnify"><defs><filter height="300%" id="f1m85nysfmcm5a" width="300%" x="-1" y="-1"><feGaussianBlur result="blurOut" stdDeviation="2.0"/><feColorMatrix in="blurOut" result="blurOut2" type="matrix" values="0 0 0 0 0 0 0 0 0 0 0 0 0 0 0 0 0 0 .4 0"/><feOffset dx="4.0" dy="4.0" in="blurOut2" result="blurOut3"/><feBlend in="SourceGraphic" in2="blurOut3" mode="normal"/></filter></defs><g><!--class Platform--><rect fill="#FEFECE" filter="url(#f1m85nysfmcm5a)" height="53.8359" id="Platform" style="stroke: #A80036; stroke-width: 1.5;" width="112" x="6" y="235.5"/><ellipse cx="36.3" cy="251.5" fill="#ADD1B2" rx="11" ry="11" style="stroke: #A80036; stroke-width: 1.0;"/><path d="M39.0656,247.375 Q39.2219,247.1563 39.4094,247.0469 Q39.5969,246.9375 39.8156,246.9375 Q40.1906,246.9375 40.425,247.1953 Q40.6594,247.4531 40.6594,248.0625 L40.6594,249.5156 Q40.6594,250.125 40.425,250.3906 Q40.1906,250.6563 39.8156,250.6563 Q39.4719,250.6563 39.2688,250.4531 Q39.0656,250.2656 38.9563,249.75 Q38.9094,249.3906 38.7219,249.2031 Q38.3938,248.8281 37.7844,248.6094 Q37.175,248.3906 36.55,248.3906 Q35.7844,248.3906 35.1516,248.7188 Q34.5188,249.0469 34.0266,249.7969 Q33.5344,250.5469 33.5344,251.5781 L33.5344,252.6719 Q33.5344,253.9063 34.425,254.7266 Q35.3156,255.5469 36.9094,255.5469 Q37.8469,255.5469 38.5031,255.2969 Q38.8938,255.1406 39.3156,254.7031 Q39.5813,254.4375 39.7297,254.3594 Q39.8781,254.2813 40.0813,254.2813 Q40.4094,254.2813 40.6672,254.5391 Q40.925,254.7969 40.925,255.1406 Q40.925,255.4844 40.5813,255.8906 Q40.0813,256.4688 39.2844,256.7969 Q38.2063,257.25 36.9094,257.25 Q35.3938,257.25 34.1906,256.625 Q33.2063,256.125 32.5188,255.0547 Q31.8313,253.9844 31.8313,252.7031 L31.8313,251.5469 Q31.8313,250.2188 32.4484,249.0703 Q33.0656,247.9219 34.1594,247.3047 Q35.2531,246.6875 36.4875,246.6875 Q37.2219,246.6875 37.8703,246.8516 Q38.5188,247.0156 39.0656,247.375 Z "/><text fill="#000000" font-family="sans-serif" font-size="12" lengthAdjust="spacingAndGlyphs" textLength="46" x="53.7" y="256.4102">Platform</text><line style="stroke: #A80036; stroke-width: 1.5;" x1="7" x2="117" y1="267.5" y2="267.5"/><rect fill="none" height="6" style="stroke: #C82930; stroke-width: 1.0;" width="6" x="14" y="276.918"/><text fill="#000000" font-family="sans-serif" font-size="11" lengthAdjust="spacingAndGlyphs" textLength="86" x="26" y="282.9189">String designation</text><!--class Organization--><rect fill="#FEFECE" filter="url(#f1m85nysfmcm5a)" height="53.8359" id="Organization" style="stroke: #A80036; stroke-width: 1.5;" width="112" x="275" y="119.5"/><ellipse cx="294.95" cy="135.5" fill="#ADD1B2" rx="11" ry="11" style="stroke: #A80036; stroke-width: 1.0;"/><path d="M297.7156,131.375 Q297.8719,131.1563 298.0594,131.0469 Q298.2469,130.9375 298.4656,130.9375 Q298.8406,130.9375 299.075,131.1953 Q299.3094,131.4531 299.3094,132.0625 L299.3094,133.5156 Q299.3094,134.125 299.075,134.3906 Q298.8406,134.6563 298.4656,134.6563 Q298.1219,134.6563 297.9188,134.4531 Q297.7156,134.2656 297.6063,133.75 Q297.5594,133.3906 297.3719,133.2031 Q297.0438,132.8281 296.4344,132.6094 Q295.825,132.3906 295.2,132.3906 Q294.4344,132.3906 293.8016,132.7188 Q293.1688,133.0469 292.6766,133.7969 Q292.1844,134.5469 292.1844,135.5781 L292.1844,136.6719 Q292.1844,137.9063 293.075,138.7266 Q293.9656,139.5469 295.5594,139.5469 Q296.4969,139.5469 297.1531,139.2969 Q297.5438,139.1406 297.9656,138.7031 Q298.2313,138.4375 298.3797,138.3594 Q298.5281,138.2813 298.7313,138.2813 Q299.0594,138.2813 299.3172,138.5391 Q299.575,138.7969 299.575,139.1406 Q299.575,139.4844 299.2313,139.8906 Q298.7313,140.4688 297.9344,140.7969 Q296.8563,141.25 295.5594,141.25 Q294.0438,141.25 292.8406,140.625 Q291.8563,140.125 291.1688,139.0547 Q290.4813,137.9844 290.4813,136.7031 L290.4813,135.5469 Q290.4813,134.2188 291.0984,133.0703 Q291.7156,131.9219 292.8094,131.3047 Q293.9031,130.6875 295.1375,130.6875 Q295.8719,130.6875 296.5203,130.8516 Q297.1688,131.0156 297.7156,131.375 Z "/><text fill="#000000" font-family="sans-serif" font-size="12" lengthAdjust="spacingAndGlyphs" textLength="69" x="310.05" y="140.4102">Organization</text><line style="stroke: #A80036; stroke-width: 1.5;" x1="276" x2="386" y1="151.5" y2="151.5"/><rect fill="none" height="6" style="stroke: #C82930; stroke-width: 1.0;" width="6" x="283" y="160.918"/><text fill="#000000" font-family="sans-serif" font-size="11" lengthAdjust="spacingAndGlyphs" textLength="86" x="295" y="166.9189">String designation</text><!--class User--><rect fill="#FEFECE" filter="url(#f1m85nysfmcm5a)" height="81.5078" id="User" style="stroke: #A80036; stroke-width: 1.5;" width="107" x="817.5" y="134.5"/><ellipse cx="854.1" cy="150.5" fill="#ADD1B2" rx="11" ry="11" style="stroke: #A80036; stroke-width: 1.0;"/><path d="M856.8656,146.375 Q857.0219,146.1563 857.2094,146.0469 Q857.3969,145.9375 857.6156,145.9375 Q857.9906,145.9375 858.225,146.1953 Q858.4594,146.4531 858.4594,147.0625 L858.4594,148.5156 Q858.4594,149.125 858.225,149.3906 Q857.9906,149.6563 857.6156,149.6563 Q857.2719,149.6563 857.0688,149.4531 Q856.8656,149.2656 856.7563,148.75 Q856.7094,148.3906 856.5219,148.2031 Q856.1938,147.8281 855.5844,147.6094 Q854.975,147.3906 854.35,147.3906 Q853.5844,147.3906 852.9516,147.7188 Q852.3188,148.0469 851.8266,148.7969 Q851.3344,149.5469 851.3344,150.5781 L851.3344,151.6719 Q851.3344,152.9063 852.225,153.7266 Q853.1156,154.5469 854.7094,154.5469 Q855.6469,154.5469 856.3031,154.2969 Q856.6938,154.1406 857.1156,153.7031 Q857.3813,153.4375 857.5297,153.3594 Q857.6781,153.2813 857.8813,153.2813 Q858.2094,153.2813 858.4672,153.5391 Q858.725,153.7969 858.725,154.1406 Q858.725,154.4844 858.3813,154.8906 Q857.8813,155.4688 857.0844,155.7969 Q856.0063,156.25 854.7094,156.25 Q853.1938,156.25 851.9906,155.625 Q851.0063,155.125 850.3188,154.0547 Q849.6313,152.9844 849.6313,151.7031 L849.6313,150.5469 Q849.6313,149.2188 850.2484,148.0703 Q850.8656,146.9219 851.9594,146.3047 Q853.0531,145.6875 854.2875,145.6875 Q855.0219,145.6875 855.6703,145.8516 Q856.3188,146.0156 856.8656,146.375 Z "/><text fill="#000000" font-family="sans-serif" font-size="12" lengthAdjust="spacingAndGlyphs" textLength="27" x="872.9" y="155.4102">User</text><line style="stroke: #A80036; stroke-width: 1.5;" x1="818.5" x2="923.5" y1="166.5" y2="166.5"/><rect fill="none" height="6" style="stroke: #C82930; stroke-width: 1.0;" width="6" x="825.5" y="175.918"/><text fill="#000000" font-family="sans-serif" font-size="11" lengthAdjust="spacingAndGlyphs" textLength="57" x="837.5" y="181.9189">String name</text><rect fill="none" height="6" style="stroke: #C82930; stroke-width: 1.0;" width="6" x="825.5" y="189.7539"/><text fill="#000000" font-family="sans-serif" font-size="11" lengthAdjust="spacingAndGlyphs" textLength="55" x="837.5" y="195.7549">String email</text><rect fill="none" height="6" style="stroke: #C82930; stroke-width: 1.0;" width="6" x="825.5" y="203.5898"/><text fill="#000000" font-family="sans-serif" font-size="11" lengthAdjust="spacingAndGlyphs" textLength="81" x="837.5" y="209.5908">String password</text><!--class Collaborator--><rect fill="#FEFECE" filter="url(#f1m85nysfmcm5a)" height="67.6719" id="Collaborator" style="stroke: #A80036; stroke-width: 1.5;" width="100" x="566.5" y="38.5"/><ellipse cx="581.5" cy="54.5" fill="#ADD1B2" rx="11" ry="11" style="stroke: #A80036; stroke-width: 1.0;"/><path d="M584.2656,50.375 Q584.4219,50.1563 584.6094,50.0469 Q584.7969,49.9375 585.0156,49.9375 Q585.3906,49.9375 585.625,50.1953 Q585.8594,50.4531 585.8594,51.0625 L585.8594,52.5156 Q585.8594,53.125 585.625,53.3906 Q585.3906,53.6563 585.0156,53.6563 Q584.6719,53.6563 584.4688,53.4531 Q584.2656,53.2656 584.1563,52.75 Q584.1094,52.3906 583.9219,52.2031 Q583.5938,51.8281 582.9844,51.6094 Q582.375,51.3906 581.75,51.3906 Q580.9844,51.3906 580.3516,51.7188 Q579.7188,52.0469 579.2266,52.7969 Q578.7344,53.5469 578.7344,54.5781 L578.7344,55.6719 Q578.7344,56.9063 579.625,57.7266 Q580.5156,58.5469 582.1094,58.5469 Q583.0469,58.5469 583.7031,58.2969 Q584.0938,58.1406 584.5156,57.7031 Q584.7813,57.4375 584.9297,57.3594 Q585.0781,57.2813 585.2813,57.2813 Q585.6094,57.2813 585.8672,57.5391 Q586.125,57.7969 586.125,58.1406 Q586.125,58.4844 585.7813,58.8906 Q585.2813,59.4688 584.4844,59.7969 Q583.4063,60.25 582.1094,60.25 Q580.5938,60.25 579.3906,59.625 Q578.4063,59.125 577.7188,58.0547 Q577.0313,56.9844 577.0313,55.7031 L577.0313,54.5469 Q577.0313,53.2188 577.6484,52.0703 Q578.2656,50.9219 579.3594,50.3047 Q580.4531,49.6875 581.6875,49.6875 Q582.4219,49.6875 583.0703,49.8516 Q583.7188,50.0156 584.2656,50.375 Z "/><text fill="#000000" font-family="sans-serif" font-size="12" lengthAdjust="spacingAndGlyphs" textLength="68" x="595.5" y="59.4102">Collaborator</text><line style="stroke: #A80036; stroke-width: 1.5;" x1="567.5" x2="665.5" y1="70.5" y2="70.5"/><rect fill="none" height="6" style="stroke: #C82930; stroke-width: 1.0;" width="6" x="574.5" y="79.918"/><text fill="#000000" font-family="sans-serif" font-size="11" lengthAdjust="spacingAndGlyphs" textLength="57" x="586.5" y="85.9189">String name</text><rect fill="none" height="6" style="stroke: #C82930; stroke-width: 1.0;" width="6" x="574.5" y="93.7539"/><text fill="#000000" font-family="sans-serif" font-size="11" lengthAdjust="spacingAndGlyphs" textLength="55" x="586.5" y="99.7549">String email</text><!--class Manager--><rect fill="#FEFECE" filter="url(#f1m85nysfmcm5a)" height="67.6719" id="Manager" style="stroke: #A80036; stroke-width: 1.5;" width="83" x="575" y="141.5"/><ellipse cx="591.35" cy="157.5" fill="#ADD1B2" rx="11" ry="11" style="stroke: #A80036; stroke-width: 1.0;"/><path d="M594.1156,153.375 Q594.2719,153.1563 594.4594,153.0469 Q594.6469,152.9375 594.8656,152.9375 Q595.2406,152.9375 595.475,153.1953 Q595.7094,153.4531 595.7094,154.0625 L595.7094,155.5156 Q595.7094,156.125 595.475,156.3906 Q595.2406,156.6563 594.8656,156.6563 Q594.5219,156.6563 594.3188,156.4531 Q594.1156,156.2656 594.0063,155.75 Q593.9594,155.3906 593.7719,155.2031 Q593.4438,154.8281 592.8344,154.6094 Q592.225,154.3906 591.6,154.3906 Q590.8344,154.3906 590.2016,154.7188 Q589.5688,155.0469 589.0766,155.7969 Q588.5844,156.5469 588.5844,157.5781 L588.5844,158.6719 Q588.5844,159.9063 589.475,160.7266 Q590.3656,161.5469 591.9594,161.5469 Q592.8969,161.5469 593.5531,161.2969 Q593.9438,161.1406 594.3656,160.7031 Q594.6313,160.4375 594.7797,160.3594 Q594.9281,160.2813 595.1313,160.2813 Q595.4594,160.2813 595.7172,160.5391 Q595.975,160.7969 595.975,161.1406 Q595.975,161.4844 595.6313,161.8906 Q595.1313,162.4688 594.3344,162.7969 Q593.2563,163.25 591.9594,163.25 Q590.4438,163.25 589.2406,162.625 Q588.2563,162.125 587.5688,161.0547 Q586.8813,159.9844 586.8813,158.7031 L586.8813,157.5469 Q586.8813,156.2188 587.4984,155.0703 Q588.1156,153.9219 589.2094,153.3047 Q590.3031,152.6875 591.5375,152.6875 Q592.2719,152.6875 592.9203,152.8516 Q593.5688,153.0156 594.1156,153.375 Z "/><text fill="#000000" font-family="sans-serif" font-size="12" lengthAdjust="spacingAndGlyphs" textLength="48" x="605.65" y="162.4102">Manager</text><line style="stroke: #A80036; stroke-width: 1.5;" x1="576" x2="657" y1="173.5" y2="173.5"/><rect fill="none" height="6" style="stroke: #C82930; stroke-width: 1.0;" width="6" x="583" y="182.918"/><text fill="#000000" font-family="sans-serif" font-size="11" lengthAdjust="spacingAndGlyphs" textLength="57" x="595" y="188.9189">String name</text><rect fill="none" height="6" style="stroke: #C82930; stroke-width: 1.0;" width="6" x="583" y="196.7539"/><text fill="#000000" font-family="sans-serif" font-size="11" lengthAdjust="spacingAndGlyphs" textLength="55" x="595" y="202.7549">String email</text><!--class Freelancer--><rect fill="#FEFECE" filter="url(#f1m85nysfmcm5a)" height="123.0156" id="Freelancer" style="stroke: #A80036; stroke-width: 1.5;" width="142" x="800" y="374"/><ellipse cx="837.95" cy="390" fill="#ADD1B2" rx="11" ry="11" style="stroke: #A80036; stroke-width: 1.0;"/><path d="M840.7156,385.875 Q840.8719,385.6563 841.0594,385.5469 Q841.2469,385.4375 841.4656,385.4375 Q841.8406,385.4375 842.075,385.6953 Q842.3094,385.9531 842.3094,386.5625 L842.3094,388.0156 Q842.3094,388.625 842.075,388.8906 Q841.8406,389.1563 841.4656,389.1563 Q841.1219,389.1563 840.9188,388.9531 Q840.7156,388.7656 840.6063,388.25 Q840.5594,387.8906 840.3719,387.7031 Q840.0438,387.3281 839.4344,387.1094 Q838.825,386.8906 838.2,386.8906 Q837.4344,386.8906 836.8016,387.2188 Q836.1688,387.5469 835.6766,388.2969 Q835.1844,389.0469 835.1844,390.0781 L835.1844,391.1719 Q835.1844,392.4063 836.075,393.2266 Q836.9656,394.0469 838.5594,394.0469 Q839.4969,394.0469 840.1531,393.7969 Q840.5438,393.6406 840.9656,393.2031 Q841.2313,392.9375 841.3797,392.8594 Q841.5281,392.7813 841.7313,392.7813 Q842.0594,392.7813 842.3172,393.0391 Q842.575,393.2969 842.575,393.6406 Q842.575,393.9844 842.2313,394.3906 Q841.7313,394.9688 840.9344,395.2969 Q839.8563,395.75 838.5594,395.75 Q837.0438,395.75 835.8406,395.125 Q834.8563,394.625 834.1688,393.5547 Q833.4813,392.4844 833.4813,391.2031 L833.4813,390.0469 Q833.4813,388.7188 834.0984,387.5703 Q834.7156,386.4219 835.8094,385.8047 Q836.9031,385.1875 838.1375,385.1875 Q838.8719,385.1875 839.5203,385.3516 Q840.1688,385.5156 840.7156,385.875 Z "/><text fill="#000000" font-family="sans-serif" font-size="12" lengthAdjust="spacingAndGlyphs" textLength="59" x="857.05" y="394.9102">Freelancer</text><line style="stroke: #A80036; stroke-width: 1.5;" x1="801" x2="941" y1="406" y2="406"/><rect fill="none" height="6" style="stroke: #C82930; stroke-width: 1.0;" width="6" x="808" y="415.418"/><text fill="#000000" font-family="sans-serif" font-size="11" lengthAdjust="spacingAndGlyphs" textLength="39" x="820" y="421.4189">String id</text><rect fill="none" height="6" style="stroke: #C82930; stroke-width: 1.0;" width="6" x="808" y="429.2539"/><text fill="#000000" font-family="sans-serif" font-size="11" lengthAdjust="spacingAndGlyphs" textLength="57" x="820" y="435.2549">String name</text><rect fill="none" height="6" style="stroke: #C82930; stroke-width: 1.0;" width="6" x="808" y="443.0898"/><text fill="#000000" font-family="sans-serif" font-size="11" lengthAdjust="spacingAndGlyphs" textLength="55" x="820" y="449.0908">String email</text><rect fill="none" height="6" style="stroke: #C82930; stroke-width: 1.0;" width="6" x="808" y="456.9258"/><text fill="#000000" font-family="sans-serif" font-size="11" lengthAdjust="spacingAndGlyphs" textLength="51" x="820" y="462.9268">Integer NIF</text><rect fill="none" height="6" style="stroke: #C82930; stroke-width: 1.0;" width="6" x="808" y="470.7617"/><text fill="#000000" font-family="sans-serif" font-size="11" lengthAdjust="spacingAndGlyphs" textLength="55" x="820" y="476.7627">String IBAN</text><rect fill="none" height="6" style="stroke: #C82930; stroke-width: 1.0;" width="6" x="808" y="484.5977"/><text fill="#000000" font-family="sans-serif" font-size="11" lengthAdjust="spacingAndGlyphs" textLength="116" x="820" y="490.5986">double OverallPayments</text><!--class PaymentTransaction--><rect fill="#FEFECE" filter="url(#f1m85nysfmcm5a)" height="53.8359" id="PaymentTransaction" style="stroke: #A80036; stroke-width: 1.5;" width="145" x="544" y="315.5"/><ellipse cx="559" cy="331.5" fill="#ADD1B2" rx="11" ry="11" style="stroke: #A80036; stroke-width: 1.0;"/><path d="M561.7656,327.375 Q561.9219,327.1563 562.1094,327.0469 Q562.2969,326.9375 562.5156,326.9375 Q562.8906,326.9375 563.125,327.1953 Q563.3594,327.4531 563.3594,328.0625 L563.3594,329.5156 Q563.3594,330.125 563.125,330.3906 Q562.8906,330.6563 562.5156,330.6563 Q562.1719,330.6563 561.9688,330.4531 Q561.7656,330.2656 561.6563,329.75 Q561.6094,329.3906 561.4219,329.2031 Q561.0938,328.8281 560.4844,328.6094 Q559.875,328.3906 559.25,328.3906 Q558.4844,328.3906 557.8516,328.7188 Q557.2188,329.0469 556.7266,329.7969 Q556.2344,330.5469 556.2344,331.5781 L556.2344,332.6719 Q556.2344,333.9063 557.125,334.7266 Q558.0156,335.5469 559.6094,335.5469 Q560.5469,335.5469 561.2031,335.2969 Q561.5938,335.1406 562.0156,334.7031 Q562.2813,334.4375 562.4297,334.3594 Q562.5781,334.2813 562.7813,334.2813 Q563.1094,334.2813 563.3672,334.5391 Q563.625,334.7969 563.625,335.1406 Q563.625,335.4844 563.2813,335.8906 Q562.7813,336.4688 561.9844,336.7969 Q560.9063,337.25 559.6094,337.25 Q558.0938,337.25 556.8906,336.625 Q555.9063,336.125 555.2188,335.0547 Q554.5313,333.9844 554.5313,332.7031 L554.5313,331.5469 Q554.5313,330.2188 555.1484,329.0703 Q555.7656,327.9219 556.8594,327.3047 Q557.9531,326.6875 559.1875,326.6875 Q559.9219,326.6875 560.5703,326.8516 Q561.2188,327.0156 561.7656,327.375 Z "/><text fill="#000000" font-family="sans-serif" font-size="12" lengthAdjust="spacingAndGlyphs" textLength="113" x="573" y="336.4102">PaymentTransaction</text><line style="stroke: #A80036; stroke-width: 1.5;" x1="545" x2="688" y1="347.5" y2="347.5"/><rect fill="none" height="6" style="stroke: #C82930; stroke-width: 1.0;" width="6" x="552" y="356.918"/><text fill="#000000" font-family="sans-serif" font-size="11" lengthAdjust="spacingAndGlyphs" textLength="39" x="564" y="362.9189">String id</text><!--class Task--><rect fill="#FEFECE" filter="url(#f1m85nysfmcm5a)" height="109.1797" id="Task" style="stroke: #A80036; stroke-width: 1.5;" width="133" x="1045" y="249"/><ellipse cx="1093.75" cy="265" fill="#ADD1B2" rx="11" ry="11" style="stroke: #A80036; stroke-width: 1.0;"/><path d="M1096.5156,260.875 Q1096.6719,260.6563 1096.8594,260.5469 Q1097.0469,260.4375 1097.2656,260.4375 Q1097.6406,260.4375 1097.875,260.6953 Q1098.1094,260.9531 1098.1094,261.5625 L1098.1094,263.0156 Q1098.1094,263.625 1097.875,263.8906 Q1097.6406,264.1563 1097.2656,264.1563 Q1096.9219,264.1563 1096.7188,263.9531 Q1096.5156,263.7656 1096.4063,263.25 Q1096.3594,262.8906 1096.1719,262.7031 Q1095.8438,262.3281 1095.2344,262.1094 Q1094.625,261.8906 1094,261.8906 Q1093.2344,261.8906 1092.6016,262.2188 Q1091.9688,262.5469 1091.4766,263.2969 Q1090.9844,264.0469 1090.9844,265.0781 L1090.9844,266.1719 Q1090.9844,267.4063 1091.875,268.2266 Q1092.7656,269.0469 1094.3594,269.0469 Q1095.2969,269.0469 1095.9531,268.7969 Q1096.3438,268.6406 1096.7656,268.2031 Q1097.0313,267.9375 1097.1797,267.8594 Q1097.3281,267.7813 1097.5313,267.7813 Q1097.8594,267.7813 1098.1172,268.0391 Q1098.375,268.2969 1098.375,268.6406 Q1098.375,268.9844 1098.0313,269.3906 Q1097.5313,269.9688 1096.7344,270.2969 Q1095.6563,270.75 1094.3594,270.75 Q1092.8438,270.75 1091.6406,270.125 Q1090.6563,269.625 1089.9688,268.5547 Q1089.2813,267.4844 1089.2813,266.2031 L1089.2813,265.0469 Q1089.2813,263.7188 1089.8984,262.5703 Q1090.5156,261.4219 1091.6094,260.8047 Q1092.7031,260.1875 1093.9375,260.1875 Q1094.6719,260.1875 1095.3203,260.3516 Q1095.9688,260.5156 1096.5156,260.875 Z "/><text fill="#000000" font-family="sans-serif" font-size="12" lengthAdjust="spacingAndGlyphs" textLength="27" x="1114.25" y="269.9102">Task</text><line style="stroke: #A80036; stroke-width: 1.5;" x1="1046" x2="1177" y1="281" y2="281"/><rect fill="none" height="6" style="stroke: #C82930; stroke-width: 1.0;" width="6" x="1053" y="290.418"/><text fill="#000000" font-family="sans-serif" font-size="11" lengthAdjust="spacingAndGlyphs" textLength="39" x="1065" y="296.4189">String id</text><rect fill="none" height="6" style="stroke: #C82930; stroke-width: 1.0;" width="6" x="1053" y="304.2539"/><text fill="#000000" font-family="sans-serif" font-size="11" lengthAdjust="spacingAndGlyphs" textLength="107" x="1065" y="310.2549">String briefDescription</text><rect fill="none" height="6" style="stroke: #C82930; stroke-width: 1.0;" width="6" x="1053" y="318.0898"/><text fill="#000000" font-family="sans-serif" font-size="11" lengthAdjust="spacingAndGlyphs" textLength="95" x="1065" y="324.0908">Double timeDuration</text><rect fill="none" height="6" style="stroke: #C82930; stroke-width: 1.0;" width="6" x="1053" y="331.9258"/><text fill="#000000" font-family="sans-serif" font-size="11" lengthAdjust="spacingAndGlyphs" textLength="96" x="1065" y="337.9268">Double costPerHour</text><rect fill="none" height="6" style="stroke: #C82930; stroke-width: 1.0;" width="6" x="1053" y="345.7617"/><text fill="#000000" font-family="sans-serif" font-size="11" lengthAdjust="spacingAndGlyphs" textLength="74" x="1065" y="351.7627">String category</text><!--link Platform to Organization--><path d="M118.323,238.465 C164.146,218.556 228.944,190.404 274.748,170.504 " fill="none" id="Platform-Organization" style="stroke: #A80036; stroke-width: 1.0;"/><text fill="#000000" font-family="sans-serif" font-size="13" lengthAdjust="spacingAndGlyphs" textLength="82" x="149" y="179.9951">has registered</text><polygon fill="#000000" points="234,173.1758,240,176.1758,234,179.1758,234,173.1758" style="stroke: #000000; stroke-width: 1.0;"/><text fill="#000000" font-family="sans-serif" font-size="13" lengthAdjust="spacingAndGlyphs" textLength="7" x="125.9878" y="249.9387">1</text><text fill="#000000" font-family="sans-serif" font-size="13" lengthAdjust="spacingAndGlyphs" textLength="5" x="261.8532" y="188.3343">*</text><!--link Platform to Freelancer--><path d="M118.096,278.897 C207.017,304.888 387.992,355.84 544,387.5 C631.601,405.2777 733.712,419.2355 799.986,427.4136 " fill="none" id="Platform-Freelancer" style="stroke: #A80036; stroke-width: 1.0;"/><text fill="#000000" font-family="sans-serif" font-size="13" lengthAdjust="spacingAndGlyphs" textLength="82" x="418" y="355.9951">has registered</text><polygon fill="#000000" points="503,349.1758,509,352.1758,503,355.1758,503,349.1758" style="stroke: #000000; stroke-width: 1.0;"/><text fill="#000000" font-family="sans-serif" font-size="13" lengthAdjust="spacingAndGlyphs" textLength="7" x="126.1042" y="295.7051">1</text><text fill="#000000" font-family="sans-serif" font-size="13" lengthAdjust="spacingAndGlyphs" textLength="5" x="786.9454" y="440.9176">*</text><!--link Platform to User--><path d="M118.086,268.052 C203.302,275.585 372.078,286.292 514,269.5 C593.432,260.102 611.654,247.881 689,227.5 C732.313,216.087 781.105,201.997 817.107,191.364 " fill="none" id="Platform-User" style="stroke: #A80036; stroke-width: 1.0;"/><text fill="#000000" font-family="sans-serif" font-size="13" lengthAdjust="spacingAndGlyphs" textLength="82" x="418" y="265.9951">has registered</text><polygon fill="#000000" points="503,259.1758,509,262.1758,503,265.1758,503,259.1758" style="stroke: #000000; stroke-width: 1.0;"/><text fill="#000000" font-family="sans-serif" font-size="13" lengthAdjust="spacingAndGlyphs" textLength="7" x="126.0929" y="269.7903">1</text><text fill="#000000" font-family="sans-serif" font-size="13" lengthAdjust="spacingAndGlyphs" textLength="5" x="804.5292" y="208.1225">*</text><!--link Organization to Collaborator--><path d="M387.335,132.056 C439.383,118.471 516.567,98.324 566.458,85.301 " fill="none" id="Organization-Collaborator" style="stroke: #A80036; stroke-width: 1.0;"/><text fill="#000000" font-family="sans-serif" font-size="13" lengthAdjust="spacingAndGlyphs" textLength="21" x="448.5" y="97.9951">has</text><polygon fill="#000000" points="472.5,91.1758,478.5,94.1758,472.5,97.1758,472.5,91.1758" style="stroke: #000000; stroke-width: 1.0;"/><text fill="#000000" font-family="sans-serif" font-size="13" lengthAdjust="spacingAndGlyphs" textLength="7" x="395.0014" y="144.7585">1</text><text fill="#000000" font-family="sans-serif" font-size="13" lengthAdjust="spacingAndGlyphs" textLength="7" x="551.594" y="101.9012">1</text><!--link Organization to Manager--><path d="M387.335,152.16 C442.445,157.798 525.734,166.318 574.968,171.354 " fill="none" id="Organization-Manager" style="stroke: #A80036; stroke-width: 1.0;"/><text fill="#000000" font-family="sans-serif" font-size="13" lengthAdjust="spacingAndGlyphs" textLength="21" x="448.5" y="151.9951">has</text><polygon fill="#000000" points="472.5,145.1758,478.5,148.1758,472.5,151.1758,472.5,145.1758" style="stroke: #000000; stroke-width: 1.0;"/><text fill="#000000" font-family="sans-serif" font-size="13" lengthAdjust="spacingAndGlyphs" textLength="7" x="395.0014" y="167.4383">1</text><text fill="#000000" font-family="sans-serif" font-size="13" lengthAdjust="spacingAndGlyphs" textLength="7" x="559.9467" y="185.5961">1</text><!--link Organization to Task--><path d="M360.302,119.313 C376.125,105.058 396.702,88.009 417,75.5 C521.999,10.793 567.725,-1.952 689,20.5 C807.413,42.422 842.637,49.461 942,117.5 C993.949,153.072 1040.94,207.748 1072.01,248.627 " fill="none" id="Organization-Task" style="stroke: #A80036; stroke-width: 1.0;"/><text fill="#000000" font-family="sans-serif" font-size="13" lengthAdjust="spacingAndGlyphs" textLength="21" x="727.5" y="22.9951">has</text><polygon fill="#000000" points="751.5,16.1758,757.5,19.1758,751.5,22.1758,751.5,16.1758" style="stroke: #000000; stroke-width: 1.0;"/><text fill="#000000" font-family="sans-serif" font-size="13" lengthAdjust="spacingAndGlyphs" textLength="7" x="359.2687" y="108.7307">1</text><text fill="#000000" font-family="sans-serif" font-size="13" lengthAdjust="spacingAndGlyphs" textLength="5" x="1061.63" y="238.0775">*</text><!--link Organization to PaymentTransaction--><path d="M384.708,173.625 C434.235,199.27 502.439,235.047 514,243.5 C543.012,264.711 571.946,293.929 591.454,315.121 " fill="none" id="Organization-PaymentTransaction" style="stroke: #A80036; stroke-width: 1.0;"/><text fill="#000000" font-family="sans-serif" font-size="13" lengthAdjust="spacingAndGlyphs" textLength="21" x="448.5" y="188.9951">has</text><polygon fill="#000000" points="472.5,182.1758,478.5,185.1758,472.5,188.1758,472.5,182.1758" style="stroke: #000000; stroke-width: 1.0;"/><text fill="#000000" font-family="sans-serif" font-size="13" lengthAdjust="spacingAndGlyphs" textLength="7" x="388.691" y="194.8601">1</text><text fill="#000000" font-family="sans-serif" font-size="13" lengthAdjust="spacingAndGlyphs" textLength="5" x="580.084" y="304.4943">*</text><!--link Collaborator to User--><path d="M666.784,92.604 C710.127,110.284 773.041,135.948 817.358,154.026 " fill="none" id="Collaborator-User" style="stroke: #A80036; stroke-width: 1.0;"/><text fill="#000000" font-family="sans-serif" font-size="13" lengthAdjust="spacingAndGlyphs" textLength="36" x="720" y="111.9951">act as</text><polygon fill="#000000" points="759,105.1758,765,108.1758,759,111.1758,759,105.1758" style="stroke: #000000; stroke-width: 1.0;"/><text fill="#000000" font-family="sans-serif" font-size="13" lengthAdjust="spacingAndGlyphs" textLength="22" x="674.636" y="109.7435">0..1</text><text fill="#000000" font-family="sans-serif" font-size="13" lengthAdjust="spacingAndGlyphs" textLength="7" x="802.3224" y="165.6857">1</text><!--link Manager to User--><path d="M658.068,175.5 C701.284,175.5 769.861,175.5 817.245,175.5 " fill="none" id="Manager-User" style="stroke: #A80036; stroke-width: 1.0;"/><text fill="#000000" font-family="sans-serif" font-size="13" lengthAdjust="spacingAndGlyphs" textLength="36" x="720" y="171.9951">act as</text><polygon fill="#000000" points="759,165.1758,765,168.1758,759,171.1758,759,165.1758" style="stroke: #000000; stroke-width: 1.0;"/><text fill="#000000" font-family="sans-serif" font-size="13" lengthAdjust="spacingAndGlyphs" textLength="22" x="666.1175" y="190.2722">0..1</text><text fill="#000000" font-family="sans-serif" font-size="13" lengthAdjust="spacingAndGlyphs" textLength="7" x="802.5514" y="190.1268">1</text><!--link PaymentTransaction to Freelancer--><path d="M689.181,368.901 C723.882,381.682 765.393,396.971 799.885,409.6754 " fill="none" id="PaymentTransaction-Freelancer" style="stroke: #A80036; stroke-width: 1.0;"/><text fill="#000000" font-family="sans-serif" font-size="13" lengthAdjust="spacingAndGlyphs" textLength="11" x="732.5" y="376.9951">to</text><polygon fill="#000000" points="746.5,370.1758,752.5,373.1758,746.5,376.1758,746.5,370.1758" style="stroke: #000000; stroke-width: 1.0;"/><text fill="#000000" font-family="sans-serif" font-size="13" lengthAdjust="spacingAndGlyphs" textLength="5" x="696.934" y="385.9703">*</text><text fill="#000000" font-family="sans-serif" font-size="13" lengthAdjust="spacingAndGlyphs" textLength="7" x="785.1903" y="421.3497">1</text><!--link PaymentTransaction to Task--><path d="M689.186,336.829 C784.659,329.276 952.214,316.022 1044.64,308.71 " fill="none" id="PaymentTransaction-Task" style="stroke: #A80036; stroke-width: 1.0;"/><text fill="#000000" font-family="sans-serif" font-size="13" lengthAdjust="spacingAndGlyphs" textLength="43" x="843" y="312.9951">referent</text><polygon fill="#000000" points="889,306.1758,895,309.1758,889,312.1758,889,306.1758" style="stroke: #000000; stroke-width: 1.0;"/><text fill="#000000" font-family="sans-serif" font-size="13" lengthAdjust="spacingAndGlyphs" textLength="7" x="697.0427" y="350.5909">1</text><text fill="#000000" font-family="sans-serif" font-size="13" lengthAdjust="spacingAndGlyphs" textLength="7" x="1029.9444" y="323.6594">1</text><!--link Freelancer to Task--><path d="M942.268,396.61 C974.696,378.662 1012.97,357.478 1044.82,339.853 " fill="none" id="Freelancer-Task" style="stroke: #A80036; stroke-width: 1.0;"/><text fill="#000000" font-family="sans-serif" font-size="13" lengthAdjust="spacingAndGlyphs" textLength="28" x="973" y="353.9951">does</text><polygon fill="#000000" points="1004,347.1758,1010,350.1758,1004,353.1758,1004,347.1758" style="stroke: #000000; stroke-width: 1.0;"/><text fill="#000000" font-family="sans-serif" font-size="13" lengthAdjust="spacingAndGlyphs" textLength="7" x="949.9785" y="406.9369">1</text><text fill="#000000" font-family="sans-serif" font-size="13" lengthAdjust="spacingAndGlyphs" textLength="5" x="1031.8211" y="358.4864">*</text><!--
@startuml

hide methods
left to right direction

class Platform {
  -String designation
}


class Organization {
  -String designation
}

class User {
  -String name
  -String email
  -String password
}

class Collaborator {
  -String name
  -String email
}

class Manager {
  -String name
  -String email
}

class Freelancer {
  -String id
  -String name
  -String email
  -Integer NIF
  -String IBAN
  -double OverallPayments
}


class PaymentTransaction {
  -String id
}

class Task {
  -String id
  -String briefDescription
  -Double timeDuration
  -Double costPerHour
  -String category
}




Platform "1" - - "*" Organization : has registered >
Platform "1" - - "*" Freelancer : has registered >
Platform "1" - - "*" User : has registered >


Organization "1" - - "1" Collaborator: has >
Organization "1" - - "1" Manager: has >
Organization "1" - - "*" Task : has >
Organization "1" - - "*" PaymentTransaction : has >


Collaborator "0..1" - - "1" User : act as >

Manager "0..1" - - "1" User : act as >

PaymentTransaction "*" - - "1" Freelancer : to >
PaymentTransaction "1" - - "1" Task : referent >

Freelancer "1" - - "*" Task : does >
@enduml

PlantUML version 1.2018.14(Fri Dec 21 16:33:16 GMT 2018)
(GPL source distribution)
Java Runtime: Java(TM) SE Runtime Environment
JVM: Java HotSpot(TM) 64-Bit Server VM
Java Version: 1.8.0_221-b11
Operating System: Windows 10
OS Version: 10.0
Default Encoding: Cp1252
Language: pt
Country: PT
--></g></svg>