<?xml version="1.0" encoding="UTF-8" standalone="no"?><svg xmlns="http://www.w3.org/2000/svg" xmlns:xlink="http://www.w3.org/1999/xlink" contentScriptType="application/ecmascript" contentStyleType="text/css" height="1248px" preserveAspectRatio="none" style="width:978px;height:1248px;" version="1.1" viewBox="0 0 978 1248" width="978px" zoomAndPan="magnify"><defs><filter height="300%" id="fq143c2ambv4z" width="300%" x="-1" y="-1"><feGaussianBlur result="blurOut" stdDeviation="2.0"/><feColorMatrix in="blurOut" result="blurOut2" type="matrix" values="0 0 0 0 0 0 0 0 0 0 0 0 0 0 0 0 0 0 .4 0"/><feOffset dx="4.0" dy="4.0" in="blurOut2" result="blurOut3"/><feBlend in="SourceGraphic" in2="blurOut3" mode="normal"/></filter></defs><g><!--class ApplicationPOT--><rect fill="#FEFECE" filter="url(#fq143c2ambv4z)" height="75.6719" id="ApplicationPOT" style="stroke: #A80036; stroke-width: 1.5;" width="124" x="6" y="268"/><ellipse cx="24.6" cy="284" fill="#ADD1B2" rx="11" ry="11" style="stroke: #A80036; stroke-width: 1.0;"/><path d="M27.3656,279.875 Q27.5219,279.6563 27.7094,279.5469 Q27.8969,279.4375 28.1156,279.4375 Q28.4906,279.4375 28.725,279.6953 Q28.9594,279.9531 28.9594,280.5625 L28.9594,282.0156 Q28.9594,282.625 28.725,282.8906 Q28.4906,283.1563 28.1156,283.1563 Q27.7719,283.1563 27.5688,282.9531 Q27.3656,282.7656 27.2563,282.25 Q27.2094,281.8906 27.0219,281.7031 Q26.6938,281.3281 26.0844,281.1094 Q25.475,280.8906 24.85,280.8906 Q24.0844,280.8906 23.4516,281.2188 Q22.8188,281.5469 22.3266,282.2969 Q21.8344,283.0469 21.8344,284.0781 L21.8344,285.1719 Q21.8344,286.4063 22.725,287.2266 Q23.6156,288.0469 25.2094,288.0469 Q26.1469,288.0469 26.8031,287.7969 Q27.1938,287.6406 27.6156,287.2031 Q27.8813,286.9375 28.0297,286.8594 Q28.1781,286.7813 28.3813,286.7813 Q28.7094,286.7813 28.9672,287.0391 Q29.225,287.2969 29.225,287.6406 Q29.225,287.9844 28.8813,288.3906 Q28.3813,288.9688 27.5844,289.2969 Q26.5063,289.75 25.2094,289.75 Q23.6938,289.75 22.4906,289.125 Q21.5063,288.625 20.8188,287.5547 Q20.1313,286.4844 20.1313,285.2031 L20.1313,284.0469 Q20.1313,282.7188 20.7484,281.5703 Q21.3656,280.4219 22.4594,279.8047 Q23.5531,279.1875 24.7875,279.1875 Q25.5219,279.1875 26.1703,279.3516 Q26.8188,279.5156 27.3656,279.875 Z "/><text fill="#000000" font-family="sans-serif" font-size="12" lengthAdjust="spacingAndGlyphs" textLength="84" x="39.4" y="288.9102">ApplicationPOT</text><line style="stroke: #A80036; stroke-width: 1.5;" x1="7" x2="129" y1="300" y2="300"/><line style="stroke: #A80036; stroke-width: 1.5;" x1="7" x2="129" y1="308" y2="308"/><ellipse cx="17" cy="320.418" fill="#84BE84" rx="3" ry="3" style="stroke: #038048; stroke-width: 1.0;"/><text fill="#000000" font-family="sans-serif" font-size="11" lengthAdjust="spacingAndGlyphs" textLength="64" x="26" y="323.4189">getInstance()</text><ellipse cx="17" cy="334.2539" fill="#84BE84" rx="3" ry="3" style="stroke: #038048; stroke-width: 1.0;"/><text fill="#000000" font-family="sans-serif" font-size="11" lengthAdjust="spacingAndGlyphs" textLength="98" x="26" y="337.2549">getCurrentSession()</text><!--class UserSession--><rect fill="#FEFECE" filter="url(#fq143c2ambv4z)" height="61.8359" id="UserSession" style="stroke: #A80036; stroke-width: 1.5;" width="105" x="165.5" y="275"/><ellipse cx="180.5" cy="291" fill="#ADD1B2" rx="11" ry="11" style="stroke: #A80036; stroke-width: 1.0;"/><path d="M183.2656,286.875 Q183.4219,286.6563 183.6094,286.5469 Q183.7969,286.4375 184.0156,286.4375 Q184.3906,286.4375 184.625,286.6953 Q184.8594,286.9531 184.8594,287.5625 L184.8594,289.0156 Q184.8594,289.625 184.625,289.8906 Q184.3906,290.1563 184.0156,290.1563 Q183.6719,290.1563 183.4688,289.9531 Q183.2656,289.7656 183.1563,289.25 Q183.1094,288.8906 182.9219,288.7031 Q182.5938,288.3281 181.9844,288.1094 Q181.375,287.8906 180.75,287.8906 Q179.9844,287.8906 179.3516,288.2188 Q178.7188,288.5469 178.2266,289.2969 Q177.7344,290.0469 177.7344,291.0781 L177.7344,292.1719 Q177.7344,293.4063 178.625,294.2266 Q179.5156,295.0469 181.1094,295.0469 Q182.0469,295.0469 182.7031,294.7969 Q183.0938,294.6406 183.5156,294.2031 Q183.7813,293.9375 183.9297,293.8594 Q184.0781,293.7813 184.2813,293.7813 Q184.6094,293.7813 184.8672,294.0391 Q185.125,294.2969 185.125,294.6406 Q185.125,294.9844 184.7813,295.3906 Q184.2813,295.9688 183.4844,296.2969 Q182.4063,296.75 181.1094,296.75 Q179.5938,296.75 178.3906,296.125 Q177.4063,295.625 176.7188,294.5547 Q176.0313,293.4844 176.0313,292.2031 L176.0313,291.0469 Q176.0313,289.7188 176.6484,288.5703 Q177.2656,287.4219 178.3594,286.8047 Q179.4531,286.1875 180.6875,286.1875 Q181.4219,286.1875 182.0703,286.3516 Q182.7188,286.5156 183.2656,286.875 Z "/><text fill="#000000" font-family="sans-serif" font-size="12" lengthAdjust="spacingAndGlyphs" textLength="73" x="194.5" y="295.9102">UserSession</text><line style="stroke: #A80036; stroke-width: 1.5;" x1="166.5" x2="269.5" y1="307" y2="307"/><line style="stroke: #A80036; stroke-width: 1.5;" x1="166.5" x2="269.5" y1="315" y2="315"/><ellipse cx="176.5" cy="327.418" fill="#84BE84" rx="3" ry="3" style="stroke: #038048; stroke-width: 1.0;"/><text fill="#000000" font-family="sans-serif" font-size="11" lengthAdjust="spacingAndGlyphs" textLength="70" x="185.5" y="330.4189">getUserEmail()</text><!--class AnalyseFreelancerPaymentsUI--><rect fill="#FEFECE" filter="url(#fq143c2ambv4z)" height="48" id="AnalyseFreelancerPaymentsUI" style="stroke: #A80036; stroke-width: 1.5;" width="201" x="338.5" y="8"/><ellipse cx="353.5" cy="24" fill="#ADD1B2" rx="11" ry="11" style="stroke: #A80036; stroke-width: 1.0;"/><path d="M356.2656,19.875 Q356.4219,19.6563 356.6094,19.5469 Q356.7969,19.4375 357.0156,19.4375 Q357.3906,19.4375 357.625,19.6953 Q357.8594,19.9531 357.8594,20.5625 L357.8594,22.0156 Q357.8594,22.625 357.625,22.8906 Q357.3906,23.1563 357.0156,23.1563 Q356.6719,23.1563 356.4688,22.9531 Q356.2656,22.7656 356.1563,22.25 Q356.1094,21.8906 355.9219,21.7031 Q355.5938,21.3281 354.9844,21.1094 Q354.375,20.8906 353.75,20.8906 Q352.9844,20.8906 352.3516,21.2188 Q351.7188,21.5469 351.2266,22.2969 Q350.7344,23.0469 350.7344,24.0781 L350.7344,25.1719 Q350.7344,26.4063 351.625,27.2266 Q352.5156,28.0469 354.1094,28.0469 Q355.0469,28.0469 355.7031,27.7969 Q356.0938,27.6406 356.5156,27.2031 Q356.7813,26.9375 356.9297,26.8594 Q357.0781,26.7813 357.2813,26.7813 Q357.6094,26.7813 357.8672,27.0391 Q358.125,27.2969 358.125,27.6406 Q358.125,27.9844 357.7813,28.3906 Q357.2813,28.9688 356.4844,29.2969 Q355.4063,29.75 354.1094,29.75 Q352.5938,29.75 351.3906,29.125 Q350.4063,28.625 349.7188,27.5547 Q349.0313,26.4844 349.0313,25.2031 L349.0313,24.0469 Q349.0313,22.7188 349.6484,21.5703 Q350.2656,20.4219 351.3594,19.8047 Q352.4531,19.1875 353.6875,19.1875 Q354.4219,19.1875 355.0703,19.3516 Q355.7188,19.5156 356.2656,19.875 Z "/><text fill="#000000" font-family="sans-serif" font-size="12" lengthAdjust="spacingAndGlyphs" textLength="169" x="367.5" y="28.9102">AnalyseFreelancerPaymentsUI</text><line style="stroke: #A80036; stroke-width: 1.5;" x1="339.5" x2="538.5" y1="40" y2="40"/><line style="stroke: #A80036; stroke-width: 1.5;" x1="339.5" x2="538.5" y1="48" y2="48"/><!--class AnalyseFreelancerPaymentsController--><rect fill="#FEFECE" filter="url(#fq143c2ambv4z)" height="89.5078" id="AnalyseFreelancerPaymentsController" style="stroke: #A80036; stroke-width: 1.5;" width="392" x="243" y="117"/><ellipse cx="329.25" cy="133" fill="#ADD1B2" rx="11" ry="11" style="stroke: #A80036; stroke-width: 1.0;"/><path d="M332.0156,128.875 Q332.1719,128.6563 332.3594,128.5469 Q332.5469,128.4375 332.7656,128.4375 Q333.1406,128.4375 333.375,128.6953 Q333.6094,128.9531 333.6094,129.5625 L333.6094,131.0156 Q333.6094,131.625 333.375,131.8906 Q333.1406,132.1563 332.7656,132.1563 Q332.4219,132.1563 332.2188,131.9531 Q332.0156,131.7656 331.9063,131.25 Q331.8594,130.8906 331.6719,130.7031 Q331.3438,130.3281 330.7344,130.1094 Q330.125,129.8906 329.5,129.8906 Q328.7344,129.8906 328.1016,130.2188 Q327.4688,130.5469 326.9766,131.2969 Q326.4844,132.0469 326.4844,133.0781 L326.4844,134.1719 Q326.4844,135.4063 327.375,136.2266 Q328.2656,137.0469 329.8594,137.0469 Q330.7969,137.0469 331.4531,136.7969 Q331.8438,136.6406 332.2656,136.2031 Q332.5313,135.9375 332.6797,135.8594 Q332.8281,135.7813 333.0313,135.7813 Q333.3594,135.7813 333.6172,136.0391 Q333.875,136.2969 333.875,136.6406 Q333.875,136.9844 333.5313,137.3906 Q333.0313,137.9688 332.2344,138.2969 Q331.1563,138.75 329.8594,138.75 Q328.3438,138.75 327.1406,138.125 Q326.1563,137.625 325.4688,136.5547 Q324.7813,135.4844 324.7813,134.2031 L324.7813,133.0469 Q324.7813,131.7188 325.3984,130.5703 Q326.0156,129.4219 327.1094,128.8047 Q328.2031,128.1875 329.4375,128.1875 Q330.1719,128.1875 330.8203,128.3516 Q331.4688,128.5156 332.0156,128.875 Z "/><text fill="#000000" font-family="sans-serif" font-size="12" lengthAdjust="spacingAndGlyphs" textLength="211" x="349.75" y="137.9102">AnalyseFreelancerPaymentsController</text><line style="stroke: #A80036; stroke-width: 1.5;" x1="244" x2="634" y1="149" y2="149"/><line style="stroke: #A80036; stroke-width: 1.5;" x1="244" x2="634" y1="157" y2="157"/><ellipse cx="254" cy="169.418" fill="#84BE84" rx="3" ry="3" style="stroke: #038048; stroke-width: 1.0;"/><text fill="#000000" font-family="sans-serif" font-size="11" lengthAdjust="spacingAndGlyphs" textLength="125" x="263" y="172.4189">List&lt;String&gt; getListStats()</text><ellipse cx="254" cy="183.2539" fill="#84BE84" rx="3" ry="3" style="stroke: #038048; stroke-width: 1.0;"/><text fill="#000000" font-family="sans-serif" font-size="11" lengthAdjust="spacingAndGlyphs" textLength="191" x="263" y="186.2549">List&lt;String&gt; getFreeSortedByPayment()</text><ellipse cx="254" cy="197.0898" fill="#84BE84" rx="3" ry="3" style="stroke: #038048; stroke-width: 1.0;"/><text fill="#000000" font-family="sans-serif" font-size="11" lengthAdjust="spacingAndGlyphs" textLength="366" x="263" y="200.0908">ArrayList&lt;Freelancer&gt; sortByName(ArrayList&lt;Freelancer&gt; listOfFreeTrans)</text><!--class Platform--><rect fill="#FEFECE" filter="url(#fq143c2ambv4z)" height="75.6719" id="Platform" style="stroke: #A80036; stroke-width: 1.5;" width="266" x="306" y="268"/><ellipse cx="411.75" cy="284" fill="#ADD1B2" rx="11" ry="11" style="stroke: #A80036; stroke-width: 1.0;"/><path d="M414.5156,279.875 Q414.6719,279.6563 414.8594,279.5469 Q415.0469,279.4375 415.2656,279.4375 Q415.6406,279.4375 415.875,279.6953 Q416.1094,279.9531 416.1094,280.5625 L416.1094,282.0156 Q416.1094,282.625 415.875,282.8906 Q415.6406,283.1563 415.2656,283.1563 Q414.9219,283.1563 414.7188,282.9531 Q414.5156,282.7656 414.4063,282.25 Q414.3594,281.8906 414.1719,281.7031 Q413.8438,281.3281 413.2344,281.1094 Q412.625,280.8906 412,280.8906 Q411.2344,280.8906 410.6016,281.2188 Q409.9688,281.5469 409.4766,282.2969 Q408.9844,283.0469 408.9844,284.0781 L408.9844,285.1719 Q408.9844,286.4063 409.875,287.2266 Q410.7656,288.0469 412.3594,288.0469 Q413.2969,288.0469 413.9531,287.7969 Q414.3438,287.6406 414.7656,287.2031 Q415.0313,286.9375 415.1797,286.8594 Q415.3281,286.7813 415.5313,286.7813 Q415.8594,286.7813 416.1172,287.0391 Q416.375,287.2969 416.375,287.6406 Q416.375,287.9844 416.0313,288.3906 Q415.5313,288.9688 414.7344,289.2969 Q413.6563,289.75 412.3594,289.75 Q410.8438,289.75 409.6406,289.125 Q408.6563,288.625 407.9688,287.5547 Q407.2813,286.4844 407.2813,285.2031 L407.2813,284.0469 Q407.2813,282.7188 407.8984,281.5703 Q408.5156,280.4219 409.6094,279.8047 Q410.7031,279.1875 411.9375,279.1875 Q412.6719,279.1875 413.3203,279.3516 Q413.9688,279.5156 414.5156,279.875 Z "/><text fill="#000000" font-family="sans-serif" font-size="12" lengthAdjust="spacingAndGlyphs" textLength="46" x="432.25" y="288.9102">Platform</text><line style="stroke: #A80036; stroke-width: 1.5;" x1="307" x2="571" y1="300" y2="300"/><rect fill="none" height="6" style="stroke: #C82930; stroke-width: 1.0;" width="6" x="314" y="309.418"/><text fill="#000000" font-family="sans-serif" font-size="11" lengthAdjust="spacingAndGlyphs" textLength="86" x="326" y="315.4189">String designation</text><line style="stroke: #A80036; stroke-width: 1.5;" x1="307" x2="571" y1="321.8359" y2="321.8359"/><ellipse cx="317" cy="334.2539" fill="#84BE84" rx="3" ry="3" style="stroke: #038048; stroke-width: 1.0;"/><text fill="#000000" font-family="sans-serif" font-size="11" lengthAdjust="spacingAndGlyphs" textLength="240" x="326" y="337.2549">OrganizationsRegister getOrganizationsRegister()</text><!--class Collaborator--><rect fill="#FEFECE" filter="url(#fq143c2ambv4z)" height="75.6719" id="Collaborator" style="stroke: #A80036; stroke-width: 1.5;" width="100" x="500" y="771"/><ellipse cx="515" cy="787" fill="#ADD1B2" rx="11" ry="11" style="stroke: #A80036; stroke-width: 1.0;"/><path d="M517.7656,782.875 Q517.9219,782.6563 518.1094,782.5469 Q518.2969,782.4375 518.5156,782.4375 Q518.8906,782.4375 519.125,782.6953 Q519.3594,782.9531 519.3594,783.5625 L519.3594,785.0156 Q519.3594,785.625 519.125,785.8906 Q518.8906,786.1563 518.5156,786.1563 Q518.1719,786.1563 517.9688,785.9531 Q517.7656,785.7656 517.6563,785.25 Q517.6094,784.8906 517.4219,784.7031 Q517.0938,784.3281 516.4844,784.1094 Q515.875,783.8906 515.25,783.8906 Q514.4844,783.8906 513.8516,784.2188 Q513.2188,784.5469 512.7266,785.2969 Q512.2344,786.0469 512.2344,787.0781 L512.2344,788.1719 Q512.2344,789.4063 513.125,790.2266 Q514.0156,791.0469 515.6094,791.0469 Q516.5469,791.0469 517.2031,790.7969 Q517.5938,790.6406 518.0156,790.2031 Q518.2813,789.9375 518.4297,789.8594 Q518.5781,789.7813 518.7813,789.7813 Q519.1094,789.7813 519.3672,790.0391 Q519.625,790.2969 519.625,790.6406 Q519.625,790.9844 519.2813,791.3906 Q518.7813,791.9688 517.9844,792.2969 Q516.9063,792.75 515.6094,792.75 Q514.0938,792.75 512.8906,792.125 Q511.9063,791.625 511.2188,790.5547 Q510.5313,789.4844 510.5313,788.2031 L510.5313,787.0469 Q510.5313,785.7188 511.1484,784.5703 Q511.7656,783.4219 512.8594,782.8047 Q513.9531,782.1875 515.1875,782.1875 Q515.9219,782.1875 516.5703,782.3516 Q517.2188,782.5156 517.7656,782.875 Z "/><text fill="#000000" font-family="sans-serif" font-size="12" lengthAdjust="spacingAndGlyphs" textLength="68" x="529" y="791.9102">Collaborator</text><line style="stroke: #A80036; stroke-width: 1.5;" x1="501" x2="599" y1="803" y2="803"/><rect fill="none" height="6" style="stroke: #C82930; stroke-width: 1.0;" width="6" x="508" y="812.418"/><text fill="#000000" font-family="sans-serif" font-size="11" lengthAdjust="spacingAndGlyphs" textLength="57" x="520" y="818.4189">String name</text><rect fill="none" height="6" style="stroke: #C82930; stroke-width: 1.0;" width="6" x="508" y="826.2539"/><text fill="#000000" font-family="sans-serif" font-size="11" lengthAdjust="spacingAndGlyphs" textLength="55" x="520" y="832.2549">String email</text><line style="stroke: #A80036; stroke-width: 1.5;" x1="501" x2="599" y1="838.6719" y2="838.6719"/><!--class Manager--><rect fill="#FEFECE" filter="url(#fq143c2ambv4z)" height="75.6719" id="Manager" style="stroke: #A80036; stroke-width: 1.5;" width="83" x="381.5" y="771"/><ellipse cx="397.85" cy="787" fill="#ADD1B2" rx="11" ry="11" style="stroke: #A80036; stroke-width: 1.0;"/><path d="M400.6156,782.875 Q400.7719,782.6563 400.9594,782.5469 Q401.1469,782.4375 401.3656,782.4375 Q401.7406,782.4375 401.975,782.6953 Q402.2094,782.9531 402.2094,783.5625 L402.2094,785.0156 Q402.2094,785.625 401.975,785.8906 Q401.7406,786.1563 401.3656,786.1563 Q401.0219,786.1563 400.8188,785.9531 Q400.6156,785.7656 400.5063,785.25 Q400.4594,784.8906 400.2719,784.7031 Q399.9438,784.3281 399.3344,784.1094 Q398.725,783.8906 398.1,783.8906 Q397.3344,783.8906 396.7016,784.2188 Q396.0688,784.5469 395.5766,785.2969 Q395.0844,786.0469 395.0844,787.0781 L395.0844,788.1719 Q395.0844,789.4063 395.975,790.2266 Q396.8656,791.0469 398.4594,791.0469 Q399.3969,791.0469 400.0531,790.7969 Q400.4438,790.6406 400.8656,790.2031 Q401.1313,789.9375 401.2797,789.8594 Q401.4281,789.7813 401.6313,789.7813 Q401.9594,789.7813 402.2172,790.0391 Q402.475,790.2969 402.475,790.6406 Q402.475,790.9844 402.1313,791.3906 Q401.6313,791.9688 400.8344,792.2969 Q399.7563,792.75 398.4594,792.75 Q396.9438,792.75 395.7406,792.125 Q394.7563,791.625 394.0688,790.5547 Q393.3813,789.4844 393.3813,788.2031 L393.3813,787.0469 Q393.3813,785.7188 393.9984,784.5703 Q394.6156,783.4219 395.7094,782.8047 Q396.8031,782.1875 398.0375,782.1875 Q398.7719,782.1875 399.4203,782.3516 Q400.0688,782.5156 400.6156,782.875 Z "/><text fill="#000000" font-family="sans-serif" font-size="12" lengthAdjust="spacingAndGlyphs" textLength="48" x="412.15" y="791.9102">Manager</text><line style="stroke: #A80036; stroke-width: 1.5;" x1="382.5" x2="463.5" y1="803" y2="803"/><rect fill="none" height="6" style="stroke: #C82930; stroke-width: 1.0;" width="6" x="389.5" y="812.418"/><text fill="#000000" font-family="sans-serif" font-size="11" lengthAdjust="spacingAndGlyphs" textLength="57" x="401.5" y="818.4189">String name</text><rect fill="none" height="6" style="stroke: #C82930; stroke-width: 1.0;" width="6" x="389.5" y="826.2539"/><text fill="#000000" font-family="sans-serif" font-size="11" lengthAdjust="spacingAndGlyphs" textLength="55" x="401.5" y="832.2549">String email</text><line style="stroke: #A80036; stroke-width: 1.5;" x1="382.5" x2="463.5" y1="838.6719" y2="838.6719"/><!--class OrganizationsRegister--><rect fill="#FEFECE" filter="url(#fq143c2ambv4z)" height="61.8359" id="OrganizationsRegister" style="stroke: #A80036; stroke-width: 1.5;" width="289" x="678.5" y="422"/><ellipse cx="757.25" cy="438" fill="#ADD1B2" rx="11" ry="11" style="stroke: #A80036; stroke-width: 1.0;"/><path d="M760.0156,433.875 Q760.1719,433.6563 760.3594,433.5469 Q760.5469,433.4375 760.7656,433.4375 Q761.1406,433.4375 761.375,433.6953 Q761.6094,433.9531 761.6094,434.5625 L761.6094,436.0156 Q761.6094,436.625 761.375,436.8906 Q761.1406,437.1563 760.7656,437.1563 Q760.4219,437.1563 760.2188,436.9531 Q760.0156,436.7656 759.9063,436.25 Q759.8594,435.8906 759.6719,435.7031 Q759.3438,435.3281 758.7344,435.1094 Q758.125,434.8906 757.5,434.8906 Q756.7344,434.8906 756.1016,435.2188 Q755.4688,435.5469 754.9766,436.2969 Q754.4844,437.0469 754.4844,438.0781 L754.4844,439.1719 Q754.4844,440.4063 755.375,441.2266 Q756.2656,442.0469 757.8594,442.0469 Q758.7969,442.0469 759.4531,441.7969 Q759.8438,441.6406 760.2656,441.2031 Q760.5313,440.9375 760.6797,440.8594 Q760.8281,440.7813 761.0313,440.7813 Q761.3594,440.7813 761.6172,441.0391 Q761.875,441.2969 761.875,441.6406 Q761.875,441.9844 761.5313,442.3906 Q761.0313,442.9688 760.2344,443.2969 Q759.1563,443.75 757.8594,443.75 Q756.3438,443.75 755.1406,443.125 Q754.1563,442.625 753.4688,441.5547 Q752.7813,440.4844 752.7813,439.2031 L752.7813,438.0469 Q752.7813,436.7188 753.3984,435.5703 Q754.0156,434.4219 755.1094,433.8047 Q756.2031,433.1875 757.4375,433.1875 Q758.1719,433.1875 758.8203,433.3516 Q759.4688,433.5156 760.0156,433.875 Z "/><text fill="#000000" font-family="sans-serif" font-size="12" lengthAdjust="spacingAndGlyphs" textLength="123" x="777.75" y="442.9102">OrganizationsRegister</text><line style="stroke: #A80036; stroke-width: 1.5;" x1="679.5" x2="966.5" y1="454" y2="454"/><line style="stroke: #A80036; stroke-width: 1.5;" x1="679.5" x2="966.5" y1="462" y2="462"/><ellipse cx="689.5" cy="474.418" fill="#84BE84" rx="3" ry="3" style="stroke: #038048; stroke-width: 1.0;"/><text fill="#000000" font-family="sans-serif" font-size="11" lengthAdjust="spacingAndGlyphs" textLength="263" x="698.5" y="477.4189">Organization getOrganizationByUserEmail(String email)</text><!--class Organization--><rect fill="#FEFECE" filter="url(#fq143c2ambv4z)" height="131.0156" id="Organization" style="stroke: #A80036; stroke-width: 1.5;" width="509" x="416.5" y="562"/><ellipse cx="632.25" cy="578" fill="#ADD1B2" rx="11" ry="11" style="stroke: #A80036; stroke-width: 1.0;"/><path d="M635.0156,573.875 Q635.1719,573.6563 635.3594,573.5469 Q635.5469,573.4375 635.7656,573.4375 Q636.1406,573.4375 636.375,573.6953 Q636.6094,573.9531 636.6094,574.5625 L636.6094,576.0156 Q636.6094,576.625 636.375,576.8906 Q636.1406,577.1563 635.7656,577.1563 Q635.4219,577.1563 635.2188,576.9531 Q635.0156,576.7656 634.9063,576.25 Q634.8594,575.8906 634.6719,575.7031 Q634.3438,575.3281 633.7344,575.1094 Q633.125,574.8906 632.5,574.8906 Q631.7344,574.8906 631.1016,575.2188 Q630.4688,575.5469 629.9766,576.2969 Q629.4844,577.0469 629.4844,578.0781 L629.4844,579.1719 Q629.4844,580.4063 630.375,581.2266 Q631.2656,582.0469 632.8594,582.0469 Q633.7969,582.0469 634.4531,581.7969 Q634.8438,581.6406 635.2656,581.2031 Q635.5313,580.9375 635.6797,580.8594 Q635.8281,580.7813 636.0313,580.7813 Q636.3594,580.7813 636.6172,581.0391 Q636.875,581.2969 636.875,581.6406 Q636.875,581.9844 636.5313,582.3906 Q636.0313,582.9688 635.2344,583.2969 Q634.1563,583.75 632.8594,583.75 Q631.3438,583.75 630.1406,583.125 Q629.1563,582.625 628.4688,581.5547 Q627.7813,580.4844 627.7813,579.2031 L627.7813,578.0469 Q627.7813,576.7188 628.3984,575.5703 Q629.0156,574.4219 630.1094,573.8047 Q631.2031,573.1875 632.4375,573.1875 Q633.1719,573.1875 633.8203,573.3516 Q634.4688,573.5156 635.0156,573.875 Z "/><text fill="#000000" font-family="sans-serif" font-size="12" lengthAdjust="spacingAndGlyphs" textLength="69" x="652.75" y="582.9102">Organization</text><line style="stroke: #A80036; stroke-width: 1.5;" x1="417.5" x2="924.5" y1="594" y2="594"/><rect fill="none" height="6" style="stroke: #C82930; stroke-width: 1.0;" width="6" x="424.5" y="603.418"/><text fill="#000000" font-family="sans-serif" font-size="11" lengthAdjust="spacingAndGlyphs" textLength="86" x="436.5" y="609.4189">String designation</text><line style="stroke: #A80036; stroke-width: 1.5;" x1="417.5" x2="924.5" y1="615.8359" y2="615.8359"/><ellipse cx="427.5" cy="628.2539" fill="#84BE84" rx="3" ry="3" style="stroke: #038048; stroke-width: 1.0;"/><text fill="#000000" font-family="sans-serif" font-size="11" lengthAdjust="spacingAndGlyphs" textLength="214" x="436.5" y="631.2549">ArrayList&lt;Freelancer&gt; getListOfFreeTrans()</text><ellipse cx="427.5" cy="642.0898" fill="#84BE84" rx="3" ry="3" style="stroke: #038048; stroke-width: 1.0;"/><text fill="#000000" font-family="sans-serif" font-size="11" lengthAdjust="spacingAndGlyphs" textLength="483" x="436.5" y="645.0908">List&lt;String&gt; getFreelancersPaymentsStatisticsDoneByOrg(ArrayList&lt;Freelancer&gt; m_lstFreelancers)</text><ellipse cx="427.5" cy="655.9258" fill="#84BE84" rx="3" ry="3" style="stroke: #038048; stroke-width: 1.0;"/><text fill="#000000" font-family="sans-serif" font-size="11" lengthAdjust="spacingAndGlyphs" textLength="194" x="436.5" y="658.9268">Double calculateMeanP(Freelancer free)</text><ellipse cx="427.5" cy="669.7617" fill="#84BE84" rx="3" ry="3" style="stroke: #038048; stroke-width: 1.0;"/><text fill="#000000" font-family="sans-serif" font-size="11" lengthAdjust="spacingAndGlyphs" textLength="279" x="436.5" y="672.7627">Double calculateDeviationP(Freelancer free, double mean)</text><ellipse cx="427.5" cy="683.5977" fill="#84BE84" rx="3" ry="3" style="stroke: #038048; stroke-width: 1.0;"/><text fill="#000000" font-family="sans-serif" font-size="11" lengthAdjust="spacingAndGlyphs" textLength="439" x="436.5" y="686.5986">ArrayList&lt;Freelancer&gt; getListSortedByPayments(ArrayList&lt;Freelancer&gt; m_lstFreelancers)</text><!--class PaymentTransaction--><rect fill="#FEFECE" filter="url(#fq143c2ambv4z)" height="75.6719" id="PaymentTransaction" style="stroke: #A80036; stroke-width: 1.5;" width="156" x="699" y="932"/><ellipse cx="718.95" cy="948" fill="#ADD1B2" rx="11" ry="11" style="stroke: #A80036; stroke-width: 1.0;"/><path d="M721.7156,943.875 Q721.8719,943.6563 722.0594,943.5469 Q722.2469,943.4375 722.4656,943.4375 Q722.8406,943.4375 723.075,943.6953 Q723.3094,943.9531 723.3094,944.5625 L723.3094,946.0156 Q723.3094,946.625 723.075,946.8906 Q722.8406,947.1563 722.4656,947.1563 Q722.1219,947.1563 721.9188,946.9531 Q721.7156,946.7656 721.6063,946.25 Q721.5594,945.8906 721.3719,945.7031 Q721.0438,945.3281 720.4344,945.1094 Q719.825,944.8906 719.2,944.8906 Q718.4344,944.8906 717.8016,945.2188 Q717.1688,945.5469 716.6766,946.2969 Q716.1844,947.0469 716.1844,948.0781 L716.1844,949.1719 Q716.1844,950.4063 717.075,951.2266 Q717.9656,952.0469 719.5594,952.0469 Q720.4969,952.0469 721.1531,951.7969 Q721.5438,951.6406 721.9656,951.2031 Q722.2313,950.9375 722.3797,950.8594 Q722.5281,950.7813 722.7313,950.7813 Q723.0594,950.7813 723.3172,951.0391 Q723.575,951.2969 723.575,951.6406 Q723.575,951.9844 723.2313,952.3906 Q722.7313,952.9688 721.9344,953.2969 Q720.8563,953.75 719.5594,953.75 Q718.0438,953.75 716.8406,953.125 Q715.8563,952.625 715.1688,951.5547 Q714.4813,950.4844 714.4813,949.2031 L714.4813,948.0469 Q714.4813,946.7188 715.0984,945.5703 Q715.7156,944.4219 716.8094,943.8047 Q717.9031,943.1875 719.1375,943.1875 Q719.8719,943.1875 720.5203,943.3516 Q721.1688,943.5156 721.7156,943.875 Z "/><text fill="#000000" font-family="sans-serif" font-size="12" lengthAdjust="spacingAndGlyphs" textLength="113" x="734.05" y="952.9102">PaymentTransaction</text><line style="stroke: #A80036; stroke-width: 1.5;" x1="700" x2="854" y1="964" y2="964"/><rect fill="none" height="6" style="stroke: #C82930; stroke-width: 1.0;" width="6" x="707" y="973.418"/><text fill="#000000" font-family="sans-serif" font-size="11" lengthAdjust="spacingAndGlyphs" textLength="39" x="719" y="979.4189">String id</text><line style="stroke: #A80036; stroke-width: 1.5;" x1="700" x2="854" y1="985.8359" y2="985.8359"/><ellipse cx="710" cy="998.2539" fill="#84BE84" rx="3" ry="3" style="stroke: #038048; stroke-width: 1.0;"/><text fill="#000000" font-family="sans-serif" font-size="11" lengthAdjust="spacingAndGlyphs" textLength="130" x="719" y="1001.2549">Freelancer getFreelancer()</text><!--class User--><rect fill="#FEFECE" filter="url(#fq143c2ambv4z)" height="89.5078" id="User" style="stroke: #A80036; stroke-width: 1.5;" width="107" x="369.5" y="925"/><ellipse cx="406.1" cy="941" fill="#ADD1B2" rx="11" ry="11" style="stroke: #A80036; stroke-width: 1.0;"/><path d="M408.8656,936.875 Q409.0219,936.6563 409.2094,936.5469 Q409.3969,936.4375 409.6156,936.4375 Q409.9906,936.4375 410.225,936.6953 Q410.4594,936.9531 410.4594,937.5625 L410.4594,939.0156 Q410.4594,939.625 410.225,939.8906 Q409.9906,940.1563 409.6156,940.1563 Q409.2719,940.1563 409.0688,939.9531 Q408.8656,939.7656 408.7563,939.25 Q408.7094,938.8906 408.5219,938.7031 Q408.1938,938.3281 407.5844,938.1094 Q406.975,937.8906 406.35,937.8906 Q405.5844,937.8906 404.9516,938.2188 Q404.3188,938.5469 403.8266,939.2969 Q403.3344,940.0469 403.3344,941.0781 L403.3344,942.1719 Q403.3344,943.4063 404.225,944.2266 Q405.1156,945.0469 406.7094,945.0469 Q407.6469,945.0469 408.3031,944.7969 Q408.6938,944.6406 409.1156,944.2031 Q409.3813,943.9375 409.5297,943.8594 Q409.6781,943.7813 409.8813,943.7813 Q410.2094,943.7813 410.4672,944.0391 Q410.725,944.2969 410.725,944.6406 Q410.725,944.9844 410.3813,945.3906 Q409.8813,945.9688 409.0844,946.2969 Q408.0063,946.75 406.7094,946.75 Q405.1938,946.75 403.9906,946.125 Q403.0063,945.625 402.3188,944.5547 Q401.6313,943.4844 401.6313,942.2031 L401.6313,941.0469 Q401.6313,939.7188 402.2484,938.5703 Q402.8656,937.4219 403.9594,936.8047 Q405.0531,936.1875 406.2875,936.1875 Q407.0219,936.1875 407.6703,936.3516 Q408.3188,936.5156 408.8656,936.875 Z "/><text fill="#000000" font-family="sans-serif" font-size="12" lengthAdjust="spacingAndGlyphs" textLength="27" x="424.9" y="945.9102">User</text><line style="stroke: #A80036; stroke-width: 1.5;" x1="370.5" x2="475.5" y1="957" y2="957"/><rect fill="none" height="6" style="stroke: #C82930; stroke-width: 1.0;" width="6" x="377.5" y="966.418"/><text fill="#000000" font-family="sans-serif" font-size="11" lengthAdjust="spacingAndGlyphs" textLength="57" x="389.5" y="972.4189">String name</text><rect fill="none" height="6" style="stroke: #C82930; stroke-width: 1.0;" width="6" x="377.5" y="980.2539"/><text fill="#000000" font-family="sans-serif" font-size="11" lengthAdjust="spacingAndGlyphs" textLength="55" x="389.5" y="986.2549">String email</text><rect fill="none" height="6" style="stroke: #C82930; stroke-width: 1.0;" width="6" x="377.5" y="994.0898"/><text fill="#000000" font-family="sans-serif" font-size="11" lengthAdjust="spacingAndGlyphs" textLength="81" x="389.5" y="1000.0908">String password</text><line style="stroke: #A80036; stroke-width: 1.5;" x1="370.5" x2="475.5" y1="1006.5078" y2="1006.5078"/><!--class PaymentTransactionList--><rect fill="#FEFECE" filter="url(#fq143c2ambv4z)" height="61.8359" id="PaymentTransactionList" style="stroke: #A80036; stroke-width: 1.5;" width="283" x="635.5" y="778"/><ellipse cx="706.25" cy="794" fill="#ADD1B2" rx="11" ry="11" style="stroke: #A80036; stroke-width: 1.0;"/><path d="M709.0156,789.875 Q709.1719,789.6563 709.3594,789.5469 Q709.5469,789.4375 709.7656,789.4375 Q710.1406,789.4375 710.375,789.6953 Q710.6094,789.9531 710.6094,790.5625 L710.6094,792.0156 Q710.6094,792.625 710.375,792.8906 Q710.1406,793.1563 709.7656,793.1563 Q709.4219,793.1563 709.2188,792.9531 Q709.0156,792.7656 708.9063,792.25 Q708.8594,791.8906 708.6719,791.7031 Q708.3438,791.3281 707.7344,791.1094 Q707.125,790.8906 706.5,790.8906 Q705.7344,790.8906 705.1016,791.2188 Q704.4688,791.5469 703.9766,792.2969 Q703.4844,793.0469 703.4844,794.0781 L703.4844,795.1719 Q703.4844,796.4063 704.375,797.2266 Q705.2656,798.0469 706.8594,798.0469 Q707.7969,798.0469 708.4531,797.7969 Q708.8438,797.6406 709.2656,797.2031 Q709.5313,796.9375 709.6797,796.8594 Q709.8281,796.7813 710.0313,796.7813 Q710.3594,796.7813 710.6172,797.0391 Q710.875,797.2969 710.875,797.6406 Q710.875,797.9844 710.5313,798.3906 Q710.0313,798.9688 709.2344,799.2969 Q708.1563,799.75 706.8594,799.75 Q705.3438,799.75 704.1406,799.125 Q703.1563,798.625 702.4688,797.5547 Q701.7813,796.4844 701.7813,795.2031 L701.7813,794.0469 Q701.7813,792.7188 702.3984,791.5703 Q703.0156,790.4219 704.1094,789.8047 Q705.2031,789.1875 706.4375,789.1875 Q707.1719,789.1875 707.8203,789.3516 Q708.4688,789.5156 709.0156,789.875 Z "/><text fill="#000000" font-family="sans-serif" font-size="12" lengthAdjust="spacingAndGlyphs" textLength="133" x="726.75" y="798.9102">PaymentTransactionList</text><line style="stroke: #A80036; stroke-width: 1.5;" x1="636.5" x2="917.5" y1="810" y2="810"/><line style="stroke: #A80036; stroke-width: 1.5;" x1="636.5" x2="917.5" y1="818" y2="818"/><ellipse cx="646.5" cy="830.418" fill="#84BE84" rx="3" ry="3" style="stroke: #038048; stroke-width: 1.0;"/><text fill="#000000" font-family="sans-serif" font-size="11" lengthAdjust="spacingAndGlyphs" textLength="257" x="655.5" y="833.4189">List&lt;PaymentTransaction&gt; getPaymentTransactions()</text><!--class Freelancer--><rect fill="#FEFECE" filter="url(#fq143c2ambv4z)" height="144.8516" id="Freelancer" style="stroke: #A80036; stroke-width: 1.5;" width="142" x="706" y="1093"/><ellipse cx="743.95" cy="1109" fill="#ADD1B2" rx="11" ry="11" style="stroke: #A80036; stroke-width: 1.0;"/><path d="M746.7156,1104.875 Q746.8719,1104.6563 747.0594,1104.5469 Q747.2469,1104.4375 747.4656,1104.4375 Q747.8406,1104.4375 748.075,1104.6953 Q748.3094,1104.9531 748.3094,1105.5625 L748.3094,1107.0156 Q748.3094,1107.625 748.075,1107.8906 Q747.8406,1108.1563 747.4656,1108.1563 Q747.1219,1108.1563 746.9188,1107.9531 Q746.7156,1107.7656 746.6063,1107.25 Q746.5594,1106.8906 746.3719,1106.7031 Q746.0438,1106.3281 745.4344,1106.1094 Q744.825,1105.8906 744.2,1105.8906 Q743.4344,1105.8906 742.8016,1106.2188 Q742.1688,1106.5469 741.6766,1107.2969 Q741.1844,1108.0469 741.1844,1109.0781 L741.1844,1110.1719 Q741.1844,1111.4063 742.075,1112.2266 Q742.9656,1113.0469 744.5594,1113.0469 Q745.4969,1113.0469 746.1531,1112.7969 Q746.5438,1112.6406 746.9656,1112.2031 Q747.2313,1111.9375 747.3797,1111.8594 Q747.5281,1111.7813 747.7313,1111.7813 Q748.0594,1111.7813 748.3172,1112.0391 Q748.575,1112.2969 748.575,1112.6406 Q748.575,1112.9844 748.2313,1113.3906 Q747.7313,1113.9688 746.9344,1114.2969 Q745.8563,1114.75 744.5594,1114.75 Q743.0438,1114.75 741.8406,1114.125 Q740.8563,1113.625 740.1688,1112.5547 Q739.4813,1111.4844 739.4813,1110.2031 L739.4813,1109.0469 Q739.4813,1107.7188 740.0984,1106.5703 Q740.7156,1105.4219 741.8094,1104.8047 Q742.9031,1104.1875 744.1375,1104.1875 Q744.8719,1104.1875 745.5203,1104.3516 Q746.1688,1104.5156 746.7156,1104.875 Z "/><text fill="#000000" font-family="sans-serif" font-size="12" lengthAdjust="spacingAndGlyphs" textLength="59" x="763.05" y="1113.9102">Freelancer</text><line style="stroke: #A80036; stroke-width: 1.5;" x1="707" x2="847" y1="1125" y2="1125"/><rect fill="none" height="6" style="stroke: #C82930; stroke-width: 1.0;" width="6" x="714" y="1134.418"/><text fill="#000000" font-family="sans-serif" font-size="11" lengthAdjust="spacingAndGlyphs" textLength="39" x="726" y="1140.4189">String id</text><rect fill="none" height="6" style="stroke: #C82930; stroke-width: 1.0;" width="6" x="714" y="1148.2539"/><text fill="#000000" font-family="sans-serif" font-size="11" lengthAdjust="spacingAndGlyphs" textLength="57" x="726" y="1154.2549">String name</text><rect fill="none" height="6" style="stroke: #C82930; stroke-width: 1.0;" width="6" x="714" y="1162.0898"/><text fill="#000000" font-family="sans-serif" font-size="11" lengthAdjust="spacingAndGlyphs" textLength="55" x="726" y="1168.0908">String email</text><rect fill="none" height="6" style="stroke: #C82930; stroke-width: 1.0;" width="6" x="714" y="1175.9258"/><text fill="#000000" font-family="sans-serif" font-size="11" lengthAdjust="spacingAndGlyphs" textLength="51" x="726" y="1181.9268">Integer NIF</text><rect fill="none" height="6" style="stroke: #C82930; stroke-width: 1.0;" width="6" x="714" y="1189.7617"/><text fill="#000000" font-family="sans-serif" font-size="11" lengthAdjust="spacingAndGlyphs" textLength="55" x="726" y="1195.7627">String IBAN</text><rect fill="none" height="6" style="stroke: #C82930; stroke-width: 1.0;" width="6" x="714" y="1203.5977"/><text fill="#000000" font-family="sans-serif" font-size="11" lengthAdjust="spacingAndGlyphs" textLength="116" x="726" y="1209.5986">double OverallPayments</text><line style="stroke: #A80036; stroke-width: 1.5;" x1="707" x2="847" y1="1216.0156" y2="1216.0156"/><ellipse cx="717" cy="1228.4336" fill="#84BE84" rx="3" ry="3" style="stroke: #038048; stroke-width: 1.0;"/><text fill="#000000" font-family="sans-serif" font-size="11" lengthAdjust="spacingAndGlyphs" textLength="62" x="726" y="1231.4346">String getId()</text><!--link AnalyseFreelancerPaymentsUI to AnalyseFreelancerPaymentsController--><path d="M439,56.18 C439,71.59 439,92.42 439,111.45 " fill="none" id="AnalyseFreelancerPaymentsUI-AnalyseFreelancerPaymentsController" style="stroke: #A80036; stroke-width: 1.0; stroke-dasharray: 7.0,7.0;"/><polygon fill="#A80036" points="439,116.76,443,107.76,439,111.76,435,107.76,439,116.76" style="stroke: #A80036; stroke-width: 1.0;"/><!--link AnalyseFreelancerPaymentsController to Platform--><path d="M439,207.15 C439,224.71 439,244.841 439,262.259 " fill="none" id="AnalyseFreelancerPaymentsController-Platform" style="stroke: #A80036; stroke-width: 1.0; stroke-dasharray: 7.0,7.0;"/><polygon fill="#A80036" points="439,267.572,443,258.572,439,262.572,435,258.572,439,267.572" style="stroke: #A80036; stroke-width: 1.0;"/><!--link AnalyseFreelancerPaymentsController to OrganizationsRegister--><path d="M597.342,207.02 C616.24,215.47 634.613,225.4 651,237 C720.169,285.958 776.023,370.215 803.833,417.403 " fill="none" id="AnalyseFreelancerPaymentsController-OrganizationsRegister" style="stroke: #A80036; stroke-width: 1.0; stroke-dasharray: 7.0,7.0;"/><polygon fill="#A80036" points="806.436,421.851,805.3424,412.063,803.9105,417.5357,798.4379,416.1038,806.436,421.851" style="stroke: #A80036; stroke-width: 1.0;"/><!--link AnalyseFreelancerPaymentsController to UserSession--><path d="M370.286,207.15 C337.678,228.1 299.377,252.713 269.344,272.01 " fill="none" id="AnalyseFreelancerPaymentsController-UserSession" style="stroke: #A80036; stroke-width: 1.0; stroke-dasharray: 7.0,7.0;"/><polygon fill="#A80036" points="264.974,274.818,274.7081,273.3187,269.1807,272.1154,270.384,266.588,264.974,274.818" style="stroke: #A80036; stroke-width: 1.0;"/><!--link AnalyseFreelancerPaymentsController to ApplicationPOT--><path d="M309.514,207.01 C258.771,224.96 200.289,246.522 148,268 C143.738,269.751 139.372,271.601 134.985,273.504 " fill="none" id="AnalyseFreelancerPaymentsController-ApplicationPOT" style="stroke: #A80036; stroke-width: 1.0; stroke-dasharray: 7.0,7.0;"/><polygon fill="#A80036" points="130.221,275.587,140.0697,275.647,134.8023,273.5842,136.8652,268.3168,130.221,275.587" style="stroke: #A80036; stroke-width: 1.0;"/><!--link AnalyseFreelancerPaymentsController to Organization--><path d="M524.7,207.19 C548.704,223.36 572.669,243.739 589,268 C620.361,314.589 647.344,466.447 661.155,556.89 " fill="none" id="AnalyseFreelancerPaymentsController-Organization" style="stroke: #A80036; stroke-width: 1.0; stroke-dasharray: 7.0,7.0;"/><polygon fill="#A80036" points="661.924,561.952,664.5259,552.453,661.1725,557.0088,656.6168,553.6554,661.924,561.952" style="stroke: #A80036; stroke-width: 1.0;"/><!--link Platform to Organization--><path d="M449.853,344.255 C461.921,381.789 483.897,440.256 515,484 C534.067,510.816 558.925,536.336 583.175,558.175 " fill="none" id="Platform-Organization" style="stroke: #A80036; stroke-width: 1.0;"/><polygon fill="#A80036" points="587.061,561.648,583.0148,552.6687,583.3325,558.3166,577.6846,558.6343,587.061,561.648" style="stroke: #A80036; stroke-width: 1.0;"/><text fill="#000000" font-family="sans-serif" font-size="13" lengthAdjust="spacingAndGlyphs" textLength="82" x="516" y="458.4951">has registered</text><text fill="#000000" font-family="sans-serif" font-size="13" lengthAdjust="spacingAndGlyphs" textLength="7" x="444.0249" y="365.1762">1</text><text fill="#000000" font-family="sans-serif" font-size="13" lengthAdjust="spacingAndGlyphs" textLength="5" x="572.6067" y="551.0839">*</text><!--link Platform to User--><path d="M370.08,344.224 C333.9,369.237 297,406.019 297,452 C297,452 297,452 297,810 C297,857.552 332.046,899.172 365.171,927.89 " fill="none" id="Platform-User" style="stroke: #A80036; stroke-width: 1.0;"/><polygon fill="#A80036" points="369.199,931.328,364.9485,922.4436,365.3953,928.0828,359.7561,928.5295,369.199,931.328" style="stroke: #A80036; stroke-width: 1.0;"/><text fill="#000000" font-family="sans-serif" font-size="13" lengthAdjust="spacingAndGlyphs" textLength="82" x="298" y="632.9951">has registered</text><text fill="#000000" font-family="sans-serif" font-size="13" lengthAdjust="spacingAndGlyphs" textLength="7" x="351.5381" y="365.1402">1</text><text fill="#000000" font-family="sans-serif" font-size="13" lengthAdjust="spacingAndGlyphs" textLength="5" x="356.6336" y="922.6083">*</text><!--link Collaborator to User--><path d="M520.224,847.278 C502.69,869.231 480.322,897.234 461.463,920.845 " fill="none" id="Collaborator-User" style="stroke: #A80036; stroke-width: 1.0;"/><polygon fill="#A80036" points="458.227,924.897,466.9687,920.3602,461.347,920.9899,460.7173,915.3682,458.227,924.897" style="stroke: #A80036; stroke-width: 1.0;"/><text fill="#000000" font-family="sans-serif" font-size="13" lengthAdjust="spacingAndGlyphs" textLength="43" x="496" y="891.4951">acts as</text><text fill="#000000" font-family="sans-serif" font-size="13" lengthAdjust="spacingAndGlyphs" textLength="22" x="491.7253" y="868.2028">0..1</text><text fill="#000000" font-family="sans-serif" font-size="13" lengthAdjust="spacingAndGlyphs" textLength="7" x="456.2835" y="913.9961">1</text><!--link Manager to User--><path d="M423,847.278 C423,868.868 423,896.31 423,919.671 " fill="none" id="Manager-User" style="stroke: #A80036; stroke-width: 1.0;"/><polygon fill="#A80036" points="423,924.897,427,915.897,423,919.897,419,915.897,423,924.897" style="stroke: #A80036; stroke-width: 1.0;"/><text fill="#000000" font-family="sans-serif" font-size="13" lengthAdjust="spacingAndGlyphs" textLength="43" x="424" y="891.4951">acts as</text><text fill="#000000" font-family="sans-serif" font-size="13" lengthAdjust="spacingAndGlyphs" textLength="22" x="399.2469" y="868.2028">0..1</text><text fill="#000000" font-family="sans-serif" font-size="13" lengthAdjust="spacingAndGlyphs" textLength="7" x="415.4422" y="913.9961">1</text><!--link Organization to PaymentTransactionList--><path d="M709.119,693.05 C725.144,720.188 743.145,750.67 756.581,773.423 " fill="none" id="Organization-PaymentTransactionList" style="stroke: #A80036; stroke-width: 1.0;"/><polygon fill="#A80036" points="759.206,777.867,758.0735,768.0835,756.6634,773.5617,751.1851,772.1516,759.206,777.867" style="stroke: #A80036; stroke-width: 1.0;"/><text fill="#000000" font-family="sans-serif" font-size="13" lengthAdjust="spacingAndGlyphs" textLength="21" x="738" y="737.4951">has</text><text fill="#000000" font-family="sans-serif" font-size="13" lengthAdjust="spacingAndGlyphs" textLength="7" x="705.9055" y="714.608">1</text><text fill="#000000" font-family="sans-serif" font-size="13" lengthAdjust="spacingAndGlyphs" textLength="7" x="747.8141" y="767.3441">1</text><!--link Organization to Manager--><path d="M581.817,693.05 C543.542,720.753 500.451,751.942 468.821,774.835 " fill="none" id="Organization-Manager" style="stroke: #A80036; stroke-width: 1.0;"/><polygon fill="#A80036" points="464.632,777.867,474.268,775.8303,468.6823,774.9353,469.5773,769.3497,464.632,777.867" style="stroke: #A80036; stroke-width: 1.0;"/><text fill="#000000" font-family="sans-serif" font-size="13" lengthAdjust="spacingAndGlyphs" textLength="21" x="541" y="737.4951">has</text><text fill="#000000" font-family="sans-serif" font-size="13" lengthAdjust="spacingAndGlyphs" textLength="7" x="564.6798" y="714.608">1</text><text fill="#000000" font-family="sans-serif" font-size="13" lengthAdjust="spacingAndGlyphs" textLength="7" x="472.3891" y="768.6945">1</text><!--link Organization to Collaborator--><path d="M627.487,693.05 C610.972,717.549 592.62,744.775 577.923,766.578 " fill="none" id="Organization-Collaborator" style="stroke: #A80036; stroke-width: 1.0;"/><polygon fill="#A80036" points="575.033,770.864,583.3814,765.6386,577.8285,766.7185,576.7486,761.1657,575.033,770.864" style="stroke: #A80036; stroke-width: 1.0;"/><text fill="#000000" font-family="sans-serif" font-size="13" lengthAdjust="spacingAndGlyphs" textLength="21" x="608" y="737.4951">has</text><text fill="#000000" font-family="sans-serif" font-size="13" lengthAdjust="spacingAndGlyphs" textLength="7" x="615.345" y="714.608">1</text><text fill="#000000" font-family="sans-serif" font-size="13" lengthAdjust="spacingAndGlyphs" textLength="7" x="571.8686" y="760.2017">1</text><!--link PaymentTransaction to Freelancer--><path d="M777,1008.309 C777,1030.847 777,1060.412 777,1087.749 " fill="none" id="PaymentTransaction-Freelancer" style="stroke: #A80036; stroke-width: 1.0;"/><polygon fill="#A80036" points="777,1092.826,781,1083.826,777,1087.826,773,1083.826,777,1092.826" style="stroke: #A80036; stroke-width: 1.0;"/><text fill="#000000" font-family="sans-serif" font-size="13" lengthAdjust="spacingAndGlyphs" textLength="54" x="778" y="1059.4951">related to</text><text fill="#000000" font-family="sans-serif" font-size="13" lengthAdjust="spacingAndGlyphs" textLength="5" x="771.6016" y="1029.2388">*</text><text fill="#000000" font-family="sans-serif" font-size="13" lengthAdjust="spacingAndGlyphs" textLength="7" x="769.6391" y="1082.0274">1</text><!--link Platform to OrganizationsRegister--><path d="M537.391,344.153 C599.531,367.617 678.99,397.621 738.314,420.022 " fill="none" id="Platform-OrganizationsRegister" style="stroke: #A80036; stroke-width: 1.0;"/><polygon fill="#A80036" points="743.269,421.893,736.2618,414.9721,738.5912,420.1271,733.4363,422.4565,743.269,421.893" style="stroke: #A80036; stroke-width: 1.0;"/><text fill="#000000" font-family="sans-serif" font-size="13" lengthAdjust="spacingAndGlyphs" textLength="21" x="655" y="388.4951">has</text><text fill="#000000" font-family="sans-serif" font-size="13" lengthAdjust="spacingAndGlyphs" textLength="7" x="545.5143" y="365.0579">1</text><text fill="#000000" font-family="sans-serif" font-size="13" lengthAdjust="spacingAndGlyphs" textLength="7" x="719.1026" y="411.3755">1</text><!--link OrganizationsRegister to Organization--><path d="M796.524,484.047 C778.526,504.472 753.966,532.345 731.341,558.021 " fill="none" id="OrganizationsRegister-Organization" style="stroke: #A80036; stroke-width: 1.0;"/><polygon fill="#A80036" points="728.018,561.792,736.9684,557.6822,731.3228,558.0399,730.9651,552.3944,728.018,561.792" style="stroke: #A80036; stroke-width: 1.0;"/><text fill="#000000" font-family="sans-serif" font-size="13" lengthAdjust="spacingAndGlyphs" textLength="21" x="771" y="528.4951">has</text><text fill="#000000" font-family="sans-serif" font-size="13" lengthAdjust="spacingAndGlyphs" textLength="7" x="783.6225" y="505.2803">1</text><text fill="#000000" font-family="sans-serif" font-size="13" lengthAdjust="spacingAndGlyphs" textLength="5" x="728.9809" y="551.2437">*</text><!--link PaymentTransactionList to PaymentTransaction--><path d="M777,840.281 C777,864.693 777,899.313 777,926.502 " fill="none" id="PaymentTransactionList-PaymentTransaction" style="stroke: #A80036; stroke-width: 1.0;"/><polygon fill="#A80036" points="777,931.835,781,922.835,777,926.835,773,922.835,777,931.835" style="stroke: #A80036; stroke-width: 1.0;"/><text fill="#000000" font-family="sans-serif" font-size="13" lengthAdjust="spacingAndGlyphs" textLength="21" x="778" y="891.4951">has</text><text fill="#000000" font-family="sans-serif" font-size="13" lengthAdjust="spacingAndGlyphs" textLength="7" x="769.3328" y="861.3132">1</text><text fill="#000000" font-family="sans-serif" font-size="13" lengthAdjust="spacingAndGlyphs" textLength="5" x="771.5547" y="921.1675">*</text><!--
@startuml


class ApplicationPOT {
  +getInstance()
  +getCurrentSession()
}

class UserSession {
  +getUserEmail()
}

class AnalyseFreelancerPaymentsUI{

}

class AnalyseFreelancerPaymentsController{
  +List<String> getListStats()
  +List<String> getFreeSortedByPayment()
  +ArrayList<Freelancer> sortByName(ArrayList<Freelancer> listOfFreeTrans)
}

class Platform {
  -String designation

  +OrganizationsRegister getOrganizationsRegister()
}

class Collaborator {
  -String name
  -String email
}

class Manager {
  -String name
  -String email
}

class OrganizationsRegister{
  +Organization getOrganizationByUserEmail(String email)
}

class Organization {
    -String designation

    +ArrayList<Freelancer> getListOfFreeTrans()
    +List<String> getFreelancersPaymentsStatisticsDoneByOrg(ArrayList<Freelancer> m_lstFreelancers)
    +Double calculateMeanP(Freelancer free)
    +Double calculateDeviationP(Freelancer free, double mean)
    +ArrayList<Freelancer> getListSortedByPayments(ArrayList<Freelancer> m_lstFreelancers)
}

class PaymentTransaction {
  -String id

  +Freelancer getFreelancer()
}

class User {
  -String name
  -String email
  -String password
}

class PaymentTransactionList {
  +List<PaymentTransaction> getPaymentTransactions()
}

class Freelancer {
  -String id
  -String name
  -String email
  -Integer NIF
  -String IBAN
  -double OverallPayments

  +String getId()
}



AnalyseFreelancerPaymentsUI ..> AnalyseFreelancerPaymentsController
AnalyseFreelancerPaymentsController ..> Platform
AnalyseFreelancerPaymentsController ..> OrganizationsRegister
AnalyseFreelancerPaymentsController ..> UserSession
AnalyseFreelancerPaymentsController ..> ApplicationPOT
AnalyseFreelancerPaymentsController ..> Organization


Platform "1" - -> "*" Organization: has registered
Platform "1" - -> "*" User: has registered

Collaborator "0..1" - -> "1" User: acts as
Manager "0..1" - -> "1" User: acts as

Organization "1" - -> "1" PaymentTransactionList: has
Organization "1" - -> "1" Manager : has
Organization "1" - -> "1" Collaborator : has

PaymentTransaction "*" - -> "1" Freelancer: related to

Platform "1" - -> "1" OrganizationsRegister :has
OrganizationsRegister "1" - -> "*" Organization : has

PaymentTransactionList "1" - -> "*" PaymentTransaction: has






@enduml

PlantUML version 1.2018.14(Fri Dec 21 16:33:16 GMT 2018)
(GPL source distribution)
Java Runtime: Java(TM) SE Runtime Environment
JVM: Java HotSpot(TM) 64-Bit Server VM
Java Version: 1.8.0_221-b11
Operating System: Windows 10
OS Version: 10.0
Default Encoding: Cp1252
Language: pt
Country: PT
--></g></svg>