<?xml version="1.0" encoding="UTF-8" standalone="no"?><svg xmlns="http://www.w3.org/2000/svg" xmlns:xlink="http://www.w3.org/1999/xlink" contentScriptType="application/ecmascript" contentStyleType="text/css" height="372px" preserveAspectRatio="none" style="width:1528px;height:372px;" version="1.1" viewBox="0 0 1528 372" width="1528px" zoomAndPan="magnify"><defs><filter height="300%" id="fwwnr2xnpgcwo" width="300%" x="-1" y="-1"><feGaussianBlur result="blurOut" stdDeviation="2.0"/><feColorMatrix in="blurOut" result="blurOut2" type="matrix" values="0 0 0 0 0 0 0 0 0 0 0 0 0 0 0 0 0 0 .4 0"/><feOffset dx="4.0" dy="4.0" in="blurOut2" result="blurOut3"/><feBlend in="SourceGraphic" in2="blurOut3" mode="normal"/></filter></defs><g><!--class Platform--><rect fill="#FEFECE" filter="url(#fwwnr2xnpgcwo)" height="53.8359" id="Platform" style="stroke: #A80036; stroke-width: 1.5;" width="112" x="6" y="107.5"/><ellipse cx="36.3" cy="123.5" fill="#ADD1B2" rx="11" ry="11" style="stroke: #A80036; stroke-width: 1.0;"/><path d="M39.0656,119.375 Q39.2219,119.1563 39.4094,119.0469 Q39.5969,118.9375 39.8156,118.9375 Q40.1906,118.9375 40.425,119.1953 Q40.6594,119.4531 40.6594,120.0625 L40.6594,121.5156 Q40.6594,122.125 40.425,122.3906 Q40.1906,122.6563 39.8156,122.6563 Q39.4719,122.6563 39.2688,122.4531 Q39.0656,122.2656 38.9563,121.75 Q38.9094,121.3906 38.7219,121.2031 Q38.3938,120.8281 37.7844,120.6094 Q37.175,120.3906 36.55,120.3906 Q35.7844,120.3906 35.1516,120.7188 Q34.5188,121.0469 34.0266,121.7969 Q33.5344,122.5469 33.5344,123.5781 L33.5344,124.6719 Q33.5344,125.9063 34.425,126.7266 Q35.3156,127.5469 36.9094,127.5469 Q37.8469,127.5469 38.5031,127.2969 Q38.8938,127.1406 39.3156,126.7031 Q39.5813,126.4375 39.7297,126.3594 Q39.8781,126.2813 40.0813,126.2813 Q40.4094,126.2813 40.6672,126.5391 Q40.925,126.7969 40.925,127.1406 Q40.925,127.4844 40.5813,127.8906 Q40.0813,128.4688 39.2844,128.7969 Q38.2063,129.25 36.9094,129.25 Q35.3938,129.25 34.1906,128.625 Q33.2063,128.125 32.5188,127.0547 Q31.8313,125.9844 31.8313,124.7031 L31.8313,123.5469 Q31.8313,122.2188 32.4484,121.0703 Q33.0656,119.9219 34.1594,119.3047 Q35.2531,118.6875 36.4875,118.6875 Q37.2219,118.6875 37.8703,118.8516 Q38.5188,119.0156 39.0656,119.375 Z "/><text fill="#000000" font-family="sans-serif" font-size="12" lengthAdjust="spacingAndGlyphs" textLength="46" x="53.7" y="128.4102">Platform</text><line style="stroke: #A80036; stroke-width: 1.5;" x1="7" x2="117" y1="139.5" y2="139.5"/><rect fill="none" height="6" style="stroke: #C82930; stroke-width: 1.0;" width="6" x="14" y="148.918"/><text fill="#000000" font-family="sans-serif" font-size="11" lengthAdjust="spacingAndGlyphs" textLength="86" x="26" y="154.9189">String designation</text><!--class Administrator--><rect fill="#FEFECE" filter="url(#fwwnr2xnpgcwo)" height="40" id="Administrator" style="stroke: #A80036; stroke-width: 1.5;" width="105" x="278.5" y="181.5"/><ellipse cx="293.5" cy="197.5" fill="#ADD1B2" rx="11" ry="11" style="stroke: #A80036; stroke-width: 1.0;"/><path d="M296.2656,193.375 Q296.4219,193.1563 296.6094,193.0469 Q296.7969,192.9375 297.0156,192.9375 Q297.3906,192.9375 297.625,193.1953 Q297.8594,193.4531 297.8594,194.0625 L297.8594,195.5156 Q297.8594,196.125 297.625,196.3906 Q297.3906,196.6563 297.0156,196.6563 Q296.6719,196.6563 296.4688,196.4531 Q296.2656,196.2656 296.1563,195.75 Q296.1094,195.3906 295.9219,195.2031 Q295.5938,194.8281 294.9844,194.6094 Q294.375,194.3906 293.75,194.3906 Q292.9844,194.3906 292.3516,194.7188 Q291.7188,195.0469 291.2266,195.7969 Q290.7344,196.5469 290.7344,197.5781 L290.7344,198.6719 Q290.7344,199.9063 291.625,200.7266 Q292.5156,201.5469 294.1094,201.5469 Q295.0469,201.5469 295.7031,201.2969 Q296.0938,201.1406 296.5156,200.7031 Q296.7813,200.4375 296.9297,200.3594 Q297.0781,200.2813 297.2813,200.2813 Q297.6094,200.2813 297.8672,200.5391 Q298.125,200.7969 298.125,201.1406 Q298.125,201.4844 297.7813,201.8906 Q297.2813,202.4688 296.4844,202.7969 Q295.4063,203.25 294.1094,203.25 Q292.5938,203.25 291.3906,202.625 Q290.4063,202.125 289.7188,201.0547 Q289.0313,199.9844 289.0313,198.7031 L289.0313,197.5469 Q289.0313,196.2188 289.6484,195.0703 Q290.2656,193.9219 291.3594,193.3047 Q292.4531,192.6875 293.6875,192.6875 Q294.4219,192.6875 295.0703,192.8516 Q295.7188,193.0156 296.2656,193.375 Z "/><text fill="#000000" font-family="sans-serif" font-size="12" lengthAdjust="spacingAndGlyphs" textLength="73" x="307.5" y="202.4102">Administrator</text><line style="stroke: #A80036; stroke-width: 1.5;" x1="279.5" x2="382.5" y1="213.5" y2="213.5"/><!--class User--><rect fill="#FEFECE" filter="url(#fwwnr2xnpgcwo)" height="81.5078" id="User" style="stroke: #A80036; stroke-width: 1.5;" width="107" x="590.5" y="73.5"/><ellipse cx="627.1" cy="89.5" fill="#ADD1B2" rx="11" ry="11" style="stroke: #A80036; stroke-width: 1.0;"/><path d="M629.8656,85.375 Q630.0219,85.1563 630.2094,85.0469 Q630.3969,84.9375 630.6156,84.9375 Q630.9906,84.9375 631.225,85.1953 Q631.4594,85.4531 631.4594,86.0625 L631.4594,87.5156 Q631.4594,88.125 631.225,88.3906 Q630.9906,88.6563 630.6156,88.6563 Q630.2719,88.6563 630.0688,88.4531 Q629.8656,88.2656 629.7563,87.75 Q629.7094,87.3906 629.5219,87.2031 Q629.1938,86.8281 628.5844,86.6094 Q627.975,86.3906 627.35,86.3906 Q626.5844,86.3906 625.9516,86.7188 Q625.3188,87.0469 624.8266,87.7969 Q624.3344,88.5469 624.3344,89.5781 L624.3344,90.6719 Q624.3344,91.9063 625.225,92.7266 Q626.1156,93.5469 627.7094,93.5469 Q628.6469,93.5469 629.3031,93.2969 Q629.6938,93.1406 630.1156,92.7031 Q630.3813,92.4375 630.5297,92.3594 Q630.6781,92.2813 630.8813,92.2813 Q631.2094,92.2813 631.4672,92.5391 Q631.725,92.7969 631.725,93.1406 Q631.725,93.4844 631.3813,93.8906 Q630.8813,94.4688 630.0844,94.7969 Q629.0063,95.25 627.7094,95.25 Q626.1938,95.25 624.9906,94.625 Q624.0063,94.125 623.3188,93.0547 Q622.6313,91.9844 622.6313,90.7031 L622.6313,89.5469 Q622.6313,88.2188 623.2484,87.0703 Q623.8656,85.9219 624.9594,85.3047 Q626.0531,84.6875 627.2875,84.6875 Q628.0219,84.6875 628.6703,84.8516 Q629.3188,85.0156 629.8656,85.375 Z "/><text fill="#000000" font-family="sans-serif" font-size="12" lengthAdjust="spacingAndGlyphs" textLength="27" x="645.9" y="94.4102">User</text><line style="stroke: #A80036; stroke-width: 1.5;" x1="591.5" x2="696.5" y1="105.5" y2="105.5"/><rect fill="none" height="6" style="stroke: #C82930; stroke-width: 1.0;" width="6" x="598.5" y="114.918"/><text fill="#000000" font-family="sans-serif" font-size="11" lengthAdjust="spacingAndGlyphs" textLength="57" x="610.5" y="120.9189">String name</text><rect fill="none" height="6" style="stroke: #C82930; stroke-width: 1.0;" width="6" x="598.5" y="128.7539"/><text fill="#000000" font-family="sans-serif" font-size="11" lengthAdjust="spacingAndGlyphs" textLength="55" x="610.5" y="134.7549">String email</text><rect fill="none" height="6" style="stroke: #C82930; stroke-width: 1.0;" width="6" x="598.5" y="142.5898"/><text fill="#000000" font-family="sans-serif" font-size="11" lengthAdjust="spacingAndGlyphs" textLength="81" x="610.5" y="148.5908">String password</text><!--class Freelancer--><rect fill="#FEFECE" filter="url(#fwwnr2xnpgcwo)" height="123.0156" id="Freelancer" style="stroke: #A80036; stroke-width: 1.5;" width="142" x="904" y="116"/><ellipse cx="941.95" cy="132" fill="#ADD1B2" rx="11" ry="11" style="stroke: #A80036; stroke-width: 1.0;"/><path d="M944.7156,127.875 Q944.8719,127.6563 945.0594,127.5469 Q945.2469,127.4375 945.4656,127.4375 Q945.8406,127.4375 946.075,127.6953 Q946.3094,127.9531 946.3094,128.5625 L946.3094,130.0156 Q946.3094,130.625 946.075,130.8906 Q945.8406,131.1563 945.4656,131.1563 Q945.1219,131.1563 944.9188,130.9531 Q944.7156,130.7656 944.6063,130.25 Q944.5594,129.8906 944.3719,129.7031 Q944.0438,129.3281 943.4344,129.1094 Q942.825,128.8906 942.2,128.8906 Q941.4344,128.8906 940.8016,129.2188 Q940.1688,129.5469 939.6766,130.2969 Q939.1844,131.0469 939.1844,132.0781 L939.1844,133.1719 Q939.1844,134.4063 940.075,135.2266 Q940.9656,136.0469 942.5594,136.0469 Q943.4969,136.0469 944.1531,135.7969 Q944.5438,135.6406 944.9656,135.2031 Q945.2313,134.9375 945.3797,134.8594 Q945.5281,134.7813 945.7313,134.7813 Q946.0594,134.7813 946.3172,135.0391 Q946.575,135.2969 946.575,135.6406 Q946.575,135.9844 946.2313,136.3906 Q945.7313,136.9688 944.9344,137.2969 Q943.8563,137.75 942.5594,137.75 Q941.0438,137.75 939.8406,137.125 Q938.8563,136.625 938.1688,135.5547 Q937.4813,134.4844 937.4813,133.2031 L937.4813,132.0469 Q937.4813,130.7188 938.0984,129.5703 Q938.7156,128.4219 939.8094,127.8047 Q940.9031,127.1875 942.1375,127.1875 Q942.8719,127.1875 943.5203,127.3516 Q944.1688,127.5156 944.7156,127.875 Z "/><text fill="#000000" font-family="sans-serif" font-size="12" lengthAdjust="spacingAndGlyphs" textLength="59" x="961.05" y="136.9102">Freelancer</text><line style="stroke: #A80036; stroke-width: 1.5;" x1="905" x2="1045" y1="148" y2="148"/><rect fill="none" height="6" style="stroke: #C82930; stroke-width: 1.0;" width="6" x="912" y="157.418"/><text fill="#000000" font-family="sans-serif" font-size="11" lengthAdjust="spacingAndGlyphs" textLength="39" x="924" y="163.4189">String id</text><rect fill="none" height="6" style="stroke: #C82930; stroke-width: 1.0;" width="6" x="912" y="171.2539"/><text fill="#000000" font-family="sans-serif" font-size="11" lengthAdjust="spacingAndGlyphs" textLength="57" x="924" y="177.2549">String name</text><rect fill="none" height="6" style="stroke: #C82930; stroke-width: 1.0;" width="6" x="912" y="185.0898"/><text fill="#000000" font-family="sans-serif" font-size="11" lengthAdjust="spacingAndGlyphs" textLength="55" x="924" y="191.0908">String email</text><rect fill="none" height="6" style="stroke: #C82930; stroke-width: 1.0;" width="6" x="912" y="198.9258"/><text fill="#000000" font-family="sans-serif" font-size="11" lengthAdjust="spacingAndGlyphs" textLength="51" x="924" y="204.9268">Integer NIF</text><rect fill="none" height="6" style="stroke: #C82930; stroke-width: 1.0;" width="6" x="912" y="212.7617"/><text fill="#000000" font-family="sans-serif" font-size="11" lengthAdjust="spacingAndGlyphs" textLength="55" x="924" y="218.7627">String IBAN</text><rect fill="none" height="6" style="stroke: #C82930; stroke-width: 1.0;" width="6" x="912" y="226.5977"/><text fill="#000000" font-family="sans-serif" font-size="11" lengthAdjust="spacingAndGlyphs" textLength="116" x="924" y="232.5986">double OverallPayments</text><!--class Organization--><rect fill="#FEFECE" filter="url(#fwwnr2xnpgcwo)" height="53.8359" id="Organization" style="stroke: #A80036; stroke-width: 1.5;" width="112" x="275" y="265.5"/><ellipse cx="294.95" cy="281.5" fill="#ADD1B2" rx="11" ry="11" style="stroke: #A80036; stroke-width: 1.0;"/><path d="M297.7156,277.375 Q297.8719,277.1563 298.0594,277.0469 Q298.2469,276.9375 298.4656,276.9375 Q298.8406,276.9375 299.075,277.1953 Q299.3094,277.4531 299.3094,278.0625 L299.3094,279.5156 Q299.3094,280.125 299.075,280.3906 Q298.8406,280.6563 298.4656,280.6563 Q298.1219,280.6563 297.9188,280.4531 Q297.7156,280.2656 297.6063,279.75 Q297.5594,279.3906 297.3719,279.2031 Q297.0438,278.8281 296.4344,278.6094 Q295.825,278.3906 295.2,278.3906 Q294.4344,278.3906 293.8016,278.7188 Q293.1688,279.0469 292.6766,279.7969 Q292.1844,280.5469 292.1844,281.5781 L292.1844,282.6719 Q292.1844,283.9063 293.075,284.7266 Q293.9656,285.5469 295.5594,285.5469 Q296.4969,285.5469 297.1531,285.2969 Q297.5438,285.1406 297.9656,284.7031 Q298.2313,284.4375 298.3797,284.3594 Q298.5281,284.2813 298.7313,284.2813 Q299.0594,284.2813 299.3172,284.5391 Q299.575,284.7969 299.575,285.1406 Q299.575,285.4844 299.2313,285.8906 Q298.7313,286.4688 297.9344,286.7969 Q296.8563,287.25 295.5594,287.25 Q294.0438,287.25 292.8406,286.625 Q291.8563,286.125 291.1688,285.0547 Q290.4813,283.9844 290.4813,282.7031 L290.4813,281.5469 Q290.4813,280.2188 291.0984,279.0703 Q291.7156,277.9219 292.8094,277.3047 Q293.9031,276.6875 295.1375,276.6875 Q295.8719,276.6875 296.5203,276.8516 Q297.1688,277.0156 297.7156,277.375 Z "/><text fill="#000000" font-family="sans-serif" font-size="12" lengthAdjust="spacingAndGlyphs" textLength="69" x="310.05" y="286.4102">Organization</text><line style="stroke: #A80036; stroke-width: 1.5;" x1="276" x2="386" y1="297.5" y2="297.5"/><rect fill="none" height="6" style="stroke: #C82930; stroke-width: 1.0;" width="6" x="283" y="306.918"/><text fill="#000000" font-family="sans-serif" font-size="11" lengthAdjust="spacingAndGlyphs" textLength="86" x="295" y="312.9189">String designation</text><!--class ExternalEmailSenderAlgorithm--><rect fill="#FEFECE" filter="url(#fwwnr2xnpgcwo)" height="40" id="ExternalEmailSenderAlgorithm" style="stroke: #A80036; stroke-width: 1.5;" width="200" x="544" y="190.5"/><ellipse cx="559" cy="206.5" fill="#ADD1B2" rx="11" ry="11" style="stroke: #A80036; stroke-width: 1.0;"/><path d="M561.7656,202.375 Q561.9219,202.1563 562.1094,202.0469 Q562.2969,201.9375 562.5156,201.9375 Q562.8906,201.9375 563.125,202.1953 Q563.3594,202.4531 563.3594,203.0625 L563.3594,204.5156 Q563.3594,205.125 563.125,205.3906 Q562.8906,205.6563 562.5156,205.6563 Q562.1719,205.6563 561.9688,205.4531 Q561.7656,205.2656 561.6563,204.75 Q561.6094,204.3906 561.4219,204.2031 Q561.0938,203.8281 560.4844,203.6094 Q559.875,203.3906 559.25,203.3906 Q558.4844,203.3906 557.8516,203.7188 Q557.2188,204.0469 556.7266,204.7969 Q556.2344,205.5469 556.2344,206.5781 L556.2344,207.6719 Q556.2344,208.9063 557.125,209.7266 Q558.0156,210.5469 559.6094,210.5469 Q560.5469,210.5469 561.2031,210.2969 Q561.5938,210.1406 562.0156,209.7031 Q562.2813,209.4375 562.4297,209.3594 Q562.5781,209.2813 562.7813,209.2813 Q563.1094,209.2813 563.3672,209.5391 Q563.625,209.7969 563.625,210.1406 Q563.625,210.4844 563.2813,210.8906 Q562.7813,211.4688 561.9844,211.7969 Q560.9063,212.25 559.6094,212.25 Q558.0938,212.25 556.8906,211.625 Q555.9063,211.125 555.2188,210.0547 Q554.5313,208.9844 554.5313,207.7031 L554.5313,206.5469 Q554.5313,205.2188 555.1484,204.0703 Q555.7656,202.9219 556.8594,202.3047 Q557.9531,201.6875 559.1875,201.6875 Q559.9219,201.6875 560.5703,201.8516 Q561.2188,202.0156 561.7656,202.375 Z "/><text fill="#000000" font-family="sans-serif" font-size="12" lengthAdjust="spacingAndGlyphs" textLength="168" x="573" y="211.4102">ExternalEmailSenderAlgorithm</text><line style="stroke: #A80036; stroke-width: 1.5;" x1="545" x2="743" y1="222.5" y2="222.5"/><!--class Task--><rect fill="#FEFECE" filter="url(#fwwnr2xnpgcwo)" height="109.1797" id="Task" style="stroke: #A80036; stroke-width: 1.5;" width="133" x="1149" y="238"/><ellipse cx="1197.75" cy="254" fill="#ADD1B2" rx="11" ry="11" style="stroke: #A80036; stroke-width: 1.0;"/><path d="M1200.5156,249.875 Q1200.6719,249.6563 1200.8594,249.5469 Q1201.0469,249.4375 1201.2656,249.4375 Q1201.6406,249.4375 1201.875,249.6953 Q1202.1094,249.9531 1202.1094,250.5625 L1202.1094,252.0156 Q1202.1094,252.625 1201.875,252.8906 Q1201.6406,253.1563 1201.2656,253.1563 Q1200.9219,253.1563 1200.7188,252.9531 Q1200.5156,252.7656 1200.4063,252.25 Q1200.3594,251.8906 1200.1719,251.7031 Q1199.8438,251.3281 1199.2344,251.1094 Q1198.625,250.8906 1198,250.8906 Q1197.2344,250.8906 1196.6016,251.2188 Q1195.9688,251.5469 1195.4766,252.2969 Q1194.9844,253.0469 1194.9844,254.0781 L1194.9844,255.1719 Q1194.9844,256.4063 1195.875,257.2266 Q1196.7656,258.0469 1198.3594,258.0469 Q1199.2969,258.0469 1199.9531,257.7969 Q1200.3438,257.6406 1200.7656,257.2031 Q1201.0313,256.9375 1201.1797,256.8594 Q1201.3281,256.7813 1201.5313,256.7813 Q1201.8594,256.7813 1202.1172,257.0391 Q1202.375,257.2969 1202.375,257.6406 Q1202.375,257.9844 1202.0313,258.3906 Q1201.5313,258.9688 1200.7344,259.2969 Q1199.6563,259.75 1198.3594,259.75 Q1196.8438,259.75 1195.6406,259.125 Q1194.6563,258.625 1193.9688,257.5547 Q1193.2813,256.4844 1193.2813,255.2031 L1193.2813,254.0469 Q1193.2813,252.7188 1193.8984,251.5703 Q1194.5156,250.4219 1195.6094,249.8047 Q1196.7031,249.1875 1197.9375,249.1875 Q1198.6719,249.1875 1199.3203,249.3516 Q1199.9688,249.5156 1200.5156,249.875 Z "/><text fill="#000000" font-family="sans-serif" font-size="12" lengthAdjust="spacingAndGlyphs" textLength="27" x="1218.25" y="258.9102">Task</text><line style="stroke: #A80036; stroke-width: 1.5;" x1="1150" x2="1281" y1="270" y2="270"/><rect fill="none" height="6" style="stroke: #C82930; stroke-width: 1.0;" width="6" x="1157" y="279.418"/><text fill="#000000" font-family="sans-serif" font-size="11" lengthAdjust="spacingAndGlyphs" textLength="39" x="1169" y="285.4189">String id</text><rect fill="none" height="6" style="stroke: #C82930; stroke-width: 1.0;" width="6" x="1157" y="293.2539"/><text fill="#000000" font-family="sans-serif" font-size="11" lengthAdjust="spacingAndGlyphs" textLength="107" x="1169" y="299.2549">String briefDescription</text><rect fill="none" height="6" style="stroke: #C82930; stroke-width: 1.0;" width="6" x="1157" y="307.0898"/><text fill="#000000" font-family="sans-serif" font-size="11" lengthAdjust="spacingAndGlyphs" textLength="95" x="1169" y="313.0908">Double timeDuration</text><rect fill="none" height="6" style="stroke: #C82930; stroke-width: 1.0;" width="6" x="1157" y="320.9258"/><text fill="#000000" font-family="sans-serif" font-size="11" lengthAdjust="spacingAndGlyphs" textLength="96" x="1169" y="326.9268">Double costPerHour</text><rect fill="none" height="6" style="stroke: #C82930; stroke-width: 1.0;" width="6" x="1157" y="334.7617"/><text fill="#000000" font-family="sans-serif" font-size="11" lengthAdjust="spacingAndGlyphs" textLength="74" x="1169" y="340.7627">String category</text><!--class PaymentTransaction--><rect fill="#FEFECE" filter="url(#fwwnr2xnpgcwo)" height="53.8359" id="PaymentTransaction" style="stroke: #A80036; stroke-width: 1.5;" width="145" x="571.5" y="265.5"/><ellipse cx="586.5" cy="281.5" fill="#ADD1B2" rx="11" ry="11" style="stroke: #A80036; stroke-width: 1.0;"/><path d="M589.2656,277.375 Q589.4219,277.1563 589.6094,277.0469 Q589.7969,276.9375 590.0156,276.9375 Q590.3906,276.9375 590.625,277.1953 Q590.8594,277.4531 590.8594,278.0625 L590.8594,279.5156 Q590.8594,280.125 590.625,280.3906 Q590.3906,280.6563 590.0156,280.6563 Q589.6719,280.6563 589.4688,280.4531 Q589.2656,280.2656 589.1563,279.75 Q589.1094,279.3906 588.9219,279.2031 Q588.5938,278.8281 587.9844,278.6094 Q587.375,278.3906 586.75,278.3906 Q585.9844,278.3906 585.3516,278.7188 Q584.7188,279.0469 584.2266,279.7969 Q583.7344,280.5469 583.7344,281.5781 L583.7344,282.6719 Q583.7344,283.9063 584.625,284.7266 Q585.5156,285.5469 587.1094,285.5469 Q588.0469,285.5469 588.7031,285.2969 Q589.0938,285.1406 589.5156,284.7031 Q589.7813,284.4375 589.9297,284.3594 Q590.0781,284.2813 590.2813,284.2813 Q590.6094,284.2813 590.8672,284.5391 Q591.125,284.7969 591.125,285.1406 Q591.125,285.4844 590.7813,285.8906 Q590.2813,286.4688 589.4844,286.7969 Q588.4063,287.25 587.1094,287.25 Q585.5938,287.25 584.3906,286.625 Q583.4063,286.125 582.7188,285.0547 Q582.0313,283.9844 582.0313,282.7031 L582.0313,281.5469 Q582.0313,280.2188 582.6484,279.0703 Q583.2656,277.9219 584.3594,277.3047 Q585.4531,276.6875 586.6875,276.6875 Q587.4219,276.6875 588.0703,276.8516 Q588.7188,277.0156 589.2656,277.375 Z "/><text fill="#000000" font-family="sans-serif" font-size="12" lengthAdjust="spacingAndGlyphs" textLength="113" x="600.5" y="286.4102">PaymentTransaction</text><line style="stroke: #A80036; stroke-width: 1.5;" x1="572.5" x2="715.5" y1="297.5" y2="297.5"/><rect fill="none" height="6" style="stroke: #C82930; stroke-width: 1.0;" width="6" x="579.5" y="306.918"/><text fill="#000000" font-family="sans-serif" font-size="11" lengthAdjust="spacingAndGlyphs" textLength="39" x="591.5" y="312.9189">String id</text><!--class TaskExecution--><rect fill="#FEFECE" filter="url(#fwwnr2xnpgcwo)" height="81.5078" id="TaskExecution" style="stroke: #A80036; stroke-width: 1.5;" width="139" x="1378" y="251.5"/><ellipse cx="1405.15" cy="267.5" fill="#ADD1B2" rx="11" ry="11" style="stroke: #A80036; stroke-width: 1.0;"/><path d="M1407.9156,263.375 Q1408.0719,263.1563 1408.2594,263.0469 Q1408.4469,262.9375 1408.6656,262.9375 Q1409.0406,262.9375 1409.275,263.1953 Q1409.5094,263.4531 1409.5094,264.0625 L1409.5094,265.5156 Q1409.5094,266.125 1409.275,266.3906 Q1409.0406,266.6563 1408.6656,266.6563 Q1408.3219,266.6563 1408.1188,266.4531 Q1407.9156,266.2656 1407.8063,265.75 Q1407.7594,265.3906 1407.5719,265.2031 Q1407.2438,264.8281 1406.6344,264.6094 Q1406.025,264.3906 1405.4,264.3906 Q1404.6344,264.3906 1404.0016,264.7188 Q1403.3688,265.0469 1402.8766,265.7969 Q1402.3844,266.5469 1402.3844,267.5781 L1402.3844,268.6719 Q1402.3844,269.9063 1403.275,270.7266 Q1404.1656,271.5469 1405.7594,271.5469 Q1406.6969,271.5469 1407.3531,271.2969 Q1407.7438,271.1406 1408.1656,270.7031 Q1408.4313,270.4375 1408.5797,270.3594 Q1408.7281,270.2813 1408.9313,270.2813 Q1409.2594,270.2813 1409.5172,270.5391 Q1409.775,270.7969 1409.775,271.1406 Q1409.775,271.4844 1409.4313,271.8906 Q1408.9313,272.4688 1408.1344,272.7969 Q1407.0563,273.25 1405.7594,273.25 Q1404.2438,273.25 1403.0406,272.625 Q1402.0563,272.125 1401.3688,271.0547 Q1400.6813,269.9844 1400.6813,268.7031 L1400.6813,267.5469 Q1400.6813,266.2188 1401.2984,265.0703 Q1401.9156,263.9219 1403.0094,263.3047 Q1404.1031,262.6875 1405.3375,262.6875 Q1406.0719,262.6875 1406.7203,262.8516 Q1407.3688,263.0156 1407.9156,263.375 Z "/><text fill="#000000" font-family="sans-serif" font-size="12" lengthAdjust="spacingAndGlyphs" textLength="80" x="1421.85" y="272.4102">TaskExecution</text><line style="stroke: #A80036; stroke-width: 1.5;" x1="1379" x2="1516" y1="283.5" y2="283.5"/><rect fill="none" height="6" style="stroke: #C82930; stroke-width: 1.0;" width="6" x="1386" y="292.918"/><text fill="#000000" font-family="sans-serif" font-size="11" lengthAdjust="spacingAndGlyphs" textLength="65" x="1398" y="298.9189">Date deadline</text><rect fill="none" height="6" style="stroke: #C82930; stroke-width: 1.0;" width="6" x="1386" y="306.7539"/><text fill="#000000" font-family="sans-serif" font-size="11" lengthAdjust="spacingAndGlyphs" textLength="62" x="1398" y="312.7549">Double delay</text><rect fill="none" height="6" style="stroke: #C82930; stroke-width: 1.0;" width="6" x="1386" y="320.5898"/><text fill="#000000" font-family="sans-serif" font-size="11" lengthAdjust="spacingAndGlyphs" textLength="113" x="1398" y="326.5908">String descQualityWork</text><!--link Platform to Organization--><path d="M91.8755,161.73 C107.701,175.83 128.1,192.72 148,205.5 C188.371,231.428 237.656,254.5209 274.752,270.3878 " fill="none" id="Platform-Organization" style="stroke: #A80036; stroke-width: 1.0;"/><text fill="#000000" font-family="sans-serif" font-size="13" lengthAdjust="spacingAndGlyphs" textLength="82" x="149" y="201.9951">has registered</text><polygon fill="#000000" points="234,195.1758,240,198.1758,234,201.1758,234,195.1758" style="stroke: #000000; stroke-width: 1.0;"/><text fill="#000000" font-family="sans-serif" font-size="13" lengthAdjust="spacingAndGlyphs" textLength="7" x="90.6451" y="182.9881">1</text><text fill="#000000" font-family="sans-serif" font-size="13" lengthAdjust="spacingAndGlyphs" textLength="5" x="261.8577" y="282.0212">*</text><!--link Platform to Freelancer--><path d="M118.216,112.276 C128.019,108.933 138.221,105.83 148,103.5 C406.474,41.909 486.041,-7.215 744,56.5 C801.272,70.646 860.039,101.906 903.834,129.108 " fill="none" id="Platform-Freelancer" style="stroke: #A80036; stroke-width: 1.0;"/><text fill="#000000" font-family="sans-serif" font-size="13" lengthAdjust="spacingAndGlyphs" textLength="82" x="418" y="22.9951">has registered</text><polygon fill="#000000" points="503,16.1758,509,19.1758,503,22.1758,503,16.1758" style="stroke: #000000; stroke-width: 1.0;"/><text fill="#000000" font-family="sans-serif" font-size="13" lengthAdjust="spacingAndGlyphs" textLength="7" x="125.8671" y="105.9317">1</text><text fill="#000000" font-family="sans-serif" font-size="13" lengthAdjust="spacingAndGlyphs" textLength="5" x="890.7768" y="138.2036">*</text><!--link Platform to User--><path d="M118.088,132.6 C229.64,128.754 480.92,120.089 590.378,116.315 " fill="none" id="Platform-User" style="stroke: #A80036; stroke-width: 1.0;"/><text fill="#000000" font-family="sans-serif" font-size="13" lengthAdjust="spacingAndGlyphs" textLength="82" x="283.5" y="119.9951">has registered</text><polygon fill="#000000" points="368.5,113.1758,374.5,116.1758,368.5,119.1758,368.5,113.1758" style="stroke: #000000; stroke-width: 1.0;"/><text fill="#000000" font-family="sans-serif" font-size="13" lengthAdjust="spacingAndGlyphs" textLength="7" x="126.0951" y="128.7994">1</text><text fill="#000000" font-family="sans-serif" font-size="13" lengthAdjust="spacingAndGlyphs" textLength="5" x="577.4858" y="131.2497">*</text><!--link Platform to Administrator--><path d="M118.323,148.382 C165.368,160.188 232.413,177.012 278.371,188.545 " fill="none" id="Platform-Administrator" style="stroke: #A80036; stroke-width: 1.0;"/><text fill="#000000" font-family="sans-serif" font-size="13" lengthAdjust="spacingAndGlyphs" textLength="82" x="149" y="151.9951">has registered</text><polygon fill="#000000" points="234,145.1758,240,148.1758,234,151.1758,234,145.1758" style="stroke: #000000; stroke-width: 1.0;"/><text fill="#000000" font-family="sans-serif" font-size="13" lengthAdjust="spacingAndGlyphs" textLength="7" x="125.9878" y="164.7138">1</text><text fill="#000000" font-family="sans-serif" font-size="13" lengthAdjust="spacingAndGlyphs" textLength="5" x="265.6185" y="201.368">*</text><!--link Administrator to ExternalEmailSenderAlgorithm--><path d="M383.57,209.961 C394.572,211.434 406.147,212.738 417,213.5 C458.492,216.414 504.37,216.401 543.889,215.385 " fill="none" id="Administrator-ExternalEmailSenderAlgorithm" style="stroke: #A80036; stroke-width: 1.0;"/><text fill="#000000" font-family="sans-serif" font-size="13" lengthAdjust="spacingAndGlyphs" textLength="48" x="435" y="209.9951">resort to</text><polygon fill="#000000" points="486,203.1758,492,206.1758,486,209.1758,486,203.1758" style="stroke: #000000; stroke-width: 1.0;"/><text fill="#000000" font-family="sans-serif" font-size="13" lengthAdjust="spacingAndGlyphs" textLength="7" x="391.4548" y="225.7957">1</text><text fill="#000000" font-family="sans-serif" font-size="13" lengthAdjust="spacingAndGlyphs" textLength="7" x="528.9563" y="229.8801">1</text><!--link Administrator to User--><path d="M383.605,189.333 C420.162,180.501 470.277,167.961 514,155.5 C539.312,148.286 567.167,139.536 590.496,131.976 " fill="none" id="Administrator-User" style="stroke: #A80036; stroke-width: 1.0;"/><text fill="#000000" font-family="sans-serif" font-size="13" lengthAdjust="spacingAndGlyphs" textLength="36" x="441" y="151.9951">act as</text><polygon fill="#000000" points="480,145.1758,486,148.1758,480,151.1758,480,145.1758" style="stroke: #000000; stroke-width: 1.0;"/><text fill="#000000" font-family="sans-serif" font-size="13" lengthAdjust="spacingAndGlyphs" textLength="22" x="391.3569" y="202.3417">0..1</text><text fill="#000000" font-family="sans-serif" font-size="13" lengthAdjust="spacingAndGlyphs" textLength="7" x="575.4798" y="149.113">1</text><!--link Organization to Task--><path d="M387.287,307.5555 C429.773,318.3128 490.115,331.8441 544,337.5 C765.038,360.7008 1028.4,324.4538 1148.69,304.3866 " fill="none" id="Organization-Task" style="stroke: #A80036; stroke-width: 1.0;"/><text fill="#000000" font-family="sans-serif" font-size="13" lengthAdjust="spacingAndGlyphs" textLength="21" x="807" y="333.9951">has</text><polygon fill="#000000" points="831,327.1758,837,330.1758,831,333.1758,831,327.1758" style="stroke: #000000; stroke-width: 1.0;"/><text fill="#000000" font-family="sans-serif" font-size="13" lengthAdjust="spacingAndGlyphs" textLength="7" x="394.9472" y="324.0376">1</text><text fill="#000000" font-family="sans-serif" font-size="13" lengthAdjust="spacingAndGlyphs" textLength="5" x="1136.1092" y="320.0662">*</text><!--link Organization to PaymentTransaction--><path d="M387.242,292.5 C438.56,292.5 515.272,292.5 571.295,292.5 " fill="none" id="Organization-PaymentTransaction" style="stroke: #A80036; stroke-width: 1.0;"/><text fill="#000000" font-family="sans-serif" font-size="13" lengthAdjust="spacingAndGlyphs" textLength="21" x="448.5" y="288.9951">has</text><polygon fill="#000000" points="472.5,282.1758,478.5,285.1758,472.5,288.1758,472.5,282.1758" style="stroke: #000000; stroke-width: 1.0;"/><text fill="#000000" font-family="sans-serif" font-size="13" lengthAdjust="spacingAndGlyphs" textLength="7" x="394.8964" y="289.0031">1</text><text fill="#000000" font-family="sans-serif" font-size="13" lengthAdjust="spacingAndGlyphs" textLength="5" x="558.5395" y="306.8467">*</text><!--link ExternalEmailSenderAlgorithm to Freelancer--><path d="M744.157,200.554 C795.62,195.392 857.271,189.208 903.762,184.545 " fill="none" id="ExternalEmailSenderAlgorithm-Freelancer" style="stroke: #A80036; stroke-width: 1.0;"/><text fill="#000000" font-family="sans-serif" font-size="13" lengthAdjust="spacingAndGlyphs" textLength="85" x="775" y="183.9951">sends email to</text><polygon fill="#000000" points="863,177.1758,869,180.1758,863,183.1758,863,177.1758" style="stroke: #000000; stroke-width: 1.0;"/><text fill="#000000" font-family="sans-serif" font-size="13" lengthAdjust="spacingAndGlyphs" textLength="7" x="752.0932" y="213.9136">1</text><text fill="#000000" font-family="sans-serif" font-size="13" lengthAdjust="spacingAndGlyphs" textLength="5" x="891.1578" y="199.609">*</text><!--link Task to TaskExecution--><path d="M1282.1,292.5 C1311.98,292.5 1347.34,292.5 1377.6,292.5 " fill="none" id="Task-TaskExecution" style="stroke: #A80036; stroke-width: 1.0;"/><text fill="#000000" font-family="sans-serif" font-size="13" lengthAdjust="spacingAndGlyphs" textLength="21" x="1313" y="288.9951">has</text><polygon fill="#000000" points="1337,282.1758,1343,285.1758,1337,288.1758,1337,282.1758" style="stroke: #000000; stroke-width: 1.0;"/><text fill="#000000" font-family="sans-serif" font-size="13" lengthAdjust="spacingAndGlyphs" textLength="7" x="1290.2053" y="306.9301">1</text><text fill="#000000" font-family="sans-serif" font-size="13" lengthAdjust="spacingAndGlyphs" textLength="22" x="1347.8892" y="306.7978">0..1</text><!--link Freelancer to Task--><path d="M1046.27,211.382 C1078.7,227.018 1116.97,245.474 1148.82,260.8285 " fill="none" id="Freelancer-Task" style="stroke: #A80036; stroke-width: 1.0;"/><text fill="#000000" font-family="sans-serif" font-size="13" lengthAdjust="spacingAndGlyphs" textLength="28" x="1077" y="223.9951">does</text><polygon fill="#000000" points="1108,217.1758,1114,220.1758,1108,223.1758,1108,217.1758" style="stroke: #000000; stroke-width: 1.0;"/><text fill="#000000" font-family="sans-serif" font-size="13" lengthAdjust="spacingAndGlyphs" textLength="7" x="1053.9807" y="229.2135">1</text><text fill="#000000" font-family="sans-serif" font-size="13" lengthAdjust="spacingAndGlyphs" textLength="5" x="1135.8211" y="271.5965">*</text><!--link PaymentTransaction to Freelancer--><path d="M716.697,273.1033 C762.234,260.167 822.15,242.002 874,222.5 C883.801,218.814 894.006,214.634 903.989,210.344 " fill="none" id="PaymentTransaction-Freelancer" style="stroke: #A80036; stroke-width: 1.0;"/><text fill="#000000" font-family="sans-serif" font-size="13" lengthAdjust="spacingAndGlyphs" textLength="11" x="812" y="218.9951">to</text><polygon fill="#000000" points="826,212.1758,832,215.1758,826,218.1758,826,212.1758" style="stroke: #000000; stroke-width: 1.0;"/><text fill="#000000" font-family="sans-serif" font-size="13" lengthAdjust="spacingAndGlyphs" textLength="5" x="724.4517" y="285.4497">*</text><text fill="#000000" font-family="sans-serif" font-size="13" lengthAdjust="spacingAndGlyphs" textLength="7" x="888.8394" y="228.3248">1</text><!--link PaymentTransaction to Task--><path d="M716.551,292.5 C827.982,292.5 1041.33,292.5 1148.96,292.5 " fill="none" id="PaymentTransaction-Task" style="stroke: #A80036; stroke-width: 1.0;"/><text fill="#000000" font-family="sans-serif" font-size="13" lengthAdjust="spacingAndGlyphs" textLength="43" x="947" y="288.9951">referent</text><polygon fill="#000000" points="993,282.1758,999,285.1758,993,288.1758,993,282.1758" style="stroke: #000000; stroke-width: 1.0;"/><text fill="#000000" font-family="sans-serif" font-size="13" lengthAdjust="spacingAndGlyphs" textLength="7" x="724.3938" y="306.8467">1</text><text fill="#000000" font-family="sans-serif" font-size="13" lengthAdjust="spacingAndGlyphs" textLength="7" x="1133.8616" y="289.0801">1</text><!--
@startuml

hide methods
left to right direction

class Platform {
  -String designation
}

class Administrator {

}

class User {
  -String name
  -String email
  -String password
}


class Freelancer {
  -String id
  -String name
  -String email
  -Integer NIF
  -String IBAN
  -double OverallPayments
}

class Organization {
  -String designation
}

class ExternalEmailSenderAlgorithm {

}

class Task {
  -String id
  -String briefDescription
  -Double timeDuration
  -Double costPerHour
  -String category
}

class PaymentTransaction {
  -String id
}

class TaskExecution{
  -Date deadline
  -Double delay
  -String descQualityWork
}

Platform "1" - - "*" Organization : has registered >
Platform "1" - - "*" Freelancer : has registered >
Platform "1" - - "*" User : has registered >
Platform "1" - - "*" Administrator : has registered >
Administrator "1" - - "1" ExternalEmailSenderAlgorithm : resort to >

Administrator "0..1" - - "1" User : act as >

Organization "1" - - "*" Task : has >
Organization "1" - - "*" PaymentTransaction : has >

ExternalEmailSenderAlgorithm "1" - - "*" Freelancer : sends email to >

Task"1" - - "0..1" TaskExecution : has >

Freelancer "1" - - "*" Task : does >

PaymentTransaction "*" - - "1" Freelancer : to >
PaymentTransaction "1" - - "1" Task : referent >

@enduml

PlantUML version 1.2018.14(Fri Dec 21 16:33:16 GMT 2018)
(GPL source distribution)
Java Runtime: Java(TM) SE Runtime Environment
JVM: Java HotSpot(TM) 64-Bit Server VM
Java Version: 1.8.0_221-b11
Operating System: Windows 10
OS Version: 10.0
Default Encoding: Cp1252
Language: pt
Country: PT
--></g></svg>