<?xml version="1.0" encoding="UTF-8" standalone="no"?><svg xmlns="http://www.w3.org/2000/svg" xmlns:xlink="http://www.w3.org/1999/xlink" contentScriptType="application/ecmascript" contentStyleType="text/css" height="1740px" preserveAspectRatio="none" style="width:686px;height:1740px;" version="1.1" viewBox="0 0 686 1740" width="686px" zoomAndPan="magnify"><defs><filter height="300%" id="fou2sy1xz8np" width="300%" x="-1" y="-1"><feGaussianBlur result="blurOut" stdDeviation="2.0"/><feColorMatrix in="blurOut" result="blurOut2" type="matrix" values="0 0 0 0 0 0 0 0 0 0 0 0 0 0 0 0 0 0 .4 0"/><feOffset dx="4.0" dy="4.0" in="blurOut2" result="blurOut3"/><feBlend in="SourceGraphic" in2="blurOut3" mode="normal"/></filter></defs><g><!--class MenuAdministratorUI--><rect fill="#FEFECE" filter="url(#fou2sy1xz8np)" height="48" id="MenuAdministratorUI" style="stroke: #A80036; stroke-width: 1.5;" width="147" x="305" y="8"/><ellipse cx="320" cy="24" fill="#ADD1B2" rx="11" ry="11" style="stroke: #A80036; stroke-width: 1.0;"/><path d="M322.7656,19.875 Q322.9219,19.6563 323.1094,19.5469 Q323.2969,19.4375 323.5156,19.4375 Q323.8906,19.4375 324.125,19.6953 Q324.3594,19.9531 324.3594,20.5625 L324.3594,22.0156 Q324.3594,22.625 324.125,22.8906 Q323.8906,23.1563 323.5156,23.1563 Q323.1719,23.1563 322.9688,22.9531 Q322.7656,22.7656 322.6563,22.25 Q322.6094,21.8906 322.4219,21.7031 Q322.0938,21.3281 321.4844,21.1094 Q320.875,20.8906 320.25,20.8906 Q319.4844,20.8906 318.8516,21.2188 Q318.2188,21.5469 317.7266,22.2969 Q317.2344,23.0469 317.2344,24.0781 L317.2344,25.1719 Q317.2344,26.4063 318.125,27.2266 Q319.0156,28.0469 320.6094,28.0469 Q321.5469,28.0469 322.2031,27.7969 Q322.5938,27.6406 323.0156,27.2031 Q323.2813,26.9375 323.4297,26.8594 Q323.5781,26.7813 323.7813,26.7813 Q324.1094,26.7813 324.3672,27.0391 Q324.625,27.2969 324.625,27.6406 Q324.625,27.9844 324.2813,28.3906 Q323.7813,28.9688 322.9844,29.2969 Q321.9063,29.75 320.6094,29.75 Q319.0938,29.75 317.8906,29.125 Q316.9063,28.625 316.2188,27.5547 Q315.5313,26.4844 315.5313,25.2031 L315.5313,24.0469 Q315.5313,22.7188 316.1484,21.5703 Q316.7656,20.4219 317.8594,19.8047 Q318.9531,19.1875 320.1875,19.1875 Q320.9219,19.1875 321.5703,19.3516 Q322.2188,19.5156 322.7656,19.875 Z "/><text fill="#000000" font-family="sans-serif" font-size="12" lengthAdjust="spacingAndGlyphs" textLength="115" x="334" y="28.9102">MenuAdministratorUI</text><line style="stroke: #A80036; stroke-width: 1.5;" x1="306" x2="451" y1="40" y2="40"/><line style="stroke: #A80036; stroke-width: 1.5;" x1="306" x2="451" y1="48" y2="48"/><!--class SendEmailAutomaticallyTask--><rect fill="#FEFECE" filter="url(#fou2sy1xz8np)" height="75.6719" id="SendEmailAutomaticallyTask" style="stroke: #A80036; stroke-width: 1.5;" width="192" x="282.5" y="117"/><ellipse cx="297.5" cy="133" fill="#ADD1B2" rx="11" ry="11" style="stroke: #A80036; stroke-width: 1.0;"/><path d="M300.2656,128.875 Q300.4219,128.6563 300.6094,128.5469 Q300.7969,128.4375 301.0156,128.4375 Q301.3906,128.4375 301.625,128.6953 Q301.8594,128.9531 301.8594,129.5625 L301.8594,131.0156 Q301.8594,131.625 301.625,131.8906 Q301.3906,132.1563 301.0156,132.1563 Q300.6719,132.1563 300.4688,131.9531 Q300.2656,131.7656 300.1563,131.25 Q300.1094,130.8906 299.9219,130.7031 Q299.5938,130.3281 298.9844,130.1094 Q298.375,129.8906 297.75,129.8906 Q296.9844,129.8906 296.3516,130.2188 Q295.7188,130.5469 295.2266,131.2969 Q294.7344,132.0469 294.7344,133.0781 L294.7344,134.1719 Q294.7344,135.4063 295.625,136.2266 Q296.5156,137.0469 298.1094,137.0469 Q299.0469,137.0469 299.7031,136.7969 Q300.0938,136.6406 300.5156,136.2031 Q300.7813,135.9375 300.9297,135.8594 Q301.0781,135.7813 301.2813,135.7813 Q301.6094,135.7813 301.8672,136.0391 Q302.125,136.2969 302.125,136.6406 Q302.125,136.9844 301.7813,137.3906 Q301.2813,137.9688 300.4844,138.2969 Q299.4063,138.75 298.1094,138.75 Q296.5938,138.75 295.3906,138.125 Q294.4063,137.625 293.7188,136.5547 Q293.0313,135.4844 293.0313,134.2031 L293.0313,133.0469 Q293.0313,131.7188 293.6484,130.5703 Q294.2656,129.4219 295.3594,128.8047 Q296.4531,128.1875 297.6875,128.1875 Q298.4219,128.1875 299.0703,128.3516 Q299.7188,128.5156 300.2656,128.875 Z "/><text fill="#000000" font-family="sans-serif" font-size="12" lengthAdjust="spacingAndGlyphs" textLength="160" x="311.5" y="137.9102">SendEmailAutomaticallyTask</text><line style="stroke: #A80036; stroke-width: 1.5;" x1="283.5" x2="473.5" y1="149" y2="149"/><line style="stroke: #A80036; stroke-width: 1.5;" x1="283.5" x2="473.5" y1="157" y2="157"/><ellipse cx="293.5" cy="169.418" fill="#84BE84" rx="3" ry="3" style="stroke: #038048; stroke-width: 1.0;"/><text fill="#000000" font-family="sans-serif" font-size="11" lengthAdjust="spacingAndGlyphs" textLength="148" x="302.5" y="172.4189">getFreelancerToSendEmailTo()</text><ellipse cx="293.5" cy="183.2539" fill="#84BE84" rx="3" ry="3" style="stroke: #038048; stroke-width: 1.0;"/><text fill="#000000" font-family="sans-serif" font-size="11" lengthAdjust="spacingAndGlyphs" textLength="144" x="302.5" y="186.2549">SendEmailAutomaticallyTask()</text><!--class Platform--><rect fill="#FEFECE" filter="url(#fou2sy1xz8np)" height="103.3438" id="Platform" style="stroke: #A80036; stroke-width: 1.5;" width="192" x="282.5" y="254"/><ellipse cx="351.25" cy="270" fill="#ADD1B2" rx="11" ry="11" style="stroke: #A80036; stroke-width: 1.0;"/><path d="M354.0156,265.875 Q354.1719,265.6563 354.3594,265.5469 Q354.5469,265.4375 354.7656,265.4375 Q355.1406,265.4375 355.375,265.6953 Q355.6094,265.9531 355.6094,266.5625 L355.6094,268.0156 Q355.6094,268.625 355.375,268.8906 Q355.1406,269.1563 354.7656,269.1563 Q354.4219,269.1563 354.2188,268.9531 Q354.0156,268.7656 353.9063,268.25 Q353.8594,267.8906 353.6719,267.7031 Q353.3438,267.3281 352.7344,267.1094 Q352.125,266.8906 351.5,266.8906 Q350.7344,266.8906 350.1016,267.2188 Q349.4688,267.5469 348.9766,268.2969 Q348.4844,269.0469 348.4844,270.0781 L348.4844,271.1719 Q348.4844,272.4063 349.375,273.2266 Q350.2656,274.0469 351.8594,274.0469 Q352.7969,274.0469 353.4531,273.7969 Q353.8438,273.6406 354.2656,273.2031 Q354.5313,272.9375 354.6797,272.8594 Q354.8281,272.7813 355.0313,272.7813 Q355.3594,272.7813 355.6172,273.0391 Q355.875,273.2969 355.875,273.6406 Q355.875,273.9844 355.5313,274.3906 Q355.0313,274.9688 354.2344,275.2969 Q353.1563,275.75 351.8594,275.75 Q350.3438,275.75 349.1406,275.125 Q348.1563,274.625 347.4688,273.5547 Q346.7813,272.4844 346.7813,271.2031 L346.7813,270.0469 Q346.7813,268.7188 347.3984,267.5703 Q348.0156,266.4219 349.1094,265.8047 Q350.2031,265.1875 351.4375,265.1875 Q352.1719,265.1875 352.8203,265.3516 Q353.4688,265.5156 354.0156,265.875 Z "/><text fill="#000000" font-family="sans-serif" font-size="12" lengthAdjust="spacingAndGlyphs" textLength="46" x="371.75" y="274.9102">Platform</text><line style="stroke: #A80036; stroke-width: 1.5;" x1="283.5" x2="473.5" y1="286" y2="286"/><rect fill="none" height="6" style="stroke: #C82930; stroke-width: 1.0;" width="6" x="290.5" y="295.418"/><text fill="#000000" font-family="sans-serif" font-size="11" lengthAdjust="spacingAndGlyphs" textLength="86" x="302.5" y="301.4189">String designation</text><line style="stroke: #A80036; stroke-width: 1.5;" x1="283.5" x2="473.5" y1="307.8359" y2="307.8359"/><ellipse cx="293.5" cy="320.2539" fill="#84BE84" rx="3" ry="3" style="stroke: #038048; stroke-width: 1.0;"/><text fill="#000000" font-family="sans-serif" font-size="11" lengthAdjust="spacingAndGlyphs" textLength="130" x="302.5" y="323.2549">getOrganizationsRegister()</text><ellipse cx="293.5" cy="334.0898" fill="#84BE84" rx="3" ry="3" style="stroke: #038048; stroke-width: 1.0;"/><text fill="#000000" font-family="sans-serif" font-size="11" lengthAdjust="spacingAndGlyphs" textLength="121" x="302.5" y="337.0908">getFreelancersRegister()</text><ellipse cx="293.5" cy="347.9258" fill="#84BE84" rx="3" ry="3" style="stroke: #038048; stroke-width: 1.0;"/><text fill="#000000" font-family="sans-serif" font-size="11" lengthAdjust="spacingAndGlyphs" textLength="166" x="302.5" y="350.9268">getExternalEmailSenderAlgorithm()</text><!--class Organization--><rect fill="#FEFECE" filter="url(#fou2sy1xz8np)" height="75.6719" id="Organization" style="stroke: #A80036; stroke-width: 1.5;" width="164" x="134.5" y="660"/><ellipse cx="177.85" cy="676" fill="#ADD1B2" rx="11" ry="11" style="stroke: #A80036; stroke-width: 1.0;"/><path d="M180.6156,671.875 Q180.7719,671.6563 180.9594,671.5469 Q181.1469,671.4375 181.3656,671.4375 Q181.7406,671.4375 181.975,671.6953 Q182.2094,671.9531 182.2094,672.5625 L182.2094,674.0156 Q182.2094,674.625 181.975,674.8906 Q181.7406,675.1563 181.3656,675.1563 Q181.0219,675.1563 180.8188,674.9531 Q180.6156,674.7656 180.5063,674.25 Q180.4594,673.8906 180.2719,673.7031 Q179.9438,673.3281 179.3344,673.1094 Q178.725,672.8906 178.1,672.8906 Q177.3344,672.8906 176.7016,673.2188 Q176.0688,673.5469 175.5766,674.2969 Q175.0844,675.0469 175.0844,676.0781 L175.0844,677.1719 Q175.0844,678.4063 175.975,679.2266 Q176.8656,680.0469 178.4594,680.0469 Q179.3969,680.0469 180.0531,679.7969 Q180.4438,679.6406 180.8656,679.2031 Q181.1313,678.9375 181.2797,678.8594 Q181.4281,678.7813 181.6313,678.7813 Q181.9594,678.7813 182.2172,679.0391 Q182.475,679.2969 182.475,679.6406 Q182.475,679.9844 182.1313,680.3906 Q181.6313,680.9688 180.8344,681.2969 Q179.7563,681.75 178.4594,681.75 Q176.9438,681.75 175.7406,681.125 Q174.7563,680.625 174.0688,679.5547 Q173.3813,678.4844 173.3813,677.2031 L173.3813,676.0469 Q173.3813,674.7188 173.9984,673.5703 Q174.6156,672.4219 175.7094,671.8047 Q176.8031,671.1875 178.0375,671.1875 Q178.7719,671.1875 179.4203,671.3516 Q180.0688,671.5156 180.6156,671.875 Z "/><text fill="#000000" font-family="sans-serif" font-size="12" lengthAdjust="spacingAndGlyphs" textLength="69" x="198.15" y="680.9102">Organization</text><line style="stroke: #A80036; stroke-width: 1.5;" x1="135.5" x2="297.5" y1="692" y2="692"/><rect fill="none" height="6" style="stroke: #C82930; stroke-width: 1.0;" width="6" x="142.5" y="701.418"/><text fill="#000000" font-family="sans-serif" font-size="11" lengthAdjust="spacingAndGlyphs" textLength="86" x="154.5" y="707.4189">String designation</text><line style="stroke: #A80036; stroke-width: 1.5;" x1="135.5" x2="297.5" y1="713.8359" y2="713.8359"/><ellipse cx="145.5" cy="726.2539" fill="#84BE84" rx="3" ry="3" style="stroke: #038048; stroke-width: 1.0;"/><text fill="#000000" font-family="sans-serif" font-size="11" lengthAdjust="spacingAndGlyphs" textLength="138" x="154.5" y="729.2549">getPaymentTransactionList()</text><!--class OrganizationsRegister--><rect fill="#FEFECE" filter="url(#fou2sy1xz8np)" height="103.3438" id="OrganizationsRegister" style="stroke: #A80036; stroke-width: 1.5;" width="211" x="114" y="435"/><ellipse cx="154.2" cy="451" fill="#ADD1B2" rx="11" ry="11" style="stroke: #A80036; stroke-width: 1.0;"/><path d="M156.9656,446.875 Q157.1219,446.6563 157.3094,446.5469 Q157.4969,446.4375 157.7156,446.4375 Q158.0906,446.4375 158.325,446.6953 Q158.5594,446.9531 158.5594,447.5625 L158.5594,449.0156 Q158.5594,449.625 158.325,449.8906 Q158.0906,450.1563 157.7156,450.1563 Q157.3719,450.1563 157.1688,449.9531 Q156.9656,449.7656 156.8563,449.25 Q156.8094,448.8906 156.6219,448.7031 Q156.2938,448.3281 155.6844,448.1094 Q155.075,447.8906 154.45,447.8906 Q153.6844,447.8906 153.0516,448.2188 Q152.4188,448.5469 151.9266,449.2969 Q151.4344,450.0469 151.4344,451.0781 L151.4344,452.1719 Q151.4344,453.4063 152.325,454.2266 Q153.2156,455.0469 154.8094,455.0469 Q155.7469,455.0469 156.4031,454.7969 Q156.7938,454.6406 157.2156,454.2031 Q157.4813,453.9375 157.6297,453.8594 Q157.7781,453.7813 157.9813,453.7813 Q158.3094,453.7813 158.5672,454.0391 Q158.825,454.2969 158.825,454.6406 Q158.825,454.9844 158.4813,455.3906 Q157.9813,455.9688 157.1844,456.2969 Q156.1063,456.75 154.8094,456.75 Q153.2938,456.75 152.0906,456.125 Q151.1063,455.625 150.4188,454.5547 Q149.7313,453.4844 149.7313,452.2031 L149.7313,451.0469 Q149.7313,449.7188 150.3484,448.5703 Q150.9656,447.4219 152.0594,446.8047 Q153.1531,446.1875 154.3875,446.1875 Q155.1219,446.1875 155.7703,446.3516 Q156.4188,446.5156 156.9656,446.875 Z "/><text fill="#000000" font-family="sans-serif" font-size="12" lengthAdjust="spacingAndGlyphs" textLength="123" x="173.8" y="455.9102">OrganizationsRegister</text><line style="stroke: #A80036; stroke-width: 1.5;" x1="115" x2="324" y1="467" y2="467"/><line style="stroke: #A80036; stroke-width: 1.5;" x1="115" x2="324" y1="475" y2="475"/><ellipse cx="125" cy="487.418" fill="#84BE84" rx="3" ry="3" style="stroke: #038048; stroke-width: 1.0;"/><text fill="#000000" font-family="sans-serif" font-size="11" lengthAdjust="spacingAndGlyphs" textLength="107" x="134" y="490.4189">getOrganizationsList()</text><ellipse cx="125" cy="501.2539" fill="#84BE84" rx="3" ry="3" style="stroke: #038048; stroke-width: 1.0;"/><text fill="#000000" font-family="sans-serif" font-size="11" lengthAdjust="spacingAndGlyphs" textLength="185" x="134" y="504.2549">calculateOverallPercentageOfDelays()</text><ellipse cx="125" cy="515.0898" fill="#84BE84" rx="3" ry="3" style="stroke: #038048; stroke-width: 1.0;"/><text fill="#000000" font-family="sans-serif" font-size="11" lengthAdjust="spacingAndGlyphs" textLength="57" x="134" y="518.0908">getMean(id)</text><ellipse cx="125" cy="528.9258" fill="#84BE84" rx="3" ry="3" style="stroke: #038048; stroke-width: 1.0;"/><text fill="#000000" font-family="sans-serif" font-size="11" lengthAdjust="spacingAndGlyphs" textLength="86" x="134" y="531.9268">getPercentage(id)</text><!--class PaymentTransaction--><rect fill="#FEFECE" filter="url(#fou2sy1xz8np)" height="89.5078" id="PaymentTransaction" style="stroke: #A80036; stroke-width: 1.5;" width="145" x="144" y="998"/><ellipse cx="159" cy="1014" fill="#ADD1B2" rx="11" ry="11" style="stroke: #A80036; stroke-width: 1.0;"/><path d="M161.7656,1009.875 Q161.9219,1009.6563 162.1094,1009.5469 Q162.2969,1009.4375 162.5156,1009.4375 Q162.8906,1009.4375 163.125,1009.6953 Q163.3594,1009.9531 163.3594,1010.5625 L163.3594,1012.0156 Q163.3594,1012.625 163.125,1012.8906 Q162.8906,1013.1563 162.5156,1013.1563 Q162.1719,1013.1563 161.9688,1012.9531 Q161.7656,1012.7656 161.6563,1012.25 Q161.6094,1011.8906 161.4219,1011.7031 Q161.0938,1011.3281 160.4844,1011.1094 Q159.875,1010.8906 159.25,1010.8906 Q158.4844,1010.8906 157.8516,1011.2188 Q157.2188,1011.5469 156.7266,1012.2969 Q156.2344,1013.0469 156.2344,1014.0781 L156.2344,1015.1719 Q156.2344,1016.4063 157.125,1017.2266 Q158.0156,1018.0469 159.6094,1018.0469 Q160.5469,1018.0469 161.2031,1017.7969 Q161.5938,1017.6406 162.0156,1017.2031 Q162.2813,1016.9375 162.4297,1016.8594 Q162.5781,1016.7813 162.7813,1016.7813 Q163.1094,1016.7813 163.3672,1017.0391 Q163.625,1017.2969 163.625,1017.6406 Q163.625,1017.9844 163.2813,1018.3906 Q162.7813,1018.9688 161.9844,1019.2969 Q160.9063,1019.75 159.6094,1019.75 Q158.0938,1019.75 156.8906,1019.125 Q155.9063,1018.625 155.2188,1017.5547 Q154.5313,1016.4844 154.5313,1015.2031 L154.5313,1014.0469 Q154.5313,1012.7188 155.1484,1011.5703 Q155.7656,1010.4219 156.8594,1009.8047 Q157.9531,1009.1875 159.1875,1009.1875 Q159.9219,1009.1875 160.5703,1009.3516 Q161.2188,1009.5156 161.7656,1009.875 Z "/><text fill="#000000" font-family="sans-serif" font-size="12" lengthAdjust="spacingAndGlyphs" textLength="113" x="173" y="1018.9102">PaymentTransaction</text><line style="stroke: #A80036; stroke-width: 1.5;" x1="145" x2="288" y1="1030" y2="1030"/><rect fill="none" height="6" style="stroke: #C82930; stroke-width: 1.0;" width="6" x="152" y="1039.418"/><text fill="#000000" font-family="sans-serif" font-size="11" lengthAdjust="spacingAndGlyphs" textLength="39" x="164" y="1045.4189">String id</text><line style="stroke: #A80036; stroke-width: 1.5;" x1="145" x2="288" y1="1051.8359" y2="1051.8359"/><ellipse cx="155" cy="1064.2539" fill="#84BE84" rx="3" ry="3" style="stroke: #038048; stroke-width: 1.0;"/><text fill="#000000" font-family="sans-serif" font-size="11" lengthAdjust="spacingAndGlyphs" textLength="75" x="164" y="1067.2549">getFreelancer()</text><ellipse cx="155" cy="1078.0898" fill="#84BE84" rx="3" ry="3" style="stroke: #038048; stroke-width: 1.0;"/><text fill="#000000" font-family="sans-serif" font-size="11" lengthAdjust="spacingAndGlyphs" textLength="46" x="164" y="1081.0908">getTask()</text><!--class Date--><rect fill="#FEFECE" filter="url(#fou2sy1xz8np)" height="61.8359" id="Date" style="stroke: #A80036; stroke-width: 1.5;" width="73" x="6" y="455.5"/><ellipse cx="27.75" cy="471.5" fill="#ADD1B2" rx="11" ry="11" style="stroke: #A80036; stroke-width: 1.0;"/><path d="M30.5156,467.375 Q30.6719,467.1563 30.8594,467.0469 Q31.0469,466.9375 31.2656,466.9375 Q31.6406,466.9375 31.875,467.1953 Q32.1094,467.4531 32.1094,468.0625 L32.1094,469.5156 Q32.1094,470.125 31.875,470.3906 Q31.6406,470.6563 31.2656,470.6563 Q30.9219,470.6563 30.7188,470.4531 Q30.5156,470.2656 30.4063,469.75 Q30.3594,469.3906 30.1719,469.2031 Q29.8438,468.8281 29.2344,468.6094 Q28.625,468.3906 28,468.3906 Q27.2344,468.3906 26.6016,468.7188 Q25.9688,469.0469 25.4766,469.7969 Q24.9844,470.5469 24.9844,471.5781 L24.9844,472.6719 Q24.9844,473.9063 25.875,474.7266 Q26.7656,475.5469 28.3594,475.5469 Q29.2969,475.5469 29.9531,475.2969 Q30.3438,475.1406 30.7656,474.7031 Q31.0313,474.4375 31.1797,474.3594 Q31.3281,474.2813 31.5313,474.2813 Q31.8594,474.2813 32.1172,474.5391 Q32.375,474.7969 32.375,475.1406 Q32.375,475.4844 32.0313,475.8906 Q31.5313,476.4688 30.7344,476.7969 Q29.6563,477.25 28.3594,477.25 Q26.8438,477.25 25.6406,476.625 Q24.6563,476.125 23.9688,475.0547 Q23.2813,473.9844 23.2813,472.7031 L23.2813,471.5469 Q23.2813,470.2188 23.8984,469.0703 Q24.5156,467.9219 25.6094,467.3047 Q26.7031,466.6875 27.9375,466.6875 Q28.6719,466.6875 29.3203,466.8516 Q29.9688,467.0156 30.5156,467.375 Z "/><text fill="#000000" font-family="sans-serif" font-size="12" lengthAdjust="spacingAndGlyphs" textLength="26" x="43.25" y="476.4102">Date</text><line style="stroke: #A80036; stroke-width: 1.5;" x1="7" x2="78" y1="487.5" y2="487.5"/><line style="stroke: #A80036; stroke-width: 1.5;" x1="7" x2="78" y1="495.5" y2="495.5"/><ellipse cx="17" cy="507.918" fill="#84BE84" rx="3" ry="3" style="stroke: #038048; stroke-width: 1.0;"/><text fill="#000000" font-family="sans-serif" font-size="11" lengthAdjust="spacingAndGlyphs" textLength="47" x="26" y="510.9189">getYear()</text><!--class Calendar--><rect fill="#FEFECE" filter="url(#fou2sy1xz8np)" height="103.3438" id="Calendar" style="stroke: #A80036; stroke-width: 1.5;" width="124" x="551.5" y="435"/><ellipse cx="584.95" cy="451" fill="#ADD1B2" rx="11" ry="11" style="stroke: #A80036; stroke-width: 1.0;"/><path d="M587.7156,446.875 Q587.8719,446.6563 588.0594,446.5469 Q588.2469,446.4375 588.4656,446.4375 Q588.8406,446.4375 589.075,446.6953 Q589.3094,446.9531 589.3094,447.5625 L589.3094,449.0156 Q589.3094,449.625 589.075,449.8906 Q588.8406,450.1563 588.4656,450.1563 Q588.1219,450.1563 587.9188,449.9531 Q587.7156,449.7656 587.6063,449.25 Q587.5594,448.8906 587.3719,448.7031 Q587.0438,448.3281 586.4344,448.1094 Q585.825,447.8906 585.2,447.8906 Q584.4344,447.8906 583.8016,448.2188 Q583.1688,448.5469 582.6766,449.2969 Q582.1844,450.0469 582.1844,451.0781 L582.1844,452.1719 Q582.1844,453.4063 583.075,454.2266 Q583.9656,455.0469 585.5594,455.0469 Q586.4969,455.0469 587.1531,454.7969 Q587.5438,454.6406 587.9656,454.2031 Q588.2313,453.9375 588.3797,453.8594 Q588.5281,453.7813 588.7313,453.7813 Q589.0594,453.7813 589.3172,454.0391 Q589.575,454.2969 589.575,454.6406 Q589.575,454.9844 589.2313,455.3906 Q588.7313,455.9688 587.9344,456.2969 Q586.8563,456.75 585.5594,456.75 Q584.0438,456.75 582.8406,456.125 Q581.8563,455.625 581.1688,454.5547 Q580.4813,453.4844 580.4813,452.2031 L580.4813,451.0469 Q580.4813,449.7188 581.0984,448.5703 Q581.7156,447.4219 582.8094,446.8047 Q583.9031,446.1875 585.1375,446.1875 Q585.8719,446.1875 586.5203,446.3516 Q587.1688,446.5156 587.7156,446.875 Z "/><text fill="#000000" font-family="sans-serif" font-size="12" lengthAdjust="spacingAndGlyphs" textLength="51" x="603.05" y="455.9102">Calendar</text><line style="stroke: #A80036; stroke-width: 1.5;" x1="552.5" x2="674.5" y1="467" y2="467"/><line style="stroke: #A80036; stroke-width: 1.5;" x1="552.5" x2="674.5" y1="475" y2="475"/><ellipse cx="562.5" cy="487.418" fill="#84BE84" rx="3" ry="3" style="stroke: #038048; stroke-width: 1.0;"/><text fill="#000000" font-family="sans-serif" font-size="11" lengthAdjust="spacingAndGlyphs" textLength="98" x="571.5" y="490.4189">get(Calendar.YEAR)</text><ellipse cx="562.5" cy="501.2539" fill="#84BE84" rx="3" ry="3" style="stroke: #038048; stroke-width: 1.0;"/><text fill="#000000" font-family="sans-serif" font-size="11" lengthAdjust="spacingAndGlyphs" textLength="64" x="571.5" y="504.2549">getInstance()</text><ellipse cx="562.5" cy="515.0898" fill="#84BE84" rx="3" ry="3" style="stroke: #038048; stroke-width: 1.0;"/><text fill="#000000" font-family="sans-serif" font-size="11" lengthAdjust="spacingAndGlyphs" textLength="45" x="571.5" y="518.0908">getTime()</text><ellipse cx="562.5" cy="528.9258" fill="#84BE84" rx="3" ry="3" style="stroke: #038048; stroke-width: 1.0;"/><text fill="#000000" font-family="sans-serif" font-size="11" lengthAdjust="spacingAndGlyphs" textLength="66" x="571.5" y="531.9268">setTime(date)</text><!--class PaymentTransactionsList--><rect fill="#FEFECE" filter="url(#fou2sy1xz8np)" height="61.8359" id="PaymentTransactionsList" style="stroke: #A80036; stroke-width: 1.5;" width="172" x="130.5" y="858"/><ellipse cx="145.5" cy="874" fill="#ADD1B2" rx="11" ry="11" style="stroke: #A80036; stroke-width: 1.0;"/><path d="M148.2656,869.875 Q148.4219,869.6563 148.6094,869.5469 Q148.7969,869.4375 149.0156,869.4375 Q149.3906,869.4375 149.625,869.6953 Q149.8594,869.9531 149.8594,870.5625 L149.8594,872.0156 Q149.8594,872.625 149.625,872.8906 Q149.3906,873.1563 149.0156,873.1563 Q148.6719,873.1563 148.4688,872.9531 Q148.2656,872.7656 148.1563,872.25 Q148.1094,871.8906 147.9219,871.7031 Q147.5938,871.3281 146.9844,871.1094 Q146.375,870.8906 145.75,870.8906 Q144.9844,870.8906 144.3516,871.2188 Q143.7188,871.5469 143.2266,872.2969 Q142.7344,873.0469 142.7344,874.0781 L142.7344,875.1719 Q142.7344,876.4063 143.625,877.2266 Q144.5156,878.0469 146.1094,878.0469 Q147.0469,878.0469 147.7031,877.7969 Q148.0938,877.6406 148.5156,877.2031 Q148.7813,876.9375 148.9297,876.8594 Q149.0781,876.7813 149.2813,876.7813 Q149.6094,876.7813 149.8672,877.0391 Q150.125,877.2969 150.125,877.6406 Q150.125,877.9844 149.7813,878.3906 Q149.2813,878.9688 148.4844,879.2969 Q147.4063,879.75 146.1094,879.75 Q144.5938,879.75 143.3906,879.125 Q142.4063,878.625 141.7188,877.5547 Q141.0313,876.4844 141.0313,875.2031 L141.0313,874.0469 Q141.0313,872.7188 141.6484,871.5703 Q142.2656,870.4219 143.3594,869.8047 Q144.4531,869.1875 145.6875,869.1875 Q146.4219,869.1875 147.0703,869.3516 Q147.7188,869.5156 148.2656,869.875 Z "/><text fill="#000000" font-family="sans-serif" font-size="12" lengthAdjust="spacingAndGlyphs" textLength="140" x="159.5" y="878.9102">PaymentTransactionsList</text><line style="stroke: #A80036; stroke-width: 1.5;" x1="131.5" x2="301.5" y1="890" y2="890"/><line style="stroke: #A80036; stroke-width: 1.5;" x1="131.5" x2="301.5" y1="898" y2="898"/><ellipse cx="141.5" cy="910.418" fill="#84BE84" rx="3" ry="3" style="stroke: #038048; stroke-width: 1.0;"/><text fill="#000000" font-family="sans-serif" font-size="11" lengthAdjust="spacingAndGlyphs" textLength="127" x="150.5" y="913.4189">getPaymentTransactions()</text><!--class Task--><rect fill="#FEFECE" filter="url(#fou2sy1xz8np)" height="131.0156" id="Task" style="stroke: #A80036; stroke-width: 1.5;" width="133" x="203" y="1403"/><ellipse cx="251.75" cy="1419" fill="#ADD1B2" rx="11" ry="11" style="stroke: #A80036; stroke-width: 1.0;"/><path d="M254.5156,1414.875 Q254.6719,1414.6563 254.8594,1414.5469 Q255.0469,1414.4375 255.2656,1414.4375 Q255.6406,1414.4375 255.875,1414.6953 Q256.1094,1414.9531 256.1094,1415.5625 L256.1094,1417.0156 Q256.1094,1417.625 255.875,1417.8906 Q255.6406,1418.1563 255.2656,1418.1563 Q254.9219,1418.1563 254.7188,1417.9531 Q254.5156,1417.7656 254.4063,1417.25 Q254.3594,1416.8906 254.1719,1416.7031 Q253.8438,1416.3281 253.2344,1416.1094 Q252.625,1415.8906 252,1415.8906 Q251.2344,1415.8906 250.6016,1416.2188 Q249.9688,1416.5469 249.4766,1417.2969 Q248.9844,1418.0469 248.9844,1419.0781 L248.9844,1420.1719 Q248.9844,1421.4063 249.875,1422.2266 Q250.7656,1423.0469 252.3594,1423.0469 Q253.2969,1423.0469 253.9531,1422.7969 Q254.3438,1422.6406 254.7656,1422.2031 Q255.0313,1421.9375 255.1797,1421.8594 Q255.3281,1421.7813 255.5313,1421.7813 Q255.8594,1421.7813 256.1172,1422.0391 Q256.375,1422.2969 256.375,1422.6406 Q256.375,1422.9844 256.0313,1423.3906 Q255.5313,1423.9688 254.7344,1424.2969 Q253.6563,1424.75 252.3594,1424.75 Q250.8438,1424.75 249.6406,1424.125 Q248.6563,1423.625 247.9688,1422.5547 Q247.2813,1421.4844 247.2813,1420.2031 L247.2813,1419.0469 Q247.2813,1417.7188 247.8984,1416.5703 Q248.5156,1415.4219 249.6094,1414.8047 Q250.7031,1414.1875 251.9375,1414.1875 Q252.6719,1414.1875 253.3203,1414.3516 Q253.9688,1414.5156 254.5156,1414.875 Z "/><text fill="#000000" font-family="sans-serif" font-size="12" lengthAdjust="spacingAndGlyphs" textLength="27" x="272.25" y="1423.9102">Task</text><line style="stroke: #A80036; stroke-width: 1.5;" x1="204" x2="335" y1="1435" y2="1435"/><rect fill="none" height="6" style="stroke: #C82930; stroke-width: 1.0;" width="6" x="211" y="1444.418"/><text fill="#000000" font-family="sans-serif" font-size="11" lengthAdjust="spacingAndGlyphs" textLength="39" x="223" y="1450.4189">String id</text><rect fill="none" height="6" style="stroke: #C82930; stroke-width: 1.0;" width="6" x="211" y="1458.2539"/><text fill="#000000" font-family="sans-serif" font-size="11" lengthAdjust="spacingAndGlyphs" textLength="107" x="223" y="1464.2549">String briefDescription</text><rect fill="none" height="6" style="stroke: #C82930; stroke-width: 1.0;" width="6" x="211" y="1472.0898"/><text fill="#000000" font-family="sans-serif" font-size="11" lengthAdjust="spacingAndGlyphs" textLength="95" x="223" y="1478.0908">Double timeDuration</text><rect fill="none" height="6" style="stroke: #C82930; stroke-width: 1.0;" width="6" x="211" y="1485.9258"/><text fill="#000000" font-family="sans-serif" font-size="11" lengthAdjust="spacingAndGlyphs" textLength="96" x="223" y="1491.9268">Double costPerHour</text><rect fill="none" height="6" style="stroke: #C82930; stroke-width: 1.0;" width="6" x="211" y="1499.7617"/><text fill="#000000" font-family="sans-serif" font-size="11" lengthAdjust="spacingAndGlyphs" textLength="74" x="223" y="1505.7627">String category</text><line style="stroke: #A80036; stroke-width: 1.5;" x1="204" x2="335" y1="1512.1797" y2="1512.1797"/><ellipse cx="214" cy="1524.5977" fill="#84BE84" rx="3" ry="3" style="stroke: #038048; stroke-width: 1.0;"/><text fill="#000000" font-family="sans-serif" font-size="11" lengthAdjust="spacingAndGlyphs" textLength="93" x="223" y="1527.5986">getTaskExecution()</text><!--class TaskExecution--><rect fill="#FEFECE" filter="url(#fou2sy1xz8np)" height="117.1797" id="TaskExecution" style="stroke: #A80036; stroke-width: 1.5;" width="139" x="200" y="1612"/><ellipse cx="227.15" cy="1628" fill="#ADD1B2" rx="11" ry="11" style="stroke: #A80036; stroke-width: 1.0;"/><path d="M229.9156,1623.875 Q230.0719,1623.6563 230.2594,1623.5469 Q230.4469,1623.4375 230.6656,1623.4375 Q231.0406,1623.4375 231.275,1623.6953 Q231.5094,1623.9531 231.5094,1624.5625 L231.5094,1626.0156 Q231.5094,1626.625 231.275,1626.8906 Q231.0406,1627.1563 230.6656,1627.1563 Q230.3219,1627.1563 230.1188,1626.9531 Q229.9156,1626.7656 229.8063,1626.25 Q229.7594,1625.8906 229.5719,1625.7031 Q229.2438,1625.3281 228.6344,1625.1094 Q228.025,1624.8906 227.4,1624.8906 Q226.6344,1624.8906 226.0016,1625.2188 Q225.3688,1625.5469 224.8766,1626.2969 Q224.3844,1627.0469 224.3844,1628.0781 L224.3844,1629.1719 Q224.3844,1630.4063 225.275,1631.2266 Q226.1656,1632.0469 227.7594,1632.0469 Q228.6969,1632.0469 229.3531,1631.7969 Q229.7438,1631.6406 230.1656,1631.2031 Q230.4313,1630.9375 230.5797,1630.8594 Q230.7281,1630.7813 230.9313,1630.7813 Q231.2594,1630.7813 231.5172,1631.0391 Q231.775,1631.2969 231.775,1631.6406 Q231.775,1631.9844 231.4313,1632.3906 Q230.9313,1632.9688 230.1344,1633.2969 Q229.0563,1633.75 227.7594,1633.75 Q226.2438,1633.75 225.0406,1633.125 Q224.0563,1632.625 223.3688,1631.5547 Q222.6813,1630.4844 222.6813,1629.2031 L222.6813,1628.0469 Q222.6813,1626.7188 223.2984,1625.5703 Q223.9156,1624.4219 225.0094,1623.8047 Q226.1031,1623.1875 227.3375,1623.1875 Q228.0719,1623.1875 228.7203,1623.3516 Q229.3688,1623.5156 229.9156,1623.875 Z "/><text fill="#000000" font-family="sans-serif" font-size="12" lengthAdjust="spacingAndGlyphs" textLength="80" x="243.85" y="1632.9102">TaskExecution</text><line style="stroke: #A80036; stroke-width: 1.5;" x1="201" x2="338" y1="1644" y2="1644"/><rect fill="none" height="6" style="stroke: #C82930; stroke-width: 1.0;" width="6" x="208" y="1653.418"/><text fill="#000000" font-family="sans-serif" font-size="11" lengthAdjust="spacingAndGlyphs" textLength="65" x="220" y="1659.4189">Date deadline</text><rect fill="none" height="6" style="stroke: #C82930; stroke-width: 1.0;" width="6" x="208" y="1667.2539"/><text fill="#000000" font-family="sans-serif" font-size="11" lengthAdjust="spacingAndGlyphs" textLength="62" x="220" y="1673.2549">Double delay</text><rect fill="none" height="6" style="stroke: #C82930; stroke-width: 1.0;" width="6" x="208" y="1681.0898"/><text fill="#000000" font-family="sans-serif" font-size="11" lengthAdjust="spacingAndGlyphs" textLength="113" x="220" y="1687.0908">String descQualityWork</text><line style="stroke: #A80036; stroke-width: 1.5;" x1="201" x2="338" y1="1693.5078" y2="1693.5078"/><ellipse cx="211" cy="1705.9258" fill="#84BE84" rx="3" ry="3" style="stroke: #038048; stroke-width: 1.0;"/><text fill="#000000" font-family="sans-serif" font-size="11" lengthAdjust="spacingAndGlyphs" textLength="50" x="220" y="1708.9268">getDelay()</text><ellipse cx="211" cy="1719.7617" fill="#84BE84" rx="3" ry="3" style="stroke: #038048; stroke-width: 1.0;"/><text fill="#000000" font-family="sans-serif" font-size="11" lengthAdjust="spacingAndGlyphs" textLength="45" x="220" y="1722.7627">getDate()</text><!--class FreelancerRegister--><rect fill="#FEFECE" filter="url(#fou2sy1xz8np)" height="61.8359" id="FreelancerRegister" style="stroke: #A80036; stroke-width: 1.5;" width="138" x="305.5" y="568"/><ellipse cx="320.5" cy="584" fill="#ADD1B2" rx="11" ry="11" style="stroke: #A80036; stroke-width: 1.0;"/><path d="M323.2656,579.875 Q323.4219,579.6563 323.6094,579.5469 Q323.7969,579.4375 324.0156,579.4375 Q324.3906,579.4375 324.625,579.6953 Q324.8594,579.9531 324.8594,580.5625 L324.8594,582.0156 Q324.8594,582.625 324.625,582.8906 Q324.3906,583.1563 324.0156,583.1563 Q323.6719,583.1563 323.4688,582.9531 Q323.2656,582.7656 323.1563,582.25 Q323.1094,581.8906 322.9219,581.7031 Q322.5938,581.3281 321.9844,581.1094 Q321.375,580.8906 320.75,580.8906 Q319.9844,580.8906 319.3516,581.2188 Q318.7188,581.5469 318.2266,582.2969 Q317.7344,583.0469 317.7344,584.0781 L317.7344,585.1719 Q317.7344,586.4063 318.625,587.2266 Q319.5156,588.0469 321.1094,588.0469 Q322.0469,588.0469 322.7031,587.7969 Q323.0938,587.6406 323.5156,587.2031 Q323.7813,586.9375 323.9297,586.8594 Q324.0781,586.7813 324.2813,586.7813 Q324.6094,586.7813 324.8672,587.0391 Q325.125,587.2969 325.125,587.6406 Q325.125,587.9844 324.7813,588.3906 Q324.2813,588.9688 323.4844,589.2969 Q322.4063,589.75 321.1094,589.75 Q319.5938,589.75 318.3906,589.125 Q317.4063,588.625 316.7188,587.5547 Q316.0313,586.4844 316.0313,585.2031 L316.0313,584.0469 Q316.0313,582.7188 316.6484,581.5703 Q317.2656,580.4219 318.3594,579.8047 Q319.4531,579.1875 320.6875,579.1875 Q321.4219,579.1875 322.0703,579.3516 Q322.7188,579.5156 323.2656,579.875 Z "/><text fill="#000000" font-family="sans-serif" font-size="12" lengthAdjust="spacingAndGlyphs" textLength="106" x="334.5" y="588.9102">FreelancerRegister</text><line style="stroke: #A80036; stroke-width: 1.5;" x1="306.5" x2="442.5" y1="600" y2="600"/><line style="stroke: #A80036; stroke-width: 1.5;" x1="306.5" x2="442.5" y1="608" y2="608"/><ellipse cx="316.5" cy="620.418" fill="#84BE84" rx="3" ry="3" style="stroke: #038048; stroke-width: 1.0;"/><text fill="#000000" font-family="sans-serif" font-size="11" lengthAdjust="spacingAndGlyphs" textLength="81" x="325.5" y="623.4189">getFreelancers()</text><!--class ExternalEmailSenderAlgorithm--><rect fill="#FEFECE" filter="url(#fou2sy1xz8np)" height="61.8359" id="ExternalEmailSenderAlgorithm" style="stroke: #A80036; stroke-width: 1.5;" width="263" x="397" y="766"/><ellipse cx="439.45" cy="782" fill="#B4A7E5" rx="11" ry="11" style="stroke: #A80036; stroke-width: 1.0;"/><path d="M440.4031,778.6406 L440.4031,785.2969 L442.1219,785.2969 Q442.7313,785.2969 442.9969,785.5313 Q443.2625,785.7656 443.2625,786.1563 Q443.2625,786.5313 442.9969,786.7656 Q442.7313,787 442.1219,787 L436.9813,787 Q436.3719,787 436.1063,786.7656 Q435.8406,786.5313 435.8406,786.1406 Q435.8406,785.7656 436.1063,785.5313 Q436.3719,785.2969 436.9813,785.2969 L438.7,785.2969 L438.7,778.6406 L436.9813,778.6406 Q436.3719,778.6406 436.1063,778.4063 Q435.8406,778.1719 435.8406,777.7813 Q435.8406,777.4063 436.1063,777.1719 Q436.3719,776.9375 436.9813,776.9375 L442.1219,776.9375 Q442.7313,776.9375 442.9969,777.1719 Q443.2625,777.4063 443.2625,777.7813 Q443.2625,778.1719 442.9969,778.4063 Q442.7313,778.6406 442.1219,778.6406 L440.4031,778.6406 Z "/><text fill="#000000" font-family="sans-serif" font-size="12" font-style="italic" lengthAdjust="spacingAndGlyphs" textLength="170" x="459.55" y="786.9102">ExternalEmailSenderAlgorithm</text><line style="stroke: #A80036; stroke-width: 1.5;" x1="398" x2="659" y1="798" y2="798"/><line style="stroke: #A80036; stroke-width: 1.5;" x1="398" x2="659" y1="806" y2="806"/><ellipse cx="408" cy="818.418" fill="#84BE84" rx="3" ry="3" style="stroke: #038048; stroke-width: 1.0;"/><text fill="#000000" font-family="sans-serif" font-size="11" lengthAdjust="spacingAndGlyphs" textLength="237" x="417" y="821.4189">sendEmail(EmailSender, email, Subject, Message)</text><!--class Freelancer--><rect fill="#FEFECE" filter="url(#fou2sy1xz8np)" height="158.6875" id="Freelancer" style="stroke: #A80036; stroke-width: 1.5;" width="142" x="305.5" y="1166"/><ellipse cx="343.45" cy="1182" fill="#ADD1B2" rx="11" ry="11" style="stroke: #A80036; stroke-width: 1.0;"/><path d="M346.2156,1177.875 Q346.3719,1177.6563 346.5594,1177.5469 Q346.7469,1177.4375 346.9656,1177.4375 Q347.3406,1177.4375 347.575,1177.6953 Q347.8094,1177.9531 347.8094,1178.5625 L347.8094,1180.0156 Q347.8094,1180.625 347.575,1180.8906 Q347.3406,1181.1563 346.9656,1181.1563 Q346.6219,1181.1563 346.4188,1180.9531 Q346.2156,1180.7656 346.1063,1180.25 Q346.0594,1179.8906 345.8719,1179.7031 Q345.5438,1179.3281 344.9344,1179.1094 Q344.325,1178.8906 343.7,1178.8906 Q342.9344,1178.8906 342.3016,1179.2188 Q341.6688,1179.5469 341.1766,1180.2969 Q340.6844,1181.0469 340.6844,1182.0781 L340.6844,1183.1719 Q340.6844,1184.4063 341.575,1185.2266 Q342.4656,1186.0469 344.0594,1186.0469 Q344.9969,1186.0469 345.6531,1185.7969 Q346.0438,1185.6406 346.4656,1185.2031 Q346.7313,1184.9375 346.8797,1184.8594 Q347.0281,1184.7813 347.2313,1184.7813 Q347.5594,1184.7813 347.8172,1185.0391 Q348.075,1185.2969 348.075,1185.6406 Q348.075,1185.9844 347.7313,1186.3906 Q347.2313,1186.9688 346.4344,1187.2969 Q345.3563,1187.75 344.0594,1187.75 Q342.5438,1187.75 341.3406,1187.125 Q340.3563,1186.625 339.6688,1185.5547 Q338.9813,1184.4844 338.9813,1183.2031 L338.9813,1182.0469 Q338.9813,1180.7188 339.5984,1179.5703 Q340.2156,1178.4219 341.3094,1177.8047 Q342.4031,1177.1875 343.6375,1177.1875 Q344.3719,1177.1875 345.0203,1177.3516 Q345.6688,1177.5156 346.2156,1177.875 Z "/><text fill="#000000" font-family="sans-serif" font-size="12" lengthAdjust="spacingAndGlyphs" textLength="59" x="362.55" y="1186.9102">Freelancer</text><line style="stroke: #A80036; stroke-width: 1.5;" x1="306.5" x2="446.5" y1="1198" y2="1198"/><rect fill="none" height="6" style="stroke: #C82930; stroke-width: 1.0;" width="6" x="313.5" y="1207.418"/><text fill="#000000" font-family="sans-serif" font-size="11" lengthAdjust="spacingAndGlyphs" textLength="39" x="325.5" y="1213.4189">String id</text><rect fill="none" height="6" style="stroke: #C82930; stroke-width: 1.0;" width="6" x="313.5" y="1221.2539"/><text fill="#000000" font-family="sans-serif" font-size="11" lengthAdjust="spacingAndGlyphs" textLength="57" x="325.5" y="1227.2549">String name</text><rect fill="none" height="6" style="stroke: #C82930; stroke-width: 1.0;" width="6" x="313.5" y="1235.0898"/><text fill="#000000" font-family="sans-serif" font-size="11" lengthAdjust="spacingAndGlyphs" textLength="55" x="325.5" y="1241.0908">String email</text><rect fill="none" height="6" style="stroke: #C82930; stroke-width: 1.0;" width="6" x="313.5" y="1248.9258"/><text fill="#000000" font-family="sans-serif" font-size="11" lengthAdjust="spacingAndGlyphs" textLength="51" x="325.5" y="1254.9268">Integer NIF</text><rect fill="none" height="6" style="stroke: #C82930; stroke-width: 1.0;" width="6" x="313.5" y="1262.7617"/><text fill="#000000" font-family="sans-serif" font-size="11" lengthAdjust="spacingAndGlyphs" textLength="55" x="325.5" y="1268.7627">String IBAN</text><rect fill="none" height="6" style="stroke: #C82930; stroke-width: 1.0;" width="6" x="313.5" y="1276.5977"/><text fill="#000000" font-family="sans-serif" font-size="11" lengthAdjust="spacingAndGlyphs" textLength="116" x="325.5" y="1282.5986">double OverallPayments</text><line style="stroke: #A80036; stroke-width: 1.5;" x1="306.5" x2="446.5" y1="1289.0156" y2="1289.0156"/><ellipse cx="316.5" cy="1301.4336" fill="#84BE84" rx="3" ry="3" style="stroke: #038048; stroke-width: 1.0;"/><text fill="#000000" font-family="sans-serif" font-size="11" lengthAdjust="spacingAndGlyphs" textLength="47" x="325.5" y="1304.4346">getEmail()</text><ellipse cx="316.5" cy="1315.2695" fill="#84BE84" rx="3" ry="3" style="stroke: #038048; stroke-width: 1.0;"/><text fill="#000000" font-family="sans-serif" font-size="11" lengthAdjust="spacingAndGlyphs" textLength="31" x="325.5" y="1318.2705">getId()</text><!--link MenuAdministratorUI to SendEmailAutomaticallyTask--><path d="M378.5,56.04 C378.5,71.71 378.5,92.91 378.5,111.58 " fill="none" id="MenuAdministratorUI-SendEmailAutomaticallyTask" style="stroke: #A80036; stroke-width: 1.0; stroke-dasharray: 7.0,7.0;"/><polygon fill="#A80036" points="378.5,116.77,382.5,107.77,378.5,111.77,374.5,107.77,378.5,116.77" style="stroke: #A80036; stroke-width: 1.0;"/><!--link SendEmailAutomaticallyTask to Platform--><path d="M378.5,193.09 C378.5,209.89 378.5,230.12 378.5,248.7 " fill="none" id="SendEmailAutomaticallyTask-Platform" style="stroke: #A80036; stroke-width: 1.0; stroke-dasharray: 7.0,7.0;"/><polygon fill="#A80036" points="378.5,253.89,382.5,244.89,378.5,248.89,374.5,244.89,378.5,253.89" style="stroke: #A80036; stroke-width: 1.0;"/><!--link SendEmailAutomaticallyTask to Date--><path d="M333.231,193.19 C311.95,211.11 286.482,233.18 264.5,254 C193.321,321.41 115.051,405.59 73.1057,451.59 " fill="none" id="SendEmailAutomaticallyTask-Date" style="stroke: #A80036; stroke-width: 1.0; stroke-dasharray: 7.0,7.0;"/><polygon fill="#A80036" points="69.6553,455.38,78.6756,451.426,73.0247,451.6858,72.7649,446.0349,69.6553,455.38" style="stroke: #A80036; stroke-width: 1.0;"/><!--link SendEmailAutomaticallyTask to Calendar--><path d="M429.231,193.2 C450.174,210.19 473.665,231.52 491.5,254 C534.856,308.65 570.092,381.02 591.352,430.2 " fill="none" id="SendEmailAutomaticallyTask-Calendar" style="stroke: #A80036; stroke-width: 1.0; stroke-dasharray: 7.0,7.0;"/><polygon fill="#A80036" points="593.366,434.89,593.4929,425.042,591.3943,430.2952,586.1411,428.1966,593.366,434.89" style="stroke: #A80036; stroke-width: 1.0;"/><!--link Platform to Date--><path d="M282.395,341.24 C225.888,363.82 154.404,396.25 96.5,435 C89.1193,439.94 81.7838,445.9 75.0082,451.96 " fill="none" id="Platform-Date" style="stroke: #A80036; stroke-width: 1.0; stroke-dasharray: 7.0,7.0;"/><polygon fill="#A80036" points="71.3048,455.34,80.647,452.2219,74.9959,451.9672,75.2506,446.3161,71.3048,455.34" style="stroke: #A80036; stroke-width: 1.0;"/><!--link Platform to Calendar--><path d="M451.711,357.08 C465.387,366.85 479.471,377.12 492.5,387 C511.058,401.08 530.801,416.81 548.84,431.5 " fill="none" id="Platform-Calendar" style="stroke: #A80036; stroke-width: 1.0; stroke-dasharray: 7.0,7.0;"/><polygon fill="#A80036" points="552.903,434.82,548.462,426.0292,549.0302,431.6575,543.402,432.2257,552.903,434.82" style="stroke: #A80036; stroke-width: 1.0;"/><!--link Platform to ExternalEmailSenderAlgorithm--><path d="M398.096,357.41 C401.683,367.19 405.299,377.38 408.5,387 C454.053,523.97 499.859,689.68 519.084,760.798 " fill="none" id="Platform-ExternalEmailSenderAlgorithm" style="stroke: #A80036; stroke-width: 1.0;"/><polygon fill="#A80036" points="520.421,765.754,521.9349,756.0222,519.1168,760.9271,514.2119,758.1089,520.421,765.754" style="stroke: #A80036; stroke-width: 1.0;"/><text fill="#000000" font-family="sans-serif" font-size="13" lengthAdjust="spacingAndGlyphs" textLength="48" x="456.5" y="491.9951">resort to</text><text fill="#000000" font-family="sans-serif" font-size="13" lengthAdjust="spacingAndGlyphs" textLength="7" x="393.2589" y="378.956">1</text><text fill="#000000" font-family="sans-serif" font-size="13" lengthAdjust="spacingAndGlyphs" textLength="7" x="511.0328" y="755.2078">1</text><!--link Platform to OrganizationsRegister--><path d="M333.362,357.32 C312.967,380.28 288.834,407.44 268.048,430.85 " fill="none" id="Platform-OrganizationsRegister" style="stroke: #A80036; stroke-width: 1.0;"/><polygon fill="#A80036" points="264.475,434.87,273.4385,430.7888,267.7918,431.1285,267.4522,425.4819,264.475,434.87" style="stroke: #A80036; stroke-width: 1.0;"/><text fill="#000000" font-family="sans-serif" font-size="13" lengthAdjust="spacingAndGlyphs" textLength="21" x="305.5" y="401.4951">has</text><text fill="#000000" font-family="sans-serif" font-size="13" lengthAdjust="spacingAndGlyphs" textLength="7" x="319.8263" y="378.854">1</text><text fill="#000000" font-family="sans-serif" font-size="13" lengthAdjust="spacingAndGlyphs" textLength="7" x="263.3074" y="423.9802">1</text><!--link OrganizationsRegister to Organization--><path d="M207.822,538.38 C206.023,548.16 204.449,558.36 203.5,568 C200.801,595.42 200.864,602.57 203.5,630 C204.279,638.11 205.577,646.69 207.059,654.91 " fill="none" id="OrganizationsRegister-Organization" style="stroke: #A80036; stroke-width: 1.0;"/><polygon fill="#A80036" points="208.003,659.97,210.2898,650.3903,207.0887,655.0543,202.4247,651.8532,208.003,659.97" style="stroke: #A80036; stroke-width: 1.0;"/><text fill="#000000" font-family="sans-serif" font-size="13" lengthAdjust="spacingAndGlyphs" textLength="82" x="204.5" y="604.4951">has registered</text><text fill="#000000" font-family="sans-serif" font-size="13" lengthAdjust="spacingAndGlyphs" textLength="7" x="198.7825" y="559.922">1</text><text fill="#000000" font-family="sans-serif" font-size="13" lengthAdjust="spacingAndGlyphs" textLength="5" x="200.9754" y="649.041">*</text><!--link Platform to FreelancerRegister--><path d="M377.803,357.28 C376.996,416.1 375.687,511.48 374.984,562.74 " fill="none" id="Platform-FreelancerRegister" style="stroke: #A80036; stroke-width: 1.0;"/><polygon fill="#A80036" points="374.914,567.86,379.0166,558.9063,374.9711,562.8603,371.0171,558.8149,374.914,567.86" style="stroke: #A80036; stroke-width: 1.0;"/><text fill="#000000" font-family="sans-serif" font-size="13" lengthAdjust="spacingAndGlyphs" textLength="21" x="378.5" y="401.4951">has</text><text fill="#000000" font-family="sans-serif" font-size="13" lengthAdjust="spacingAndGlyphs" textLength="7" x="370.239" y="378.8086">1</text><text fill="#000000" font-family="sans-serif" font-size="13" lengthAdjust="spacingAndGlyphs" textLength="7" x="367.2775" y="557.3357">1</text><!--link Organization to PaymentTransactionsList--><path d="M216.5,736.34 C216.5,770.141 216.5,819.568 216.5,852.716 " fill="none" id="Organization-PaymentTransactionsList" style="stroke: #A80036; stroke-width: 1.0;"/><polygon fill="#A80036" points="216.5,857.891,220.5,848.891,216.5,852.891,212.5,848.891,216.5,857.891" style="stroke: #A80036; stroke-width: 1.0;"/><text fill="#000000" font-family="sans-serif" font-size="13" lengthAdjust="spacingAndGlyphs" textLength="21" x="217.5" y="802.4951">has</text><text fill="#000000" font-family="sans-serif" font-size="13" lengthAdjust="spacingAndGlyphs" textLength="7" x="208.9422" y="757.2747">1</text><text fill="#000000" font-family="sans-serif" font-size="13" lengthAdjust="spacingAndGlyphs" textLength="7" x="208.7781" y="847.3731">1</text><!--link Freelancer to Task--><path d="M338.475,1325.039 C326.93,1348.883 314.334,1374.899 303.102,1398.097 " fill="none" id="Freelancer-Task" style="stroke: #A80036; stroke-width: 1.0;"/><polygon fill="#A80036" points="300.875,1402.698,308.397,1396.3404,303.0537,1398.1977,301.1965,1392.8544,300.875,1402.698" style="stroke: #A80036; stroke-width: 1.0;"/><text fill="#000000" font-family="sans-serif" font-size="13" lengthAdjust="spacingAndGlyphs" textLength="28" x="324.5" y="1369.4951">does</text><text fill="#000000" font-family="sans-serif" font-size="13" lengthAdjust="spacingAndGlyphs" textLength="7" x="327.9064" y="1346.0855">1</text><text fill="#000000" font-family="sans-serif" font-size="13" lengthAdjust="spacingAndGlyphs" textLength="5" x="299.0332" y="1392.1394">*</text><!--link PaymentTransaction to Freelancer--><path d="M251.613,1088.001 C268.902,1109.666 290.326,1136.513 310.52,1161.819 " fill="none" id="PaymentTransaction-Freelancer" style="stroke: #A80036; stroke-width: 1.0;"/><polygon fill="#A80036" points="313.75,1165.866,311.2635,1156.3362,310.6316,1161.9576,305.0101,1161.3256,313.75,1165.866" style="stroke: #A80036; stroke-width: 1.0;"/><text fill="#000000" font-family="sans-serif" font-size="13" lengthAdjust="spacingAndGlyphs" textLength="54" x="288.5" y="1132.4951">related to</text><text fill="#000000" font-family="sans-serif" font-size="13" lengthAdjust="spacingAndGlyphs" textLength="7" x="249.0586" y="1109.0087">1</text><text fill="#000000" font-family="sans-serif" font-size="13" lengthAdjust="spacingAndGlyphs" textLength="7" x="300.4355" y="1155.0401">1</text><!--link PaymentTransaction to Task--><path d="M216.042,1088.101 C216.108,1143.686 218.364,1242.004 231.5,1325 C235.311,1349.082 241.545,1374.966 247.872,1397.978 " fill="none" id="PaymentTransaction-Task" style="stroke: #A80036; stroke-width: 1.0;"/><polygon fill="#A80036" points="249.223,1402.844,250.6701,1393.102,247.8857,1398.0262,242.9615,1395.2418,249.223,1402.844" style="stroke: #A80036; stroke-width: 1.0;"/><text fill="#000000" font-family="sans-serif" font-size="13" lengthAdjust="spacingAndGlyphs" textLength="54" x="232.5" y="1250.9951">related to</text><text fill="#000000" font-family="sans-serif" font-size="13" lengthAdjust="spacingAndGlyphs" textLength="7" x="208.4854" y="1109.1228">1</text><text fill="#000000" font-family="sans-serif" font-size="13" lengthAdjust="spacingAndGlyphs" textLength="7" x="239.6224" y="1392.3014">1</text><!--link FreelancerRegister to Freelancer--><path d="M374.25,630.22 C373.954,668.72 373.5,737.301 373.5,796 C373.5,796 373.5,796 373.5,1044 C373.5,1082.324 374.055,1124.764 374.687,1160.693 " fill="none" id="FreelancerRegister-Freelancer" style="stroke: #A80036; stroke-width: 1.0;"/><polygon fill="#A80036" points="374.781,1165.946,378.6183,1156.8754,374.691,1160.9468,370.6196,1157.0195,374.781,1165.946" style="stroke: #A80036; stroke-width: 1.0;"/><text fill="#000000" font-family="sans-serif" font-size="13" lengthAdjust="spacingAndGlyphs" textLength="21" x="374.5" y="894.4951">has</text><text fill="#000000" font-family="sans-serif" font-size="13" lengthAdjust="spacingAndGlyphs" textLength="7" x="366.5352" y="651.2406">1</text><text fill="#000000" font-family="sans-serif" font-size="13" lengthAdjust="spacingAndGlyphs" textLength="5" x="369.3789" y="1155.1278">*</text><!--link PaymentTransactionsList to PaymentTransaction--><path d="M216.5,920.03 C216.5,940.789 216.5,968.877 216.5,992.866 " fill="none" id="PaymentTransactionsList-PaymentTransaction" style="stroke: #A80036; stroke-width: 1.0;"/><polygon fill="#A80036" points="216.5,997.919,220.5,988.919,216.5,992.919,212.5,988.919,216.5,997.919" style="stroke: #A80036; stroke-width: 1.0;"/><text fill="#000000" font-family="sans-serif" font-size="13" lengthAdjust="spacingAndGlyphs" textLength="21" x="217.5" y="964.4951">has</text><text fill="#000000" font-family="sans-serif" font-size="13" lengthAdjust="spacingAndGlyphs" textLength="7" x="208.8109" y="941.2599">1</text><text fill="#000000" font-family="sans-serif" font-size="13" lengthAdjust="spacingAndGlyphs" textLength="5" x="211.1016" y="987.0216">*</text><!--link ExternalEmailSenderAlgorithm to Freelancer--><path d="M518.172,828.339 C495.217,895.77 439.282,1060.077 404.961,1160.895 " fill="none" id="ExternalEmailSenderAlgorithm-Freelancer" style="stroke: #A80036; stroke-width: 1.0;"/><polygon fill="#A80036" points="403.343,1165.647,410.0303,1158.4165,404.9545,1160.9138,402.4572,1155.8381,403.343,1165.647" style="stroke: #A80036; stroke-width: 1.0;"/><text fill="#000000" font-family="sans-serif" font-size="13" lengthAdjust="spacingAndGlyphs" textLength="70" x="476.5" y="964.4951">sends email</text><text fill="#000000" font-family="sans-serif" font-size="13" lengthAdjust="spacingAndGlyphs" textLength="7" x="508.536" y="849.3823">1</text><text fill="#000000" font-family="sans-serif" font-size="13" lengthAdjust="spacingAndGlyphs" textLength="5" x="400.5871" y="1155.0738">*</text><!--link Task to TaskExecution--><path d="M269.5,1534.158 C269.5,1557.394 269.5,1583.553 269.5,1606.634 " fill="none" id="Task-TaskExecution" style="stroke: #A80036; stroke-width: 1.0;"/><polygon fill="#A80036" points="269.5,1611.816,273.5,1602.816,269.5,1606.816,265.5,1602.816,269.5,1611.816" style="stroke: #A80036; stroke-width: 1.0;"/><text fill="#000000" font-family="sans-serif" font-size="13" lengthAdjust="spacingAndGlyphs" textLength="21" x="270.5" y="1578.4951">has</text><text fill="#000000" font-family="sans-serif" font-size="13" lengthAdjust="spacingAndGlyphs" textLength="7" x="262.1172" y="1555.7278">1</text><text fill="#000000" font-family="sans-serif" font-size="13" lengthAdjust="spacingAndGlyphs" textLength="22" x="246.1594" y="1601.1945">0..1</text><!--
@startuml

class MenuAdministratorUI {
}

class SendEmailAutomaticallyTask {
  +getFreelancerToSendEmailTo()
  +SendEmailAutomaticallyTask()
}

class Platform {
  -String designation

  +getOrganizationsRegister()
  +getFreelancersRegister()
  +getExternalEmailSenderAlgorithm()
}

class Organization {
  -String designation

  +getPaymentTransactionList()
}

class OrganizationsRegister{
  +getOrganizationsList()
  +calculateOverallPercentageOfDelays()
  +getMean(id)
  +getPercentage(id)
}


class PaymentTransaction {
  -String id

  +getFreelancer()
  +getTask()
}

class Date{
  +getYear()
}

class Calendar{
  +get(Calendar.YEAR)
  +getInstance()
  +getTime()
  +setTime(date)
}

class PaymentTransactionsList{
  +getPaymentTransactions()
}


class Task {
  -String id
  -String briefDescription
  -Double timeDuration
  -Double costPerHour
  -String category

  +getTaskExecution()
}

class TaskExecution {
  -Date deadline
  -Double delay
  -String descQualityWork

  +getDelay()
  +getDate()
}


class FreelancerRegister {
  +getFreelancers()
}

interface ExternalEmailSenderAlgorithm {
  +sendEmail(EmailSender, email, Subject, Message)
}


class Freelancer {
    -String id
    -String name
    -String email
    -Integer NIF
    -String IBAN
    -double OverallPayments

    +getEmail()
    +getId()
}


MenuAdministratorUI ..> SendEmailAutomaticallyTask
SendEmailAutomaticallyTask ..> Platform
SendEmailAutomaticallyTask ..> Date
SendEmailAutomaticallyTask ..> Calendar
Platform ..> Date
Platform ..> Calendar

Platform "1" - -> "1" ExternalEmailSenderAlgorithm: resort to
Platform "1" - -> "1" OrganizationsRegister: has
OrganizationsRegister "1" - -> "*" Organization: has registered
Platform "1" - -> "1" FreelancerRegister : has


Organization "1" - -> "1" PaymentTransactionsList: has

Freelancer "1" - -> "*" Task: does
PaymentTransaction "1" - -> "1" Freelancer: related to
PaymentTransaction "1" - -> "1" Task: related to

FreelancerRegister "1" - -> "*" Freelancer: has
PaymentTransactionsList "1" - -> "*" PaymentTransaction: has

ExternalEmailSenderAlgorithm "1" - -> "*" Freelancer: sends email

Task "1" - -> "0..1" TaskExecution : has
@enduml

PlantUML version 1.2018.14(Fri Dec 21 16:33:16 GMT 2018)
(GPL source distribution)
Java Runtime: Java(TM) SE Runtime Environment
JVM: Java HotSpot(TM) 64-Bit Server VM
Java Version: 1.8.0_221-b11
Operating System: Windows 10
OS Version: 10.0
Default Encoding: Cp1252
Language: pt
Country: PT
--></g></svg>