<?xml version="1.0" encoding="UTF-8" standalone="no"?><svg xmlns="http://www.w3.org/2000/svg" xmlns:xlink="http://www.w3.org/1999/xlink" contentScriptType="application/ecmascript" contentStyleType="text/css" height="603px" preserveAspectRatio="none" style="width:1864px;height:603px;" version="1.1" viewBox="0 0 1864 603" width="1864px" zoomAndPan="magnify"><defs><filter height="300%" id="f1niqgjrffljjm" width="300%" x="-1" y="-1"><feGaussianBlur result="blurOut" stdDeviation="2.0"/><feColorMatrix in="blurOut" result="blurOut2" type="matrix" values="0 0 0 0 0 0 0 0 0 0 0 0 0 0 0 0 0 0 .4 0"/><feOffset dx="4.0" dy="4.0" in="blurOut2" result="blurOut3"/><feBlend in="SourceGraphic" in2="blurOut3" mode="normal"/></filter></defs><g><!--MD5=[99b8db98afdc2c8404e39242ef4c1e65]
class Platform--><rect fill="#FEFECE" filter="url(#f1niqgjrffljjm)" height="53.8359" id="Platform" style="stroke: #A80036; stroke-width: 1.5;" width="112" x="6" y="177"/><ellipse cx="36.3" cy="193" fill="#ADD1B2" rx="11" ry="11" style="stroke: #A80036; stroke-width: 1.0;"/><path d="M38.3,189.5 Q38.5031,189 38.7375,188.75 Q38.9719,188.5 39.2375,188.5 Q39.7063,188.5 40.0031,188.7813 Q40.3,189.0625 40.3,189.7188 L40.3,191.2813 Q40.3,191.9375 40.0188,192.2188 Q39.7375,192.5 39.3,192.5 Q38.9094,192.5 38.6594,192.3281 Q38.4094,192.1563 38.3,191.7031 Q38.2531,191.3906 38.0813,191.2188 Q37.7688,190.8906 37.2063,190.7031 Q36.6438,190.5 36.0813,190.5 Q35.3781,190.5 34.7844,190.7813 Q34.2063,191.0625 33.7531,191.6875 Q33.3,192.3125 33.3,193.1719 L33.3,194.0938 Q33.3,195.125 34.1438,195.8125 Q34.9875,196.5 36.4875,196.5 Q37.3781,196.5 38.0031,196.2969 Q38.3625,196.1875 38.7688,195.8281 Q39.0344,195.625 39.175,195.5625 Q39.3156,195.5 39.4875,195.5 Q39.8156,195.5 40.05,195.7656 Q40.3,196.0156 40.3,196.375 Q40.3,196.7188 39.9563,197.125 Q39.4563,197.7188 38.6594,198.0469 Q37.6125,198.5 36.3313,198.5 Q34.8313,198.5 33.6281,197.9063 Q32.6594,197.4375 31.9719,196.4219 Q31.3,195.4063 31.3,194.2031 L31.3,193.1094 Q31.3,191.8594 31.8938,190.7656 Q32.5031,189.6719 33.55,189.0938 Q34.6125,188.5 35.8,188.5 Q36.5188,188.5 37.1438,188.75 Q37.7688,189 38.3,189.5 Z "/><text fill="#000000" font-family="sans-serif" font-size="12" lengthAdjust="spacingAndGlyphs" textLength="46" x="53.7" y="197.9102">Platform</text><line style="stroke: #A80036; stroke-width: 1.5;" x1="7" x2="117" y1="209" y2="209"/><rect fill="none" height="6" style="stroke: #C82930; stroke-width: 1.0;" width="6" x="14" y="217"/><text fill="#000000" font-family="sans-serif" font-size="11" lengthAdjust="spacingAndGlyphs" textLength="86" x="26" y="224.4189">String designation</text><!--MD5=[da547346deef918ea16944ba046651ef]
class Administrator--><rect fill="#FEFECE" filter="url(#f1niqgjrffljjm)" height="40" id="Administrator" style="stroke: #A80036; stroke-width: 1.5;" width="105" x="275" y="144"/><ellipse cx="290" cy="160" fill="#ADD1B2" rx="11" ry="11" style="stroke: #A80036; stroke-width: 1.0;"/><path d="M292,156.5 Q292.2031,156 292.4375,155.75 Q292.6719,155.5 292.9375,155.5 Q293.4063,155.5 293.7031,155.7813 Q294,156.0625 294,156.7188 L294,158.2813 Q294,158.9375 293.7188,159.2188 Q293.4375,159.5 293,159.5 Q292.6094,159.5 292.3594,159.3281 Q292.1094,159.1563 292,158.7031 Q291.9531,158.3906 291.7813,158.2188 Q291.4688,157.8906 290.9063,157.7031 Q290.3438,157.5 289.7813,157.5 Q289.0781,157.5 288.4844,157.7813 Q287.9063,158.0625 287.4531,158.6875 Q287,159.3125 287,160.1719 L287,161.0938 Q287,162.125 287.8438,162.8125 Q288.6875,163.5 290.1875,163.5 Q291.0781,163.5 291.7031,163.2969 Q292.0625,163.1875 292.4688,162.8281 Q292.7344,162.625 292.875,162.5625 Q293.0156,162.5 293.1875,162.5 Q293.5156,162.5 293.75,162.7656 Q294,163.0156 294,163.375 Q294,163.7188 293.6563,164.125 Q293.1563,164.7188 292.3594,165.0469 Q291.3125,165.5 290.0313,165.5 Q288.5313,165.5 287.3281,164.9063 Q286.3594,164.4375 285.6719,163.4219 Q285,162.4063 285,161.2031 L285,160.1094 Q285,158.8594 285.5938,157.7656 Q286.2031,156.6719 287.25,156.0938 Q288.3125,155.5 289.5,155.5 Q290.2188,155.5 290.8438,155.75 Q291.4688,156 292,156.5 Z "/><text fill="#000000" font-family="sans-serif" font-size="12" lengthAdjust="spacingAndGlyphs" textLength="73" x="304" y="164.9102">Administrator</text><line style="stroke: #A80036; stroke-width: 1.5;" x1="276" x2="379" y1="176" y2="176"/><!--MD5=[86c7c362de55a38b660185a1328fe18d]
class Organization--><rect fill="#FEFECE" filter="url(#f1niqgjrffljjm)" height="53.8359" id="Organization" style="stroke: #A80036; stroke-width: 1.5;" width="112" x="505" y="210"/><ellipse cx="524.95" cy="226" fill="#ADD1B2" rx="11" ry="11" style="stroke: #A80036; stroke-width: 1.0;"/><path d="M526.95,222.5 Q527.1531,222 527.3875,221.75 Q527.6219,221.5 527.8875,221.5 Q528.3563,221.5 528.6531,221.7813 Q528.95,222.0625 528.95,222.7188 L528.95,224.2813 Q528.95,224.9375 528.6688,225.2188 Q528.3875,225.5 527.95,225.5 Q527.5594,225.5 527.3094,225.3281 Q527.0594,225.1563 526.95,224.7031 Q526.9031,224.3906 526.7313,224.2188 Q526.4188,223.8906 525.8563,223.7031 Q525.2938,223.5 524.7313,223.5 Q524.0281,223.5 523.4344,223.7813 Q522.8563,224.0625 522.4031,224.6875 Q521.95,225.3125 521.95,226.1719 L521.95,227.0938 Q521.95,228.125 522.7938,228.8125 Q523.6375,229.5 525.1375,229.5 Q526.0281,229.5 526.6531,229.2969 Q527.0125,229.1875 527.4188,228.8281 Q527.6844,228.625 527.825,228.5625 Q527.9656,228.5 528.1375,228.5 Q528.4656,228.5 528.7,228.7656 Q528.95,229.0156 528.95,229.375 Q528.95,229.7188 528.6063,230.125 Q528.1063,230.7188 527.3094,231.0469 Q526.2625,231.5 524.9813,231.5 Q523.4813,231.5 522.2781,230.9063 Q521.3094,230.4375 520.6219,229.4219 Q519.95,228.4063 519.95,227.2031 L519.95,226.1094 Q519.95,224.8594 520.5438,223.7656 Q521.1531,222.6719 522.2,222.0938 Q523.2625,221.5 524.45,221.5 Q525.1688,221.5 525.7938,221.75 Q526.4188,222 526.95,222.5 Z "/><text fill="#000000" font-family="sans-serif" font-size="12" lengthAdjust="spacingAndGlyphs" textLength="69" x="540.05" y="230.9102">Organization</text><line style="stroke: #A80036; stroke-width: 1.5;" x1="506" x2="616" y1="242" y2="242"/><rect fill="none" height="6" style="stroke: #C82930; stroke-width: 1.0;" width="6" x="513" y="250"/><text fill="#000000" font-family="sans-serif" font-size="11" lengthAdjust="spacingAndGlyphs" textLength="86" x="525" y="257.4189">String designation</text><!--MD5=[3fd616f346a44cd59a91eb10b19e157c]
class User--><rect fill="#FEFECE" filter="url(#f1niqgjrffljjm)" height="81.5078" id="User" style="stroke: #A80036; stroke-width: 1.5;" width="107" x="1004" y="50"/><ellipse cx="1040.6" cy="66" fill="#ADD1B2" rx="11" ry="11" style="stroke: #A80036; stroke-width: 1.0;"/><path d="M1042.6,62.5 Q1042.8031,62 1043.0375,61.75 Q1043.2719,61.5 1043.5375,61.5 Q1044.0063,61.5 1044.3031,61.7813 Q1044.6,62.0625 1044.6,62.7188 L1044.6,64.2813 Q1044.6,64.9375 1044.3188,65.2188 Q1044.0375,65.5 1043.6,65.5 Q1043.2094,65.5 1042.9594,65.3281 Q1042.7094,65.1563 1042.6,64.7031 Q1042.5531,64.3906 1042.3813,64.2188 Q1042.0688,63.8906 1041.5063,63.7031 Q1040.9438,63.5 1040.3813,63.5 Q1039.6781,63.5 1039.0844,63.7813 Q1038.5063,64.0625 1038.0531,64.6875 Q1037.6,65.3125 1037.6,66.1719 L1037.6,67.0938 Q1037.6,68.125 1038.4438,68.8125 Q1039.2875,69.5 1040.7875,69.5 Q1041.6781,69.5 1042.3031,69.2969 Q1042.6625,69.1875 1043.0688,68.8281 Q1043.3344,68.625 1043.475,68.5625 Q1043.6156,68.5 1043.7875,68.5 Q1044.1156,68.5 1044.35,68.7656 Q1044.6,69.0156 1044.6,69.375 Q1044.6,69.7188 1044.2563,70.125 Q1043.7563,70.7188 1042.9594,71.0469 Q1041.9125,71.5 1040.6313,71.5 Q1039.1313,71.5 1037.9281,70.9063 Q1036.9594,70.4375 1036.2719,69.4219 Q1035.6,68.4063 1035.6,67.2031 L1035.6,66.1094 Q1035.6,64.8594 1036.1938,63.7656 Q1036.8031,62.6719 1037.85,62.0938 Q1038.9125,61.5 1040.1,61.5 Q1040.8188,61.5 1041.4438,61.75 Q1042.0688,62 1042.6,62.5 Z "/><text fill="#000000" font-family="sans-serif" font-size="12" lengthAdjust="spacingAndGlyphs" textLength="27" x="1059.4" y="70.9102">User</text><line style="stroke: #A80036; stroke-width: 1.5;" x1="1005" x2="1110" y1="82" y2="82"/><rect fill="none" height="6" style="stroke: #C82930; stroke-width: 1.0;" width="6" x="1012" y="90"/><text fill="#000000" font-family="sans-serif" font-size="11" lengthAdjust="spacingAndGlyphs" textLength="57" x="1024" y="97.4189">String name</text><rect fill="none" height="6" style="stroke: #C82930; stroke-width: 1.0;" width="6" x="1012" y="103.8359"/><text fill="#000000" font-family="sans-serif" font-size="11" lengthAdjust="spacingAndGlyphs" textLength="55" x="1024" y="111.2549">String email</text><rect fill="none" height="6" style="stroke: #C82930; stroke-width: 1.0;" width="6" x="1012" y="117.6719"/><text fill="#000000" font-family="sans-serif" font-size="11" lengthAdjust="spacingAndGlyphs" textLength="81" x="1024" y="125.0908">String password</text><!--MD5=[f483d6e5de34a60207b28a5563be5e8b]
class Collaborator--><rect fill="#FEFECE" filter="url(#f1niqgjrffljjm)" height="67.6719" id="Collaborator" style="stroke: #A80036; stroke-width: 1.5;" width="100" x="774" y="250"/><ellipse cx="789" cy="266" fill="#ADD1B2" rx="11" ry="11" style="stroke: #A80036; stroke-width: 1.0;"/><path d="M791,262.5 Q791.2031,262 791.4375,261.75 Q791.6719,261.5 791.9375,261.5 Q792.4063,261.5 792.7031,261.7813 Q793,262.0625 793,262.7188 L793,264.2813 Q793,264.9375 792.7188,265.2188 Q792.4375,265.5 792,265.5 Q791.6094,265.5 791.3594,265.3281 Q791.1094,265.1563 791,264.7031 Q790.9531,264.3906 790.7813,264.2188 Q790.4688,263.8906 789.9063,263.7031 Q789.3438,263.5 788.7813,263.5 Q788.0781,263.5 787.4844,263.7813 Q786.9063,264.0625 786.4531,264.6875 Q786,265.3125 786,266.1719 L786,267.0938 Q786,268.125 786.8438,268.8125 Q787.6875,269.5 789.1875,269.5 Q790.0781,269.5 790.7031,269.2969 Q791.0625,269.1875 791.4688,268.8281 Q791.7344,268.625 791.875,268.5625 Q792.0156,268.5 792.1875,268.5 Q792.5156,268.5 792.75,268.7656 Q793,269.0156 793,269.375 Q793,269.7188 792.6563,270.125 Q792.1563,270.7188 791.3594,271.0469 Q790.3125,271.5 789.0313,271.5 Q787.5313,271.5 786.3281,270.9063 Q785.3594,270.4375 784.6719,269.4219 Q784,268.4063 784,267.2031 L784,266.1094 Q784,264.8594 784.5938,263.7656 Q785.2031,262.6719 786.25,262.0938 Q787.3125,261.5 788.5,261.5 Q789.2188,261.5 789.8438,261.75 Q790.4688,262 791,262.5 Z "/><text fill="#000000" font-family="sans-serif" font-size="12" lengthAdjust="spacingAndGlyphs" textLength="68" x="803" y="270.9102">Collaborator</text><line style="stroke: #A80036; stroke-width: 1.5;" x1="775" x2="873" y1="282" y2="282"/><rect fill="none" height="6" style="stroke: #C82930; stroke-width: 1.0;" width="6" x="782" y="290"/><text fill="#000000" font-family="sans-serif" font-size="11" lengthAdjust="spacingAndGlyphs" textLength="57" x="794" y="297.4189">String name</text><rect fill="none" height="6" style="stroke: #C82930; stroke-width: 1.0;" width="6" x="782" y="303.8359"/><text fill="#000000" font-family="sans-serif" font-size="11" lengthAdjust="spacingAndGlyphs" textLength="55" x="794" y="311.2549">String email</text><!--MD5=[1f687b5315377fe49fca59b457947463]
class Freelancer--><rect fill="#FEFECE" filter="url(#f1niqgjrffljjm)" height="123.0156" id="Freelancer" style="stroke: #A80036; stroke-width: 1.5;" width="134" x="1248" y="409.5"/><ellipse cx="1282.35" cy="425.5" fill="#ADD1B2" rx="11" ry="11" style="stroke: #A80036; stroke-width: 1.0;"/><path d="M1284.35,422 Q1284.5531,421.5 1284.7875,421.25 Q1285.0219,421 1285.2875,421 Q1285.7563,421 1286.0531,421.2813 Q1286.35,421.5625 1286.35,422.2188 L1286.35,423.7813 Q1286.35,424.4375 1286.0688,424.7188 Q1285.7875,425 1285.35,425 Q1284.9594,425 1284.7094,424.8281 Q1284.4594,424.6563 1284.35,424.2031 Q1284.3031,423.8906 1284.1313,423.7188 Q1283.8188,423.3906 1283.2563,423.2031 Q1282.6938,423 1282.1313,423 Q1281.4281,423 1280.8344,423.2813 Q1280.2563,423.5625 1279.8031,424.1875 Q1279.35,424.8125 1279.35,425.6719 L1279.35,426.5938 Q1279.35,427.625 1280.1938,428.3125 Q1281.0375,429 1282.5375,429 Q1283.4281,429 1284.0531,428.7969 Q1284.4125,428.6875 1284.8188,428.3281 Q1285.0844,428.125 1285.225,428.0625 Q1285.3656,428 1285.5375,428 Q1285.8656,428 1286.1,428.2656 Q1286.35,428.5156 1286.35,428.875 Q1286.35,429.2188 1286.0063,429.625 Q1285.5063,430.2188 1284.7094,430.5469 Q1283.6625,431 1282.3813,431 Q1280.8813,431 1279.6781,430.4063 Q1278.7094,429.9375 1278.0219,428.9219 Q1277.35,427.9063 1277.35,426.7031 L1277.35,425.6094 Q1277.35,424.3594 1277.9438,423.2656 Q1278.5531,422.1719 1279.6,421.5938 Q1280.6625,421 1281.85,421 Q1282.5688,421 1283.1938,421.25 Q1283.8188,421.5 1284.35,422 Z "/><text fill="#000000" font-family="sans-serif" font-size="12" lengthAdjust="spacingAndGlyphs" textLength="59" x="1300.65" y="430.4102">Freelancer</text><line style="stroke: #A80036; stroke-width: 1.5;" x1="1249" x2="1381" y1="441.5" y2="441.5"/><rect fill="none" height="6" style="stroke: #C82930; stroke-width: 1.0;" width="6" x="1256" y="449.5"/><text fill="#000000" font-family="sans-serif" font-size="11" lengthAdjust="spacingAndGlyphs" textLength="39" x="1268" y="456.9189">String id</text><rect fill="none" height="6" style="stroke: #C82930; stroke-width: 1.0;" width="6" x="1256" y="463.3359"/><text fill="#000000" font-family="sans-serif" font-size="11" lengthAdjust="spacingAndGlyphs" textLength="57" x="1268" y="470.7549">String name</text><rect fill="none" height="6" style="stroke: #C82930; stroke-width: 1.0;" width="6" x="1256" y="477.1719"/><text fill="#000000" font-family="sans-serif" font-size="11" lengthAdjust="spacingAndGlyphs" textLength="55" x="1268" y="484.5908">String email</text><rect fill="none" height="6" style="stroke: #C82930; stroke-width: 1.0;" width="6" x="1256" y="491.0078"/><text fill="#000000" font-family="sans-serif" font-size="11" lengthAdjust="spacingAndGlyphs" textLength="51" x="1268" y="498.4268">Integer NIF</text><rect fill="none" height="6" style="stroke: #C82930; stroke-width: 1.0;" width="6" x="1256" y="504.8438"/><text fill="#000000" font-family="sans-serif" font-size="11" lengthAdjust="spacingAndGlyphs" textLength="55" x="1268" y="512.2627">String IBAN</text><rect fill="none" height="6" style="stroke: #C82930; stroke-width: 1.0;" width="6" x="1256" y="518.6797"/><text fill="#000000" font-family="sans-serif" font-size="11" lengthAdjust="spacingAndGlyphs" textLength="108" x="1268" y="526.0986">double overallPayment</text><!--MD5=[5b387e0e958626cd8cbfab96fbdae709]
class LevelOfExpertise--><rect fill="#FEFECE" filter="url(#f1niqgjrffljjm)" height="67.6719" id="LevelOfExpertise" style="stroke: #A80036; stroke-width: 1.5;" width="124" x="1489.5" y="422"/><ellipse cx="1504.5" cy="438" fill="#EB937F" rx="11" ry="11" style="stroke: #A80036; stroke-width: 1.0;"/><path d="M1503,439 L1503,441 L1507,441 L1507,440 L1507,439.5156 L1507.625,439 L1508,439 L1508.375,439 L1509,439.5156 L1509,440 L1509,443 L1501,443 L1500.5156,443 L1500,442.375 L1500,442 L1500,441.625 L1500.5156,441 L1501,441 L1501,441 L1501,435 L1501,435 L1500.5156,435 L1500,434.375 L1500,434 L1500,433.625 L1500.5156,433 L1501,433 L1509,433 L1509,436 L1509,436.4844 L1508.375,437 L1508,437 L1507.625,437 L1507,436.4844 L1507,436 L1507,435 L1503,435 L1503,437 L1504,437 L1504,436.5156 L1504,436.5156 L1504.625,436 L1505,436 L1505.375,436 L1506,436.5156 L1506,437 L1506,439 L1506,439.4844 L1505.375,440 L1505.375,440 L1505,440 L1504.625,440 L1504,439.4844 L1504,439.4844 L1504,439 L1503,439 Z "/><text fill="#000000" font-family="sans-serif" font-size="12" lengthAdjust="spacingAndGlyphs" textLength="92" x="1518.5" y="442.9102">LevelOfExpertise</text><line style="stroke: #A80036; stroke-width: 1.5;" x1="1490.5" x2="1612.5" y1="454" y2="454"/><rect fill="none" height="6" style="stroke: #C82930; stroke-width: 1.0;" width="6" x="1497.5" y="462"/><text fill="#000000" font-family="sans-serif" font-size="11" lengthAdjust="spacingAndGlyphs" textLength="36" x="1509.5" y="469.4189">JUNIOR</text><rect fill="none" height="6" style="stroke: #C82930; stroke-width: 1.0;" width="6" x="1497.5" y="475.8359"/><text fill="#000000" font-family="sans-serif" font-size="11" lengthAdjust="spacingAndGlyphs" textLength="37" x="1509.5" y="483.2549">SENIOR</text><!--MD5=[4f1f3706c1a355a8488e154afcaed5df]
class Location--><rect fill="#FEFECE" filter="url(#f1niqgjrffljjm)" height="67.6719" id="Location" style="stroke: #A80036; stroke-width: 1.5;" width="97" x="1503" y="525"/><ellipse cx="1526.1" cy="541" fill="#ADD1B2" rx="11" ry="11" style="stroke: #A80036; stroke-width: 1.0;"/><path d="M1528.1,537.5 Q1528.3031,537 1528.5375,536.75 Q1528.7719,536.5 1529.0375,536.5 Q1529.5063,536.5 1529.8031,536.7813 Q1530.1,537.0625 1530.1,537.7188 L1530.1,539.2813 Q1530.1,539.9375 1529.8188,540.2188 Q1529.5375,540.5 1529.1,540.5 Q1528.7094,540.5 1528.4594,540.3281 Q1528.2094,540.1563 1528.1,539.7031 Q1528.0531,539.3906 1527.8813,539.2188 Q1527.5688,538.8906 1527.0063,538.7031 Q1526.4438,538.5 1525.8813,538.5 Q1525.1781,538.5 1524.5844,538.7813 Q1524.0063,539.0625 1523.5531,539.6875 Q1523.1,540.3125 1523.1,541.1719 L1523.1,542.0938 Q1523.1,543.125 1523.9438,543.8125 Q1524.7875,544.5 1526.2875,544.5 Q1527.1781,544.5 1527.8031,544.2969 Q1528.1625,544.1875 1528.5688,543.8281 Q1528.8344,543.625 1528.975,543.5625 Q1529.1156,543.5 1529.2875,543.5 Q1529.6156,543.5 1529.85,543.7656 Q1530.1,544.0156 1530.1,544.375 Q1530.1,544.7188 1529.7563,545.125 Q1529.2563,545.7188 1528.4594,546.0469 Q1527.4125,546.5 1526.1313,546.5 Q1524.6313,546.5 1523.4281,545.9063 Q1522.4594,545.4375 1521.7719,544.4219 Q1521.1,543.4063 1521.1,542.2031 L1521.1,541.1094 Q1521.1,539.8594 1521.6938,538.7656 Q1522.3031,537.6719 1523.35,537.0938 Q1524.4125,536.5 1525.6,536.5 Q1526.3188,536.5 1526.9438,536.75 Q1527.5688,537 1528.1,537.5 Z "/><text fill="#000000" font-family="sans-serif" font-size="12" lengthAdjust="spacingAndGlyphs" textLength="47" x="1541.9" y="545.9102">Location</text><line style="stroke: #A80036; stroke-width: 1.5;" x1="1504" x2="1599" y1="557" y2="557"/><rect fill="none" height="6" style="stroke: #C82930; stroke-width: 1.0;" width="6" x="1511" y="565"/><text fill="#000000" font-family="sans-serif" font-size="11" lengthAdjust="spacingAndGlyphs" textLength="71" x="1523" y="572.4189">String address</text><rect fill="none" height="6" style="stroke: #C82930; stroke-width: 1.0;" width="6" x="1511" y="578.8359"/><text fill="#000000" font-family="sans-serif" font-size="11" lengthAdjust="spacingAndGlyphs" textLength="68" x="1523" y="586.2549">String country</text><!--MD5=[b645a18afb25b7e5623af7186d8eb36f]
class PaymentTransaction--><rect fill="#FEFECE" filter="url(#f1niqgjrffljjm)" height="53.8359" id="PaymentTransaction" style="stroke: #A80036; stroke-width: 1.5;" width="145" x="985" y="326"/><ellipse cx="1000" cy="342" fill="#ADD1B2" rx="11" ry="11" style="stroke: #A80036; stroke-width: 1.0;"/><path d="M1002,338.5 Q1002.2031,338 1002.4375,337.75 Q1002.6719,337.5 1002.9375,337.5 Q1003.4063,337.5 1003.7031,337.7813 Q1004,338.0625 1004,338.7188 L1004,340.2813 Q1004,340.9375 1003.7188,341.2188 Q1003.4375,341.5 1003,341.5 Q1002.6094,341.5 1002.3594,341.3281 Q1002.1094,341.1563 1002,340.7031 Q1001.9531,340.3906 1001.7813,340.2188 Q1001.4688,339.8906 1000.9063,339.7031 Q1000.3438,339.5 999.7813,339.5 Q999.0781,339.5 998.4844,339.7813 Q997.9063,340.0625 997.4531,340.6875 Q997,341.3125 997,342.1719 L997,343.0938 Q997,344.125 997.8438,344.8125 Q998.6875,345.5 1000.1875,345.5 Q1001.0781,345.5 1001.7031,345.2969 Q1002.0625,345.1875 1002.4688,344.8281 Q1002.7344,344.625 1002.875,344.5625 Q1003.0156,344.5 1003.1875,344.5 Q1003.5156,344.5 1003.75,344.7656 Q1004,345.0156 1004,345.375 Q1004,345.7188 1003.6563,346.125 Q1003.1563,346.7188 1002.3594,347.0469 Q1001.3125,347.5 1000.0313,347.5 Q998.5313,347.5 997.3281,346.9063 Q996.3594,346.4375 995.6719,345.4219 Q995,344.4063 995,343.2031 L995,342.1094 Q995,340.8594 995.5938,339.7656 Q996.2031,338.6719 997.25,338.0938 Q998.3125,337.5 999.5,337.5 Q1000.2188,337.5 1000.8438,337.75 Q1001.4688,338 1002,338.5 Z "/><text fill="#000000" font-family="sans-serif" font-size="12" lengthAdjust="spacingAndGlyphs" textLength="113" x="1014" y="346.9102">PaymentTransaction</text><line style="stroke: #A80036; stroke-width: 1.5;" x1="986" x2="1129" y1="358" y2="358"/><rect fill="none" height="6" style="stroke: #C82930; stroke-width: 1.0;" width="6" x="993" y="366"/><text fill="#000000" font-family="sans-serif" font-size="11" lengthAdjust="spacingAndGlyphs" textLength="39" x="1005" y="373.4189">String id</text><!--MD5=[b34797a66dc35cbf1d65f7e3ca75530e]
class Task--><rect fill="#FEFECE" filter="url(#f1niqgjrffljjm)" height="109.1797" id="Task" style="stroke: #A80036; stroke-width: 1.5;" width="133" x="1485" y="245.5"/><ellipse cx="1533.75" cy="261.5" fill="#ADD1B2" rx="11" ry="11" style="stroke: #A80036; stroke-width: 1.0;"/><path d="M1535.75,258 Q1535.9531,257.5 1536.1875,257.25 Q1536.4219,257 1536.6875,257 Q1537.1563,257 1537.4531,257.2813 Q1537.75,257.5625 1537.75,258.2188 L1537.75,259.7813 Q1537.75,260.4375 1537.4688,260.7188 Q1537.1875,261 1536.75,261 Q1536.3594,261 1536.1094,260.8281 Q1535.8594,260.6563 1535.75,260.2031 Q1535.7031,259.8906 1535.5313,259.7188 Q1535.2188,259.3906 1534.6563,259.2031 Q1534.0938,259 1533.5313,259 Q1532.8281,259 1532.2344,259.2813 Q1531.6563,259.5625 1531.2031,260.1875 Q1530.75,260.8125 1530.75,261.6719 L1530.75,262.5938 Q1530.75,263.625 1531.5938,264.3125 Q1532.4375,265 1533.9375,265 Q1534.8281,265 1535.4531,264.7969 Q1535.8125,264.6875 1536.2188,264.3281 Q1536.4844,264.125 1536.625,264.0625 Q1536.7656,264 1536.9375,264 Q1537.2656,264 1537.5,264.2656 Q1537.75,264.5156 1537.75,264.875 Q1537.75,265.2188 1537.4063,265.625 Q1536.9063,266.2188 1536.1094,266.5469 Q1535.0625,267 1533.7813,267 Q1532.2813,267 1531.0781,266.4063 Q1530.1094,265.9375 1529.4219,264.9219 Q1528.75,263.9063 1528.75,262.7031 L1528.75,261.6094 Q1528.75,260.3594 1529.3438,259.2656 Q1529.9531,258.1719 1531,257.5938 Q1532.0625,257 1533.25,257 Q1533.9688,257 1534.5938,257.25 Q1535.2188,257.5 1535.75,258 Z "/><text fill="#000000" font-family="sans-serif" font-size="12" lengthAdjust="spacingAndGlyphs" textLength="27" x="1554.25" y="266.4102">Task</text><line style="stroke: #A80036; stroke-width: 1.5;" x1="1486" x2="1617" y1="277.5" y2="277.5"/><rect fill="none" height="6" style="stroke: #C82930; stroke-width: 1.0;" width="6" x="1493" y="285.5"/><text fill="#000000" font-family="sans-serif" font-size="11" lengthAdjust="spacingAndGlyphs" textLength="39" x="1505" y="292.9189">String id</text><rect fill="none" height="6" style="stroke: #C82930; stroke-width: 1.0;" width="6" x="1493" y="299.3359"/><text fill="#000000" font-family="sans-serif" font-size="11" lengthAdjust="spacingAndGlyphs" textLength="107" x="1505" y="306.7549">String briefDescription</text><rect fill="none" height="6" style="stroke: #C82930; stroke-width: 1.0;" width="6" x="1493" y="313.1719"/><text fill="#000000" font-family="sans-serif" font-size="11" lengthAdjust="spacingAndGlyphs" textLength="95" x="1505" y="320.5908">Double timeDuration</text><rect fill="none" height="6" style="stroke: #C82930; stroke-width: 1.0;" width="6" x="1493" y="327.0078"/><text fill="#000000" font-family="sans-serif" font-size="11" lengthAdjust="spacingAndGlyphs" textLength="96" x="1505" y="334.4268">Double costPerHour</text><rect fill="none" height="6" style="stroke: #C82930; stroke-width: 1.0;" width="6" x="1493" y="340.8438"/><text fill="#000000" font-family="sans-serif" font-size="11" lengthAdjust="spacingAndGlyphs" textLength="74" x="1505" y="348.2627">String category</text><!--MD5=[5ce80547de3caced9d0089e35ded5090]
class TaskExecution--><rect fill="#FEFECE" filter="url(#f1niqgjrffljjm)" height="81.5078" id="TaskExecution" style="stroke: #A80036; stroke-width: 1.5;" width="139" x="1714" y="259"/><ellipse cx="1741.15" cy="275" fill="#ADD1B2" rx="11" ry="11" style="stroke: #A80036; stroke-width: 1.0;"/><path d="M1743.15,271.5 Q1743.3531,271 1743.5875,270.75 Q1743.8219,270.5 1744.0875,270.5 Q1744.5563,270.5 1744.8531,270.7813 Q1745.15,271.0625 1745.15,271.7188 L1745.15,273.2813 Q1745.15,273.9375 1744.8688,274.2188 Q1744.5875,274.5 1744.15,274.5 Q1743.7594,274.5 1743.5094,274.3281 Q1743.2594,274.1563 1743.15,273.7031 Q1743.1031,273.3906 1742.9313,273.2188 Q1742.6188,272.8906 1742.0563,272.7031 Q1741.4938,272.5 1740.9313,272.5 Q1740.2281,272.5 1739.6344,272.7813 Q1739.0563,273.0625 1738.6031,273.6875 Q1738.15,274.3125 1738.15,275.1719 L1738.15,276.0938 Q1738.15,277.125 1738.9938,277.8125 Q1739.8375,278.5 1741.3375,278.5 Q1742.2281,278.5 1742.8531,278.2969 Q1743.2125,278.1875 1743.6188,277.8281 Q1743.8844,277.625 1744.025,277.5625 Q1744.1656,277.5 1744.3375,277.5 Q1744.6656,277.5 1744.9,277.7656 Q1745.15,278.0156 1745.15,278.375 Q1745.15,278.7188 1744.8063,279.125 Q1744.3063,279.7188 1743.5094,280.0469 Q1742.4625,280.5 1741.1813,280.5 Q1739.6813,280.5 1738.4781,279.9063 Q1737.5094,279.4375 1736.8219,278.4219 Q1736.15,277.4063 1736.15,276.2031 L1736.15,275.1094 Q1736.15,273.8594 1736.7438,272.7656 Q1737.3531,271.6719 1738.4,271.0938 Q1739.4625,270.5 1740.65,270.5 Q1741.3688,270.5 1741.9938,270.75 Q1742.6188,271 1743.15,271.5 Z "/><text fill="#000000" font-family="sans-serif" font-size="12" lengthAdjust="spacingAndGlyphs" textLength="80" x="1757.85" y="279.9102">TaskExecution</text><line style="stroke: #A80036; stroke-width: 1.5;" x1="1715" x2="1852" y1="291" y2="291"/><rect fill="none" height="6" style="stroke: #C82930; stroke-width: 1.0;" width="6" x="1722" y="299"/><text fill="#000000" font-family="sans-serif" font-size="11" lengthAdjust="spacingAndGlyphs" textLength="65" x="1734" y="306.4189">Date deadline</text><rect fill="none" height="6" style="stroke: #C82930; stroke-width: 1.0;" width="6" x="1722" y="312.8359"/><text fill="#000000" font-family="sans-serif" font-size="11" lengthAdjust="spacingAndGlyphs" textLength="62" x="1734" y="320.2549">Double delay</text><rect fill="none" height="6" style="stroke: #C82930; stroke-width: 1.0;" width="6" x="1722" y="326.6719"/><text fill="#000000" font-family="sans-serif" font-size="11" lengthAdjust="spacingAndGlyphs" textLength="113" x="1734" y="334.0908">String descQualityWork</text><!--MD5=[7640e466c042ba2d6f9c19c816f7f0fc]
link Platform to Organization--><path d="M118.333,208.416 C161.101,211.771 221.786,216.405 275,220 C354.869,225.396 447.391,230.749 504.815,233.966 " fill="none" id="Platform-Organization" style="stroke: #A80036; stroke-width: 1.0;"/><text fill="#000000" font-family="sans-serif" font-size="13" lengthAdjust="spacingAndGlyphs" textLength="82" x="280" y="216.4951">has registered</text><polygon fill="#000000" points="365,209.6758,371,212.6758,365,215.6758,365,209.6758" style="stroke: #000000; stroke-width: 1.0;"/><text fill="#000000" font-family="sans-serif" font-size="13" lengthAdjust="spacingAndGlyphs" textLength="7" x="125.9991" y="223.5349">1</text><text fill="#000000" font-family="sans-serif" font-size="13" lengthAdjust="spacingAndGlyphs" textLength="5" x="491.9292" y="248.1631">*</text><!--MD5=[22697d4d863c2e08ab1d60ca0d61f844]
link Platform to Freelancer--><path d="M70.9087,231.027 C95.1782,307.687 176.213,521 326.5,521 C326.5,521 326.5,521 1058.5,521 C1123.81,521 1196.8,505.0696 1247.98,491.193 " fill="none" id="Platform-Freelancer" style="stroke: #A80036; stroke-width: 1.0;"/><text fill="#000000" font-family="sans-serif" font-size="13" lengthAdjust="spacingAndGlyphs" textLength="82" x="648" y="517.4951">has registered</text><polygon fill="#000000" points="733,510.6758,739,513.6758,733,516.6758,733,510.6758" style="stroke: #000000; stroke-width: 1.0;"/><text fill="#000000" font-family="sans-serif" font-size="13" lengthAdjust="spacingAndGlyphs" textLength="7" x="65.0919" y="252.2407">1</text><text fill="#000000" font-family="sans-serif" font-size="13" lengthAdjust="spacingAndGlyphs" textLength="5" x="1234.9418" y="507.9674">*</text><!--MD5=[0cdafcc0dad84b6396b2a91da681dfee]
link Platform to User--><path d="M83.6617,176.966 C124.292,127.171 219.952,26 326.5,26 C326.5,26 326.5,26 825,26 C888.244,26 957.709,48.765 1003.883,67.35 " fill="none" id="Platform-User" style="stroke: #A80036; stroke-width: 1.0;"/><text fill="#000000" font-family="sans-serif" font-size="13" lengthAdjust="spacingAndGlyphs" textLength="82" x="513.5" y="22.4951">has registered</text><polygon fill="#000000" points="598.5,15.6758,604.5,18.6758,598.5,21.6758,598.5,15.6758" style="stroke: #000000; stroke-width: 1.0;"/><text fill="#000000" font-family="sans-serif" font-size="13" lengthAdjust="spacingAndGlyphs" textLength="7" x="81.0886" y="165.9844">1</text><text fill="#000000" font-family="sans-serif" font-size="13" lengthAdjust="spacingAndGlyphs" textLength="5" x="990.9915" y="78.7037">*</text><!--MD5=[0f7004bed4496639b3a5258ab2ead378]
link Platform to Administrator--><path d="M118.238,195.615 C164.417,188.605 229.787,178.681 274.915,171.831 " fill="none" id="Platform-Administrator" style="stroke: #A80036; stroke-width: 1.0;"/><text fill="#000000" font-family="sans-serif" font-size="13" lengthAdjust="spacingAndGlyphs" textLength="82" x="149" y="172.4951">has registered</text><polygon fill="#000000" points="234,165.6758,240,168.6758,234,171.6758,234,165.6758" style="stroke: #000000; stroke-width: 1.0;"/><text fill="#000000" font-family="sans-serif" font-size="13" lengthAdjust="spacingAndGlyphs" textLength="7" x="125.8919" y="191.0438">1</text><text fill="#000000" font-family="sans-serif" font-size="13" lengthAdjust="spacingAndGlyphs" textLength="5" x="262.1687" y="187.5771">*</text><!--MD5=[edc107c0a572352bcd12c9afaba4390b]
link Administrator to User--><path d="M380.272,158.809 C513.782,145.421 868.695,109.832 1003.524,96.312 " fill="none" id="Administrator-User" style="stroke: #A80036; stroke-width: 1.0;"/><text fill="#000000" font-family="sans-serif" font-size="13" lengthAdjust="spacingAndGlyphs" textLength="36" x="671" y="118.4951">act as</text><polygon fill="#000000" points="710,111.6758,716,114.6758,710,117.6758,710,111.6758" style="stroke: #000000; stroke-width: 1.0;"/><text fill="#000000" font-family="sans-serif" font-size="13" lengthAdjust="spacingAndGlyphs" textLength="22" x="388.0442" y="172.6679">0..1</text><text fill="#000000" font-family="sans-serif" font-size="13" lengthAdjust="spacingAndGlyphs" textLength="7" x="989.1599" y="111.5668">1</text><!--MD5=[2a41c1af413c0662bf55a6b8913ea24f]
link Administrator to Organization--><path d="M380.165,180.292 C417.211,191.974 467.045,207.688 504.859,219.612 " fill="none" id="Administrator-Organization" style="stroke: #A80036; stroke-width: 1.0;"/><text fill="#000000" font-family="sans-serif" font-size="13" lengthAdjust="spacingAndGlyphs" textLength="50" x="411" y="187.4951">registers</text><polygon fill="#000000" points="464,180.6758,470,183.6758,464,186.6758,464,180.6758" style="stroke: #000000; stroke-width: 1.0;"/><text fill="#000000" font-family="sans-serif" font-size="13" lengthAdjust="spacingAndGlyphs" textLength="7" x="388.0632" y="197.2279">1</text><text fill="#000000" font-family="sans-serif" font-size="13" lengthAdjust="spacingAndGlyphs" textLength="5" x="491.9791" y="213.7302">*</text><!--MD5=[45817597bcd7048073a670d966abfd17]
link Organization to Collaborator--><path d="M617.032,246.91 C663.396,255.259 729.122,267.095 773.768,275.134 " fill="none" id="Organization-Collaborator" style="stroke: #A80036; stroke-width: 1.0;"/><text fill="#000000" font-family="sans-serif" font-size="13" lengthAdjust="spacingAndGlyphs" textLength="21" x="678.5" y="249.4951">has</text><polygon fill="#000000" points="702.5,242.6758,708.5,245.6758,702.5,248.6758,702.5,242.6758" style="stroke: #000000; stroke-width: 1.0;"/><text fill="#000000" font-family="sans-serif" font-size="13" lengthAdjust="spacingAndGlyphs" textLength="7" x="625.0316" y="262.8464">1</text><text fill="#000000" font-family="sans-serif" font-size="13" lengthAdjust="spacingAndGlyphs" textLength="7" x="758.8761" y="288.5518">1</text><!--MD5=[4078351e3988aa35b1504a42837f2ab1]
link Organization to Task--><path d="M617.117,219.468 C669.511,204.372 750.808,185 823,185 C823,185 823,185 1316,185 C1377.67,185 1440,217.456 1484.88,247.884 " fill="none" id="Organization-Task" style="stroke: #A80036; stroke-width: 1.0;"/><text fill="#000000" font-family="sans-serif" font-size="13" lengthAdjust="spacingAndGlyphs" textLength="21" x="1040.5" y="181.4951">has</text><polygon fill="#000000" points="1064.5,174.6758,1070.5,177.6758,1064.5,180.6758,1064.5,174.6758" style="stroke: #000000; stroke-width: 1.0;"/><text fill="#000000" font-family="sans-serif" font-size="13" lengthAdjust="spacingAndGlyphs" textLength="7" x="625.128" y="231.7169">1</text><text fill="#000000" font-family="sans-serif" font-size="13" lengthAdjust="spacingAndGlyphs" textLength="5" x="1471.888" y="256.2881">*</text><!--MD5=[da2d560b3f89d8c66478284968d27dfa]
link Organization to PaymentTransaction--><path d="M597.491,264.02 C637.761,292.829 706.626,336.643 774,354 C843.936,372.017 926.883,368.977 984.735,363.142 " fill="none" id="Organization-PaymentTransaction" style="stroke: #A80036; stroke-width: 1.0;"/><text fill="#000000" font-family="sans-serif" font-size="13" lengthAdjust="spacingAndGlyphs" textLength="21" x="807" y="350.4951">has</text><polygon fill="#000000" points="831,343.6758,837,346.6758,831,349.6758,831,343.6758" style="stroke: #000000; stroke-width: 1.0;"/><text fill="#000000" font-family="sans-serif" font-size="13" lengthAdjust="spacingAndGlyphs" textLength="7" x="597.7078" y="285.2321">1</text><text fill="#000000" font-family="sans-serif" font-size="13" lengthAdjust="spacingAndGlyphs" textLength="5" x="971.9733" y="378.5346">*</text><!--MD5=[bdc7b78a1b1f03a53fec8289ba75cac4]
link Task to TaskExecution--><path d="M1618.1,300 C1647.98,300 1683.34,300 1713.6,300 " fill="none" id="Task-TaskExecution" style="stroke: #A80036; stroke-width: 1.0;"/><text fill="#000000" font-family="sans-serif" font-size="13" lengthAdjust="spacingAndGlyphs" textLength="21" x="1649" y="296.4951">has</text><polygon fill="#000000" points="1673,289.6758,1679,292.6758,1673,295.6758,1673,289.6758" style="stroke: #000000; stroke-width: 1.0;"/><text fill="#000000" font-family="sans-serif" font-size="13" lengthAdjust="spacingAndGlyphs" textLength="7" x="1626.2053" y="314.4301">1</text><text fill="#000000" font-family="sans-serif" font-size="13" lengthAdjust="spacingAndGlyphs" textLength="7" x="1699.0306" y="314.3636">1</text><!--MD5=[04ce0ecdab38a3951889ff50c232570f]
link Collaborator to User--><path d="M865.855,249.94 C905.315,217.042 965.126,167.178 1007.21,132.093 " fill="none" id="Collaborator-User" style="stroke: #A80036; stroke-width: 1.0;"/><text fill="#000000" font-family="sans-serif" font-size="13" lengthAdjust="spacingAndGlyphs" textLength="36" x="905" y="171.4951">act as</text><polygon fill="#000000" points="944,164.6758,950,167.6758,944,170.6758,944,164.6758" style="stroke: #000000; stroke-width: 1.0;"/><text fill="#000000" font-family="sans-serif" font-size="13" lengthAdjust="spacingAndGlyphs" textLength="22" x="849.9296" y="239.2215">0..1</text><text fill="#000000" font-family="sans-serif" font-size="13" lengthAdjust="spacingAndGlyphs" textLength="7" x="992.3096" y="152.8606">1</text><!--MD5=[d2c3650dbd07e79cdad2ffd4a879dec6]
link Collaborator to Freelancer--><path d="M864.225,318.176 C907.016,355.166 971.279,409.745 985,416 C1070.23,454.854 1179.1,466.566 1247.71,469.924 " fill="none" id="Collaborator-Freelancer" style="stroke: #A80036; stroke-width: 1.0;"/><text fill="#000000" font-family="sans-serif" font-size="13" lengthAdjust="spacingAndGlyphs" textLength="50" x="1026" y="412.4951">registers</text><polygon fill="#000000" points="1079,405.6758,1085,408.6758,1079,411.6758,1079,405.6758" style="stroke: #000000; stroke-width: 1.0;"/><text fill="#000000" font-family="sans-serif" font-size="13" lengthAdjust="spacingAndGlyphs" textLength="7" x="863.7666" y="339.2443">1</text><text fill="#000000" font-family="sans-serif" font-size="13" lengthAdjust="spacingAndGlyphs" textLength="5" x="1235.0767" y="484.1948">*</text><!--MD5=[c32d3c60a61e5638fef4971a1b3a8306]
link Collaborator to PaymentTransaction--><path d="M874.357,314.876 C883.923,319.875 894.067,324.539 904,328 C929.588,336.917 958.723,342.69 984.623,346.411 " fill="none" id="Collaborator-PaymentTransaction" style="stroke: #A80036; stroke-width: 1.0;"/><text fill="#000000" font-family="sans-serif" font-size="13" lengthAdjust="spacingAndGlyphs" textLength="28" x="909" y="324.4951">does</text><polygon fill="#000000" points="940,317.6758,946,320.6758,940,323.6758,940,317.6758" style="stroke: #000000; stroke-width: 1.0;"/><text fill="#000000" font-family="sans-serif" font-size="13" lengthAdjust="spacingAndGlyphs" textLength="7" x="881.9306" y="333.8858">1</text><text fill="#000000" font-family="sans-serif" font-size="13" lengthAdjust="spacingAndGlyphs" textLength="5" x="971.8497" y="360.0782">*</text><!--MD5=[f919d21ae7a75ef5ececc535e09d5009]
link Collaborator to Task--><path d="M874.065,282.887 C980.155,280.827 1238.78,277.678 1455,290 C1464.65,290.55 1474.83,291.364 1484.81,292.295 " fill="none" id="Collaborator-Task" style="stroke: #A80036; stroke-width: 1.0;"/><text fill="#000000" font-family="sans-serif" font-size="13" lengthAdjust="spacingAndGlyphs" textLength="43" x="1161" y="277.4951">creates</text><polygon fill="#000000" points="1207,270.6758,1213,273.6758,1207,276.6758,1207,270.6758" style="stroke: #000000; stroke-width: 1.0;"/><text fill="#000000" font-family="sans-serif" font-size="13" lengthAdjust="spacingAndGlyphs" textLength="7" x="881.9324" y="297.4436">1</text><text fill="#000000" font-family="sans-serif" font-size="13" lengthAdjust="spacingAndGlyphs" textLength="5" x="1471.8099" y="287.9842">*</text><!--MD5=[f6802b286771c18a16ea4be983074371]
link PaymentTransaction to Freelancer--><path d="M1128.28,380.039 C1156.43,391.423 1189.05,405.215 1218,419 C1227.75,423.645 1237.92,428.799 1247.84,434.006 " fill="none" id="PaymentTransaction-Freelancer" style="stroke: #A80036; stroke-width: 1.0;"/><text fill="#000000" font-family="sans-serif" font-size="13" lengthAdjust="spacingAndGlyphs" textLength="11" x="1177" y="389.4951">to</text><polygon fill="#000000" points="1191,382.6758,1197,385.6758,1191,388.6758,1191,382.6758" style="stroke: #000000; stroke-width: 1.0;"/><text fill="#000000" font-family="sans-serif" font-size="13" lengthAdjust="spacingAndGlyphs" textLength="5" x="1138.2163" y="401.2553">*</text><text fill="#000000" font-family="sans-serif" font-size="13" lengthAdjust="spacingAndGlyphs" textLength="7" x="1233.1116" y="444.3483">1</text><!--MD5=[271ce7fefd7250ebaca83b70495774bd]
link PaymentTransaction to Task--><path d="M1130.04,345.293 C1225.32,335.03 1392.53,317.017 1484.78,307.08 " fill="none" id="PaymentTransaction-Task" style="stroke: #A80036; stroke-width: 1.0;"/><text fill="#000000" font-family="sans-serif" font-size="13" lengthAdjust="spacingAndGlyphs" textLength="43" x="1287" y="314.4951">referent</text><polygon fill="#000000" points="1333,307.6758,1339,310.6758,1333,313.6758,1333,307.6758" style="stroke: #000000; stroke-width: 1.0;"/><text fill="#000000" font-family="sans-serif" font-size="13" lengthAdjust="spacingAndGlyphs" textLength="7" x="1137.8816" y="358.8449">1</text><text fill="#000000" font-family="sans-serif" font-size="13" lengthAdjust="spacingAndGlyphs" textLength="7" x="1470.0997" y="322.2339">1</text><!--MD5=[0a2fb51dd6b1312a84d9b20e1a79eef4]
link Freelancer to LevelOfExpertise--><path d="M1382.26,466.762 C1415.85,464.613 1456.37,462.021 1489.23,459.919 " fill="none" id="Freelancer-LevelOfExpertise" style="stroke: #A80036; stroke-width: 1.0;"/><text fill="#000000" font-family="sans-serif" font-size="13" lengthAdjust="spacingAndGlyphs" textLength="21" x="1416.5" y="458.4951">has</text><polygon fill="#000000" points="1440.5,451.6758,1446.5,454.6758,1440.5,457.6758,1440.5,451.6758" style="stroke: #000000; stroke-width: 1.0;"/><text fill="#000000" font-family="sans-serif" font-size="13" lengthAdjust="spacingAndGlyphs" textLength="7" x="1389.9994" y="480.687">1</text><text fill="#000000" font-family="sans-serif" font-size="13" lengthAdjust="spacingAndGlyphs" textLength="7" x="1474.6253" y="474.8315">1</text><!--MD5=[d518bf3df24868864c9f0c94c8246211]
link Freelancer to Location--><path d="M1382.26,495.8644 C1420.59,510.248 1467.94,528.0199 1502.64,541.04 " fill="none" id="Freelancer-Location" style="stroke: #A80036; stroke-width: 1.0;"/><text fill="#000000" font-family="sans-serif" font-size="13" lengthAdjust="spacingAndGlyphs" textLength="21" x="1416.5" y="503.4951">has</text><polygon fill="#000000" points="1440.5,496.6758,1446.5,499.6758,1440.5,502.6758,1440.5,496.6758" style="stroke: #000000; stroke-width: 1.0;"/><text fill="#000000" font-family="sans-serif" font-size="13" lengthAdjust="spacingAndGlyphs" textLength="7" x="1389.9994" y="512.9724">1</text><text fill="#000000" font-family="sans-serif" font-size="13" lengthAdjust="spacingAndGlyphs" textLength="7" x="1487.9496" y="553.1222">1</text><!--MD5=[b4b6c1ff9c803d8207b36238c02005ea]
link Freelancer to Task--><path d="M1382.07,432.011 C1405.61,417.386 1431.98,400.141 1455,383 C1466.81,374.211 1478.97,364.338 1490.5,354.549 " fill="none" id="Freelancer-Task" style="stroke: #A80036; stroke-width: 1.0;"/><text fill="#000000" font-family="sans-serif" font-size="13" lengthAdjust="spacingAndGlyphs" textLength="28" x="1413" y="379.4951">does</text><polygon fill="#000000" points="1444,372.6758,1450,375.6758,1444,378.6758,1444,372.6758" style="stroke: #000000; stroke-width: 1.0;"/><text fill="#000000" font-family="sans-serif" font-size="13" lengthAdjust="spacingAndGlyphs" textLength="7" x="1389.7886" y="442.1351">1</text><text fill="#000000" font-family="sans-serif" font-size="13" lengthAdjust="spacingAndGlyphs" textLength="5" x="1477.3641" y="376.0692">*</text><!--MD5=[e1518910ebbcedc6d09764f76ca6d7af]
@startuml

hide methods
left to right direction

class Platform {
  -String designation
}

class Administrator {
}

class Organization {
  -String designation
}

class User {
  -String name
  -String email
  -String password
}

class Collaborator {
  -String name
  -String email
}

class Freelancer {
  -String id
  -String name
  -String email
  -Integer NIF
  -String IBAN
  -double overallPayment
}

enum LevelOfExpertise {
   -JUNIOR
   -SENIOR
}

class Location {
  -String address
  -String country
}

class PaymentTransaction {
  -String id
}

class Task {
  -String id
  -String briefDescription
  -Double timeDuration
  -Double costPerHour
  -String category
}

class TaskExecution{
  -Date deadline
  -Double delay
  -String descQualityWork
}



Platform "1" - - "*" Organization : has registered >
Platform "1" - - "*" Freelancer : has registered >
Platform "1" - - "*" User : has registered >
Platform "1" - - "*" Administrator : has registered >

Administrator "0..1" - - "1" User : act as >
Administrator "1" - - "*" Organization : registers >

Organization "1" - - "1" Collaborator: has >
Organization "1" - - "*" Task : has >
Organization "1" - - "*" PaymentTransaction : has >

Task"1" - - "1" TaskExecution : has >

Collaborator "0..1" - - "1" User : act as >
Collaborator "1" - - "*" Freelancer : registers >
Collaborator "1" - - "*" PaymentTransaction : does >
Collaborator "1" - - "*" Task : creates >

PaymentTransaction "*" - - "1" Freelancer : to >
PaymentTransaction "1" - - "1" Task : referent >

Freelancer "1" - - "1" LevelOfExpertise : has >
Freelancer "1" - - "1" Location : has >
Freelancer "1" - - "*" Task : does >
@enduml

PlantUML version 1.2020.07(Sun Apr 19 12:42:40 BST 2020)
(GPL source distribution)
Java Runtime: OpenJDK Runtime Environment
JVM: OpenJDK 64-Bit Server VM
Java Version: 11.0.6+8-b520.43
Operating System: Windows 10
Default Encoding: Cp1252
Language: en
Country: US
--></g></svg>