<?xml version="1.0" encoding="UTF-8" standalone="no"?><svg xmlns="http://www.w3.org/2000/svg" xmlns:xlink="http://www.w3.org/1999/xlink" contentScriptType="application/ecmascript" contentStyleType="text/css" height="1409.6px" preserveAspectRatio="none" style="width:974px;height:1409px;" version="1.1" viewBox="0 0 974 1409" width="974.4px" zoomAndPan="magnify"><defs><filter height="300%" id="fvm47nbppmcj8" width="300%" x="-1" y="-1"><feGaussianBlur result="blurOut" stdDeviation="1.6"/><feColorMatrix in="blurOut" result="blurOut2" type="matrix" values="0 0 0 0 0 0 0 0 0 0 0 0 0 0 0 0 0 0 .4 0"/><feOffset dx="3.2" dy="3.2" in="blurOut2" result="blurOut3"/><feBlend in="SourceGraphic" in2="blurOut3" mode="normal"/></filter></defs><g><!--MD5=[6a00d627a89d7c3ae33b9466d33940d5]
class LoadTransactionsFileUI--><rect fill="#FEFECE" filter="url(#fvm47nbppmcj8)" height="38.4" id="LoadTransactionsFileUI" style="stroke: #A80036; stroke-width: 1.2000000000000002;" width="131.2" x="534.8" y="6.4"/><ellipse cx="546.8" cy="19.2" fill="#ADD1B2" rx="8.8" ry="8.8" style="stroke: #A80036; stroke-width: 0.8;"/><path d="M548.4,16.4 Q548.5625,16 548.75,15.8 Q548.9375,15.6 549.15,15.6 Q549.525,15.6 549.7625,15.825 Q550,16.05 550,16.575 L550,17.825 Q550,18.35 549.775,18.575 Q549.55,18.8 549.2,18.8 Q548.8875,18.8 548.6875,18.6625 Q548.4875,18.525 548.4,18.1625 Q548.3625,17.9125 548.225,17.775 Q547.975,17.5125 547.525,17.3625 Q547.075,17.2 546.625,17.2 Q546.0625,17.2 545.5875,17.425 Q545.125,17.65 544.7625,18.15 Q544.4,18.65 544.4,19.3375 L544.4,20.075 Q544.4,20.9 545.075,21.45 Q545.75,22 546.95,22 Q547.6625,22 548.1625,21.8375 Q548.45,21.75 548.775,21.4625 Q548.9875,21.3 549.1,21.25 Q549.2125,21.2 549.35,21.2 Q549.6125,21.2 549.8,21.4125 Q550,21.6125 550,21.9 Q550,22.175 549.725,22.5 Q549.325,22.975 548.6875,23.2375 Q547.85,23.6 546.825,23.6 Q545.625,23.6 544.6625,23.125 Q543.8875,22.75 543.3375,21.9375 Q542.8,21.125 542.8,20.1625 L542.8,19.2875 Q542.8,18.2875 543.275,17.4125 Q543.7625,16.5375 544.6,16.075 Q545.45,15.6 546.4,15.6 Q546.975,15.6 547.475,15.8 Q547.975,16 548.4,16.4 Z "/><text fill="#000000" font-family="sans-serif" font-size="9.6" lengthAdjust="spacingAndGlyphs" textLength="105.6" x="558" y="23.1281">LoadTransactionsFileUI</text><line style="stroke: #A80036; stroke-width: 1.2000000000000002;" x1="535.6" x2="665.2" y1="32" y2="32"/><line style="stroke: #A80036; stroke-width: 1.2000000000000002;" x1="535.6" x2="665.2" y1="38.4" y2="38.4"/><!--MD5=[ae028843d63896ae60acca1424f43690]
class LoadTransactionsFileController--><rect fill="#FEFECE" filter="url(#fvm47nbppmcj8)" height="60.5375" id="LoadTransactionsFileController" style="stroke: #A80036; stroke-width: 1.2000000000000002;" width="164.8" x="518" y="93.6"/><ellipse cx="530" cy="106.4" fill="#ADD1B2" rx="8.8" ry="8.8" style="stroke: #A80036; stroke-width: 0.8;"/><path d="M531.6,103.6 Q531.7625,103.2 531.95,103 Q532.1375,102.8 532.35,102.8 Q532.725,102.8 532.9625,103.025 Q533.2,103.25 533.2,103.775 L533.2,105.025 Q533.2,105.55 532.975,105.775 Q532.75,106 532.4,106 Q532.0875,106 531.8875,105.8625 Q531.6875,105.725 531.6,105.3625 Q531.5625,105.1125 531.425,104.975 Q531.175,104.7125 530.725,104.5625 Q530.275,104.4 529.825,104.4 Q529.2625,104.4 528.7875,104.625 Q528.325,104.85 527.9625,105.35 Q527.6,105.85 527.6,106.5375 L527.6,107.275 Q527.6,108.1 528.275,108.65 Q528.95,109.2 530.15,109.2 Q530.8625,109.2 531.3625,109.0375 Q531.65,108.95 531.975,108.6625 Q532.1875,108.5 532.3,108.45 Q532.4125,108.4 532.55,108.4 Q532.8125,108.4 533,108.6125 Q533.2,108.8125 533.2,109.1 Q533.2,109.375 532.925,109.7 Q532.525,110.175 531.8875,110.4375 Q531.05,110.8 530.025,110.8 Q528.825,110.8 527.8625,110.325 Q527.0875,109.95 526.5375,109.1375 Q526,108.325 526,107.3625 L526,106.4875 Q526,105.4875 526.475,104.6125 Q526.9625,103.7375 527.8,103.275 Q528.65,102.8 529.6,102.8 Q530.175,102.8 530.675,103 Q531.175,103.2 531.6,103.6 Z "/><text fill="#000000" font-family="sans-serif" font-size="9.6" lengthAdjust="spacingAndGlyphs" textLength="139.2" x="541.2" y="110.3281">LoadTransactionsFileController</text><line style="stroke: #A80036; stroke-width: 1.2000000000000002;" x1="518.8" x2="682" y1="119.2" y2="119.2"/><line style="stroke: #A80036; stroke-width: 1.2000000000000002;" x1="518.8" x2="682" y1="125.6" y2="125.6"/><text fill="#000000" font-family="sans-serif" font-size="8.8" lengthAdjust="spacingAndGlyphs" textLength="66.4" x="522.8" y="137.9352">+loadFileCsv(file)</text><text fill="#000000" font-family="sans-serif" font-size="8.8" lengthAdjust="spacingAndGlyphs" textLength="63.2" x="522.8" y="149.0039">+loadFileTxt(file)</text><!--MD5=[ddbdb0705b281dcf53f52a708698f5f8]
class LoadFromCsvTxt--><rect fill="#FEFECE" filter="url(#fvm47nbppmcj8)" height="49.4688" id="LoadFromCsvTxt" style="stroke: #A80036; stroke-width: 1.2000000000000002;" width="100" x="550.4" y="203.2"/><ellipse cx="562.4" cy="216" fill="#ADD1B2" rx="8.8" ry="8.8" style="stroke: #A80036; stroke-width: 0.8;"/><path d="M564,213.2 Q564.1625,212.8 564.35,212.6 Q564.5375,212.4 564.75,212.4 Q565.125,212.4 565.3625,212.625 Q565.6,212.85 565.6,213.375 L565.6,214.625 Q565.6,215.15 565.375,215.375 Q565.15,215.6 564.8,215.6 Q564.4875,215.6 564.2875,215.4625 Q564.0875,215.325 564,214.9625 Q563.9625,214.7125 563.825,214.575 Q563.575,214.3125 563.125,214.1625 Q562.675,214 562.225,214 Q561.6625,214 561.1875,214.225 Q560.725,214.45 560.3625,214.95 Q560,215.45 560,216.1375 L560,216.875 Q560,217.7 560.675,218.25 Q561.35,218.8 562.55,218.8 Q563.2625,218.8 563.7625,218.6375 Q564.05,218.55 564.375,218.2625 Q564.5875,218.1 564.7,218.05 Q564.8125,218 564.95,218 Q565.2125,218 565.4,218.2125 Q565.6,218.4125 565.6,218.7 Q565.6,218.975 565.325,219.3 Q564.925,219.775 564.2875,220.0375 Q563.45,220.4 562.425,220.4 Q561.225,220.4 560.2625,219.925 Q559.4875,219.55 558.9375,218.7375 Q558.4,217.925 558.4,216.9625 L558.4,216.0875 Q558.4,215.0875 558.875,214.2125 Q559.3625,213.3375 560.2,212.875 Q561.05,212.4 562,212.4 Q562.575,212.4 563.075,212.6 Q563.575,212.8 564,213.2 Z "/><text fill="#000000" font-family="sans-serif" font-size="9.6" lengthAdjust="spacingAndGlyphs" textLength="74.4" x="573.6" y="219.9281">LoadFromCsvTxt</text><line style="stroke: #A80036; stroke-width: 1.2000000000000002;" x1="551.2" x2="649.6" y1="228.8" y2="228.8"/><line style="stroke: #A80036; stroke-width: 1.2000000000000002;" x1="551.2" x2="649.6" y1="235.2" y2="235.2"/><text fill="#000000" font-family="sans-serif" font-size="8.8" lengthAdjust="spacingAndGlyphs" textLength="46.4" x="555.2" y="247.5352">loadFile(file)</text><!--MD5=[99b8db98afdc2c8404e39242ef4c1e65]
class Platform--><rect fill="#FEFECE" filter="url(#fvm47nbppmcj8)" height="71.6063" id="Platform" style="stroke: #A80036; stroke-width: 1.2000000000000002;" width="118.4" x="206" y="301.6"/><ellipse cx="243.4" cy="314.4" fill="#ADD1B2" rx="8.8" ry="8.8" style="stroke: #A80036; stroke-width: 0.8;"/><path d="M245,311.6 Q245.1625,311.2 245.35,311 Q245.5375,310.8 245.75,310.8 Q246.125,310.8 246.3625,311.025 Q246.6,311.25 246.6,311.775 L246.6,313.025 Q246.6,313.55 246.375,313.775 Q246.15,314 245.8,314 Q245.4875,314 245.2875,313.8625 Q245.0875,313.725 245,313.3625 Q244.9625,313.1125 244.825,312.975 Q244.575,312.7125 244.125,312.5625 Q243.675,312.4 243.225,312.4 Q242.6625,312.4 242.1875,312.625 Q241.725,312.85 241.3625,313.35 Q241,313.85 241,314.5375 L241,315.275 Q241,316.1 241.675,316.65 Q242.35,317.2 243.55,317.2 Q244.2625,317.2 244.7625,317.0375 Q245.05,316.95 245.375,316.6625 Q245.5875,316.5 245.7,316.45 Q245.8125,316.4 245.95,316.4 Q246.2125,316.4 246.4,316.6125 Q246.6,316.8125 246.6,317.1 Q246.6,317.375 246.325,317.7 Q245.925,318.175 245.2875,318.4375 Q244.45,318.8 243.425,318.8 Q242.225,318.8 241.2625,318.325 Q240.4875,317.95 239.9375,317.1375 Q239.4,316.325 239.4,315.3625 L239.4,314.4875 Q239.4,313.4875 239.875,312.6125 Q240.3625,311.7375 241.2,311.275 Q242.05,310.8 243,310.8 Q243.575,310.8 244.075,311 Q244.575,311.2 245,311.6 Z "/><text fill="#000000" font-family="sans-serif" font-size="9.6" lengthAdjust="spacingAndGlyphs" textLength="36.8" x="259.8" y="318.3281">Platform</text><line style="stroke: #A80036; stroke-width: 1.2000000000000002;" x1="206.8" x2="323.6" y1="327.2" y2="327.2"/><text fill="#000000" font-family="sans-serif" font-size="8.8" lengthAdjust="spacingAndGlyphs" textLength="72" x="210.8" y="339.5352">-String designation</text><line style="stroke: #A80036; stroke-width: 1.2000000000000002;" x1="206.8" x2="323.6" y1="344.6688" y2="344.6688"/><text fill="#000000" font-family="sans-serif" font-size="8.8" lengthAdjust="spacingAndGlyphs" textLength="108.8" x="210.8" y="357.0039">+getOrganizationsRegister()</text><text fill="#000000" font-family="sans-serif" font-size="8.8" lengthAdjust="spacingAndGlyphs" textLength="101.6" x="210.8" y="368.0727">+getFreelancersRegister()</text><!--MD5=[86c7c362de55a38b660185a1328fe18d]
class Organization--><rect fill="#FEFECE" filter="url(#fvm47nbppmcj8)" height="71.6063" id="Organization" style="stroke: #A80036; stroke-width: 1.2000000000000002;" width="124.8" x="607.6" y="570.4"/><ellipse cx="639.4" cy="583.2" fill="#ADD1B2" rx="8.8" ry="8.8" style="stroke: #A80036; stroke-width: 0.8;"/><path d="M641,580.4 Q641.1625,580 641.35,579.8 Q641.5375,579.6 641.75,579.6 Q642.125,579.6 642.3625,579.825 Q642.6,580.05 642.6,580.575 L642.6,581.825 Q642.6,582.35 642.375,582.575 Q642.15,582.8 641.8,582.8 Q641.4875,582.8 641.2875,582.6625 Q641.0875,582.525 641,582.1625 Q640.9625,581.9125 640.825,581.775 Q640.575,581.5125 640.125,581.3625 Q639.675,581.2 639.225,581.2 Q638.6625,581.2 638.1875,581.425 Q637.725,581.65 637.3625,582.15 Q637,582.65 637,583.3375 L637,584.075 Q637,584.9 637.675,585.45 Q638.35,586 639.55,586 Q640.2625,586 640.7625,585.8375 Q641.05,585.75 641.375,585.4625 Q641.5875,585.3 641.7,585.25 Q641.8125,585.2 641.95,585.2 Q642.2125,585.2 642.4,585.4125 Q642.6,585.6125 642.6,585.9 Q642.6,586.175 642.325,586.5 Q641.925,586.975 641.2875,587.2375 Q640.45,587.6 639.425,587.6 Q638.225,587.6 637.2625,587.125 Q636.4875,586.75 635.9375,585.9375 Q635.4,585.125 635.4,584.1625 L635.4,583.2875 Q635.4,582.2875 635.875,581.4125 Q636.3625,580.5375 637.2,580.075 Q638.05,579.6 639,579.6 Q639.575,579.6 640.075,579.8 Q640.575,580 641,580.4 Z "/><text fill="#000000" font-family="sans-serif" font-size="9.6" lengthAdjust="spacingAndGlyphs" textLength="55.2" x="655" y="587.1281">Organization</text><line style="stroke: #A80036; stroke-width: 1.2000000000000002;" x1="608.4" x2="731.6" y1="596" y2="596"/><text fill="#000000" font-family="sans-serif" font-size="8.8" lengthAdjust="spacingAndGlyphs" textLength="72" x="612.4" y="608.3352">-String designation</text><line style="stroke: #A80036; stroke-width: 1.2000000000000002;" x1="608.4" x2="731.6" y1="613.4688" y2="613.4688"/><text fill="#000000" font-family="sans-serif" font-size="8.8" lengthAdjust="spacingAndGlyphs" textLength="55.2" x="612.4" y="625.8039">+getTaskList()</text><text fill="#000000" font-family="sans-serif" font-size="8.8" lengthAdjust="spacingAndGlyphs" textLength="115.2" x="612.4" y="636.8727">+getPaymentTransactionList()</text><!--MD5=[c9ffb7075026e36ef3f9115511772f78]
class OrganizationsRegister--><rect fill="#FEFECE" filter="url(#fvm47nbppmcj8)" height="49.4688" id="OrganizationsRegister" style="stroke: #A80036; stroke-width: 1.2000000000000002;" width="148.8" x="577.2" y="447.2"/><ellipse cx="600.36" cy="460" fill="#ADD1B2" rx="8.8" ry="8.8" style="stroke: #A80036; stroke-width: 0.8;"/><path d="M601.96,457.2 Q602.1225,456.8 602.31,456.6 Q602.4975,456.4 602.71,456.4 Q603.085,456.4 603.3225,456.625 Q603.56,456.85 603.56,457.375 L603.56,458.625 Q603.56,459.15 603.335,459.375 Q603.11,459.6 602.76,459.6 Q602.4475,459.6 602.2475,459.4625 Q602.0475,459.325 601.96,458.9625 Q601.9225,458.7125 601.785,458.575 Q601.535,458.3125 601.085,458.1625 Q600.635,458 600.185,458 Q599.6225,458 599.1475,458.225 Q598.685,458.45 598.3225,458.95 Q597.96,459.45 597.96,460.1375 L597.96,460.875 Q597.96,461.7 598.635,462.25 Q599.31,462.8 600.51,462.8 Q601.2225,462.8 601.7225,462.6375 Q602.01,462.55 602.335,462.2625 Q602.5475,462.1 602.66,462.05 Q602.7725,462 602.91,462 Q603.1725,462 603.36,462.2125 Q603.56,462.4125 603.56,462.7 Q603.56,462.975 603.285,463.3 Q602.885,463.775 602.2475,464.0375 Q601.41,464.4 600.385,464.4 Q599.185,464.4 598.2225,463.925 Q597.4475,463.55 596.8975,462.7375 Q596.36,461.925 596.36,460.9625 L596.36,460.0875 Q596.36,459.0875 596.835,458.2125 Q597.3225,457.3375 598.16,456.875 Q599.01,456.4 599.96,456.4 Q600.535,456.4 601.035,456.6 Q601.535,456.8 601.96,457.2 Z "/><text fill="#000000" font-family="sans-serif" font-size="9.6" lengthAdjust="spacingAndGlyphs" textLength="98.4" x="614.04" y="463.9281">OrganizationsRegister</text><line style="stroke: #A80036; stroke-width: 1.2000000000000002;" x1="578" x2="725.2" y1="472.8" y2="472.8"/><line style="stroke: #A80036; stroke-width: 1.2000000000000002;" x1="578" x2="725.2" y1="479.2" y2="479.2"/><text fill="#000000" font-family="sans-serif" font-size="8.8" lengthAdjust="spacingAndGlyphs" textLength="139.2" x="582" y="491.5352">+getOrganizationByUserEmail(email)</text><!--MD5=[380d12a68ed0046a60f31008a02875d0]
class AplicacaoPOT--><rect fill="#FEFECE" filter="url(#fvm47nbppmcj8)" height="60.5375" id="AplicacaoPOT" style="stroke: #A80036; stroke-width: 1.2000000000000002;" width="92.8" x="352.4" y="307.2"/><ellipse cx="366.92" cy="320" fill="#ADD1B2" rx="8.8" ry="8.8" style="stroke: #A80036; stroke-width: 0.8;"/><path d="M368.52,317.2 Q368.6825,316.8 368.87,316.6 Q369.0575,316.4 369.27,316.4 Q369.645,316.4 369.8825,316.625 Q370.12,316.85 370.12,317.375 L370.12,318.625 Q370.12,319.15 369.895,319.375 Q369.67,319.6 369.32,319.6 Q369.0075,319.6 368.8075,319.4625 Q368.6075,319.325 368.52,318.9625 Q368.4825,318.7125 368.345,318.575 Q368.095,318.3125 367.645,318.1625 Q367.195,318 366.745,318 Q366.1825,318 365.7075,318.225 Q365.245,318.45 364.8825,318.95 Q364.52,319.45 364.52,320.1375 L364.52,320.875 Q364.52,321.7 365.195,322.25 Q365.87,322.8 367.07,322.8 Q367.7825,322.8 368.2825,322.6375 Q368.57,322.55 368.895,322.2625 Q369.1075,322.1 369.22,322.05 Q369.3325,322 369.47,322 Q369.7325,322 369.92,322.2125 Q370.12,322.4125 370.12,322.7 Q370.12,322.975 369.845,323.3 Q369.445,323.775 368.8075,324.0375 Q367.97,324.4 366.945,324.4 Q365.745,324.4 364.7825,323.925 Q364.0075,323.55 363.4575,322.7375 Q362.92,321.925 362.92,320.9625 L362.92,320.0875 Q362.92,319.0875 363.395,318.2125 Q363.8825,317.3375 364.72,316.875 Q365.57,316.4 366.52,316.4 Q367.095,316.4 367.595,316.6 Q368.095,316.8 368.52,317.2 Z "/><text fill="#000000" font-family="sans-serif" font-size="9.6" lengthAdjust="spacingAndGlyphs" textLength="61.6" x="378.68" y="323.9281">AplicacaoPOT</text><line style="stroke: #A80036; stroke-width: 1.2000000000000002;" x1="353.2" x2="444.4" y1="332.8" y2="332.8"/><line style="stroke: #A80036; stroke-width: 1.2000000000000002;" x1="353.2" x2="444.4" y1="339.2" y2="339.2"/><text fill="#000000" font-family="sans-serif" font-size="8.8" lengthAdjust="spacingAndGlyphs" textLength="79.2" x="357.2" y="351.5352">+static getInstance()</text><text fill="#000000" font-family="sans-serif" font-size="8.8" lengthAdjust="spacingAndGlyphs" textLength="83.2" x="357.2" y="362.6039">+getCurrentSession()</text><!--MD5=[c5b08e60048ef1bcd788d24cf324082e]
class UserSession--><rect fill="#FEFECE" filter="url(#fvm47nbppmcj8)" height="49.4688" id="UserSession" style="stroke: #A80036; stroke-width: 1.2000000000000002;" width="84" x="473.6" y="312.8"/><ellipse cx="485.6" cy="325.6" fill="#ADD1B2" rx="8.8" ry="8.8" style="stroke: #A80036; stroke-width: 0.8;"/><path d="M487.2,322.8 Q487.3625,322.4 487.55,322.2 Q487.7375,322 487.95,322 Q488.325,322 488.5625,322.225 Q488.8,322.45 488.8,322.975 L488.8,324.225 Q488.8,324.75 488.575,324.975 Q488.35,325.2 488,325.2 Q487.6875,325.2 487.4875,325.0625 Q487.2875,324.925 487.2,324.5625 Q487.1625,324.3125 487.025,324.175 Q486.775,323.9125 486.325,323.7625 Q485.875,323.6 485.425,323.6 Q484.8625,323.6 484.3875,323.825 Q483.925,324.05 483.5625,324.55 Q483.2,325.05 483.2,325.7375 L483.2,326.475 Q483.2,327.3 483.875,327.85 Q484.55,328.4 485.75,328.4 Q486.4625,328.4 486.9625,328.2375 Q487.25,328.15 487.575,327.8625 Q487.7875,327.7 487.9,327.65 Q488.0125,327.6 488.15,327.6 Q488.4125,327.6 488.6,327.8125 Q488.8,328.0125 488.8,328.3 Q488.8,328.575 488.525,328.9 Q488.125,329.375 487.4875,329.6375 Q486.65,330 485.625,330 Q484.425,330 483.4625,329.525 Q482.6875,329.15 482.1375,328.3375 Q481.6,327.525 481.6,326.5625 L481.6,325.6875 Q481.6,324.6875 482.075,323.8125 Q482.5625,322.9375 483.4,322.475 Q484.25,322 485.2,322 Q485.775,322 486.275,322.2 Q486.775,322.4 487.2,322.8 Z "/><text fill="#000000" font-family="sans-serif" font-size="9.6" lengthAdjust="spacingAndGlyphs" textLength="58.4" x="496.8" y="329.5281">UserSession</text><line style="stroke: #A80036; stroke-width: 1.2000000000000002;" x1="474.4" x2="556.8" y1="338.4" y2="338.4"/><line style="stroke: #A80036; stroke-width: 1.2000000000000002;" x1="474.4" x2="556.8" y1="344.8" y2="344.8"/><text fill="#000000" font-family="sans-serif" font-size="8.8" lengthAdjust="spacingAndGlyphs" textLength="60.8" x="478.4" y="357.1352">+getUserEmail()</text><!--MD5=[3fd616f346a44cd59a91eb10b19e157c]
class User--><rect fill="#FEFECE" filter="url(#fvm47nbppmcj8)" height="71.6063" id="User" style="stroke: #A80036; stroke-width: 1.2000000000000002;" width="77.6" x="271.2" y="833.2"/><ellipse cx="296.88" cy="846" fill="#ADD1B2" rx="8.8" ry="8.8" style="stroke: #A80036; stroke-width: 0.8;"/><path d="M298.48,843.2 Q298.6425,842.8 298.83,842.6 Q299.0175,842.4 299.23,842.4 Q299.605,842.4 299.8425,842.625 Q300.08,842.85 300.08,843.375 L300.08,844.625 Q300.08,845.15 299.855,845.375 Q299.63,845.6 299.28,845.6 Q298.9675,845.6 298.7675,845.4625 Q298.5675,845.325 298.48,844.9625 Q298.4425,844.7125 298.305,844.575 Q298.055,844.3125 297.605,844.1625 Q297.155,844 296.705,844 Q296.1425,844 295.6675,844.225 Q295.205,844.45 294.8425,844.95 Q294.48,845.45 294.48,846.1375 L294.48,846.875 Q294.48,847.7 295.155,848.25 Q295.83,848.8 297.03,848.8 Q297.7425,848.8 298.2425,848.6375 Q298.53,848.55 298.855,848.2625 Q299.0675,848.1 299.18,848.05 Q299.2925,848 299.43,848 Q299.6925,848 299.88,848.2125 Q300.08,848.4125 300.08,848.7 Q300.08,848.975 299.805,849.3 Q299.405,849.775 298.7675,850.0375 Q297.93,850.4 296.905,850.4 Q295.705,850.4 294.7425,849.925 Q293.9675,849.55 293.4175,848.7375 Q292.88,847.925 292.88,846.9625 L292.88,846.0875 Q292.88,845.0875 293.355,844.2125 Q293.8425,843.3375 294.68,842.875 Q295.53,842.4 296.48,842.4 Q297.055,842.4 297.555,842.6 Q298.055,842.8 298.48,843.2 Z "/><text fill="#000000" font-family="sans-serif" font-size="9.6" lengthAdjust="spacingAndGlyphs" textLength="21.6" x="311.12" y="849.9281">User</text><line style="stroke: #A80036; stroke-width: 1.2000000000000002;" x1="272" x2="348" y1="858.8" y2="858.8"/><text fill="#000000" font-family="sans-serif" font-size="8.8" lengthAdjust="spacingAndGlyphs" textLength="48.8" x="276" y="871.1352">-String name</text><text fill="#000000" font-family="sans-serif" font-size="8.8" lengthAdjust="spacingAndGlyphs" textLength="47.2" x="276" y="882.2039">-String email</text><text fill="#000000" font-family="sans-serif" font-size="8.8" lengthAdjust="spacingAndGlyphs" textLength="68" x="276" y="893.2727">-String password</text><line style="stroke: #A80036; stroke-width: 1.2000000000000002;" x1="272" x2="348" y1="898.4063" y2="898.4063"/><!--MD5=[f483d6e5de34a60207b28a5563be5e8b]
class Collaborator--><rect fill="#FEFECE" filter="url(#fvm47nbppmcj8)" height="60.5375" id="Collaborator" style="stroke: #A80036; stroke-width: 1.2000000000000002;" width="80" x="442" y="704.8"/><ellipse cx="454" cy="717.6" fill="#ADD1B2" rx="8.8" ry="8.8" style="stroke: #A80036; stroke-width: 0.8;"/><path d="M455.6,714.8 Q455.7625,714.4 455.95,714.2 Q456.1375,714 456.35,714 Q456.725,714 456.9625,714.225 Q457.2,714.45 457.2,714.975 L457.2,716.225 Q457.2,716.75 456.975,716.975 Q456.75,717.2 456.4,717.2 Q456.0875,717.2 455.8875,717.0625 Q455.6875,716.925 455.6,716.5625 Q455.5625,716.3125 455.425,716.175 Q455.175,715.9125 454.725,715.7625 Q454.275,715.6 453.825,715.6 Q453.2625,715.6 452.7875,715.825 Q452.325,716.05 451.9625,716.55 Q451.6,717.05 451.6,717.7375 L451.6,718.475 Q451.6,719.3 452.275,719.85 Q452.95,720.4 454.15,720.4 Q454.8625,720.4 455.3625,720.2375 Q455.65,720.15 455.975,719.8625 Q456.1875,719.7 456.3,719.65 Q456.4125,719.6 456.55,719.6 Q456.8125,719.6 457,719.8125 Q457.2,720.0125 457.2,720.3 Q457.2,720.575 456.925,720.9 Q456.525,721.375 455.8875,721.6375 Q455.05,722 454.025,722 Q452.825,722 451.8625,721.525 Q451.0875,721.15 450.5375,720.3375 Q450,719.525 450,718.5625 L450,717.6875 Q450,716.6875 450.475,715.8125 Q450.9625,714.9375 451.8,714.475 Q452.65,714 453.6,714 Q454.175,714 454.675,714.2 Q455.175,714.4 455.6,714.8 Z "/><text fill="#000000" font-family="sans-serif" font-size="9.6" lengthAdjust="spacingAndGlyphs" textLength="54.4" x="465.2" y="721.5281">Collaborator</text><line style="stroke: #A80036; stroke-width: 1.2000000000000002;" x1="442.8" x2="521.2" y1="730.4" y2="730.4"/><text fill="#000000" font-family="sans-serif" font-size="8.8" lengthAdjust="spacingAndGlyphs" textLength="48.8" x="446.8" y="742.7352">-String name</text><text fill="#000000" font-family="sans-serif" font-size="8.8" lengthAdjust="spacingAndGlyphs" textLength="47.2" x="446.8" y="753.8039">-String email</text><line style="stroke: #A80036; stroke-width: 1.2000000000000002;" x1="442.8" x2="521.2" y1="758.9375" y2="758.9375"/><!--MD5=[1f687b5315377fe49fca59b457947463]
class Freelancer--><rect fill="#FEFECE" filter="url(#fvm47nbppmcj8)" height="126.95" id="Freelancer" style="stroke: #A80036; stroke-width: 1.2000000000000002;" width="220.8" x="162" y="972.8"/><ellipse cx="245.4" cy="985.6" fill="#ADD1B2" rx="8.8" ry="8.8" style="stroke: #A80036; stroke-width: 0.8;"/><path d="M247,982.8 Q247.1625,982.4 247.35,982.2 Q247.5375,982 247.75,982 Q248.125,982 248.3625,982.225 Q248.6,982.45 248.6,982.975 L248.6,984.225 Q248.6,984.75 248.375,984.975 Q248.15,985.2 247.8,985.2 Q247.4875,985.2 247.2875,985.0625 Q247.0875,984.925 247,984.5625 Q246.9625,984.3125 246.825,984.175 Q246.575,983.9125 246.125,983.7625 Q245.675,983.6 245.225,983.6 Q244.6625,983.6 244.1875,983.825 Q243.725,984.05 243.3625,984.55 Q243,985.05 243,985.7375 L243,986.475 Q243,987.3 243.675,987.85 Q244.35,988.4 245.55,988.4 Q246.2625,988.4 246.7625,988.2375 Q247.05,988.15 247.375,987.8625 Q247.5875,987.7 247.7,987.65 Q247.8125,987.6 247.95,987.6 Q248.2125,987.6 248.4,987.8125 Q248.6,988.0125 248.6,988.3 Q248.6,988.575 248.325,988.9 Q247.925,989.375 247.2875,989.6375 Q246.45,990 245.425,990 Q244.225,990 243.2625,989.525 Q242.4875,989.15 241.9375,988.3375 Q241.4,987.525 241.4,986.5625 L241.4,985.6875 Q241.4,984.6875 241.875,983.8125 Q242.3625,982.9375 243.2,982.475 Q244.05,982 245,982 Q245.575,982 246.075,982.2 Q246.575,982.4 247,982.8 Z "/><text fill="#000000" font-family="sans-serif" font-size="9.6" lengthAdjust="spacingAndGlyphs" textLength="47.2" x="261.8" y="989.5281">Freelancer</text><line style="stroke: #A80036; stroke-width: 1.2000000000000002;" x1="162.8" x2="382" y1="998.4" y2="998.4"/><text fill="#000000" font-family="sans-serif" font-size="8.8" lengthAdjust="spacingAndGlyphs" textLength="34.4" x="166.8" y="1010.7352">-String id</text><text fill="#000000" font-family="sans-serif" font-size="8.8" lengthAdjust="spacingAndGlyphs" textLength="48.8" x="166.8" y="1021.8039">-String name</text><text fill="#000000" font-family="sans-serif" font-size="8.8" lengthAdjust="spacingAndGlyphs" textLength="47.2" x="166.8" y="1032.8727">-String email</text><text fill="#000000" font-family="sans-serif" font-size="8.8" lengthAdjust="spacingAndGlyphs" textLength="44" x="166.8" y="1043.9414">-Integer NIF</text><text fill="#000000" font-family="sans-serif" font-size="8.8" lengthAdjust="spacingAndGlyphs" textLength="51.2" x="166.8" y="1055.0102">-Integer IBAN</text><text fill="#000000" font-family="sans-serif" font-size="8.8" lengthAdjust="spacingAndGlyphs" textLength="96" x="166.8" y="1066.0789">-double OverallPayments</text><line style="stroke: #A80036; stroke-width: 1.2000000000000002;" x1="162.8" x2="382" y1="1071.2125" y2="1071.2125"/><text fill="#000000" font-family="sans-serif" font-size="8.8" lengthAdjust="spacingAndGlyphs" textLength="211.2" x="166.8" y="1083.5477">+Freelancer(id,name,email,NIF,IBAN,level,freeLocation)</text><text fill="#000000" font-family="sans-serif" font-size="8.8" lengthAdjust="spacingAndGlyphs" textLength="70.4" x="166.8" y="1094.6164">+setPayment(pay)</text><!--MD5=[df909109709f5b2613d89a5237084a29]
class FreelancersRegister--><rect fill="#FEFECE" filter="url(#fvm47nbppmcj8)" height="71.6063" id="FreelancersRegister" style="stroke: #A80036; stroke-width: 1.2000000000000002;" width="116" x="4.8" y="436"/><ellipse cx="16.8" cy="448.8" fill="#ADD1B2" rx="8.8" ry="8.8" style="stroke: #A80036; stroke-width: 0.8;"/><path d="M18.4,446 Q18.5625,445.6 18.75,445.4 Q18.9375,445.2 19.15,445.2 Q19.525,445.2 19.7625,445.425 Q20,445.65 20,446.175 L20,447.425 Q20,447.95 19.775,448.175 Q19.55,448.4 19.2,448.4 Q18.8875,448.4 18.6875,448.2625 Q18.4875,448.125 18.4,447.7625 Q18.3625,447.5125 18.225,447.375 Q17.975,447.1125 17.525,446.9625 Q17.075,446.8 16.625,446.8 Q16.0625,446.8 15.5875,447.025 Q15.125,447.25 14.7625,447.75 Q14.4,448.25 14.4,448.9375 L14.4,449.675 Q14.4,450.5 15.075,451.05 Q15.75,451.6 16.95,451.6 Q17.6625,451.6 18.1625,451.4375 Q18.45,451.35 18.775,451.0625 Q18.9875,450.9 19.1,450.85 Q19.2125,450.8 19.35,450.8 Q19.6125,450.8 19.8,451.0125 Q20,451.2125 20,451.5 Q20,451.775 19.725,452.1 Q19.325,452.575 18.6875,452.8375 Q17.85,453.2 16.825,453.2 Q15.625,453.2 14.6625,452.725 Q13.8875,452.35 13.3375,451.5375 Q12.8,450.725 12.8,449.7625 L12.8,448.8875 Q12.8,447.8875 13.275,447.0125 Q13.7625,446.1375 14.6,445.675 Q15.45,445.2 16.4,445.2 Q16.975,445.2 17.475,445.4 Q17.975,445.6 18.4,446 Z "/><text fill="#000000" font-family="sans-serif" font-size="9.6" lengthAdjust="spacingAndGlyphs" textLength="90.4" x="28" y="452.7281">FreelancersRegister</text><line style="stroke: #A80036; stroke-width: 1.2000000000000002;" x1="5.6" x2="120" y1="461.6" y2="461.6"/><line style="stroke: #A80036; stroke-width: 1.2000000000000002;" x1="5.6" x2="120" y1="468" y2="468"/><text fill="#000000" font-family="sans-serif" font-size="8.8" lengthAdjust="spacingAndGlyphs" textLength="60" x="9.6" y="480.3352">+contains(free)</text><text fill="#000000" font-family="sans-serif" font-size="8.8" lengthAdjust="spacingAndGlyphs" textLength="83.2" x="9.6" y="491.4039">+addFreelancer(free)</text><text fill="#000000" font-family="sans-serif" font-size="8.8" lengthAdjust="spacingAndGlyphs" textLength="104.8" x="9.6" y="502.4727">+getFreelancerById(freeID)</text><!--MD5=[5b387e0e958626cd8cbfab96fbdae709]
class LevelOfExpertise--><rect fill="#FEFECE" filter="url(#fvm47nbppmcj8)" height="60.5375" id="LevelOfExpertise" style="stroke: #A80036; stroke-width: 1.2000000000000002;" width="99.2" x="154.8" y="1184.4"/><ellipse cx="166.8" cy="1197.2" fill="#EB937F" rx="8.8" ry="8.8" style="stroke: #A80036; stroke-width: 0.8;"/><path d="M165.6,1198 L165.6,1199.6 L168.8,1199.6 L168.8,1198.8 L168.8,1198.4125 L169.3,1198 L169.6,1198 L169.9,1198 L170.4,1198.4125 L170.4,1198.8 L170.4,1201.2 L164,1201.2 L163.6125,1201.2 L163.2,1200.7 L163.2,1200.4 L163.2,1200.1 L163.6125,1199.6 L164,1199.6 L164,1199.6 L164,1194.8 L164,1194.8 L163.6125,1194.8 L163.2,1194.3 L163.2,1194 L163.2,1193.7 L163.6125,1193.2 L164,1193.2 L170.4,1193.2 L170.4,1195.6 L170.4,1195.9875 L169.9,1196.4 L169.6,1196.4 L169.3,1196.4 L168.8,1195.9875 L168.8,1195.6 L168.8,1194.8 L165.6,1194.8 L165.6,1196.4 L166.4,1196.4 L166.4,1196.0125 L166.4,1196.0125 L166.9,1195.6 L167.2,1195.6 L167.5,1195.6 L168,1196.0125 L168,1196.4 L168,1198 L168,1198.3875 L167.5,1198.8 L167.5,1198.8 L167.2,1198.8 L166.9,1198.8 L166.4,1198.3875 L166.4,1198.3875 L166.4,1198 L165.6,1198 Z "/><text fill="#000000" font-family="sans-serif" font-size="9.6" lengthAdjust="spacingAndGlyphs" textLength="73.6" x="178" y="1201.1281">LevelOfExpertise</text><line style="stroke: #A80036; stroke-width: 1.2000000000000002;" x1="155.6" x2="253.2" y1="1210" y2="1210"/><text fill="#000000" font-family="sans-serif" font-size="8.8" lengthAdjust="spacingAndGlyphs" textLength="32" x="159.6" y="1222.3352">-JUNIOR</text><text fill="#000000" font-family="sans-serif" font-size="8.8" lengthAdjust="spacingAndGlyphs" textLength="32.8" x="159.6" y="1233.4039">-SENIOR</text><line style="stroke: #A80036; stroke-width: 1.2000000000000002;" x1="155.6" x2="253.2" y1="1238.5375" y2="1238.5375"/><!--MD5=[4f1f3706c1a355a8488e154afcaed5df]
class Location--><rect fill="#FEFECE" filter="url(#fvm47nbppmcj8)" height="71.6063" id="Location" style="stroke: #A80036; stroke-width: 1.2000000000000002;" width="117.6" x="282.4" y="1178.8"/><ellipse cx="319" cy="1191.6" fill="#ADD1B2" rx="8.8" ry="8.8" style="stroke: #A80036; stroke-width: 0.8;"/><path d="M320.6,1188.8 Q320.7625,1188.4 320.95,1188.2 Q321.1375,1188 321.35,1188 Q321.725,1188 321.9625,1188.225 Q322.2,1188.45 322.2,1188.975 L322.2,1190.225 Q322.2,1190.75 321.975,1190.975 Q321.75,1191.2 321.4,1191.2 Q321.0875,1191.2 320.8875,1191.0625 Q320.6875,1190.925 320.6,1190.5625 Q320.5625,1190.3125 320.425,1190.175 Q320.175,1189.9125 319.725,1189.7625 Q319.275,1189.6 318.825,1189.6 Q318.2625,1189.6 317.7875,1189.825 Q317.325,1190.05 316.9625,1190.55 Q316.6,1191.05 316.6,1191.7375 L316.6,1192.475 Q316.6,1193.3 317.275,1193.85 Q317.95,1194.4 319.15,1194.4 Q319.8625,1194.4 320.3625,1194.2375 Q320.65,1194.15 320.975,1193.8625 Q321.1875,1193.7 321.3,1193.65 Q321.4125,1193.6 321.55,1193.6 Q321.8125,1193.6 322,1193.8125 Q322.2,1194.0125 322.2,1194.3 Q322.2,1194.575 321.925,1194.9 Q321.525,1195.375 320.8875,1195.6375 Q320.05,1196 319.025,1196 Q317.825,1196 316.8625,1195.525 Q316.0875,1195.15 315.5375,1194.3375 Q315,1193.525 315,1192.5625 L315,1191.6875 Q315,1190.6875 315.475,1189.8125 Q315.9625,1188.9375 316.8,1188.475 Q317.65,1188 318.6,1188 Q319.175,1188 319.675,1188.2 Q320.175,1188.4 320.6,1188.8 Z "/><text fill="#000000" font-family="sans-serif" font-size="9.6" lengthAdjust="spacingAndGlyphs" textLength="37.6" x="335.4" y="1195.5281">Location</text><line style="stroke: #A80036; stroke-width: 1.2000000000000002;" x1="283.2" x2="399.2" y1="1204.4" y2="1204.4"/><text fill="#000000" font-family="sans-serif" font-size="8.8" lengthAdjust="spacingAndGlyphs" textLength="60" x="287.2" y="1216.7352">-String address</text><text fill="#000000" font-family="sans-serif" font-size="8.8" lengthAdjust="spacingAndGlyphs" textLength="57.6" x="287.2" y="1227.8039">-String country</text><line style="stroke: #A80036; stroke-width: 1.2000000000000002;" x1="283.2" x2="399.2" y1="1232.9375" y2="1232.9375"/><text fill="#000000" font-family="sans-serif" font-size="8.8" lengthAdjust="spacingAndGlyphs" textLength="108" x="287.2" y="1245.2727">+Location(address,country)</text><!--MD5=[b645a18afb25b7e5623af7186d8eb36f]
class PaymentTransaction--><rect fill="#FEFECE" filter="url(#fvm47nbppmcj8)" height="82.675" id="PaymentTransaction" style="stroke: #A80036; stroke-width: 1.2000000000000002;" width="163.2" x="531.6" y="828"/><ellipse cx="564.84" cy="840.8" fill="#ADD1B2" rx="8.8" ry="8.8" style="stroke: #A80036; stroke-width: 0.8;"/><path d="M566.44,838 Q566.6025,837.6 566.79,837.4 Q566.9775,837.2 567.19,837.2 Q567.565,837.2 567.8025,837.425 Q568.04,837.65 568.04,838.175 L568.04,839.425 Q568.04,839.95 567.815,840.175 Q567.59,840.4 567.24,840.4 Q566.9275,840.4 566.7275,840.2625 Q566.5275,840.125 566.44,839.7625 Q566.4025,839.5125 566.265,839.375 Q566.015,839.1125 565.565,838.9625 Q565.115,838.8 564.665,838.8 Q564.1025,838.8 563.6275,839.025 Q563.165,839.25 562.8025,839.75 Q562.44,840.25 562.44,840.9375 L562.44,841.675 Q562.44,842.5 563.115,843.05 Q563.79,843.6 564.99,843.6 Q565.7025,843.6 566.2025,843.4375 Q566.49,843.35 566.815,843.0625 Q567.0275,842.9 567.14,842.85 Q567.2525,842.8 567.39,842.8 Q567.6525,842.8 567.84,843.0125 Q568.04,843.2125 568.04,843.5 Q568.04,843.775 567.765,844.1 Q567.365,844.575 566.7275,844.8375 Q565.89,845.2 564.865,845.2 Q563.665,845.2 562.7025,844.725 Q561.9275,844.35 561.3775,843.5375 Q560.84,842.725 560.84,841.7625 L560.84,840.8875 Q560.84,839.8875 561.315,839.0125 Q561.8025,838.1375 562.64,837.675 Q563.49,837.2 564.44,837.2 Q565.015,837.2 565.515,837.4 Q566.015,837.6 566.44,838 Z "/><text fill="#000000" font-family="sans-serif" font-size="9.6" lengthAdjust="spacingAndGlyphs" textLength="90.4" x="580.76" y="844.7281">PaymentTransaction</text><line style="stroke: #A80036; stroke-width: 1.2000000000000002;" x1="532.4" x2="694" y1="853.6" y2="853.6"/><text fill="#000000" font-family="sans-serif" font-size="8.8" lengthAdjust="spacingAndGlyphs" textLength="34.4" x="536.4" y="865.9352">-String id</text><text fill="#000000" font-family="sans-serif" font-size="8.8" lengthAdjust="spacingAndGlyphs" textLength="46.4" x="536.4" y="877.0039">-Integer day</text><text fill="#000000" font-family="sans-serif" font-size="8.8" lengthAdjust="spacingAndGlyphs" textLength="49.6" x="536.4" y="888.0727">-Integer hour</text><line style="stroke: #A80036; stroke-width: 1.2000000000000002;" x1="532.4" x2="694" y1="893.2063" y2="893.2063"/><text fill="#000000" font-family="sans-serif" font-size="8.8" lengthAdjust="spacingAndGlyphs" textLength="153.6" x="536.4" y="905.5414">+PaymentTransaction(transID,free,task)</text><!--MD5=[ba54b1997298830925be59f10364c919]
class PaymentTransactionList--><rect fill="#FEFECE" filter="url(#fvm47nbppmcj8)" height="60.5375" id="PaymentTransactionList" style="stroke: #A80036; stroke-width: 1.2000000000000002;" width="132" x="635.2" y="704.8"/><ellipse cx="647.2" cy="717.6" fill="#ADD1B2" rx="8.8" ry="8.8" style="stroke: #A80036; stroke-width: 0.8;"/><path d="M648.8,714.8 Q648.9625,714.4 649.15,714.2 Q649.3375,714 649.55,714 Q649.925,714 650.1625,714.225 Q650.4,714.45 650.4,714.975 L650.4,716.225 Q650.4,716.75 650.175,716.975 Q649.95,717.2 649.6,717.2 Q649.2875,717.2 649.0875,717.0625 Q648.8875,716.925 648.8,716.5625 Q648.7625,716.3125 648.625,716.175 Q648.375,715.9125 647.925,715.7625 Q647.475,715.6 647.025,715.6 Q646.4625,715.6 645.9875,715.825 Q645.525,716.05 645.1625,716.55 Q644.8,717.05 644.8,717.7375 L644.8,718.475 Q644.8,719.3 645.475,719.85 Q646.15,720.4 647.35,720.4 Q648.0625,720.4 648.5625,720.2375 Q648.85,720.15 649.175,719.8625 Q649.3875,719.7 649.5,719.65 Q649.6125,719.6 649.75,719.6 Q650.0125,719.6 650.2,719.8125 Q650.4,720.0125 650.4,720.3 Q650.4,720.575 650.125,720.9 Q649.725,721.375 649.0875,721.6375 Q648.25,722 647.225,722 Q646.025,722 645.0625,721.525 Q644.2875,721.15 643.7375,720.3375 Q643.2,719.525 643.2,718.5625 L643.2,717.6875 Q643.2,716.6875 643.675,715.8125 Q644.1625,714.9375 645,714.475 Q645.85,714 646.8,714 Q647.375,714 647.875,714.2 Q648.375,714.4 648.8,714.8 Z "/><text fill="#000000" font-family="sans-serif" font-size="9.6" lengthAdjust="spacingAndGlyphs" textLength="106.4" x="658.4" y="721.5281">PaymentTransactionList</text><line style="stroke: #A80036; stroke-width: 1.2000000000000002;" x1="636" x2="766.4" y1="730.4" y2="730.4"/><line style="stroke: #A80036; stroke-width: 1.2000000000000002;" x1="636" x2="766.4" y1="736.8" y2="736.8"/><text fill="#000000" font-family="sans-serif" font-size="8.8" lengthAdjust="spacingAndGlyphs" textLength="58.4" x="640" y="749.1352">+contains(pay)</text><text fill="#000000" font-family="sans-serif" font-size="8.8" lengthAdjust="spacingAndGlyphs" textLength="118.4" x="640" y="760.2039">+addPaymentTransaction(pay)</text><!--MD5=[b34797a66dc35cbf1d65f7e3ca75530e]
class Task--><rect fill="#FEFECE" filter="url(#fvm47nbppmcj8)" height="104.8125" id="Task" style="stroke: #A80036; stroke-width: 1.2000000000000002;" width="240.8" x="616.8" y="1162.4"/><ellipse cx="723" cy="1175.2" fill="#ADD1B2" rx="8.8" ry="8.8" style="stroke: #A80036; stroke-width: 0.8;"/><path d="M724.6,1172.4 Q724.7625,1172 724.95,1171.8 Q725.1375,1171.6 725.35,1171.6 Q725.725,1171.6 725.9625,1171.825 Q726.2,1172.05 726.2,1172.575 L726.2,1173.825 Q726.2,1174.35 725.975,1174.575 Q725.75,1174.8 725.4,1174.8 Q725.0875,1174.8 724.8875,1174.6625 Q724.6875,1174.525 724.6,1174.1625 Q724.5625,1173.9125 724.425,1173.775 Q724.175,1173.5125 723.725,1173.3625 Q723.275,1173.2 722.825,1173.2 Q722.2625,1173.2 721.7875,1173.425 Q721.325,1173.65 720.9625,1174.15 Q720.6,1174.65 720.6,1175.3375 L720.6,1176.075 Q720.6,1176.9 721.275,1177.45 Q721.95,1178 723.15,1178 Q723.8625,1178 724.3625,1177.8375 Q724.65,1177.75 724.975,1177.4625 Q725.1875,1177.3 725.3,1177.25 Q725.4125,1177.2 725.55,1177.2 Q725.8125,1177.2 726,1177.4125 Q726.2,1177.6125 726.2,1177.9 Q726.2,1178.175 725.925,1178.5 Q725.525,1178.975 724.8875,1179.2375 Q724.05,1179.6 723.025,1179.6 Q721.825,1179.6 720.8625,1179.125 Q720.0875,1178.75 719.5375,1177.9375 Q719,1177.125 719,1176.1625 L719,1175.2875 Q719,1174.2875 719.475,1173.4125 Q719.9625,1172.5375 720.8,1172.075 Q721.65,1171.6 722.6,1171.6 Q723.175,1171.6 723.675,1171.8 Q724.175,1172 724.6,1172.4 Z "/><text fill="#000000" font-family="sans-serif" font-size="9.6" lengthAdjust="spacingAndGlyphs" textLength="21.6" x="739.4" y="1179.1281">Task</text><line style="stroke: #A80036; stroke-width: 1.2000000000000002;" x1="617.6" x2="856.8" y1="1188" y2="1188"/><text fill="#000000" font-family="sans-serif" font-size="8.8" lengthAdjust="spacingAndGlyphs" textLength="34.4" x="621.6" y="1200.3352">-String id</text><text fill="#000000" font-family="sans-serif" font-size="8.8" lengthAdjust="spacingAndGlyphs" textLength="88.8" x="621.6" y="1211.4039">-String briefDescription</text><text fill="#000000" font-family="sans-serif" font-size="8.8" lengthAdjust="spacingAndGlyphs" textLength="79.2" x="621.6" y="1222.4727">-Double timeDuration</text><text fill="#000000" font-family="sans-serif" font-size="8.8" lengthAdjust="spacingAndGlyphs" textLength="80" x="621.6" y="1233.5414">-Double costPerHour</text><text fill="#000000" font-family="sans-serif" font-size="8.8" lengthAdjust="spacingAndGlyphs" textLength="62.4" x="621.6" y="1244.6102">-String category</text><line style="stroke: #A80036; stroke-width: 1.2000000000000002;" x1="617.6" x2="856.8" y1="1249.7438" y2="1249.7438"/><text fill="#000000" font-family="sans-serif" font-size="8.8" lengthAdjust="spacingAndGlyphs" textLength="231.2" x="621.6" y="1262.0789">+Task(taskID,taskDesc,taskDuration,taskCost,taskCategory)</text><!--MD5=[bfe5ad1e6c67e1aa0bfa76859c3b49e3]
class TasksList--><rect fill="#FEFECE" filter="url(#fvm47nbppmcj8)" height="60.5375" id="TasksList" style="stroke: #A80036; stroke-width: 1.2000000000000002;" width="69.6" x="852.8" y="704.8"/><ellipse cx="865.16" cy="717.6" fill="#ADD1B2" rx="8.8" ry="8.8" style="stroke: #A80036; stroke-width: 0.8;"/><path d="M866.76,714.8 Q866.9225,714.4 867.11,714.2 Q867.2975,714 867.51,714 Q867.885,714 868.1225,714.225 Q868.36,714.45 868.36,714.975 L868.36,716.225 Q868.36,716.75 868.135,716.975 Q867.91,717.2 867.56,717.2 Q867.2475,717.2 867.0475,717.0625 Q866.8475,716.925 866.76,716.5625 Q866.7225,716.3125 866.585,716.175 Q866.335,715.9125 865.885,715.7625 Q865.435,715.6 864.985,715.6 Q864.4225,715.6 863.9475,715.825 Q863.485,716.05 863.1225,716.55 Q862.76,717.05 862.76,717.7375 L862.76,718.475 Q862.76,719.3 863.435,719.85 Q864.11,720.4 865.31,720.4 Q866.0225,720.4 866.5225,720.2375 Q866.81,720.15 867.135,719.8625 Q867.3475,719.7 867.46,719.65 Q867.5725,719.6 867.71,719.6 Q867.9725,719.6 868.16,719.8125 Q868.36,720.0125 868.36,720.3 Q868.36,720.575 868.085,720.9 Q867.685,721.375 867.0475,721.6375 Q866.21,722 865.185,722 Q863.985,722 863.0225,721.525 Q862.2475,721.15 861.6975,720.3375 Q861.16,719.525 861.16,718.5625 L861.16,717.6875 Q861.16,716.6875 861.635,715.8125 Q862.1225,714.9375 862.96,714.475 Q863.81,714 864.76,714 Q865.335,714 865.835,714.2 Q866.335,714.4 866.76,714.8 Z "/><text fill="#000000" font-family="sans-serif" font-size="9.6" lengthAdjust="spacingAndGlyphs" textLength="43.2" x="876.44" y="721.5281">TasksList</text><line style="stroke: #A80036; stroke-width: 1.2000000000000002;" x1="853.6" x2="921.6" y1="730.4" y2="730.4"/><line style="stroke: #A80036; stroke-width: 1.2000000000000002;" x1="853.6" x2="921.6" y1="736.8" y2="736.8"/><text fill="#000000" font-family="sans-serif" font-size="8.8" lengthAdjust="spacingAndGlyphs" textLength="60" x="857.6" y="749.1352">+contains(task)</text><text fill="#000000" font-family="sans-serif" font-size="8.8" lengthAdjust="spacingAndGlyphs" textLength="60" x="857.6" y="760.2039">+addTask(task)</text><!--MD5=[5ce80547de3caced9d0089e35ded5090]
class TaskExecution--><rect fill="#FEFECE" filter="url(#fvm47nbppmcj8)" height="71.6063" id="TaskExecution" style="stroke: #A80036; stroke-width: 1.2000000000000002;" width="103.2" x="511.2" y="1329.6"/><ellipse cx="529.32" cy="1342.4" fill="#ADD1B2" rx="8.8" ry="8.8" style="stroke: #A80036; stroke-width: 0.8;"/><path d="M530.92,1339.6 Q531.0825,1339.2 531.27,1339 Q531.4575,1338.8 531.67,1338.8 Q532.045,1338.8 532.2825,1339.025 Q532.52,1339.25 532.52,1339.775 L532.52,1341.025 Q532.52,1341.55 532.295,1341.775 Q532.07,1342 531.72,1342 Q531.4075,1342 531.2075,1341.8625 Q531.0075,1341.725 530.92,1341.3625 Q530.8825,1341.1125 530.745,1340.975 Q530.495,1340.7125 530.045,1340.5625 Q529.595,1340.4 529.145,1340.4 Q528.5825,1340.4 528.1075,1340.625 Q527.645,1340.85 527.2825,1341.35 Q526.92,1341.85 526.92,1342.5375 L526.92,1343.275 Q526.92,1344.1 527.595,1344.65 Q528.27,1345.2 529.47,1345.2 Q530.1825,1345.2 530.6825,1345.0375 Q530.97,1344.95 531.295,1344.6625 Q531.5075,1344.5 531.62,1344.45 Q531.7325,1344.4 531.87,1344.4 Q532.1325,1344.4 532.32,1344.6125 Q532.52,1344.8125 532.52,1345.1 Q532.52,1345.375 532.245,1345.7 Q531.845,1346.175 531.2075,1346.4375 Q530.37,1346.8 529.345,1346.8 Q528.145,1346.8 527.1825,1346.325 Q526.4075,1345.95 525.8575,1345.1375 Q525.32,1344.325 525.32,1343.3625 L525.32,1342.4875 Q525.32,1341.4875 525.795,1340.6125 Q526.2825,1339.7375 527.12,1339.275 Q527.97,1338.8 528.92,1338.8 Q529.495,1338.8 529.995,1339 Q530.495,1339.2 530.92,1339.6 Z "/><text fill="#000000" font-family="sans-serif" font-size="9.6" lengthAdjust="spacingAndGlyphs" textLength="64" x="541.88" y="1346.3281">TaskExecution</text><line style="stroke: #A80036; stroke-width: 1.2000000000000002;" x1="512" x2="613.6" y1="1355.2" y2="1355.2"/><text fill="#000000" font-family="sans-serif" font-size="8.8" lengthAdjust="spacingAndGlyphs" textLength="55.2" x="516" y="1367.5352">-Date deadline</text><text fill="#000000" font-family="sans-serif" font-size="8.8" lengthAdjust="spacingAndGlyphs" textLength="52.8" x="516" y="1378.6039">-Double delay</text><text fill="#000000" font-family="sans-serif" font-size="8.8" lengthAdjust="spacingAndGlyphs" textLength="93.6" x="516" y="1389.6727">-String descQualityWork</text><line style="stroke: #A80036; stroke-width: 1.2000000000000002;" x1="512" x2="613.6" y1="1394.8063" y2="1394.8063"/><!--MD5=[346e504e701c2e8bd5141721eed499b2]
link LoadTransactionsFileUI to LoadTransactionsFileController--><path d="M600.4,44.832 C600.4,58.552 600.4,77.552 600.4,93.416 " fill="none" id="LoadTransactionsFileUI-LoadTransactionsFileController" style="stroke: #A80036; stroke-width: 0.8; stroke-dasharray: 7.0,7.0;"/><!--MD5=[cd4e375f257d84dabc0817c480882b83]
link LoadTransactionsFileController to LoadFromCsvTxt--><path d="M600.4,154.416 C600.4,168.44 600.4,185.112 600.4,198.96 " fill="none" id="LoadTransactionsFileController-&gt;LoadFromCsvTxt" style="stroke: #A80036; stroke-width: 0.8; stroke-dasharray: 7.0,7.0;"/><polygon fill="#A80036" points="600.4,203.16,603.6,195.96,600.4,199.16,597.2,195.96,600.4,203.16" style="stroke: #A80036; stroke-width: 0.8;"/><!--MD5=[6faeda49d5d4b0b1b96a2c127172ca97]
link LoadFromCsvTxt to Platform--><path d="M550.22,239.88 C496.7696,252.336 410.1072,274.416 338,301.6 C333.5336,303.28 328.9696,305.144 324.4128,307.096 " fill="none" id="LoadFromCsvTxt-Platform" style="stroke: #A80036; stroke-width: 0.8;"/><!--MD5=[a26f030c39fffe3182de09288cba80b6]
link LoadFromCsvTxt to Freelancer--><path d="M550.2936,230.656 C435.56,236.272 163.6,257.904 163.6,336.8 C163.6,336.8 163.6,336.8 163.6,870 C163.6,908.012 183.8712,944.0624 206.9136,972.7624 " fill="none" id="LoadFromCsvTxt-Freelancer" style="stroke: #A80036; stroke-width: 0.8;"/><!--MD5=[d75328bafdad057435a48de8a068313d]
link LoadFromCsvTxt to FreelancersRegister--><path d="M550.3512,231.176 C438.3776,236.896 174.9168,252.768 142.8,276.8 C91.9576,314.848 73.2711,390.984 66.5165,435.856 " fill="none" id="LoadFromCsvTxt-FreelancersRegister" style="stroke: #A80036; stroke-width: 0.8;"/><!--MD5=[a50a316bc4f4523cf0ce557c5f0f4591]
link LoadFromCsvTxt to Task--><path d="M650.7408,233.112 C750.8152,243.08 965.2,271.984 965.2,336.8 C965.2,336.8 965.2,336.8 965.2,1037.2 C965.2,1098.8104 912.568,1142.0312 857.88,1170.3112 " fill="none" id="LoadFromCsvTxt-Task" style="stroke: #A80036; stroke-width: 0.8;"/><!--MD5=[e3fa8be1429414ff22d82e541b68413b]
link LoadFromCsvTxt to OrganizationsRegister--><path d="M612.3176,253.024 C615.6072,260.504 618.9,268.864 621.2,276.8 C638.5496,336.68 646.612,409.984 649.8112,447.136 " fill="none" id="LoadFromCsvTxt-OrganizationsRegister" style="stroke: #A80036; stroke-width: 0.8;"/><!--MD5=[e5240a3ad3f941e5e84fa13333487547]
link LoadFromCsvTxt to Organization--><path d="M624.32,252.888 C658.2056,288.992 718.4192,360.928 739.6,436 C748.2888,466.8 749.3536,477.52 739.6,508 C732.2736,530.896 717.3904,553 703.2608,570.36 " fill="none" id="LoadFromCsvTxt-Organization" style="stroke: #A80036; stroke-width: 0.8;"/><!--MD5=[fc8682a20859de08d005879eec01e1e2]
link LoadFromCsvTxt to AplicacaoPOT--><path d="M552.5256,252.84 C525.1456,266.768 490.2536,284.816 459.6,301.6 C455,304.12 450.2296,306.784 445.4768,309.48 " fill="none" id="LoadFromCsvTxt-AplicacaoPOT" style="stroke: #A80036; stroke-width: 0.8;"/><!--MD5=[f2155f783fba9c1dda2d85160254676a]
link LoadFromCsvTxt to UserSession--><path d="M581.3696,253.04 C567.4032,270.824 548.5184,294.872 534.5672,312.64 " fill="none" id="LoadFromCsvTxt-UserSession" style="stroke: #A80036; stroke-width: 0.8;"/><!--MD5=[15524d615aa19108cac60b61dae86d92]
link LoadFromCsvTxt to TasksList--><path d="M650.5712,235.792 C737.8464,249.376 908.4,282.824 908.4,336.8 C908.4,336.8 908.4,336.8 908.4,607.2 C908.4,640.8768 901.208,678.9192 895.288,704.5552 " fill="none" id="LoadFromCsvTxt-TasksList" style="stroke: #A80036; stroke-width: 0.8;"/><!--MD5=[8cad4faaf436b8db656e174d3a0ebcf0]
link LoadFromCsvTxt to PaymentTransactionList--><path d="M650.5696,231.328 C716.8232,237.68 825.2,259.84 825.2,336.8 C825.2,336.8 825.2,336.8 825.2,607.2 C825.2,649.2968 789.9464,682.6648 757.0336,704.6448 " fill="none" id="LoadFromCsvTxt-PaymentTransactionList" style="stroke: #A80036; stroke-width: 0.8;"/><!--MD5=[1d73aa551040e225ff6f15b4466625c7]
link LoadFromCsvTxt to Collaborator--><path d="M595.9552,252.96 C590.5728,281.76 581.048,331.328 571.6,373.6 C544.0096,497.056 506.1448,642.964 489.912,704.5776 " fill="none" id="LoadFromCsvTxt-Collaborator" style="stroke: #A80036; stroke-width: 0.8;"/><!--MD5=[7640e466c042ba2d6f9c19c816f7f0fc]
link Platform to Organization--><path d="M312.136,373.656 C322.52,381.504 333.4512,389.816 343.6,397.6 C406.9104,446.176 418.1912,464.664 485.2,508 C524.4264,533.368 570.9392,557.904 607.488,576.032 " fill="none" id="Platform-Organization" style="stroke: #A80036; stroke-width: 0.8;"/><text fill="#000000" font-family="sans-serif" font-size="10.4" lengthAdjust="spacingAndGlyphs" textLength="65.6" x="486" y="476.3961">has registered</text><polygon fill="#000000" points="554,470.9406,558.8,473.3406,554,475.7406,554,470.9406" style="stroke: #000000; stroke-width: 0.8;"/><text fill="#000000" font-family="sans-serif" font-size="10.4" lengthAdjust="spacingAndGlyphs" textLength="5.6" x="312.7426" y="390.4699">1</text><text fill="#000000" font-family="sans-serif" font-size="10.4" lengthAdjust="spacingAndGlyphs" textLength="4" x="597.1376" y="570.442">*</text><!--MD5=[22697d4d863c2e08ab1d60ca0d61f844]
link Platform to Freelancer--><path d="M258.8936,373.68 C248.5368,433.6 228.3584,559.2 221.2,666.4 C213.9784,774.5496 238.1256,899.2312 255.6848,972.512 " fill="none" id="Platform-Freelancer" style="stroke: #A80036; stroke-width: 0.8;"/><text fill="#000000" font-family="sans-serif" font-size="10.4" lengthAdjust="spacingAndGlyphs" textLength="65.6" x="222" y="677.9961">has registered</text><polygon fill="#000000" points="251.2,685.0813,253.6,689.8813,256,685.0813,251.2,685.0813" style="stroke: #000000; stroke-width: 0.8;"/><text fill="#000000" font-family="sans-serif" font-size="10.4" lengthAdjust="spacingAndGlyphs" textLength="5.6" x="252.013" y="390.4973">1</text><text fill="#000000" font-family="sans-serif" font-size="10.4" lengthAdjust="spacingAndGlyphs" textLength="4" x="249.9595" y="964.0529">*</text><!--MD5=[0cdafcc0dad84b6396b2a91da681dfee]
link Platform to User--><path d="M270.656,373.72 C279.6648,433.712 297.4232,559.408 305.2,666.4 C309.4344,724.6536 310.1912,792.5792 310.2024,832.9544 " fill="none" id="Platform-User" style="stroke: #A80036; stroke-width: 0.8;"/><text fill="#000000" font-family="sans-serif" font-size="10.4" lengthAdjust="spacingAndGlyphs" textLength="65.6" x="304.4" y="610.7961">has registered</text><polygon fill="#000000" points="333.6,617.8813,336,622.6813,338.4,617.8813,333.6,617.8813" style="stroke: #000000; stroke-width: 0.8;"/><text fill="#000000" font-family="sans-serif" font-size="10.4" lengthAdjust="spacingAndGlyphs" textLength="5.6" x="265.4129" y="390.2751">1</text><text fill="#000000" font-family="sans-serif" font-size="10.4" lengthAdjust="spacingAndGlyphs" textLength="4" x="305.9271" y="824.4721">*</text><!--MD5=[2bdd875f101f8d9ad4b4e329d041cbcb]
link Platform to FreelancersRegister--><path d="M211.492,373.64 C183.3576,392.096 148.8896,414.712 120.2248,433.52 " fill="none" id="Platform-&gt;FreelancersRegister" style="stroke: #A80036; stroke-width: 0.8;"/><polygon fill="#A80036" points="116.7592,435.8,124.5353,434.5302,120.1049,433.6076,121.0275,429.1772,116.7592,435.8" style="stroke: #A80036; stroke-width: 0.8;"/><text fill="#000000" font-family="sans-serif" font-size="10.4" lengthAdjust="spacingAndGlyphs" textLength="16.8" x="171.6" y="409.1961">has</text><text fill="#000000" font-family="sans-serif" font-size="10.4" lengthAdjust="spacingAndGlyphs" textLength="5.6" x="197.9456" y="390.4517">1</text><text fill="#000000" font-family="sans-serif" font-size="10.4" lengthAdjust="spacingAndGlyphs" textLength="5.6" x="118.993" y="427.3246">1</text><!--MD5=[3f7871d02a16d6b89c0412ee54c5c9cc]
link Platform to OrganizationsRegister--><path d="M324.5592,368.336 C329.0624,370.224 333.5752,372.008 338,373.6 C380.0264,388.736 392.7288,385.048 435.6,397.6 C485.0568,412.08 540.0192,430.84 582.1248,445.8 " fill="none" id="Platform-&gt;OrganizationsRegister" style="stroke: #A80036; stroke-width: 0.8;"/><polygon fill="#A80036" points="585.9016,447.144,580.1892,441.7174,582.1326,445.8043,578.0457,447.7477,585.9016,447.144" style="stroke: #A80036; stroke-width: 0.8;"/><text fill="#000000" font-family="sans-serif" font-size="10.4" lengthAdjust="spacingAndGlyphs" textLength="16.8" x="478.8" y="409.1961">has</text><text fill="#000000" font-family="sans-serif" font-size="10.4" lengthAdjust="spacingAndGlyphs" textLength="5.6" x="330.9694" y="368.8765">1</text><text fill="#000000" font-family="sans-serif" font-size="10.4" lengthAdjust="spacingAndGlyphs" textLength="5.6" x="565.3176" y="438.348">1</text><!--MD5=[671281584d9f31afe2952e3f1643ff1c]
link FreelancersRegister to Freelancer--><path d="M71.0502,508.096 C76.5594,534.728 82.8,572.256 82.8,605.6 C82.8,605.6 82.8,605.6 82.8,870 C82.8,918.3544 118.2144,955.844 158.432,982.8288 " fill="none" id="FreelancersRegister-&gt;Freelancer" style="stroke: #A80036; stroke-width: 0.8;"/><polygon fill="#A80036" points="161.8344,985.0792,157.595,978.4379,158.4983,982.8723,154.0639,983.7756,161.8344,985.0792" style="stroke: #A80036; stroke-width: 0.8;"/><text fill="#000000" font-family="sans-serif" font-size="10.4" lengthAdjust="spacingAndGlyphs" textLength="16.8" x="83.6" y="739.5961">has</text><text fill="#000000" font-family="sans-serif" font-size="10.4" lengthAdjust="spacingAndGlyphs" textLength="5.6" x="66.2167" y="524.9156">1</text><text fill="#000000" font-family="sans-serif" font-size="10.4" lengthAdjust="spacingAndGlyphs" textLength="4" x="151.6785" y="979.9332">*</text><!--MD5=[ccf450c6077214c58353c6fa01b9a887]
link OrganizationsRegister to Organization--><path d="M654.932,496.848 C657.6032,516.128 661.4072,543.584 664.5248,566.088 " fill="none" id="OrganizationsRegister-&gt;Organization" style="stroke: #A80036; stroke-width: 0.8;"/><polygon fill="#A80036" points="665.0984,570.224,667.2808,562.6532,664.5498,566.2618,660.9412,563.5309,665.0984,570.224" style="stroke: #A80036; stroke-width: 0.8;"/><text fill="#000000" font-family="sans-serif" font-size="10.4" lengthAdjust="spacingAndGlyphs" textLength="16.8" x="662.8" y="543.5961">has</text><text fill="#000000" font-family="sans-serif" font-size="10.4" lengthAdjust="spacingAndGlyphs" textLength="5.6" x="649.4367" y="513.8366">1</text><text fill="#000000" font-family="sans-serif" font-size="10.4" lengthAdjust="spacingAndGlyphs" textLength="4" x="660.0416" y="561.7523">*</text><!--MD5=[d15cad16830e0e3b1d195407ed1d0016]
link Organization to TasksList--><path d="M732.5904,627.6464 C758.548,637.4816 788.34,650.5968 813.2,666.4 C828.72,676.2656 844.032,689.4912 856.696,701.6552 " fill="none" id="Organization-&gt;TasksList" style="stroke: #A80036; stroke-width: 0.8;"/><polygon fill="#A80036" points="859.864,704.7224,856.929,697.4104,856.9948,701.9354,852.4697,702.0012,859.864,704.7224" style="stroke: #A80036; stroke-width: 0.8;"/><text fill="#000000" font-family="sans-serif" font-size="10.4" lengthAdjust="spacingAndGlyphs" textLength="16.8" x="832.4" y="677.9961">has</text><text fill="#000000" font-family="sans-serif" font-size="10.4" lengthAdjust="spacingAndGlyphs" textLength="5.6" x="738.8229" y="627.0897">1</text><text fill="#000000" font-family="sans-serif" font-size="10.4" lengthAdjust="spacingAndGlyphs" textLength="5.6" x="848.8248" y="696.1981">1</text><!--MD5=[322d55b5ad1658b7791494cedb432ac7]
link Organization to PaymentTransactionList--><path d="M678.6912,642.632 C683.1496,660.8112 688.5528,682.8376 692.9472,700.7544 " fill="none" id="Organization-&gt;PaymentTransactionList" style="stroke: #A80036; stroke-width: 0.8;"/><polygon fill="#A80036" points="693.9264,704.7456,695.3206,696.9909,692.9743,700.8606,689.1046,698.5142,693.9264,704.7456" style="stroke: #A80036; stroke-width: 0.8;"/><text fill="#000000" font-family="sans-serif" font-size="10.4" lengthAdjust="spacingAndGlyphs" textLength="16.8" x="688.4" y="677.9961">has</text><text fill="#000000" font-family="sans-serif" font-size="10.4" lengthAdjust="spacingAndGlyphs" textLength="5.6" x="673.8828" y="659.2021">1</text><text fill="#000000" font-family="sans-serif" font-size="10.4" lengthAdjust="spacingAndGlyphs" textLength="5.6" x="686.532" y="696.2254">1</text><!--MD5=[45817597bcd7048073a670d966abfd17]
link Organization to Collaborator--><path d="M607.3928,628.6832 C584.5424,638.2128 559.3,650.836 538.8,666.4 C526.0336,676.0928 514.2496,689.1608 504.7632,701.2512 " fill="none" id="Organization-&gt;Collaborator" style="stroke: #A80036; stroke-width: 0.8;"/><polygon fill="#A80036" points="502.1496,704.632,509.0852,700.8934,504.5963,701.4676,504.0222,696.9787,502.1496,704.632" style="stroke: #A80036; stroke-width: 0.8;"/><text fill="#000000" font-family="sans-serif" font-size="10.4" lengthAdjust="spacingAndGlyphs" textLength="16.8" x="539.6" y="677.9961">has</text><text fill="#000000" font-family="sans-serif" font-size="10.4" lengthAdjust="spacingAndGlyphs" textLength="5.6" x="595.5587" y="628.2253">1</text><text fill="#000000" font-family="sans-serif" font-size="10.4" lengthAdjust="spacingAndGlyphs" textLength="17.6" x="486.5712" y="696.0916">0..1</text><!--MD5=[4078351e3988aa35b1504a42837f2ab1]
link Organization to Task--><path d="M721.3312,642.4576 C742.436,659.2072 765.548,680.8144 781.2,704.8 C804.4288,740.3976 810,753.4936 810,796 C810,796 810,796 810,1037.2 C810,1081.6808 790.0536,1128.0368 771.0424,1162.1176 " fill="none" id="Organization-Task" style="stroke: #A80036; stroke-width: 0.8;"/><text fill="#000000" font-family="sans-serif" font-size="10.4" lengthAdjust="spacingAndGlyphs" textLength="16.8" x="810.8" y="873.5961">has</text><polygon fill="#000000" points="815.6,880.6813,818,885.4813,820.4,880.6813,815.6,880.6813" style="stroke: #000000; stroke-width: 0.8;"/><text fill="#000000" font-family="sans-serif" font-size="10.4" lengthAdjust="spacingAndGlyphs" textLength="5.6" x="722.5559" y="659.2718">1</text><text fill="#000000" font-family="sans-serif" font-size="10.4" lengthAdjust="spacingAndGlyphs" textLength="4" x="770.5252" y="1153.6663">*</text><!--MD5=[da2d560b3f89d8c66478284968d27dfa]
link Organization to PaymentTransaction--><path d="M632.3672,642.468 C616.8112,659.5976 600.5336,681.5008 592.4,704.8 C578.292,745.212 587.7552,794.2184 598.0712,827.9984 " fill="none" id="Organization-PaymentTransaction" style="stroke: #A80036; stroke-width: 0.8;"/><text fill="#000000" font-family="sans-serif" font-size="10.4" lengthAdjust="spacingAndGlyphs" textLength="16.8" x="593.2" y="739.5961">has</text><polygon fill="#000000" points="598,746.6813,600.4,751.4813,602.8,746.6813,598,746.6813" style="stroke: #000000; stroke-width: 0.8;"/><text fill="#000000" font-family="sans-serif" font-size="10.4" lengthAdjust="spacingAndGlyphs" textLength="5.6" x="621.0813" y="659.2836">1</text><text fill="#000000" font-family="sans-serif" font-size="10.4" lengthAdjust="spacingAndGlyphs" textLength="4" x="591.6625" y="819.301">*</text><!--MD5=[bbdb20f51a48c3a19382c1ddd3c52d99]
link TasksList to Task--><path d="M890.464,765.6112 C895.824,835.5552 901.096,1014.424 830.8,1138.4 C826.64,1145.7392 821.464,1152.6448 815.688,1159.0704 " fill="none" id="TasksList-&gt;Task" style="stroke: #A80036; stroke-width: 0.8;"/><polygon fill="#A80036" points="812.808,1162.1856,820.0448,1159.0696,815.5228,1159.2479,815.3445,1154.726,812.808,1162.1856" style="stroke: #A80036; stroke-width: 0.8;"/><text fill="#000000" font-family="sans-serif" font-size="10.4" lengthAdjust="spacingAndGlyphs" textLength="16.8" x="890" y="945.9961">has</text><text fill="#000000" font-family="sans-serif" font-size="10.4" lengthAdjust="spacingAndGlyphs" textLength="5.6" x="884.8746" y="782.5492">1</text><text fill="#000000" font-family="sans-serif" font-size="10.4" lengthAdjust="spacingAndGlyphs" textLength="4" x="816.8589" y="1153.7417">*</text><!--MD5=[ad9e6b825fedf9daad488846d3a92887]
link PaymentTransactionList to PaymentTransaction--><path d="M681.4512,765.7128 C669.9544,783.0112 655.2448,805.1416 642.4272,824.4264 " fill="none" id="PaymentTransactionList-&gt;PaymentTransaction" style="stroke: #A80036; stroke-width: 0.8;"/><polygon fill="#A80036" points="640.0568,827.992,646.7079,823.7678,642.2714,824.661,641.3782,820.2245,640.0568,827.992" style="stroke: #A80036; stroke-width: 0.8;"/><text fill="#000000" font-family="sans-serif" font-size="10.4" lengthAdjust="spacingAndGlyphs" textLength="16.8" x="666" y="801.1961">has</text><text fill="#000000" font-family="sans-serif" font-size="10.4" lengthAdjust="spacingAndGlyphs" textLength="5.6" x="672.2575" y="782.4352">1</text><text fill="#000000" font-family="sans-serif" font-size="10.4" lengthAdjust="spacingAndGlyphs" textLength="4" x="639.5523" y="819.2937">*</text><!--MD5=[f6802b286771c18a16ea4be983074371]
link PaymentTransaction to Freelancer--><path d="M531.5696,909.6656 C488.196,930.7416 434.176,956.9904 386.6976,980.0608 " fill="none" id="PaymentTransaction-&gt;Freelancer" style="stroke: #A80036; stroke-width: 0.8;"/><polygon fill="#A80036" points="383,981.8576,390.8746,981.5904,386.598,980.11,388.0784,975.8335,383,981.8576" style="stroke: #A80036; stroke-width: 0.8;"/><text fill="#000000" font-family="sans-serif" font-size="10.4" lengthAdjust="spacingAndGlyphs" textLength="8.8" x="474.8" y="945.9961">to</text><text fill="#000000" font-family="sans-serif" font-size="10.4" lengthAdjust="spacingAndGlyphs" textLength="4" x="521.1666" y="910.2701">*</text><text fill="#000000" font-family="sans-serif" font-size="10.4" lengthAdjust="spacingAndGlyphs" textLength="5.6" x="389.2016" y="976.5354">1</text><!--MD5=[271ce7fefd7250ebaca83b70495774bd]
link PaymentTransaction to Task--><path d="M627.7888,910.4728 C649.9376,971.9168 692.1088,1088.9072 717.1312,1158.3256 " fill="none" id="PaymentTransaction-&gt;Task" style="stroke: #A80036; stroke-width: 0.8;"/><polygon fill="#A80036" points="718.532,1162.2104,719.1001,1154.3518,717.1752,1158.4475,713.0795,1156.5227,718.532,1162.2104" style="stroke: #A80036; stroke-width: 0.8;"/><text fill="#000000" font-family="sans-serif" font-size="10.4" lengthAdjust="spacingAndGlyphs" textLength="16.8" x="696.4" y="1040.7961">has</text><text fill="#000000" font-family="sans-serif" font-size="10.4" lengthAdjust="spacingAndGlyphs" textLength="5.6" x="623.8466" y="927.9733">1</text><text fill="#000000" font-family="sans-serif" font-size="10.4" lengthAdjust="spacingAndGlyphs" textLength="5.6" x="710.5839" y="1153.7692">1</text><!--MD5=[d2c3650dbd07e79cdad2ffd4a879dec6]
link Collaborator to Freelancer--><path d="M461.984,765.784 C438.4864,800.6328 398.22,859.9864 362.8,910.4 C349.2504,929.6856 334.3456,950.4904 320.6144,969.4968 " fill="none" id="Collaborator-&gt;Freelancer" style="stroke: #A80036; stroke-width: 0.8;"/><polygon fill="#A80036" points="318.244,972.7768,325.0553,968.8163,320.5873,969.535,319.8685,965.067,318.244,972.7768" style="stroke: #A80036; stroke-width: 0.8;"/><text fill="#000000" font-family="sans-serif" font-size="10.4" lengthAdjust="spacingAndGlyphs" textLength="40" x="420.4" y="873.5961">registers</text><text fill="#000000" font-family="sans-serif" font-size="10.4" lengthAdjust="spacingAndGlyphs" textLength="5.6" x="452.7477" y="782.5177">1</text><text fill="#000000" font-family="sans-serif" font-size="10.4" lengthAdjust="spacingAndGlyphs" textLength="4" x="318.4229" y="964.1241">*</text><!--MD5=[f919d21ae7a75ef5ececc535e09d5009]
link Collaborator to Task--><path d="M522.0568,752.1248 C586.88,778.2408 707.668,826.9976 708.4,828 C745.7552,879.1256 743.7208,1064.148 740.0456,1158.2336 " fill="none" id="Collaborator-&gt;Task" style="stroke: #A80036; stroke-width: 0.8;"/><polygon fill="#A80036" points="739.8808,1162.368,743.3642,1155.3007,740.0396,1158.3712,736.9692,1155.0466,739.8808,1162.368" style="stroke: #A80036; stroke-width: 0.8;"/><text fill="#000000" font-family="sans-serif" font-size="10.4" lengthAdjust="spacingAndGlyphs" textLength="40" x="738.8" y="945.9961">registers</text><text fill="#000000" font-family="sans-serif" font-size="10.4" lengthAdjust="spacingAndGlyphs" textLength="5.6" x="528.3514" y="751.7067">1</text><text fill="#000000" font-family="sans-serif" font-size="10.4" lengthAdjust="spacingAndGlyphs" textLength="4" x="735.9595" y="1153.5772">*</text><!--MD5=[ff0537dd903a7a771fc0cea37037e59c]
link Collaborator to TaskExecution--><path d="M484.5384,765.6848 C486.6112,792.5016 489.2,833.064 489.2,868.4 C489.2,868.4 489.2,868.4 489.2,1215.6 C489.2,1256.2608 511.4568,1297.32 531.492,1326.0442 " fill="none" id="Collaborator-&gt;TaskExecution" style="stroke: #A80036; stroke-width: 0.8;"/><polygon fill="#A80036" points="533.9224,1329.485,532.3823,1321.7579,531.6147,1326.2179,527.1548,1325.4503,533.9224,1329.485" style="stroke: #A80036; stroke-width: 0.8;"/><text fill="#000000" font-family="sans-serif" font-size="10.4" lengthAdjust="spacingAndGlyphs" textLength="40" x="490" y="1040.7961">registers</text><text fill="#000000" font-family="sans-serif" font-size="10.4" lengthAdjust="spacingAndGlyphs" textLength="5.6" x="478.8951" y="782.635">1</text><text fill="#000000" font-family="sans-serif" font-size="10.4" lengthAdjust="spacingAndGlyphs" textLength="4" x="525.1943" y="1321.0224">*</text><!--MD5=[c32d3c60a61e5638fef4971a1b3a8306]
link Collaborator to PaymentTransaction--><path d="M502.7448,765.6264 C511.9744,778.004 523.3352,792.216 534.8,804 C541.7944,811.1888 549.556,818.3656 557.3976,825.1808 " fill="none" id="Collaborator-&gt;PaymentTransaction" style="stroke: #A80036; stroke-width: 0.8;"/><polygon fill="#A80036" points="560.5224,827.8744,557.1595,820.749,557.4931,825.2622,552.98,825.5959,560.5224,827.8744" style="stroke: #A80036; stroke-width: 0.8;"/><text fill="#000000" font-family="sans-serif" font-size="10.4" lengthAdjust="spacingAndGlyphs" textLength="22.4" x="535.6" y="801.1961">does</text><text fill="#000000" font-family="sans-serif" font-size="10.4" lengthAdjust="spacingAndGlyphs" textLength="5.6" x="500.1169" y="782.5669">1</text><text fill="#000000" font-family="sans-serif" font-size="10.4" lengthAdjust="spacingAndGlyphs" textLength="4" x="549.1751" y="819.4578">*</text><!--MD5=[04ce0ecdab38a3951889ff50c232570f]
link Collaborator to User--><path d="M441.9184,745.9888 C415.3032,754.2152 380.8864,768.0808 356.4,789.6 C342.924,801.4424 332.3048,818.184 324.6448,833.192 " fill="none" id="Collaborator-User" style="stroke: #A80036; stroke-width: 0.8;"/><polygon fill="#000000" points="362.8,795.7406,358,798.1406,362.8,800.5406,362.8,795.7406" style="stroke: #000000; stroke-width: 0.8;"/><text fill="#000000" font-family="sans-serif" font-size="10.4" lengthAdjust="spacingAndGlyphs" textLength="28.8" x="367.6" y="801.1961">act as</text><text fill="#000000" font-family="sans-serif" font-size="10.4" lengthAdjust="spacingAndGlyphs" textLength="17.6" x="418.0554" y="744.582">0..1</text><text fill="#000000" font-family="sans-serif" font-size="10.4" lengthAdjust="spacingAndGlyphs" textLength="5.6" x="320.9326" y="824.4831">1</text><!--MD5=[bdc7b78a1b1f03a53fec8289ba75cac4]
link Task to TaskExecution--><path d="M676.6928,1267.364 C653.8128,1286.9376 628.22,1308.8328 607.0992,1326.9017 " fill="none" id="Task-&gt;TaskExecution" style="stroke: #A80036; stroke-width: 0.8;"/><polygon fill="#A80036" points="604.0168,1329.5391,611.5678,1327.289,607.0559,1326.9384,607.4066,1322.4265,604.0168,1329.5391" style="stroke: #A80036; stroke-width: 0.8;"/><text fill="#000000" font-family="sans-serif" font-size="10.4" lengthAdjust="spacingAndGlyphs" textLength="16.8" x="646" y="1302.7961">has</text><text fill="#000000" font-family="sans-serif" font-size="10.4" lengthAdjust="spacingAndGlyphs" textLength="5.6" x="664.5642" y="1284.2546">1</text><text fill="#000000" font-family="sans-serif" font-size="10.4" lengthAdjust="spacingAndGlyphs" textLength="5.6" x="604.5395" y="1320.8219">1</text><!--MD5=[0a2fb51dd6b1312a84d9b20e1a79eef4]
link Freelancer to LevelOfExpertise--><path d="M248.2344,1100.0312 C237.2016,1128.7152 224.6584,1161.3288 215.824,1184.2968 " fill="none" id="Freelancer-LevelOfExpertise" style="stroke: #A80036; stroke-width: 0.8;"/><text fill="#000000" font-family="sans-serif" font-size="10.4" lengthAdjust="spacingAndGlyphs" textLength="16.8" x="239.6" y="1135.5961">has</text><polygon fill="#000000" points="244.4,1142.6813,246.8,1147.4813,249.2,1142.6813,244.4,1142.6813" style="stroke: #000000; stroke-width: 0.8;"/><text fill="#000000" font-family="sans-serif" font-size="10.4" lengthAdjust="spacingAndGlyphs" textLength="5.6" x="240.317" y="1116.8684">1</text><text fill="#000000" font-family="sans-serif" font-size="10.4" lengthAdjust="spacingAndGlyphs" textLength="5.6" x="211.7601" y="1175.7679">1</text><!--MD5=[d518bf3df24868864c9f0c94c8246211]
link Freelancer to Location--><path d="M296.8504,1100.0312 C307.124,1126.432 318.6928,1156.1624 327.4384,1178.6368 " fill="none" id="Freelancer-Location" style="stroke: #A80036; stroke-width: 0.8;"/><text fill="#000000" font-family="sans-serif" font-size="10.4" lengthAdjust="spacingAndGlyphs" textLength="16.8" x="312.4" y="1135.5961">has</text><polygon fill="#000000" points="317.2,1142.6813,319.6,1147.4813,322,1142.6813,317.2,1142.6813" style="stroke: #000000; stroke-width: 0.8;"/><text fill="#000000" font-family="sans-serif" font-size="10.4" lengthAdjust="spacingAndGlyphs" textLength="5.6" x="293.111" y="1116.8684">1</text><text fill="#000000" font-family="sans-serif" font-size="10.4" lengthAdjust="spacingAndGlyphs" textLength="5.6" x="319.3024" y="1170.1671">1</text><!--MD5=[b4b6c1ff9c803d8207b36238c02005ea]
link Freelancer to Task--><path d="M382.8456,1079.2112 C453.2552,1105.9936 544.5032,1140.7024 616.7704,1168.1912 " fill="none" id="Freelancer-Task" style="stroke: #A80036; stroke-width: 0.8;"/><text fill="#000000" font-family="sans-serif" font-size="10.4" lengthAdjust="spacingAndGlyphs" textLength="22.4" x="534" y="1135.5961">does</text><polygon fill="#000000" points="558.8,1130.1406,563.6,1132.5406,558.8,1134.9406,558.8,1130.1406" style="stroke: #000000; stroke-width: 0.8;"/><text fill="#000000" font-family="sans-serif" font-size="10.4" lengthAdjust="spacingAndGlyphs" textLength="5.6" x="389.0387" y="1079.2131">1</text><text fill="#000000" font-family="sans-serif" font-size="10.4" lengthAdjust="spacingAndGlyphs" textLength="4" x="606.4576" y="1163.461">*</text><!--MD5=[ae73dbeb3f4f332ffa0d2fb2ffa63498]
@startuml
skinparam classAttributeIconSize 0

class LoadTransactionsFileUI{
}

class LoadTransactionsFileController{
+loadFileCsv(file)
+loadFileTxt(file)
}

class LoadFromCsvTxt{
loadFile(file)
}

class Platform {
  -String designation
  +getOrganizationsRegister()
  +getFreelancersRegister()
}

class Organization {
  -String designation
  +getTaskList()
  +getPaymentTransactionList()
}

class OrganizationsRegister{
+getOrganizationByUserEmail(email)
}

class AplicacaoPOT {
  +static getInstance()
  +getCurrentSession()
}

class UserSession {
  +getUserEmail()
}

class User {
  -String name
  -String email
  -String password
}

class Collaborator {
  -String name
  -String email
}


class Freelancer {
  -String id
  -String name
  -String email
  -Integer NIF
  -Integer IBAN
  -double OverallPayments
  +Freelancer(id,name,email,NIF,IBAN,level,freeLocation)
  +setPayment(pay)
}

class FreelancersRegister{
+contains(free)
+addFreelancer(free)
+getFreelancerById(freeID)
}

enum LevelOfExpertise {
   -JUNIOR
   -SENIOR
}

class Location {
  -String address
  -String country
  +Location(address,country)
}

class PaymentTransaction {
  -String id
  -Integer day
  -Integer hour
  +PaymentTransaction(transID,free,task)
}

class PaymentTransactionList {
+contains(pay)
+addPaymentTransaction(pay)
}

class Task {
  -String id
  -String briefDescription
  -Double timeDuration
  -Double costPerHour
  -String category
  +Task(taskID,taskDesc,taskDuration,taskCost,taskCategory)
}

class TasksList{
+contains(task)
+addTask(task)
}

class TaskExecution{
  -Date deadline
  -Double delay
  -String descQualityWork
}

LoadTransactionsFileUI .. LoadTransactionsFileController


LoadTransactionsFileController ..> LoadFromCsvTxt

LoadFromCsvTxt - - Platform
LoadFromCsvTxt - - Freelancer
LoadFromCsvTxt - - FreelancersRegister
LoadFromCsvTxt - - Task
LoadFromCsvTxt - - OrganizationsRegister
LoadFromCsvTxt - - Organization
LoadFromCsvTxt - - AplicacaoPOT
LoadFromCsvTxt - - UserSession
LoadFromCsvTxt - - TasksList
LoadFromCsvTxt - - PaymentTransactionList
LoadFromCsvTxt - - Collaborator




Platform "1" - - "*" Organization : has registered >
Platform "1" - - "*" Freelancer : has registered >
Platform "1" - - "*" User : has registered >
Platform "1" - -> "1" FreelancersRegister : has
Platform "1" - -> "1" OrganizationsRegister : has

FreelancersRegister "1" - -> "*" Freelancer : has

OrganizationsRegister "1" - -> "*" Organization : has

Organization "1" - -> "1" TasksList : has
Organization "1" - -> "1" PaymentTransactionList : has
Organization "1" - -> "0..1" Collaborator : has
Organization "1" - - "*" Task : has >
Organization "1" - - "*" PaymentTransaction : has >

TasksList "1" - -> "*" Task : has

PaymentTransactionList "1" - -> "*" PaymentTransaction : has

PaymentTransaction "*" - -> "1" Freelancer : to
PaymentTransaction "1" - -> "1" Task : has

Collaborator "1" - -> "*" Freelancer : registers
Collaborator "1" - -> "*" Task : registers
Collaborator "1" - -> "*" TaskExecution : registers
Collaborator "1" - -> "*" PaymentTransaction : does
Collaborator "0..1" - - "1" User : act as >

Task "1" - -> "1" TaskExecution : has


Freelancer "1" - - "1" LevelOfExpertise : has >
Freelancer "1" - - "1" Location : has >
Freelancer "1" - - "*" Task : does >

@enduml

PlantUML version 1.2020.07(Sun Apr 19 12:42:40 BST 2020)
(GPL source distribution)
Java Runtime: OpenJDK Runtime Environment
JVM: OpenJDK 64-Bit Server VM
Java Version: 11.0.6+8-b520.43
Operating System: Windows 10
Default Encoding: Cp1252
Language: en
Country: US
--></g></svg>