<?xml version="1.0" encoding="UTF-8" standalone="no"?><svg xmlns="http://www.w3.org/2000/svg" xmlns:xlink="http://www.w3.org/1999/xlink" contentScriptType="application/ecmascript" contentStyleType="text/css" height="493px" preserveAspectRatio="none" style="width:1398px;height:493px;" version="1.1" viewBox="0 0 1398 493" width="1398px" zoomAndPan="magnify"><defs><filter height="300%" id="f10iwao4qp7j92" width="300%" x="-1" y="-1"><feGaussianBlur result="blurOut" stdDeviation="2.0"/><feColorMatrix in="blurOut" result="blurOut2" type="matrix" values="0 0 0 0 0 0 0 0 0 0 0 0 0 0 0 0 0 0 .4 0"/><feOffset dx="4.0" dy="4.0" in="blurOut2" result="blurOut3"/><feBlend in="SourceGraphic" in2="blurOut3" mode="normal"/></filter></defs><g><!--class Platform--><rect fill="#FEFECE" filter="url(#f10iwao4qp7j92)" height="53.8359" id="Platform" style="stroke: #A80036; stroke-width: 1.5;" width="112" x="6" y="317"/><ellipse cx="36.3" cy="333" fill="#ADD1B2" rx="11" ry="11" style="stroke: #A80036; stroke-width: 1.0;"/><path d="M39.0656,328.875 Q39.2219,328.6563 39.4094,328.5469 Q39.5969,328.4375 39.8156,328.4375 Q40.1906,328.4375 40.425,328.6953 Q40.6594,328.9531 40.6594,329.5625 L40.6594,331.0156 Q40.6594,331.625 40.425,331.8906 Q40.1906,332.1563 39.8156,332.1563 Q39.4719,332.1563 39.2688,331.9531 Q39.0656,331.7656 38.9563,331.25 Q38.9094,330.8906 38.7219,330.7031 Q38.3938,330.3281 37.7844,330.1094 Q37.175,329.8906 36.55,329.8906 Q35.7844,329.8906 35.1516,330.2188 Q34.5188,330.5469 34.0266,331.2969 Q33.5344,332.0469 33.5344,333.0781 L33.5344,334.1719 Q33.5344,335.4063 34.425,336.2266 Q35.3156,337.0469 36.9094,337.0469 Q37.8469,337.0469 38.5031,336.7969 Q38.8938,336.6406 39.3156,336.2031 Q39.5813,335.9375 39.7297,335.8594 Q39.8781,335.7813 40.0813,335.7813 Q40.4094,335.7813 40.6672,336.0391 Q40.925,336.2969 40.925,336.6406 Q40.925,336.9844 40.5813,337.3906 Q40.0813,337.9688 39.2844,338.2969 Q38.2063,338.75 36.9094,338.75 Q35.3938,338.75 34.1906,338.125 Q33.2063,337.625 32.5188,336.5547 Q31.8313,335.4844 31.8313,334.2031 L31.8313,333.0469 Q31.8313,331.7188 32.4484,330.5703 Q33.0656,329.4219 34.1594,328.8047 Q35.2531,328.1875 36.4875,328.1875 Q37.2219,328.1875 37.8703,328.3516 Q38.5188,328.5156 39.0656,328.875 Z "/><text fill="#000000" font-family="sans-serif" font-size="12" lengthAdjust="spacingAndGlyphs" textLength="46" x="53.7" y="337.9102">Platform</text><line style="stroke: #A80036; stroke-width: 1.5;" x1="7" x2="117" y1="349" y2="349"/><rect fill="none" height="6" style="stroke: #C82930; stroke-width: 1.0;" width="6" x="14" y="358.418"/><text fill="#000000" font-family="sans-serif" font-size="11" lengthAdjust="spacingAndGlyphs" textLength="86" x="26" y="364.4189">String designation</text><!--class Organization--><rect fill="#FEFECE" filter="url(#f10iwao4qp7j92)" height="53.8359" id="Organization" style="stroke: #A80036; stroke-width: 1.5;" width="112" x="275" y="317"/><ellipse cx="294.95" cy="333" fill="#ADD1B2" rx="11" ry="11" style="stroke: #A80036; stroke-width: 1.0;"/><path d="M297.7156,328.875 Q297.8719,328.6563 298.0594,328.5469 Q298.2469,328.4375 298.4656,328.4375 Q298.8406,328.4375 299.075,328.6953 Q299.3094,328.9531 299.3094,329.5625 L299.3094,331.0156 Q299.3094,331.625 299.075,331.8906 Q298.8406,332.1563 298.4656,332.1563 Q298.1219,332.1563 297.9188,331.9531 Q297.7156,331.7656 297.6063,331.25 Q297.5594,330.8906 297.3719,330.7031 Q297.0438,330.3281 296.4344,330.1094 Q295.825,329.8906 295.2,329.8906 Q294.4344,329.8906 293.8016,330.2188 Q293.1688,330.5469 292.6766,331.2969 Q292.1844,332.0469 292.1844,333.0781 L292.1844,334.1719 Q292.1844,335.4063 293.075,336.2266 Q293.9656,337.0469 295.5594,337.0469 Q296.4969,337.0469 297.1531,336.7969 Q297.5438,336.6406 297.9656,336.2031 Q298.2313,335.9375 298.3797,335.8594 Q298.5281,335.7813 298.7313,335.7813 Q299.0594,335.7813 299.3172,336.0391 Q299.575,336.2969 299.575,336.6406 Q299.575,336.9844 299.2313,337.3906 Q298.7313,337.9688 297.9344,338.2969 Q296.8563,338.75 295.5594,338.75 Q294.0438,338.75 292.8406,338.125 Q291.8563,337.625 291.1688,336.5547 Q290.4813,335.4844 290.4813,334.2031 L290.4813,333.0469 Q290.4813,331.7188 291.0984,330.5703 Q291.7156,329.4219 292.8094,328.8047 Q293.9031,328.1875 295.1375,328.1875 Q295.8719,328.1875 296.5203,328.3516 Q297.1688,328.5156 297.7156,328.875 Z "/><text fill="#000000" font-family="sans-serif" font-size="12" lengthAdjust="spacingAndGlyphs" textLength="69" x="310.05" y="337.9102">Organization</text><line style="stroke: #A80036; stroke-width: 1.5;" x1="276" x2="386" y1="349" y2="349"/><rect fill="none" height="6" style="stroke: #C82930; stroke-width: 1.0;" width="6" x="283" y="358.418"/><text fill="#000000" font-family="sans-serif" font-size="11" lengthAdjust="spacingAndGlyphs" textLength="86" x="295" y="364.4189">String designation</text><!--class Collaborator--><rect fill="#FEFECE" filter="url(#f10iwao4qp7j92)" height="67.6719" id="Collaborator" style="stroke: #A80036; stroke-width: 1.5;" width="100" x="544" y="221"/><ellipse cx="559" cy="237" fill="#ADD1B2" rx="11" ry="11" style="stroke: #A80036; stroke-width: 1.0;"/><path d="M561.7656,232.875 Q561.9219,232.6563 562.1094,232.5469 Q562.2969,232.4375 562.5156,232.4375 Q562.8906,232.4375 563.125,232.6953 Q563.3594,232.9531 563.3594,233.5625 L563.3594,235.0156 Q563.3594,235.625 563.125,235.8906 Q562.8906,236.1563 562.5156,236.1563 Q562.1719,236.1563 561.9688,235.9531 Q561.7656,235.7656 561.6563,235.25 Q561.6094,234.8906 561.4219,234.7031 Q561.0938,234.3281 560.4844,234.1094 Q559.875,233.8906 559.25,233.8906 Q558.4844,233.8906 557.8516,234.2188 Q557.2188,234.5469 556.7266,235.2969 Q556.2344,236.0469 556.2344,237.0781 L556.2344,238.1719 Q556.2344,239.4063 557.125,240.2266 Q558.0156,241.0469 559.6094,241.0469 Q560.5469,241.0469 561.2031,240.7969 Q561.5938,240.6406 562.0156,240.2031 Q562.2813,239.9375 562.4297,239.8594 Q562.5781,239.7813 562.7813,239.7813 Q563.1094,239.7813 563.3672,240.0391 Q563.625,240.2969 563.625,240.6406 Q563.625,240.9844 563.2813,241.3906 Q562.7813,241.9688 561.9844,242.2969 Q560.9063,242.75 559.6094,242.75 Q558.0938,242.75 556.8906,242.125 Q555.9063,241.625 555.2188,240.5547 Q554.5313,239.4844 554.5313,238.2031 L554.5313,237.0469 Q554.5313,235.7188 555.1484,234.5703 Q555.7656,233.4219 556.8594,232.8047 Q557.9531,232.1875 559.1875,232.1875 Q559.9219,232.1875 560.5703,232.3516 Q561.2188,232.5156 561.7656,232.875 Z "/><text fill="#000000" font-family="sans-serif" font-size="12" lengthAdjust="spacingAndGlyphs" textLength="68" x="573" y="241.9102">Collaborator</text><line style="stroke: #A80036; stroke-width: 1.5;" x1="545" x2="643" y1="253" y2="253"/><rect fill="none" height="6" style="stroke: #C82930; stroke-width: 1.0;" width="6" x="552" y="262.418"/><text fill="#000000" font-family="sans-serif" font-size="11" lengthAdjust="spacingAndGlyphs" textLength="57" x="564" y="268.4189">String name</text><rect fill="none" height="6" style="stroke: #C82930; stroke-width: 1.0;" width="6" x="552" y="276.2539"/><text fill="#000000" font-family="sans-serif" font-size="11" lengthAdjust="spacingAndGlyphs" textLength="55" x="564" y="282.2549">String email</text><!--class User--><rect fill="#FEFECE" filter="url(#f10iwao4qp7j92)" height="81.5078" id="User" style="stroke: #A80036; stroke-width: 1.5;" width="107" x="774" y="8"/><ellipse cx="810.6" cy="24" fill="#ADD1B2" rx="11" ry="11" style="stroke: #A80036; stroke-width: 1.0;"/><path d="M813.3656,19.875 Q813.5219,19.6563 813.7094,19.5469 Q813.8969,19.4375 814.1156,19.4375 Q814.4906,19.4375 814.725,19.6953 Q814.9594,19.9531 814.9594,20.5625 L814.9594,22.0156 Q814.9594,22.625 814.725,22.8906 Q814.4906,23.1563 814.1156,23.1563 Q813.7719,23.1563 813.5688,22.9531 Q813.3656,22.7656 813.2563,22.25 Q813.2094,21.8906 813.0219,21.7031 Q812.6938,21.3281 812.0844,21.1094 Q811.475,20.8906 810.85,20.8906 Q810.0844,20.8906 809.4516,21.2188 Q808.8188,21.5469 808.3266,22.2969 Q807.8344,23.0469 807.8344,24.0781 L807.8344,25.1719 Q807.8344,26.4063 808.725,27.2266 Q809.6156,28.0469 811.2094,28.0469 Q812.1469,28.0469 812.8031,27.7969 Q813.1938,27.6406 813.6156,27.2031 Q813.8813,26.9375 814.0297,26.8594 Q814.1781,26.7813 814.3813,26.7813 Q814.7094,26.7813 814.9672,27.0391 Q815.225,27.2969 815.225,27.6406 Q815.225,27.9844 814.8813,28.3906 Q814.3813,28.9688 813.5844,29.2969 Q812.5063,29.75 811.2094,29.75 Q809.6938,29.75 808.4906,29.125 Q807.5063,28.625 806.8188,27.5547 Q806.1313,26.4844 806.1313,25.2031 L806.1313,24.0469 Q806.1313,22.7188 806.7484,21.5703 Q807.3656,20.4219 808.4594,19.8047 Q809.5531,19.1875 810.7875,19.1875 Q811.5219,19.1875 812.1703,19.3516 Q812.8188,19.5156 813.3656,19.875 Z "/><text fill="#000000" font-family="sans-serif" font-size="12" lengthAdjust="spacingAndGlyphs" textLength="27" x="829.4" y="28.9102">User</text><line style="stroke: #A80036; stroke-width: 1.5;" x1="775" x2="880" y1="40" y2="40"/><rect fill="none" height="6" style="stroke: #C82930; stroke-width: 1.0;" width="6" x="782" y="49.418"/><text fill="#000000" font-family="sans-serif" font-size="11" lengthAdjust="spacingAndGlyphs" textLength="57" x="794" y="55.4189">String name</text><rect fill="none" height="6" style="stroke: #C82930; stroke-width: 1.0;" width="6" x="782" y="63.2539"/><text fill="#000000" font-family="sans-serif" font-size="11" lengthAdjust="spacingAndGlyphs" textLength="55" x="794" y="69.2549">String email</text><rect fill="none" height="6" style="stroke: #C82930; stroke-width: 1.0;" width="6" x="782" y="77.0898"/><text fill="#000000" font-family="sans-serif" font-size="11" lengthAdjust="spacingAndGlyphs" textLength="81" x="794" y="83.0908">String password</text><!--class Freelancer--><rect fill="#FEFECE" filter="url(#f10iwao4qp7j92)" height="123.0156" id="Freelancer" style="stroke: #A80036; stroke-width: 1.5;" width="134" x="1018" y="342.5"/><ellipse cx="1052.35" cy="358.5" fill="#ADD1B2" rx="11" ry="11" style="stroke: #A80036; stroke-width: 1.0;"/><path d="M1055.1156,354.375 Q1055.2719,354.1563 1055.4594,354.0469 Q1055.6469,353.9375 1055.8656,353.9375 Q1056.2406,353.9375 1056.475,354.1953 Q1056.7094,354.4531 1056.7094,355.0625 L1056.7094,356.5156 Q1056.7094,357.125 1056.475,357.3906 Q1056.2406,357.6563 1055.8656,357.6563 Q1055.5219,357.6563 1055.3188,357.4531 Q1055.1156,357.2656 1055.0063,356.75 Q1054.9594,356.3906 1054.7719,356.2031 Q1054.4438,355.8281 1053.8344,355.6094 Q1053.225,355.3906 1052.6,355.3906 Q1051.8344,355.3906 1051.2016,355.7188 Q1050.5688,356.0469 1050.0766,356.7969 Q1049.5844,357.5469 1049.5844,358.5781 L1049.5844,359.6719 Q1049.5844,360.9063 1050.475,361.7266 Q1051.3656,362.5469 1052.9594,362.5469 Q1053.8969,362.5469 1054.5531,362.2969 Q1054.9438,362.1406 1055.3656,361.7031 Q1055.6313,361.4375 1055.7797,361.3594 Q1055.9281,361.2813 1056.1313,361.2813 Q1056.4594,361.2813 1056.7172,361.5391 Q1056.975,361.7969 1056.975,362.1406 Q1056.975,362.4844 1056.6313,362.8906 Q1056.1313,363.4688 1055.3344,363.7969 Q1054.2563,364.25 1052.9594,364.25 Q1051.4438,364.25 1050.2406,363.625 Q1049.2563,363.125 1048.5688,362.0547 Q1047.8813,360.9844 1047.8813,359.7031 L1047.8813,358.5469 Q1047.8813,357.2188 1048.4984,356.0703 Q1049.1156,354.9219 1050.2094,354.3047 Q1051.3031,353.6875 1052.5375,353.6875 Q1053.2719,353.6875 1053.9203,353.8516 Q1054.5688,354.0156 1055.1156,354.375 Z "/><text fill="#000000" font-family="sans-serif" font-size="12" lengthAdjust="spacingAndGlyphs" textLength="59" x="1070.65" y="363.4102">Freelancer</text><line style="stroke: #A80036; stroke-width: 1.5;" x1="1019" x2="1151" y1="374.5" y2="374.5"/><rect fill="none" height="6" style="stroke: #C82930; stroke-width: 1.0;" width="6" x="1026" y="383.918"/><text fill="#000000" font-family="sans-serif" font-size="11" lengthAdjust="spacingAndGlyphs" textLength="39" x="1038" y="389.9189">String id</text><rect fill="none" height="6" style="stroke: #C82930; stroke-width: 1.0;" width="6" x="1026" y="397.7539"/><text fill="#000000" font-family="sans-serif" font-size="11" lengthAdjust="spacingAndGlyphs" textLength="57" x="1038" y="403.7549">String name</text><rect fill="none" height="6" style="stroke: #C82930; stroke-width: 1.0;" width="6" x="1026" y="411.5898"/><text fill="#000000" font-family="sans-serif" font-size="11" lengthAdjust="spacingAndGlyphs" textLength="55" x="1038" y="417.5908">String email</text><rect fill="none" height="6" style="stroke: #C82930; stroke-width: 1.0;" width="6" x="1026" y="425.4258"/><text fill="#000000" font-family="sans-serif" font-size="11" lengthAdjust="spacingAndGlyphs" textLength="50" x="1038" y="431.4268">double NIF</text><rect fill="none" height="6" style="stroke: #C82930; stroke-width: 1.0;" width="6" x="1026" y="439.2617"/><text fill="#000000" font-family="sans-serif" font-size="11" lengthAdjust="spacingAndGlyphs" textLength="55" x="1038" y="445.2627">String IBAN</text><rect fill="none" height="6" style="stroke: #C82930; stroke-width: 1.0;" width="6" x="1026" y="453.0977"/><text fill="#000000" font-family="sans-serif" font-size="11" lengthAdjust="spacingAndGlyphs" textLength="108" x="1038" y="459.0986">double overallPayment</text><!--class PaymentTransaction--><rect fill="#FEFECE" filter="url(#f10iwao4qp7j92)" height="53.8359" id="PaymentTransaction" style="stroke: #A80036; stroke-width: 1.5;" width="145" x="755" y="286"/><ellipse cx="770" cy="302" fill="#ADD1B2" rx="11" ry="11" style="stroke: #A80036; stroke-width: 1.0;"/><path d="M772.7656,297.875 Q772.9219,297.6563 773.1094,297.5469 Q773.2969,297.4375 773.5156,297.4375 Q773.8906,297.4375 774.125,297.6953 Q774.3594,297.9531 774.3594,298.5625 L774.3594,300.0156 Q774.3594,300.625 774.125,300.8906 Q773.8906,301.1563 773.5156,301.1563 Q773.1719,301.1563 772.9688,300.9531 Q772.7656,300.7656 772.6563,300.25 Q772.6094,299.8906 772.4219,299.7031 Q772.0938,299.3281 771.4844,299.1094 Q770.875,298.8906 770.25,298.8906 Q769.4844,298.8906 768.8516,299.2188 Q768.2188,299.5469 767.7266,300.2969 Q767.2344,301.0469 767.2344,302.0781 L767.2344,303.1719 Q767.2344,304.4063 768.125,305.2266 Q769.0156,306.0469 770.6094,306.0469 Q771.5469,306.0469 772.2031,305.7969 Q772.5938,305.6406 773.0156,305.2031 Q773.2813,304.9375 773.4297,304.8594 Q773.5781,304.7813 773.7813,304.7813 Q774.1094,304.7813 774.3672,305.0391 Q774.625,305.2969 774.625,305.6406 Q774.625,305.9844 774.2813,306.3906 Q773.7813,306.9688 772.9844,307.2969 Q771.9063,307.75 770.6094,307.75 Q769.0938,307.75 767.8906,307.125 Q766.9063,306.625 766.2188,305.5547 Q765.5313,304.4844 765.5313,303.2031 L765.5313,302.0469 Q765.5313,300.7188 766.1484,299.5703 Q766.7656,298.4219 767.8594,297.8047 Q768.9531,297.1875 770.1875,297.1875 Q770.9219,297.1875 771.5703,297.3516 Q772.2188,297.5156 772.7656,297.875 Z "/><text fill="#000000" font-family="sans-serif" font-size="12" lengthAdjust="spacingAndGlyphs" textLength="113" x="784" y="306.9102">PaymentTransaction</text><line style="stroke: #A80036; stroke-width: 1.5;" x1="756" x2="899" y1="318" y2="318"/><rect fill="none" height="6" style="stroke: #C82930; stroke-width: 1.0;" width="6" x="763" y="327.418"/><text fill="#000000" font-family="sans-serif" font-size="11" lengthAdjust="spacingAndGlyphs" textLength="39" x="775" y="333.4189">String id</text><!--class Task--><rect fill="#FEFECE" filter="url(#f10iwao4qp7j92)" height="109.1797" id="Task" style="stroke: #A80036; stroke-width: 1.5;" width="133" x="1018.5" y="198.5"/><ellipse cx="1067.25" cy="214.5" fill="#ADD1B2" rx="11" ry="11" style="stroke: #A80036; stroke-width: 1.0;"/><path d="M1070.0156,210.375 Q1070.1719,210.1563 1070.3594,210.0469 Q1070.5469,209.9375 1070.7656,209.9375 Q1071.1406,209.9375 1071.375,210.1953 Q1071.6094,210.4531 1071.6094,211.0625 L1071.6094,212.5156 Q1071.6094,213.125 1071.375,213.3906 Q1071.1406,213.6563 1070.7656,213.6563 Q1070.4219,213.6563 1070.2188,213.4531 Q1070.0156,213.2656 1069.9063,212.75 Q1069.8594,212.3906 1069.6719,212.2031 Q1069.3438,211.8281 1068.7344,211.6094 Q1068.125,211.3906 1067.5,211.3906 Q1066.7344,211.3906 1066.1016,211.7188 Q1065.4688,212.0469 1064.9766,212.7969 Q1064.4844,213.5469 1064.4844,214.5781 L1064.4844,215.6719 Q1064.4844,216.9063 1065.375,217.7266 Q1066.2656,218.5469 1067.8594,218.5469 Q1068.7969,218.5469 1069.4531,218.2969 Q1069.8438,218.1406 1070.2656,217.7031 Q1070.5313,217.4375 1070.6797,217.3594 Q1070.8281,217.2813 1071.0313,217.2813 Q1071.3594,217.2813 1071.6172,217.5391 Q1071.875,217.7969 1071.875,218.1406 Q1071.875,218.4844 1071.5313,218.8906 Q1071.0313,219.4688 1070.2344,219.7969 Q1069.1563,220.25 1067.8594,220.25 Q1066.3438,220.25 1065.1406,219.625 Q1064.1563,219.125 1063.4688,218.0547 Q1062.7813,216.9844 1062.7813,215.7031 L1062.7813,214.5469 Q1062.7813,213.2188 1063.3984,212.0703 Q1064.0156,210.9219 1065.1094,210.3047 Q1066.2031,209.6875 1067.4375,209.6875 Q1068.1719,209.6875 1068.8203,209.8516 Q1069.4688,210.0156 1070.0156,210.375 Z "/><text fill="#000000" font-family="sans-serif" font-size="12" lengthAdjust="spacingAndGlyphs" textLength="27" x="1087.75" y="219.4102">Task</text><line style="stroke: #A80036; stroke-width: 1.5;" x1="1019.5" x2="1150.5" y1="230.5" y2="230.5"/><rect fill="none" height="6" style="stroke: #C82930; stroke-width: 1.0;" width="6" x="1026.5" y="239.918"/><text fill="#000000" font-family="sans-serif" font-size="11" lengthAdjust="spacingAndGlyphs" textLength="39" x="1038.5" y="245.9189">String id</text><rect fill="none" height="6" style="stroke: #C82930; stroke-width: 1.0;" width="6" x="1026.5" y="253.7539"/><text fill="#000000" font-family="sans-serif" font-size="11" lengthAdjust="spacingAndGlyphs" textLength="107" x="1038.5" y="259.7549">String briefDescription</text><rect fill="none" height="6" style="stroke: #C82930; stroke-width: 1.0;" width="6" x="1026.5" y="267.5898"/><text fill="#000000" font-family="sans-serif" font-size="11" lengthAdjust="spacingAndGlyphs" textLength="95" x="1038.5" y="273.5908">Double timeDuration</text><rect fill="none" height="6" style="stroke: #C82930; stroke-width: 1.0;" width="6" x="1026.5" y="281.4258"/><text fill="#000000" font-family="sans-serif" font-size="11" lengthAdjust="spacingAndGlyphs" textLength="96" x="1038.5" y="287.4268">Double costPerHour</text><rect fill="none" height="6" style="stroke: #C82930; stroke-width: 1.0;" width="6" x="1026.5" y="295.2617"/><text fill="#000000" font-family="sans-serif" font-size="11" lengthAdjust="spacingAndGlyphs" textLength="74" x="1038.5" y="301.2627">String category</text><!--class TaskExecution--><rect fill="#FEFECE" filter="url(#f10iwao4qp7j92)" height="81.5078" id="TaskExecution" style="stroke: #A80036; stroke-width: 1.5;" width="139" x="1248" y="141"/><ellipse cx="1275.15" cy="157" fill="#ADD1B2" rx="11" ry="11" style="stroke: #A80036; stroke-width: 1.0;"/><path d="M1277.9156,152.875 Q1278.0719,152.6563 1278.2594,152.5469 Q1278.4469,152.4375 1278.6656,152.4375 Q1279.0406,152.4375 1279.275,152.6953 Q1279.5094,152.9531 1279.5094,153.5625 L1279.5094,155.0156 Q1279.5094,155.625 1279.275,155.8906 Q1279.0406,156.1563 1278.6656,156.1563 Q1278.3219,156.1563 1278.1188,155.9531 Q1277.9156,155.7656 1277.8063,155.25 Q1277.7594,154.8906 1277.5719,154.7031 Q1277.2438,154.3281 1276.6344,154.1094 Q1276.025,153.8906 1275.4,153.8906 Q1274.6344,153.8906 1274.0016,154.2188 Q1273.3688,154.5469 1272.8766,155.2969 Q1272.3844,156.0469 1272.3844,157.0781 L1272.3844,158.1719 Q1272.3844,159.4063 1273.275,160.2266 Q1274.1656,161.0469 1275.7594,161.0469 Q1276.6969,161.0469 1277.3531,160.7969 Q1277.7438,160.6406 1278.1656,160.2031 Q1278.4313,159.9375 1278.5797,159.8594 Q1278.7281,159.7813 1278.9313,159.7813 Q1279.2594,159.7813 1279.5172,160.0391 Q1279.775,160.2969 1279.775,160.6406 Q1279.775,160.9844 1279.4313,161.3906 Q1278.9313,161.9688 1278.1344,162.2969 Q1277.0563,162.75 1275.7594,162.75 Q1274.2438,162.75 1273.0406,162.125 Q1272.0563,161.625 1271.3688,160.5547 Q1270.6813,159.4844 1270.6813,158.2031 L1270.6813,157.0469 Q1270.6813,155.7188 1271.2984,154.5703 Q1271.9156,153.4219 1273.0094,152.8047 Q1274.1031,152.1875 1275.3375,152.1875 Q1276.0719,152.1875 1276.7203,152.3516 Q1277.3688,152.5156 1277.9156,152.875 Z "/><text fill="#000000" font-family="sans-serif" font-size="12" lengthAdjust="spacingAndGlyphs" textLength="80" x="1291.85" y="161.9102">TaskExecution</text><line style="stroke: #A80036; stroke-width: 1.5;" x1="1249" x2="1386" y1="173" y2="173"/><rect fill="none" height="6" style="stroke: #C82930; stroke-width: 1.0;" width="6" x="1256" y="182.418"/><text fill="#000000" font-family="sans-serif" font-size="11" lengthAdjust="spacingAndGlyphs" textLength="65" x="1268" y="188.4189">Date deadline</text><rect fill="none" height="6" style="stroke: #C82930; stroke-width: 1.0;" width="6" x="1256" y="196.2539"/><text fill="#000000" font-family="sans-serif" font-size="11" lengthAdjust="spacingAndGlyphs" textLength="62" x="1268" y="202.2549">Double delay</text><rect fill="none" height="6" style="stroke: #C82930; stroke-width: 1.0;" width="6" x="1256" y="210.0898"/><text fill="#000000" font-family="sans-serif" font-size="11" lengthAdjust="spacingAndGlyphs" textLength="113" x="1268" y="216.0908">String descQualityWork</text><!--link Platform to Organization--><path d="M118.323,344 C164.146,344 228.944,344 274.748,344 " fill="none" id="Platform-Organization" style="stroke: #A80036; stroke-width: 1.0;"/><text fill="#000000" font-family="sans-serif" font-size="13" lengthAdjust="spacingAndGlyphs" textLength="82" x="149" y="340.4951">has registered</text><polygon fill="#000000" points="234,333.6758,240,336.6758,234,339.6758,234,333.6758" style="stroke: #000000; stroke-width: 1.0;"/><text fill="#000000" font-family="sans-serif" font-size="13" lengthAdjust="spacingAndGlyphs" textLength="7" x="125.9878" y="358.5531">1</text><text fill="#000000" font-family="sans-serif" font-size="13" lengthAdjust="spacingAndGlyphs" textLength="5" x="261.8532" y="358.6048">*</text><!--link Platform to Freelancer--><path d="M92.4924,371.067 C139.187,410.9928 234.657,481 330,481 C330,481 330,481 828.5,481 C894.981,481 967.212,456.8056 1017.86,435.541 " fill="none" id="Platform-Freelancer" style="stroke: #A80036; stroke-width: 1.0;"/><text fill="#000000" font-family="sans-serif" font-size="13" lengthAdjust="spacingAndGlyphs" textLength="82" x="546.5" y="477.4951">has registered</text><polygon fill="#000000" points="631.5,470.6758,637.5,473.6758,631.5,476.6758,631.5,470.6758" style="stroke: #000000; stroke-width: 1.0;"/><text fill="#000000" font-family="sans-serif" font-size="13" lengthAdjust="spacingAndGlyphs" textLength="7" x="91.397" y="392.2894">1</text><text fill="#000000" font-family="sans-serif" font-size="13" lengthAdjust="spacingAndGlyphs" textLength="5" x="1004.8079" y="453.6275">*</text><!--link Platform to User--><path d="M109.847,316.883 C209.815,260.382 452.979,130.15 674,68 C706.491,58.864 744.108,54.117 773.852,51.653 " fill="none" id="Platform-User" style="stroke: #A80036; stroke-width: 1.0;"/><text fill="#000000" font-family="sans-serif" font-size="13" lengthAdjust="spacingAndGlyphs" textLength="82" x="418" y="119.4951">has registered</text><polygon fill="#000000" points="503,112.6758,509,115.6758,503,118.6758,503,112.6758" style="stroke: #000000; stroke-width: 1.0;"/><text fill="#000000" font-family="sans-serif" font-size="13" lengthAdjust="spacingAndGlyphs" textLength="7" x="113.1021" y="306.3169">1</text><text fill="#000000" font-family="sans-serif" font-size="13" lengthAdjust="spacingAndGlyphs" textLength="5" x="760.9562" y="48.4555">*</text><!--link Organization to Collaborator--><path d="M387.032,325.234 C433.396,309.424 499.122,287.012 543.768,271.788 " fill="none" id="Organization-Collaborator" style="stroke: #A80036; stroke-width: 1.0;"/><text fill="#000000" font-family="sans-serif" font-size="13" lengthAdjust="spacingAndGlyphs" textLength="21" x="448.5" y="279.4951">has</text><polygon fill="#000000" points="472.5,272.6758,478.5,275.6758,472.5,278.6758,472.5,272.6758" style="stroke: #000000; stroke-width: 1.0;"/><text fill="#000000" font-family="sans-serif" font-size="13" lengthAdjust="spacingAndGlyphs" textLength="7" x="395.0316" y="319.1671">1</text><text fill="#000000" font-family="sans-serif" font-size="13" lengthAdjust="spacingAndGlyphs" textLength="7" x="528.8761" y="288.9738">1</text><!--link Organization to PaymentTransaction--><path d="M387.237,340.717 C449.6,336.992 554.097,330.693 644,325 C680.601,322.682 721.324,320.013 755,317.782 " fill="none" id="Organization-PaymentTransaction" style="stroke: #A80036; stroke-width: 1.0;"/><text fill="#000000" font-family="sans-serif" font-size="13" lengthAdjust="spacingAndGlyphs" textLength="21" x="577" y="321.4951">has</text><polygon fill="#000000" points="601,314.6758,607,317.6758,601,320.6758,601,314.6758" style="stroke: #000000; stroke-width: 1.0;"/><text fill="#000000" font-family="sans-serif" font-size="13" lengthAdjust="spacingAndGlyphs" textLength="7" x="394.8908" y="354.8495">1</text><text fill="#000000" font-family="sans-serif" font-size="13" lengthAdjust="spacingAndGlyphs" textLength="5" x="741.7969" y="332.7033">*</text><!--link Collaborator to User--><path d="M609.382,220.976 C622.737,192.657 644.931,152.78 674,126 C702.685,99.574 742.139,79.979 773.73,67.171 " fill="none" id="Collaborator-User" style="stroke: #A80036; stroke-width: 1.0;"/><text fill="#000000" font-family="sans-serif" font-size="13" lengthAdjust="spacingAndGlyphs" textLength="36" x="675" y="88.4951">act as</text><polygon fill="#000000" points="714,81.6758,720,84.6758,714,87.6758,714,81.6758" style="stroke: #000000; stroke-width: 1.0;"/><text fill="#000000" font-family="sans-serif" font-size="13" lengthAdjust="spacingAndGlyphs" textLength="22" x="588.2447" y="210.2645">0..1</text><text fill="#000000" font-family="sans-serif" font-size="13" lengthAdjust="spacingAndGlyphs" textLength="7" x="759.0343" y="84.2395">1</text><!--link Collaborator to Freelancer--><path d="M634.65,289.076 C672.989,321.252 728.986,366.024 755,376 C841.441,409.1494 949.754,411.6171 1017.94,408.9219 " fill="none" id="Collaborator-Freelancer" style="stroke: #A80036; stroke-width: 1.0;"/><text fill="#000000" font-family="sans-serif" font-size="13" lengthAdjust="spacingAndGlyphs" textLength="50" x="796" y="372.4951">registers</text><polygon fill="#000000" points="849,365.6758,855,368.6758,849,371.6758,849,365.6758" style="stroke: #000000; stroke-width: 1.0;"/><text fill="#000000" font-family="sans-serif" font-size="13" lengthAdjust="spacingAndGlyphs" textLength="7" x="634.2673" y="310.1264">1</text><text fill="#000000" font-family="sans-serif" font-size="13" lengthAdjust="spacingAndGlyphs" textLength="5" x="1004.8971" y="423.9305">*</text><!--link Collaborator to Task--><path d="M644.273,250.678 C654.112,249.979 664.379,249.365 674,249 C813.455,243.712 848.475,246.094 988,249 C997.84,249.205 1008.24,249.528 1018.43,249.903 " fill="none" id="Collaborator-Task" style="stroke: #A80036; stroke-width: 1.0;"/><text fill="#000000" font-family="sans-serif" font-size="13" lengthAdjust="spacingAndGlyphs" textLength="43" x="799.5" y="241.4951">creates</text><polygon fill="#000000" points="845.5,234.6758,851.5,237.6758,845.5,240.6758,845.5,234.6758" style="stroke: #000000; stroke-width: 1.0;"/><text fill="#000000" font-family="sans-serif" font-size="13" lengthAdjust="spacingAndGlyphs" textLength="7" x="651.8348" y="264.7381">1</text><text fill="#000000" font-family="sans-serif" font-size="13" lengthAdjust="spacingAndGlyphs" textLength="5" x="1005.4438" y="263.975">*</text><!--link Collaborator to TaskExecution--><path d="M644.424,231.907 C654.069,228.104 664.225,224.571 674,222 C880.213,167.77 938.776,180.352 1152,181 C1183.42,181.095 1218.21,181.294 1247.67,181.488 " fill="none" id="Collaborator-TaskExecution" style="stroke: #A80036; stroke-width: 1.0;"/><text fill="#000000" font-family="sans-serif" font-size="13" lengthAdjust="spacingAndGlyphs" textLength="43" x="931" y="175.4951">creates</text><polygon fill="#000000" points="977,168.6758,983,171.6758,977,174.6758,977,168.6758" style="stroke: #000000; stroke-width: 1.0;"/><text fill="#000000" font-family="sans-serif" font-size="13" lengthAdjust="spacingAndGlyphs" textLength="7" x="652.0071" y="243.3275">1</text><text fill="#000000" font-family="sans-serif" font-size="13" lengthAdjust="spacingAndGlyphs" textLength="5" x="1235.211" y="195.7988">*</text><!--link Collaborator to PaymentTransaction--><path d="M644.095,267.3 C676.214,275.347 718.721,285.997 754.62,294.991 " fill="none" id="Collaborator-PaymentTransaction" style="stroke: #A80036; stroke-width: 1.0;"/><text fill="#000000" font-family="sans-serif" font-size="13" lengthAdjust="spacingAndGlyphs" textLength="28" x="679" y="271.4951">does</text><polygon fill="#000000" points="710,264.6758,716,267.6758,710,270.6758,710,264.6758" style="stroke: #000000; stroke-width: 1.0;"/><text fill="#000000" font-family="sans-serif" font-size="13" lengthAdjust="spacingAndGlyphs" textLength="7" x="651.9668" y="283.8266">1</text><text fill="#000000" font-family="sans-serif" font-size="13" lengthAdjust="spacingAndGlyphs" textLength="5" x="741.8464" y="307.4805">*</text><!--link PaymentTransaction to Freelancer--><path d="M900.023,337.907 C927.55,347.547 959.262,358.717 988,369 C997.688,372.466 1007.91,376.159 1017.94,379.797 " fill="none" id="PaymentTransaction-Freelancer" style="stroke: #A80036; stroke-width: 1.0;"/><text fill="#000000" font-family="sans-serif" font-size="13" lengthAdjust="spacingAndGlyphs" textLength="11" x="947" y="344.4951">to</text><polygon fill="#000000" points="961,337.6758,967,340.6758,961,343.6758,961,337.6758" style="stroke: #000000; stroke-width: 1.0;"/><text fill="#000000" font-family="sans-serif" font-size="13" lengthAdjust="spacingAndGlyphs" textLength="5" x="908.2286" y="355.0295">*</text><text fill="#000000" font-family="sans-serif" font-size="13" lengthAdjust="spacingAndGlyphs" textLength="7" x="1002.7815" y="391.4381">1</text><!--link PaymentTransaction to Task--><path d="M900.011,296.207 C937.066,287.505 982.007,276.951 1018.2,268.453 " fill="none" id="PaymentTransaction-Task" style="stroke: #A80036; stroke-width: 1.0;"/><text fill="#000000" font-family="sans-serif" font-size="13" lengthAdjust="spacingAndGlyphs" textLength="43" x="931" y="271.4951">referent</text><polygon fill="#000000" points="977,264.6758,983,267.6758,977,270.6758,977,264.6758" style="stroke: #000000; stroke-width: 1.0;"/><text fill="#000000" font-family="sans-serif" font-size="13" lengthAdjust="spacingAndGlyphs" textLength="7" x="907.8496" y="308.8219">1</text><text fill="#000000" font-family="sans-serif" font-size="13" lengthAdjust="spacingAndGlyphs" textLength="7" x="1003.5109" y="284.5227">1</text><!--link Task to TaskExecution--><path d="M1151.74,232.749 C1181.82,223.486 1217.44,212.513 1247.86,203.143 " fill="none" id="Task-TaskExecution" style="stroke: #A80036; stroke-width: 1.0;"/><text fill="#000000" font-family="sans-serif" font-size="13" lengthAdjust="spacingAndGlyphs" textLength="21" x="1183" y="209.4951">has</text><polygon fill="#000000" points="1207,202.6758,1213,205.6758,1207,208.6758,1207,202.6758" style="stroke: #000000; stroke-width: 1.0;"/><text fill="#000000" font-family="sans-serif" font-size="13" lengthAdjust="spacingAndGlyphs" textLength="7" x="1159.4225" y="244.9136">1</text><text fill="#000000" font-family="sans-serif" font-size="13" lengthAdjust="spacingAndGlyphs" textLength="22" x="1217.922" y="219.5484">0..1</text><!--
@startuml

hide methods
left to right direction

class Platform {
  -String designation
}

class Organization {
  -String designation
}

class Collaborator {
  -String name
  -String email
}

class User {
  -String name
  -String email
  -String password
}

class Freelancer {
  -String id
  -String name
  -String email
  -double NIF
  -String IBAN
  -double overallPayment
}

class PaymentTransaction {
  -String id
}

class Task {
  -String id
  -String briefDescription
  -Double timeDuration
  -Double costPerHour
  -String category
}

class TaskExecution {
  -Date deadline
  -Double delay
  -String descQualityWork
}

Platform "1" - - "*" Organization : has registered >
Platform "1" - - "*" Freelancer : has registered >
Platform "1" - - "*" User : has registered >

Organization "1" - - "1" Collaborator: has >
Organization "1" - - "*" PaymentTransaction : has >

Collaborator "0..1" - - "1" User : act as >
Collaborator "1" - - "*" Freelancer : registers >
Collaborator "1" - - "*" Task : creates >
Collaborator "1" - - "*" TaskExecution : creates >
Collaborator "1" - - "*" PaymentTransaction : does >

PaymentTransaction "*" - - "1" Freelancer : to >
PaymentTransaction "1" - - "1" Task : referent >

Task "1" - - "0..1" TaskExecution : has >

@enduml

PlantUML version 1.2018.14(Fri Dec 21 16:33:16 GMT 2018)
(GPL source distribution)
Java Runtime: Java(TM) SE Runtime Environment
JVM: Java HotSpot(TM) 64-Bit Server VM
Java Version: 1.8.0_251-b08
Operating System: Windows 10
OS Version: 10.0
Default Encoding: Cp1252
Language: pt
Country: PT
--></g></svg>