<?xml version="1.0" encoding="UTF-8" standalone="no"?><svg xmlns="http://www.w3.org/2000/svg" xmlns:xlink="http://www.w3.org/1999/xlink" contentScriptType="application/ecmascript" contentStyleType="text/css" height="1471px" preserveAspectRatio="none" style="width:1219px;height:1471px;" version="1.1" viewBox="0 0 1219 1471" width="1219px" zoomAndPan="magnify"><defs><filter height="300%" id="fnvd2ii9ypxl6" width="300%" x="-1" y="-1"><feGaussianBlur result="blurOut" stdDeviation="2.0"/><feColorMatrix in="blurOut" result="blurOut2" type="matrix" values="0 0 0 0 0 0 0 0 0 0 0 0 0 0 0 0 0 0 .4 0"/><feOffset dx="4.0" dy="4.0" in="blurOut2" result="blurOut3"/><feBlend in="SourceGraphic" in2="blurOut3" mode="normal"/></filter></defs><g><!--class PaymentTransactionUI--><rect fill="#FEFECE" filter="url(#fnvd2ii9ypxl6)" height="48" id="PaymentTransactionUI" style="stroke: #A80036; stroke-width: 1.5;" width="157" x="458.5" y="8"/><ellipse cx="473.5" cy="24" fill="#ADD1B2" rx="11" ry="11" style="stroke: #A80036; stroke-width: 1.0;"/><path d="M476.2656,19.875 Q476.4219,19.6563 476.6094,19.5469 Q476.7969,19.4375 477.0156,19.4375 Q477.3906,19.4375 477.625,19.6953 Q477.8594,19.9531 477.8594,20.5625 L477.8594,22.0156 Q477.8594,22.625 477.625,22.8906 Q477.3906,23.1563 477.0156,23.1563 Q476.6719,23.1563 476.4688,22.9531 Q476.2656,22.7656 476.1563,22.25 Q476.1094,21.8906 475.9219,21.7031 Q475.5938,21.3281 474.9844,21.1094 Q474.375,20.8906 473.75,20.8906 Q472.9844,20.8906 472.3516,21.2188 Q471.7188,21.5469 471.2266,22.2969 Q470.7344,23.0469 470.7344,24.0781 L470.7344,25.1719 Q470.7344,26.4063 471.625,27.2266 Q472.5156,28.0469 474.1094,28.0469 Q475.0469,28.0469 475.7031,27.7969 Q476.0938,27.6406 476.5156,27.2031 Q476.7813,26.9375 476.9297,26.8594 Q477.0781,26.7813 477.2813,26.7813 Q477.6094,26.7813 477.8672,27.0391 Q478.125,27.2969 478.125,27.6406 Q478.125,27.9844 477.7813,28.3906 Q477.2813,28.9688 476.4844,29.2969 Q475.4063,29.75 474.1094,29.75 Q472.5938,29.75 471.3906,29.125 Q470.4063,28.625 469.7188,27.5547 Q469.0313,26.4844 469.0313,25.2031 L469.0313,24.0469 Q469.0313,22.7188 469.6484,21.5703 Q470.2656,20.4219 471.3594,19.8047 Q472.4531,19.1875 473.6875,19.1875 Q474.4219,19.1875 475.0703,19.3516 Q475.7188,19.5156 476.2656,19.875 Z "/><text fill="#000000" font-family="sans-serif" font-size="12" lengthAdjust="spacingAndGlyphs" textLength="125" x="487.5" y="28.9102">PaymentTransactionUI</text><line style="stroke: #A80036; stroke-width: 1.5;" x1="459.5" x2="614.5" y1="40" y2="40"/><line style="stroke: #A80036; stroke-width: 1.5;" x1="459.5" x2="614.5" y1="48" y2="48"/><!--class PaymentTransactionController--><rect fill="#FEFECE" filter="url(#fnvd2ii9ypxl6)" height="117.1797" id="PaymentTransactionController" style="stroke: #A80036; stroke-width: 1.5;" width="308" x="383" y="117"/><ellipse cx="449.25" cy="133" fill="#ADD1B2" rx="11" ry="11" style="stroke: #A80036; stroke-width: 1.0;"/><path d="M452.0156,128.875 Q452.1719,128.6563 452.3594,128.5469 Q452.5469,128.4375 452.7656,128.4375 Q453.1406,128.4375 453.375,128.6953 Q453.6094,128.9531 453.6094,129.5625 L453.6094,131.0156 Q453.6094,131.625 453.375,131.8906 Q453.1406,132.1563 452.7656,132.1563 Q452.4219,132.1563 452.2188,131.9531 Q452.0156,131.7656 451.9063,131.25 Q451.8594,130.8906 451.6719,130.7031 Q451.3438,130.3281 450.7344,130.1094 Q450.125,129.8906 449.5,129.8906 Q448.7344,129.8906 448.1016,130.2188 Q447.4688,130.5469 446.9766,131.2969 Q446.4844,132.0469 446.4844,133.0781 L446.4844,134.1719 Q446.4844,135.4063 447.375,136.2266 Q448.2656,137.0469 449.8594,137.0469 Q450.7969,137.0469 451.4531,136.7969 Q451.8438,136.6406 452.2656,136.2031 Q452.5313,135.9375 452.6797,135.8594 Q452.8281,135.7813 453.0313,135.7813 Q453.3594,135.7813 453.6172,136.0391 Q453.875,136.2969 453.875,136.6406 Q453.875,136.9844 453.5313,137.3906 Q453.0313,137.9688 452.2344,138.2969 Q451.1563,138.75 449.8594,138.75 Q448.3438,138.75 447.1406,138.125 Q446.1563,137.625 445.4688,136.5547 Q444.7813,135.4844 444.7813,134.2031 L444.7813,133.0469 Q444.7813,131.7188 445.3984,130.5703 Q446.0156,129.4219 447.1094,128.8047 Q448.2031,128.1875 449.4375,128.1875 Q450.1719,128.1875 450.8203,128.3516 Q451.4688,128.5156 452.0156,128.875 Z "/><text fill="#000000" font-family="sans-serif" font-size="12" lengthAdjust="spacingAndGlyphs" textLength="167" x="469.75" y="137.9102">PaymentTransactionController</text><line style="stroke: #A80036; stroke-width: 1.5;" x1="384" x2="690" y1="149" y2="149"/><line style="stroke: #A80036; stroke-width: 1.5;" x1="384" x2="690" y1="157" y2="157"/><ellipse cx="394" cy="169.418" fill="#84BE84" rx="3" ry="3" style="stroke: #038048; stroke-width: 1.0;"/><text fill="#000000" font-family="sans-serif" font-size="11" lengthAdjust="spacingAndGlyphs" textLength="110" x="403" y="172.4189">getListOfFreelancers()</text><ellipse cx="394" cy="183.2539" fill="#84BE84" rx="3" ry="3" style="stroke: #038048; stroke-width: 1.0;"/><text fill="#000000" font-family="sans-serif" font-size="11" lengthAdjust="spacingAndGlyphs" textLength="81" x="403" y="186.2549">getListOfTasks()</text><ellipse cx="394" cy="197.0898" fill="#84BE84" rx="3" ry="3" style="stroke: #038048; stroke-width: 1.0;"/><text fill="#000000" font-family="sans-serif" font-size="11" lengthAdjust="spacingAndGlyphs" textLength="282" x="403" y="200.0908">setData(taskEnd, taskDelay, taskDescWork, freelId, taskId)</text><ellipse cx="394" cy="210.9258" fill="#84BE84" rx="3" ry="3" style="stroke: #038048; stroke-width: 1.0;"/><text fill="#000000" font-family="sans-serif" font-size="11" lengthAdjust="spacingAndGlyphs" textLength="136" x="403" y="213.9268">newPaymentTransaction(id)</text><ellipse cx="394" cy="224.7617" fill="#84BE84" rx="3" ry="3" style="stroke: #038048; stroke-width: 1.0;"/><text fill="#000000" font-family="sans-serif" font-size="11" lengthAdjust="spacingAndGlyphs" textLength="143" x="403" y="227.7627">registerPaymentTransaction()</text><!--class AplicacaoPOT--><rect fill="#FEFECE" filter="url(#fnvd2ii9ypxl6)" height="75.6719" id="AplicacaoPOT" style="stroke: #A80036; stroke-width: 1.5;" width="124" x="6" y="302"/><ellipse cx="27.75" cy="318" fill="#ADD1B2" rx="11" ry="11" style="stroke: #A80036; stroke-width: 1.0;"/><path d="M30.5156,313.875 Q30.6719,313.6563 30.8594,313.5469 Q31.0469,313.4375 31.2656,313.4375 Q31.6406,313.4375 31.875,313.6953 Q32.1094,313.9531 32.1094,314.5625 L32.1094,316.0156 Q32.1094,316.625 31.875,316.8906 Q31.6406,317.1563 31.2656,317.1563 Q30.9219,317.1563 30.7188,316.9531 Q30.5156,316.7656 30.4063,316.25 Q30.3594,315.8906 30.1719,315.7031 Q29.8438,315.3281 29.2344,315.1094 Q28.625,314.8906 28,314.8906 Q27.2344,314.8906 26.6016,315.2188 Q25.9688,315.5469 25.4766,316.2969 Q24.9844,317.0469 24.9844,318.0781 L24.9844,319.1719 Q24.9844,320.4063 25.875,321.2266 Q26.7656,322.0469 28.3594,322.0469 Q29.2969,322.0469 29.9531,321.7969 Q30.3438,321.6406 30.7656,321.2031 Q31.0313,320.9375 31.1797,320.8594 Q31.3281,320.7813 31.5313,320.7813 Q31.8594,320.7813 32.1172,321.0391 Q32.375,321.2969 32.375,321.6406 Q32.375,321.9844 32.0313,322.3906 Q31.5313,322.9688 30.7344,323.2969 Q29.6563,323.75 28.3594,323.75 Q26.8438,323.75 25.6406,323.125 Q24.6563,322.625 23.9688,321.5547 Q23.2813,320.4844 23.2813,319.2031 L23.2813,318.0469 Q23.2813,316.7188 23.8984,315.5703 Q24.5156,314.4219 25.6094,313.8047 Q26.7031,313.1875 27.9375,313.1875 Q28.6719,313.1875 29.3203,313.3516 Q29.9688,313.5156 30.5156,313.875 Z "/><text fill="#000000" font-family="sans-serif" font-size="12" lengthAdjust="spacingAndGlyphs" textLength="77" x="43.25" y="322.9102">AplicacaoPOT</text><line style="stroke: #A80036; stroke-width: 1.5;" x1="7" x2="129" y1="334" y2="334"/><line style="stroke: #A80036; stroke-width: 1.5;" x1="7" x2="129" y1="342" y2="342"/><ellipse cx="17" cy="354.418" fill="#84BE84" rx="3" ry="3" style="stroke: #038048; stroke-width: 1.0;"/><text fill="#000000" font-family="sans-serif" font-size="11" lengthAdjust="spacingAndGlyphs" textLength="93" x="26" y="357.4189">static getInstance()</text><ellipse cx="17" cy="368.2539" fill="#84BE84" rx="3" ry="3" style="stroke: #038048; stroke-width: 1.0;"/><text fill="#000000" font-family="sans-serif" font-size="11" lengthAdjust="spacingAndGlyphs" textLength="98" x="26" y="371.2549">getCurrentSession()</text><!--class UserSession--><rect fill="#FEFECE" filter="url(#fnvd2ii9ypxl6)" height="61.8359" id="UserSession" style="stroke: #A80036; stroke-width: 1.5;" width="105" x="165.5" y="309"/><ellipse cx="180.5" cy="325" fill="#ADD1B2" rx="11" ry="11" style="stroke: #A80036; stroke-width: 1.0;"/><path d="M183.2656,320.875 Q183.4219,320.6563 183.6094,320.5469 Q183.7969,320.4375 184.0156,320.4375 Q184.3906,320.4375 184.625,320.6953 Q184.8594,320.9531 184.8594,321.5625 L184.8594,323.0156 Q184.8594,323.625 184.625,323.8906 Q184.3906,324.1563 184.0156,324.1563 Q183.6719,324.1563 183.4688,323.9531 Q183.2656,323.7656 183.1563,323.25 Q183.1094,322.8906 182.9219,322.7031 Q182.5938,322.3281 181.9844,322.1094 Q181.375,321.8906 180.75,321.8906 Q179.9844,321.8906 179.3516,322.2188 Q178.7188,322.5469 178.2266,323.2969 Q177.7344,324.0469 177.7344,325.0781 L177.7344,326.1719 Q177.7344,327.4063 178.625,328.2266 Q179.5156,329.0469 181.1094,329.0469 Q182.0469,329.0469 182.7031,328.7969 Q183.0938,328.6406 183.5156,328.2031 Q183.7813,327.9375 183.9297,327.8594 Q184.0781,327.7813 184.2813,327.7813 Q184.6094,327.7813 184.8672,328.0391 Q185.125,328.2969 185.125,328.6406 Q185.125,328.9844 184.7813,329.3906 Q184.2813,329.9688 183.4844,330.2969 Q182.4063,330.75 181.1094,330.75 Q179.5938,330.75 178.3906,330.125 Q177.4063,329.625 176.7188,328.5547 Q176.0313,327.4844 176.0313,326.2031 L176.0313,325.0469 Q176.0313,323.7188 176.6484,322.5703 Q177.2656,321.4219 178.3594,320.8047 Q179.4531,320.1875 180.6875,320.1875 Q181.4219,320.1875 182.0703,320.3516 Q182.7188,320.5156 183.2656,320.875 Z "/><text fill="#000000" font-family="sans-serif" font-size="12" lengthAdjust="spacingAndGlyphs" textLength="73" x="194.5" y="329.9102">UserSession</text><line style="stroke: #A80036; stroke-width: 1.5;" x1="166.5" x2="269.5" y1="341" y2="341"/><line style="stroke: #A80036; stroke-width: 1.5;" x1="166.5" x2="269.5" y1="349" y2="349"/><ellipse cx="176.5" cy="361.418" fill="#84BE84" rx="3" ry="3" style="stroke: #038048; stroke-width: 1.0;"/><text fill="#000000" font-family="sans-serif" font-size="11" lengthAdjust="spacingAndGlyphs" textLength="70" x="185.5" y="364.4189">getUserEmail()</text><!--class Platform--><rect fill="#FEFECE" filter="url(#fnvd2ii9ypxl6)" height="89.5078" id="Platform" style="stroke: #A80036; stroke-width: 1.5;" width="266" x="661" y="295"/><ellipse cx="766.75" cy="311" fill="#ADD1B2" rx="11" ry="11" style="stroke: #A80036; stroke-width: 1.0;"/><path d="M769.5156,306.875 Q769.6719,306.6563 769.8594,306.5469 Q770.0469,306.4375 770.2656,306.4375 Q770.6406,306.4375 770.875,306.6953 Q771.1094,306.9531 771.1094,307.5625 L771.1094,309.0156 Q771.1094,309.625 770.875,309.8906 Q770.6406,310.1563 770.2656,310.1563 Q769.9219,310.1563 769.7188,309.9531 Q769.5156,309.7656 769.4063,309.25 Q769.3594,308.8906 769.1719,308.7031 Q768.8438,308.3281 768.2344,308.1094 Q767.625,307.8906 767,307.8906 Q766.2344,307.8906 765.6016,308.2188 Q764.9688,308.5469 764.4766,309.2969 Q763.9844,310.0469 763.9844,311.0781 L763.9844,312.1719 Q763.9844,313.4063 764.875,314.2266 Q765.7656,315.0469 767.3594,315.0469 Q768.2969,315.0469 768.9531,314.7969 Q769.3438,314.6406 769.7656,314.2031 Q770.0313,313.9375 770.1797,313.8594 Q770.3281,313.7813 770.5313,313.7813 Q770.8594,313.7813 771.1172,314.0391 Q771.375,314.2969 771.375,314.6406 Q771.375,314.9844 771.0313,315.3906 Q770.5313,315.9688 769.7344,316.2969 Q768.6563,316.75 767.3594,316.75 Q765.8438,316.75 764.6406,316.125 Q763.6563,315.625 762.9688,314.5547 Q762.2813,313.4844 762.2813,312.2031 L762.2813,311.0469 Q762.2813,309.7188 762.8984,308.5703 Q763.5156,307.4219 764.6094,306.8047 Q765.7031,306.1875 766.9375,306.1875 Q767.6719,306.1875 768.3203,306.3516 Q768.9688,306.5156 769.5156,306.875 Z "/><text fill="#000000" font-family="sans-serif" font-size="12" lengthAdjust="spacingAndGlyphs" textLength="46" x="787.25" y="315.9102">Platform</text><line style="stroke: #A80036; stroke-width: 1.5;" x1="662" x2="926" y1="327" y2="327"/><rect fill="none" height="6" style="stroke: #C82930; stroke-width: 1.0;" width="6" x="669" y="336.418"/><text fill="#000000" font-family="sans-serif" font-size="11" lengthAdjust="spacingAndGlyphs" textLength="86" x="681" y="342.4189">String designation</text><line style="stroke: #A80036; stroke-width: 1.5;" x1="662" x2="926" y1="348.8359" y2="348.8359"/><ellipse cx="672" cy="361.2539" fill="#84BE84" rx="3" ry="3" style="stroke: #038048; stroke-width: 1.0;"/><text fill="#000000" font-family="sans-serif" font-size="11" lengthAdjust="spacingAndGlyphs" textLength="216" x="681" y="364.2549">FreelancersRegister getFreelancerRegister()</text><ellipse cx="672" cy="375.0898" fill="#84BE84" rx="3" ry="3" style="stroke: #038048; stroke-width: 1.0;"/><text fill="#000000" font-family="sans-serif" font-size="11" lengthAdjust="spacingAndGlyphs" textLength="240" x="681" y="378.0908">OrganizationsRegister getOrganizationsRegister()</text><!--class FreelancersRegister--><rect fill="#FEFECE" filter="url(#fnvd2ii9ypxl6)" height="75.6719" id="FreelancersRegister" style="stroke: #A80036; stroke-width: 1.5;" width="178" x="976" y="463"/><ellipse cx="1005.85" cy="479" fill="#ADD1B2" rx="11" ry="11" style="stroke: #A80036; stroke-width: 1.0;"/><path d="M1008.6156,474.875 Q1008.7719,474.6563 1008.9594,474.5469 Q1009.1469,474.4375 1009.3656,474.4375 Q1009.7406,474.4375 1009.975,474.6953 Q1010.2094,474.9531 1010.2094,475.5625 L1010.2094,477.0156 Q1010.2094,477.625 1009.975,477.8906 Q1009.7406,478.1563 1009.3656,478.1563 Q1009.0219,478.1563 1008.8188,477.9531 Q1008.6156,477.7656 1008.5063,477.25 Q1008.4594,476.8906 1008.2719,476.7031 Q1007.9438,476.3281 1007.3344,476.1094 Q1006.725,475.8906 1006.1,475.8906 Q1005.3344,475.8906 1004.7016,476.2188 Q1004.0688,476.5469 1003.5766,477.2969 Q1003.0844,478.0469 1003.0844,479.0781 L1003.0844,480.1719 Q1003.0844,481.4063 1003.975,482.2266 Q1004.8656,483.0469 1006.4594,483.0469 Q1007.3969,483.0469 1008.0531,482.7969 Q1008.4438,482.6406 1008.8656,482.2031 Q1009.1313,481.9375 1009.2797,481.8594 Q1009.4281,481.7813 1009.6313,481.7813 Q1009.9594,481.7813 1010.2172,482.0391 Q1010.475,482.2969 1010.475,482.6406 Q1010.475,482.9844 1010.1313,483.3906 Q1009.6313,483.9688 1008.8344,484.2969 Q1007.7563,484.75 1006.4594,484.75 Q1004.9438,484.75 1003.7406,484.125 Q1002.7563,483.625 1002.0688,482.5547 Q1001.3813,481.4844 1001.3813,480.2031 L1001.3813,479.0469 Q1001.3813,477.7188 1001.9984,476.5703 Q1002.6156,475.4219 1003.7094,474.8047 Q1004.8031,474.1875 1006.0375,474.1875 Q1006.7719,474.1875 1007.4203,474.3516 Q1008.0688,474.5156 1008.6156,474.875 Z "/><text fill="#000000" font-family="sans-serif" font-size="12" lengthAdjust="spacingAndGlyphs" textLength="113" x="1023.15" y="483.9102">FreelancersRegister</text><line style="stroke: #A80036; stroke-width: 1.5;" x1="977" x2="1153" y1="495" y2="495"/><line style="stroke: #A80036; stroke-width: 1.5;" x1="977" x2="1153" y1="503" y2="503"/><ellipse cx="987" cy="515.418" fill="#84BE84" rx="3" ry="3" style="stroke: #038048; stroke-width: 1.0;"/><text fill="#000000" font-family="sans-serif" font-size="11" lengthAdjust="spacingAndGlyphs" textLength="110" x="996" y="518.4189">getListOfFreelancers()</text><ellipse cx="987" cy="529.2539" fill="#84BE84" rx="3" ry="3" style="stroke: #038048; stroke-width: 1.0;"/><text fill="#000000" font-family="sans-serif" font-size="11" lengthAdjust="spacingAndGlyphs" textLength="152" x="996" y="532.2549">Task getFreelancerById(freelId)</text><!--class OrganizationsRegister--><rect fill="#FEFECE" filter="url(#fnvd2ii9ypxl6)" height="61.8359" id="OrganizationsRegister" style="stroke: #A80036; stroke-width: 1.5;" width="194" x="590" y="470"/><ellipse cx="622.55" cy="486" fill="#ADD1B2" rx="11" ry="11" style="stroke: #A80036; stroke-width: 1.0;"/><path d="M625.3156,481.875 Q625.4719,481.6563 625.6594,481.5469 Q625.8469,481.4375 626.0656,481.4375 Q626.4406,481.4375 626.675,481.6953 Q626.9094,481.9531 626.9094,482.5625 L626.9094,484.0156 Q626.9094,484.625 626.675,484.8906 Q626.4406,485.1563 626.0656,485.1563 Q625.7219,485.1563 625.5188,484.9531 Q625.3156,484.7656 625.2063,484.25 Q625.1594,483.8906 624.9719,483.7031 Q624.6438,483.3281 624.0344,483.1094 Q623.425,482.8906 622.8,482.8906 Q622.0344,482.8906 621.4016,483.2188 Q620.7688,483.5469 620.2766,484.2969 Q619.7844,485.0469 619.7844,486.0781 L619.7844,487.1719 Q619.7844,488.4063 620.675,489.2266 Q621.5656,490.0469 623.1594,490.0469 Q624.0969,490.0469 624.7531,489.7969 Q625.1438,489.6406 625.5656,489.2031 Q625.8313,488.9375 625.9797,488.8594 Q626.1281,488.7813 626.3313,488.7813 Q626.6594,488.7813 626.9172,489.0391 Q627.175,489.2969 627.175,489.6406 Q627.175,489.9844 626.8313,490.3906 Q626.3313,490.9688 625.5344,491.2969 Q624.4563,491.75 623.1594,491.75 Q621.6438,491.75 620.4406,491.125 Q619.4563,490.625 618.7688,489.5547 Q618.0813,488.4844 618.0813,487.2031 L618.0813,486.0469 Q618.0813,484.7188 618.6984,483.5703 Q619.3156,482.4219 620.4094,481.8047 Q621.5031,481.1875 622.7375,481.1875 Q623.4719,481.1875 624.1203,481.3516 Q624.7688,481.5156 625.3156,481.875 Z "/><text fill="#000000" font-family="sans-serif" font-size="12" lengthAdjust="spacingAndGlyphs" textLength="123" x="640.45" y="490.9102">OrganizationsRegister</text><line style="stroke: #A80036; stroke-width: 1.5;" x1="591" x2="783" y1="502" y2="502"/><line style="stroke: #A80036; stroke-width: 1.5;" x1="591" x2="783" y1="510" y2="510"/><ellipse cx="601" cy="522.418" fill="#84BE84" rx="3" ry="3" style="stroke: #038048; stroke-width: 1.0;"/><text fill="#000000" font-family="sans-serif" font-size="11" lengthAdjust="spacingAndGlyphs" textLength="168" x="610" y="525.4189">getOrganizationByUserEmail(email)</text><!--class Organization--><rect fill="#FEFECE" filter="url(#fnvd2ii9ypxl6)" height="89.5078" id="Organization" style="stroke: #A80036; stroke-width: 1.5;" width="282" x="519" y="617"/><ellipse cx="621.25" cy="633" fill="#ADD1B2" rx="11" ry="11" style="stroke: #A80036; stroke-width: 1.0;"/><path d="M624.0156,628.875 Q624.1719,628.6563 624.3594,628.5469 Q624.5469,628.4375 624.7656,628.4375 Q625.1406,628.4375 625.375,628.6953 Q625.6094,628.9531 625.6094,629.5625 L625.6094,631.0156 Q625.6094,631.625 625.375,631.8906 Q625.1406,632.1563 624.7656,632.1563 Q624.4219,632.1563 624.2188,631.9531 Q624.0156,631.7656 623.9063,631.25 Q623.8594,630.8906 623.6719,630.7031 Q623.3438,630.3281 622.7344,630.1094 Q622.125,629.8906 621.5,629.8906 Q620.7344,629.8906 620.1016,630.2188 Q619.4688,630.5469 618.9766,631.2969 Q618.4844,632.0469 618.4844,633.0781 L618.4844,634.1719 Q618.4844,635.4063 619.375,636.2266 Q620.2656,637.0469 621.8594,637.0469 Q622.7969,637.0469 623.4531,636.7969 Q623.8438,636.6406 624.2656,636.2031 Q624.5313,635.9375 624.6797,635.8594 Q624.8281,635.7813 625.0313,635.7813 Q625.3594,635.7813 625.6172,636.0391 Q625.875,636.2969 625.875,636.6406 Q625.875,636.9844 625.5313,637.3906 Q625.0313,637.9688 624.2344,638.2969 Q623.1563,638.75 621.8594,638.75 Q620.3438,638.75 619.1406,638.125 Q618.1563,637.625 617.4688,636.5547 Q616.7813,635.4844 616.7813,634.2031 L616.7813,633.0469 Q616.7813,631.7188 617.3984,630.5703 Q618.0156,629.4219 619.1094,628.8047 Q620.2031,628.1875 621.4375,628.1875 Q622.1719,628.1875 622.8203,628.3516 Q623.4688,628.5156 624.0156,628.875 Z "/><text fill="#000000" font-family="sans-serif" font-size="12" lengthAdjust="spacingAndGlyphs" textLength="69" x="641.75" y="637.9102">Organization</text><line style="stroke: #A80036; stroke-width: 1.5;" x1="520" x2="800" y1="649" y2="649"/><rect fill="none" height="6" style="stroke: #C82930; stroke-width: 1.0;" width="6" x="527" y="658.418"/><text fill="#000000" font-family="sans-serif" font-size="11" lengthAdjust="spacingAndGlyphs" textLength="86" x="539" y="664.4189">String designation</text><line style="stroke: #A80036; stroke-width: 1.5;" x1="520" x2="800" y1="670.8359" y2="670.8359"/><ellipse cx="530" cy="683.2539" fill="#84BE84" rx="3" ry="3" style="stroke: #038048; stroke-width: 1.0;"/><text fill="#000000" font-family="sans-serif" font-size="11" lengthAdjust="spacingAndGlyphs" textLength="118" x="539" y="686.2549">TasksList getTasksList()</text><ellipse cx="530" cy="697.0898" fill="#84BE84" rx="3" ry="3" style="stroke: #038048; stroke-width: 1.0;"/><text fill="#000000" font-family="sans-serif" font-size="11" lengthAdjust="spacingAndGlyphs" textLength="256" x="539" y="700.0908">PaymentTransactionList getPaymentTransactionList()</text><!--class TasksList--><rect fill="#FEFECE" filter="url(#fnvd2ii9ypxl6)" height="75.6719" id="TasksList" style="stroke: #A80036; stroke-width: 1.5;" width="119" x="377.5" y="798.5"/><ellipse cx="407.35" cy="814.5" fill="#ADD1B2" rx="11" ry="11" style="stroke: #A80036; stroke-width: 1.0;"/><path d="M410.1156,810.375 Q410.2719,810.1563 410.4594,810.0469 Q410.6469,809.9375 410.8656,809.9375 Q411.2406,809.9375 411.475,810.1953 Q411.7094,810.4531 411.7094,811.0625 L411.7094,812.5156 Q411.7094,813.125 411.475,813.3906 Q411.2406,813.6563 410.8656,813.6563 Q410.5219,813.6563 410.3188,813.4531 Q410.1156,813.2656 410.0063,812.75 Q409.9594,812.3906 409.7719,812.2031 Q409.4438,811.8281 408.8344,811.6094 Q408.225,811.3906 407.6,811.3906 Q406.8344,811.3906 406.2016,811.7188 Q405.5688,812.0469 405.0766,812.7969 Q404.5844,813.5469 404.5844,814.5781 L404.5844,815.6719 Q404.5844,816.9063 405.475,817.7266 Q406.3656,818.5469 407.9594,818.5469 Q408.8969,818.5469 409.5531,818.2969 Q409.9438,818.1406 410.3656,817.7031 Q410.6313,817.4375 410.7797,817.3594 Q410.9281,817.2813 411.1313,817.2813 Q411.4594,817.2813 411.7172,817.5391 Q411.975,817.7969 411.975,818.1406 Q411.975,818.4844 411.6313,818.8906 Q411.1313,819.4688 410.3344,819.7969 Q409.2563,820.25 407.9594,820.25 Q406.4438,820.25 405.2406,819.625 Q404.2563,819.125 403.5688,818.0547 Q402.8813,816.9844 402.8813,815.7031 L402.8813,814.5469 Q402.8813,813.2188 403.4984,812.0703 Q404.1156,810.9219 405.2094,810.3047 Q406.3031,809.6875 407.5375,809.6875 Q408.2719,809.6875 408.9203,809.8516 Q409.5688,810.0156 410.1156,810.375 Z "/><text fill="#000000" font-family="sans-serif" font-size="12" lengthAdjust="spacingAndGlyphs" textLength="54" x="424.65" y="819.4102">TasksList</text><line style="stroke: #A80036; stroke-width: 1.5;" x1="378.5" x2="495.5" y1="830.5" y2="830.5"/><line style="stroke: #A80036; stroke-width: 1.5;" x1="378.5" x2="495.5" y1="838.5" y2="838.5"/><ellipse cx="388.5" cy="850.918" fill="#84BE84" rx="3" ry="3" style="stroke: #038048; stroke-width: 1.0;"/><text fill="#000000" font-family="sans-serif" font-size="11" lengthAdjust="spacingAndGlyphs" textLength="81" x="397.5" y="853.9189">getListOfTasks()</text><ellipse cx="388.5" cy="864.7539" fill="#84BE84" rx="3" ry="3" style="stroke: #038048; stroke-width: 1.0;"/><text fill="#000000" font-family="sans-serif" font-size="11" lengthAdjust="spacingAndGlyphs" textLength="93" x="397.5" y="867.7549">Task getTaskById()</text><!--class Collaborator--><rect fill="#FEFECE" filter="url(#fnvd2ii9ypxl6)" height="75.6719" id="Collaborator" style="stroke: #A80036; stroke-width: 1.5;" width="100" x="801" y="798.5"/><ellipse cx="816" cy="814.5" fill="#ADD1B2" rx="11" ry="11" style="stroke: #A80036; stroke-width: 1.0;"/><path d="M818.7656,810.375 Q818.9219,810.1563 819.1094,810.0469 Q819.2969,809.9375 819.5156,809.9375 Q819.8906,809.9375 820.125,810.1953 Q820.3594,810.4531 820.3594,811.0625 L820.3594,812.5156 Q820.3594,813.125 820.125,813.3906 Q819.8906,813.6563 819.5156,813.6563 Q819.1719,813.6563 818.9688,813.4531 Q818.7656,813.2656 818.6563,812.75 Q818.6094,812.3906 818.4219,812.2031 Q818.0938,811.8281 817.4844,811.6094 Q816.875,811.3906 816.25,811.3906 Q815.4844,811.3906 814.8516,811.7188 Q814.2188,812.0469 813.7266,812.7969 Q813.2344,813.5469 813.2344,814.5781 L813.2344,815.6719 Q813.2344,816.9063 814.125,817.7266 Q815.0156,818.5469 816.6094,818.5469 Q817.5469,818.5469 818.2031,818.2969 Q818.5938,818.1406 819.0156,817.7031 Q819.2813,817.4375 819.4297,817.3594 Q819.5781,817.2813 819.7813,817.2813 Q820.1094,817.2813 820.3672,817.5391 Q820.625,817.7969 820.625,818.1406 Q820.625,818.4844 820.2813,818.8906 Q819.7813,819.4688 818.9844,819.7969 Q817.9063,820.25 816.6094,820.25 Q815.0938,820.25 813.8906,819.625 Q812.9063,819.125 812.2188,818.0547 Q811.5313,816.9844 811.5313,815.7031 L811.5313,814.5469 Q811.5313,813.2188 812.1484,812.0703 Q812.7656,810.9219 813.8594,810.3047 Q814.9531,809.6875 816.1875,809.6875 Q816.9219,809.6875 817.5703,809.8516 Q818.2188,810.0156 818.7656,810.375 Z "/><text fill="#000000" font-family="sans-serif" font-size="12" lengthAdjust="spacingAndGlyphs" textLength="68" x="830" y="819.4102">Collaborator</text><line style="stroke: #A80036; stroke-width: 1.5;" x1="802" x2="900" y1="830.5" y2="830.5"/><rect fill="none" height="6" style="stroke: #C82930; stroke-width: 1.0;" width="6" x="809" y="839.918"/><text fill="#000000" font-family="sans-serif" font-size="11" lengthAdjust="spacingAndGlyphs" textLength="57" x="821" y="845.9189">String name</text><rect fill="none" height="6" style="stroke: #C82930; stroke-width: 1.0;" width="6" x="809" y="853.7539"/><text fill="#000000" font-family="sans-serif" font-size="11" lengthAdjust="spacingAndGlyphs" textLength="55" x="821" y="859.7549">String email</text><line style="stroke: #A80036; stroke-width: 1.5;" x1="802" x2="900" y1="866.1719" y2="866.1719"/><!--class Freelancer--><rect fill="#FEFECE" filter="url(#fnvd2ii9ypxl6)" height="158.6875" id="Freelancer" style="stroke: #A80036; stroke-width: 1.5;" width="151" x="960.5" y="1120"/><ellipse cx="1002.5" cy="1136" fill="#ADD1B2" rx="11" ry="11" style="stroke: #A80036; stroke-width: 1.0;"/><path d="M1005.2656,1131.875 Q1005.4219,1131.6563 1005.6094,1131.5469 Q1005.7969,1131.4375 1006.0156,1131.4375 Q1006.3906,1131.4375 1006.625,1131.6953 Q1006.8594,1131.9531 1006.8594,1132.5625 L1006.8594,1134.0156 Q1006.8594,1134.625 1006.625,1134.8906 Q1006.3906,1135.1563 1006.0156,1135.1563 Q1005.6719,1135.1563 1005.4688,1134.9531 Q1005.2656,1134.7656 1005.1563,1134.25 Q1005.1094,1133.8906 1004.9219,1133.7031 Q1004.5938,1133.3281 1003.9844,1133.1094 Q1003.375,1132.8906 1002.75,1132.8906 Q1001.9844,1132.8906 1001.3516,1133.2188 Q1000.7188,1133.5469 1000.2266,1134.2969 Q999.7344,1135.0469 999.7344,1136.0781 L999.7344,1137.1719 Q999.7344,1138.4063 1000.625,1139.2266 Q1001.5156,1140.0469 1003.1094,1140.0469 Q1004.0469,1140.0469 1004.7031,1139.7969 Q1005.0938,1139.6406 1005.5156,1139.2031 Q1005.7813,1138.9375 1005.9297,1138.8594 Q1006.0781,1138.7813 1006.2813,1138.7813 Q1006.6094,1138.7813 1006.8672,1139.0391 Q1007.125,1139.2969 1007.125,1139.6406 Q1007.125,1139.9844 1006.7813,1140.3906 Q1006.2813,1140.9688 1005.4844,1141.2969 Q1004.4063,1141.75 1003.1094,1141.75 Q1001.5938,1141.75 1000.3906,1141.125 Q999.4063,1140.625 998.7188,1139.5547 Q998.0313,1138.4844 998.0313,1137.2031 L998.0313,1136.0469 Q998.0313,1134.7188 998.6484,1133.5703 Q999.2656,1132.4219 1000.3594,1131.8047 Q1001.4531,1131.1875 1002.6875,1131.1875 Q1003.4219,1131.1875 1004.0703,1131.3516 Q1004.7188,1131.5156 1005.2656,1131.875 Z "/><text fill="#000000" font-family="sans-serif" font-size="12" lengthAdjust="spacingAndGlyphs" textLength="59" x="1022.5" y="1140.9102">Freelancer</text><line style="stroke: #A80036; stroke-width: 1.5;" x1="961.5" x2="1110.5" y1="1152" y2="1152"/><rect fill="none" height="6" style="stroke: #C82930; stroke-width: 1.0;" width="6" x="968.5" y="1161.418"/><text fill="#000000" font-family="sans-serif" font-size="11" lengthAdjust="spacingAndGlyphs" textLength="39" x="980.5" y="1167.4189">String id</text><rect fill="none" height="6" style="stroke: #C82930; stroke-width: 1.0;" width="6" x="968.5" y="1175.2539"/><text fill="#000000" font-family="sans-serif" font-size="11" lengthAdjust="spacingAndGlyphs" textLength="57" x="980.5" y="1181.2549">String name</text><rect fill="none" height="6" style="stroke: #C82930; stroke-width: 1.0;" width="6" x="968.5" y="1189.0898"/><text fill="#000000" font-family="sans-serif" font-size="11" lengthAdjust="spacingAndGlyphs" textLength="55" x="980.5" y="1195.0908">String email</text><rect fill="none" height="6" style="stroke: #C82930; stroke-width: 1.0;" width="6" x="968.5" y="1202.9258"/><text fill="#000000" font-family="sans-serif" font-size="11" lengthAdjust="spacingAndGlyphs" textLength="50" x="980.5" y="1208.9268">double NIF</text><rect fill="none" height="6" style="stroke: #C82930; stroke-width: 1.0;" width="6" x="968.5" y="1216.7617"/><text fill="#000000" font-family="sans-serif" font-size="11" lengthAdjust="spacingAndGlyphs" textLength="55" x="980.5" y="1222.7627">String IBAN</text><rect fill="none" height="6" style="stroke: #C82930; stroke-width: 1.0;" width="6" x="968.5" y="1230.5977"/><text fill="#000000" font-family="sans-serif" font-size="11" lengthAdjust="spacingAndGlyphs" textLength="116" x="980.5" y="1236.5986">double OverallPayments</text><line style="stroke: #A80036; stroke-width: 1.5;" x1="961.5" x2="1110.5" y1="1243.0156" y2="1243.0156"/><ellipse cx="971.5" cy="1255.4336" fill="#84BE84" rx="3" ry="3" style="stroke: #038048; stroke-width: 1.0;"/><text fill="#000000" font-family="sans-serif" font-size="11" lengthAdjust="spacingAndGlyphs" textLength="125" x="980.5" y="1258.4346">setAnualDelay(taskDelay)</text><ellipse cx="971.5" cy="1269.2695" fill="#84BE84" rx="3" ry="3" style="stroke: #038048; stroke-width: 1.0;"/><text fill="#000000" font-family="sans-serif" font-size="11" lengthAdjust="spacingAndGlyphs" textLength="78" x="980.5" y="1272.2705">incrementTask()</text><!--class PaymentTransactionList--><rect fill="#FEFECE" filter="url(#fnvd2ii9ypxl6)" height="103.3438" id="PaymentTransactionList" style="stroke: #A80036; stroke-width: 1.5;" width="216" x="532" y="785"/><ellipse cx="569.95" cy="801" fill="#ADD1B2" rx="11" ry="11" style="stroke: #A80036; stroke-width: 1.0;"/><path d="M572.7156,796.875 Q572.8719,796.6563 573.0594,796.5469 Q573.2469,796.4375 573.4656,796.4375 Q573.8406,796.4375 574.075,796.6953 Q574.3094,796.9531 574.3094,797.5625 L574.3094,799.0156 Q574.3094,799.625 574.075,799.8906 Q573.8406,800.1563 573.4656,800.1563 Q573.1219,800.1563 572.9188,799.9531 Q572.7156,799.7656 572.6063,799.25 Q572.5594,798.8906 572.3719,798.7031 Q572.0438,798.3281 571.4344,798.1094 Q570.825,797.8906 570.2,797.8906 Q569.4344,797.8906 568.8016,798.2188 Q568.1688,798.5469 567.6766,799.2969 Q567.1844,800.0469 567.1844,801.0781 L567.1844,802.1719 Q567.1844,803.4063 568.075,804.2266 Q568.9656,805.0469 570.5594,805.0469 Q571.4969,805.0469 572.1531,804.7969 Q572.5438,804.6406 572.9656,804.2031 Q573.2313,803.9375 573.3797,803.8594 Q573.5281,803.7813 573.7313,803.7813 Q574.0594,803.7813 574.3172,804.0391 Q574.575,804.2969 574.575,804.6406 Q574.575,804.9844 574.2313,805.3906 Q573.7313,805.9688 572.9344,806.2969 Q571.8563,806.75 570.5594,806.75 Q569.0438,806.75 567.8406,806.125 Q566.8563,805.625 566.1688,804.5547 Q565.4813,803.4844 565.4813,802.2031 L565.4813,801.0469 Q565.4813,799.7188 566.0984,798.5703 Q566.7156,797.4219 567.8094,796.8047 Q568.9031,796.1875 570.1375,796.1875 Q570.8719,796.1875 571.5203,796.3516 Q572.1688,796.5156 572.7156,796.875 Z "/><text fill="#000000" font-family="sans-serif" font-size="12" lengthAdjust="spacingAndGlyphs" textLength="133" x="589.05" y="805.9102">PaymentTransactionList</text><line style="stroke: #A80036; stroke-width: 1.5;" x1="533" x2="747" y1="817" y2="817"/><line style="stroke: #A80036; stroke-width: 1.5;" x1="533" x2="747" y1="825" y2="825"/><ellipse cx="543" cy="837.418" fill="#84BE84" rx="3" ry="3" style="stroke: #038048; stroke-width: 1.0;"/><text fill="#000000" font-family="sans-serif" font-size="11" lengthAdjust="spacingAndGlyphs" textLength="190" x="552" y="840.4189">newPaymentTransaction(id, freel, task)</text><ellipse cx="543" cy="851.2539" fill="#84BE84" rx="3" ry="3" style="stroke: #038048; stroke-width: 1.0;"/><text fill="#000000" font-family="sans-serif" font-size="11" lengthAdjust="spacingAndGlyphs" textLength="189" x="552" y="854.2549">validatePaymentTransaction(payTrans)</text><ellipse cx="543" cy="865.0898" fill="#84BE84" rx="3" ry="3" style="stroke: #038048; stroke-width: 1.0;"/><text fill="#000000" font-family="sans-serif" font-size="11" lengthAdjust="spacingAndGlyphs" textLength="189" x="552" y="868.0908">registerPaymentTransaction(payTrans)</text><ellipse cx="543" cy="878.9258" fill="#84BE84" rx="3" ry="3" style="stroke: #038048; stroke-width: 1.0;"/><text fill="#000000" font-family="sans-serif" font-size="11" lengthAdjust="spacingAndGlyphs" textLength="170" x="552" y="881.9268">addPaymentTransaction(payTrans)</text><!--class PaymentTransaction--><rect fill="#FEFECE" filter="url(#fnvd2ii9ypxl6)" height="75.6719" id="PaymentTransaction" style="stroke: #A80036; stroke-width: 1.5;" width="145" x="676.5" y="966"/><ellipse cx="691.5" cy="982" fill="#ADD1B2" rx="11" ry="11" style="stroke: #A80036; stroke-width: 1.0;"/><path d="M694.2656,977.875 Q694.4219,977.6563 694.6094,977.5469 Q694.7969,977.4375 695.0156,977.4375 Q695.3906,977.4375 695.625,977.6953 Q695.8594,977.9531 695.8594,978.5625 L695.8594,980.0156 Q695.8594,980.625 695.625,980.8906 Q695.3906,981.1563 695.0156,981.1563 Q694.6719,981.1563 694.4688,980.9531 Q694.2656,980.7656 694.1563,980.25 Q694.1094,979.8906 693.9219,979.7031 Q693.5938,979.3281 692.9844,979.1094 Q692.375,978.8906 691.75,978.8906 Q690.9844,978.8906 690.3516,979.2188 Q689.7188,979.5469 689.2266,980.2969 Q688.7344,981.0469 688.7344,982.0781 L688.7344,983.1719 Q688.7344,984.4063 689.625,985.2266 Q690.5156,986.0469 692.1094,986.0469 Q693.0469,986.0469 693.7031,985.7969 Q694.0938,985.6406 694.5156,985.2031 Q694.7813,984.9375 694.9297,984.8594 Q695.0781,984.7813 695.2813,984.7813 Q695.6094,984.7813 695.8672,985.0391 Q696.125,985.2969 696.125,985.6406 Q696.125,985.9844 695.7813,986.3906 Q695.2813,986.9688 694.4844,987.2969 Q693.4063,987.75 692.1094,987.75 Q690.5938,987.75 689.3906,987.125 Q688.4063,986.625 687.7188,985.5547 Q687.0313,984.4844 687.0313,983.2031 L687.0313,982.0469 Q687.0313,980.7188 687.6484,979.5703 Q688.2656,978.4219 689.3594,977.8047 Q690.4531,977.1875 691.6875,977.1875 Q692.4219,977.1875 693.0703,977.3516 Q693.7188,977.5156 694.2656,977.875 Z "/><text fill="#000000" font-family="sans-serif" font-size="12" lengthAdjust="spacingAndGlyphs" textLength="113" x="705.5" y="986.9102">PaymentTransaction</text><line style="stroke: #A80036; stroke-width: 1.5;" x1="677.5" x2="820.5" y1="998" y2="998"/><rect fill="none" height="6" style="stroke: #C82930; stroke-width: 1.0;" width="6" x="684.5" y="1007.418"/><text fill="#000000" font-family="sans-serif" font-size="11" lengthAdjust="spacingAndGlyphs" textLength="39" x="696.5" y="1013.4189">String id</text><line style="stroke: #A80036; stroke-width: 1.5;" x1="677.5" x2="820.5" y1="1019.8359" y2="1019.8359"/><ellipse cx="687.5" cy="1032.2539" fill="#84BE84" rx="3" ry="3" style="stroke: #038048; stroke-width: 1.0;"/><text fill="#000000" font-family="sans-serif" font-size="11" lengthAdjust="spacingAndGlyphs" textLength="101" x="696.5" y="1035.2549">create(id, freel, task)</text><!--class Task--><rect fill="#FEFECE" filter="url(#fnvd2ii9ypxl6)" height="131.0156" id="Task" style="stroke: #A80036; stroke-width: 1.5;" width="287" x="452.5" y="1134"/><ellipse cx="578.25" cy="1150" fill="#ADD1B2" rx="11" ry="11" style="stroke: #A80036; stroke-width: 1.0;"/><path d="M581.0156,1145.875 Q581.1719,1145.6563 581.3594,1145.5469 Q581.5469,1145.4375 581.7656,1145.4375 Q582.1406,1145.4375 582.375,1145.6953 Q582.6094,1145.9531 582.6094,1146.5625 L582.6094,1148.0156 Q582.6094,1148.625 582.375,1148.8906 Q582.1406,1149.1563 581.7656,1149.1563 Q581.4219,1149.1563 581.2188,1148.9531 Q581.0156,1148.7656 580.9063,1148.25 Q580.8594,1147.8906 580.6719,1147.7031 Q580.3438,1147.3281 579.7344,1147.1094 Q579.125,1146.8906 578.5,1146.8906 Q577.7344,1146.8906 577.1016,1147.2188 Q576.4688,1147.5469 575.9766,1148.2969 Q575.4844,1149.0469 575.4844,1150.0781 L575.4844,1151.1719 Q575.4844,1152.4063 576.375,1153.2266 Q577.2656,1154.0469 578.8594,1154.0469 Q579.7969,1154.0469 580.4531,1153.7969 Q580.8438,1153.6406 581.2656,1153.2031 Q581.5313,1152.9375 581.6797,1152.8594 Q581.8281,1152.7813 582.0313,1152.7813 Q582.3594,1152.7813 582.6172,1153.0391 Q582.875,1153.2969 582.875,1153.6406 Q582.875,1153.9844 582.5313,1154.3906 Q582.0313,1154.9688 581.2344,1155.2969 Q580.1563,1155.75 578.8594,1155.75 Q577.3438,1155.75 576.1406,1155.125 Q575.1563,1154.625 574.4688,1153.5547 Q573.7813,1152.4844 573.7813,1151.2031 L573.7813,1150.0469 Q573.7813,1148.7188 574.3984,1147.5703 Q575.0156,1146.4219 576.1094,1145.8047 Q577.2031,1145.1875 578.4375,1145.1875 Q579.1719,1145.1875 579.8203,1145.3516 Q580.4688,1145.5156 581.0156,1145.875 Z "/><text fill="#000000" font-family="sans-serif" font-size="12" lengthAdjust="spacingAndGlyphs" textLength="27" x="598.75" y="1154.9102">Task</text><line style="stroke: #A80036; stroke-width: 1.5;" x1="453.5" x2="738.5" y1="1166" y2="1166"/><rect fill="none" height="6" style="stroke: #C82930; stroke-width: 1.0;" width="6" x="460.5" y="1175.418"/><text fill="#000000" font-family="sans-serif" font-size="11" lengthAdjust="spacingAndGlyphs" textLength="39" x="472.5" y="1181.4189">String id</text><rect fill="none" height="6" style="stroke: #C82930; stroke-width: 1.0;" width="6" x="460.5" y="1189.2539"/><text fill="#000000" font-family="sans-serif" font-size="11" lengthAdjust="spacingAndGlyphs" textLength="107" x="472.5" y="1195.2549">String briefDescription</text><rect fill="none" height="6" style="stroke: #C82930; stroke-width: 1.0;" width="6" x="460.5" y="1203.0898"/><text fill="#000000" font-family="sans-serif" font-size="11" lengthAdjust="spacingAndGlyphs" textLength="95" x="472.5" y="1209.0908">Double timeDuration</text><rect fill="none" height="6" style="stroke: #C82930; stroke-width: 1.0;" width="6" x="460.5" y="1216.9258"/><text fill="#000000" font-family="sans-serif" font-size="11" lengthAdjust="spacingAndGlyphs" textLength="96" x="472.5" y="1222.9268">Double costPerHour</text><rect fill="none" height="6" style="stroke: #C82930; stroke-width: 1.0;" width="6" x="460.5" y="1230.7617"/><text fill="#000000" font-family="sans-serif" font-size="11" lengthAdjust="spacingAndGlyphs" textLength="74" x="472.5" y="1236.7627">String category</text><line style="stroke: #A80036; stroke-width: 1.5;" x1="453.5" x2="738.5" y1="1243.1797" y2="1243.1797"/><ellipse cx="463.5" cy="1255.5977" fill="#84BE84" rx="3" ry="3" style="stroke: #038048; stroke-width: 1.0;"/><text fill="#000000" font-family="sans-serif" font-size="11" lengthAdjust="spacingAndGlyphs" textLength="261" x="472.5" y="1258.5986">newTaskExecution(taskEnd,taskDelay,taskDescWork)</text><!--class TaskExecution--><rect fill="#FEFECE" filter="url(#fnvd2ii9ypxl6)" height="103.3438" id="TaskExecution" style="stroke: #A80036; stroke-width: 1.5;" width="226" x="681" y="1357"/><ellipse cx="749.75" cy="1373" fill="#ADD1B2" rx="11" ry="11" style="stroke: #A80036; stroke-width: 1.0;"/><path d="M752.5156,1368.875 Q752.6719,1368.6563 752.8594,1368.5469 Q753.0469,1368.4375 753.2656,1368.4375 Q753.6406,1368.4375 753.875,1368.6953 Q754.1094,1368.9531 754.1094,1369.5625 L754.1094,1371.0156 Q754.1094,1371.625 753.875,1371.8906 Q753.6406,1372.1563 753.2656,1372.1563 Q752.9219,1372.1563 752.7188,1371.9531 Q752.5156,1371.7656 752.4063,1371.25 Q752.3594,1370.8906 752.1719,1370.7031 Q751.8438,1370.3281 751.2344,1370.1094 Q750.625,1369.8906 750,1369.8906 Q749.2344,1369.8906 748.6016,1370.2188 Q747.9688,1370.5469 747.4766,1371.2969 Q746.9844,1372.0469 746.9844,1373.0781 L746.9844,1374.1719 Q746.9844,1375.4063 747.875,1376.2266 Q748.7656,1377.0469 750.3594,1377.0469 Q751.2969,1377.0469 751.9531,1376.7969 Q752.3438,1376.6406 752.7656,1376.2031 Q753.0313,1375.9375 753.1797,1375.8594 Q753.3281,1375.7813 753.5313,1375.7813 Q753.8594,1375.7813 754.1172,1376.0391 Q754.375,1376.2969 754.375,1376.6406 Q754.375,1376.9844 754.0313,1377.3906 Q753.5313,1377.9688 752.7344,1378.2969 Q751.6563,1378.75 750.3594,1378.75 Q748.8438,1378.75 747.6406,1378.125 Q746.6563,1377.625 745.9688,1376.5547 Q745.2813,1375.4844 745.2813,1374.2031 L745.2813,1373.0469 Q745.2813,1371.7188 745.8984,1370.5703 Q746.5156,1369.4219 747.6094,1368.8047 Q748.7031,1368.1875 749.9375,1368.1875 Q750.6719,1368.1875 751.3203,1368.3516 Q751.9688,1368.5156 752.5156,1368.875 Z "/><text fill="#000000" font-family="sans-serif" font-size="12" lengthAdjust="spacingAndGlyphs" textLength="80" x="770.25" y="1377.9102">TaskExecution</text><line style="stroke: #A80036; stroke-width: 1.5;" x1="682" x2="906" y1="1389" y2="1389"/><rect fill="none" height="6" style="stroke: #C82930; stroke-width: 1.0;" width="6" x="689" y="1398.418"/><text fill="#000000" font-family="sans-serif" font-size="11" lengthAdjust="spacingAndGlyphs" textLength="65" x="701" y="1404.4189">Date deadline</text><rect fill="none" height="6" style="stroke: #C82930; stroke-width: 1.0;" width="6" x="689" y="1412.2539"/><text fill="#000000" font-family="sans-serif" font-size="11" lengthAdjust="spacingAndGlyphs" textLength="62" x="701" y="1418.2549">Double delay</text><rect fill="none" height="6" style="stroke: #C82930; stroke-width: 1.0;" width="6" x="689" y="1426.0898"/><text fill="#000000" font-family="sans-serif" font-size="11" lengthAdjust="spacingAndGlyphs" textLength="113" x="701" y="1432.0908">String descQualityWork</text><line style="stroke: #A80036; stroke-width: 1.5;" x1="682" x2="906" y1="1438.5078" y2="1438.5078"/><ellipse cx="692" cy="1450.9258" fill="#84BE84" rx="3" ry="3" style="stroke: #038048; stroke-width: 1.0;"/><text fill="#000000" font-family="sans-serif" font-size="11" lengthAdjust="spacingAndGlyphs" textLength="200" x="701" y="1453.9268">create(taskEnd,taskDelay,taskDescWork)</text><!--link PaymentTransactionUI to PaymentTransactionController--><path d="M537,56.05 C537,71.28 537,92.04 537,111.92 " fill="none" id="PaymentTransactionUI-PaymentTransactionController" style="stroke: #A80036; stroke-width: 1.0; stroke-dasharray: 7.0,7.0;"/><polygon fill="#A80036" points="537,116.95,541,107.95,537,111.95,533,107.95,537,116.95" style="stroke: #A80036; stroke-width: 1.0;"/><!--link PaymentTransactionController to Platform--><path d="M627.97,234.02 C657.987,253 690.999,273.87 719.626,291.97 " fill="none" id="PaymentTransactionController-Platform" style="stroke: #A80036; stroke-width: 1.0; stroke-dasharray: 7.0,7.0;"/><polygon fill="#A80036" points="724.181,294.85,718.7086,286.6614,719.9539,292.1795,714.4358,293.4248,724.181,294.85" style="stroke: #A80036; stroke-width: 1.0;"/><!--link PaymentTransactionController to Freelancer--><path d="M691.132,183.25 C888.969,196.2 1207,233.45 1207,339 C1207,339 1207,339 1207,1005 C1207,1065.055 1160.18,1115.243 1115.54,1149.446 " fill="none" id="PaymentTransactionController-Freelancer" style="stroke: #A80036; stroke-width: 1.0; stroke-dasharray: 7.0,7.0;"/><polygon fill="#A80036" points="1111.5,1152.499,1121.0915,1150.2622,1115.4885,1149.4837,1116.267,1143.8807,1111.5,1152.499" style="stroke: #A80036; stroke-width: 1.0;"/><!--link PaymentTransactionController to FreelancersRegister--><path d="M691.058,187.44 C809.813,199.04 961.104,221.74 1006,264 C1059.33,314.19 1067.48,404.67 1067.19,457.83 " fill="none" id="PaymentTransactionController-FreelancersRegister" style="stroke: #A80036; stroke-width: 1.0; stroke-dasharray: 7.0,7.0;"/><polygon fill="#A80036" points="1067.14,462.854,1071.217,453.8886,1067.1829,457.8542,1063.2173,453.82,1067.14,462.854" style="stroke: #A80036; stroke-width: 1.0;"/><!--link PaymentTransactionController to Task--><path d="M393.155,234.09 C354.896,259.27 324,293.65 324,339 C324,339 324,339 324,1005 C324,1074.752 384.126,1121.688 447.84,1151.844 " fill="none" id="PaymentTransactionController-Task" style="stroke: #A80036; stroke-width: 1.0; stroke-dasharray: 7.0,7.0;"/><polygon fill="#A80036" points="452.433,1153.986,445.9684,1146.5557,447.9019,1151.8719,442.5858,1153.8054,452.433,1153.986" style="stroke: #A80036; stroke-width: 1.0;"/><!--link PaymentTransactionController to OrganizationsRegister--><path d="M563.817,234.34 C594.901,301.37 645.133,409.71 670.789,465.039 " fill="none" id="PaymentTransactionController-OrganizationsRegister" style="stroke: #A80036; stroke-width: 1.0; stroke-dasharray: 7.0,7.0;"/><polygon fill="#A80036" points="673.044,469.902,672.8849,460.0544,670.9397,465.3664,665.6278,463.4212,673.044,469.902" style="stroke: #A80036; stroke-width: 1.0;"/><!--link PaymentTransactionController to Organization--><path d="M533.471,234.15 C530.999,307.46 533.465,436.8 572,539 C582.02,565.574 599.407,591.587 616.094,612.719 " fill="none" id="PaymentTransactionController-Organization" style="stroke: #A80036; stroke-width: 1.0; stroke-dasharray: 7.0,7.0;"/><polygon fill="#A80036" points="619.42,616.88,616.9238,607.3527,616.2976,612.9748,610.6755,612.3486,619.42,616.88" style="stroke: #A80036; stroke-width: 1.0;"/><!--link PaymentTransactionController to AplicacaoPOT--><path d="M382.926,215.49 C310.397,235.85 223.453,263.16 148,295 C143.71,296.81 139.351,298.78 134.996,300.86 " fill="none" id="PaymentTransactionController-AplicacaoPOT" style="stroke: #A80036; stroke-width: 1.0; stroke-dasharray: 7.0,7.0;"/><polygon fill="#A80036" points="130.275,303.15,140.1184,302.821,134.7737,300.9678,136.6268,295.6231,130.275,303.15" style="stroke: #A80036; stroke-width: 1.0;"/><!--link PaymentTransactionController to UserSession--><path d="M382.914,222.51 C353.713,234.09 324.148,247.89 298,264 C279.769,275.23 262.116,291.07 248.052,305.3 " fill="none" id="PaymentTransactionController-UserSession" style="stroke: #A80036; stroke-width: 1.0; stroke-dasharray: 7.0,7.0;"/><polygon fill="#A80036" points="244.555,308.88,253.7009,305.2258,248.0445,305.299,247.9713,299.6426,244.555,308.88" style="stroke: #A80036; stroke-width: 1.0;"/><!--link PaymentTransactionController to TasksList--><path d="M451.53,234.19 C421.457,261.66 395,297.6 395,339 C395,339 395,339 395,663 C395,708.536 408.987,758.963 420.818,793.471 " fill="none" id="PaymentTransactionController-TasksList" style="stroke: #A80036; stroke-width: 1.0; stroke-dasharray: 7.0,7.0;"/><polygon fill="#A80036" points="422.546,798.445,423.3697,788.6306,420.9046,793.7221,415.8131,791.257,422.546,798.445" style="stroke: #A80036; stroke-width: 1.0;"/><!--link PaymentTransactionController to PaymentTransactionList--><path d="M498.176,234.08 C481.601,264.04 466,302.06 466,339 C466,339 466,339 466,663 C466,712.558 502.038,752.736 541.312,781.807 " fill="none" id="PaymentTransactionController-PaymentTransactionList" style="stroke: #A80036; stroke-width: 1.0; stroke-dasharray: 7.0,7.0;"/><polygon fill="#A80036" points="545.616,784.94,540.6951,776.4086,541.5741,781.9968,535.9859,782.8757,545.616,784.94" style="stroke: #A80036; stroke-width: 1.0;"/><!--link PaymentTransactionController to Collaborator--><path d="M691.024,201.68 C792.768,221.82 912.888,253.54 944,295 C1003.337,374.08 905.212,680.521 866.041,793.425 " fill="none" id="PaymentTransactionController-Collaborator" style="stroke: #A80036; stroke-width: 1.0; stroke-dasharray: 7.0,7.0;"/><polygon fill="#A80036" points="864.334,798.331,871.0715,791.1472,865.9784,793.6092,863.5165,788.5161,864.334,798.331" style="stroke: #A80036; stroke-width: 1.0;"/><!--link Platform to FreelancersRegister--><path d="M869.129,385.08 C909.168,408.57 958.048,437.25 996.961,460.081 " fill="none" id="Platform-FreelancersRegister" style="stroke: #A80036; stroke-width: 1.0;"/><polygon fill="#A80036" points="1001.656,462.835,995.9228,454.8268,997.3451,460.302,991.87,461.7242,1001.656,462.835" style="stroke: #A80036; stroke-width: 1.0;"/><text fill="#000000" font-family="sans-serif" font-size="13" lengthAdjust="spacingAndGlyphs" textLength="21" x="947" y="429.4951">has</text><text fill="#000000" font-family="sans-serif" font-size="13" lengthAdjust="spacingAndGlyphs" textLength="7" x="872.2018" y="406.0988">1</text><text fill="#000000" font-family="sans-serif" font-size="13" lengthAdjust="spacingAndGlyphs" textLength="7" x="982.7494" y="452.1734">1</text><!--link Platform to OrganizationsRegister--><path d="M764.195,385.29 C747.196,410.55 726.199,441.75 710.396,465.234 " fill="none" id="Platform-OrganizationsRegister" style="stroke: #A80036; stroke-width: 1.0;"/><polygon fill="#A80036" points="707.508,469.525,715.8518,464.2923,710.2999,465.3771,709.2152,459.8252,707.508,469.525" style="stroke: #A80036; stroke-width: 1.0;"/><text fill="#000000" font-family="sans-serif" font-size="13" lengthAdjust="spacingAndGlyphs" textLength="21" x="745" y="429.4951">has</text><text fill="#000000" font-family="sans-serif" font-size="13" lengthAdjust="spacingAndGlyphs" textLength="7" x="752.7196" y="406.0027">1</text><text fill="#000000" font-family="sans-serif" font-size="13" lengthAdjust="spacingAndGlyphs" textLength="7" x="704.0159" y="458.9376">1</text><!--link FreelancersRegister to Freelancer--><path d="M1066.1,539.263 C1066.96,571.483 1068,619.31 1068,661 C1068,661 1068,661 1068,1005 C1068,1041.348 1062.44,1081.029 1055.95,1114.943 " fill="none" id="FreelancersRegister-Freelancer" style="stroke: #A80036; stroke-width: 1.0;"/><polygon fill="#A80036" points="1054.98,1119.903,1060.6223,1111.8305,1055.9331,1114.9947,1052.769,1110.3055,1054.98,1119.903" style="stroke: #A80036; stroke-width: 1.0;"/><text fill="#000000" font-family="sans-serif" font-size="13" lengthAdjust="spacingAndGlyphs" textLength="82" x="1069" y="841.9951">has registered</text><text fill="#000000" font-family="sans-serif" font-size="13" lengthAdjust="spacingAndGlyphs" textLength="7" x="1058.7175" y="560.1854">1</text><text fill="#000000" font-family="sans-serif" font-size="13" lengthAdjust="spacingAndGlyphs" textLength="5" x="1051.5508" y="1109.0807">*</text><!--link OrganizationsRegister to Organization--><path d="M681.858,532.281 C678.057,554.666 672.798,585.634 668.391,611.585 " fill="none" id="OrganizationsRegister-Organization" style="stroke: #A80036; stroke-width: 1.0;"/><polygon fill="#A80036" points="667.522,616.704,672.9726,608.5009,668.3593,611.7746,665.0856,607.1613,667.522,616.704" style="stroke: #A80036; stroke-width: 1.0;"/><text fill="#000000" font-family="sans-serif" font-size="13" lengthAdjust="spacingAndGlyphs" textLength="57" x="677" y="583.4951">registered</text><text fill="#000000" font-family="sans-serif" font-size="13" lengthAdjust="spacingAndGlyphs" textLength="7" x="673.2106" y="553.3132">1</text><text fill="#000000" font-family="sans-serif" font-size="13" lengthAdjust="spacingAndGlyphs" textLength="5" x="663.291" y="606.1028">*</text><!--link Organization to TasksList--><path d="M602.862,707.199 C567.768,734.345 523.162,768.85 489.049,795.238 " fill="none" id="Organization-TasksList" style="stroke: #A80036; stroke-width: 1.0;"/><polygon fill="#A80036" points="484.942,798.415,494.5077,796.0704,488.8963,795.355,489.6117,789.7436,484.942,798.415" style="stroke: #A80036; stroke-width: 1.0;"/><text fill="#000000" font-family="sans-serif" font-size="13" lengthAdjust="spacingAndGlyphs" textLength="21" x="563" y="751.4951">has</text><text fill="#000000" font-family="sans-serif" font-size="13" lengthAdjust="spacingAndGlyphs" textLength="7" x="587.7138" y="727.8994">1</text><text fill="#000000" font-family="sans-serif" font-size="13" lengthAdjust="spacingAndGlyphs" textLength="7" x="485.8582" y="787.7618">1</text><!--link Organization to PaymentTransactionList--><path d="M654.85,707.423 C652.299,729.418 649.194,756.202 646.484,779.579 " fill="none" id="Organization-PaymentTransactionList" style="stroke: #A80036; stroke-width: 1.0;"/><polygon fill="#A80036" points="645.876,784.821,650.8856,776.3414,646.4517,779.8543,642.9388,775.4203,645.876,784.821" style="stroke: #A80036; stroke-width: 1.0;"/><text fill="#000000" font-family="sans-serif" font-size="13" lengthAdjust="spacingAndGlyphs" textLength="21" x="653" y="751.4951">has</text><text fill="#000000" font-family="sans-serif" font-size="13" lengthAdjust="spacingAndGlyphs" textLength="7" x="646.6877" y="728.1535">1</text><text fill="#000000" font-family="sans-serif" font-size="13" lengthAdjust="spacingAndGlyphs" textLength="7" x="639.1953" y="774.2973">1</text><!--link Organization to Collaborator--><path d="M709.187,707.423 C739.018,734.364 776.803,768.489 805.868,794.739 " fill="none" id="Organization-Collaborator" style="stroke: #A80036; stroke-width: 1.0;"/><polygon fill="#A80036" points="809.729,798.226,805.7301,789.2255,806.0181,794.875,800.3686,795.163,809.729,798.226" style="stroke: #A80036; stroke-width: 1.0;"/><text fill="#000000" font-family="sans-serif" font-size="13" lengthAdjust="spacingAndGlyphs" textLength="21" x="763" y="751.4951">has</text><text fill="#000000" font-family="sans-serif" font-size="13" lengthAdjust="spacingAndGlyphs" textLength="7" x="708.3262" y="728.1535">1</text><text fill="#000000" font-family="sans-serif" font-size="13" lengthAdjust="spacingAndGlyphs" textLength="7" x="794.7542" y="787.5391">1</text><!--link TasksList to Task--><path d="M437.071,874.582 C438.426,916.848 444.613,987.166 469,1042 C483.037,1073.562 505.133,1104.054 526.986,1129.608 " fill="none" id="TasksList-Task" style="stroke: #A80036; stroke-width: 1.0;"/><polygon fill="#A80036" points="530.49,1133.666,527.638,1124.2391,527.2232,1129.8807,521.5816,1129.4659,530.49,1133.666" style="stroke: #A80036; stroke-width: 1.0;"/><text fill="#000000" font-family="sans-serif" font-size="13" lengthAdjust="spacingAndGlyphs" textLength="82" x="470" y="1009.4951">has registered</text><text fill="#000000" font-family="sans-serif" font-size="13" lengthAdjust="spacingAndGlyphs" textLength="7" x="429.5031" y="895.7657">1</text><text fill="#000000" font-family="sans-serif" font-size="13" lengthAdjust="spacingAndGlyphs" textLength="5" x="518.0514" y="1123.1039">*</text><!--link PaymentTransactionList to PaymentTransaction--><path d="M669.048,888.223 C678.3,903.759 688.791,920.765 699,936 C704.694,944.496 711.041,953.392 717.252,961.823 " fill="none" id="PaymentTransactionList-PaymentTransaction" style="stroke: #A80036; stroke-width: 1.0;"/><polygon fill="#A80036" points="720.286,965.921,718.1447,956.3077,717.3105,961.9027,711.7155,961.0685,720.286,965.921" style="stroke: #A80036; stroke-width: 1.0;"/><text fill="#000000" font-family="sans-serif" font-size="13" lengthAdjust="spacingAndGlyphs" textLength="82" x="700" y="932.4951">has registered</text><text fill="#000000" font-family="sans-serif" font-size="13" lengthAdjust="spacingAndGlyphs" textLength="7" x="665.481" y="909.7439">1</text><text fill="#000000" font-family="sans-serif" font-size="13" lengthAdjust="spacingAndGlyphs" textLength="5" x="709.726" y="955.2688">*</text><!--link PaymentTransaction to Freelancer--><path d="M774.309,1042.336 C786.486,1058.4 802.105,1076.539 819,1090 C860.081,1122.732 912.632,1149.321 955.73,1167.985 " fill="none" id="PaymentTransaction-Freelancer" style="stroke: #A80036; stroke-width: 1.0;"/><polygon fill="#A80036" points="960.402,1169.993,953.7124,1162.7646,955.8082,1168.0189,950.5539,1170.1147,960.402,1169.993" style="stroke: #A80036; stroke-width: 1.0;"/><text fill="#000000" font-family="sans-serif" font-size="13" lengthAdjust="spacingAndGlyphs" textLength="11" x="820" y="1086.4951">to</text><text fill="#000000" font-family="sans-serif" font-size="13" lengthAdjust="spacingAndGlyphs" textLength="5" x="772.9442" y="1063.2701">*</text><text fill="#000000" font-family="sans-serif" font-size="13" lengthAdjust="spacingAndGlyphs" textLength="7" x="945.6158" y="1163.8287">1</text><!--link PaymentTransaction to Task--><path d="M719.5,1042.309 C699.887,1067.113 673.545,1100.428 650.228,1129.918 " fill="none" id="PaymentTransaction-Task" style="stroke: #A80036; stroke-width: 1.0;"/><polygon fill="#A80036" points="647.106,1133.866,655.8263,1129.2882,650.2076,1129.9443,649.5516,1124.3256,647.106,1133.866" style="stroke: #A80036; stroke-width: 1.0;"/><text fill="#000000" font-family="sans-serif" font-size="13" lengthAdjust="spacingAndGlyphs" textLength="43" x="697" y="1086.4951">referent</text><text fill="#000000" font-family="sans-serif" font-size="13" lengthAdjust="spacingAndGlyphs" textLength="7" x="707.2406" y="1063.2388">1</text><text fill="#000000" font-family="sans-serif" font-size="13" lengthAdjust="spacingAndGlyphs" textLength="7" x="645.3129" y="1123.3258">1</text><!--link Collaborator to Freelancer--><path d="M875.25,874.681 C883.719,888.141 893.081,903.579 901,918 C936.676,982.968 972.872,1058.829 998.792,1115.266 " fill="none" id="Collaborator-Freelancer" style="stroke: #A80036; stroke-width: 1.0;"/><polygon fill="#A80036" points="1000.953,1119.979,1000.8379,1110.1308,998.869,1115.434,993.5659,1113.4652,1000.953,1119.979" style="stroke: #A80036; stroke-width: 1.0;"/><text fill="#000000" font-family="sans-serif" font-size="13" lengthAdjust="spacingAndGlyphs" textLength="50" x="965" y="1009.4951">registers</text><text fill="#000000" font-family="sans-serif" font-size="13" lengthAdjust="spacingAndGlyphs" textLength="7" x="871.557" y="895.5904">1</text><text fill="#000000" font-family="sans-serif" font-size="13" lengthAdjust="spacingAndGlyphs" textLength="5" x="992.3743" y="1109.1639">*</text><!--link Collaborator to Task--><path d="M800.785,867.601 C789.107,874.429 776.675,881.563 765,888 C698.852,924.471 655.75,903.051 614,966 C582.414,1013.624 580.187,1079.414 584.546,1128.859 " fill="none" id="Collaborator-Task" style="stroke: #A80036; stroke-width: 1.0;"/><polygon fill="#A80036" points="585.018,1133.894,588.1624,1124.5606,584.5523,1128.9157,580.1972,1125.3057,585.018,1133.894" style="stroke: #A80036; stroke-width: 1.0;"/><text fill="#000000" font-family="sans-serif" font-size="13" lengthAdjust="spacingAndGlyphs" textLength="43" x="615" y="1009.4951">creates</text><text fill="#000000" font-family="sans-serif" font-size="13" lengthAdjust="spacingAndGlyphs" textLength="7" x="785.8956" y="868.539">1</text><text fill="#000000" font-family="sans-serif" font-size="13" lengthAdjust="spacingAndGlyphs" textLength="5" x="578.5434" y="1123.3568">*</text><!--link Collaborator to TaskExecution--><path d="M848.853,874.819 C846.484,915.816 842.538,983.603 839,1042 C837.707,1063.336 838.069,1068.725 836,1090 C827.059,1181.91 812.042,1288.196 802.596,1351.522 " fill="none" id="Collaborator-TaskExecution" style="stroke: #A80036; stroke-width: 1.0;"/><polygon fill="#A80036" points="801.813,1356.759,807.0984,1348.4485,802.5515,1351.8138,799.1862,1347.2669,801.813,1356.759" style="stroke: #A80036; stroke-width: 1.0;"/><text fill="#000000" font-family="sans-serif" font-size="13" lengthAdjust="spacingAndGlyphs" textLength="43" x="839" y="1086.4951">creates</text><text fill="#000000" font-family="sans-serif" font-size="13" lengthAdjust="spacingAndGlyphs" textLength="7" x="840.953" y="895.7504">1</text><text fill="#000000" font-family="sans-serif" font-size="13" lengthAdjust="spacingAndGlyphs" textLength="5" x="797.5269" y="1346.2269">*</text><!--link Collaborator to PaymentTransaction--><path d="M828.109,874.641 C812.229,900.407 791.062,934.753 774.619,961.432 " fill="none" id="Collaborator-PaymentTransaction" style="stroke: #A80036; stroke-width: 1.0;"/><polygon fill="#A80036" points="771.814,965.983,779.9404,960.4187,774.4367,961.7261,773.1294,956.2224,771.814,965.983" style="stroke: #A80036; stroke-width: 1.0;"/><text fill="#000000" font-family="sans-serif" font-size="13" lengthAdjust="spacingAndGlyphs" textLength="28" x="801" y="932.4951">does</text><text fill="#000000" font-family="sans-serif" font-size="13" lengthAdjust="spacingAndGlyphs" textLength="7" x="816.9029" y="895.544">1</text><text fill="#000000" font-family="sans-serif" font-size="13" lengthAdjust="spacingAndGlyphs" textLength="5" x="770.5594" y="955.0564">*</text><!--link Task to TaskExecution--><path d="M657.834,1265.145 C684.763,1293.298 715.984,1325.938 741.732,1352.856 " fill="none" id="Task-TaskExecution" style="stroke: #A80036; stroke-width: 1.0;"/><polygon fill="#A80036" points="745.49,1356.785,742.1596,1347.5163,742.0339,1353.1718,736.3785,1353.046,745.49,1356.785" style="stroke: #A80036; stroke-width: 1.0;"/><text fill="#000000" font-family="sans-serif" font-size="13" lengthAdjust="spacingAndGlyphs" textLength="21" x="714" y="1323.4951">has</text><text fill="#000000" font-family="sans-serif" font-size="13" lengthAdjust="spacingAndGlyphs" textLength="7" x="657.2143" y="1286.7134">1</text><text fill="#000000" font-family="sans-serif" font-size="13" lengthAdjust="spacingAndGlyphs" textLength="22" x="715.4933" y="1346.2564">0..1</text><!--
@startuml

class PaymentTransactionUI {

}

class PaymentTransactionController {
  +getListOfFreelancers()
  +getListOfTasks()
  +setData(taskEnd, taskDelay, taskDescWork, freelId, taskId)
  +newPaymentTransaction(id)
  +registerPaymentTransaction()
}

class AplicacaoPOT {
  +static getInstance()
  +getCurrentSession()
}

class UserSession {
  +getUserEmail()
}

class Platform {
  -String designation
  +FreelancersRegister getFreelancerRegister()
  +OrganizationsRegister getOrganizationsRegister()
}

class FreelancersRegister {
  +getListOfFreelancers()
  +Task getFreelancerById(freelId)
}

class OrganizationsRegister {
  +getOrganizationByUserEmail(email)
}

class Organization {
  -String designation
  +TasksList getTasksList()
  +PaymentTransactionList getPaymentTransactionList()
}

class TasksList {
  +getListOfTasks()
  +Task getTaskById()
}

class Collaborator {
  -String name
  -String email
}

class Freelancer {
  -String id
  -String name
  -String email
  -double NIF
  -String IBAN
  -double OverallPayments
  +setAnualDelay(taskDelay)
  +incrementTask()
}

class PaymentTransactionList {
  +newPaymentTransaction(id, freel, task)
  +validatePaymentTransaction(payTrans)
  +registerPaymentTransaction(payTrans)
  +addPaymentTransaction(payTrans)
}

class PaymentTransaction {
  -String id
  +create(id, freel, task)
}

class Task {
  -String id
  -String briefDescription
  -Double timeDuration
  -Double costPerHour
  -String category
  +newTaskExecution(taskEnd,taskDelay,taskDescWork)
}

class TaskExecution {
  -Date deadline
  -Double delay
  -String descQualityWork
  +create(taskEnd,taskDelay,taskDescWork)
}

PaymentTransactionUI ..> PaymentTransactionController
PaymentTransactionController ..> Platform
PaymentTransactionController ..> Freelancer
PaymentTransactionController ..> FreelancersRegister
PaymentTransactionController ..> Task
PaymentTransactionController ..> OrganizationsRegister
PaymentTransactionController ..> Organization
PaymentTransactionController ..> AplicacaoPOT
PaymentTransactionController ..> UserSession
PaymentTransactionController ..> TasksList
PaymentTransactionController ..> PaymentTransactionList
PaymentTransactionController ..> Collaborator

Platform "1" - -> "1" FreelancersRegister : has
Platform "1" - -> "1" OrganizationsRegister : has

FreelancersRegister "1" - -> "*" Freelancer : has registered
OrganizationsRegister "1" - -> "*" Organization : registered

Organization "1" - -> "1" TasksList : has
Organization "1" - -> "1" PaymentTransactionList : has
Organization "1" - -> "1" Collaborator : has

TasksList "1" - -> "*" Task : has registered
PaymentTransactionList "1" - -> "*" PaymentTransaction : has registered

PaymentTransaction "*" - -> "1" Freelancer : to
PaymentTransaction "1" - -> "1" Task : referent

Collaborator "1" - -> "*" Freelancer : registers
Collaborator "1" - -> "*" Task : creates
Collaborator "1" - -> "*" TaskExecution : creates
Collaborator "1" - -> "*" PaymentTransaction : does

Task "1" - -> "0..1" TaskExecution : has
@enduml

PlantUML version 1.2018.14(Fri Dec 21 16:33:16 GMT 2018)
(GPL source distribution)
Java Runtime: Java(TM) SE Runtime Environment
JVM: Java HotSpot(TM) 64-Bit Server VM
Java Version: 1.8.0_251-b08
Operating System: Windows 10
OS Version: 10.0
Default Encoding: Cp1252
Language: pt
Country: PT
--></g></svg>